<?xml version="1.0" encoding="iso-8859-1"?>
<!-- Generator: Adobe Illustrator 19.0.0, SVG Export Plug-In . SVG Version: 6.00 Build 0)  -->
<svg version="1.1" id="Layer_1" xmlns="http://www.w3.org/2000/svg" xmlns:xlink="http://www.w3.org/1999/xlink" x="0px" y="0px"
	 viewBox="-49 141 512 512" style="enable-background:new -49 141 512 512;" xml:space="preserve">
<g id="WA_Logo">
	<g>
		<path d="M386.667,216.279c-47.67-47.726-111.065-74.02-178.609-74.048c-139.169,0-252.437,113.26-252.492,252.472
			c-0.019,44.501,11.608,87.937,33.703,126.229l-35.82,130.838l133.849-35.111c36.879,20.116,78.401,30.718,120.659,30.732h0.104
			c0.008,0-0.007,0,0.001,0c139.155,0,252.432-113.271,252.489-252.487C460.577,327.44,434.338,264.003,386.667,216.279z
			 M208.061,604.75h-0.086c-37.657-0.014-74.592-10.132-106.813-29.252l-7.663-4.548l-79.428,20.835l21.201-77.441l-4.99-7.94
			C9.275,472.991-1.82,434.373-1.804,394.719c0.046-115.707,94.19-209.844,209.948-209.844
			c56.054,0.019,108.745,21.877,148.368,61.545c39.622,39.667,61.43,92.394,61.408,148.468
			C417.873,510.604,323.73,604.75,208.061,604.75z M323.173,447.574c-6.308-3.158-37.326-18.418-43.109-20.526
			c-5.782-2.105-9.989-3.156-14.194,3.157c-4.205,6.315-16.296,20.527-19.977,24.738c-3.679,4.209-7.36,4.738-13.668,1.579
			c-6.309-3.158-26.637-9.819-50.734-31.313c-18.755-16.729-31.417-37.388-35.097-43.705c-3.68-6.315-0.392-9.729,2.766-12.875
			c2.838-2.827,6.309-7.37,9.464-11.053s4.206-6.316,6.309-10.524c2.103-4.212,1.052-7.896-0.526-11.053
			c-1.577-3.158-14.194-34.212-19.451-46.845c-5.121-12.3-10.322-10.634-14.195-10.83c-3.676-0.183-7.886-0.222-12.092-0.222
			s-11.041,1.579-16.824,7.894c-5.783,6.317-22.081,21.58-22.081,52.631c0,31.054,22.606,61.053,25.761,65.263
			c3.154,4.212,44.486,67.934,107.774,95.261c15.052,6.5,26.804,10.382,35.965,13.289c15.113,4.803,28.867,4.125,39.737,2.5
			c12.121-1.81,37.326-15.26,42.584-29.997c5.256-14.739,5.256-27.371,3.679-30.001
			C333.688,452.313,329.482,450.733,323.173,447.574z"/>
	</g>
</g>
</svg>
