<?xml version="1.0" encoding="utf-8"?>
<!-- Generator: Adobe Illustrator 24.0.1, SVG Export Plug-In . SVG Version: 6.00 Build 0)  -->
<svg version="1.1" id="Capa_1" xmlns="http://www.w3.org/2000/svg" xmlns:xlink="http://www.w3.org/1999/xlink" x="0px" y="0px"
	 viewBox="0 0 512 512" style="enable-background:new 0 0 512 512;" xml:space="preserve">
<path d="M467.8,119.3L268.5,4.3c-7.7-4.5-17.3-4.5-25,0l-199.3,115c-7.7,4.5-12.5,12.7-12.5,21.7V371c0,8.9,4.8,17.2,12.5,21.7
	l199.3,115c3.9,2.2,8.2,3.3,12.5,3.3s8.6-1.1,12.5-3.3l199.3-115c7.7-4.5,12.5-12.7,12.5-21.7V141
	C480.3,132,475.5,123.8,467.8,119.3z M256,54.8l149.1,86.1l-148.8,85.8l-148.7-86.2L256,54.8z M81.7,183.3L231,269.8v173L81.7,356.6
	V183.3z M281,442.8V270.1l149.3-86v172.5L281,442.8z"/>
</svg>
