<svg height="512pt" viewBox="-58 0 512 512.00103" width="512pt" xmlns="http://www.w3.org/2000/svg"><path d="m250.636719 370.261719c-17.777344 0-32.242188 14.460937-32.242188 32.242187 0 17.777344 14.464844 32.242188 32.242188 32.242188 17.777343 0 32.242187-14.464844 32.242187-32.242188 0-17.78125-14.464844-32.242187-32.242187-32.242187zm0 49.484375c-9.507813 0-17.242188-7.734375-17.242188-17.242188 0-9.507812 7.734375-17.242187 17.242188-17.242187 9.507812 0 17.242187 7.734375 17.242187 17.242187 0 9.507813-7.734375 17.242188-17.242187 17.242188zm0 0"/><path d="m337.578125 315.929688c4.765625-30.050782-11.589844-58.960938-35.484375-58.960938-9.921875 0-18.789062 5.089844-25.277344 13.457031-6.359375-8.910156-13.625-17.085937-21.753906-24.421875 22.632812-22.789062 37.035156-52.332031 40.816406-84.0625.492188-4.113281-2.445312-7.847656-6.558594-8.335937-4.109374-.496094-7.84375 2.445312-8.335937 6.558593-3.6875 30.914063-18.648437 59.523438-42.132813 80.558594-3.445312 3.085938-3.300781 8.53125.300782 11.429688 11.730468 9.441406 21.730468 20.664062 29.777344 33.398437-1.195313 3.628907-2.070313 7.5-2.585938 11.558594-4.953125-2.714844-10.296875-4.101563-15.707031-4.101563-11.59375 0-21.675781 6.300782-28.734375 15.558594-38.273438-52.390625-121.933594-45.574218-148.328125 18.148438-27.960938 67.492187 35.382812 136.085937 104.136719 114.574218 10.125 2.714844 21.71875 3.316407 32.886718 1.257813-.816406 4.433594-1.230468 9.007813-1.230468 13.675781 0 8.726563 1.511718 17.863282 4.789062 26.242188.007812.023437.015625.050781.027344.074218-14.335938 7.15625-29.679688 11.707032-45.707032 13.542969-4.117187.472657-7.070312 4.191407-6.597656 8.304688.4375 3.828125 3.679688 6.648437 7.441406 6.648437.285157 0 .574219-.015625.863282-.050781 17.964844-2.058594 35.152344-7.195313 51.195312-15.28125 7.746094 10.511719 18.089844 16.296875 29.257813 16.296875 27.835937 0 46.382812-35.097656 40.042969-69.453125 34.820312 6.425781 69.453124-12.546875 69.453124-40.042969 0-5.359375-1.347656-10.527344-3.890624-15.3125 23.164062-2.878906 40.296874-17.554687 40.296874-35.769531 0-24.308594-29.460937-40.167969-58.960937-35.492187zm-250.148437 16.523437c22.847656-55.152344 97.453124-58.449219 126.34375-8.929687-4.550782 12.226562-5.527344 26.207031-3.179688 38.941406-17.515625-3.234375-37.507812-.203125-52.113281 10.011718-11.183594 7.824219-17.339844 18.488282-17.339844 30.027344 0 10.429688 5.046875 20.136719 14.269531 27.683594-48.761718 2.5-88.695312-47.726562-67.980468-97.734375zm198.605468 93.453125c-7.414062-2.464844-14.460937 4.578125-11.996094 11.996094 9.195313 27.652344-4.773437 59.097656-23.402343 59.097656-14.332031 0-26.269531-18.847656-26.269531-40.777344 0-6.425781.964843-12.589844 2.871093-18.320312 2.476563-7.457032-4.640625-14.441406-12-11.996094-27.734375 9.226562-59.097656-4.832031-59.097656-23.402344 0-18.464844 31.210937-32.667968 59.097656-23.398437 7.417969 2.464843 14.460938-4.585938 12-12-9.25-27.804688 4.890625-59.09375 23.398438-59.09375 18.640625 0 32.578125 31.492187 23.402343 59.09375-2.488281 7.488281 4.664063 14.433593 11.996094 12 27.328125-9.085938 59.097656 4.515625 59.097656 23.398437 0 18.539063-31.316406 32.640625-59.097656 23.402344zm5.628906-83.183594c2.566407-3.097656 6.324219-4.894531 10.429688-4.894531 12.488281 0 18.292969 15.492187 9.046875 23.707031-5.847656-.511718-11.753906-.371094-17.570313.464844-.90625-.734375-1.71875-1.585938-2.410156-2.53125.746094-5.273438.945313-11.058594.503906-16.746094zm51.074219 29.71875c-4.3125-3.007812-9.542969-5.679687-15.394531-7.617187 13.167969-24.738281-13.925781-52.078125-38.867188-38.5-1.671874-5.195313-4.214843-10.6875-7.382812-15.332031-1.871094-18.691407 7.335938-39.023438 21-39.023438 15.089844 0 26.5 26.054688 18.898438 48.921875-2.390626 7.183594 4.4375 14.019531 11.625 11.628906 22.804687-7.578125 48.921874 3.761719 48.921874 18.898438 0 12.648437-18.5 23.101562-38.800781 21.023437zm0 0"/><path d="m133.445312 510.875c.300782.035156.597657.054688.890626.054688 3.75 0 6.988281-2.808594 7.441406-6.621094.484375-4.113282-2.453125-7.84375-6.566406-8.328125-117.871094-13.953125-164.386719-166.652344-68.875-243.753907 3.597656-2.90625 3.734374-8.347656.289062-11.429687-55.484375-49.597656-57.703125-135.386719-5.3125-187.777344 77.445312-77.441406 206.1875-28.8125 219.453125 73.992188.53125 4.109375 4.285156 7.015625 8.398437 6.480469 4.109376-.53125 7.011719-4.292969 6.480469-8.398438-11.0625-85.75-94.210937-138.566406-173.023437-122.089844-110.136719 23.027344-153.035156 162.011719-72.214844 243.085938-98.007812 87.921875-43.867188 249.765625 83.039062 264.785156zm0 0"/><path d="m152.785156 67.027344c-68.8125 0-103.425781 83.4375-54.785156 132.078125 49.523438 49.519531 133.90625 12.753906 132.003906-56.785157-1.15625-42.21875-35.078125-75.292968-77.21875-75.292968zm-44.179687 121.472656c-39.222657-39.226562-11.210938-106.472656 44.175781-106.472656 33.960938 0 61.292969 26.664062 62.226562 60.703125 1.527344 55.84375-66.5625 85.605469-106.402343 45.769531zm0 0"/></svg>