<svg xmlns="http://www.w3.org/2000/svg" width="512pt" height="512pt" viewBox="-58 0 512 512.001"><path d="M250.637 370.262c-17.778 0-32.242 14.46-32.242 32.242 0 17.777 14.464 32.242 32.242 32.242 17.777 0 32.242-14.465 32.242-32.242 0-17.781-14.465-32.242-32.242-32.242zm0 49.484c-9.508 0-17.242-7.734-17.242-17.242 0-9.508 7.734-17.242 17.242-17.242 9.508 0 17.242 7.734 17.242 17.242 0 9.508-7.734 17.242-17.242 17.242zm0 0"/><path d="M337.578 315.93c4.766-30.051-11.59-58.961-35.484-58.961-9.922 0-18.79 5.09-25.278 13.457a150.99 150.99 0 0 0-21.753-24.422c22.632-22.79 37.035-52.332 40.816-84.063a7.497 7.497 0 0 0-6.559-8.336c-4.11-.496-7.843 2.446-8.336 6.56-3.687 30.913-18.648 59.523-42.132 80.558-3.446 3.086-3.301 8.53.3 11.43a136 136 0 0 1 29.778 33.398 61.89 61.89 0 0 0-2.586 11.558c-4.953-2.714-10.297-4.101-15.707-4.101-11.594 0-21.676 6.3-28.735 15.558-38.273-52.39-121.933-45.574-148.328 18.149-27.96 67.492 35.383 136.086 104.137 114.574 10.125 2.715 21.719 3.316 32.887 1.258a75.496 75.496 0 0 0-1.23 13.676c0 8.726 1.51 17.863 4.788 26.242.008.023.016.05.028.074-14.336 7.156-29.68 11.707-45.707 13.543a7.5 7.5 0 0 0-6.598 8.305 7.498 7.498 0 0 0 8.305 6.597c17.964-2.058 35.152-7.195 51.195-15.28 7.746 10.51 18.09 16.296 29.258 16.296 27.836 0 46.383-35.098 40.043-69.453 34.82 6.426 69.453-12.547 69.453-40.043 0-5.36-1.348-10.527-3.89-15.313 23.163-2.878 40.296-17.554 40.296-35.77 0-24.308-29.46-40.167-58.96-35.491zM87.43 332.453c22.847-55.152 97.453-58.45 126.343-8.93-4.55 12.227-5.527 26.207-3.18 38.942-17.515-3.235-37.507-.203-52.113 10.012-11.183 7.824-17.34 18.488-17.34 30.027 0 10.43 5.048 20.137 14.27 27.683-48.762 2.5-88.695-47.726-67.98-97.734zm198.605 93.453c-7.414-2.465-14.46 4.578-11.996 11.996 9.195 27.653-4.773 59.098-23.402 59.098-14.332 0-26.27-18.848-26.27-40.777 0-6.426.965-12.59 2.871-18.32 2.477-7.458-4.64-14.442-12-11.997-27.734 9.227-59.097-4.832-59.097-23.402 0-18.465 31.21-32.668 59.097-23.399 7.418 2.465 14.461-4.585 12-12-9.25-27.804 4.89-59.093 23.399-59.093 18.64 0 32.578 31.492 23.402 59.093-2.488 7.489 4.664 14.434 11.996 12 27.328-9.085 59.098 4.516 59.098 23.399 0 18.539-31.317 32.64-59.098 23.402zm5.63-83.183a13.443 13.443 0 0 1 10.429-4.895c12.488 0 18.293 15.492 9.047 23.707a76.645 76.645 0 0 0-17.57.465 13.583 13.583 0 0 1-2.41-2.531c.745-5.274.944-11.059.503-16.746zm51.073 29.718c-4.312-3.007-9.543-5.68-15.394-7.617 13.168-24.738-13.926-52.078-38.867-38.5-1.672-5.195-4.215-10.687-7.383-15.332-1.871-18.691 7.336-39.023 21-39.023 15.09 0 26.5 26.054 18.898 48.922-2.39 7.183 4.438 14.02 11.625 11.629 22.805-7.579 48.922 3.761 48.922 18.898 0 12.648-18.5 23.102-38.8 21.023zm0 0"/><path d="M133.445 510.875c.301.035.598.055.89.055a7.507 7.507 0 0 0 7.442-6.621c.485-4.114-2.453-7.844-6.566-8.329C17.34 482.027-29.176 329.328 66.336 252.227c3.598-2.907 3.734-8.348.289-11.43C11.141 191.199 8.922 105.41 61.312 53.02c77.446-77.442 206.188-28.813 219.454 73.992.53 4.11 4.285 7.015 8.398 6.48 4.11-.531 7.012-4.293 6.48-8.398-11.062-85.75-94.21-138.567-173.023-122.09C12.484 26.03-30.414 165.016 50.406 246.09c-98.008 87.922-43.867 249.765 83.04 264.785zm0 0"/><path d="M152.785 67.027C83.973 67.027 49.36 150.465 98 199.105c49.523 49.52 133.906 12.754 132.004-56.785-1.156-42.218-35.078-75.293-77.219-75.293zM108.605 188.5c-39.222-39.227-11.21-106.473 44.176-106.473 33.961 0 61.293 26.664 62.227 60.703 1.527 55.844-66.563 85.606-106.403 45.77zm0 0"/></svg>