<svg xmlns="http://www.w3.org/2000/svg" viewBox="0 0 512 512"><path d="M244 402H70c-8.3 0-15-6.7-15-15V210h392v40c0 13.8 11.2 25 25 25s25-11.2 25-25V135c0-35.8-29.2-65-65-65H203.3c-6.8-28.6-32.6-50-63.3-50H70C34.2 20 5 49.2 5 85v302c0 35.8 29.2 65 65 65h174c13.8 0 25-11.2 25-25s-11.2-25-25-25zM70 70h70c8.3 0 15 6.7 15 15v10c0 13.8 11.2 25 25 25h252c8.3 0 15 6.7 15 15v25H55V85c0-8.3 6.7-15 15-15z"/><path d="M482 364h-53v-53c0-13.8-11.2-25-25-25s-25 11.2-25 25v53h-53c-13.8 0-25 11.2-25 25s11.2 25 25 25h53v53c0 13.8 11.2 25 25 25s25-11.2 25-25v-53h53c13.8 0 25-11.2 25-25s-11.2-25-25-25z"/></svg>