<?xml version="1.0" encoding="utf-8"?>
<!-- Generator: Adobe Illustrator 26.2.1, SVG Export Plug-In . SVG Version: 6.00 Build 0)  -->
<svg version="1.1" id="Capa_1" xmlns="http://www.w3.org/2000/svg" xmlns:xlink="http://www.w3.org/1999/xlink" x="0px" y="0px"
	 viewBox="0 0 512 512" style="enable-background:new 0 0 512 512;" xml:space="preserve">
<g>
	<path d="M295.5,235.1c-8.7,5-13.6,14.7-12.4,24.7s8.3,18.3,18,21c12.1,3.4,23.8,8.1,35,13.9c12.3,6.3,27.3,1.5,33.7-10.7
		c6.3-12.3,1.5-27.3-10.7-33.7c-0.8-0.4-1.6-0.8-2.4-1.2c23.4-26.2,36.9-60.5,36.9-96.6c0-80-65-145-145-145s-145,65-145,145
		c0,36.1,13.5,70.4,36.9,96.6c-32.4,16.3-61.2,40-83.4,69c-32.4,42.3-49.5,93-49.5,146.4c0,13.8,11.2,25,25,25h234
		c13.8,0,25-11.2,25-25s-11.2-25-25-25H59.1c4.3-33.1,17.1-64.1,37.6-91c24.9-32.5,60.1-56.5,99.2-67.7c9.7-2.8,16.7-11.1,18-21
		s-3.7-19.7-12.4-24.7c-29.6-16.9-48-48.5-48-82.6c0-52.4,42.6-95,95-95s95,42.6,95,95C343.5,186.5,325.1,218.2,295.5,235.1z"/>
	<path d="M479.5,384.5h-45c0-0.3,0-0.7,0-1v-44c0-13.8-11.2-25-25-25s-25,11.2-25,25v44c0,0.3,0,0.7,0,1h-45c-13.8,0-25,11.2-25,25
		s11.2,25,25,25h45v45c0,13.8,11.2,25,25,25s25-11.2,25-25v-45h45c13.8,0,25-11.2,25-25S493.3,384.5,479.5,384.5z"/>
</g>
</svg>
