<svg xmlns="http://www.w3.org/2000/svg" viewBox="-49 141 512 512"><path d="M127 166H31c-30.327 0-55 24.673-55 55v96c0 30.327 24.673 55 55 55h96c30.327 0 55-24.673 55-55v-96c0-30.327-24.673-55-55-55zm5 151c0 2.757-2.243 5-5 5H31c-2.757 0-5-2.243-5-5v-96c0-2.757 2.243-5 5-5h96c2.757 0 5 2.243 5 5v96zm-5 105H31c-30.327 0-55 24.673-55 55v96c0 30.327 24.673 55 55 55h96c30.327 0 55-24.673 55-55v-96c0-30.327-24.673-55-55-55zm5 151c0 2.757-2.243 5-5 5H31c-2.757 0-5-2.243-5-5v-96c0-2.757 2.243-5 5-5h96c2.757 0 5 2.243 5 5v96zm251-151h-96c-30.327 0-55 24.673-55 55v96c0 30.327 24.673 55 55 55h96c30.327 0 55-24.673 55-55v-96c0-30.327-24.673-55-55-55zm5 151c0 2.757-2.243 5-5 5h-96c-2.757 0-5-2.243-5-5v-96c0-2.757 2.243-5 5-5h96c2.757 0 5 2.243 5 5v96zM257 294h53v53c0 13.807 11.193 25 25 25s25-11.193 25-25v-53h53c13.807 0 25-11.193 25-25s-11.193-25-25-25h-53v-53c0-13.807-11.193-25-25-25s-25 11.193-25 25v53h-53c-13.807 0-25 11.193-25 25s11.193 25 25 25z"/></svg>