<?xml version="1.0" encoding="iso-8859-1"?>
<!-- Generator: Adobe Illustrator 19.0.0, SVG Export Plug-In . SVG Version: 6.00 Build 0)  -->
<svg version="1.1" id="Layer_1" xmlns="http://www.w3.org/2000/svg" xmlns:xlink="http://www.w3.org/1999/xlink" x="0px" y="0px"
	 viewBox="0 0 462 462" style="enable-background:new 0 0 462 462;" xml:space="preserve">
<g>
	<path d="M151,0H55C24.673,0,0,24.673,0,55v96c0,30.327,24.673,55,55,55h96c30.327,0,55-24.673,55-55V55C206,24.673,181.327,0,151,0
		z M156,151c0,2.757-2.243,5-5,5H55c-2.757,0-5-2.243-5-5V55c0-2.757,2.243-5,5-5h96c2.757,0,5,2.243,5,5V151z"/>
	<path d="M151,256H55c-30.327,0-55,24.673-55,55v96c0,30.327,24.673,55,55,55h96c30.327,0,55-24.673,55-55v-96
		C206,280.673,181.327,256,151,256z M156,407c0,2.757-2.243,5-5,5H55c-2.757,0-5-2.243-5-5v-96c0-2.757,2.243-5,5-5h96
		c2.757,0,5,2.243,5,5V407z"/>
	<path d="M407,256h-96c-30.327,0-55,24.673-55,55v96c0,30.327,24.673,55,55,55h96c30.327,0,55-24.673,55-55v-96
		C462,280.673,437.327,256,407,256z M412,407c0,2.757-2.243,5-5,5h-96c-2.757,0-5-2.243-5-5v-96c0-2.757,2.243-5,5-5h96
		c2.757,0,5,2.243,5,5V407z"/>
	<path d="M281,128h53v53c0,13.807,11.193,25,25,25s25-11.193,25-25v-53h53c13.807,0,25-11.193,25-25s-11.193-25-25-25h-53V25
		c0-13.807-11.193-25-25-25s-25,11.193-25,25v53h-53c-13.807,0-25,11.193-25,25S267.193,128,281,128z"/>
</g>
<g>
</g>
<g>
</g>
<g>
</g>
<g>
</g>
<g>
</g>
<g>
</g>
<g>
</g>
<g>
</g>
<g>
</g>
<g>
</g>
<g>
</g>
<g>
</g>
<g>
</g>
<g>
</g>
<g>
</g>
</svg>
