<?xml version="1.0" encoding="iso-8859-1"?>
<!-- Generator: Adobe Illustrator 19.0.0, SVG Export Plug-In . SVG Version: 6.00 Build 0)  -->
<svg version="1.1" id="Layer_1" xmlns="http://www.w3.org/2000/svg" xmlns:xlink="http://www.w3.org/1999/xlink" x="0px" y="0px"
	 viewBox="-49 141 512 512" style="enable-background:new -49 141 512 512;" xml:space="preserve">
<g>
	<path d="M127,166H31c-30.327,0-55,24.673-55,55v96c0,30.327,24.673,55,55,55h96c30.327,0,55-24.673,55-55v-96
		C182,190.673,157.327,166,127,166z M132,317c0,2.757-2.243,5-5,5H31c-2.757,0-5-2.243-5-5v-96c0-2.757,2.243-5,5-5h96
		c2.757,0,5,2.243,5,5V317z"/>
	<path d="M127,422H31c-30.327,0-55,24.673-55,55v96c0,30.327,24.673,55,55,55h96c30.327,0,55-24.673,55-55v-96
		C182,446.673,157.327,422,127,422z M132,573c0,2.757-2.243,5-5,5H31c-2.757,0-5-2.243-5-5v-96c0-2.757,2.243-5,5-5h96
		c2.757,0,5,2.243,5,5V573z"/>
	<path d="M383,422h-96c-30.327,0-55,24.673-55,55v96c0,30.327,24.673,55,55,55h96c30.327,0,55-24.673,55-55v-96
		C438,446.673,413.327,422,383,422z M388,573c0,2.757-2.243,5-5,5h-96c-2.757,0-5-2.243-5-5v-96c0-2.757,2.243-5,5-5h96
		c2.757,0,5,2.243,5,5V573z"/>
	<path d="M257,294h53v53c0,13.807,11.193,25,25,25s25-11.193,25-25v-53h53c13.807,0,25-11.193,25-25s-11.193-25-25-25h-53v-53
		c0-13.807-11.193-25-25-25s-25,11.193-25,25v53h-53c-13.807,0-25,11.193-25,25S243.193,294,257,294z"/>
</g>
</svg>
