<?xml version="1.0" encoding="iso-8859-1"?>
<!-- Generator: Adobe Illustrator 19.0.0, SVG Export Plug-In . SVG Version: 6.00 Build 0)  -->
<svg version="1.1" id="Layer_1" xmlns="http://www.w3.org/2000/svg" xmlns:xlink="http://www.w3.org/1999/xlink" x="0px" y="0px"
	 viewBox="0 0 440 440" style="enable-background:new 0 0 440 440;" xml:space="preserve">
<g>
	<path d="M255,105h-70c-13.807,0-25,11.193-25,25v271c0,13.807,11.193,25,25,25h70c13.807,0,25-11.193,25-25V130
		C280,116.193,268.807,105,255,105z"/>
	<path d="M415,14h-70c-13.807,0-25,11.193-25,25v362c0,13.807,11.193,25,25,25h70c13.807,0,25-11.193,25-25V39
		C440,25.193,428.807,14,415,14z"/>
	<path d="M95,220H25c-13.807,0-25,11.193-25,25v156c0,13.807,11.193,25,25,25h70c13.807,0,25-11.193,25-25V245
		C120,231.193,108.807,220,95,220z"/>
</g>
<g>
</g>
<g>
</g>
<g>
</g>
<g>
</g>
<g>
</g>
<g>
</g>
<g>
</g>
<g>
</g>
<g>
</g>
<g>
</g>
<g>
</g>
<g>
</g>
<g>
</g>
<g>
</g>
<g>
</g>
</svg>
