<?xml version="1.0" encoding="iso-8859-1"?>
<!-- Generator: Adobe Illustrator 19.0.0, SVG Export Plug-In . SVG Version: 6.00 Build 0)  -->
<svg version="1.1" id="Layer_1" xmlns="http://www.w3.org/2000/svg" xmlns:xlink="http://www.w3.org/1999/xlink" x="0px" y="0px"
	 viewBox="-49 141 512 512" style="enable-background:new -49 141 512 512;" xml:space="preserve">
<g>
	<path d="M242,282h-70c-13.807,0-25,11.193-25,25v271c0,13.807,11.193,25,25,25h70c13.807,0,25-11.193,25-25V307
		C267,293.193,255.807,282,242,282z"/>
	<path d="M402,191h-70c-13.807,0-25,11.193-25,25v362c0,13.807,11.193,25,25,25h70c13.807,0,25-11.193,25-25V216
		C427,202.193,415.807,191,402,191z"/>
	<path d="M82,397H12c-13.807,0-25,11.193-25,25v156c0,13.807,11.193,25,25,25h70c13.807,0,25-11.193,25-25V422
		C107,408.193,95.807,397,82,397z"/>
</g>
</svg>
