<svg width="512" height="512" viewBox="0 0 512 512" fill="none" xmlns="http://www.w3.org/2000/svg">
<path d="M367.385 93.9432L396.315 106.713C400.371 108.503 403.607 111.743 405.395 115.803L418.152 144.762C424.376 158.902 444.415 158.902 450.639 144.762L463.395 115.803C465.183 111.743 468.42 108.503 472.476 106.713L501.406 93.9432C515.531 87.7133 515.531 67.6537 501.406 61.4238L472.476 48.6541C468.42 46.8641 465.183 43.6241 463.395 39.5642L450.639 10.6048C444.415 -3.53493 424.376 -3.53493 418.152 10.6048L405.395 39.5642C403.607 43.6241 400.371 46.8641 396.315 48.6541L367.385 61.4238C353.259 67.6537 353.259 87.7133 367.385 93.9432Z" fill="black"/>
<path d="M346.797 227V353.997C346.797 367.807 357.975 378.997 371.771 378.997C385.566 378.997 396.745 367.807 396.745 353.997V227C396.745 213.19 385.566 202 371.771 202C357.975 202 346.797 213.19 346.797 227Z" fill="black"/>
<path d="M462 227.996C462 214.186 473.19 202.996 487 202.996V203.006C500.81 203.006 512 214.196 512 228.006V427.002C512 473.871 473.87 512 427 512H85C62.28 512 40.93 503.15 24.87 487.07C8.81004 470.991 -0.0199661 449.631 3.39006e-05 426.912L0.340034 84.9183C0.390034 38.0892 38.52 4.76837e-07 85.34 4.76837e-07H282C295.81 4.76837e-07 307 11.1898 307 24.9995C307 38.8092 295.81 49.999 282 49.999H85.34C66.06 49.999 50.36 65.6887 50.34 84.9683L50 426.962C49.99 436.311 53.63 445.111 60.24 451.731C66.85 458.341 75.64 461.991 85 461.991H427C446.3 461.991 462 446.291 462 426.992V227.996Z" fill="black"/>
<path fill-rule="evenodd" clip-rule="evenodd" d="M238.804 354.496V305.497H164.881V354.496C164.881 368.305 153.702 379.495 139.907 379.495C126.111 379.495 114.933 368.305 114.933 354.496V218.998C114.933 171.029 153.922 132 201.843 132C249.763 132 288.753 171.029 288.753 218.998V354.496C288.753 368.305 277.574 379.495 263.778 379.495C249.983 379.495 238.804 368.305 238.804 354.496ZM238.827 256.499V219.999C238.827 199.6 222.244 183 201.865 183C181.486 183 164.903 199.6 164.903 219.999V256.499H238.827Z" fill="black"/>
</svg>
