<svg width="14" height="14" viewBox="0 0 14 14" fill="none" xmlns="http://www.w3.org/2000/svg">
<g clip-path="url(#clip0_14_103)">
<path d="M10.1673 10.3586C10.5447 10.3586 10.8506 10.0528 10.8506 9.67533V6.20424C10.8506 5.82679 10.5447 5.52095 10.1673 5.52095C9.78985 5.52095 9.48401 5.82679 9.48401 6.20424V9.67533C9.48401 10.0528 9.78985 10.3586 10.1673 10.3586Z" fill="black"/>
<path d="M7.21546 10.386C7.5929 10.386 7.89874 10.0801 7.89874 9.70267V5.99925C7.89874 4.68816 6.832 3.62141 5.5209 3.62141C4.20981 3.62141 3.14307 4.68816 3.14307 5.99925V9.70267C3.14307 10.0801 3.44891 10.386 3.82635 10.386C4.2038 10.386 4.50964 10.0801 4.50964 9.70267V8.36342H6.53217V9.70267C6.53217 10.0801 6.83801 10.386 7.21546 10.386ZM4.50964 6.99685V5.99925C4.50964 5.44169 4.96334 4.98799 5.5209 4.98799C6.07847 4.98799 6.53217 5.44169 6.53217 5.99925V6.99685H4.50964Z" fill="black"/>
<path d="M10.0433 2.56779L10.8348 2.91682C10.9458 2.96574 11.0343 3.05429 11.0832 3.16526L11.4323 3.95678C11.6025 4.34325 12.1508 4.34325 12.3211 3.95678L12.6701 3.16526C12.719 3.05429 12.8076 2.96574 12.9185 2.91682L13.7101 2.56779C14.0965 2.39752 14.0965 1.84925 13.7101 1.67897L12.9185 1.32995C12.8076 1.28103 12.719 1.19247 12.6701 1.08151L12.3211 0.289988C12.1508 -0.0964794 11.6025 -0.0964794 11.4323 0.289988L11.0832 1.08151C11.0343 1.19247 10.9458 1.28103 10.8348 1.32995L10.0433 1.67897C9.6568 1.84925 9.6568 2.39752 10.0433 2.56779Z" fill="black"/>
<path d="M13.3104 5.54829C12.933 5.54829 12.6271 5.85413 12.6271 6.23158V11.6705C12.6271 12.198 12.198 12.6271 11.6705 12.6271H2.32318C2.06735 12.6271 1.82711 12.5274 1.64645 12.3467C1.46579 12.1658 1.3663 11.9253 1.36657 11.6697L1.37587 2.32236C1.37641 1.7954 1.80552 1.36657 2.33247 1.36657H7.70748C8.08492 1.36657 8.39076 1.06073 8.39076 0.683287C8.39076 0.305839 8.08492 0 7.70748 0H2.33247C1.05281 0 0.0106602 1.04106 0.00929363 2.32099L9.26554e-07 11.6684C-0.000545703 12.2893 0.240791 12.8731 0.679735 13.3126C1.11868 13.7521 1.70221 13.994 2.32318 13.994H11.6705C12.9516 13.994 13.9937 12.9518 13.9937 11.6708V6.23158C13.9937 5.85413 13.6879 5.54829 13.3104 5.54829Z" fill="black"/>
</g>
<defs>
<clipPath id="clip0_14_103">
<rect width="14" height="13.9937" fill="white"/>
</clipPath>
</defs>
</svg>
