<svg width="512" height="512" viewBox="0 0 512 512" fill="none" xmlns="http://www.w3.org/2000/svg">
<g clip-path="url(#clip0_493_6983)">
<path d="M422.436 72.8339L398.927 19.5147C387.457 -6.5049 350.537 -6.5049 339.068 19.5147L315.558 72.8339C312.268 80.3038 306.298 86.2737 298.828 89.5637L245.509 113.073C219.489 124.543 219.489 161.463 245.509 172.932L298.828 196.442C306.298 199.732 312.268 205.702 315.558 213.172L339.068 266.491C350.537 292.511 387.457 292.511 398.927 266.491L422.436 213.172C425.726 205.702 431.696 199.732 439.166 196.442L492.485 172.932C518.505 161.463 518.505 124.543 492.485 113.073L439.166 89.5637C431.696 86.2737 425.726 80.3038 422.436 72.8339Z" fill="black"/>
<path d="M116.091 203.102L131.871 238.892C134.081 243.912 138.09 247.912 143.1 250.122L178.89 265.901C196.36 273.601 196.36 298.391 178.89 306.091L143.1 321.871C138.08 324.081 134.081 328.091 131.871 333.1L116.091 368.89C108.391 386.36 83.6013 386.36 75.9014 368.89L60.1216 333.1C57.9116 328.081 53.9017 324.081 48.8918 321.871L13.1023 306.091C-4.36744 298.391 -4.36744 273.601 13.1023 265.901L48.8918 250.122C53.9117 247.912 57.9116 243.902 60.1216 238.892L75.9014 203.102C83.6013 185.633 108.391 185.633 116.091 203.102Z" fill="black"/>
<path d="M306.488 364.68L319.478 394.15C321.298 398.28 324.598 401.579 328.728 403.399L358.197 416.389C372.577 422.729 372.577 443.139 358.197 449.479L328.728 462.469C324.598 464.289 321.298 467.589 319.478 471.718L306.488 501.188C300.148 515.568 279.738 515.568 273.398 501.188L260.409 471.718C258.589 467.589 255.289 464.289 251.159 462.469L221.689 449.479C207.309 443.139 207.309 422.729 221.689 416.389L251.159 403.399C255.289 401.579 258.589 398.28 260.409 394.15L273.398 364.68C279.738 350.3 300.148 350.3 306.488 364.68Z" fill="black"/>
</g>
<defs>
<clipPath id="clip0_493_6983">
<rect width="512" height="512" fill="white"/>
</clipPath>
</defs>
</svg>
