<svg xmlns="http://www.w3.org/2000/svg" width="24" height="24" fill="none"><path fill="#000" fill-rule="evenodd" d="M21.647 10.683a1.171 1.171 0 1 1 2.342 0v9.324a3.987 3.987 0 0 1-3.982 3.983H3.983a3.955 3.955 0 0 1-2.818-1.168A3.957 3.957 0 0 1 0 20.002L.016 3.98A3.988 3.988 0 0 1 3.999 0h9.214a1.171 1.171 0 1 1 0 2.343H3.999c-.904 0-1.64.735-1.64 1.638l-.016 16.024c0 .438.17.85.48 1.16.31.31.721.482 1.16.482h16.024c.904 0 1.64-.736 1.64-1.64v-9.324Zm-4.43-6.281L18.574 5c.19.084.342.236.426.426l.598 1.357a.832.832 0 0 0 1.524 0l.598-1.357A.832.832 0 0 1 22.146 5l1.357-.598a.832.832 0 0 0 0-1.524l-1.357-.598a.832.832 0 0 1-.426-.426L21.122.497a.832.832 0 0 0-1.524 0L19 1.854a.832.832 0 0 1-.426.426l-1.357.598a.832.832 0 0 0 0 1.524ZM13.54 16.633a1.171 1.171 0 1 1-2.343 0v-2.296H7.731v2.296a1.171 1.171 0 1 1-2.343 0v-6.349a4.081 4.081 0 0 1 4.076-4.076 4.081 4.081 0 0 1 4.077 4.076v6.35Zm-5.81-6.349v1.71h3.467v-1.71c0-.955-.778-1.733-1.734-1.733-.955 0-1.733.778-1.733 1.733Zm10.87 6.302a1.171 1.171 0 1 1-2.343 0v-5.95a1.171 1.171 0 1 1 2.343 0v5.95Z" clip-rule="evenodd"/></svg>