<svg xmlns="http://www.w3.org/2000/svg" width="24" height="24" fill="none"><g clip-path="url(#a)"><path fill="#374957" d="M16.258 16.594V10.64a1.171 1.171 0 1 1 2.343 0v5.953a1.171 1.171 0 1 1-2.343 0Zm-5.06.047v-2.297H7.731v2.297a1.171 1.171 0 1 1-2.343 0v-6.352a4.082 4.082 0 0 1 4.076-4.078 4.082 4.082 0 0 1 4.077 4.078v6.352a1.171 1.171 0 1 1-2.343 0Zm0-4.641v-1.71c0-.957-.778-1.735-1.734-1.735-.955 0-1.733.778-1.733 1.734V12h3.467Zm6.019-7.596 1.357.599c.19.083.342.235.426.426l.598 1.357a.832.832 0 0 0 1.524 0l.598-1.357a.833.833 0 0 1 .426-.426l1.357-.6a.833.833 0 0 0 0-1.523l-1.357-.6a.833.833 0 0 1-.426-.425L21.122.497a.832.832 0 0 0-1.524 0L19 1.855a.832.832 0 0 1-.426.426l-1.357.599a.833.833 0 0 0 0 1.524Zm5.6 5.112c-.646 0-1.17.524-1.17 1.171v9.329c0 .904-.736 1.64-1.64 1.64H3.983a1.63 1.63 0 0 1-1.16-.48 1.63 1.63 0 0 1-.48-1.162l.016-16.031c0-.904.736-1.64 1.64-1.64h9.214a1.171 1.171 0 0 0 0-2.343H3.999A3.989 3.989 0 0 0 .016 3.98L0 20.013a3.96 3.96 0 0 0 1.165 2.82A3.954 3.954 0 0 0 3.983 24h16.024a3.988 3.988 0 0 0 3.982-3.984v-9.328c0-.647-.524-1.172-1.171-1.172Z"/></g><defs><clipPath id="a"><path fill="#fff" d="M0 0h24v24H0z"/></clipPath></defs></svg>