<svg xmlns="http://www.w3.org/2000/svg" width="14" height="14" fill="none"><g fill="#000" clip-path="url(#a)"><path d="M10.167 10.359a.683.683 0 0 0 .684-.684v-3.47a.683.683 0 1 0-1.367 0v3.47c0 .378.306.684.683.684ZM7.215 10.386a.683.683 0 0 0 .684-.683V5.999A2.38 2.38 0 0 0 5.52 3.621 2.38 2.38 0 0 0 3.143 6v3.704a.683.683 0 1 0 1.367 0v-1.34h2.022v1.34c0 .377.306.683.683.683ZM4.51 6.996V6a1.012 1.012 0 0 1 2.022 0v.998H4.51ZM10.043 2.568l.792.349c.11.049.2.137.248.248l.35.792c.17.386.718.386.888 0l.35-.792a.485.485 0 0 1 .248-.248l.791-.35a.486.486 0 0 0 0-.888l-.792-.35a.486.486 0 0 1-.248-.247L12.321.29a.486.486 0 0 0-.889 0l-.349.792a.485.485 0 0 1-.248.248l-.792.349a.486.486 0 0 0 0 .889Z"/><path d="M13.31 5.548a.683.683 0 0 0-.683.684v5.439c0 .527-.429.956-.957.956H2.324a.95.95 0 0 1-.677-.28.95.95 0 0 1-.28-.677l.01-9.348c0-.527.43-.955.956-.955h5.375a.683.683 0 1 0 0-1.367H2.332A2.326 2.326 0 0 0 .01 2.321L0 11.668c0 .621.24 1.205.68 1.645.439.44 1.022.681 1.643.681h9.348a2.326 2.326 0 0 0 2.323-2.323V6.23a.683.683 0 0 0-.684-.683Z"/></g><defs><clipPath id="a"><path fill="#fff" d="M0 0h14v13.994H0z"/></clipPath></defs></svg>