<?xml version="1.0" encoding="iso-8859-1"?>
<!-- Generator: Adobe Illustrator 19.0.0, SVG Export Plug-In . SVG Version: 6.00 Build 0)  -->
<svg version="1.1" id="Layer_1" xmlns="http://www.w3.org/2000/svg" xmlns:xlink="http://www.w3.org/1999/xlink" x="0px" y="0px"
	 viewBox="0 0 412 412" style="enable-background:new 0 0 412 412;" xml:space="preserve">
<g>
	<g>
		<path d="M387,186H125c-13.807,0-25-11.193-25-25s11.193-25,25-25h262c13.807,0,25,11.193,25,25S400.807,186,387,186z"/>
	</g>
	<g>
		<path d="M387,276H25c-13.807,0-25-11.193-25-25s11.193-25,25-25h362c13.807,0,25,11.193,25,25S400.807,276,387,276z"/>
	</g>
	<g>
		<path d="M387,366H125c-13.807,0-25-11.193-25-25s11.193-25,25-25h262c13.807,0,25,11.193,25,25S400.807,366,387,366z"/>
	</g>
	<g>
		<path d="M387,96H25C11.193,96,0,84.807,0,71s11.193-25,25-25h362c13.807,0,25,11.193,25,25S400.807,96,387,96z"/>
	</g>
</g>
<g>
</g>
<g>
</g>
<g>
</g>
<g>
</g>
<g>
</g>
<g>
</g>
<g>
</g>
<g>
</g>
<g>
</g>
<g>
</g>
<g>
</g>
<g>
</g>
<g>
</g>
<g>
</g>
<g>
</g>
</svg>
