<?xml version="1.0" encoding="iso-8859-1"?>
<!-- Generator: Adobe Illustrator 19.0.0, SVG Export Plug-In . SVG Version: 6.00 Build 0)  -->
<svg version="1.1" id="Layer_1" xmlns="http://www.w3.org/2000/svg" xmlns:xlink="http://www.w3.org/1999/xlink" x="0px" y="0px"
	 viewBox="-49 141 512 512" style="enable-background:new -49 141 512 512;" xml:space="preserve">
<g>
	<g>
		<path d="M288,377H26c-13.807,0-25-11.193-25-25s11.193-25,25-25h262c13.807,0,25,11.193,25,25S301.807,377,288,377z"/>
	</g>
	<g>
		<path d="M388,467H26c-13.807,0-25-11.193-25-25s11.193-25,25-25h362c13.807,0,25,11.193,25,25S401.807,467,388,467z"/>
	</g>
	<g>
		<path d="M288,557H26c-13.807,0-25-11.193-25-25s11.193-25,25-25h262c13.807,0,25,11.193,25,25S301.807,557,288,557z"/>
	</g>
	<g>
		<path d="M388,287H26c-13.807,0-25-11.193-25-25s11.193-25,25-25h362c13.807,0,25,11.193,25,25S401.807,287,388,287z"/>
	</g>
</g>
</svg>
