<?xml version="1.0" encoding="iso-8859-1"?>
<!-- Generator: Adobe Illustrator 19.0.0, SVG Export Plug-In . SVG Version: 6.00 Build 0)  -->
<svg version="1.1" id="Layer_1" xmlns="http://www.w3.org/2000/svg" xmlns:xlink="http://www.w3.org/1999/xlink" x="0px" y="0px"
	 viewBox="0 0 420 420" style="enable-background:new 0 0 420 420;" xml:space="preserve">
<g>
	<g>
		<path style="fill:#231F20;" d="M194.09,161.764l-23.19,62.612c-0.581,1.57-2.802,1.57-3.383,0l-23.19-62.612
			c-1.311-3.539-4.685-5.888-8.459-5.888h-22.588c-4.982,0-9.021,4.039-9.021,9.021v83.699c0,2.014-2.801,2.514-3.497,0.624
			l-32.215-87.442c-1.307-3.546-4.685-5.902-8.465-5.902H42.856c-3.76,0-7.126,2.332-8.446,5.853L0.583,251.936
			c-2.211,5.897,2.148,12.188,8.446,12.188h4.837c3.883,0,7.33-2.485,8.558-6.168l6.063-18.188h46.005l6.063,18.188
			c1.228,3.684,4.675,6.168,8.558,6.168h30.483c4.982,0,9.021-4.039,9.021-9.021v-62.004c0-2.016,2.804-2.514,3.498-0.621
			l24.101,65.731c1.303,3.553,4.685,5.915,8.469,5.915h9.123c3.748,0,7.105-2.317,8.434-5.821l24.069-63.455
			c0.711-1.874,3.491-1.365,3.491,0.64v59.616c0,4.982,4.039,9.021,9.021,9.021h3.608c4.982,0,9.021-4.039,9.021-9.021v-90.207
			c0-4.982-4.039-9.021-9.021-9.021h-19.882C198.776,155.876,195.401,158.225,194.09,161.764z M37.466,213.001l10.971-30.719
			c0.57-1.596,2.828-1.596,3.398,0l10.971,30.719c0.42,1.175-0.451,2.411-1.699,2.411H39.165
			C37.917,215.412,37.047,214.176,37.466,213.001z M389.223,208.917l28.956-38.608c4.46-5.947,0.217-14.433-7.216-14.433h-7.502
			c-2.677,0-5.216,1.189-6.93,3.246l-24.357,29.229l-18.972-28.458c-1.673-2.509-4.49-4.017-7.506-4.017H270.24
			c-4.982,0-9.021,4.039-9.021,9.021v90.207c0,4.982,4.039,9.021,9.021,9.021h73.136c2.8,0,5.442-1.301,7.15-3.521l24.354-31.66
			l24.354,31.66c1.708,2.22,4.349,3.521,7.15,3.521h4.579c7.434,0,11.677-8.486,7.216-14.433l-28.956-38.608
			C388.742,210.441,388.742,209.559,389.223,208.917z M333.385,242.474h-48.712c-0.996,0-1.804-0.808-1.804-1.804v-18.041
			c0-0.996,0.808-1.804,1.804-1.804h37.887c4.982,0,9.021-4.039,9.021-9.021v-3.608c0-4.982-4.039-9.021-9.021-9.021h-37.887
			c-0.996,0-1.804-0.808-1.804-1.804v-15.335c0-0.996,0.808-1.804,1.804-1.804h51.401c0.577,0,1.12,0.276,1.459,0.743l20.326,27.947
			c0.466,0.641,0.459,1.51-0.016,2.144l-23.015,30.687C334.488,242.207,333.953,242.474,333.385,242.474z"/>
	</g>
</g>
<g>
</g>
<g>
</g>
<g>
</g>
<g>
</g>
<g>
</g>
<g>
</g>
<g>
</g>
<g>
</g>
<g>
</g>
<g>
</g>
<g>
</g>
<g>
</g>
<g>
</g>
<g>
</g>
<g>
</g>
</svg>
