<svg xmlns="http://www.w3.org/2000/svg" viewBox="0 0 420 420"><path d="M194.09 161.764l-23.19 62.612c-.581 1.57-2.802 1.57-3.383 0l-23.19-62.612a9.02 9.02 0 0 0-8.459-5.888H113.28a9.021 9.021 0 0 0-9.021 9.021v83.699c0 2.014-2.801 2.514-3.497.624l-32.215-87.442a9.021 9.021 0 0 0-8.465-5.902H42.856a9.02 9.02 0 0 0-8.446 5.853L.583 251.936c-2.211 5.897 2.148 12.188 8.446 12.188h4.837a9.022 9.022 0 0 0 8.558-6.168l6.063-18.188h46.005l6.063 18.188a9.02 9.02 0 0 0 8.558 6.168h30.483a9.021 9.021 0 0 0 9.021-9.021v-62.004c0-2.016 2.804-2.514 3.498-.621l24.101 65.731a9.02 9.02 0 0 0 8.469 5.915h9.123a9.02 9.02 0 0 0 8.434-5.821l24.069-63.455c.711-1.874 3.491-1.365 3.491.64v59.616a9.021 9.021 0 0 0 9.021 9.021h3.608a9.021 9.021 0 0 0 9.021-9.021v-90.207a9.021 9.021 0 0 0-9.021-9.021h-19.882a9.021 9.021 0 0 0-8.459 5.888zM37.466 213.001l10.971-30.719c.57-1.596 2.828-1.596 3.398 0l10.971 30.719a1.804 1.804 0 0 1-1.699 2.411H39.165a1.804 1.804 0 0 1-1.699-2.411zm351.757-4.084l28.956-38.608c4.46-5.947.217-14.433-7.216-14.433h-7.502a9.02 9.02 0 0 0-6.93 3.246l-24.357 29.229-18.972-28.458a9.023 9.023 0 0 0-7.506-4.017H270.24a9.021 9.021 0 0 0-9.021 9.021v90.207a9.021 9.021 0 0 0 9.021 9.021h73.136c2.8 0 5.442-1.301 7.15-3.521l24.354-31.66 24.354 31.66a9.02 9.02 0 0 0 7.15 3.521h4.579c7.434 0 11.677-8.486 7.216-14.433l-28.956-38.608a1.808 1.808 0 0 1 0-2.167zm-55.838 33.557h-48.712a1.804 1.804 0 0 1-1.804-1.804v-18.041c0-.996.808-1.804 1.804-1.804h37.887a9.021 9.021 0 0 0 9.021-9.021v-3.608a9.021 9.021 0 0 0-9.021-9.021h-37.887a1.804 1.804 0 0 1-1.804-1.804v-15.335c0-.996.808-1.804 1.804-1.804h51.401c.577 0 1.12.276 1.459.743l20.326 27.947c.466.641.459 1.51-.016 2.144l-23.015 30.687c-.34.454-.875.721-1.443.721z" fill="#231f20"/></svg>