<?xml version="1.0" encoding="utf-8"?>
<!-- Generator: Adobe Illustrator 26.3.1, SVG Export Plug-In . SVG Version: 6.00 Build 0)  -->
<svg version="1.1" id="Capa_1" xmlns="http://www.w3.org/2000/svg" xmlns:xlink="http://www.w3.org/1999/xlink" x="0px" y="0px"
	 viewBox="0 0 512 512" style="enable-background:new 0 0 512 512;" xml:space="preserve">
<g>
	<path d="M38.5,202.5c13.8,0,25-11.2,25-25v-96c0-8.3,6.7-15,15-15h85c13.8,0,25-11.2,25-25s-11.2-25-25-25h-85
		c-35.8,0-65,29.2-65,65v96C13.5,191.3,24.7,202.5,38.5,202.5z"/>
	<path d="M470.5,322.5c-13.8,0-25,11.2-25,25v86c0,8.3-6.7,15-15,15h-86c-13.8,0-25,11.2-25,25s11.2,25,25,25h86
		c35.8,0,65-29.2,65-65v-86C495.5,333.7,484.3,322.5,470.5,322.5z"/>
	<path d="M163.5,448.5h-85c-8.3,0-15-6.7-15-15v-86c0-13.8-11.2-25-25-25s-25,11.2-25,25v86c0,35.8,29.2,65,65,65h85
		c13.8,0,25-11.2,25-25S177.3,448.5,163.5,448.5z"/>
	<path d="M498.4,58.1l-88-53c-7.7-4.7-17.4-4.8-25.2-0.3c-7.8,4.4-12.7,12.8-12.7,21.8v106c0,9,4.9,17.3,12.7,21.8
		c3.8,2.2,8.1,3.2,12.3,3.2c4.5,0,8.9-1.2,12.9-3.6l88-53c7.5-4.5,12.1-12.6,12.1-21.4S505.9,62.6,498.4,58.1z"/>
	<path d="M322.3,324.9l-7.9-45.8l33.3-32.5c11-10.7,4.9-29.3-10.2-31.5l-46-6.7l-20.6-41.7c-6.8-13.7-26.3-13.7-33.1,0l-20.6,41.7
		l-46,6.7c-15.1,2.2-21.2,20.8-10.2,31.5l33.3,32.5l-7.9,45.8c-2.6,15.1,13.2,26.6,26.8,19.4l41.2-21.6l41.2,21.6
		C309.1,351.5,324.9,340,322.3,324.9z"/>
</g>
</svg>
