<?xml version="1.0" encoding="utf-8"?>
<!-- Generator: Adobe Illustrator 26.0.2, SVG Export Plug-In . SVG Version: 6.00 Build 0)  -->
<svg version="1.1" id="Capa_1" xmlns="http://www.w3.org/2000/svg" xmlns:xlink="http://www.w3.org/1999/xlink" x="0px" y="0px"
	 viewBox="0 0 512 512" style="enable-background:new 0 0 512 512;" xml:space="preserve">
<g>
	<g>
		<path d="M263.1,511.9h-20c-35.5,0-64.5-28.7-65-64.1c-19.3-7.6-37.4-18-53.7-31c-30.9,17.3-70.3,6.6-88-24.2l-10-17.3
			c-8.7-15-11-32.6-6.5-49.3c4.4-16.5,14.9-30.3,29.5-39c-1.5-10.2-2.3-20.6-2.3-31c0-10.4,0.8-20.8,2.3-31
			c-14.6-8.7-25.1-22.5-29.5-39c-4.5-16.8-2.2-34.3,6.5-49.3l10-17.3c17.8-30.8,57.1-41.5,88-24.2c16.2-13,34.4-23.5,53.7-31
			c0.5-35.4,29.5-64.1,65-64.1h20c35.5,0,64.5,28.7,65,64.1c19.3,7.6,37.4,18,53.7,31c30.9-17.3,70.3-6.6,88,24.2l10,17.3
			c8.7,15,11,32.6,6.5,49.3c-4.4,16.5-14.9,30.3-29.5,39c1.5,10.2,2.3,20.6,2.3,31c0,10.4-0.8,20.8-2.3,31
			c30.5,18.1,40.8,57.6,23,88.3l-10,17.3c-8.7,15-22.7,25.8-39.5,30.3c-16.5,4.4-33.7,2.3-48.6-6.1c-16.2,13-34.4,23.5-53.7,31
			C327.6,483.2,298.6,511.9,263.1,511.9z M127.5,361.2c6.3,0,12.6,2.4,17.4,7c18.3,17.7,40.9,30.7,65.2,37.7
			c10.7,3.1,18.1,12.9,18.1,24v17c0,8.3,6.7,15,15,15h20c8.3,0,15-6.7,15-15v-17c0-11.2,7.4-21,18.1-24c24.3-7,46.8-20,65.2-37.7
			c8-7.7,20.2-9.2,29.9-3.7L406,373c3.5,2,7.5,2.5,11.4,1.5c3.9-1,7.1-3.5,9.1-7l10-17.3c4.1-7.2,1.7-16.4-5.5-20.5l-14.7-8.5
			c-9.6-5.6-14.4-16.9-11.8-27.7c3-12.3,4.6-25,4.6-37.7c0-12.7-1.5-25.4-4.6-37.7c-2.7-10.8,2.1-22.1,11.8-27.7L431,182
			c3.5-2,6-5.2,7-9.1s0.5-7.9-1.5-11.4l-10-17.3c-4.1-7.2-13.3-9.6-20.5-5.5l-14.8,8.5c-9.7,5.6-21.8,4.1-29.9-3.7
			c-18.3-17.7-40.9-30.7-65.2-37.7c-10.7-3.1-18.1-12.9-18.1-24v-17c0-8.3-6.7-15-15-15h-20c-8.3,0-15,6.7-15,15v17
			c0,11.2-7.4,21-18.1,24c-24.3,7-46.8,20-65.2,37.7c-8,7.7-20.2,9.2-29.9,3.7l-14.8-8.5c-7.2-4.1-16.4-1.7-20.5,5.5l-10,17.3
			c-2,3.5-2.5,7.5-1.5,11.4c1,3.9,3.5,7.1,7,9.1l14.7,8.5c9.6,5.6,14.4,16.9,11.8,27.7c-3,12.3-4.6,25-4.6,37.7
			c0,12.7,1.5,25.4,4.6,37.7c2.7,10.8-2.1,22.1-11.8,27.7l-14.7,8.5c-7.2,4.1-9.6,13.3-5.5,20.5l10,17.3c4.1,7.2,13.3,9.6,20.5,5.5
			l14.8-8.5C118.9,362.3,123.2,361.2,127.5,361.2z"/>
	</g>
	<g>
		<path d="M233.7,377.9c-1.6,0-3.2-0.2-4.8-0.5c-13.5-2.7-22.4-15.8-19.7-29.3l38-194c2.7-13.5,15.8-22.4,29.3-19.7
			c13.5,2.7,22.4,15.8,19.7,29.3l-38,194C255.9,369.6,245.4,377.9,233.7,377.9z"/>
	</g>
	<g>
		<path d="M177.7,314.9c-6.4,0-12.8-2.4-17.7-7.3l-34-34c-9.8-9.8-9.8-25.6,0-35.4l34-34c9.8-9.8,25.6-9.8,35.4,0
			c9.8,9.8,9.8,25.6,0,35.4L179,255.9l16.3,16.3c9.8,9.8,9.8,25.6,0,35.4C190.5,312.4,184.1,314.9,177.7,314.9z"/>
	</g>
	<g>
		<path d="M327.7,314.9c-6.4,0-12.8-2.4-17.7-7.3c-9.8-9.8-9.8-25.6,0-35.4l16.3-16.3L310,239.6c-9.8-9.8-9.8-25.6,0-35.4
			c9.8-9.8,25.6-9.8,35.4,0l34,34c9.8,9.8,9.8,25.6,0,35.4l-34,34C340.5,312.4,334.1,314.9,327.7,314.9z"/>
	</g>
</g>
</svg>
