<svg xmlns="http://www.w3.org/2000/svg" xml:space="preserve" style="enable-background:new 0 0 512.001 512.001" viewBox="0 0 512.001 512.001"><path d="M440.685 207.306a8.74 8.74 0 0 0-15.642 7.796c10.883 21.832 16.401 46.771 16.401 74.123 0 38.699-17.777 89.927-46.393 133.692-29.319 44.838-63.407 71.607-91.186 71.607-11.574 0-23.992-1.826-34.967-5.141a90.239 90.239 0 0 0-52.346 0c-10.976 3.316-23.395 5.141-34.969 5.141-27.779 0-61.867-26.77-91.186-71.607-28.617-43.765-46.393-94.993-46.393-133.692 0-36.561 10.115-69.423 29.25-95.034 16.099-21.547 38.541-37.329 61.568-43.3 17.205-4.461 39.891-3.277 65.611 3.419 2.811.732 5.687 1.402 8.545 1.989a8.741 8.741 0 0 0 10.318-6.801c.972-4.727-2.074-9.346-6.801-10.318a152.185 152.185 0 0 1-7.657-1.781c-29.003-7.552-54.035-8.703-74.402-3.424-27.198 7.051-52.477 24.722-71.183 49.756-21.409 28.654-32.726 65.133-32.726 105.494 0 41.911 18.868 96.804 49.243 143.256C108.814 483.016 147.381 512 181.582 512c13.43 0 27.27-2.036 40.021-5.887a72.822 72.822 0 0 1 42.239 0c12.752 3.852 26.591 5.887 40.021 5.887 34.201 0 72.768-28.984 105.812-79.519 30.373-46.453 49.243-101.345 49.243-143.256.002-30.082-6.133-57.644-18.233-81.919z"/><path d="M422.441 178.917c-18.244-22.437-42.191-38.398-67.43-44.942-20.366-5.28-45.399-4.129-74.403 3.424a150.924 150.924 0 0 1-19.177 3.686 8.738 8.738 0 0 0-7.581 9.759c.601 4.788 4.977 8.186 9.759 7.581a168.474 168.474 0 0 0 21.405-4.114c25.723-6.697 48.41-7.878 65.612-3.419 21.656 5.616 42.346 19.484 58.255 39.05a8.722 8.722 0 0 0 6.785 3.226 8.739 8.739 0 0 0 6.775-14.251z"/><path d="M481.442 6.571a8.741 8.741 0 0 0-9.463.03c-12.548 8.138-26.645 5.153-47.985.636-1.855-.393-3.745-.792-5.673-1.193a8.739 8.739 0 0 0-3.552 17.112c1.905.395 3.773.791 5.605 1.179 16.031 3.394 30.528 6.463 44.187 3.795-6.571 23.479-23.847 67.041-63.981 82.506-33.939 13.077-65.831-5.257-91.457-19.988-10.281-5.91-19.364-11.131-27.436-13.401 9.093-19.298 31.648-56.181 72.21-59.262 11.803-.897 23.541-.606 35.882.887a8.74 8.74 0 0 0 2.1-17.35C378.39-.11 365.531-.425 352.575.558c-27.732 2.106-52.546 17.247-71.758 43.783-12.302 16.993-18.561 33.428-20.151 37.945l-23 34.928c-6.473-19.576-12.894-31.846-13.41-32.818a8.74 8.74 0 0 0-15.435 8.196c.217.407 20.374 38.904 24.442 89.348-6.698-.751-12.855-2.288-17.652-4.461-5.79-2.623-7.589-5.284-7.589-5.956a8.738 8.738 0 0 0-8.738-8.738 8.738 8.738 0 0 0-8.738 8.738c0 5.148 2.32 14.837 17.854 21.874 9.311 4.219 21.499 6.542 34.318 6.542 12.824 0 25.015-2.323 34.328-6.541 15.535-7.037 17.856-16.726 17.856-21.874 0-4.826-3.912-8.738-8.738-8.738s-8.738 3.912-8.738 8.738c0 .672-1.799 3.332-7.59 5.955-5.125 2.322-11.806 3.914-19.038 4.601-1.146-15.528-3.693-29.963-6.791-42.719l30.164-45.806c1.029.043 2.889.365 6.023 1.603 5.508 2.179 12.326 6.098 20.221 10.636 20.497 11.782 46.669 26.832 76.079 26.829 9.794 0 19.952-1.671 30.371-5.686 65.39-25.197 78.013-108.246 78.519-111.769a8.733 8.733 0 0 0-3.942-8.597z"/></svg>