<svg xmlns="http://www.w3.org/2000/svg" viewBox="-49 141 512 512"><path d="M348 151H66c-35.841 0-65 29.159-65 65v362c0 35.841 29.159 65 65 65h282c35.841 0 65-29.159 65-65V216c0-35.841-29.159-65-65-65zM66 201h282c8.271 0 15 6.729 15 15v156H51V216c0-8.271 6.729-15 15-15zm282 392H66c-8.271 0-15-6.729-15-15V422h312v156c0 8.271-6.729 15-15 15z"/><path d="M157 331h100c13.808 0 25-11.193 25-25v-40c0-13.807-11.192-25-25-25s-25 11.193-25 25v15h-50v-15c0-13.807-11.192-25-25-25s-25 11.193-25 25v40c0 13.807 11.192 25 25 25zm100 131c-13.808 0-25 11.193-25 25v15h-50v-15c0-13.807-11.192-25-25-25s-25 11.193-25 25v40c0 13.807 11.192 25 25 25h100c13.808 0 25-11.193 25-25v-40c0-13.807-11.192-25-25-25z"/></svg>