<?xml version="1.0" encoding="iso-8859-1"?>
<!-- Generator: Adobe Illustrator 19.0.0, SVG Export Plug-In . SVG Version: 6.00 Build 0)  -->
<svg version="1.1" id="Layer_1" xmlns="http://www.w3.org/2000/svg" xmlns:xlink="http://www.w3.org/1999/xlink" x="0px" y="0px"
	 viewBox="0 0 492 492" style="enable-background:new 0 0 492 492;" xml:space="preserve">
<g>
	<path d="M387,0H105C69.159,0,40,29.159,40,65v362c0,35.841,29.159,65,65,65h282c35.841,0,65-29.159,65-65V65
		C452,29.159,422.841,0,387,0z M105,50h282c8.271,0,15,6.729,15,15v156H90V65C90,56.729,96.729,50,105,50z M387,442H105
		c-8.271,0-15-6.729-15-15V271h312v156C402,435.271,395.271,442,387,442z"/>
	<path d="M196,180h100c13.808,0,25-11.193,25-25v-40c0-13.807-11.192-25-25-25s-25,11.193-25,25v15h-50v-15
		c0-13.807-11.192-25-25-25s-25,11.193-25,25v40C171,168.807,182.192,180,196,180z"/>
	<path d="M296,311c-13.808,0-25,11.193-25,25v15h-50v-15c0-13.807-11.192-25-25-25s-25,11.193-25,25v40c0,13.807,11.192,25,25,25
		h100c13.808,0,25-11.193,25-25v-40C321,322.193,309.808,311,296,311z"/>
</g>
<g>
</g>
<g>
</g>
<g>
</g>
<g>
</g>
<g>
</g>
<g>
</g>
<g>
</g>
<g>
</g>
<g>
</g>
<g>
</g>
<g>
</g>
<g>
</g>
<g>
</g>
<g>
</g>
<g>
</g>
</svg>
