<?xml version="1.0" encoding="iso-8859-1"?>
<!-- Generator: Adobe Illustrator 19.0.0, SVG Export Plug-In . SVG Version: 6.00 Build 0)  -->
<svg version="1.1" id="Layer_1" xmlns="http://www.w3.org/2000/svg" xmlns:xlink="http://www.w3.org/1999/xlink" x="0px" y="0px"
	 viewBox="-49 141 512 512" style="enable-background:new -49 141 512 512;" xml:space="preserve">
<g>
	<path d="M348,151H66c-35.841,0-65,29.159-65,65v362c0,35.841,29.159,65,65,65h282c35.841,0,65-29.159,65-65V216
		C413,180.159,383.841,151,348,151z M66,201h282c8.271,0,15,6.729,15,15v156H51V216C51,207.729,57.729,201,66,201z M348,593H66
		c-8.271,0-15-6.729-15-15V422h312v156C363,586.271,356.271,593,348,593z"/>
	<path d="M157,331h100c13.808,0,25-11.193,25-25v-40c0-13.807-11.192-25-25-25s-25,11.193-25,25v15h-50v-15
		c0-13.807-11.192-25-25-25s-25,11.193-25,25v40C132,319.807,143.192,331,157,331z"/>
	<path d="M257,462c-13.808,0-25,11.193-25,25v15h-50v-15c0-13.807-11.192-25-25-25s-25,11.193-25,25v40c0,13.807,11.192,25,25,25
		h100c13.808,0,25-11.193,25-25v-40C282,473.193,270.808,462,257,462z"/>
</g>
</svg>
