<?xml version="1.0" encoding="utf-8"?>
<!-- Generator: Adobe Illustrator 26.2.1, SVG Export Plug-In . SVG Version: 6.00 Build 0)  -->
<svg version="1.1" id="Capa_1" xmlns="http://www.w3.org/2000/svg" xmlns:xlink="http://www.w3.org/1999/xlink" x="0px" y="0px"
	 viewBox="0 0 512 512" style="enable-background:new 0 0 512 512;" xml:space="preserve">
<g>
	<path d="M493,33.2L478.8,19c-25.3-25.3-66.6-25.3-91.9,0L175.3,230.6c-4.7,4.7-7.3,11-7.3,17.7V319c0,13.8,11.2,25,25,25h70.7
		c6.6,0,13-2.6,17.7-7.3L493,125.1c12.3-12.3,19-28.6,19-46C512,61.8,505.2,45.4,493,33.2z M253.4,294H218v-35.4l144.1-144.1
		l35.4,35.4L253.4,294z M457.6,89.7l-24.7,24.7l-35.4-35.4l24.7-24.7c5.8-5.8,15.4-5.8,21.2,0l14.1,14.1c2.8,2.8,4.4,6.6,4.4,10.6
		S460.4,86.9,457.6,89.7z"/>
	<path d="M467.1,415.2c-10.2-9.3-26.1-8.4-35.3,1.8c-5.6,6.2-10.3,12.8-14.9,19.2C403.4,454.9,397.1,462,384,462
		c-14.6,0-23.7-9.7-38.6-26.8C328.3,415.5,307,391,268.5,391c-32.4,0-57.1,18.2-81,35.8C163,444.9,139.8,462,107.2,462
		C75.7,462,50,436.3,50,404.7c0-29.1,21.5-53.5,50-56.9c13.7-1.6,23.5-14.1,21.9-27.8c-1.6-13.7-14.1-23.5-27.8-21.9
		c-53.6,6.4-94,52.2-94,106.6C0,463.9,48.1,512,107.2,512c49,0,82.8-24.9,110-45c18.9-14,35.3-26,51.3-26c14.9,0,24.2,9.8,39.2,27
		c17,19.6,38.2,44,76.3,44c40,0,59.3-27,73.5-46.7c3.9-5.5,7.6-10.7,11.4-14.8C478.1,440.2,477.3,424.4,467.1,415.2z"/>
</g>
</svg>
