<?xml version="1.0" encoding="utf-8"?>
<!-- Generator: Adobe Illustrator 26.2.1, SVG Export Plug-In . SVG Version: 6.00 Build 0)  -->
<svg version="1.1" id="Capa_1" xmlns="http://www.w3.org/2000/svg" xmlns:xlink="http://www.w3.org/1999/xlink" x="0px" y="0px"
	 viewBox="0 0 512 512" style="enable-background:new 0 0 512 512;" xml:space="preserve">
<g>
	<path d="M25,403c1.8,0,3.6-0.2,5.4-0.6L263.8,351c9.2-2,16.6-9.1,18.9-18.3l29.1-115.5L486.7,42.7c9.8-9.8,9.8-25.6,0-35.4
		c-9.8-9.8-25.6-9.8-35.4,0L288.7,169.6L232.9,114l71.7-71.3c9.8-9.7,9.8-25.6,0.1-35.4c-9.7-9.8-25.6-9.8-35.4-0.1l-84.7,84.2
		L70.3,120.4C61.1,122.7,54,130,52,139.2L0.6,372.6c-1.8,8.3,0.7,17,6.7,23.1C12.1,400.4,18.4,403,25,403z M97.5,165.1l92.4-23.4
		l71.4,71.2l-23.4,92.7l-134.8,29.7l64.5-64.5c9.8-9.8,9.8-25.6,0-35.4c-9.8-9.8-25.6-9.8-35.4,0l-64.5,64.5L97.5,165.1z"/>
	<path d="M437,362h-28c-13.8,0-25-11.2-25-25s11.2-25,25-25h78c13.8,0,25-11.2,25-25s-11.2-25-25-25h-78c-41.4,0-75,33.6-75,75
		s33.6,75,75,75h28c13.8,0,25,11.2,25,25s-11.2,25-25,25H25c-13.8,0-25,11.2-25,25s11.2,25,25,25h412c41.4,0,75-33.6,75-75
		S478.4,362,437,362z"/>
</g>
</svg>
