<?xml version="1.0" encoding="utf-8"?>
<!-- Generator: Adobe Illustrator 24.0.1, SVG Export Plug-In . SVG Version: 6.00 Build 0)  -->
<svg version="1.1" id="Capa_1" xmlns="http://www.w3.org/2000/svg" xmlns:xlink="http://www.w3.org/1999/xlink" x="0px" y="0px"
	 viewBox="0 0 512 512" style="enable-background:new 0 0 512 512;" xml:space="preserve">
<path d="M437,10H214c0,0,0,0,0,0H75c-35.8,0-65,29.2-65,65v139c0,0,0,0,0,0v223c0,35.8,29.2,65,65,65h362c35.8,0,65-29.2,65-65V75
	C502,39.2,472.8,10,437,10z M183,452l269-269v104.6L287.6,452H183z M60,224.4L224.4,60H329L60,329V224.4z M75,60h78.6L60,153.6V75
	C60,66.7,66.7,60,75,60z M60,437v-37.3L399.7,60H437c8.3,0,15,6.7,15,15v37.3L112.3,452H75C66.7,452,60,445.3,60,437z M437,452
	h-78.6l93.6-93.6V437C452,445.3,445.3,452,437,452z"/>
</svg>
