<svg xmlns="http://www.w3.org/2000/svg" viewBox="-49 141 512 512"><path d="M244.355 397l138.323-138.322c9.763-9.763 9.763-25.592 0-35.355-9.762-9.764-25.592-9.763-35.355 0l-156 156a25.002 25.002 0 0 0-.001 35.355l156 156c9.764 9.763 25.594 9.763 35.355 0 9.763-9.763 9.763-25.592 0-35.355L244.355 397z"/><path d="M84.355 397l138.323-138.322c9.763-9.763 9.763-25.592 0-35.355-9.763-9.764-25.593-9.763-35.355 0l-156 156a25.002 25.002 0 0 0-.001 35.355l156 156c9.763 9.763 25.593 9.763 35.355 0 9.763-9.763 9.763-25.592 0-35.355L84.355 397z"/></svg>