<?xml version="1.0" encoding="iso-8859-1"?>
<!-- Generator: Adobe Illustrator 19.0.0, SVG Export Plug-In . SVG Version: 6.00 Build 0)  -->
<svg version="1.1" id="Layer_1" xmlns="http://www.w3.org/2000/svg" xmlns:xlink="http://www.w3.org/1999/xlink" x="0px" y="0px"
	 viewBox="0 0 366 366" style="enable-background:new 0 0 366 366;" xml:space="preserve">
<g>
	<path d="M220.355,183L358.678,44.678c9.763-9.763,9.763-25.592,0-35.355c-9.762-9.764-25.592-9.763-35.355,0l-156,156
		C162.634,170.011,160,176.37,160,183s2.634,12.989,7.322,17.678l156,156c9.764,9.763,25.594,9.763,35.355,0
		c9.763-9.763,9.763-25.592,0-35.355L220.355,183z"/>
	<path d="M60.355,183L198.678,44.678c9.763-9.763,9.763-25.592,0-35.355c-9.763-9.764-25.593-9.763-35.355,0l-156,156
		C2.634,170.011,0,176.37,0,183s2.634,12.989,7.322,17.678l156,156c9.763,9.763,25.593,9.763,35.355,0
		c9.763-9.763,9.763-25.592,0-35.355L60.355,183z"/>
</g>
<g>
</g>
<g>
</g>
<g>
</g>
<g>
</g>
<g>
</g>
<g>
</g>
<g>
</g>
<g>
</g>
<g>
</g>
<g>
</g>
<g>
</g>
<g>
</g>
<g>
</g>
<g>
</g>
<g>
</g>
</svg>
