<?xml version="1.0" encoding="iso-8859-1"?>
<!-- Generator: Adobe Illustrator 19.0.0, SVG Export Plug-In . SVG Version: 6.00 Build 0)  -->
<svg version="1.1" id="Layer_1" xmlns="http://www.w3.org/2000/svg" xmlns:xlink="http://www.w3.org/1999/xlink" x="0px" y="0px"
	 viewBox="-49 141 512 512" style="enable-background:new -49 141 512 512;" xml:space="preserve">
<g id="XMLID_4_">
	<path id="XMLID_6_" d="M244.355,397l138.323-138.322c9.763-9.763,9.763-25.592,0-35.355c-9.762-9.764-25.592-9.763-35.355,0
		l-156,156C186.634,384.011,184,390.369,184,397s2.634,12.989,7.322,17.678l156,156c9.764,9.763,25.594,9.763,35.355,0
		c9.763-9.763,9.763-25.592,0-35.355L244.355,397z"/>
	<path id="XMLID_5_" d="M84.355,397l138.323-138.322c9.763-9.763,9.763-25.592,0-35.355c-9.763-9.764-25.593-9.763-35.355,0
		l-156,156C26.634,384.011,24,390.369,24,397s2.634,12.989,7.322,17.678l156,156c9.763,9.763,25.593,9.763,35.355,0
		c9.763-9.763,9.763-25.592,0-35.355L84.355,397z"/>
</g>
</svg>
