<svg xmlns="http://www.w3.org/2000/svg" xml:space="preserve" style="enable-background:new 0 0 512.002 512.002" viewBox="0 0 512.002 512.002"><path d="M426.202 28.37a7.5 7.5 0 1 0-10.085 11.103c19.704 17.898 30.556 43.681 30.556 72.6 0 26.016-14.299 60.078-38.25 91.115-15.942 20.659-31.928 34.587-43.995 41.344 7.659-17.892 11.771-35.24 11.771-50.71 0-32.727-12.283-62.165-34.587-82.892a7.5 7.5 0 0 0-10.211 10.989c19.216 17.857 29.798 43.393 29.798 71.903 0 17.284-6.318 38.12-17.578 59.261l-.027.051c-3.976 7.46-8.566 14.956-13.714 22.348-.057.082-.116.162-.17.246a239.644 239.644 0 0 1-6.76 9.21c-23.341 30.247-46.779 46.072-57.87 46.072-11.09 0-34.529-15.826-57.87-46.072-23.951-31.038-38.25-65.1-38.25-91.115 0-27.582 9.978-52.541 28.096-70.281 17.647-17.277 41.805-26.792 68.023-26.792 15.554 0 30.222 3.264 43.597 9.701a7.5 7.5 0 1 0 6.506-13.515c-15.421-7.422-32.278-11.186-50.103-11.186l-.19.002a108.567 108.567 0 0 0-3.438-8.012c6.78-17.227 18.28-31.727 33.421-42.063C310.854 20.767 330.108 15 350.553 15c15.77 0 30.617 3.351 44.13 9.96a7.5 7.5 0 0 0 6.59-13.475C385.691 3.864 368.626 0 350.553 0c-42.657 0-79.802 22.33-98.364 57.97-5.294-7.472-11.521-14.242-18.585-20.112a7.501 7.501 0 0 0-9.588 11.536c10.806 8.981 19.365 20.408 25.101 33.412-23.955 3.192-45.756 13.569-62.556 30.017-21.024 20.583-32.603 49.35-32.603 80.999 0 19.492 6.517 41.963 18.45 64.753-4.281 2.083-8.059 3.218-10.95 3.218-11.09 0-34.529-15.826-57.87-46.072-23.951-31.038-38.25-65.1-38.25-91.115 0-27.583 9.978-52.541 28.096-70.281 17.647-17.277 41.805-26.792 68.023-26.792 14.689 0 28.63 2.925 41.433 8.693a7.5 7.5 0 0 0 6.162-13.676c-14.753-6.647-30.766-10.018-47.595-10.018-30.165 0-58.05 11.036-78.517 31.074-21.024 20.584-32.603 49.35-32.603 80.999 0 29.654 15.081 66.205 41.375 100.279 11.726 15.195 27.831 31.998 43.635 42.257a56.629 56.629 0 0 0-3.425 6.209c-3.321 6.996-1.994 15.147 3.382 20.766 3.641 3.804 8.512 5.822 13.502 5.822.714 0 1.43-.054 2.145-.137-.88 4.518-1.881 9.222-2.918 14.08-3.795 17.778-8.098 37.928-8.098 58.032 0 32.026 14.036 64.955 14.633 66.34a7.503 7.503 0 0 0 6.891 4.533c.991 0 1.998-.198 2.965-.615a7.5 7.5 0 0 0 3.918-9.856c-.134-.311-13.408-31.439-13.408-60.403 0-18.521 4.126-37.848 7.767-54.9 1.384-6.483 2.709-12.707 3.785-18.676.101.039.205.068.305.111 7.214 3.044 15.385 1.344 20.815-4.331a18.794 18.794 0 0 0 3.639-5.46 261.686 261.686 0 0 0 4.083 5.445c11.726 15.195 27.831 31.998 43.635 42.256a56.629 56.629 0 0 0-3.425 6.209c-3.321 6.996-1.994 15.147 3.382 20.766 3.641 3.804 8.512 5.822 13.503 5.822 2.453 0 4.935-.488 7.313-1.491.1-.042.204-.071.305-.111 1.077 5.969 2.401 12.191 3.785 18.674 3.641 17.053 7.767 36.38 7.767 54.902 0 28.874-13.275 60.094-13.407 60.403a7.5 7.5 0 0 0 3.919 9.856 7.477 7.477 0 0 0 2.965.615 7.503 7.503 0 0 0 6.891-4.533c.598-1.386 14.633-34.314 14.633-66.34 0-20.104-4.302-40.255-8.098-58.034-1.037-4.856-2.038-9.559-2.917-14.076 5.716.665 11.486-1.339 15.648-5.687 5.376-5.618 6.704-13.77 3.382-20.766a57.042 57.042 0 0 0-3.425-6.208c15.804-10.259 31.909-27.061 43.635-42.257a263.376 263.376 0 0 0 5.078-6.809 18.94 18.94 0 0 0 5.314-1.378c.1-.042.204-.071.305-.111 1.077 5.969 2.401 12.193 3.786 18.675 3.641 17.052 7.767 36.379 7.767 54.9 0 28.874-13.275 60.094-13.408 60.403a7.5 7.5 0 0 0 3.918 9.856 7.473 7.473 0 0 0 2.965.615 7.503 7.503 0 0 0 6.891-4.533c.598-1.386 14.633-34.314 14.633-66.34 0-20.104-4.302-40.254-8.098-58.032-1.037-4.857-2.038-9.56-2.918-14.077 5.716.665 11.487-1.339 15.648-5.688 5.376-5.618 6.704-13.769 3.382-20.766a57.042 57.042 0 0 0-3.425-6.208c15.804-10.259 31.909-27.061 43.635-42.257 26.294-34.075 41.374-70.625 41.374-100.279.006-33.2-12.591-62.926-35.464-83.702zM176.773 283.745c-.54.563-2.023 1.777-4.148.881a28.807 28.807 0 0 0-12.363-2.216c-.304 0-.604.019-.9.055a28.647 28.647 0 0 0-9.071 2.161c-2.124.896-3.609-.318-4.148-.881-.637-.665-1.57-2.065-.669-3.962 1.004-2.114 2.084-3.995 3.227-5.644 4.428 1.699 8.72 2.654 12.757 2.654 3.904 0 8.172-.892 12.763-2.646 1.141 1.647 2.219 3.525 3.221 5.636.901 1.897-.031 3.297-.669 3.962zm103.621 69.216c-.54.564-2.023 1.779-4.149.881a28.633 28.633 0 0 0-9.07-2.16 7.567 7.567 0 0 0-.882-.055 28.8 28.8 0 0 0-12.382 2.215c-2.124.895-3.609-.318-4.148-.881-.637-.665-1.57-2.065-.669-3.963 1.003-2.114 2.083-3.994 3.227-5.643 4.428 1.699 8.72 2.654 12.757 2.654 4.038 0 8.329-.955 12.757-2.654 1.143 1.649 2.223 3.53 3.227 5.644.902 1.898-.032 3.297-.668 3.962zm85.474-81.749c-.539.563-2.023 1.778-4.148.881a28.671 28.671 0 0 0-9.028-2.158 7.508 7.508 0 0 0-.94-.058c-.118-.005-.237-.005-.355-.009a227.657 227.657 0 0 0 3.449-5.947c2.741-.415 5.574-1.207 8.465-2.316 1.143 1.649 2.223 3.529 3.227 5.643.9 1.899-.033 3.299-.67 3.964z"/></svg>