<?xml version="1.0" encoding="iso-8859-1"?>
<!-- Generator: Adobe Illustrator 19.0.0, SVG Export Plug-In . SVG Version: 6.00 Build 0)  -->
<svg version="1.1" id="Capa_1" xmlns="http://www.w3.org/2000/svg" xmlns:xlink="http://www.w3.org/1999/xlink" x="0px" y="0px"
	 viewBox="0 0 512.002 512.002" style="enable-background:new 0 0 512.002 512.002;" xml:space="preserve">
<g>
	<g>
		<path d="M426.202,28.37c-3.067-2.785-7.81-2.557-10.594,0.509c-2.785,3.066-2.557,7.809,0.509,10.594
			c19.704,17.898,30.556,43.681,30.556,72.6c0,26.016-14.299,60.078-38.25,91.115c-15.942,20.659-31.928,34.587-43.995,41.344
			c7.659-17.892,11.771-35.24,11.771-50.71c0-32.727-12.283-62.165-34.587-82.892c-3.034-2.819-7.78-2.646-10.6,0.389
			c-2.819,3.034-2.646,7.78,0.389,10.6c19.216,17.857,29.798,43.393,29.798,71.903c0,17.284-6.318,38.12-17.578,59.261
			c-0.009,0.017-0.018,0.034-0.027,0.051c-3.976,7.46-8.566,14.956-13.714,22.348c-0.057,0.082-0.116,0.162-0.17,0.246
			c-2.159,3.092-4.411,6.166-6.76,9.21c-23.341,30.247-46.779,46.072-57.87,46.072c-11.09,0-34.529-15.826-57.87-46.072
			c-23.951-31.038-38.25-65.1-38.25-91.115c0-27.582,9.978-52.541,28.096-70.281c17.647-17.277,41.805-26.792,68.023-26.792
			c15.554,0,30.222,3.264,43.597,9.701c3.732,1.796,8.214,0.227,10.011-3.505c1.796-3.732,0.227-8.214-3.505-10.01
			c-15.421-7.422-32.278-11.186-50.103-11.186c-0.064,0-0.127,0.002-0.19,0.002c-1.044-2.725-2.188-5.399-3.438-8.012
			c6.78-17.227,18.28-31.727,33.421-42.063C310.854,20.767,330.108,15,350.553,15c15.77,0,30.617,3.351,44.13,9.96
			c3.72,1.819,8.212,0.279,10.032-3.442s0.279-8.213-3.442-10.033C385.691,3.864,368.626,0,350.553,0
			c-42.657,0-79.802,22.33-98.364,57.97c-5.294-7.472-11.521-14.242-18.585-20.112c-3.186-2.647-7.913-2.211-10.562,0.974
			c-2.647,3.186-2.211,7.915,0.974,10.562c10.806,8.981,19.365,20.408,25.101,33.412c-23.955,3.192-45.756,13.569-62.556,30.017
			c-21.024,20.583-32.603,49.35-32.603,80.999c0,19.492,6.517,41.963,18.45,64.753c-4.281,2.083-8.059,3.218-10.95,3.218
			c-11.09,0-34.529-15.826-57.87-46.072c-23.951-31.038-38.25-65.1-38.25-91.115c0-27.583,9.978-52.541,28.096-70.281
			c17.647-17.277,41.805-26.792,68.023-26.792c14.689,0,28.63,2.925,41.433,8.693c3.777,1.701,8.217,0.02,9.919-3.757
			c1.702-3.777,0.02-8.217-3.757-9.919c-14.753-6.647-30.766-10.018-47.595-10.018c-30.165,0-58.05,11.036-78.517,31.074
			c-21.024,20.584-32.603,49.35-32.603,80.999c0,29.654,15.081,66.205,41.375,100.279c11.726,15.195,27.831,31.998,43.635,42.257
			c-1.222,1.914-2.368,3.981-3.425,6.209c-3.321,6.996-1.994,15.147,3.382,20.766c3.641,3.804,8.512,5.822,13.502,5.822
			c0.714,0,1.43-0.054,2.145-0.137c-0.88,4.518-1.881,9.222-2.918,14.08c-3.795,17.778-8.098,37.928-8.098,58.032
			c0,32.026,14.036,64.955,14.633,66.34c1.223,2.836,3.987,4.533,6.891,4.533c0.991,0,1.998-0.198,2.965-0.615
			c3.804-1.64,5.558-6.052,3.918-9.856c-0.134-0.311-13.408-31.439-13.408-60.403c0-18.521,4.126-37.848,7.767-54.9
			c1.384-6.483,2.709-12.707,3.785-18.676c0.101,0.039,0.205,0.068,0.305,0.111c7.214,3.044,15.385,1.344,20.815-4.331
			c1.564-1.635,2.775-3.488,3.639-5.46c1.331,1.821,2.688,3.637,4.083,5.445c11.726,15.195,27.831,31.998,43.635,42.256
			c-1.222,1.914-2.368,3.981-3.425,6.209c-3.321,6.996-1.994,15.147,3.382,20.766c3.641,3.804,8.512,5.822,13.503,5.822
			c2.453,0,4.935-0.488,7.313-1.491c0.1-0.042,0.204-0.071,0.305-0.111c1.077,5.969,2.401,12.191,3.785,18.674
			c3.641,17.053,7.767,36.38,7.767,54.902c0,28.874-13.275,60.094-13.407,60.403c-1.64,3.804,0.115,8.216,3.919,9.856
			c0.968,0.417,1.974,0.615,2.965,0.615c2.904,0,5.668-1.697,6.891-4.533c0.598-1.386,14.633-34.314,14.633-66.34
			c0-20.104-4.302-40.255-8.098-58.034c-1.037-4.856-2.038-9.559-2.917-14.076c5.716,0.665,11.486-1.339,15.648-5.687
			c5.376-5.618,6.704-13.77,3.382-20.766c-1.058-2.227-2.204-4.294-3.425-6.208c15.804-10.259,31.909-27.061,43.635-42.257
			c1.743-2.259,3.434-4.53,5.078-6.809c1.808-0.197,3.598-0.654,5.314-1.378c0.1-0.042,0.204-0.071,0.305-0.111
			c1.077,5.969,2.401,12.193,3.786,18.675c3.641,17.052,7.767,36.379,7.767,54.9c0,28.874-13.275,60.094-13.408,60.403
			c-1.64,3.804,0.114,8.216,3.918,9.856c0.967,0.417,1.974,0.615,2.965,0.615c2.904,0,5.668-1.697,6.891-4.533
			c0.598-1.386,14.633-34.314,14.633-66.34c0-20.104-4.302-40.254-8.098-58.032c-1.037-4.857-2.038-9.56-2.918-14.077
			c5.716,0.665,11.487-1.339,15.648-5.688c5.376-5.618,6.704-13.769,3.382-20.766c-1.058-2.227-2.204-4.294-3.425-6.208
			c15.804-10.259,31.909-27.061,43.635-42.257c26.294-34.075,41.374-70.625,41.374-100.279
			C461.672,78.872,449.075,49.146,426.202,28.37z M176.773,283.745c-0.54,0.563-2.023,1.777-4.148,0.881
			c-3.92-1.653-8.158-2.389-12.363-2.216c-0.304,0-0.604,0.019-0.9,0.055c-3.103,0.224-6.174,0.939-9.071,2.161
			c-2.124,0.896-3.609-0.318-4.148-0.881c-0.637-0.665-1.57-2.065-0.669-3.962c1.004-2.114,2.084-3.995,3.227-5.644
			c4.428,1.699,8.72,2.654,12.757,2.654c3.904,0,8.172-0.892,12.763-2.646c1.141,1.647,2.219,3.525,3.221,5.636
			C178.343,281.68,177.411,283.08,176.773,283.745z M280.394,352.961c-0.54,0.564-2.023,1.779-4.149,0.881
			c-2.896-1.222-5.967-1.936-9.07-2.16c-0.29-0.036-0.584-0.053-0.882-0.055c-4.211-0.176-8.456,0.559-12.382,2.215
			c-2.124,0.895-3.609-0.318-4.148-0.881c-0.637-0.665-1.57-2.065-0.669-3.963c1.003-2.114,2.083-3.994,3.227-5.643
			c4.428,1.699,8.72,2.654,12.757,2.654c4.038,0,8.329-0.955,12.757-2.654c1.143,1.649,2.223,3.53,3.227,5.644
			C281.964,350.897,281.03,352.296,280.394,352.961z M365.868,271.212c-0.539,0.563-2.023,1.778-4.148,0.881
			c-2.884-1.216-5.94-1.93-9.028-2.158c-0.309-0.039-0.623-0.058-0.94-0.058c-0.118-0.005-0.237-0.005-0.355-0.009
			c1.189-1.982,2.34-3.965,3.449-5.947c2.741-0.415,5.574-1.207,8.465-2.316c1.143,1.649,2.223,3.529,3.227,5.643
			C367.438,269.147,366.505,270.547,365.868,271.212z"/>
	</g>
</g>
<g>
</g>
<g>
</g>
<g>
</g>
<g>
</g>
<g>
</g>
<g>
</g>
<g>
</g>
<g>
</g>
<g>
</g>
<g>
</g>
<g>
</g>
<g>
</g>
<g>
</g>
<g>
</g>
<g>
</g>
</svg>
