<svg xmlns="http://www.w3.org/2000/svg" width="512" height="512" fill="none"><path fill="#000" fill-rule="evenodd" d="M340 25.5C340 11.417 328.584 0 314.5 0S289 11.417 289 25.5V85h-66V47.5c0-14.083-11.416-25.5-25.5-25.5S172 33.417 172 47.5V85h-24c-34.793 0-63 28.206-63 63v24H25.5C11.416 172 0 183.417 0 197.5S11.416 223 25.5 223H85v66H47.5C33.416 289 22 300.417 22 314.5S33.416 340 47.5 340H85v24c0 34.794 28.205 63 63 63h24v59.5c0 14.083 11.416 25.5 25.5 25.5s25.5-11.417 25.5-25.5V427h66v37.5c0 14.083 11.416 25.5 25.5 25.5s25.5-11.417 25.5-25.5V427h25c34.793 0 63-28.206 63-63v-24h58.5c14.086 0 25.5-11.417 25.5-25.5S500.586 289 486.5 289H428v-66h36.5c14.084 0 25.5-11.417 25.5-25.5S478.584 172 464.5 172H428v-24c0-34.794-28.207-63-63-63h-25V25.5ZM135 149c0-7.732 6.268-14 14-14h215c7.732 0 14 6.268 14 14v214c0 7.732-6.268 14-14 14H149c-7.732 0-14-6.268-14-14V149Z" clip-rule="evenodd"/></svg>