<svg xmlns="http://www.w3.org/2000/svg" width="512" height="512" fill="none" viewBox="0 0 512 512">
  <path fill="#000" fill-rule="evenodd" d="M148 85c-34.793 0-63 28.206-63 63v216c0 34.794 28.207 63 63 63h217c34.793 0 63-28.206 63-63V148c0-34.794-28.207-63-63-63H148Zm1 50c-7.73 0-14 6.268-14 14v214c0 7.732 6.27 14 14 14h215c7.73 0 14-6.268 14-14V149c0-7.732-6.27-14-14-14H149Z" clip-rule="evenodd"/>
  <path fill="#000" d="M197.5 512c-14.083 0-25.5-11.417-25.5-25.5v-74c0-14.083 11.417-25.5 25.5-25.5s25.5 11.417 25.5 25.5v74c0 14.083-11.417 25.5-25.5 25.5ZM0 197.5C0 183.417 11.417 172 25.5 172h74c14.083 0 25.5 11.417 25.5 25.5S113.583 223 99.5 223h-74C11.417 223 0 211.583 0 197.5ZM314.5 0C328.583 0 340 11.417 340 25.5v74c0 14.083-11.417 25.5-25.5 25.5S289 113.583 289 99.5v-74C289 11.417 300.417 0 314.5 0ZM512 314.5c0 14.083-11.417 25.5-25.5 25.5h-74c-14.083 0-25.5-11.417-25.5-25.5s11.417-25.5 25.5-25.5h74c14.083 0 25.5 11.417 25.5 25.5ZM314.5 490c-14.083 0-25.5-11.417-25.5-25.5v-52c0-14.083 11.417-25.5 25.5-25.5s25.5 11.417 25.5 25.5v52c0 14.083-11.417 25.5-25.5 25.5ZM22 314.5c0-14.083 11.417-25.5 25.5-25.5h52c14.083 0 25.5 11.417 25.5 25.5S113.583 340 99.5 340h-52C33.417 340 22 328.583 22 314.5ZM197.5 22c14.083 0 25.5 11.417 25.5 25.5v52c0 14.083-11.417 25.5-25.5 25.5S172 113.583 172 99.5v-52c0-14.083 11.417-25.5 25.5-25.5ZM490 197.5c0 14.083-11.417 25.5-25.5 25.5h-52c-14.083 0-25.5-11.417-25.5-25.5s11.417-25.5 25.5-25.5h52c14.083 0 25.5 11.417 25.5 25.5Z"/>
</svg>
