<svg xmlns="http://www.w3.org/2000/svg" width="512" height="512" fill="none"><path fill="#000" fill-rule="evenodd" d="M363 85h-24V25a25 25 0 0 0-50 0v60h-67V47a25 25 0 0 0-50 0v38h-22c-36 0-65 29-65 65v22H25a25 25 0 0 0 0 50h60v68H46a25 25 0 0 0 0 50h39v22c0 36 29 65 65 65h22v60a25 25 0 0 0 50 0v-60h67v38a25 25 0 0 0 50 0v-38h24c36 0 65-29 65-65v-22h59a25 25 0 0 0 0-50h-59v-68h37a25 25 0 0 0 0-50h-37v-22c0-36-29-65-65-65Zm-213 50c-8 0-15 7-15 15v212c0 8 7 15 15 15h213c8 0 15-7 15-15V150c0-8-7-15-15-15H150Z" clip-rule="evenodd"/></svg>