<svg xmlns="http://www.w3.org/2000/svg" width="512" height="512" fill="none"><path fill="#000" fill-rule="evenodd" d="M363 85h-23.977V24.999c0-13.8-11.2-25-25-25s-25 11.2-25 25V85H222V46.899c0-13.8-11.2-25-25-25s-25 11.2-25 25V85h-22c-35.84 0-65 29.16-65 65v22.488H24.512c-13.8 0-25 11.2-25 25s11.2 25 25 25H85v67.023H46.411c-13.8 0-25 11.2-25 25s11.2 25 25 25H85V362c0 35.84 29.16 65 65 65h22v60c0 13.8 11.2 25 25 25s25-11.2 25-25v-60h67.023v38.1c0 13.8 11.2 25 25 25s25-11.2 25-25V427H363c35.84 0 65-29.16 65-65v-22.489h58.51c13.801 0 25-11.2 25-25s-11.199-25-25-25H428v-67.023h36.611c13.8 0 25-11.2 25-25s-11.2-25-25-25H428V150c0-35.84-29.16-65-65-65Zm-213 50c-8.27 0-15 6.73-15 15v212c0 8.27 6.73 15 15 15h213c8.27 0 15-6.73 15-15V150c0-8.27-6.73-15-15-15H150Z" clip-rule="evenodd"/></svg>