<svg width="512" height="512" viewBox="0 0 512 512" fill="none" xmlns="http://www.w3.org/2000/svg">
<path fill-rule="evenodd" clip-rule="evenodd" d="M362.998 85.001H339.021V25C339.021 11.2 327.822 -6.03264e-07 314.021 0C300.221 6.03206e-07 289.021 11.2 289.021 25V85.001H221.998V46.8996C221.998 33.0996 210.798 21.8996 196.998 21.8996C183.198 21.8996 171.998 33.0996 171.998 46.8996V85.001H149.998C114.158 85.001 84.998 114.161 84.998 150.001V172.489H24.5098C10.7097 172.489 -0.490236 183.689 -0.490234 197.489C-0.490232 211.289 10.7097 222.489 24.5098 222.489H84.998V289.512H46.4093C32.6093 289.512 21.4093 300.712 21.4093 314.512C21.4093 328.312 32.6093 339.512 46.4093 339.512H84.998V362.001C84.998 397.841 114.158 427.001 149.998 427.001H171.998L171.998 487.001C171.998 500.801 183.198 512.001 196.998 512.001C210.798 512.001 221.998 500.801 221.998 487.001V427.001H289.021V465.101C289.021 478.901 300.221 490.101 314.021 490.101C327.822 490.101 339.022 478.901 339.021 465.101V427.001H362.998C398.838 427.001 427.998 397.841 427.998 362.001V339.512H486.509C500.309 339.512 511.509 328.312 511.509 314.512C511.509 300.712 500.309 289.512 486.509 289.512H427.998V222.489H464.609C478.409 222.489 489.609 211.289 489.609 197.489C489.609 183.689 478.409 172.489 464.609 172.489H427.998V150.001C427.998 114.161 398.838 85.001 362.998 85.001ZM149.998 135.001C141.728 135.001 134.998 141.731 134.998 150.001V362.001C134.998 370.271 141.728 377.001 149.998 377.001H362.998C371.268 377.001 377.998 370.271 377.998 362.001V150.001C377.998 141.731 371.268 135.001 362.998 135.001H149.998Z" fill="black"/>
</svg>
