<?xml version="1.0" encoding="utf-8"?>
<!-- Generator: Adobe Illustrator 24.0.1, SVG Export Plug-In . SVG Version: 6.00 Build 0)  -->
<svg version="1.1" id="Capa_1" xmlns="http://www.w3.org/2000/svg" xmlns:xlink="http://www.w3.org/1999/xlink" x="0px" y="0px"
	 viewBox="0 0 512 512" style="enable-background:new 0 0 512 512;" xml:space="preserve">
<style type="text/css">
	.st0{fill:#1D1D1B;}
</style>
<g>
	<g>
		<path class="st0" d="M402.4,507H256c-67,0-130.1-26.1-177.5-73.5C31.1,386.1,5,323,5,256S31.1,125.9,78.5,78.5
			C125.9,31.1,189,5,256,5c67,0,130.1,26.1,177.5,73.5C480.9,125.9,507,189,507,256v146.4C507,460.1,460.1,507,402.4,507z M256,55
			C145.2,55,55,145.2,55,256s90.2,201,201,201h146.4c30.1,0,54.6-24.5,54.6-54.6V256C457,145.2,366.8,55,256,55z"/>
	</g>
</g>
</svg>
