<?xml version="1.0" encoding="iso-8859-1"?>
<!-- Generator: Adobe Illustrator 19.0.0, SVG Export Plug-In . SVG Version: 6.00 Build 0)  -->
<svg version="1.1" id="Layer_1" xmlns="http://www.w3.org/2000/svg" xmlns:xlink="http://www.w3.org/1999/xlink" x="0px" y="0px"
	 viewBox="-49 141 512 512" style="enable-background:new -49 141 512 512;" xml:space="preserve">
<g>
	<path d="M242,282H142c-13.807,0-25,11.193-25,25v271c0,13.807,11.193,25,25,25h100c13.807,0,25-11.193,25-25V307
		C267,293.193,255.807,282,242,282z M217,553h-50V332h50V553z"/>
	<path d="M432,191H332c-13.807,0-25,11.193-25,25v362c0,13.807,11.193,25,25,25h100c13.807,0,25-11.193,25-25V216
		C457,202.193,445.807,191,432,191z M407,553h-50V241h50V553z"/>
	<path d="M52,397h-70c-13.807,0-25,11.193-25,25v156c0,13.807,11.193,25,25,25h70c13.807,0,25-11.193,25-25V422
		C77,408.193,65.807,397,52,397z"/>
</g>
</svg>
