<?xml version="1.0" encoding="iso-8859-1"?>
<!-- Generator: Adobe Illustrator 19.0.0, SVG Export Plug-In . SVG Version: 6.00 Build 0)  -->
<svg version="1.1" id="Layer_1" xmlns="http://www.w3.org/2000/svg" xmlns:xlink="http://www.w3.org/1999/xlink" x="0px" y="0px"
	 viewBox="0 0 500 500" style="enable-background:new 0 0 500 500;" xml:space="preserve">
<g>
	<path d="M285,135H185c-13.807,0-25,11.193-25,25v271c0,13.807,11.193,25,25,25h100c13.807,0,25-11.193,25-25V160
		C310,146.193,298.807,135,285,135z M260,406h-50V185h50V406z"/>
	<path d="M475,44H375c-13.807,0-25,11.193-25,25v362c0,13.807,11.193,25,25,25h100c13.807,0,25-11.193,25-25V69
		C500,55.193,488.807,44,475,44z M450,406h-50V94h50V406z"/>
	<path d="M95,250H25c-13.807,0-25,11.193-25,25v156c0,13.807,11.193,25,25,25h70c13.807,0,25-11.193,25-25V275
		C120,261.193,108.807,250,95,250z"/>
</g>
<g>
</g>
<g>
</g>
<g>
</g>
<g>
</g>
<g>
</g>
<g>
</g>
<g>
</g>
<g>
</g>
<g>
</g>
<g>
</g>
<g>
</g>
<g>
</g>
<g>
</g>
<g>
</g>
<g>
</g>
</svg>
