<svg xmlns="http://www.w3.org/2000/svg" viewBox="-49 141 512 512"><path d="M242 282H142c-13.807 0-25 11.193-25 25v271c0 13.807 11.193 25 25 25h100c13.807 0 25-11.193 25-25V307c0-13.807-11.193-25-25-25zm-25 271h-50V332h50v221zM432 191H332c-13.807 0-25 11.193-25 25v362c0 13.807 11.193 25 25 25h100c13.807 0 25-11.193 25-25V216c0-13.807-11.193-25-25-25zm-25 362h-50V241h50v312zM52 397h-70c-13.807 0-25 11.193-25 25v156c0 13.807 11.193 25 25 25h70c13.807 0 25-11.193 25-25V422c0-13.807-11.193-25-25-25z"/></svg>