<svg xmlns="http://www.w3.org/2000/svg" viewBox="0 0 360 360"><path d="M104.355 66.804c26.574 0 54.136 5.159 65.67 28.818 6.533 13.401 7.955 38.418-2.533 53.968-5.065 7.423-12.575 13.536-22.617 18.251 13.623 3.93 23.753 10.829 30.39 20.609 12.966 19.028 12.651 47.319 3.58 64.534-13.561 25.495-43.027 35.367-71.607 35.367H8.056A8.056 8.056 0 0 1 0 280.295V74.86a8.056 8.056 0 0 1 8.056-8.056h96.299zm-6.288 89.422c17.275 0 29.778-7.496 29.778-26.373 0-19.367-14.253-25.499-33.533-25.499H56.784a8.056 8.056 0 0 0-8.056 8.056v35.673a8.056 8.056 0 0 0 8.056 8.056h41.284v.087zm2.707 94.312c20.89 0 35.587-7.501 36.054-28.227.408-18.058-14.591-32.727-32.654-32.727H56.871a8.056 8.056 0 0 0-8.056 8.056v44.842a8.056 8.056 0 0 0 8.056 8.056h43.903zm222.387-12.05h21.832c5.942 0 9.876 6.234 7.259 11.569-34.679 70.694-152.45 52.957-152.45-41.871 0-49.573 34.692-84.881 82.174-84.881 53.076 0 81.296 44.14 77.72 95.273H243.99c0 52.83 59.255 47.482 72.375 24.055 1.398-2.499 3.933-4.145 6.796-4.145zm-69.538-47.593h52.298c5.365 0 9.305-5.173 7.744-10.306-10.605-34.865-57.111-30.394-67.684-.322-1.827 5.195 2.135 10.628 7.642 10.628zm-18.628-101.19v5.72a8.056 8.056 0 0 0 8.056 8.056h73.66a8.056 8.056 0 0 0 8.056-8.056v-5.72a8.056 8.056 0 0 0-8.056-8.056h-73.66a8.056 8.056 0 0 0-8.056 8.056z" fill="#231f20"/></svg>