<?xml version="1.0" encoding="iso-8859-1"?>
<!-- Generator: Adobe Illustrator 19.0.0, SVG Export Plug-In . SVG Version: 6.00 Build 0)  -->
<svg version="1.1" id="Layer_1" xmlns="http://www.w3.org/2000/svg" xmlns:xlink="http://www.w3.org/1999/xlink" x="0px" y="0px"
	 viewBox="0 0 360 360" style="enable-background:new 0 0 360 360;" xml:space="preserve">
<g>
	<g>
		<g>
			<path style="fill:#231F20;" d="M104.355,66.804c26.574,0,54.136,5.159,65.67,28.818c6.533,13.401,7.955,38.418-2.533,53.968
				c-5.065,7.423-12.575,13.536-22.617,18.251c13.623,3.93,23.753,10.829,30.39,20.609c12.966,19.028,12.651,47.319,3.58,64.534
				c-13.561,25.495-43.027,35.367-71.607,35.367H8.056c-4.449,0-8.056-3.607-8.056-8.056V74.86c0-4.449,3.607-8.056,8.056-8.056
				H104.355z M98.067,156.226c17.275,0,29.778-7.496,29.778-26.373c0-19.367-14.253-25.499-33.533-25.499H56.784
				c-4.449,0-8.056,3.607-8.056,8.056v35.673c0,4.449,3.607,8.056,8.056,8.056h41.284V156.226z M100.774,250.538
				c20.89,0,35.587-7.501,36.054-28.227c0.408-18.058-14.591-32.727-32.654-32.727H56.871c-4.449,0-8.056,3.607-8.056,8.056v44.842
				c0,4.449,3.607,8.056,8.056,8.056L100.774,250.538L100.774,250.538z M323.161,238.488h21.832c5.942,0,9.876,6.234,7.259,11.569
				c-34.679,70.694-152.45,52.957-152.45-41.871c0-49.573,34.692-84.881,82.174-84.881c53.076,0,81.296,44.14,77.72,95.273H243.99
				c0,52.83,59.255,47.482,72.375,24.055C317.763,240.134,320.298,238.488,323.161,238.488z M253.623,190.895h52.298
				c5.365,0,9.305-5.173,7.744-10.306c-10.605-34.865-57.111-30.394-67.684-0.322C244.154,185.462,248.116,190.895,253.623,190.895z
				 M234.995,89.705v5.72c0,4.449,3.607,8.056,8.056,8.056h73.66c4.449,0,8.056-3.607,8.056-8.056v-5.72
				c0-4.449-3.607-8.056-8.056-8.056h-73.66C238.602,81.649,234.995,85.256,234.995,89.705z"/>
		</g>
	</g>
</g>
<g>
</g>
<g>
</g>
<g>
</g>
<g>
</g>
<g>
</g>
<g>
</g>
<g>
</g>
<g>
</g>
<g>
</g>
<g>
</g>
<g>
</g>
<g>
</g>
<g>
</g>
<g>
</g>
<g>
</g>
</svg>
