<svg xmlns="http://www.w3.org/2000/svg" xml:space="preserve" style="enable-background:new 0 0 511 511" viewBox="0 0 511 511"><path d="M495.5 392H487V87.5c0-8.547-6.953-15.5-15.5-15.5h-432C30.953 72 24 78.953 24 87.5V392h-8.5C6.953 392 0 398.953 0 407.5v16c0 8.547 6.953 15.5 15.5 15.5h480c8.547 0 15.5-6.953 15.5-15.5v-16c0-8.547-6.953-15.5-15.5-15.5zM39 87.5a.5.5 0 0 1 .5-.5h432a.5.5 0 0 1 .5.5V392H143v-16.5a7.5 7.5 0 0 0-7.5-7.5h-64a7.5 7.5 0 0 0-7.5 7.5V392H39V87.5zM79 392v-9h49v9H79zm417 31.5a.5.5 0 0 1-.5.5h-480a.5.5 0 0 1-.5-.5v-16a.5.5 0 0 1 .5-.5h480a.5.5 0 0 1 .5.5v16z"/><path d="M87.5 303h64a7.5 7.5 0 0 0 0-15H95v-.5c0-9.098 7.402-16.5 16.5-16.5h8c21.78 0 39.5-17.72 39.5-39.5S141.28 192 119.5 192 80 209.72 80 231.5a7.5 7.5 0 0 0 15 0c0-13.509 10.991-24.5 24.5-24.5s24.5 10.991 24.5 24.5-10.991 24.5-24.5 24.5h-8C94.131 256 80 270.131 80 287.5v8a7.5 7.5 0 0 0 7.5 7.5zM231.5 303h64a7.5 7.5 0 0 0 0-15H239v-.5c0-9.098 7.402-16.5 16.5-16.5h8c21.78 0 39.5-17.72 39.5-39.5S285.28 192 263.5 192 224 209.72 224 231.5a7.5 7.5 0 0 0 15 0c0-13.509 10.991-24.5 24.5-24.5s24.5 10.991 24.5 24.5-10.991 24.5-24.5 24.5h-8c-17.369 0-31.5 14.131-31.5 31.5v8a7.5 7.5 0 0 0 7.5 7.5zM175.5 255h8.5v8.5a7.5 7.5 0 0 0 15 0V255h8.5a7.5 7.5 0 0 0 0-15H199v-8.5a7.5 7.5 0 0 0-15 0v8.5h-8.5a7.5 7.5 0 0 0 0 15zM319.5 271h32a7.5 7.5 0 0 0 0-15h-32a7.5 7.5 0 0 0 0 15zM319.5 247h32a7.5 7.5 0 0 0 0-15h-32a7.5 7.5 0 0 0 0 15zM375.5 271H416v24.5a7.5 7.5 0 0 0 15 0V271h8.5a7.5 7.5 0 0 0 0-15H431v-32.5a7.5 7.5 0 0 0-15 0V256h-30.894l13.67-54.681a7.5 7.5 0 1 0-14.552-3.639l-16 64A7.499 7.499 0 0 0 375.5 271z"/></svg>