<?xml version="1.0" encoding="utf-8"?>
<!-- Generator: Adobe Illustrator 26.2.1, SVG Export Plug-In . SVG Version: 6.00 Build 0)  -->
<svg version="1.1" id="Capa_1" xmlns="http://www.w3.org/2000/svg" xmlns:xlink="http://www.w3.org/1999/xlink" x="0px" y="0px"
	 viewBox="0 0 512 512" style="enable-background:new 0 0 512 512;" xml:space="preserve">
<g>
	<path d="M437,28H75c-35.8,0-65,29.2-65,65v326c0,35.8,29.2,65,65,65h362c35.8,0,65-29.2,65-65V93C502,57.2,472.8,28,437,28z M75,78
		h362c8.3,0,15,6.7,15,15v35H60V93C60,84.7,66.7,78,75,78z M437,434H75c-8.3,0-15-6.7-15-15V178h392v241
		C452,427.3,445.3,434,437,434z"/>
	<path d="M387,228h-81c-13.8,0-25,11.2-25,25s11.2,25,25,25h81c13.8,0,25-11.2,25-25S400.8,228,387,228z"/>
	<path d="M387,318h-81c-13.8,0-25,11.2-25,25s11.2,25,25,25h81c13.8,0,25-11.2,25-25S400.8,318,387,318z"/>
	<path d="M216,228h-91c-13.8,0-25,11.2-25,25s11.2,25,25,25h21v81c0,13.8,11.2,25,25,25s25-11.2,25-25v-81h20c13.8,0,25-11.2,25-25
		S229.8,228,216,228z"/>
</g>
</svg>
