<?xml version="1.0" encoding="utf-8"?>
<!-- Generator: Adobe Illustrator 26.2.1, SVG Export Plug-In . SVG Version: 6.00 Build 0)  -->
<svg version="1.1" id="Capa_1" xmlns="http://www.w3.org/2000/svg" xmlns:xlink="http://www.w3.org/1999/xlink" x="0px" y="0px"
	 viewBox="0 0 512 512" style="enable-background:new 0 0 512 512;" xml:space="preserve">
<g>
	<path d="M247,420H70c-8.3,0-15-6.7-15-15V164h392v92c0,13.8,11.2,25,25,25s25-11.2,25-25V79c0-35.8-29.2-65-65-65H70
		C34.2,14,5,43.2,5,79v326c0,35.8,29.2,65,65,65h177c13.8,0,25-11.2,25-25S260.8,420,247,420z M70,64h362c8.3,0,15,6.7,15,15v35H55
		V79C55,70.7,61.7,64,70,64z"/>
	<path d="M488,372.9L336.4,221.3c-4.7-4.7-11-7.3-17.7-7.3H248c-13.8,0-25,11.2-25,25v70.7c0,6.6,2.6,13,7.3,17.7L381.9,479
		c12.3,12.3,28.6,19,46,19c17.4,0,33.7-6.8,46-19l14.1-14.1c12.3-12.3,19-28.6,19-46S500.2,385.2,488,372.9z M452.6,429.5
		l-14.1,14.1c-5.8,5.9-15.4,5.8-21.2,0L273,299.4V264h35.4l144.3,144.3c2.8,2.8,4.4,6.6,4.4,10.6C457,422.9,455.4,426.6,452.6,429.5
		z"/>
</g>
</svg>
