<?xml version="1.0" encoding="iso-8859-1"?>
<!-- Generator: Adobe Illustrator 19.0.0, SVG Export Plug-In . SVG Version: 6.00 Build 0)  -->
<svg version="1.1" id="Layer_1" xmlns="http://www.w3.org/2000/svg" xmlns:xlink="http://www.w3.org/1999/xlink" x="0px" y="0px"
	 viewBox="0 0 320 320" style="enable-background:new 0 0 320 320;" xml:space="preserve">
<path d="M251.95,149.079C262.084,133.865,268,115.611,268,96c0-52.935-43.065-96-96-96H64C46.327,0,32,14.327,32,32v256
	c0,17.673,14.327,32,32,32h128c52.935,0,96-43.065,96-96C288,193.728,273.911,166.688,251.95,149.079z M96,64h76
	c17.645,0,32,14.355,32,32s-14.355,32-32,32H96V64z M192,256H96v-64h96c17.645,0,32,14.355,32,32S209.645,256,192,256z"/>
<g>
</g>
<g>
</g>
<g>
</g>
<g>
</g>
<g>
</g>
<g>
</g>
<g>
</g>
<g>
</g>
<g>
</g>
<g>
</g>
<g>
</g>
<g>
</g>
<g>
</g>
<g>
</g>
<g>
</g>
</svg>
