<?xml version="1.0" encoding="iso-8859-1"?>
<!-- Generator: Adobe Illustrator 19.0.0, SVG Export Plug-In . SVG Version: 6.00 Build 0)  -->
<svg version="1.1" id="Layer_1" xmlns="http://www.w3.org/2000/svg" xmlns:xlink="http://www.w3.org/1999/xlink" x="0px" y="0px"
	 viewBox="-49 141 512 512" style="enable-background:new -49 141 512 512;" xml:space="preserve">
<path d="M298.95,386.079C309.084,370.865,315,352.611,315,333c0-52.935-43.065-96-96-96H111c-17.673,0-32,14.327-32,32v256
	c0,17.673,14.327,32,32,32h128c52.935,0,96-43.065,96-96C335,430.728,320.911,403.688,298.95,386.079z M143,301h76
	c17.645,0,32,14.355,32,32s-14.355,32-32,32h-76V301z M239,493h-96v-64h96c17.645,0,32,14.355,32,32S256.645,493,239,493z"/>
</svg>
