<?xml version="1.0" encoding="utf-8"?>
<!-- Generator: Adobe Illustrator 19.0.0, SVG Export Plug-In . SVG Version: 6.00 Build 0)  -->
<svg version="1.1" id="Layer_1" xmlns="http://www.w3.org/2000/svg" xmlns:xlink="http://www.w3.org/1999/xlink" x="0px" y="0px"
	 viewBox="-49 141 512 512" style="enable-background:new -49 141 512 512;" xml:space="preserve">
<g>
	<path d="M389,642c-6.5,0-12.9-2.5-17.7-7.3L208,471.4L44.7,634.7c-7.2,7.1-17.9,9.3-27.2,5.4C8.1,636.2,2,627.1,2,617V215
		c0-35.8,29.2-65,65-65h282c35.8,0,65,29.2,65,65v402c0,10.1-6.1,19.2-15.4,23.1C395.5,641.4,392.2,642,389,642z M208,411
		c6.4,0,12.8,2.4,17.7,7.3L364,556.6V215c0-8.3-6.7-15-15-15H67c-8.3,0-15,6.7-15,15v341.6l138.3-138.3
		C195.2,413.4,201.6,411,208,411z"/>
</g>
</svg>
