<?xml version="1.0" encoding="iso-8859-1"?>
<!-- Generator: Adobe Illustrator 19.0.0, SVG Export Plug-In . SVG Version: 6.00 Build 0)  -->
<svg version="1.1" id="Layer_1" xmlns="http://www.w3.org/2000/svg" xmlns:xlink="http://www.w3.org/1999/xlink" x="0px" y="0px"
	 viewBox="-49 141 512 512" style="enable-background:new -49 141 512 512;" xml:space="preserve">
<path d="M388,151H76c-41.355,0-75,33.645-75,75v342c0,41.355,33.645,75,75,75h312c13.807,0,25-11.192,25-25V176
	C413,162.192,401.807,151,388,151z M363,493H141V201h222V493z M76,201h15v292H76c-8.764,0-17.175,1.525-25,4.301V226
	C51,212.215,62.215,201,76,201z M76,593c-13.785,0-25-11.215-25-25s11.215-25,25-25h287v50H76z"/>
</svg>
