<?xml version="1.0" encoding="iso-8859-1"?>
<!-- Generator: Adobe Illustrator 19.0.0, SVG Export Plug-In . SVG Version: 6.00 Build 0)  -->
<svg version="1.1" id="Layer_1" xmlns="http://www.w3.org/2000/svg" xmlns:xlink="http://www.w3.org/1999/xlink" x="0px" y="0px"
	 viewBox="0 0 492 492" style="enable-background:new 0 0 492 492;" xml:space="preserve">
<path d="M427,0H115C73.645,0,40,33.645,40,75v342c0,41.355,33.645,75,75,75h312c13.807,0,25-11.192,25-25V25
	C452,11.192,440.807,0,427,0z M402,342H180V50h222V342z M115,50h15v292h-15c-8.764,0-17.175,1.525-25,4.301V75
	C90,61.215,101.215,50,115,50z M115,442c-13.785,0-25-11.215-25-25s11.215-25,25-25h287v50H115z"/>
<g>
</g>
<g>
</g>
<g>
</g>
<g>
</g>
<g>
</g>
<g>
</g>
<g>
</g>
<g>
</g>
<g>
</g>
<g>
</g>
<g>
</g>
<g>
</g>
<g>
</g>
<g>
</g>
<g>
</g>
</svg>
