<svg xmlns="http://www.w3.org/2000/svg" viewBox="0 0 512 512"><path d="M437 104h-85V75c0-35.8-29.2-65-65-65h-62c-35.8 0-65 29.2-65 65v29H75c-35.8 0-65 29.2-65 65v268c0 35.8 29.2 65 65 65h362c35.8 0 65-29.2 65-65V169c0-35.8-29.2-65-65-65zM210 75c0-8.3 6.7-15 15-15h62c8.3 0 15 6.7 15 15v29h-92V75zM60 169c0-8.3 6.7-15 15-15h362c8.3 0 15 6.7 15 15v52c0 30.3-24.7 55-55 55H115c-30.3 0-55-24.7-55-55v-52zm377 283H75c-8.3 0-15-6.7-15-15V310.4c16 9.9 34.8 15.6 55 15.6h116v15c0 13.8 11.2 25 25 25s25-11.2 25-25v-15h116c20.2 0 39-5.7 55-15.6V437c0 8.3-6.7 15-15 15z"/></svg>