<?xml version="1.0" encoding="utf-8"?>
<!-- Generator: Adobe Illustrator 24.0.1, SVG Export Plug-In . SVG Version: 6.00 Build 0)  -->
<svg version="1.1" id="Capa_1" xmlns="http://www.w3.org/2000/svg" xmlns:xlink="http://www.w3.org/1999/xlink" x="0px" y="0px"
	 viewBox="0 0 512 512" style="enable-background:new 0 0 512 512;" xml:space="preserve">
<path d="M462,133.7c0,0,0-0.1,0-0.1c0-0.5-0.1-1-0.1-1.5c0-0.1,0-0.3-0.1-0.4c-0.1-0.5-0.1-1-0.3-1.6c0,0,0,0,0,0
	c-0.1-0.5-0.2-1-0.4-1.6c0-0.1-0.1-0.3-0.1-0.4c-0.1-0.5-0.3-0.9-0.4-1.4c0,0,0-0.1,0-0.1c-0.2-0.5-0.4-1-0.6-1.5
	c-0.1-0.1-0.1-0.3-0.2-0.4c-0.2-0.4-0.4-0.8-0.6-1.3c0-0.1-0.1-0.1-0.1-0.2c-0.2-0.5-0.5-0.9-0.8-1.4c-0.1-0.1-0.2-0.3-0.3-0.4
	c-0.3-0.4-0.5-0.8-0.8-1.2c0-0.1-0.1-0.1-0.1-0.2c-0.3-0.4-0.7-0.8-1-1.3c-0.1-0.1-0.2-0.2-0.3-0.3c-0.4-0.4-0.7-0.8-1.1-1.2
	c0,0,0,0,0,0l-100-100c-0.4-0.4-0.8-0.8-1.2-1.1c-0.1-0.1-0.2-0.2-0.3-0.3c-0.4-0.3-0.8-0.7-1.3-1c-0.1,0-0.1-0.1-0.2-0.1
	c-0.4-0.3-0.8-0.5-1.2-0.8c-0.1-0.1-0.3-0.2-0.4-0.3c-0.4-0.3-0.9-0.5-1.3-0.8c-0.1,0-0.2-0.1-0.2-0.1c-0.4-0.2-0.8-0.4-1.2-0.6
	c-0.1-0.1-0.3-0.1-0.4-0.2c-0.5-0.2-1-0.4-1.4-0.6c-0.1,0-0.1,0-0.2-0.1c-0.5-0.2-0.9-0.3-1.4-0.4c-0.1,0-0.3-0.1-0.4-0.1
	c-0.5-0.1-1-0.3-1.6-0.4c0,0-0.1,0-0.1,0c-0.5-0.1-1-0.2-1.5-0.2c-0.1,0-0.3,0-0.4-0.1c-0.5-0.1-1-0.1-1.5-0.1c0,0-0.1,0-0.1,0
	c-0.4,0-0.8,0-1.3,0H115c-35.8,0-65,29.2-65,65v362c0,35.8,29.2,65,65,65h282c35.8,0,65-29.2,65-65V135
	C462,134.6,462,134.2,462,133.7z M115,60h197v75c0,13.8,11.2,25,25,25h75v91.9l-30.3,37.3l-63.8-78.5c-4.7-5.8-11.9-9.2-19.4-9.2
	c-7.5,0-14.6,3.4-19.4,9.2l-63.8,78.5l-63.8-78.5c-4.7-5.8-11.9-9.2-19.4-9.2s-14.6,3.4-19.4,9.2L100,226.3V75
	C100,66.7,106.7,60,115,60z M397,452H115c-8.3,0-15-6.7-15-15V305.5l32-39.3l63.8,78.5c4.7,5.8,11.9,9.2,19.4,9.2
	c7.5,0,14.6-3.4,19.4-9.2l63.8-78.5l63.8,78.5c4.7,5.8,11.9,9.2,19.4,9.2c7.5,0,14.6-3.4,19.4-9.2l11-13.5V437
	C412,445.3,405.3,452,397,452z"/>
</svg>
