<?xml version="1.0" encoding="utf-8"?>
<!-- Generator: Adobe Illustrator 24.0.1, SVG Export Plug-In . SVG Version: 6.00 Build 0)  -->
<svg version="1.1" id="Capa_1" xmlns="http://www.w3.org/2000/svg" xmlns:xlink="http://www.w3.org/1999/xlink" x="0px" y="0px"
	 viewBox="0 0 512 512" style="enable-background:new 0 0 512 512;" xml:space="preserve">
<path d="M492.9,11.3c-18.4-14.8-43.4-15.1-62.3-0.9C390.3,41,343.4,84.9,298.6,134.2c-39.8,43.7-74.1,87.3-97.9,124.2
	c-1.2,0-2.3-0.1-3.5-0.1c-36.4,0-67.3,14.7-92,43.7c-19.4,22.7-31.5,50.5-40.4,70.7c-3.8,8.6-7.3,16.7-10.2,21.5
	c-18.7,31.2-34.6,38-36.2,38.7c-9.5,2.6-16.6,10.6-18.1,20.4c-1.5,10.2,3.3,20.2,12.2,25.4C14.9,480,71.4,512,167,512h20
	c33.4,0,67.5-13.1,93.6-36c28-24.6,43.4-56.8,43.4-90.8c0-8.5-0.9-16.9-2.5-25C390.5,277,469,155.4,507.3,71.9
	C517.1,50.4,511.3,26.1,492.9,11.3z M247.6,438.4c-17.1,15-39.2,23.6-60.6,23.6h-20c-38.3,0-69.2-5.9-91.2-12.1
	c7-7.9,14.3-17.7,21.7-30c4.5-7.4,8.4-16.5,13.1-27.1c20.3-46.2,40.8-84.5,86.7-84.5c42.4,0,76.8,34.5,76.8,76.8
	C274,404.5,264.6,423.4,247.6,438.4z M252.4,271c9.3-13.5,19.7-27.6,31.1-42c20.3,5,37.7,18.2,48.2,36.3
	c-11.1,15.2-22.1,29.9-33,43.7C286.5,293,270.6,279.9,252.4,271z M461.8,51c-22,48-59.2,111.1-99.8,171
	c-12.2-14.4-27.4-26-44.6-33.8c45.6-52.3,98.5-103.8,143.5-137.9c0.2-0.1,0.3-0.2,0.4-0.3c0.3,0.1,0.6,0.4,0.7,0.6
	C461.9,50.7,461.9,50.9,461.8,51z"/>
</svg>
