<svg xmlns="http://www.w3.org/2000/svg" viewBox="-49 141 512 512"><path d="M452 297v-86c0-13.807-11.193-25-25-25s-25 11.193-25 25v61h-80.684c-7.595-21.516-21.2-40.703-39.181-54.906C260.832 200.267 234.148 191 207 191s-53.832 9.267-75.136 26.094c-17.98 14.203-31.585 33.39-39.18 54.906H12v-61c0-13.807-11.193-25-25-25s-25 11.193-25 25v86c0 13.807 11.193 25 25 25h93.063l-11.905 50H-13c-13.807 0-25 11.193-25 25s11.193 25 25 25h69.524c-3.037 17.061-3.18 34.269-.56 51H-13c-13.807 0-25 11.193-25 25v85c0 13.807 11.193 25 25 25s25-11.193 25-25v-60h60.989a156.444 156.444 0 0 0 13.452 20.607C114.75 580.29 158.5 603 207 603s92.25-22.71 120.56-59.393A156.576 156.576 0 0 0 341.012 523H402v60c0 13.807 11.193 25 25 25s25-11.193 25-25v-85c0-13.807-11.193-25-25-25h-68.964c2.62-16.731 2.477-33.939-.56-51H427c13.807 0 25-11.193 25-25s-11.193-25-25-25h-81.158l-11.905-50H427c13.807 0 25-11.193 25-25zM287.977 513.06C268.938 537.73 240 552.973 207 552.973s-61.938-15.243-80.977-39.913c-19.453-25.207-26.385-57.404-19.021-88.336l30.714-129C145.389 263.503 173.879 241 207 241s61.611 22.503 69.283 54.724l30.714 129c7.365 30.932.432 63.129-19.02 88.336z"/></svg>