<?xml version="1.0" encoding="iso-8859-1"?>
<!-- Generator: Adobe Illustrator 19.0.0, SVG Export Plug-In . SVG Version: 6.00 Build 0)  -->
<svg version="1.1" id="Layer_1" xmlns="http://www.w3.org/2000/svg" xmlns:xlink="http://www.w3.org/1999/xlink" x="0px" y="0px"
	 viewBox="0 0 490 490" style="enable-background:new 0 0 490 490;" xml:space="preserve">
<path d="M490,145V59c0-13.807-11.193-25-25-25s-25,11.193-25,25v61h-80.684c-7.595-21.516-21.2-40.703-39.181-54.906
	C298.832,48.267,272.148,39,245,39s-53.832,9.267-75.136,26.094c-17.981,14.202-31.585,33.39-39.181,54.906H50V59
	c0-13.807-11.193-25-25-25S0,45.193,0,59v86c0,13.807,11.193,25,25,25h93.063l-11.905,50H25c-13.807,0-25,11.193-25,25
	s11.193,25,25,25h69.524c-3.037,17.061-3.18,34.269-0.56,51H25c-13.807,0-25,11.193-25,25v85c0,13.807,11.193,25,25,25
	s25-11.193,25-25v-60h60.989c3.903,7.145,8.383,14.04,13.452,20.607C152.75,428.29,196.5,451,245,451s92.25-22.71,120.56-59.393
	c5.069-6.568,9.549-13.463,13.452-20.607H440v60c0,13.807,11.193,25,25,25s25-11.193,25-25v-85c0-13.807-11.193-25-25-25h-68.964
	c2.62-16.731,2.477-33.939-0.56-51H465c13.807,0,25-11.193,25-25s-11.193-25-25-25h-81.158l-11.905-50H465
	C478.807,170,490,158.807,490,145z M325.977,361.06C306.938,385.73,278,400.973,245,400.973s-61.938-15.243-80.977-39.913
	c-19.453-25.207-26.385-57.404-19.021-88.336l30.714-129C183.389,111.503,211.879,89,245,89s61.611,22.503,69.283,54.724l30.714,129
	C352.362,303.656,345.429,335.853,325.977,361.06z"/>
<g>
</g>
<g>
</g>
<g>
</g>
<g>
</g>
<g>
</g>
<g>
</g>
<g>
</g>
<g>
</g>
<g>
</g>
<g>
</g>
<g>
</g>
<g>
</g>
<g>
</g>
<g>
</g>
<g>
</g>
</svg>
