<?xml version="1.0" encoding="utf-8"?>
<!-- Generator: Adobe Illustrator 24.0.1, SVG Export Plug-In . SVG Version: 6.00 Build 0)  -->
<svg version="1.1" id="Capa_1" xmlns="http://www.w3.org/2000/svg" xmlns:xlink="http://www.w3.org/1999/xlink" x="0px" y="0px"
	 viewBox="0 0 512 512" style="enable-background:new 0 0 512 512;" xml:space="preserve">
<g>
	<path d="M376.9,190.9h-63.1c-13.8,0-25,11.2-25,25s11.2,25,25,25h63.1c13.8,0,25-11.2,25-25S390.7,190.9,376.9,190.9z"/>
	<path d="M376.9,288.6h-63.1c-13.8,0-25,11.2-25,25s11.2,25,25,25h63.1c13.8,0,25-11.2,25-25S390.7,288.6,376.9,288.6z"/>
	<path d="M437,50H75c-35.8,0-65,29.2-65,65v282c0,35.8,29.2,65,65,65h362c35.8,0,65-29.2,65-65V115C502,79.2,472.8,50,437,50z
		 M452,397c0,8.3-6.7,15-15,15H75c-8.3,0-15-6.7-15-15V115c0-8.3,6.7-15,15-15h362c8.3,0,15,6.7,15,15V397z"/>
	<path d="M196.8,267.6c16.7-8.1,28.1-25.2,28.1-45c0-27.6-22.4-50-50-50s-50,22.4-50,50c0,19.8,11.5,36.9,28.1,45
		c-23.2,7.1-41.6,25-49.3,47.9c-3.9,11.7,4.7,23.8,17,23.8H229c12.3,0,21-12.1,17-23.8C238.4,292.6,219.9,274.7,196.8,267.6z"/>
</g>
</svg>
