<svg xmlns="http://www.w3.org/2000/svg" viewBox="-49 141 512 512"><path d="M388 223.5h-36v-25c0-13.807-11.193-25-25-25s-25 11.193-25 25v25H112v-25c0-13.807-11.193-25-25-25s-25 11.193-25 25v25H26c-35.841 0-65 29.159-65 65v267c0 35.841 29.159 65 65 65h362c35.841 0 65-29.159 65-65v-267c0-35.841-29.159-65-65-65zm0 347H26c-8.271 0-15-6.729-15-15v-232h392v232c0 8.271-6.729 15-15 15z"/><path d="M207 368.5c-16.542 0-30 13.458-30 30s13.458 30 30 30 30-13.458 30-30-13.458-30-30-30zM207 465.5c-16.542 0-30 13.458-30 30s13.458 30 30 30 30-13.458 30-30-13.458-30-30-30zM107 368.5c-16.542 0-30 13.458-30 30s13.458 30 30 30 30-13.458 30-30-13.458-30-30-30zM107 465.5c-16.542 0-30 13.458-30 30s13.458 30 30 30 30-13.458 30-30-13.458-30-30-30zM307 368.5c-16.542 0-30 13.458-30 30s13.458 30 30 30 30-13.458 30-30-13.458-30-30-30zM307 465.5c-16.542 0-30 13.458-30 30s13.458 30 30 30 30-13.458 30-30-13.458-30-30-30z"/></svg>