<?xml version="1.0" encoding="iso-8859-1"?>
<!-- Generator: Adobe Illustrator 19.0.0, SVG Export Plug-In . SVG Version: 6.00 Build 0)  -->
<svg version="1.1" id="Layer_1" xmlns="http://www.w3.org/2000/svg" xmlns:xlink="http://www.w3.org/1999/xlink" x="0px" y="0px"
	 viewBox="-49 141 512 512" style="enable-background:new -49 141 512 512;" xml:space="preserve">
<g>
	<path d="M388,223.5h-36v-25c0-13.807-11.193-25-25-25s-25,11.193-25,25v25H112v-25c0-13.807-11.193-25-25-25s-25,11.193-25,25v25
		H26c-35.841,0-65,29.159-65,65v267c0,35.841,29.159,65,65,65h362c35.841,0,65-29.159,65-65v-267
		C453,252.659,423.841,223.5,388,223.5z M388,570.5H26c-8.271,0-15-6.729-15-15v-232h392v232C403,563.771,396.271,570.5,388,570.5z"
		/>
	<path d="M207,368.5c-16.542,0-30,13.458-30,30s13.458,30,30,30s30-13.458,30-30S223.542,368.5,207,368.5z"/>
	<path d="M207,465.5c-16.542,0-30,13.458-30,30s13.458,30,30,30s30-13.458,30-30S223.542,465.5,207,465.5z"/>
	<path d="M107,368.5c-16.542,0-30,13.458-30,30s13.458,30,30,30s30-13.458,30-30S123.542,368.5,107,368.5z"/>
	<path d="M107,465.5c-16.542,0-30,13.458-30,30s13.458,30,30,30s30-13.458,30-30S123.542,465.5,107,465.5z"/>
	<path d="M307,368.5c-16.542,0-30,13.458-30,30s13.458,30,30,30s30-13.458,30-30S323.542,368.5,307,368.5z"/>
	<path d="M307,465.5c-16.542,0-30,13.458-30,30s13.458,30,30,30s30-13.458,30-30S323.542,465.5,307,465.5z"/>
</g>
</svg>
