<?xml version="1.0" encoding="iso-8859-1"?>
<!-- Generator: Adobe Illustrator 19.0.0, SVG Export Plug-In . SVG Version: 6.00 Build 0)  -->
<svg version="1.1" id="Layer_1" xmlns="http://www.w3.org/2000/svg" xmlns:xlink="http://www.w3.org/1999/xlink" x="0px" y="0px"
	 viewBox="0 0 492 492" style="enable-background:new 0 0 492 492;" xml:space="preserve">
<g>
	<path d="M427,72.5h-36v-25c0-13.807-11.193-25-25-25s-25,11.193-25,25v25H151v-25c0-13.807-11.193-25-25-25s-25,11.193-25,25v25H65
		c-35.841,0-65,29.159-65,65v267c0,35.841,29.159,65,65,65h362c35.841,0,65-29.159,65-65v-267C492,101.659,462.841,72.5,427,72.5z
		 M427,419.5H65c-8.271,0-15-6.729-15-15v-232h392v232C442,412.771,435.271,419.5,427,419.5z"/>
	<path d="M246,217.5c-16.542,0-30,13.458-30,30s13.458,30,30,30s30-13.458,30-30S262.542,217.5,246,217.5z"/>
	<path d="M246,314.5c-16.542,0-30,13.458-30,30s13.458,30,30,30s30-13.458,30-30S262.542,314.5,246,314.5z"/>
	<path d="M146,217.5c-16.542,0-30,13.458-30,30s13.458,30,30,30s30-13.458,30-30S162.542,217.5,146,217.5z"/>
	<path d="M146,314.5c-16.542,0-30,13.458-30,30s13.458,30,30,30s30-13.458,30-30S162.542,314.5,146,314.5z"/>
	<path d="M346,217.5c-16.542,0-30,13.458-30,30s13.458,30,30,30s30-13.458,30-30S362.542,217.5,346,217.5z"/>
	<path d="M346,314.5c-16.542,0-30,13.458-30,30s13.458,30,30,30s30-13.458,30-30S362.542,314.5,346,314.5z"/>
</g>
<g>
</g>
<g>
</g>
<g>
</g>
<g>
</g>
<g>
</g>
<g>
</g>
<g>
</g>
<g>
</g>
<g>
</g>
<g>
</g>
<g>
</g>
<g>
</g>
<g>
</g>
<g>
</g>
<g>
</g>
</svg>
