<svg xmlns="http://www.w3.org/2000/svg" viewBox="-49 141 512 512"><path d="M452.093 315.351a25 25 0 0 0-23.203-2.632L348 344.372V336c0-30.327-24.673-55-55-55h-53.596l-52.606-78.872A25 25 0 0 0 166 191H-24c-13.807 0-25 11.193-25 25s11.193 25 25 25h176.624l26.679 40H6c-30.327 0-55 24.673-55 55v212c0 30.327 24.673 55 55 55h287c30.327 0 55-24.673 55-55v-8.372l80.89 31.653A25 25 0 0 0 463 548V336a25 25 0 0 0-10.907-20.649zM413 511.372l-80.89-31.653A25 25 0 0 0 298 503v45c0 2.757-2.243 5-5 5H6c-2.757 0-5-2.243-5-5V336c0-2.757 2.243-5 5-5h287c2.757 0 5 2.243 5 5v45a25 25 0 0 0 34.11 23.281L413 372.628v138.744z"/></svg>