<?xml version="1.0" encoding="utf-8"?>
<!-- Generator: Adobe Illustrator 26.3.1, SVG Export Plug-In . SVG Version: 6.00 Build 0)  -->
<svg version="1.1" id="Capa_1" xmlns="http://www.w3.org/2000/svg" xmlns:xlink="http://www.w3.org/1999/xlink" x="0px" y="0px"
	 viewBox="0 0 512 512" style="enable-background:new 0 0 512 512;" xml:space="preserve">
<path d="M432.1,80.9C385.4,34.1,323.2,8.3,257,8.3S128.6,34.1,81.9,80.9C35.1,127.6,9.3,189.8,9.3,256s25.8,128.4,72.5,175.1
	c46.8,46.8,109,72.5,175.1,72.5s128.4-25.8,175.1-72.5c46.8-46.8,72.5-109,72.5-175.1S478.9,127.6,432.1,80.9z M390.7,192.6
	l-161.3,162c-4.7,4.7-11.1,7.4-17.7,7.4s-13-2.6-17.7-7.4l-70.7-71c-9.7-9.8-9.7-25.6,0.1-35.4c9.8-9.7,25.6-9.7,35.4,0.1l53,53.2
	l143.6-144.2c9.7-9.8,25.6-9.8,35.4-0.1C400.4,167,400.5,182.9,390.7,192.6z"/>
</svg>
