<?xml version="1.0" encoding="iso-8859-1"?>
<!-- Generator: Adobe Illustrator 19.0.0, SVG Export Plug-In . SVG Version: 6.00 Build 0)  -->
<svg version="1.1" id="Layer_1" xmlns="http://www.w3.org/2000/svg" xmlns:xlink="http://www.w3.org/1999/xlink" x="0px" y="0px"
	 viewBox="0 0 462 462" style="enable-background:new 0 0 462 462;" xml:space="preserve">
<g>
	<g>
		<path d="M397,462H65c-35.841,0-65-29.159-65-65V65C0,29.159,29.159,0,65,0h332c35.841,0,65,29.159,65,65v332
			C462,432.841,432.841,462,397,462z M65,50c-8.271,0-15,6.729-15,15v332c0,8.271,6.729,15,15,15h332c8.271,0,15-6.729,15-15V65
			c0-8.271-6.729-15-15-15H65z"/>
	</g>
	<g>
		<path d="M185.712,337c-6.649,0-13.024-2.647-17.716-7.358l-70.71-71c-9.743-9.783-9.71-25.612,0.072-35.355
			c9.784-9.743,25.613-9.711,35.355,0.072l52.994,53.211l143.576-144.208c9.743-9.786,25.573-9.819,35.355-0.078
			c9.784,9.742,9.819,25.571,0.078,35.355l-161.29,162C198.736,334.351,192.361,337,185.712,337z"/>
	</g>
</g>
<g>
</g>
<g>
</g>
<g>
</g>
<g>
</g>
<g>
</g>
<g>
</g>
<g>
</g>
<g>
</g>
<g>
</g>
<g>
</g>
<g>
</g>
<g>
</g>
<g>
</g>
<g>
</g>
<g>
</g>
</svg>
