<svg xmlns="http://www.w3.org/2000/svg" viewBox="-49 141 512 512"><path d="M373 628H41c-35.841 0-65-29.159-65-65V231c0-35.841 29.159-65 65-65h332c35.841 0 65 29.159 65 65v332c0 35.841-29.159 65-65 65zM41 216c-8.271 0-15 6.729-15 15v332c0 8.271 6.729 15 15 15h332c8.271 0 15-6.729 15-15V231c0-8.271-6.729-15-15-15H41z"/><path d="M161.712 503a25.002 25.002 0 0 1-17.716-7.358l-70.71-71c-9.743-9.783-9.71-25.612.072-35.355 9.784-9.743 25.613-9.711 35.355.072l52.994 53.211 143.576-144.208c9.743-9.786 25.573-9.819 35.355-.078 9.784 9.742 9.819 25.571.078 35.355l-161.29 162A24.993 24.993 0 0 1 161.712 503z"/></svg>