<svg xmlns="http://www.w3.org/2000/svg" viewBox="0 0 512 512"><path d="M253.476 506.951c-67.706 0-131.359-26.366-179.234-74.241C26.366 384.834 0 321.181 0 253.476S26.366 122.117 74.241 74.241C122.117 26.366 185.77 0 253.476 0S384.834 26.366 432.71 74.241c47.875 47.875 74.241 111.529 74.241 179.234S480.585 384.834 432.71 432.71c-47.876 47.875-111.529 74.241-179.234 74.241zm0-456.951C141.279 50 50 141.279 50 253.476s91.279 203.476 203.476 203.476 203.476-91.279 203.476-203.476S365.672 50 253.476 50z"/></svg>