<?xml version="1.0" encoding="iso-8859-1"?>
<!-- Generator: Adobe Illustrator 21.0.0, SVG Export Plug-In . SVG Version: 6.00 Build 0)  -->
<svg version="1.1" id="Capa_1" xmlns="http://www.w3.org/2000/svg" xmlns:xlink="http://www.w3.org/1999/xlink" x="0px" y="0px"
	 viewBox="0 0 512 512" style="enable-background:new 0 0 512 512;" xml:space="preserve">
<g>
	<path d="M253.476,506.951c-67.706,0-131.359-26.366-179.234-74.241C26.366,384.834,0,321.181,0,253.476
		S26.366,122.117,74.241,74.241C122.117,26.366,185.77,0,253.476,0S384.834,26.366,432.71,74.241
		c47.875,47.875,74.241,111.529,74.241,179.234S480.585,384.834,432.71,432.71C384.834,480.585,321.181,506.951,253.476,506.951z
		 M253.476,50C141.279,50,50,141.279,50,253.476s91.279,203.476,203.476,203.476s203.476-91.279,203.476-203.476
		S365.672,50,253.476,50z"/>
</g>
<g>
</g>
<g>
</g>
<g>
</g>
<g>
</g>
<g>
</g>
<g>
</g>
<g>
</g>
<g>
</g>
<g>
</g>
<g>
</g>
<g>
</g>
<g>
</g>
<g>
</g>
<g>
</g>
<g>
</g>
</svg>
