<?xml version="1.0" encoding="iso-8859-1"?>
<!-- Generator: Adobe Illustrator 21.0.0, SVG Export Plug-In . SVG Version: 6.00 Build 0)  -->
<svg version="1.1" id="Capa_1" xmlns="http://www.w3.org/2000/svg" xmlns:xlink="http://www.w3.org/1999/xlink" x="0px" y="0px"
	 viewBox="0 0 512 512" style="enable-background:new 0 0 512 512;" xml:space="preserve">
<path id="XMLID_2_" d="M501.884,4.913c-11.095-8.219-26.751-5.886-34.97,5.208L358.406,156.607
	c-18.474-11.921-40.123-18.548-62.201-18.83c-26.519-0.359-52.595,8.461-73.426,24.782
	c-53.654,42.035-129.675,77.203-203.355,94.074c-13.12,3.004-21.506,15.855-18.973,29.074c0.361,1.884,9.186,46.708,39.271,96.583
	c40.323,66.846,99.936,111.457,172.396,129.009c1.937,0.469,3.912,0.703,5.886,0.703c2.674,0,5.344-0.429,7.906-1.283
	c56.721-18.907,104.003-51.092,140.533-95.66c28.81-35.149,50.162-76.82,63.462-123.856c10.69-37.801-1.992-78.334-32.3-103.513
	L507.092,39.882C515.31,28.788,512.979,13.131,501.884,4.913z M337.333,202.983l28.019,22.904
	c15.327,12.529,21.779,32.827,16.439,51.711c-2.544,8.996-5.599,18.381-9.264,27.968l-124.143-99.621
	c1.763-1.336,3.508-2.678,5.23-4.027C278.393,182.506,312.82,182.944,337.333,202.983z M216.938,460.911
	c-14.418-3.953-28.085-9.177-40.992-15.639c12.222-5.662,26.792-13.039,43.46-22.564c11.988-6.85,16.153-22.122,9.303-34.109
	s-22.121-16.154-34.109-9.303c-33.161,18.949-56.542,28.264-67.628,32.16c-9.53-8.746-18.441-18.451-26.714-29.113
	c19.712-6.172,54.499-18.596,96.212-40.125c12.269-6.333,17.082-21.412,10.749-33.682c-6.333-12.269-21.412-17.083-33.682-10.749
	c-52.466,27.079-93.225,38.505-101.027,40.561c-7.593-14.966-12.94-28.703-16.545-39.426
	c52.047-14.518,104.112-36.889,148.95-63.751l145.289,116.59C324.127,395.335,282.713,437.168,216.938,460.911z"/>
<g>
</g>
<g>
</g>
<g>
</g>
<g>
</g>
<g>
</g>
<g>
</g>
<g>
</g>
<g>
</g>
<g>
</g>
<g>
</g>
<g>
</g>
<g>
</g>
<g>
</g>
<g>
</g>
<g>
</g>
</svg>
