<svg xmlns="http://www.w3.org/2000/svg" viewBox="0 0 512 512"><path d="M501.884 4.913c-11.095-8.219-26.751-5.886-34.97 5.208L358.406 156.607c-18.474-11.921-40.123-18.548-62.201-18.83-26.519-.359-52.595 8.461-73.426 24.782-53.654 42.035-129.675 77.203-203.355 94.074-13.12 3.004-21.506 15.855-18.973 29.074.361 1.884 9.186 46.708 39.271 96.583 40.323 66.846 99.936 111.457 172.396 129.009a25.005 25.005 0 0 0 13.792-.58c56.721-18.907 104.003-51.092 140.533-95.66 28.81-35.149 50.162-76.82 63.462-123.856 10.69-37.801-1.992-78.334-32.3-103.513L507.092 39.882c8.218-11.094 5.887-26.751-5.208-34.969zm-164.551 198.07l28.019 22.904c15.327 12.529 21.779 32.827 16.439 51.711a329.419 329.419 0 0 1-9.264 27.968l-124.143-99.621a411.265 411.265 0 0 0 5.23-4.027c24.779-19.412 59.206-18.974 83.719 1.065zM216.938 460.911c-14.418-3.953-28.085-9.177-40.992-15.639 12.222-5.662 26.792-13.039 43.46-22.564 11.988-6.85 16.153-22.122 9.303-34.109s-22.121-16.154-34.109-9.303c-33.161 18.949-56.542 28.264-67.628 32.16-9.53-8.746-18.441-18.451-26.714-29.113 19.712-6.172 54.499-18.596 96.212-40.125 12.269-6.333 17.082-21.412 10.749-33.682-6.333-12.269-21.412-17.083-33.682-10.749-52.466 27.079-93.225 38.505-101.027 40.561a297.028 297.028 0 0 1-16.545-39.426c52.047-14.518 104.112-36.889 148.95-63.751l145.289 116.59c-26.077 43.574-67.491 85.407-133.266 109.15z"/></svg>