<?xml version="1.0" encoding="iso-8859-1"?>
<!-- Generator: Adobe Illustrator 19.0.0, SVG Export Plug-In . SVG Version: 6.00 Build 0)  -->
<svg version="1.1" id="Layer_1" xmlns="http://www.w3.org/2000/svg" xmlns:xlink="http://www.w3.org/1999/xlink" x="0px" y="0px"
	 viewBox="0 0 511.464 511.464" style="enable-background:new 0 0 511.464 511.464;" xml:space="preserve">
<g>
	<g>
		<path d="M51.109,443.504c-65.798-65.798-70.452-177.035,0-247.487L193.944,53.181c49.379-49.379,128.417-48.359,176.776,0
			c45.474,45.474,53.379,123.398,0,176.777L227.885,372.794c-29.242,29.242-76.824,29.242-106.066,0
			c-29.242-29.243-29.242-76.823,0-106.066l142.836-142.836c9.763-9.762,25.593-9.763,35.355,0s9.763,25.592,0,35.355
			L157.175,302.083c-9.748,9.747-9.748,25.608,0,35.355c9.747,9.747,25.607,9.748,35.355,0l142.835-142.835
			c29.379-29.379,28.475-77.592,0-106.066c-26.025-26.025-73.52-32.545-106.065,0L86.464,231.372
			c-48.577,48.577-48.423,128.354,0,176.777c44.452,44.452,124.074,52.703,176.777,0l205.546-205.546
			c9.764-9.763,25.592-9.763,35.355,0c9.763,9.763,9.763,25.592,0,35.355L298.596,443.504
			C234.144,507.957,123.686,516.082,51.109,443.504z"/>
	</g>
</g>
<g>
</g>
<g>
</g>
<g>
</g>
<g>
</g>
<g>
</g>
<g>
</g>
<g>
</g>
<g>
</g>
<g>
</g>
<g>
</g>
<g>
</g>
<g>
</g>
<g>
</g>
<g>
</g>
<g>
</g>
</svg>
