<?xml version="1.0" encoding="iso-8859-1"?>
<!-- Generator: Adobe Illustrator 19.0.0, SVG Export Plug-In . SVG Version: 6.00 Build 0)  -->
<svg version="1.1" id="Layer_1" xmlns="http://www.w3.org/2000/svg" xmlns:xlink="http://www.w3.org/1999/xlink" x="0px" y="0px"
	 viewBox="-49 141 512 512" style="enable-background:new -49 141 512 512;" xml:space="preserve">
<g>
	<g>
		<path d="M2.377,584.772c-65.798-65.798-70.452-177.035,0-247.487l142.835-142.836c49.379-49.379,128.417-48.359,176.776,0
			c45.474,45.474,53.379,123.398,0,176.777L179.153,514.061c-29.242,29.242-76.824,29.242-106.066,0
			c-29.242-29.243-29.242-76.823,0-106.066l142.836-142.836c9.763-9.762,25.593-9.763,35.355,0c9.762,9.763,9.763,25.592,0,35.355
			L108.443,443.35c-9.748,9.747-9.748,25.608,0,35.355c9.747,9.747,25.607,9.748,35.355,0L286.633,335.87
			c29.379-29.379,28.475-77.592,0-106.066c-26.025-26.025-73.52-32.545-106.065,0L37.732,372.639
			c-48.577,48.577-48.423,128.354,0,176.777c44.452,44.452,124.074,52.703,176.777,0L420.055,343.87
			c9.764-9.763,25.592-9.763,35.355,0c9.763,9.763,9.763,25.592,0,35.355L249.864,584.772
			C185.412,649.224,74.954,657.349,2.377,584.772z"/>
	</g>
</g>
</svg>
