<svg xmlns="http://www.w3.org/2000/svg" viewBox="-49 141 512 512"><path d="M332 603H57c-58.449 0-106-47.552-106-106 0-23.179 7.352-45.199 21.26-63.68 8.582-11.403 19.484-20.989 31.79-28.116A181.597 181.597 0 0 1 1 372c0-99.804 81.196-181 181-181 47.167 0 91.82 18.044 125.734 50.808 28.708 27.735 47.154 63.507 53.133 102.384C419.604 357.379 463 409.862 463 472c0 72.234-58.767 131-131 131zM182 241c-72.234 0-131 58.766-131 131 0 13.614 2.083 27.04 6.192 39.903a24.999 24.999 0 0 1-16.533 31.523C16.938 450.648 1 472.178 1 497c0 30.878 25.122 56 56 56h275c44.663 0 81-36.336 81-81 0-43.003-33.596-78.527-76.484-80.872-12.903-.706-23.143-11.129-23.618-24.043C310.296 296.383 252.799 241 182 241z"/></svg>