<?xml version="1.0" encoding="iso-8859-1"?>
<!-- Generator: Adobe Illustrator 19.0.0, SVG Export Plug-In . SVG Version: 6.00 Build 0)  -->
<svg version="1.1" id="Layer_1" xmlns="http://www.w3.org/2000/svg" xmlns:xlink="http://www.w3.org/1999/xlink" x="0px" y="0px"
	 viewBox="0 0 512 512" style="enable-background:new 0 0 512 512;" xml:space="preserve">
<g>
	<path d="M381,462H106C47.551,462,0,414.448,0,356c0-23.179,7.352-45.199,21.26-63.68c8.582-11.403,19.484-20.989,31.79-28.116
		C51.022,253.294,50,242.19,50,231c0-99.804,81.196-181,181-181c47.167,0,91.82,18.044,125.734,50.808
		c28.708,27.735,47.154,63.507,53.133,102.384C468.604,216.379,512,268.862,512,331C512,403.234,453.233,462,381,462z M231,100
		c-72.234,0-131,58.766-131,131c0,13.614,2.083,27.04,6.192,39.903c2.036,6.372,1.432,13.295-1.675,19.219
		c-3.107,5.924-8.458,10.356-14.858,12.304C65.938,309.648,50,331.178,50,356c0,30.878,25.122,56,56,56h275
		c44.663,0,81-36.336,81-81c0-43.003-33.596-78.527-76.484-80.872c-12.903-0.706-23.143-11.129-23.618-24.043
		C359.296,155.383,301.799,100,231,100z"/>
</g>
<g>
</g>
<g>
</g>
<g>
</g>
<g>
</g>
<g>
</g>
<g>
</g>
<g>
</g>
<g>
</g>
<g>
</g>
<g>
</g>
<g>
</g>
<g>
</g>
<g>
</g>
<g>
</g>
<g>
</g>
</svg>
