<svg xmlns="http://www.w3.org/2000/svg" xml:space="preserve" width="512" height="512" style="enable-background:new 0 0 512 512"><path d="M492.547 233.991c-15.984-43.331-70.508-76.865-154.715-50.106 44.69-41.165 53.11-79.281 53.11-102.115 0-21.526-6.911-41.734-19.459-56.9C358.214 8.832 339.802 0 319.637 0c-32.587 0-53.725 17.725-63.805 28.895C245.751 17.725 224.613 0 192.027 0c-20.165 0-38.577 8.832-51.846 24.87-12.548 15.167-19.459 35.375-19.459 56.9 0 9.511 1.399 19.209 4.158 28.825a7.5 7.5 0 0 0 9.278 5.141 7.5 7.5 0 0 0 5.141-9.277c-2.373-8.271-3.576-16.577-3.576-24.688 0-18.043 5.688-34.855 16.017-47.338C162.106 21.901 176.414 15 192.027 15c30.766 0 49.214 19.272 55.718 27.558 4.118 5.248 12.047 5.257 16.174 0C270.422 34.272 288.87 15 319.637 15c15.613 0 29.921 6.901 40.288 19.432 10.328 12.483 16.017 29.295 16.017 47.338 0 22.89-9.196 46.018-27.333 68.741-20.557 25.755-51.766 49.751-92.777 71.342-50.103-26.372-85.234-55.992-104.445-88.065a7.498 7.498 0 0 0-10.288-2.581 7.5 7.5 0 0 0-2.581 10.288c8.764 14.632 20.508 28.727 35.133 42.223-84.38-26.612-138.404 7.459-154.198 50.273-7.205 19.533-5.626 39.931 4.448 57.434 16.298 28.319 42.189 37.814 56.868 40.98-4.605 14.323-9.363 41.562 6.937 69.884 21.229 36.884 68.642 42.844 106.278 21.046 9.311-5.393 20.626-14.128 31.366-28.097-3.15 12.422-6.612 24.543-10.403 36.279a7.5 7.5 0 0 0 14.273 4.611c9.683-29.974 17.356-62.28 22.819-96.025A234.932 234.932 0 0 0 256 324.236a232.318 232.318 0 0 0 4.74 18.511c-2.26 57.485-8.39 109.34-18.244 154.252h-37.513c3.452-6.955 8.12-17.073 13.325-30.297a7.5 7.5 0 0 0-13.959-5.494c-10.122 25.719-18.201 39.293-18.278 39.422a7.501 7.501 0 0 0 6.425 11.369H248.5a7.5 7.5 0 0 0 7.31-5.821c8.885-38.685 14.991-82.518 18.22-130.662 13.844 26.061 30.897 40.237 43.987 47.818 37.498 21.72 84.98 15.961 106.278-21.045 16.303-28.329 11.541-55.571 6.935-69.892 6.907-1.505 16.657-4.507 26.735-10.458a7.5 7.5 0 1 0-7.627-12.916c-11.054 6.527-21.591 8.789-26.89 9.556-6.594.957-10.544 7.812-8.078 13.999 3.903 9.799 11.321 35.478-4.075 62.229-17.059 29.641-55.507 33.069-85.759 15.548-19.753-11.44-35.117-30.991-45.665-58.107-11.959-30.747-17.071-69.873-15.201-116.319a469.485 469.485 0 0 1 6.669-4.151c36.612-22.379 70.656-36.091 101.317-40.789 57.321-8.783 94.251 16.833 105.819 48.192 5.639 15.286 4.44 31.182-3.376 44.762a71.932 71.932 0 0 1-3.605 5.642 7.5 7.5 0 0 0 12.245 8.665 86.946 86.946 0 0 0 4.362-6.826c10.072-17.503 11.652-37.9 4.446-57.433zM186.466 410.355c-30.242 17.515-68.706 14.083-85.759-15.548-15.396-26.751-7.978-52.43-4.075-62.229 2.467-6.191-1.489-13.043-8.08-13.999-10.404-1.507-36.262-7.898-51.65-34.637-7.815-13.579-9.014-29.475-3.376-44.761 11.581-31.395 48.534-56.967 105.819-48.192 32.515 4.982 68.834 20.098 107.986 44.94 1.871 46.448-3.24 85.57-15.201 116.319-10.547 27.116-25.911 46.667-45.664 58.107z"/><path d="M264 159V77.5a7.5 7.5 0 0 0-15 0V159a7.5 7.5 0 0 0 15 0zM190.664 259.055l-79.002 47a7.5 7.5 0 0 0-2.611 10.28c2.128 3.577 6.737 4.719 10.28 2.611l79.002-47a7.5 7.5 0 0 0 2.611-10.28 7.498 7.498 0 0 0-10.28-2.611zM322.336 258.055a7.499 7.499 0 0 0-10.28 2.611 7.5 7.5 0 0 0 2.611 10.28l79.002 47c3.536 2.105 8.149.971 10.28-2.611a7.5 7.5 0 0 0-2.611-10.28l-79.002-47z"/></svg>