<?xml version="1.0" encoding="iso-8859-1"?>
<!-- Generator: Adobe Illustrator 19.0.0, SVG Export Plug-In . SVG Version: 6.00 Build 0)  -->
<svg version="1.1" id="Layer_1" xmlns="http://www.w3.org/2000/svg" xmlns:xlink="http://www.w3.org/1999/xlink" x="0px" y="0px"
	 viewBox="0 0 462 462" style="enable-background:new 0 0 462 462;" xml:space="preserve">
<g>
	<g>
		<path d="M151,206H55c-30.327,0-55-24.673-55-55V55C0,24.673,24.673,0,55,0h96c30.327,0,55,24.673,55,55v96
			C206,181.327,181.327,206,151,206z M55,50c-2.757,0-5,2.243-5,5v96c0,2.757,2.243,5,5,5h96c2.757,0,5-2.243,5-5V55
			c0-2.757-2.243-5-5-5H55z"/>
	</g>
	<g>
		<path d="M407,206h-96c-30.327,0-55-24.673-55-55V55c0-30.327,24.673-55,55-55h96c30.327,0,55,24.673,55,55v96
			C462,181.327,437.327,206,407,206z M311,50c-2.757,0-5,2.243-5,5v96c0,2.757,2.243,5,5,5h96c2.757,0,5-2.243,5-5V55
			c0-2.757-2.243-5-5-5H311z"/>
	</g>
	<g>
		<path d="M151,462H55c-30.327,0-55-24.673-55-55v-96c0-30.327,24.673-55,55-55h96c30.327,0,55,24.673,55,55v96
			C206,437.327,181.327,462,151,462z M55,306c-2.757,0-5,2.243-5,5v96c0,2.757,2.243,5,5,5h96c2.757,0,5-2.243,5-5v-96
			c0-2.757-2.243-5-5-5H55z"/>
	</g>
	<g>
		<path d="M407,462h-96c-30.327,0-55-24.673-55-55v-96c0-30.327,24.673-55,55-55h96c30.327,0,55,24.673,55,55v96
			C462,437.327,437.327,462,407,462z M311,306c-2.757,0-5,2.243-5,5v96c0,2.757,2.243,5,5,5h96c2.757,0,5-2.243,5-5v-96
			c0-2.757-2.243-5-5-5H311z"/>
	</g>
</g>
<g>
</g>
<g>
</g>
<g>
</g>
<g>
</g>
<g>
</g>
<g>
</g>
<g>
</g>
<g>
</g>
<g>
</g>
<g>
</g>
<g>
</g>
<g>
</g>
<g>
</g>
<g>
</g>
<g>
</g>
</svg>
