<svg xmlns="http://www.w3.org/2000/svg" width="512" height="512" viewBox="0 0 512.001 512.001"><path d="m449.977 503.212-7.686-44.086a67.086 67.086 0 0 0-13.368-29.999v-10.584c0-24.401-9.321-48.087-26.991-68.678-.067-16.604-5.636-33.009-16.166-47.756 5.8-10.932 8.736-22.415 8.736-34.202v-14.065a57.29 57.29 0 0 0 5.346-4.79C410.264 238.427 416 224.381 416 209.5c0-11.446-7.031-21.278-17-25.412V142c0-12.771-1.702-25.446-5.053-37.657C376.866 43.027 321.523.135 257.001 0c-18.498.024-37.252 3.631-55.002 11.053a7.5 7.5 0 1 0 5.809 13.829c7.169-3.059 17.885-6.423 27.679-8.05 3.839 1.541 6.283 4.414 7.235 8.582 1.585 6.944-1.439 15.697-7.524 21.783-4.691 4.69-10.171 4.533-19.454 3.854-8.707-.639-19.543-1.435-30.153 5.05-16.924 10.341-22.797 12.286-28.242 7.179 5.241-6.721 13.438-15.134 21.642-21.501a7.5 7.5 0 0 0-9.223-11.829 143.072 143.072 0 0 0-18.108 16.84c-23.639 26.136-36.657 59.949-36.657 95.21v41.351c-11.015 3.589-19 13.952-19 26.149 0 17.943 8.417 33.946 21.499 44.303v14.104c0 11.786 2.937 23.27 8.736 34.202-10.53 14.747-16.099 31.152-16.166 47.756a125.897 125.897 0 0 0-9.345 12.329 7.5 7.5 0 1 0 12.5 8.292c2.918-4.399 6.273-8.719 9.972-12.84a7.506 7.506 0 0 0 1.915-5.273 62.032 62.032 0 0 1-.042-2.203c0-15.05 5.382-29.458 15.997-42.826a7.5 7.5 0 0 0 .526-8.576c-6.034-9.87-9.093-20.254-9.093-30.862v-5.576a56.088 56.088 0 0 0 16.076 3.517c3.601 9.924 7.853 19.402 12.75 28.277 8.743 15.845 22.687 29.382 37.418 39.968l-5.236 43.477a7.455 7.455 0 0 1-5.146 6.161l-72.904 22.917a67.672 67.672 0 0 0-17.295 8.422 81.463 81.463 0 0 1 2-14.784 7.5 7.5 0 0 0-5.623-8.994 7.499 7.499 0 0 0-8.994 5.623c-2.297 8.68-2.691 22.317-2.467 32.206a67.113 67.113 0 0 0-13.368 30.003l-7.686 44.086a7.5 7.5 0 0 0 14.778 2.577l4.424-25.378c10.952-5.794 26.196-1.879 41.474 10.851 6.728 5.606 15.312 6.967 23.613 8.283 10.53 1.669 17.187 3.103 20.829 8.93a7.496 7.496 0 0 0 10.335 2.385 7.5 7.5 0 0 0 2.385-10.335c-7.527-12.043-20.653-14.124-31.2-15.795-6.585-1.043-12.805-2.029-16.359-4.991-16.394-13.661-33.478-19.225-48.134-16.2 2.569-19.306 16.858-36.618 35.831-42.594l36.056-11.334c19.171 26.382 57.596 43.151 99.946 43.151 4.25 0 8.458-.176 12.622-.503 8.69 23.055 20.573 38.361 34.491 44.354 4.196 1.807 8.522 2.709 12.866 2.709 4.548 0 9.115-.99 13.566-2.969 11.126-4.945 13.27-12.418 14.992-18.423 1.805-6.294 3.51-12.239 17.535-19.836 13.677-7.408 22.353-14.333 27.305-21.793 3.076-4.634 4.704-9.5 4.91-14.556 17.388 6.487 30.022 21.588 33.226 39.956l7.686 44.086a7.503 7.503 0 0 0 8.677 6.1c4.076-.707 6.808-4.592 6.096-8.672zm-79.686-253.656a228.828 228.828 0 0 0 2.259-8.516c.19-.526.323-1.061.391-1.601a235.317 235.317 0 0 0 5.511-34.331c.221-2.591.387-5.464.51-8.026l11.806.134c5.813 1.071 10.233 6.166 10.233 12.284 0 18.991-13.088 35.252-30.71 40.056zM130.001 142c0-23.635 6.54-46.543 18.718-66.378 4.766 3.895 9.701 5.439 14.692 5.439 10.101-.001 20.425-6.309 30.001-12.161 6.498-3.97 13.328-3.468 21.235-2.89 10.022.736 21.382 1.569 31.158-8.207 9.742-9.741 14.271-23.765 11.541-35.727a28.097 28.097 0 0 0-2.626-7.033c58.008-1.207 109.448 37.781 124.76 93.252A127.374 127.374 0 0 1 384.002 142v40.139l-9.873-.112c-7.122-5.162-13.056-12.053-17.24-20.04a60.676 60.676 0 0 1-5.787-16.54c-1.568-7.995-8.312-13.857-16.416-14.258-58.098-2.747-107.712-18.5-126.402-40.134-3.124-3.612-7.449-5.781-12.178-6.108-4.647-.318-9.128 1.189-12.621 4.249-4.649 4.065-8.524 8.663-11.521 13.668-5.283 8.84-7.962 19.145-7.962 30.628 0 9.955-2.404 19.806-6.954 28.49-4.184 7.987-10.105 14.869-17.205 20.02h-9.841V142zm-19 67.5c0-6.893 5.607-12.5 12.5-12.5h11.498c.672 16.399 3.908 36.865 8.501 53.006-18.568-4.124-32.499-20.714-32.499-40.506zm63.457 77.378c-13.242-23.998-21.544-52.779-24.01-83.233-.276-3.409-.48-7.458-.607-10.391 8.436-6.398 15.473-14.729 20.493-24.313 5.669-10.822 8.667-23.081 8.667-35.45 0-8.859 1.91-16.36 5.835-22.928 2.188-3.654 5.055-7.044 8.527-10.081a2.316 2.316 0 0 1 1.706-.572 2.705 2.705 0 0 1 1.866.954c21.571 24.97 74.082 42.332 137.025 45.308 1.206.06 2.179.929 2.418 2.151a75.665 75.665 0 0 0 7.219 20.619c5.02 9.584 12.065 17.921 20.515 24.328-.115 2.971-.311 7.105-.606 10.568a220.721 220.721 0 0 1-3.462 24.352c-9.864-2.79-21.038-2.335-29.66 1.589-8.646 3.935-14.413 11.127-16.238 20.252-1.419 7.095-.098 12.356.963 16.583 1.475 5.872 2.364 9.416-5.465 19.203-6.563 8.204-8.83 16.146-6.736 23.604 1.149 4.092 3.438 7.285 5.939 9.716-21.269 16.092-44.872 25.365-52.846 25.365-12.402-.002-62.587-23.272-81.543-57.624zm-3.113 117.926 21.514-6.763c8.339-2.622 14.435-9.92 15.535-18.635l.502-4.169c8.306 4.585 13.527 9.547 15.556 14.811 3.089 8.013-1.22 17.231-5.387 26.146-2.324 4.972-4.677 10.034-5.672 15.016-17.427-5.673-32.144-14.796-42.048-26.406zm183.583 40.101c-19.562 10.596-22.595 21.17-24.809 28.89-1.448 5.048-1.935 6.749-6.665 8.851-4.916 2.186-9.629 2.247-14.408.189-9.215-3.969-18.186-15.687-25.087-32.562 6.097-1.104 12.071-2.558 17.881-4.393 3.95-1.248 6.14-5.461 4.892-9.411s-5.464-6.143-9.411-4.892c-12.987 4.103-26.889 6.183-41.322 6.183-9.689 0-19.119-.957-28.065-2.754.362-3.129 2.815-8.386 4.719-12.461 4.981-10.658 11.18-23.921 5.793-37.894-3.84-9.961-12.919-18.256-27.643-25.268l1.95-16.191c17.892 10.468 34.911 16.306 43.245 16.306 9.124 0 25.898-6.074 43.262-16.167l4.35 36.116c1.095 8.673 7.19 15.971 15.53 18.593l21.508 6.761c-3.676 4.279-8.076 8.279-13.158 11.952a7.5 7.5 0 0 0 8.787 12.157c7.927-5.73 14.499-12.213 19.65-19.306l22.857 7.185c1.947 6.83-.28 15.347-23.856 28.116zm41.573-38.27-72.86-22.903c-2.764-.869-4.784-3.287-5.141-6.119l-5.211-43.269c8.631-6.096 18.757-14.481 26.871-23.833a7.501 7.501 0 0 0-11.339-9.821c-2.622 3.027-5.436 5.914-8.368 8.67-1.381-1.056-2.68-2.435-3.114-4.033-.858-3.159 1.711-7.259 4.018-10.142 11.538-14.422 10.585-23.127 8.301-32.226-.871-3.469-1.559-6.208-.803-9.988.891-4.454 3.423-7.575 7.743-9.541 5.563-2.531 13.393-2.656 20.009-.615-2.821 10.354-6.375 20.342-10.619 29.722a7.499 7.499 0 0 0 3.742 9.924 7.469 7.469 0 0 0 3.087.669 7.5 7.5 0 0 0 6.837-4.411 205.402 205.402 0 0 0 5.344-12.999 56.255 56.255 0 0 0 14.505-3.353v5.54c0 10.608-3.059 20.992-9.092 30.862a7.5 7.5 0 0 0 .525 8.576c10.615 13.368 15.997 27.776 15.997 42.826 0 .735-.016 1.467-.042 2.198a7.502 7.502 0 0 0 1.914 5.278c15.549 17.323 24.15 37.109 25.031 57.429a67.804 67.804 0 0 0-17.335-8.441z"/><path d="M301.501 194.001a7.5 7.5 0 0 0-7.5 7.5v15a7.5 7.5 0 0 0 15 0v-15a7.5 7.5 0 0 0-7.5-7.5zM210.501 194.001a7.5 7.5 0 0 0-7.5 7.5v15a7.5 7.5 0 0 0 15 0v-15a7.5 7.5 0 0 0-7.5-7.5zM285.658 183.047c9.328-5.21 22.357-5.21 31.686 0a7.472 7.472 0 0 0 3.65.954 7.501 7.501 0 0 0 3.664-14.049c-13.851-7.736-32.464-7.736-46.314 0a7.5 7.5 0 1 0 7.314 13.095zM226.344 183.047a7.472 7.472 0 0 0 3.65.954 7.501 7.501 0 0 0 3.664-14.049c-13.851-7.736-32.464-7.736-46.314 0a7.5 7.5 0 0 0 7.314 13.096c9.328-5.211 22.357-5.211 31.686-.001zM235.824 248.097a7.5 7.5 0 0 0 3.278 10.087c5.447 2.775 11.423 4.163 17.398 4.163s11.951-1.388 17.398-4.163a7.5 7.5 0 0 0-6.809-13.365 23.39 23.39 0 0 1-21.178 0 7.5 7.5 0 0 0-10.087 3.278zM291.901 291.57a7.5 7.5 0 0 0-8.816-12.136 45.112 45.112 0 0 1-53.167 0 7.5 7.5 0 1 0-8.816 12.136c10.587 7.691 22.993 11.538 35.4 11.538s24.812-3.846 35.399-11.538z"/></svg>