<?xml version="1.0" encoding="iso-8859-1"?>
<!-- Generator: Adobe Illustrator 19.0.0, SVG Export Plug-In . SVG Version: 6.00 Build 0)  -->
<svg version="1.1" id="Layer_1" xmlns="http://www.w3.org/2000/svg" xmlns:xlink="http://www.w3.org/1999/xlink" x="0px" y="0px"
	 viewBox="0 0 492 492" style="enable-background:new 0 0 492 492;" xml:space="preserve">
<g>
	<path d="M125,477c-4.184,0-8.374-1.049-12.159-3.157C104.914,469.431,100,461.071,100,452v-50H65c-35.841,0-65-29.159-65-65V80
		c0-35.841,29.159-65,65-65h362c35.841,0,65,29.159,65,65v257c0,35.841-29.159,65-65,65H253.12l-114.949,71.249
		C134.144,475.746,129.575,477,125,477z M65,65c-8.271,0-15,6.729-15,15v257c0,8.271,6.729,15,15,15h60c13.807,0,25,11.193,25,25
		v30.091l82.829-51.34C236.785,353.299,241.346,352,246,352h181c8.271,0,15-6.729,15-15V80c0-8.271-6.729-15-15-15H65z"/>
</g>
<g>
</g>
<g>
</g>
<g>
</g>
<g>
</g>
<g>
</g>
<g>
</g>
<g>
</g>
<g>
</g>
<g>
</g>
<g>
</g>
<g>
</g>
<g>
</g>
<g>
</g>
<g>
</g>
<g>
</g>
</svg>
