<?xml version="1.0" encoding="iso-8859-1"?>
<!-- Generator: Adobe Illustrator 19.0.0, SVG Export Plug-In . SVG Version: 6.00 Build 0)  -->
<svg version="1.1" id="Layer_1" xmlns="http://www.w3.org/2000/svg" xmlns:xlink="http://www.w3.org/1999/xlink" x="0px" y="0px"
	 viewBox="-49 141 512 512" style="enable-background:new -49 141 512 512;" xml:space="preserve">
<g>
	<path d="M86,628c-4.184,0-8.374-1.049-12.159-3.157C65.914,620.431,61,612.071,61,603v-50H26c-35.841,0-65-29.159-65-65V231
		c0-35.841,29.159-65,65-65h362c35.841,0,65,29.159,65,65v257c0,35.841-29.159,65-65,65H214.12L99.171,624.249
		C95.144,626.746,90.575,628,86,628z M26,216c-8.271,0-15,6.729-15,15v257c0,8.271,6.729,15,15,15h60c13.807,0,25,11.193,25,25
		v30.091l82.829-51.34C197.785,504.299,202.346,503,207,503h181c8.271,0,15-6.729,15-15V231c0-8.271-6.729-15-15-15H26z"/>
</g>
</svg>
