<svg id="Layer_1" enable-background="new 0 0 511.987 511.987" height="512" viewBox="0 0 511.987 511.987" width="512" xmlns="http://www.w3.org/2000/svg"><g><path d="m49.938 439.558c-19.657 0-35.649 16.242-35.649 36.206 0 19.963 15.992 36.205 35.649 36.205s35.649-16.242 35.649-36.205c.001-19.965-15.992-36.206-35.649-36.206zm0 57.41c-11.386 0-20.649-9.513-20.649-21.205 0-11.693 9.263-21.206 20.649-21.206s20.649 9.513 20.649 21.206c.001 11.693-9.263 21.205-20.649 21.205z"/><path d="m21.445 98.888c17.936 7.909 39.364-1.02 46.941-18.888 7.752-18.281-.566-39.604-18.542-47.532-17.93-7.906-39.365 1.023-46.941 18.888-7.753 18.282.565 39.605 18.542 47.532zm-4.733-41.675c4.37-10.306 16.703-15.596 27.079-11.02 10.516 4.638 15.354 17.176 10.786 27.951-4.37 10.306-16.704 15.594-27.079 11.02-10.517-4.638-15.355-17.176-10.786-27.951z"/><path d="m314.575 406.12c-19.657 0-35.649 16.242-35.649 36.206 0 19.963 15.992 36.205 35.649 36.205s35.649-16.242 35.649-36.205c.001-19.965-15.991-36.206-35.649-36.206zm0 57.41c-11.386 0-20.649-9.513-20.649-21.205 0-11.693 9.264-21.206 20.649-21.206s20.649 9.513 20.649 21.206c.001 11.693-9.263 21.205-20.649 21.205z"/><path d="m476.338 221.879c19.657 0 35.649-16.242 35.649-36.206 0-19.963-15.992-36.205-35.649-36.205s-35.649 16.242-35.649 36.205c0 19.964 15.992 36.206 35.649 36.206zm0-57.411c11.386 0 20.649 9.513 20.649 21.205 0 11.693-9.264 21.206-20.649 21.206s-20.649-9.513-20.649-21.206c0-11.692 9.263-21.205 20.649-21.205z"/><path d="m234.72 247.096c-19.657 0-35.649 16.242-35.649 36.205 0 19.964 15.992 36.206 35.649 36.206s35.65-16.242 35.65-36.206c0-19.963-15.992-36.205-35.65-36.205zm0 57.411c-11.386 0-20.649-9.513-20.649-21.206 0-11.692 9.263-21.205 20.649-21.205s20.65 9.513 20.65 21.205c0 11.693-9.263 21.206-20.65 21.206z"/><path d="m224.422 362.176-38.433 2.738-24.043-30.108c-3.807-4.769-11.672-3.046-13.14 2.875l-9.272 37.397-36.064 13.563c-5.712 2.148-6.505 10.159-1.326 13.386l32.702 20.375 1.754 38.49c.276 6.057 7.575 9.39 12.321 5.397l29.483-24.805 37.149 10.226c5.884 1.62 11.233-4.395 8.94-10.05l-14.48-35.705 21.204-32.171c3.36-5.098-.71-12.034-6.795-11.608zm-29.103 38.817c-1.358 2.061-1.616 4.659-.688 6.946l10.251 25.277-26.299-7.239c-2.379-.655-4.93-.097-6.819 1.492l-20.872 17.56-1.242-27.248c-.112-2.466-1.431-4.719-3.526-6.024l-23.15-14.424 25.531-9.602c2.311-.869 4.045-2.819 4.64-5.215l6.564-26.474 17.021 21.314c1.541 1.929 3.939 2.979 6.393 2.801l27.208-1.938z"/><path d="m330.963 75.615-13.34 36.147c-2.112 5.724 3.426 11.568 9.255 9.761l36.806-11.399 30.256 23.857c4.849 3.822 12.059.289 12.143-5.786l.532-38.526 32.039-21.403c5.074-3.39 4.027-11.371-1.75-13.336l-36.477-12.412-10.455-37.085c-1.655-5.873-9.571-7.344-13.225-2.457l-23.075 30.855-38.501-1.516c-6.096-.236-9.941 6.831-6.423 11.818zm26.059-26.639c2.448.09 4.822-1.026 6.301-3.002l16.336-21.843 7.401 26.253c.67 2.376 2.466 4.27 4.803 5.065l25.822 8.787-22.681 15.152c-2.053 1.371-3.299 3.665-3.333 6.133l-.377 27.273-21.419-16.889c-1.34-1.057-2.979-1.61-4.645-1.61-.742 0-1.49.11-2.218.336l-26.056 8.07 9.443-25.59c.854-2.316.515-4.904-.908-6.921l-15.727-22.286z"/><path d="m34.538 362.296c-1.33 7.888 9.657 11.912 13.791 5.165l27.736-45.274c7.397-12.074 6.476-27.653-2.319-38.799l-11.051-13.843 9.429 1.852c9.209 1.803 12.52-12.827 2.891-14.719-14.169-2.782-28.866-7.092-43.35-4.32l15.416-25.164c4.132-6.746 12.127-10.25 19.893-8.72l65.44 12.893c7.279 14.156 5.731 37.721-15.752 33.49-9.208-1.824-12.527 12.82-2.899 14.717 13.743 2.708 28.268-3.662 35.583-15.601l28.647-46.762c7.396-12.074 6.475-27.653-2.293-38.765l-32.3-40.936s55.582 10.696 57.746 10.696c11.676 0 22.831-6.055 29.069-16.237l28.41-46.374c7.396-12.075 6.475-27.653-2.257-38.72l-34.176-44.007c-3.165-4.076-9.624-3.717-12.319.682l-18.726 30.566c-7.383 12.053-6.478 27.598 2.247 38.707l6.548 8.625-49.202-9.694c-13.888-2.736-28.189 3.533-35.583 15.602l-26.774 43.704c-.001.002-.002.003-.003.005l-2.521 4.115c-7.397 12.073-6.476 27.652 2.29 38.762l31.175 39.56-49.453-9.743c-13.888-2.734-28.19 3.534-35.583 15.602l-29.298 47.821c-7.396 12.074-6.475 27.653 2.319 38.798 13.144 16.466 31.132 33.168 27.229 56.316zm169.401-320.344 13.059-21.317 27.557 35.486c4.894 6.202 5.407 14.897 1.278 21.638l-15.431 25.188c-2.005-6.881-5.315-13.39-9.827-19.131l-15.272-20.115c-.028-.037-.057-.074-.086-.111-4.894-6.202-5.408-14.898-1.278-21.638zm-75.991 53.239c4.133-6.746 12.126-10.25 19.893-8.721l64.948 12.796c4.055 7.636 5.663 16.411 4.501 25.065-4.169 6.611-12.076 10.033-19.765 8.52l-63.413-12.453c-7.188-1.412-14.517-1.396-21.581-.045zm-29.298 47.824c4.698-5.994 16.035-8.402 23.169-8.64l42.104 53.361c4.894 6.202 5.407 14.898 1.278 21.639l-12.957 21.088s-7.81-9.333-12.344-15.087l-39.972-50.723c-4.894-6.203-5.407-14.899-1.278-21.638zm-80.869 132.003c4.705-5.998 16.05-8.406 23.191-8.64l21.024 26.336c4.894 6.202 5.407 14.897 1.278 21.638l-15.432 25.191c-4.807-16.479-18.303-29.756-28.783-42.886-4.893-6.203-5.407-14.899-1.278-21.639z"/><path d="m492.611 447.692c-7.224-12.153-21.405-18.608-35.311-16.078l-10.708 1.767 31.555-38.987c8.909-11.008 10.034-26.583 2.799-38.758l-28.669-48.236c-7.236-12.175-21.464-18.627-35.377-16.065l-49.6 9.103 7.695-9.507c5.905-7.296-5.486-17.063-11.66-9.437l-17.947 22.174c-15.765-.168-36.713-11.781-22.313-29.567 16.485-20.394 42.92-43.7 50.749-69.343l15.097 25.4c4.043 6.803 3.415 15.506-1.563 21.656-5.905 7.295 5.487 17.067 11.658 9.438 8.91-11.008 10.035-26.583 2.8-38.758l-28.669-48.235c-14.518-24.427-42.963-14.625-65.185-10.404-11.538 2.118-23.504-.75-32.828-7.87-6.398-4.883-15.111 2.873-10.999 9.793l27.141 45.665c7.182 12.082 21.601 18.602 35.424 16.057l17.435-3.314-32.721 40.48c-8.91 11.008-10.035 26.583-2.8 38.758l28.032 47.165c7.17 12.063 21.574 18.608 35.382 16.065l51.343-9.456-32.827 40.61c-8.909 11.008-10.033 26.583-2.798 38.757l.653 1.099c.002.003.003.006.005.01l27.141 45.665c7.155 12.037 21.536 18.617 35.324 16.075l54.921-9.675c5.086-.895 7.785-6.779 5.146-11.218zm-168.671-234.935c-7.775 1.434-15.728-2.174-19.771-8.977l-15.098-25.403c7.059 1.444 14.41 1.551 21.643.224 15.39-2.924 40.456-13.224 50.275 4.563.973 8.021-.419 16.117-3.912 23.295zm45.37 139.146c-7.784 1.435-15.729-2.175-19.771-8.977l-15.096-25.399c7.052 1.443 14.385 1.552 21.594.229l63.575-11.668c22.52-4.15 23.453 19.404 16.605 33.493zm32.895 55.34 40.631-50.264c4.608-5.701 8.018-12.195 10.119-19.079l15.097 25.4c4.043 6.802 3.414 15.505-1.564 21.657l-41.652 51.463c-8.659.022-17.185-2.655-24.31-7.725-3.91-6.772-3.252-15.36 1.679-21.452zm46.003 77.41c-7.775 1.434-15.728-2.174-19.771-8.977l-15.096-25.4c14.978 3.068 31.732-1.207 46.605-3.897 7.791-1.435 15.728 2.174 19.771 8.977l12.775 21.495z"/></g></svg>