<svg xmlns="http://www.w3.org/2000/svg" viewBox="-49 141 512 512"><path d="M393 305c-16.542 0-30-13.458-30-30s13.458-30 30-30 30 13.458 30 30-13.458 30-30 30zM339 221c-16.542 0-30-13.458-30-30s13.458-30 30-30 30 13.458 30 30-13.458 30-30 30zM138 488c-16.542 0-30-13.458-30-30s13.458-30 30-30 30 13.458 30 30-13.458 30-30 30zM270 511.078c-16.542 0-30-13.458-30-30s13.458-30 30-30 30 13.458 30 30-13.458 30-30 30zM144.135 364c-16.542 0-30-13.458-30-30s13.458-30 30-30 30 13.458 30 30-13.458 30-30 30z"/><path d="M207 633c-61.702 0-119.711-24.028-163.342-67.658C.028 521.712-24 463.702-24 402S.028 282.288 43.658 238.658C87.289 195.028 145.298 171 207 171c7.866 0 15.803.4 23.589 1.191 11.809 1.199 21.147 10.537 22.347 22.346 8.629 84.966 76.562 152.897 161.527 161.527 11.809 1.199 21.146 10.537 22.346 22.347A234.603 234.603 0 0 1 438 402c0 61.702-24.028 119.712-67.658 163.342C326.711 608.972 268.702 633 207 633zm-.599-411.999C106.873 221.327 26 302.397 26 402c0 99.804 81.196 181 181 181 99.603 0 180.673-80.873 180.999-180.401-44.55-8.856-85.958-30.874-118.341-63.257s-54.401-73.79-63.257-118.341z"/></svg>