<?xml version="1.0" encoding="iso-8859-1"?>
<!-- Generator: Adobe Illustrator 19.0.0, SVG Export Plug-In . SVG Version: 6.00 Build 0)  -->
<svg version="1.1" id="Layer_1" xmlns="http://www.w3.org/2000/svg" xmlns:xlink="http://www.w3.org/1999/xlink" x="0px" y="0px"
	 viewBox="-49 141 512 512" style="enable-background:new -49 141 512 512;" xml:space="preserve">
<g>
	<g>
		<path d="M393,305c-16.542,0-30-13.458-30-30s13.458-30,30-30s30,13.458,30,30S409.542,305,393,305z"/>
	</g>
	<g>
		<path d="M339,221c-16.542,0-30-13.458-30-30s13.458-30,30-30s30,13.458,30,30S355.542,221,339,221z"/>
	</g>
	<g>
		<path d="M138,488c-16.542,0-30-13.458-30-30s13.458-30,30-30s30,13.458,30,30S154.542,488,138,488z"/>
	</g>
	<g>
		<path d="M270,511.078c-16.542,0-30-13.458-30-30s13.458-30,30-30s30,13.458,30,30S286.542,511.078,270,511.078z"/>
	</g>
	<g>
		<path d="M144.135,364c-16.542,0-30-13.458-30-30s13.458-30,30-30s30,13.458,30,30S160.677,364,144.135,364z"/>
	</g>
	<g>
		<path d="M207,633c-61.702,0-119.711-24.028-163.342-67.658C0.028,521.712-24,463.702-24,402S0.028,282.288,43.658,238.658
			C87.289,195.028,145.298,171,207,171c7.866,0,15.803,0.4,23.589,1.191c11.809,1.199,21.147,10.537,22.347,22.346
			c8.629,84.966,76.562,152.897,161.527,161.527c11.809,1.199,21.146,10.537,22.346,22.347C437.599,386.196,438,394.133,438,402
			c0,61.702-24.028,119.712-67.658,163.342C326.711,608.972,268.702,633,207,633z M206.401,221.001
			C106.873,221.327,26,302.397,26,402c0,99.804,81.196,181,181,181c99.603,0,180.673-80.873,180.999-180.401
			c-44.55-8.856-85.958-30.874-118.341-63.257S215.257,265.552,206.401,221.001z"/>
	</g>
</g>
</svg>
