<?xml version="1.0" encoding="iso-8859-1"?>
<!-- Generator: Adobe Illustrator 19.0.0, SVG Export Plug-In . SVG Version: 6.00 Build 0)  -->
<svg version="1.1" id="Layer_1" xmlns="http://www.w3.org/2000/svg" xmlns:xlink="http://www.w3.org/1999/xlink" x="0px" y="0px"
	 viewBox="0 0 472 472" style="enable-background:new 0 0 472 472;" xml:space="preserve">
<g>
	<g>
		<path d="M422,144c-16.542,0-30-13.458-30-30s13.458-30,30-30s30,13.458,30,30S438.542,144,422,144z"/>
	</g>
	<g>
		<path d="M368,60c-16.542,0-30-13.458-30-30s13.458-30,30-30s30,13.458,30,30S384.542,60,368,60z"/>
	</g>
	<g>
		<path d="M167,327c-16.542,0-30-13.458-30-30s13.458-30,30-30s30,13.458,30,30S183.542,327,167,327z"/>
	</g>
	<g>
		<path d="M299,350.078c-16.542,0-30-13.458-30-30s13.458-30,30-30s30,13.458,30,30S315.542,350.078,299,350.078z"/>
	</g>
	<g>
		<path d="M173.135,203c-16.542,0-30-13.458-30-30s13.458-30,30-30s30,13.458,30,30S189.677,203,173.135,203z"/>
	</g>
	<g>
		<path d="M236,472c-61.702,0-119.711-24.028-163.342-67.658C29.028,360.712,5,302.702,5,241S29.028,121.288,72.658,77.658
			C116.289,34.028,174.298,10,236,10c7.866,0,15.803,0.4,23.589,1.191c11.809,1.199,21.147,10.537,22.347,22.346
			c8.629,84.966,76.562,152.897,161.527,161.527c11.809,1.199,21.146,10.537,22.346,22.347C466.599,225.196,467,233.133,467,241
			c0,61.702-24.028,119.712-67.658,163.342C355.711,447.972,297.702,472,236,472z M235.401,60.001C135.873,60.327,55,141.397,55,241
			c0,99.804,81.196,181,181,181c99.603,0,180.673-80.873,180.999-180.401c-44.55-8.856-85.958-30.874-118.341-63.257
			C266.275,145.959,244.257,104.552,235.401,60.001z"/>
	</g>
</g>
<g>
</g>
<g>
</g>
<g>
</g>
<g>
</g>
<g>
</g>
<g>
</g>
<g>
</g>
<g>
</g>
<g>
</g>
<g>
</g>
<g>
</g>
<g>
</g>
<g>
</g>
<g>
</g>
<g>
</g>
</svg>
