<?xml version="1.0" encoding="iso-8859-1"?>
<!-- Generator: Adobe Illustrator 19.0.0, SVG Export Plug-In . SVG Version: 6.00 Build 0)  -->
<svg version="1.1" id="Layer_1" xmlns="http://www.w3.org/2000/svg" xmlns:xlink="http://www.w3.org/1999/xlink" x="0px" y="0px"
	 viewBox="-49 141 512 512" style="enable-background:new -49 141 512 512;" xml:space="preserve">
<g>
	<g>
		<path d="M207,653c-68.38,0-132.668-26.629-181.02-74.98C-22.371,529.667-49,465.38-49,397s26.629-132.667,74.98-181.02
			C74.332,167.629,138.62,141,207,141s132.668,26.629,181.02,74.98C436.371,264.333,463,328.62,463,397
			s-26.629,132.667-74.98,181.02C339.668,626.371,275.38,653,207,653z M207,191C93.411,191,1,283.411,1,397s92.411,206,206,206
			s206-92.411,206-206S320.589,191,207,191z"/>
	</g>
	<g>
		<path d="M207,528c-34.991,0-67.889-13.626-92.631-38.369C89.627,464.888,76,431.991,76,397s13.627-67.888,38.369-92.631
			c51.076-51.077,134.186-51.077,185.262,0c9.763,9.763,9.763,25.592,0,35.355c-9.764,9.763-25.592,9.763-35.355,0
			c-31.582-31.582-82.969-31.582-114.551,0C134.426,355.023,126,375.364,126,397s8.426,41.977,23.725,57.275
			C165.023,469.575,185.364,478,207,478s41.977-8.425,57.275-23.724c9.764-9.763,25.592-9.763,35.355,0s9.763,25.592,0,35.355
			C274.889,514.374,241.991,528,207,528z"/>
	</g>
</g>
</svg>
