<svg xmlns="http://www.w3.org/2000/svg" viewBox="0 0 512 512"><path d="M446.5 36h-283c-35.8 0-65 29.2-65 65v33h-33c-35.8 0-65 29.2-65 65v212c0 35.8 29.2 65 65 65h283c35.8 0 65-29.2 65-65v-33h33c35.8 0 65-29.2 65-65V101c0-35.8-29.2-65-65-65zm-283 50h283c8.3 0 15 6.7 15 15v212.5l-55.3-56c-4.7-4.8-11.1-7.4-17.8-7.4-6.7 0-13.1 2.7-17.8 7.5l-25 25.6-95.3-95.7c-4.7-4.7-11.1-7.4-17.7-7.4s-13 2.6-17.7 7.3l-66.3 66.3V101c-.1-8.3 6.6-15 14.9-15zm200 325c0 8.3-6.7 15-15 15h-283c-8.3 0-15-6.7-15-15V199c0-8.3 6.7-15 15-15h33v129.5c0 .8 0 1.5.1 2.3 1.5 34.6 30 62.2 64.9 62.2h200v33z"/><circle cx="361.5" cy="166" r="30"/></svg>