<?xml version="1.0" encoding="iso-8859-1"?>
<!-- Generator: Adobe Illustrator 19.0.0, SVG Export Plug-In . SVG Version: 6.00 Build 0)  -->
<svg version="1.1" id="Layer_1" xmlns="http://www.w3.org/2000/svg" xmlns:xlink="http://www.w3.org/1999/xlink" x="0px" y="0px"
	 viewBox="0 0 512 512" style="enable-background:new 0 0 512 512;" xml:space="preserve">
<g>
	<path d="M491.139,221.501C503.18,219.479,512,209.056,512,196.846V135c0-30.327-24.673-55-55-55H55c-30.327,0-55,24.673-55,55
		v61.846c0,12.21,8.82,22.634,20.862,24.655C37.746,224.335,50,238.844,50,256s-12.254,31.665-29.138,34.499
		C8.82,292.521,0,302.944,0,315.154V377c0,30.327,24.673,55,55,55h402c30.327,0,55-24.673,55-55v-61.846
		c0-12.21-8.82-22.634-20.861-24.655C474.255,287.665,462,273.156,462,256S474.255,224.335,491.139,221.501z M462,178.492
		c-29.912,13.415-50,43.297-50,77.508s20.088,64.093,50,77.508V377c0,2.757-2.243,5-5,5H200v-25c0-13.808-11.193-25-25-25
		s-25,11.192-25,25v25H55c-2.757,0-5-2.243-5-5v-43.492c29.913-13.415,50-43.297,50-77.508s-20.087-64.093-50-77.508V135
		c0-2.757,2.243-5,5-5h95v25c0,13.808,11.193,25,25,25s25-11.192,25-25v-25h257c2.757,0,5,2.243,5,5V178.492z"/>
	<path d="M175,216c-13.807,0-25,11.192-25,25v30c0,13.808,11.193,25,25,25s25-11.192,25-25v-30C200,227.192,188.807,216,175,216z"/>
</g>
<g>
</g>
<g>
</g>
<g>
</g>
<g>
</g>
<g>
</g>
<g>
</g>
<g>
</g>
<g>
</g>
<g>
</g>
<g>
</g>
<g>
</g>
<g>
</g>
<g>
</g>
<g>
</g>
<g>
</g>
</svg>
