<?xml version="1.0" encoding="iso-8859-1"?>
<!-- Generator: Adobe Illustrator 19.0.0, SVG Export Plug-In . SVG Version: 6.00 Build 0)  -->
<svg version="1.1" id="Layer_1" xmlns="http://www.w3.org/2000/svg" xmlns:xlink="http://www.w3.org/1999/xlink" x="0px" y="0px"
	 viewBox="-49 141 512 512" style="enable-background:new -49 141 512 512;" xml:space="preserve">
<g>
	<path d="M442.139,362.501C454.18,360.479,463,350.056,463,337.846V276c0-30.327-24.673-55-55-55H6c-30.327,0-55,24.673-55,55
		v61.846c0,12.21,8.82,22.634,20.862,24.655C-11.254,365.335,1,379.844,1,397s-12.254,31.665-29.138,34.499
		C-40.18,433.521-49,443.944-49,456.154V518c0,30.327,24.673,55,55,55h402c30.327,0,55-24.673,55-55v-61.846
		c0-12.21-8.82-22.634-20.861-24.655C425.255,428.665,413,414.156,413,397S425.255,365.335,442.139,362.501z M413,319.492
		c-29.912,13.415-50,43.297-50,77.508s20.088,64.093,50,77.508V518c0,2.757-2.243,5-5,5H151v-25c0-13.808-11.193-25-25-25
		s-25,11.192-25,25v25H6c-2.757,0-5-2.243-5-5v-43.492C30.913,461.093,51,431.211,51,397s-20.087-64.093-50-77.508V276
		c0-2.757,2.243-5,5-5h95v25c0,13.808,11.193,25,25,25s25-11.192,25-25v-25h257c2.757,0,5,2.243,5,5V319.492z"/>
	<path d="M126,357c-13.807,0-25,11.192-25,25v30c0,13.808,11.193,25,25,25s25-11.192,25-25v-30C151,368.192,139.807,357,126,357z"/>
</g>
</svg>
