<?xml version="1.0" encoding="utf-8"?>
<!-- Generator: Adobe Illustrator 24.0.1, SVG Export Plug-In . SVG Version: 6.00 Build 0)  -->
<svg version="1.1" id="Capa_1" xmlns="http://www.w3.org/2000/svg" xmlns:xlink="http://www.w3.org/1999/xlink" x="0px" y="0px"
	 viewBox="0 0 512 512" style="enable-background:new 0 0 512 512;" xml:space="preserve">
<path d="M437,90H208.3c-6.8-28.6-32.6-50-63.3-50H75c-35.8,0-65,29.2-65,65v302c0,35.8,29.2,65,65,65h362c35.8,0,65-29.2,65-65V155
	C502,119.2,472.8,90,437,90z M334,308h-53v53c0,13.8-11.2,25-25,25s-25-11.2-25-25v-53h-53c-13.8,0-25-11.2-25-25s11.2-25,25-25h53
	v-53c0-13.8,11.2-25,25-25s25,11.2,25,25v53h53c13.8,0,25,11.2,25,25S347.8,308,334,308z"/>
</svg>
