<?xml version="1.0" encoding="iso-8859-1"?>
<!-- Generator: Adobe Illustrator 19.0.0, SVG Export Plug-In . SVG Version: 6.00 Build 0)  -->
<svg version="1.1" id="Layer_1" xmlns="http://www.w3.org/2000/svg" xmlns:xlink="http://www.w3.org/1999/xlink" x="0px" y="0px"
	 viewBox="-49 141 512 512" style="enable-background:new -49 141 512 512;" xml:space="preserve">
<g>
	<path d="M388,191H26c-35.841,0-65,29.159-65,65v282c0,35.841,29.159,65,65,65h362c35.841,0,65-29.159,65-65V256
		C453,220.159,423.841,191,388,191z M26,241h362c8.271,0,15,6.729,15,15v35H11v-35C11,247.729,17.729,241,26,241z M388,553H26
		c-8.271,0-15-6.729-15-15V341h392v197C403,546.271,396.271,553,388,553z"/>
	<path d="M81,453c-16.542,0-30,13.458-30,30s13.458,30,30,30s30-13.458,30-30S97.542,453,81,453z"/>
	<path d="M141,453c-16.542,0-30,13.458-30,30s13.458,30,30,30s30-13.458,30-30S157.542,453,141,453z"/>
</g>
</svg>
