<svg xmlns="http://www.w3.org/2000/svg" viewBox="-49 141 512 512"><path d="M388 191H26c-35.841 0-65 29.159-65 65v282c0 35.841 29.159 65 65 65h362c35.841 0 65-29.159 65-65V256c0-35.841-29.159-65-65-65zM26 241h362c8.271 0 15 6.729 15 15v35H11v-35c0-8.271 6.729-15 15-15zm362 312H26c-8.271 0-15-6.729-15-15V341h392v197c0 8.271-6.729 15-15 15z"/><path d="M81 453c-16.542 0-30 13.458-30 30s13.458 30 30 30 30-13.458 30-30-13.458-30-30-30zM141 453c-16.542 0-30 13.458-30 30s13.458 30 30 30 30-13.458 30-30-13.458-30-30-30z"/></svg>