<svg xmlns="http://www.w3.org/2000/svg" xml:space="preserve" style="enable-background:new 0 0 512 512" viewBox="0 0 512 512"><path d="M357.391 234.756H296.96v-58.435a8.651 8.651 0 0 0-8.652-8.652H223.69a8.652 8.652 0 0 0-8.652 8.652v58.435h-60.432a8.652 8.652 0 0 0-8.652 8.652v64.617a8.652 8.652 0 0 0 8.652 8.652h60.432v166.955a8.652 8.652 0 0 0 8.652 8.652h64.618a8.652 8.652 0 0 0 8.652-8.652V379.326c0-4.778-3.872-8.652-8.652-8.652s-8.652 3.874-8.652 8.652v95.654h-47.315V308.025a8.652 8.652 0 0 0-8.652-8.652h-60.432V252.06h60.432a8.652 8.652 0 0 0 8.652-8.652v-58.435h47.315v58.435a8.651 8.651 0 0 0 8.652 8.652h60.431v47.314h-60.431a8.652 8.652 0 0 0-8.652 8.652v45.153c0 4.778 3.872 8.652 8.652 8.652s8.652-3.874 8.652-8.652v-36.501h60.431a8.652 8.652 0 0 0 8.652-8.652v-64.617a8.652 8.652 0 0 0-8.652-8.653zM257.215 19.717a8.652 8.652 0 0 0-8.652 8.652v89.077a8.652 8.652 0 0 0 17.304 0V28.369a8.65 8.65 0 0 0-8.652-8.652zM503.348 268.28h-35.857c-4.779 0-8.652 3.874-8.652 8.652s3.873 8.652 8.652 8.652h35.857a8.652 8.652 0 1 0 0-17.304zM443.651 268.28h-29.38c-4.779 0-8.652 3.874-8.652 8.652s3.873 8.652 8.652 8.652h29.38c4.779 0 8.652-3.874 8.652-8.652s-3.873-8.652-8.652-8.652zM437.88 95.557a8.652 8.652 0 0 0-12.236 0l-62.987 62.987a8.65 8.65 0 0 0 0 12.235 8.622 8.622 0 0 0 6.117 2.534 8.626 8.626 0 0 0 6.119-2.534l62.987-62.987a8.65 8.65 0 0 0 0-12.235zM123.676 129.438l-35.6-35.6a8.65 8.65 0 0 0-12.235 0 8.65 8.65 0 0 0 0 12.235l35.6 35.6c1.689 1.69 3.904 2.534 6.117 2.534s4.429-.844 6.117-2.534a8.65 8.65 0 0 0 .001-12.235zM151.062 156.826l-8.93-8.93a8.65 8.65 0 0 0-12.235 0 8.65 8.65 0 0 0 0 12.235l8.93 8.93c1.689 1.69 3.904 2.534 6.117 2.534s4.429-.844 6.117-2.534a8.65 8.65 0 0 0 .001-12.235zM97.729 265.85H8.652a8.652 8.652 0 0 0 0 17.304h89.077a8.652 8.652 0 0 0 0-17.304zM121.016 408.982a8.652 8.652 0 0 0-12.235 0l-34.659 34.659a8.65 8.65 0 0 0 0 12.235c1.689 1.69 3.904 2.534 6.117 2.534s4.429-.844 6.117-2.534l34.659-34.659a8.65 8.65 0 0 0 .001-12.235zM149.343 380.655c-3.377-3.379-8.855-3.379-12.235 0l-6.796 6.795a8.652 8.652 0 0 0 0 12.236c1.689 1.69 3.904 2.534 6.117 2.534s4.429-.844 6.117-2.534l6.796-6.794a8.652 8.652 0 0 0 .001-12.237zM436.162 445.36l-62.988-62.987a8.653 8.653 0 0 0-12.236 12.235l62.987 62.987a8.624 8.624 0 0 0 6.118 2.534 8.65 8.65 0 0 0 6.119-14.769zM204.553 125.721l-21.025-50.736a8.652 8.652 0 0 0-15.986 6.624l21.025 50.736a8.656 8.656 0 0 0 7.997 5.342 8.653 8.653 0 0 0 7.989-11.966zM461.421 191.95a8.651 8.651 0 0 0-11.305-4.682l-50.735 21.012a8.653 8.653 0 0 0 3.314 16.647 8.612 8.612 0 0 0 3.307-.661l50.735-21.012a8.653 8.653 0 0 0 4.684-11.304zM342.023 71.221a8.654 8.654 0 0 0-11.304 4.681l-21.025 50.748c-1.828 4.415.268 9.477 4.682 11.305a8.608 8.608 0 0 0 3.307.661 8.656 8.656 0 0 0 7.997-5.342l21.025-50.748a8.65 8.65 0 0 0-4.682-11.305zM113.547 206.033 62.811 185.02a8.654 8.654 0 0 0-11.304 4.682 8.653 8.653 0 0 0 4.683 11.304l50.736 21.013a8.608 8.608 0 0 0 3.307.661 8.656 8.656 0 0 0 7.997-5.343 8.65 8.65 0 0 0-4.683-11.304zM117.302 331.854a8.652 8.652 0 0 0-11.305-4.682l-50.723 21.012a8.65 8.65 0 0 0-4.682 11.304 8.656 8.656 0 0 0 7.997 5.343 8.617 8.617 0 0 0 3.308-.661l50.723-21.012a8.652 8.652 0 0 0 4.682-11.304zM455.811 350.434l-50.735-21.025c-4.411-1.827-9.475.265-11.305 4.68a8.65 8.65 0 0 0 4.681 11.305l50.735 21.025a8.613 8.613 0 0 0 3.308.661 8.651 8.651 0 0 0 3.316-16.646z"/></svg>