<svg xmlns="http://www.w3.org/2000/svg" viewBox="0 0 512 512"><path d="M487 407h-31V120c0-8.4-1.6-16.5-4.6-23.9l53.3-53.5c9.7-9.8 9.7-25.6-.1-35.4-9.8-9.7-25.6-9.7-35.4.1l-52.7 52.9c-7.9-3.4-16.5-5.2-25.6-5.2H106V25c0-13.8-11.2-25-25-25S56 11.2 56 25v30H25C11.2 55 0 66.2 0 80s11.2 25 25 25h31v287c0 35.8 29.2 65 65 65h285v30c0 13.8 11.2 25 25 25s25-11.2 25-25v-30h31c13.8 0 25-11.2 25-25s-11.2-25-25-25zm-366 0c-8.3 0-15-6.7-15-15V105h266L163.3 314.4c-9.7 9.8-9.7 25.6.1 35.4 4.9 4.9 11.3 7.3 17.6 7.3 6.4 0 12.8-2.5 17.7-7.4l207.3-208V407H121z"/></svg>