<?xml version="1.0" encoding="iso-8859-1"?>
<!-- Generator: Adobe Illustrator 19.0.0, SVG Export Plug-In . SVG Version: 6.00 Build 0)  -->
<svg version="1.1" id="Layer_1" xmlns="http://www.w3.org/2000/svg" xmlns:xlink="http://www.w3.org/1999/xlink" x="0px" y="0px"
	 viewBox="0 0 341.328 341.328" style="enable-background:new 0 0 341.328 341.328;" xml:space="preserve">
<path d="M206.019,170.664L206.019,170.664L334.006,42.677c9.763-9.763,9.763-25.592,0-35.355c-9.764-9.763-25.592-9.763-35.355,0
	L170.664,135.308L42.678,7.322c-9.764-9.763-25.592-9.763-35.355,0c-9.763,9.763-9.763,25.592,0,35.355l127.986,127.986v0
	L7.322,298.65c-9.763,9.763-9.763,25.592,0,35.355c9.764,9.763,25.592,9.763,35.355,0l127.986-127.986L298.65,334.006
	c9.764,9.763,25.592,9.763,35.355,0c9.763-9.763,9.763-25.592,0-35.355L206.019,170.664z"/>
<g>
</g>
<g>
</g>
<g>
</g>
<g>
</g>
<g>
</g>
<g>
</g>
<g>
</g>
<g>
</g>
<g>
</g>
<g>
</g>
<g>
</g>
<g>
</g>
<g>
</g>
<g>
</g>
<g>
</g>
</svg>
