<?xml version="1.0" encoding="iso-8859-1"?>
<!-- Generator: Adobe Illustrator 19.0.0, SVG Export Plug-In . SVG Version: 6.00 Build 0)  -->
<svg version="1.1" id="Layer_1" xmlns="http://www.w3.org/2000/svg" xmlns:xlink="http://www.w3.org/1999/xlink" x="0px" y="0px"
	 viewBox="0 0 191.422 191.422" style="enable-background:new 0 0 191.422 191.422;" xml:space="preserve">
<path d="M131.066,95.711L131.066,95.711L131.066,95.711L131.066,95.711L131.066,95.711l53.033-53.033
	c9.763-9.763,9.763-25.592,0-35.355c-9.764-9.763-25.593-9.763-35.355,0L95.711,60.355L42.678,7.322
	c-9.763-9.763-25.592-9.763-35.355,0c-9.763,9.763-9.763,25.592,0,35.355l53.033,53.033h0h0l0,0h0L7.323,148.744
	c-9.763,9.763-9.763,25.592,0,35.355c9.763,9.763,25.592,9.763,35.355,0l53.033-53.033l53.033,53.033
	c9.763,9.763,25.592,9.763,35.355,0c9.763-9.763,9.763-25.592,0-35.355L131.066,95.711z"/>
<g>
</g>
<g>
</g>
<g>
</g>
<g>
</g>
<g>
</g>
<g>
</g>
<g>
</g>
<g>
</g>
<g>
</g>
<g>
</g>
<g>
</g>
<g>
</g>
<g>
</g>
<g>
</g>
<g>
</g>
</svg>
