<?xml version="1.0" encoding="utf-8"?>
<!-- Generator: Adobe Illustrator 19.0.0, SVG Export Plug-In . SVG Version: 6.00 Build 0)  -->
<svg version="1.1" id="Layer_1" xmlns="http://www.w3.org/2000/svg" xmlns:xlink="http://www.w3.org/1999/xlink" x="0px" y="0px"
	 viewBox="-49 141 512 512" style="enable-background:new -49 141 512 512;" xml:space="preserve">
<path d="M243.1,397.4L243.1,397.4L243.1,397.4L243.1,397.4L243.1,397.4l53-53c9.8-9.8,9.8-25.6,0-35.4c-9.8-9.8-25.6-9.8-35.4,0
	l-53,53l-53-53c-9.8-9.8-25.6-9.8-35.4,0s-9.8,25.6,0,35.4l53,53l0,0l0,0l0,0l0,0l-53,53c-9.8,9.8-9.8,25.6,0,35.4s25.6,9.8,35.4,0
	l53-53l53,53c9.8,9.8,25.6,9.8,35.4,0c9.8-9.8,9.8-25.6,0-35.4L243.1,397.4z"/>
</svg>
