<?xml version="1.0" encoding="iso-8859-1"?>
<!-- Generator: Adobe Illustrator 19.0.0, SVG Export Plug-In . SVG Version: 6.00 Build 0)  -->
<svg version="1.1" id="Layer_1" xmlns="http://www.w3.org/2000/svg" xmlns:xlink="http://www.w3.org/1999/xlink" x="0px" y="0px"
	 viewBox="-49 141 512 512" style="enable-background:new -49 141 512 512;" xml:space="preserve">
<path id="XMLID_9_" d="M242.355,397L242.355,397l127.987-127.987c9.763-9.763,9.763-25.592,0-35.355
	c-9.764-9.763-25.592-9.763-35.355,0L207,361.644L79.013,233.658c-9.764-9.763-25.592-9.763-35.355,0s-9.763,25.592,0,35.355
	l127.986,127.986l0,0L43.658,524.986c-9.763,9.763-9.763,25.592,0,35.355c9.764,9.763,25.592,9.763,35.355,0l127.986-127.986
	l127.987,127.987c9.764,9.763,25.592,9.763,35.355,0s9.763-25.592,0-35.355L242.355,397z"/>
</svg>
