<?xml version="1.0" encoding="iso-8859-1"?>
<!-- Generator: Adobe Illustrator 19.0.0, SVG Export Plug-In . SVG Version: 6.00 Build 0)  -->
<svg version="1.1" id="Layer_1" xmlns="http://www.w3.org/2000/svg" xmlns:xlink="http://www.w3.org/1999/xlink" x="0px" y="0px"
	 viewBox="-49 141 512 512" style="enable-background:new -49 141 512 512;" xml:space="preserve">
<path id="XMLID_16_" d="M242.355,397L242.355,397L242.355,397L242.355,397L242.355,397l53.033-53.033
	c9.763-9.763,9.763-25.592,0-35.355c-9.764-9.763-25.593-9.763-35.355,0L207,361.644l-53.033-53.033
	c-9.763-9.763-25.592-9.763-35.355,0s-9.763,25.592,0,35.355L171.646,397l0,0l0,0l0,0l0,0l-53.034,53.034
	c-9.763,9.763-9.763,25.592,0,35.355s25.592,9.763,35.355,0L207,432.356l53.033,53.033c9.763,9.763,25.592,9.763,35.355,0
	s9.763-25.592,0-35.355L242.355,397z"/>
</svg>
