<svg xmlns="http://www.w3.org/2000/svg" viewBox="-49 141 512 512"><path d="M428 216a24.911 24.911 0 0 0-16.773 6.462l-93.73 84.821-93.729-84.82c-9.523-8.617-24.026-8.618-33.55.001l-93.723 84.818s-94.847-85.773-94.957-85.86A24.887 24.887 0 0 0-14 216c-13.808 0-25 11.193-25 25v272c0 35.841 29.159 65 65 65h362c35.841 0 65-29.159 65-65V241c0-13.807-11.192-25-25-25zm-40 312H26c-8.271 0-15-6.729-15-15V297.344l68.72 62.192c9.521 8.617 24.027 8.618 33.551 0l93.723-84.819 93.729 84.82c4.761 4.309 10.768 6.463 16.774 6.463s12.014-2.154 16.774-6.464L403 297.34V513c0 8.272-6.729 15-15 15z"/></svg>