<?xml version="1.0" encoding="iso-8859-1"?>
<!-- Generator: Adobe Illustrator 19.0.0, SVG Export Plug-In . SVG Version: 6.00 Build 0)  -->
<svg version="1.1" id="Layer_1" xmlns="http://www.w3.org/2000/svg" xmlns:xlink="http://www.w3.org/1999/xlink" x="0px" y="0px"
	 viewBox="-49 141 512 512" style="enable-background:new -49 141 512 512;" xml:space="preserve">
<path d="M428,216c-6.455,0-12.337,2.447-16.773,6.462c-0.001,0-93.73,84.821-93.73,84.821l-93.729-84.82
	c-9.523-8.617-24.026-8.618-33.55,0.001l-93.723,84.818c0,0-94.847-85.773-94.957-85.86C-2.729,218.031-8.126,216-14,216
	c-13.808,0-25,11.193-25,25v272c0,35.841,29.159,65,65,65h362c35.841,0,65-29.159,65-65V241C453,227.193,441.808,216,428,216z
	 M388,528H26c-8.271,0-15-6.729-15-15V297.344l68.72,62.192c9.521,8.617,24.027,8.618,33.551,0l93.723-84.819l93.729,84.82
	c4.761,4.309,10.768,6.463,16.774,6.463s12.014-2.154,16.774-6.464L403,297.34V513C403,521.272,396.271,528,388,528z"/>
</svg>
