<?xml version="1.0" encoding="utf-8"?>
<!-- Generator: Adobe Illustrator 26.3.1, SVG Export Plug-In . SVG Version: 6.00 Build 0)  -->
<svg version="1.1" id="Capa_1" xmlns="http://www.w3.org/2000/svg" xmlns:xlink="http://www.w3.org/1999/xlink" x="0px" y="0px"
	 viewBox="0 0 512 512" style="enable-background:new 0 0 512 512;" xml:space="preserve">
<g>
	<g>
		<path d="M437,473H75c-35.8,0-65-29.2-65-65V72c0-10.3,6.3-19.5,15.8-23.3c9.6-3.8,20.5-1.3,27.5,6.2l98.2,105.5l83-141.1
			C238.9,11.7,247.1,7,256,7c8.9,0,17.1,4.7,21.5,12.3l83,141.1L458.7,55c7-7.5,17.9-10,27.5-6.2c9.6,3.8,15.8,13,15.8,23.3v336
			C502,443.8,472.8,473,437,473z M60,135.6V408c0,8.3,6.7,15,15,15h362c8.3,0,15-6.7,15-15V135.6L374.3,219
			c-5.4,5.8-13.2,8.7-21,7.8c-7.8-0.9-14.8-5.4-18.8-12.2L256,81.3l-78.4,133.4c-4,6.8-11,11.3-18.8,12.2c-7.9,0.9-15.6-2-21-7.8
			L60,135.6z"/>
	</g>
</g>
</svg>
