<?xml version="1.0" encoding="utf-8"?>
<!-- Generator: Adobe Illustrator 26.3.1, SVG Export Plug-In . SVG Version: 6.00 Build 0)  -->
<svg version="1.1" id="Capa_1" xmlns="http://www.w3.org/2000/svg" xmlns:xlink="http://www.w3.org/1999/xlink" x="0px" y="0px"
	 viewBox="0 0 512 512" style="enable-background:new 0 0 512 512;" xml:space="preserve">
<path d="M486.2,50.2c-9.6-3.8-20.5-1.3-27.5,6.2l-98.2,125.5l-83-161.1C273,13.2,264.9,8.5,256,8.5c-8.9,0-17.1,4.7-21.5,12.3
	l-83,161.1L53.3,56.5c-7-7.5-17.9-10-27.5-6.2C16.3,54,10,63.2,10,73.5v266v12v55c0,35.8,29.2,65,65,65h362c35.8,0,65-29.2,65-65
	v-55v-12v-266C502,63.2,495.7,54,486.2,50.2z"/>
</svg>
