<?xml version="1.0" encoding="iso-8859-1"?>
<!-- Generator: Adobe Illustrator 19.0.0, SVG Export Plug-In . SVG Version: 6.00 Build 0)  -->
<svg version="1.1" id="Layer_1" xmlns="http://www.w3.org/2000/svg" xmlns:xlink="http://www.w3.org/1999/xlink" x="0px" y="0px"
	 viewBox="0 0 492 492" style="enable-background:new 0 0 492 492;" xml:space="preserve">
<path d="M467,65c-6.455,0-12.337,2.447-16.773,6.462c-0.001,0-93.73,84.821-93.73,84.821l-93.729-84.82
	c-9.523-8.617-24.026-8.618-33.55,0.001l-93.723,84.818c0,0-94.847-85.773-94.957-85.86C36.271,67.031,30.874,65,25,65
	C11.192,65,0,76.193,0,90v272c0,35.841,29.159,65,65,65h362c35.841,0,65-29.159,65-65V90C492,76.193,480.808,65,467,65z M427,377H65
	c-8.271,0-15-6.729-15-15V146.344l68.72,62.192c9.521,8.617,24.027,8.618,33.551,0l93.723-84.819l93.729,84.82
	c4.761,4.309,10.768,6.463,16.774,6.463s12.014-2.154,16.774-6.464L442,146.34V362C442,370.272,435.271,377,427,377z"/>
<g>
</g>
<g>
</g>
<g>
</g>
<g>
</g>
<g>
</g>
<g>
</g>
<g>
</g>
<g>
</g>
<g>
</g>
<g>
</g>
<g>
</g>
<g>
</g>
<g>
</g>
<g>
</g>
<g>
</g>
</svg>
