<svg xmlns="http://www.w3.org/2000/svg" width="512" height="513" fill="none"><path fill="#000" d="M504.688 344.692 345.092 504.688c-4.9 4.899-11.3 7.399-17.7 7.399-6.4 0-12.8-2.4-17.6-7.299L209.695 403.99c-9.8-9.7-9.8-25.599-.1-35.399 9.7-9.8 25.599-9.8 35.399-.1l82.398 83.098 141.896-142.297c9.8-9.799 25.6-9.799 35.4-.1 9.699 9.9 9.799 25.7 0 35.5Zm-330.492 94.497c-29.1-29.199-29.2-76.598-.1-105.897 29.199-29.299 76.798-29.399 106.097-.2l.2.2 46.999 47.399 106.397-106.698c8-8.1 17.6-14.099 28.1-17.799V64.998c0-10.3-5.9-19.5-14.8-23.199-9-3.8-19.2-1.3-25.799 6.2l-91.998 125.597L251.194 12.3c-4.2-7.6-11.8-12.3-20.2-12.3-8.399 0-16.099 4.7-20.199 12.3l-78.198 160.696L40.599 47.899c-6.6-7.5-16.8-10-25.8-6.2C5.9 45.399 0 54.599 0 64.899V389.79c0 39.899 32.3 72.199 72.198 72.199h124.697l-22.699-22.8Z"/></svg>