<svg id="Capa_1" enable-background="new 0 0 511.978 511.978" height="512" viewBox="0 0 511.978 511.978" width="512" xmlns="http://www.w3.org/2000/svg"><path d="m86.27 361.144c-4.261.121-8.266 1.847-11.279 4.86l-71.237 71.235c-3.513 3.514-4.512 8.733-2.545 13.296s6.423 7.421 11.413 7.281l31.822-.898-8.48 8.48c-2.929 2.929-2.929 7.678 0 10.606 2.868 2.867 7.733 2.873 10.607 0l8.479-8.479-.897 31.822c-.14 4.967 2.718 9.447 7.282 11.414 4.476 1.928 9.847.9 13.296-2.548l28.486-28.486c.006-.006.011-.012.017-.017l42.73-42.73c3.015-3.014 4.74-7.02 4.86-11.28l1.427-55.375 71.187-71.187 174.038 174.032c-5.148 11.311-1.882 24.959 7.789 32.751 5.068 4.077 11.153 6.059 17.201 6.058 8.041-.001 16.017-3.505 21.437-10.242 2.638-3.278 64.653-81.373 67.936-176.64.143-4.14-3.097-7.611-7.236-7.754-4.163-.147-7.61 3.098-7.754 7.237-3.113 90.329-62.121 164.632-64.633 167.753-4.313 5.361-12.185 6.215-17.544 1.905-5.289-4.266-6.146-12.272-1.894-17.567.187-.234 18.845-23.843 35.049-59.154 21.115-46.012 28.564-91.259 21.545-130.849-9.244-52.144-43.17-96.75-100.822-132.642l18.081-18.081c61.053 39.352 97.172 88.657 107.366 146.633.616 3.498 1.145 7.087 1.571 10.667.49 4.113 4.225 7.05 8.335 6.56 4.113-.49 7.05-4.222 6.56-8.335-.459-3.855-1.029-7.722-1.692-11.491-10.795-61.391-48.228-113.46-111.294-154.879l30.256-30.256c2.372 21.005 20.24 37.385 41.868 37.385 23.238 0 42.143-18.906 42.143-42.144v-78.765c0-6.118-4.978-11.095-11.096-11.095h-78.765c-23.238 0-42.144 18.906-42.144 42.144 0 21.628 16.38 39.495 37.385 41.868l-30.256 30.256c-41.417-63.07-93.486-100.503-154.879-111.299-114.512-20.136-217.432 61.389-221.756 64.869-12.545 10.091-13.554 29.47-2.181 40.851 8.248 8.247 20.529 10.201 30.733 5.575l61.639 61.637c1.464 1.465 3.384 2.197 5.303 2.197s3.839-.732 5.304-2.197c2.929-2.929 2.929-7.678-.001-10.606l-59.58-59.578c22.318-15.628 96.161-61.889 171.231-48.579 48.648 8.625 90.489 41.247 124.368 96.952l-44.299 44.299c-2.929 2.929-2.929 7.678 0 10.607 1.465 1.464 3.385 2.197 5.304 2.197s3.839-.732 5.304-2.197l44.299-44.3c55.703 33.879 88.323 75.719 96.948 124.365 13.311 75.07-32.962 148.928-48.573 171.225l-171.986-171.98 56.22-56.221c2.929-2.929 2.929-7.678 0-10.606-2.93-2.929-7.678-2.929-10.607 0l-56.22 56.22-89.319-89.314c-2.927-2.929-7.676-2.929-10.606 0-2.929 2.929-2.929 7.678.001 10.606l89.318 89.314-71.191 71.191zm308.472-318.776c0-14.967 12.177-27.143 27.144-27.143h74.86v74.859c0 14.967-12.177 27.144-27.145 27.144-14.967 0-27.144-12.177-27.144-27.144v-13.067c.004-4.085-3.415-7.505-7.5-7.505h-13.071c-14.967-.001-27.144-12.177-27.144-27.144zm-169.442.225c-96.535-17.116-189.1 55.872-190.022 56.611-4.981 3.983-12.126 3.597-16.617-.895-5.146-5.153-4.719-13.979.976-18.56 4.107-3.306 101.852-80.759 209.756-61.782 57.976 10.195 107.281 46.315 146.633 107.371l-18.081 18.081c-35.893-57.655-80.5-91.581-132.645-100.826zm-139.702 334.018c.292-.293.682-.46 1.096-.472l39.65-1.119-20.264 20.264-46.782 7.627zm-27.214 64.913c-.112 0-.224.002-.336.005l-38.455 1.085 21.546-21.545 46.783-7.627-28.169 28.168c-.454-.052-.91-.086-1.369-.086zm10.972 50.852 1.085-38.454c.016-.57-.023-1.136-.088-1.698l28.176-28.176-7.628 46.782zm66.475-67.098c-.012.414-.179.802-.473 1.095l-26.299 26.299 7.627-46.782 20.263-20.263z"/></svg>