<svg xmlns="http://www.w3.org/2000/svg" width="512" height="512" viewBox="0 0 511.978 511.978"><path d="M86.27 361.144a16.553 16.553 0 0 0-11.279 4.86L3.754 437.239c-3.513 3.514-4.512 8.733-2.545 13.296s6.423 7.421 11.413 7.281l31.822-.898-8.48 8.48a7.5 7.5 0 0 0 0 10.606c2.868 2.867 7.733 2.873 10.607 0l8.479-8.479-.897 31.822a11.998 11.998 0 0 0 7.282 11.414c4.476 1.928 9.847.9 13.296-2.548l28.486-28.486.017-.017 42.73-42.73a16.546 16.546 0 0 0 4.86-11.28l1.427-55.375 71.187-71.187L397.476 473.17c-5.148 11.311-1.882 24.959 7.789 32.751a27.346 27.346 0 0 0 17.201 6.058c8.041-.001 16.017-3.505 21.437-10.242 2.638-3.278 64.653-81.373 67.936-176.64a7.5 7.5 0 0 0-7.236-7.754 7.484 7.484 0 0 0-7.754 7.237c-3.113 90.329-62.121 164.632-64.633 167.753-4.313 5.361-12.185 6.215-17.544 1.905-5.289-4.266-6.146-12.272-1.894-17.567.187-.234 18.845-23.843 35.049-59.154 21.115-46.012 28.564-91.259 21.545-130.849-9.244-52.144-43.17-96.75-100.822-132.642l18.081-18.081c61.053 39.352 97.172 88.657 107.366 146.633a193.867 193.867 0 0 1 1.571 10.667 7.5 7.5 0 0 0 14.895-1.775 209.826 209.826 0 0 0-1.692-11.491c-10.795-61.391-48.228-113.46-111.294-154.879l30.256-30.256c2.372 21.005 20.24 37.385 41.868 37.385 23.238 0 42.143-18.906 42.143-42.144V11.32c0-6.118-4.978-11.095-11.096-11.095h-78.765c-23.238 0-42.144 18.906-42.144 42.144 0 21.628 16.38 39.495 37.385 41.868l-30.256 30.256C345.451 51.423 293.382 13.99 231.989 3.194 117.477-16.942 14.557 64.583 10.233 68.063c-12.545 10.091-13.554 29.47-2.181 40.851 8.248 8.247 20.529 10.201 30.733 5.575l61.639 61.637c1.464 1.465 3.384 2.197 5.303 2.197s3.839-.732 5.304-2.197a7.498 7.498 0 0 0-.001-10.606l-59.58-59.578c22.318-15.628 96.161-61.889 171.231-48.579 48.648 8.625 90.489 41.247 124.368 96.952l-44.299 44.299a7.5 7.5 0 1 0 10.608 10.607l44.299-44.3c55.703 33.879 88.323 75.719 96.948 124.365 13.311 75.07-32.962 148.928-48.573 171.225l-171.986-171.98 56.22-56.221a7.5 7.5 0 0 0-10.607-10.606l-56.22 56.22-89.319-89.314a7.5 7.5 0 1 0-10.605 10.606l89.318 89.314-71.191 71.191zM394.742 42.368c0-14.967 12.177-27.143 27.144-27.143h74.86v74.859c0 14.967-12.177 27.144-27.145 27.144-14.967 0-27.144-12.177-27.144-27.144V77.017c.004-4.085-3.415-7.505-7.5-7.505h-13.071c-14.967-.001-27.144-12.177-27.144-27.144zm-169.442.225C128.765 25.477 36.2 98.465 35.278 99.204c-4.981 3.983-12.126 3.597-16.617-.895-5.146-5.153-4.719-13.979.976-18.56 4.107-3.306 101.852-80.759 209.756-61.782 57.976 10.195 107.281 46.315 146.633 107.371l-18.081 18.081c-35.893-57.655-80.5-91.581-132.645-100.826zM85.598 376.611c.292-.293.682-.46 1.096-.472l39.65-1.119-20.264 20.264-46.782 7.627zm-27.214 64.913c-.112 0-.224.002-.336.005l-38.455 1.085 21.546-21.545 46.783-7.627-28.169 28.168c-.454-.052-.91-.086-1.369-.086zm10.972 50.852 1.085-38.454c.016-.57-.023-1.136-.088-1.698l28.176-28.176-7.628 46.782zm66.475-67.098a1.603 1.603 0 0 1-.473 1.095l-26.299 26.299 7.627-46.782 20.263-20.263z"/></svg>