<?xml version="1.0" encoding="utf-8"?>
<!-- Generator: Adobe Illustrator 24.0.1, SVG Export Plug-In . SVG Version: 6.00 Build 0)  -->
<svg version="1.1" id="Capa_1" xmlns="http://www.w3.org/2000/svg" xmlns:xlink="http://www.w3.org/1999/xlink" x="0px" y="0px"
	 viewBox="0 0 512 512" style="enable-background:new 0 0 512 512;" xml:space="preserve">
<g>
	<path d="M436.8,89.7C388.5,41.4,324.3,14.8,256,14.8c-68.3,0-132.5,26.6-180.8,74.9C26.9,138,0.3,202.2,0.3,270.5
		c0,92.7,50.3,178.3,131.3,223.5c3.7,2.1,7.9,3.2,12.2,3.2h224.4c4.3,0,8.5-1.1,12.2-3.2c81-45.2,131.3-130.8,131.3-223.5
		C511.7,202.2,485.1,138,436.8,89.7z M361.5,447.2h-211C88.5,410.1,50.3,343,50.3,270.5c0-113.4,92.3-205.7,205.7-205.7
		c113.4,0,205.7,92.3,205.7,205.7C461.7,343,423.5,410.1,361.5,447.2z"/>
	<path d="M364.5,197.4c9.8-9.8,9.8-25.6,0-35.4c-9.8-9.8-25.6-9.8-35.4,0l-60.2,60.2c-4.1-1.1-8.5-1.7-12.9-1.7
		c-27.6,0-50,22.4-50,50s22.4,50,50,50c27.6,0,50-22.4,50-50c0-4.5-0.6-8.8-1.7-12.9L364.5,197.4z"/>
	<path d="M409.4,269c-0.2-13.8-11.6-24.8-25.4-24.6c-13.8,0.2-24.8,11.6-24.6,25.4c0.5,30.2-13.8,61-37.3,80.2
		c-10.7,8.8-12.2,24.5-3.4,35.2c4.9,6,12.1,9.1,19.3,9.1c5.6,0,11.2-1.9,15.9-5.7C388.8,360,410.1,314.1,409.4,269z"/>
	<path d="M190,350.1c-1.5-1.2-3-2.6-4.4-3.9c-12-11.1-21.2-25.1-26.8-40.3c-5.8-15.9-7.6-33.3-5.1-50.2c2.3-16.2,8.6-31.9,18.2-45.3
		c9.5-13.2,22.1-24.2,36.5-31.6c15-7.8,32.1-11.9,48.3-11.6c0.2,0,0.3,0,0.5,0c13.6,0,24.7-10.9,25-24.5
		c0.3-13.8-10.7-25.2-24.5-25.5c-24.7-0.5-49.8,5.5-72.4,17.2c-21.3,11.1-40,27.3-54,46.9c-14.2,19.9-23.6,43.1-27.1,67.3
		c-3.6,25.1-1,50.8,7.6,74.5c8.2,22.6,22,43.3,39.7,59.8c2.1,2,4.4,3.9,6.6,5.8c4.7,3.9,10.3,5.8,16,5.8c7.2,0,14.3-3.1,19.2-9
		C202.1,374.7,200.6,359,190,350.1z"/>
</g>
</svg>
