<svg width="14" height="14" viewBox="0 0 14 14" fill="none" xmlns="http://www.w3.org/2000/svg">
<path d="M13.9418 6.67174C13.7126 4.9074 12.8202 3.29654 11.4459 2.16656C10.0716 1.03659 8.31866 0.472313 6.54329 0.588418C4.76792 0.704523 3.10337 1.4923 1.88798 2.79163C0.672591 4.09096 -0.00243577 5.80433 0.000104233 7.58349C-0.00325833 8.53579 0.189721 9.47856 0.566996 10.3529C0.944271 11.2273 1.49774 12.0146 2.19285 12.6655C2.72447 13.1577 3.42494 13.4267 4.14935 13.4168H9.84677C10.6121 13.4186 11.3474 13.1192 11.8937 12.5832C12.6723 11.8257 13.2629 10.8967 13.6186 9.87029C13.9742 8.84388 14.0848 7.74854 13.9418 6.67174ZM11.0782 11.7467C10.75 12.0701 10.3075 12.251 9.84677 12.2502H4.14935C3.7231 12.2589 3.30964 12.1043 2.99377 11.8179C2.41468 11.2755 1.95358 10.6195 1.63924 9.89099C1.32491 9.16245 1.16407 8.37695 1.16677 7.58349C1.16734 6.7623 1.34106 5.95045 1.67657 5.20093C2.01208 4.4514 2.50186 3.78104 3.11394 3.23357C4.17744 2.27452 5.55988 1.74571 6.99194 1.75016C7.22075 1.75025 7.44939 1.76311 7.67677 1.78866C8.77088 1.91573 9.8066 2.35015 10.664 3.04161C11.5214 3.73307 12.1653 4.65328 12.5213 5.69564C12.8772 6.73801 12.9306 7.85988 12.6752 8.93132C12.4198 10.0028 11.8661 10.9799 11.0782 11.7497V11.7467ZM4.55419 10.0831C4.6648 10.1914 4.72787 10.3392 4.72951 10.494C4.73115 10.6488 4.67123 10.7979 4.56294 10.9085C4.45464 11.0191 4.30684 11.0822 4.15204 11.0838C3.99725 11.0855 3.84814 11.0255 3.73752 10.9172C3.07541 10.2687 2.62143 9.43765 2.43343 8.53008C2.24543 7.62252 2.33193 6.67952 2.68191 5.82131C3.03189 4.96309 3.6295 4.22853 4.39855 3.71125C5.16761 3.19398 6.07327 2.91741 7.0001 2.91682C7.22319 2.91676 7.446 2.93255 7.66685 2.96407C7.7427 2.97501 7.81565 3.00078 7.88154 3.03992C7.94742 3.07905 8.00495 3.13079 8.05083 3.19216C8.09671 3.25354 8.13005 3.32336 8.14895 3.39762C8.16784 3.47189 8.17191 3.54915 8.16094 3.62499C8.15089 3.70125 8.1257 3.77473 8.08684 3.84111C8.04798 3.90749 7.99624 3.96542 7.93466 4.01151C7.87308 4.0576 7.8029 4.09091 7.72826 4.10948C7.65362 4.12806 7.57602 4.13152 7.50002 4.11966C6.76997 4.01538 6.02564 4.14437 5.37324 4.48821C4.72085 4.83205 4.19373 5.37318 3.86711 6.03436C3.5405 6.69555 3.43107 7.44301 3.55446 8.17008C3.67784 8.89714 4.02773 9.56665 4.55419 10.0831ZM11.6195 6.91674C11.651 7.13759 11.6668 7.3604 11.6668 7.58349C11.6687 8.20513 11.5452 8.82078 11.3039 9.39367C11.0626 9.96655 10.7082 10.4849 10.2621 10.9178C10.1513 11.0261 10.0021 11.086 9.84717 11.0842C9.69227 11.0825 9.5444 11.0193 9.4361 10.9085C9.32781 10.7977 9.26795 10.6485 9.2697 10.4936C9.27145 10.3387 9.33467 10.1908 9.44544 10.0825C9.83957 9.69832 10.1372 9.22634 10.314 8.70513C10.4908 8.18391 10.5418 7.62826 10.4628 7.08357C10.4406 6.93033 10.4803 6.77458 10.573 6.65058C10.6657 6.52658 10.8039 6.44449 10.9571 6.42237C11.1104 6.40024 11.2661 6.4399 11.3901 6.53261C11.5141 6.62533 11.5962 6.7635 11.6184 6.91674H11.6195ZM8.1236 7.28482C8.1938 7.53726 8.17842 7.80584 8.07987 8.04862C7.98131 8.2914 7.80513 8.4947 7.57884 8.62678C7.35254 8.75886 7.08888 8.81227 6.82902 8.77868C6.56917 8.7451 6.32775 8.6264 6.14247 8.44112C5.9572 8.25585 5.8385 8.01443 5.80491 7.75457C5.77132 7.49472 5.82474 7.23105 5.95682 7.00476C6.08889 6.77846 6.2922 6.60228 6.53497 6.50372C6.77775 6.40517 7.04633 6.38979 7.29877 6.45999L9.50435 4.25441C9.55816 4.19869 9.62253 4.15425 9.6937 4.12368C9.76487 4.09311 9.84142 4.07702 9.91887 4.07634C9.99632 4.07567 10.0731 4.09043 10.1448 4.11976C10.2165 4.14909 10.2816 4.19241 10.3364 4.24718C10.3912 4.30195 10.4345 4.36708 10.4638 4.43877C10.4932 4.51046 10.5079 4.58727 10.5073 4.66472C10.5066 4.74218 10.4905 4.81872 10.4599 4.88989C10.4293 4.96106 10.3849 5.02543 10.3292 5.07924L8.1236 7.28482Z" fill="black"/>
</svg>
