<?xml version="1.0" encoding="iso-8859-1"?>
<!-- Generator: Adobe Illustrator 19.0.0, SVG Export Plug-In . SVG Version: 6.00 Build 0)  -->
<svg version="1.1" id="Layer_1" xmlns="http://www.w3.org/2000/svg" xmlns:xlink="http://www.w3.org/1999/xlink" x="0px" y="0px"
	 viewBox="0 0 512 512" style="enable-background:new 0 0 512 512;" xml:space="preserve">
<path d="M437.02,74.98C388.668,26.629,324.38,0,256,0S123.333,26.629,74.98,74.98C26.629,123.333,0,187.62,0,256
	s26.629,132.667,74.98,181.02C123.333,485.371,187.62,512,256,512s132.668-26.629,181.02-74.98C485.371,388.667,512,324.38,512,256
	S485.371,123.333,437.02,74.98z M50,256c0-113.589,92.411-206,206-206c47.804,0,91.856,16.371,126.848,43.796L93.796,382.848
	C66.371,347.855,50,303.805,50,256z M256,462c-47.804,0-91.856-16.371-126.848-43.796l289.052-289.052
	C445.629,164.145,462,208.195,462,256C462,369.589,369.589,462,256,462z"/>
<g>
</g>
<g>
</g>
<g>
</g>
<g>
</g>
<g>
</g>
<g>
</g>
<g>
</g>
<g>
</g>
<g>
</g>
<g>
</g>
<g>
</g>
<g>
</g>
<g>
</g>
<g>
</g>
<g>
</g>
</svg>
