<svg xmlns="http://www.w3.org/2000/svg" viewBox="-49 141 512 512"><path d="M388.02 215.98C339.668 167.629 275.38 141 207 141S74.333 167.629 25.98 215.98C-22.371 264.333-49 328.62-49 397s26.629 132.667 74.98 181.02C74.333 626.371 138.62 653 207 653s132.668-26.629 181.02-74.98C436.371 529.667 463 465.38 463 397s-26.629-132.667-74.98-181.02zM1 397c0-113.589 92.411-206 206-206 47.804 0 91.856 16.371 126.848 43.796L44.796 523.848C17.371 488.855 1 444.805 1 397zm206 206c-47.804 0-91.856-16.371-126.848-43.796l289.052-289.052C396.629 305.145 413 349.195 413 397c0 113.589-92.411 206-206 206z"/></svg>