<?xml version="1.0" encoding="iso-8859-1"?>
<!-- Generator: Adobe Illustrator 19.0.0, SVG Export Plug-In . SVG Version: 6.00 Build 0)  -->
<svg version="1.1" id="Layer_1" xmlns="http://www.w3.org/2000/svg" xmlns:xlink="http://www.w3.org/1999/xlink" x="0px" y="0px"
	 viewBox="-49 141 512 512" style="enable-background:new -49 141 512 512;" xml:space="preserve">
<path d="M388.02,215.98C339.668,167.629,275.38,141,207,141S74.333,167.629,25.98,215.98C-22.371,264.333-49,328.62-49,397
	s26.629,132.667,74.98,181.02C74.333,626.371,138.62,653,207,653s132.668-26.629,181.02-74.98C436.371,529.667,463,465.38,463,397
	S436.371,264.333,388.02,215.98z M1,397c0-113.589,92.411-206,206-206c47.804,0,91.856,16.371,126.848,43.796L44.796,523.848
	C17.371,488.855,1,444.805,1,397z M207,603c-47.804,0-91.856-16.371-126.848-43.796l289.052-289.052
	C396.629,305.145,413,349.195,413,397C413,510.589,320.589,603,207,603z"/>
</svg>
