<svg version="1.1" id="Capa_1" xmlns="http://www.w3.org/2000/svg" xmlns:xlink="http://www.w3.org/1999/xlink" x="0px" y="0px" viewBox="0 0 512 512" style="enable-background:new 0 0 512 512;" xml:space="preserve"><path d="M407,50H105c-30.3,0-55,24.7-55,55v302c0,30.3,24.7,55,55,55h302c30.3,0,55-24.7,55-55V105C462,74.7,437.3,50,407,50z M407,100c2.8,0,5,2.2,5,5v127.5h-73V100H407z M100,105c0-2.8,2.2-5,5-5h184v132.5H100V105z M100,407V282.5h73V412h-68 C102.2,412,100,409.8,100,407z M412,407c0,2.8-2.2,5-5,5H223V282.5h189V407z"/></svg>