<?xml version="1.0" encoding="iso-8859-1"?>
<!-- Generator: Adobe Illustrator 19.0.0, SVG Export Plug-In . SVG Version: 6.00 Build 0)  -->
<svg version="1.1" id="Layer_1" xmlns="http://www.w3.org/2000/svg" xmlns:xlink="http://www.w3.org/1999/xlink" x="0px" y="0px"
	 viewBox="-49 141 512 512" style="enable-background:new -49 141 512 512;" xml:space="preserve">
<path d="M275.78,388.296L232,377.441V226.639c39.959,4.945,71,39.085,71,80.361c0,13.807,11.193,25,25,25s25-11.193,25-25
	c0-68.87-53.42-125.496-121-130.621V166c0-13.807-11.192-25-25-25c-13.807,0-25,11.193-25,25v10.379
	C114.42,181.504,61,238.131,61,307c0,46.843,31.754,87.432,77.221,98.704L182,416.559v150.802c-39.959-4.946-71-39.085-71-80.361
	c0-13.807-11.193-25-25-25s-25,11.193-25,25c0,68.87,53.42,125.496,121,130.621V628c0,13.807,11.193,25,25,25
	c13.808,0,25-11.193,25-25v-10.379C299.58,612.496,353,555.87,353,487C353,440.157,321.246,399.569,275.78,388.296z
	 M150.253,357.173C127.142,351.443,111,330.811,111,307c0-41.276,31.041-75.415,71-80.361v138.405L150.253,357.173z M232,567.361
	V428.955l31.747,7.871C286.858,442.557,303,463.189,303,487C303,528.276,271.959,562.415,232,567.361z"/>
</svg>
