<svg xmlns="http://www.w3.org/2000/svg" viewBox="-49 141 512 512"><path d="M275.78 388.296L232 377.441V226.639c39.959 4.945 71 39.085 71 80.361 0 13.807 11.193 25 25 25s25-11.193 25-25c0-68.87-53.42-125.496-121-130.621V166c0-13.807-11.192-25-25-25-13.807 0-25 11.193-25 25v10.379C114.42 181.504 61 238.131 61 307a101.51 101.51 0 0 0 77.221 98.704L182 416.559v150.802c-39.959-4.946-71-39.085-71-80.361 0-13.807-11.193-25-25-25s-25 11.193-25 25c0 68.87 53.42 125.496 121 130.621V628c0 13.807 11.193 25 25 25 13.808 0 25-11.193 25-25v-10.379C299.58 612.496 353 555.87 353 487a101.512 101.512 0 0 0-77.22-98.704zm-125.527-31.123A51.601 51.601 0 0 1 111 307c0-41.276 31.041-75.415 71-80.361v138.405l-31.747-7.871zM232 567.361V428.955l31.747 7.871A51.603 51.603 0 0 1 303 487c0 41.276-31.041 75.415-71 80.361z"/></svg>