<?xml version="1.0" encoding="iso-8859-1"?>
<!-- Generator: Adobe Illustrator 19.0.0, SVG Export Plug-In . SVG Version: 6.00 Build 0)  -->
<svg version="1.1" id="Layer_1" xmlns="http://www.w3.org/2000/svg" xmlns:xlink="http://www.w3.org/1999/xlink" x="0px" y="0px"
	 viewBox="0 0 512 512" style="enable-background:new 0 0 512 512;" xml:space="preserve">
<path d="M324.78,247.296L281,236.441V85.639c39.959,4.945,71,39.085,71,80.361c0,13.807,11.193,25,25,25s25-11.193,25-25
	c0-68.87-53.42-125.496-121-130.621V25c0-13.807-11.192-25-25-25c-13.807,0-25,11.193-25,25v10.379
	C163.42,40.504,110,97.131,110,166c0,46.843,31.754,87.432,77.221,98.704L231,275.559v150.802c-39.959-4.945-71-39.085-71-80.361
	c0-13.807-11.193-25-25-25s-25,11.193-25,25c0,68.87,53.42,125.496,121,130.621V487c0,13.807,11.193,25,25,25
	c13.808,0,25-11.193,25-25v-10.379C348.58,471.496,402,414.87,402,346C402,299.157,370.246,258.569,324.78,247.296z
	 M199.253,216.173C176.142,210.443,160,189.811,160,166c0-41.276,31.041-75.415,71-80.361v138.405L199.253,216.173z M281,426.361
	V287.955l31.747,7.871C335.858,301.557,352,322.189,352,346C352,387.276,320.959,421.415,281,426.361z"/>
<g>
</g>
<g>
</g>
<g>
</g>
<g>
</g>
<g>
</g>
<g>
</g>
<g>
</g>
<g>
</g>
<g>
</g>
<g>
</g>
<g>
</g>
<g>
</g>
<g>
</g>
<g>
</g>
<g>
</g>
</svg>
