<?xml version="1.0" encoding="iso-8859-1"?>
<!-- Generator: Adobe Illustrator 19.0.0, SVG Export Plug-In . SVG Version: 6.00 Build 0)  -->
<svg version="1.1" id="Layer_1" xmlns="http://www.w3.org/2000/svg" xmlns:xlink="http://www.w3.org/1999/xlink" x="0px" y="0px"
	 viewBox="0 0 512 512" style="enable-background:new 0 0 512 512;" xml:space="preserve">
<g>
	<path d="M487,262c-13.808,0-25,11.193-25,25v134c0,19.299-15.701,35-35,35H85c-19.299,0-35-15.701-35-35V287
		c0-13.807-11.193-25-25-25S0,273.193,0,287v134c0,46.869,38.131,85,85,85h342c46.869,0,85-38.131,85-85V287
		C512,273.193,500.808,262,487,262z"/>
	<path d="M238.322,389.678C243.011,394.366,249.37,397,256,397c6.631,0,12.989-2.634,17.678-7.322l84.853-84.853
		c9.763-9.763,9.763-25.592,0-35.355c-9.764-9.763-25.592-9.763-35.355,0L281,311.645V31c0-13.807-11.193-25-25-25
		c-13.807,0-25,11.193-25,25v280.645l-42.175-42.175c-9.764-9.763-25.592-9.763-35.355,0c-9.763,9.763-9.763,25.592,0,35.355
		L238.322,389.678z"/>
</g>
<g>
</g>
<g>
</g>
<g>
</g>
<g>
</g>
<g>
</g>
<g>
</g>
<g>
</g>
<g>
</g>
<g>
</g>
<g>
</g>
<g>
</g>
<g>
</g>
<g>
</g>
<g>
</g>
<g>
</g>
</svg>
