<?xml version="1.0" encoding="iso-8859-1"?>
<!-- Generator: Adobe Illustrator 19.0.0, SVG Export Plug-In . SVG Version: 6.00 Build 0)  -->
<svg version="1.1" id="Layer_1" xmlns="http://www.w3.org/2000/svg" xmlns:xlink="http://www.w3.org/1999/xlink" x="0px" y="0px"
	 viewBox="-49 141 512 512" style="enable-background:new -49 141 512 512;" xml:space="preserve">
<path id="XMLID_25_" d="M181.999,267v199.644l-42.175-42.175c-9.763-9.763-25.592-9.763-35.355,0s-9.762,25.592,0,35.355
	l84.853,84.853C194.01,549.365,200.369,552,207,552l0,0c6.63,0,12.989-2.634,17.678-7.322l84.853-84.853
	c9.762-9.763,9.763-25.592,0-35.355s-25.592-9.763-35.355,0l-42.175,42.175V267c0-13.807-11.193-25-25-25l0,0
	C193.191,242.001,181.999,253.193,181.999,267z"/>
</svg>
