<?xml version="1.0" encoding="iso-8859-1"?>
<!-- Generator: Adobe Illustrator 19.0.0, SVG Export Plug-In . SVG Version: 6.00 Build 0)  -->
<svg version="1.1" id="Layer_1" xmlns="http://www.w3.org/2000/svg" xmlns:xlink="http://www.w3.org/1999/xlink" x="0px" y="0px"
	 viewBox="0 0 310 310" style="enable-background:new 0 0 310 310;" xml:space="preserve">
<path d="M130,25v199.644l-42.175-42.175c-9.763-9.763-25.592-9.763-35.355,0c-9.763,9.763-9.762,25.592,0,35.355l84.853,84.853
	C142.011,307.366,148.37,310,155,310h0c6.63,0,12.989-2.634,17.678-7.322l84.853-84.853c9.762-9.763,9.763-25.592,0-35.355
	c-9.763-9.763-25.592-9.763-35.355,0L180,224.644V25c0-13.807-11.193-25-25-25h0C141.193,0,130,11.193,130,25z"/>
<g>
</g>
<g>
</g>
<g>
</g>
<g>
</g>
<g>
</g>
<g>
</g>
<g>
</g>
<g>
</g>
<g>
</g>
<g>
</g>
<g>
</g>
<g>
</g>
<g>
</g>
<g>
</g>
<g>
</g>
</svg>
