<?xml version="1.0" encoding="iso-8859-1"?>
<!-- Generator: Adobe Illustrator 19.0.0, SVG Export Plug-In . SVG Version: 6.00 Build 0)  -->
<svg version="1.1" id="Layer_1" xmlns="http://www.w3.org/2000/svg" xmlns:xlink="http://www.w3.org/1999/xlink" x="0px" y="0px"
	 viewBox="0 0 512 512" style="enable-background:new 0 0 512 512;" xml:space="preserve">
<path d="M231,25v401.645l-72.822-72.822c-9.763-9.763-25.592-9.763-35.355,0c-9.764,9.763-9.762,25.593,0,35.355l115.5,115.5
	C243.011,509.366,249.37,512,256,512s12.989-2.634,17.678-7.322l115.5-115.5c9.762-9.763,9.763-25.593,0-35.355
	c-9.763-9.763-25.592-9.763-35.355,0L281,426.645V25c0-13.808-11.193-25-25-25C242.193,0,231,11.192,231,25z"/>
<g>
</g>
<g>
</g>
<g>
</g>
<g>
</g>
<g>
</g>
<g>
</g>
<g>
</g>
<g>
</g>
<g>
</g>
<g>
</g>
<g>
</g>
<g>
</g>
<g>
</g>
<g>
</g>
<g>
</g>
</svg>
