<svg xmlns="http://www.w3.org/2000/svg" width="512" height="512"><path d="M384 217.419h-90.5V11.5C293.5 5.159 288.341 0 282 0h-52c-6.341 0-11.5 5.159-11.5 11.5v40.705c0 4.142 3.357 7.5 7.5 7.5s7.5-3.358 7.5-7.5V15h45v202.419h-45V86.256c0-4.142-3.357-7.5-7.5-7.5s-7.5 3.358-7.5 7.5v131.163H128c-7.444 0-13.5 6.056-13.5 13.5v31.029c0 4.142 3.357 7.5 7.5 7.5s7.5-3.358 7.5-7.5v-29.529h119v123.479c0 32.808-26.691 59.499-59.5 59.499s-59.5-26.691-59.5-59.499v-59.079c0-4.142-3.357-7.5-7.5-7.5s-7.5 3.358-7.5 7.5v74.1c0 31.457 21.242 63.638 63.137 95.648 31.27 23.892 64.1 39.971 73.417 44.33 1.572.735 3.259 1.103 4.946 1.103s3.374-.368 4.945-1.103c5.659-2.647 25.905-12.429 48.826-27.146a7.5 7.5 0 0 0-8.105-12.622c-20.524 13.179-38.773 22.235-45.666 25.516-13.445-6.405-75.256-37.294-107.224-78.089 11.612 7.481 25.414 11.842 40.224 11.842 29.415 0 54.897-17.139 67-41.952 12.103 24.813 37.585 41.952 67 41.952 14.604 0 28.228-4.24 39.738-11.53-9.844 12.48-21.998 23.557-33.164 32.419a7.5 7.5 0 0 0 9.324 11.749c38.886-30.862 58.602-61.855 58.602-92.116v-140c0-7.445-6.056-13.501-13.5-13.501zM263.5 355.898V232.419h119v123.479c0 32.808-26.691 59.499-59.5 59.499s-59.5-26.691-59.5-59.499z"/><path d="M203.923 361.179a7.5 7.5 0 0 0 7.5-7.5v-63.372c0-13.212-10.749-23.961-23.961-23.961h-21.655c-4.143 0-7.5 3.358-7.5 7.5s3.357 7.5 7.5 7.5h21.655c4.941 0 8.961 4.02 8.961 8.961v63.372a7.5 7.5 0 0 0 7.5 7.5z"/><path d="M158.307 353.679c0 4.142 3.357 7.5 7.5 7.5s7.5-3.358 7.5-7.5v-55.116c0-4.142-3.357-7.5-7.5-7.5s-7.5 3.358-7.5 7.5zM344.571 325.372c.004-.099.006-.197.006-.295v-34.769c0-13.212-10.749-23.961-23.961-23.961h-21.655c-4.143 0-7.5 3.358-7.5 7.5s3.357 7.5 7.5 7.5h21.655c4.941 0 8.961 4.02 8.961 8.961v19.074c-7.724 4.328-27.336 17.565-32.683 42.74a7.5 7.5 0 1 0 14.671 3.117c2.833-13.338 11.289-22.436 18.049-27.805.271 6.06 2.111 21.136 13.317 31.704a7.475 7.475 0 0 0 5.145 2.043 7.5 7.5 0 0 0 5.146-12.956c-8.98-8.471-8.654-22.744-8.651-22.853z"/></svg>