<?xml version="1.0" encoding="iso-8859-1"?>
<!-- Generator: Adobe Illustrator 19.0.0, SVG Export Plug-In . SVG Version: 6.00 Build 0)  -->
<svg version="1.1" id="Layer_1" xmlns="http://www.w3.org/2000/svg" xmlns:xlink="http://www.w3.org/1999/xlink" x="0px" y="0px"
	 viewBox="0 0 339.831 339.831" style="enable-background:new 0 0 339.831 339.831;" xml:space="preserve">
<g>
	<g>
		<g>
			<path style="fill:#231F20;" d="M186.232,164.134c-3.032-6.645-6.23-13.281-9.543-19.858c-1.083-2.151-3.556-3.201-5.869-2.531
				C96.486,163.267,24.956,164.808,5.009,164.781c-2.762-0.004-5.006,2.232-5.009,4.993c-0.045,40.102,13.986,78.137,39.122,108.387
				c2.191,2.636,6.287,2.362,8.118-0.536c27.695-43.847,79.058-88.808,135.93-106.628
				C186.054,170.094,187.486,166.883,186.232,164.134z"/>
		</g>
	</g>
	<g>
		<g>
			<path style="fill:#231F20;" d="M93.876,18.142C50.105,40.126,17.09,80.44,5.008,128.933c-0.789,3.166,1.665,6.215,4.927,6.176
				c45.885-0.563,97.6-7.17,144.458-19c3.219-0.813,4.777-4.47,3.126-7.35C133.503,66.87,108.67,31.487,100.2,19.688
				C98.761,17.684,96.08,17.034,93.876,18.142z"/>
		</g>
	</g>
	<g>
		<g>
			<path style="fill:#231F20;" d="M279.07,39.786c-39.661-33.213-91.508-46.17-141.24-36.59c-3.599,0.693-5.279,4.871-3.133,7.842
				c10.272,14.219,34.279,48.632,56.804,89.384c1.219,2.206,3.885,3.168,6.231,2.245c48.625-19.125,73.646-45.595,82.016-55.878
				C281.477,44.662,281.171,41.545,279.07,39.786z"/>
		</g>
	</g>
	<g>
		<g>
			<path style="fill:#231F20;" d="M195.492,199.094c-83.28,30.157-118.983,85.143-127.8,100.914
				c-1.233,2.206-0.622,4.976,1.41,6.479c48.892,36.142,111.087,42.092,163.522,21.288c2.221-0.881,3.518-3.197,3.093-5.548
				c-3.306-18.292-12.966-64.923-33.833-120.214C199.398,200.877,197.978,200.229,195.492,199.094z"/>
		</g>
	</g>
	<g>
		<g>
			<path style="fill:#231F20;" d="M234.037,195.361c17.361,48.882,26.173,89.736,29.571,107.606c0.692,3.638,4.951,5.282,7.92,3.068
				c33.526-25.004,57.536-62.056,65.558-104.671c0.483-2.565-1.064-5.075-3.58-5.77c-13.3-3.673-51.682-12.54-95.429-6.863
				C234.933,189.14,232.976,192.372,234.037,195.361z"/>
		</g>
	</g>
	<g>
		<g>
			<path style="fill:#231F20;" d="M208.96,134.222c4.217,8.817,7.687,16.666,11.217,25.146c0.858,2.061,2.98,3.287,5.198,3.04
				c46.509-5.182,92.02,1.72,108.553,4.73c3.149,0.573,6.046-1.913,5.899-5.111c-1.63-35.385-14.151-67.976-34.293-94.499
				c-1.919-2.527-5.698-2.62-7.758-0.206c-9.742,11.413-36.824,38.975-86.266,60.155C208.9,128.595,207.735,131.662,208.96,134.222z
				"/>
		</g>
	</g>
</g>
<g>
</g>
<g>
</g>
<g>
</g>
<g>
</g>
<g>
</g>
<g>
</g>
<g>
</g>
<g>
</g>
<g>
</g>
<g>
</g>
<g>
</g>
<g>
</g>
<g>
</g>
<g>
</g>
<g>
</g>
</svg>
