<svg xmlns="http://www.w3.org/2000/svg" viewBox="0 0 339.831 339.831"><path d="M186.232 164.134a572.346 572.346 0 0 0-9.543-19.858c-1.083-2.151-3.556-3.201-5.869-2.531-74.334 21.522-145.864 23.063-165.811 23.036A5.001 5.001 0 0 0 0 169.774c-.045 40.102 13.986 78.137 39.122 108.387 2.191 2.636 6.287 2.362 8.118-.536 27.695-43.847 79.058-88.808 135.93-106.628a5.004 5.004 0 0 0 3.062-6.863zM93.876 18.142C50.105 40.126 17.09 80.44 5.008 128.933c-.789 3.166 1.665 6.215 4.927 6.176 45.885-.563 97.6-7.17 144.458-19 3.219-.813 4.777-4.47 3.126-7.35C133.503 66.87 108.67 31.487 100.2 19.688a5.01 5.01 0 0 0-6.324-1.546zM279.07 39.786c-39.661-33.213-91.508-46.17-141.24-36.59-3.599.693-5.279 4.871-3.133 7.842 10.272 14.219 34.279 48.632 56.804 89.384a5.02 5.02 0 0 0 6.231 2.245c48.625-19.125 73.646-45.595 82.016-55.878a5.01 5.01 0 0 0-.678-7.003zm-83.578 159.308c-83.28 30.157-118.983 85.143-127.8 100.914a5.014 5.014 0 0 0 1.41 6.479c48.892 36.142 111.087 42.092 163.522 21.288a5.01 5.01 0 0 0 3.093-5.548c-3.306-18.292-12.966-64.923-33.833-120.214l-6.392-2.919zm38.545-3.733c17.361 48.882 26.173 89.736 29.571 107.606.692 3.638 4.951 5.282 7.92 3.068 33.526-25.004 57.536-62.056 65.558-104.671.483-2.565-1.064-5.075-3.58-5.77-13.3-3.673-51.682-12.54-95.429-6.863-3.144.409-5.101 3.641-4.04 6.63zm-25.077-61.139c4.217 8.817 7.687 16.666 11.217 25.146.858 2.061 2.98 3.287 5.198 3.04 46.509-5.182 92.02 1.72 108.553 4.73 3.149.573 6.046-1.913 5.899-5.111-1.63-35.385-14.151-67.976-34.293-94.499-1.919-2.527-5.698-2.62-7.758-.206-9.742 11.413-36.824 38.975-86.266 60.155-2.61 1.118-3.775 4.185-2.55 6.745z" fill="#231f20"/></svg>