<?xml version="1.0" encoding="iso-8859-1"?>
<!-- Generator: Adobe Illustrator 19.0.0, SVG Export Plug-In . SVG Version: 6.00 Build 0)  -->
<svg version="1.1" id="Layer_1" xmlns="http://www.w3.org/2000/svg" xmlns:xlink="http://www.w3.org/1999/xlink" x="0px" y="0px"
	 viewBox="0 0 492 492" style="enable-background:new 0 0 492 492;" xml:space="preserve">
<path d="M444.678,76.322l-69-69C370.989,2.634,364.631,0,358,0H205c-35.841,0-65,29.159-65,65v35h-35c-35.841,0-65,29.159-65,65v262
	c0,35.841,29.159,65,65,65h182c35.841,0,65-29.159,65-65v-35h35c35.841,0,65-29.159,65-65V94
	C452,87.369,449.366,81.011,444.678,76.322z M302,427c0,8.271-6.729,15-15,15H105c-8.271,0-15-6.729-15-15V165
	c0-8.271,6.729-15,15-15h35v177c0,35.841,29.159,65,65,65h97V427z M387,342H205c-8.271,0-15-6.729-15-15V125V65
	c0-8.271,6.729-15,15-15h128v44c0,13.808,11.192,25,25,25h44v208C402,335.271,395.271,342,387,342z"/>
<g>
</g>
<g>
</g>
<g>
</g>
<g>
</g>
<g>
</g>
<g>
</g>
<g>
</g>
<g>
</g>
<g>
</g>
<g>
</g>
<g>
</g>
<g>
</g>
<g>
</g>
<g>
</g>
<g>
</g>
</svg>
