<?xml version="1.0" encoding="iso-8859-1"?>
<!-- Generator: Adobe Illustrator 19.0.0, SVG Export Plug-In . SVG Version: 6.00 Build 0)  -->
<svg version="1.1" id="Layer_1" xmlns="http://www.w3.org/2000/svg" xmlns:xlink="http://www.w3.org/1999/xlink" x="0px" y="0px"
	 viewBox="-49 141 512 512" style="enable-background:new -49 141 512 512;" xml:space="preserve">
<path d="M405.678,227.322l-69-69C331.989,153.634,325.631,151,319,151H166c-35.841,0-65,29.159-65,65v35H66
	c-35.841,0-65,29.159-65,65v262c0,35.841,29.159,65,65,65h182c35.841,0,65-29.159,65-65v-35h35c35.841,0,65-29.159,65-65V245
	C413,238.369,410.366,232.011,405.678,227.322z M263,578c0,8.271-6.729,15-15,15H66c-8.271,0-15-6.729-15-15V316
	c0-8.271,6.729-15,15-15h35v177c0,35.841,29.159,65,65,65h97V578z M348,493H166c-8.271,0-15-6.729-15-15V276v-60
	c0-8.271,6.729-15,15-15h128v44c0,13.808,11.192,25,25,25h44v208C363,486.271,356.271,493,348,493z"/>
</svg>
