<?xml version="1.0" encoding="iso-8859-1"?>
<!-- Generator: Adobe Illustrator 19.0.0, SVG Export Plug-In . SVG Version: 6.00 Build 0)  -->
<svg version="1.1" id="Layer_1" xmlns="http://www.w3.org/2000/svg" xmlns:xlink="http://www.w3.org/1999/xlink" x="0px" y="0px"
	 viewBox="0 0 437 437" style="enable-background:new 0 0 437 437;" xml:space="preserve">
<g>
	<path d="M90,205c49.626,0,90-40.374,90-90s-40.374-90-90-90S0,65.374,0,115S40.374,205,90,205z M90,75c22.056,0,40,17.944,40,40
		s-17.944,40-40,40s-40-17.944-40-40S67.944,75,90,75z"/>
	<path d="M322,257c-49.626,0-90,40.374-90,90s40.374,90,90,90s90-40.374,90-90S371.626,257,322,257z M322,387
		c-22.056,0-40-17.944-40-40s17.944-40,40-40s40,17.944,40,40S344.056,387,322,387z"/>
	<path d="M412,0H292c-13.808,0-25,11.193-25,25s11.192,25,25,25h59.645L7.322,394.322c-9.763,9.763-9.763,25.593,0,35.355
		c9.333,9.333,25.355,10,35.355,0L387,85.355V145c0,13.807,11.192,25,25,25s25-11.193,25-25V25C437,11.193,425.808,0,412,0z"/>
</g>
<g>
</g>
<g>
</g>
<g>
</g>
<g>
</g>
<g>
</g>
<g>
</g>
<g>
</g>
<g>
</g>
<g>
</g>
<g>
</g>
<g>
</g>
<g>
</g>
<g>
</g>
<g>
</g>
<g>
</g>
</svg>
