<svg xmlns="http://www.w3.org/2000/svg" viewBox="-49 141 512 512"><path d="M78.5 383.5c49.626 0 90-40.374 90-90s-40.374-90-90-90-90 40.374-90 90 40.374 90 90 90zm0-130c22.056 0 40 17.944 40 40s-17.944 40-40 40-40-17.944-40-40 17.944-40 40-40zm232 182c-49.626 0-90 40.374-90 90s40.374 90 90 90 90-40.374 90-90-40.374-90-90-90zm0 130c-22.056 0-40-17.944-40-40s17.944-40 40-40 40 17.944 40 40-17.944 40-40 40z"/><path d="M400.5 178.5h-120c-13.808 0-25 11.193-25 25s11.192 25 25 25h59.645L-4.178 572.822c-9.763 9.763-9.763 25.593 0 35.355 9.333 9.333 25.355 10 35.355 0L375.5 263.855V323.5c0 13.807 11.192 25 25 25s25-11.193 25-25v-120c0-13.807-11.192-25-25-25z"/></svg>