<?xml version="1.0" encoding="iso-8859-1"?>
<!-- Generator: Adobe Illustrator 19.0.0, SVG Export Plug-In . SVG Version: 6.00 Build 0)  -->
<svg version="1.1" id="Layer_1" xmlns="http://www.w3.org/2000/svg" xmlns:xlink="http://www.w3.org/1999/xlink" x="0px" y="0px"
	 viewBox="-49 141 512 512" style="enable-background:new -49 141 512 512;" xml:space="preserve">
<g>
	<path d="M78.5,383.5c49.626,0,90-40.374,90-90s-40.374-90-90-90s-90,40.374-90,90S28.874,383.5,78.5,383.5z M78.5,253.5
		c22.056,0,40,17.944,40,40s-17.944,40-40,40s-40-17.944-40-40S56.444,253.5,78.5,253.5z"/>
	<path d="M310.5,435.5c-49.626,0-90,40.374-90,90s40.374,90,90,90s90-40.374,90-90S360.126,435.5,310.5,435.5z M310.5,565.5
		c-22.056,0-40-17.944-40-40c0-22.056,17.944-40,40-40s40,17.944,40,40C350.5,547.556,332.556,565.5,310.5,565.5z"/>
	<path d="M400.5,178.5h-120c-13.808,0-25,11.193-25,25s11.192,25,25,25h59.645L-4.178,572.822c-9.763,9.763-9.763,25.593,0,35.355
		c9.333,9.333,25.355,10,35.355,0L375.5,263.855V323.5c0,13.807,11.192,25,25,25s25-11.193,25-25v-120
		C425.5,189.693,414.308,178.5,400.5,178.5z"/>
</g>
</svg>
