<?xml version="1.0" encoding="iso-8859-1"?>
<!-- Generator: Adobe Illustrator 19.0.0, SVG Export Plug-In . SVG Version: 6.00 Build 0)  -->
<svg version="1.1" id="Capa_1" xmlns="http://www.w3.org/2000/svg" xmlns:xlink="http://www.w3.org/1999/xlink" x="0px" y="0px"
	 viewBox="0 0 512 512" style="enable-background:new 0 0 512 512;" xml:space="preserve">
<g>
	<g>
		<path d="M504.44,266.622c-4.115-0.295-7.712,2.815-8.006,6.944c-6.811,95.889-70.186,175.877-155.923,208.144l55.867-67.27
			c10.307-12.41,8.833-23.873,8.833-39.571l21.327-9.479c11.335-5.037,18.661-16.308,18.661-28.713
			c0-12.094-9.84-21.934-21.934-21.934h-8.776l-19.503-37.562c-6.469-12.458-19.208-20.197-33.245-20.197h-43.794
			c-8.578,0-16.643,3.341-22.709,9.407c-5.06,5.062-12.852,5.975-18.95,2.225l-38.799-23.877v-27.196h22.083l7.684,10.245
			c6.426,8.566,19.569,7.571,24.64-1.846l31.436-58.382h18.346c8.085,0,14.662-6.578,14.662-14.662v-24.218
			c14.337-0.306,19.74-19.006,7.738-26.907c-71.623-47.142-64.349-45.836-107.227-45.836c-4.139,0-7.493,3.355-7.493,7.493
			c0,4.138,3.354,7.493,7.493,7.493c39.594,0,30.325-1.828,98.137,42.808c-7.607,0.531-13.634,6.889-13.634,14.627v24.214h-18.214
			c-5.399,0-10.345,2.953-12.911,7.711l-31.287,58.107c-13.882-18.505-9.185-15.833-41.775-15.833
			c-8.086,0-14.662,6.577-14.662,14.661v27.701c0,5.053,2.673,9.838,6.979,12.487l38.953,23.971
			c12.033,7.405,27.414,5.599,37.401-4.391c3.235-3.235,7.537-5.017,12.112-5.017h43.794c8.422,0,16.064,4.643,19.945,12.117
			l19.594,37.738c2.532,4.875,7.518,7.905,13.012,7.905h8.973c10.251,0,8.854,16.781-2.812,21.966l-21.518,9.564
			c-17,7.552-1.526,28.486-14.084,43.607l-70.621,85.034c-5.88,1.468-11.839,2.721-17.871,3.745v-25.735
			c15.994-45.7,15.551-43.537,15.551-46.923v-25.999c0-6.109-3.85-11.637-9.582-13.754l-25.567-9.443
			c-7.757-2.865-12.968-10.345-12.968-18.615l-0.007-16.823c4.721-23.164-7.902-46.041-30.013-54.401l-55.093-20.829l-12.327-55.948
			c-1.471-6.666-7.492-11.505-14.32-11.505h-33.809l-19.948-44.646l5.437-11.648c6.489-13.904,3.682-30.656-6.986-41.682
			l-9.922-10.26c10.461-10.38,21.867-19.809,34.076-28.145c31.763,13.507,31.06,13.632,35.044,13.632h65.958
			c4.138,0,7.493-3.355,7.493-7.493s-3.355-7.493-7.493-7.493h-65.891l-19.669-8.364C216.559,1.263,316.696,5.156,393.515,58.664
			c-5.548,23.07,11.57,37.876,6.53,55.338c-7.83,27.125,14.069,49.606,33.949,54.025c45.756,10.169,44.47,10.174,50.091,10.248
			c6.679,19.436,10.94,40.004,12.396,61.361c0.281,4.129,3.855,7.255,7.985,6.967c4.129-0.281,7.248-3.856,6.966-7.985
			c-4.975-73.01-40.811-139.26-97.172-183.494C245.844-77.432,0.552,44.578,0.552,256.252c0,68.313,26.602,132.536,74.906,180.84
			C123.763,485.398,187.986,512,256.299,512c134.242,0,245.6-103.871,255.084-237.374
			C511.676,270.499,508.568,266.914,504.44,266.622z M478.009,162.456c-50.778-11.285-44.917-8.763-55.447-17.617
			c-7.735-6.501-10.922-16.974-8.119-26.682c5.723-19.828-6.627-36.35-7.081-49.102C437.915,93.742,462.396,125.744,478.009,162.456
			z M281.371,495.69C139.143,510.623,15.537,398.566,15.537,256.254c0.001-61.331,23.064-117.368,60.956-159.925l9.461,9.783
			c6.379,6.595,8.058,16.612,4.177,24.926c-5.473,11.727-8.946,16.471-5.599,23.965l20.093,44.971
			c2.357,5.274,7.611,8.681,13.387,8.681h33.76l12.309,55.865c1.07,4.853,4.484,8.8,9.134,10.558l55.257,20.891
			c15.197,5.745,23.873,21.469,20.63,37.383c-0.388,1.893-0.297,1.366-0.297,19.823c0,14.513,9.147,27.642,22.761,32.673
			l25.355,9.365v25.717c-15.959,45.599-15.551,43.507-15.551,46.922V495.69z"/>
	</g>
</g>
<g>
</g>
<g>
</g>
<g>
</g>
<g>
</g>
<g>
</g>
<g>
</g>
<g>
</g>
<g>
</g>
<g>
</g>
<g>
</g>
<g>
</g>
<g>
</g>
<g>
</g>
<g>
</g>
<g>
</g>
</svg>
