<svg xmlns="http://www.w3.org/2000/svg" xml:space="preserve" style="enable-background:new 0 0 512 512" viewBox="0 0 512 512"><path d="M504.44 266.622c-4.115-.295-7.712 2.815-8.006 6.944-6.811 95.889-70.186 175.877-155.923 208.144l55.867-67.27c10.307-12.41 8.833-23.873 8.833-39.571l21.327-9.479a31.448 31.448 0 0 0 18.661-28.713c0-12.094-9.84-21.934-21.934-21.934h-8.776l-19.503-37.562c-6.469-12.458-19.208-20.197-33.245-20.197h-43.794c-8.578 0-16.643 3.341-22.709 9.407a15.34 15.34 0 0 1-18.95 2.225l-38.799-23.877v-27.196h22.083l7.684 10.245c6.426 8.566 19.569 7.571 24.64-1.846l31.436-58.382h18.346c8.085 0 14.662-6.578 14.662-14.662V128.68c14.337-.306 19.74-19.006 7.738-26.907-71.623-47.142-64.349-45.836-107.227-45.836a7.493 7.493 0 1 0 0 14.986c39.594 0 30.325-1.828 98.137 42.808-7.607.531-13.634 6.889-13.634 14.627v24.214H323.14a14.652 14.652 0 0 0-12.911 7.711l-31.287 58.107c-13.882-18.505-9.185-15.833-41.775-15.833-8.086 0-14.662 6.577-14.662 14.661v27.701c0 5.053 2.673 9.838 6.979 12.487l38.953 23.971c12.033 7.405 27.414 5.599 37.401-4.391a17.018 17.018 0 0 1 12.112-5.017h43.794a22.398 22.398 0 0 1 19.945 12.117l19.594 37.738a14.615 14.615 0 0 0 13.012 7.905h8.973c10.251 0 8.854 16.781-2.812 21.966l-21.518 9.564c-17 7.552-1.526 28.486-14.084 43.607L314.233 489.9a238.703 238.703 0 0 1-17.871 3.745V467.91c15.994-45.7 15.551-43.537 15.551-46.923v-25.999c0-6.109-3.85-11.637-9.582-13.754l-25.567-9.443c-7.757-2.865-12.968-10.345-12.968-18.615l-.007-16.823c4.721-23.164-7.902-46.041-30.013-54.401l-55.093-20.829-12.327-55.948c-1.471-6.666-7.492-11.505-14.32-11.505h-33.809l-19.948-44.646 5.437-11.648c6.489-13.904 3.682-30.656-6.986-41.682l-9.922-10.26a242.63 242.63 0 0 1 34.076-28.145c31.763 13.507 31.06 13.632 35.044 13.632h65.958a7.493 7.493 0 0 0 0-14.986h-65.891l-19.669-8.364c80.233-46.308 180.37-42.415 257.189 11.093-5.548 23.07 11.57 37.876 6.53 55.338-7.83 27.125 14.069 49.606 33.949 54.025 45.756 10.169 44.47 10.174 50.091 10.248a238.513 238.513 0 0 1 12.396 61.361c.281 4.129 3.855 7.255 7.985 6.967a7.492 7.492 0 0 0 6.966-7.985c-4.975-73.01-40.811-139.26-97.172-183.494C245.844-77.432.552 44.578.552 256.252c0 68.313 26.602 132.536 74.906 180.84C123.763 485.398 187.986 512 256.299 512c134.242 0 245.6-103.871 255.084-237.374a7.492 7.492 0 0 0-6.943-8.004zm-26.431-104.166c-50.778-11.285-44.917-8.763-55.447-17.617a25.604 25.604 0 0 1-8.119-26.682c5.723-19.828-6.627-36.35-7.081-49.102 30.553 24.687 55.034 56.689 70.647 93.401zM281.371 495.69C139.143 510.623 15.537 398.566 15.537 256.254c.001-61.331 23.064-117.368 60.956-159.925l9.461 9.783c6.379 6.595 8.058 16.612 4.177 24.926-5.473 11.727-8.946 16.471-5.599 23.965l20.093 44.971a14.68 14.68 0 0 0 13.387 8.681h33.76l12.309 55.865a14.616 14.616 0 0 0 9.134 10.558l55.257 20.891c15.197 5.745 23.873 21.469 20.63 37.383-.388 1.893-.297 1.366-.297 19.823 0 14.513 9.147 27.642 22.761 32.673l25.355 9.365v25.717c-15.959 45.599-15.551 43.507-15.551 46.922v27.838z"/></svg>