<?xml version="1.0" encoding="iso-8859-1"?>
<!-- Generator: Adobe Illustrator 19.0.0, SVG Export Plug-In . SVG Version: 6.00 Build 0)  -->
<svg version="1.1" id="Layer_1" xmlns="http://www.w3.org/2000/svg" xmlns:xlink="http://www.w3.org/1999/xlink" x="0px" y="0px"
	 viewBox="0 0 486.757 486.757" style="enable-background:new 0 0 486.757 486.757;" xml:space="preserve">
<g>
	<g>
		<path d="M185.711,396.757H115c-13.807,0-25-11.193-25-25v-70.711c0-6.63,2.634-12.989,7.322-17.678l264.36-264.36
			c25.344-25.343,66.58-25.343,91.924,0l14.143,14.142c25.344,25.344,25.344,66.581,0,91.924l-264.36,264.36
			C198.7,394.122,192.342,396.757,185.711,396.757z M140,346.757h35.355L432.394,89.718c5.849-5.848,5.849-15.365,0-21.213
			l-14.143-14.142c-5.848-5.849-15.365-5.849-21.213,0L140,311.401V346.757z"/>
	</g>
	<g>
		<path d="M412,237.391v184.366c0,8.284-6.716,15-15,15H65h0c-8.284,0-15-6.716-15-15l0,0V274.122V89.757c0-8.284,6.716-15,15-15
			h184.365l50-50H65c-35.899,0-65,29.101-65,65v332c0,35.898,29.101,65,65,65h332c35.898,0,65-29.102,65-65V187.391L412,237.391z"/>
	</g>
</g>
<g>
</g>
<g>
</g>
<g>
</g>
<g>
</g>
<g>
</g>
<g>
</g>
<g>
</g>
<g>
</g>
<g>
</g>
<g>
</g>
<g>
</g>
<g>
</g>
<g>
</g>
<g>
</g>
<g>
</g>
</svg>
