<svg xmlns="http://www.w3.org/2000/svg" viewBox="-49 141 512 512"><path d="M149.333 550.378H78.622c-13.807 0-25-11.193-25-25v-70.711c0-6.63 2.634-12.989 7.322-17.678l264.36-264.36c25.344-25.343 66.58-25.343 91.924 0l14.143 14.142c25.344 25.344 25.344 66.581 0 91.924l-264.36 264.36a24.999 24.999 0 0 1-17.678 7.323zm-45.711-50h35.355L396.016 243.34c5.849-5.848 5.849-15.365 0-21.213l-14.143-14.142c-5.848-5.849-15.365-5.849-21.213 0L103.622 465.023v35.355z"/><path d="M375.622 391.013v184.366c0 8.284-6.716 15-15 15h-332c-8.284 0-15-6.716-15-15V243.378c0-8.284 6.716-15 15-15h184.365l50-50H28.622c-35.899 0-65 29.101-65 65v332c0 35.898 29.101 65 65 65h332c35.898 0 65-29.102 65-65V341.013l-50 50z"/></svg>