<?xml version="1.0" encoding="utf-8"?>
<!-- Generator: Adobe Illustrator 26.0.2, SVG Export Plug-In . SVG Version: 6.00 Build 0)  -->
<svg version="1.1" id="Capa_1" xmlns="http://www.w3.org/2000/svg" xmlns:xlink="http://www.w3.org/1999/xlink" x="0px" y="0px"
	 viewBox="0 0 512 512" style="enable-background:new 0 0 512 512;" xml:space="preserve">
<style type="text/css">
	.st0{display:none;}
</style>
<path d="M512.4,191.8c0-0.1,0-0.3,0-0.4c0-0.4-0.1-0.9-0.1-1.3c0-0.1,0-0.2,0-0.3c-0.2-1.1-0.4-2.1-0.7-3.2c0,0,0-0.1,0-0.1
	c-0.4-1.6-1.1-3.1-1.8-4.6c0,0,0-0.1-0.1-0.1c-0.5-0.9-1-1.9-1.6-2.7c-0.1-0.1-0.1-0.2-0.2-0.2c-0.2-0.3-0.5-0.7-0.8-1
	c-0.1-0.1-0.1-0.2-0.2-0.3c-0.3-0.4-0.6-0.8-1-1.1c-0.1-0.1-0.2-0.2-0.2-0.2c-0.3-0.3-0.5-0.6-0.8-0.8c-0.1-0.1-0.2-0.2-0.3-0.3
	c-0.3-0.3-0.6-0.6-1-0.9c0,0-0.1-0.1-0.1-0.1c-0.4-0.3-0.8-0.6-1.2-0.9c-0.1-0.1-0.2-0.1-0.3-0.2c-0.4-0.3-0.8-0.5-1.2-0.8
	c0,0-0.1-0.1-0.1-0.1c-0.5-0.3-1-0.6-1.5-0.8c0,0,0,0,0,0l-231-122c-7.3-3.9-16-3.9-23.4,0l-231,122c-8.2,4.3-13.3,12.8-13.3,22.1
	s5.1,17.8,13.3,22.1L90.5,256v119.4c0,4.4,1.1,8.7,3.3,12.5c1.8,3.2,46.5,78.5,160.7,78.5c128.8,0,164.4-77.6,165.9-80.9
	c1.4-3.2,2.1-6.6,2.1-10.1V256l40-21.1v138.5c0,13.8,11.2,25,25,25s25-11.2,25-25v-180C512.5,192.8,512.5,192.3,512.4,191.8z
	 M372.5,368.9c-7.7,11.6-37.9,47.5-118,47.5c-69.8,0-103.7-35.4-114-48.8v-85.2l104.3,55.1c3.7,1.9,7.7,2.9,11.7,2.9s8-1,11.7-2.9
	l104.3-55.1V368.9z M256.5,287.1L79,193.4l177.5-93.7L434,193.4L256.5,287.1z"/>
</svg>
