<svg xmlns="http://www.w3.org/2000/svg" width="512" height="512"><path d="M167.057 244.419c-19.895 0-36.08 16.186-36.08 36.081s16.186 36.081 36.08 36.081c19.895 0 36.081-16.186 36.081-36.081s-16.185-36.081-36.081-36.081zm0 57.162c-11.624 0-21.08-9.457-21.08-21.081s9.457-21.081 21.08-21.081c11.624 0 21.081 9.457 21.081 21.081s-9.456 21.081-21.081 21.081zM255.997 244.419c-19.895 0-36.081 16.186-36.081 36.081s16.186 36.081 36.081 36.081 36.081-16.186 36.081-36.081-16.186-36.081-36.081-36.081zm0 57.162c-11.624 0-21.081-9.457-21.081-21.081s9.457-21.081 21.081-21.081 21.081 9.457 21.081 21.081-9.457 21.081-21.081 21.081zM344.936 244.419c-19.895 0-36.081 16.186-36.081 36.081s16.186 36.081 36.081 36.081 36.08-16.186 36.08-36.081-16.185-36.081-36.08-36.081zm0 57.162c-11.624 0-21.081-9.457-21.081-21.081s9.457-21.081 21.081-21.081 21.08 9.457 21.08 21.081-9.456 21.081-21.08 21.081z"/><path d="M448.517 308.481c2.029-97.348-37.746-216.216-115.791-278.641C307.972 10.04 282.156 0 255.997 0s-51.975 10.04-76.729 29.839c-22.216 17.77-42.618 42.552-60.637 73.656-34.578 59.688-55.221 133.998-55.221 198.78 0 73.311 30.221 147.135 95.945 184.82 8.412 4.825 15.873-8.189 7.461-13.013-19.957-11.443-37.324-27.107-51.115-45.957 4.479 1.336 7.73 3.678 11.478 6.39 18.505 13.39 40.04 13.39 58.545 0 13.24-9.58 27.657-9.626 40.96 0 18.506 13.39 40.041 13.39 58.547 0 13.241-9.581 27.66-9.625 40.964 0 18.509 13.389 40.044 13.389 58.552 0 3.792-2.743 7.076-5.106 11.636-6.434a168.748 168.748 0 0 1-14.904 17.728C349.596 478.82 305.032 497 255.997 497c-17.35 0-34.26-2.257-50.261-6.709-9.341-2.596-13.364 11.851-4.021 14.451 17.31 4.816 35.572 7.258 54.282 7.258 53.141 0 101.536-19.806 136.271-55.77 38.608-39.973 54.108-93.352 56.249-147.749zM324.276 184.36H98.979a430.068 430.068 0 0 1 5.305-15.03H407.71a429.343 429.343 0 0 1 5.305 15.03h-43.721c-9.697 0-9.697 15 0 15h48.414a428.81 428.81 0 0 1 4.096 15.03H90.191a428.81 428.81 0 0 1 4.096-15.03h229.989c9.697 0 9.697-15 0-15zm109.301 117.205c-11.485-.162-20.782-9.542-20.782-21.065 0-10.512 7.742-19.226 17.819-20.802 1.913 14.326 2.929 28.381 2.963 41.867zM81.38 259.698c10.076 1.576 17.819 10.29 17.819 20.802 0 11.523-9.297 20.904-20.782 21.065.034-13.486 1.05-27.541 2.963-41.867zm-2.602 56.866c19.59-.354 35.421-16.39 35.421-36.064 0-18.007-13.259-32.973-30.526-35.652a399.818 399.818 0 0 1 2.997-15.458h338.657a403.65 403.65 0 0 1 2.997 15.458c-17.267 2.679-30.526 17.646-30.526 35.652 0 19.671 15.825 35.704 35.411 36.064-.273 5.283-.7 10.485-1.278 15.603H80.056a257.264 257.264 0 0 1-1.278-15.603zm109.86-275.011C210.665 23.934 233.328 15 255.997 15s45.332 8.934 67.359 26.553a175.481 175.481 0 0 1 11.009 9.618c-5.626 2.14-9.717 5.292-13.284 8.056-12.062 9.347-25.134 9.402-37.268 0-17.491-13.554-38.151-13.555-55.642 0-5.355 4.15-9.584 7.428-18.631 7.428s-13.276-3.278-18.631-7.428c-3.566-2.764-7.656-5.915-13.282-8.055a176.099 176.099 0 0 1 11.011-9.619zm-57.028 69.462c10.353-17.871 21.796-33.822 33.828-47.271 7.467.525 11.417 3.568 16.283 7.339 17.49 13.554 38.15 13.556 55.639 0 12.061-9.347 25.132-9.4 37.265 0 17.491 13.555 38.153 13.555 55.644 0 4.867-3.771 8.817-6.814 16.286-7.339 12.032 13.449 23.475 29.4 33.828 47.271 7.883 13.608 15.04 28.183 21.379 43.315H110.231c6.339-15.132 13.496-29.707 21.379-43.315zm273.621 300.924c-14.869 0-22.857 5.779-29.276 10.423-13.242 9.581-27.663 9.626-40.968 0-18.508-13.389-40.042-13.39-58.549 0-13.24 9.58-27.658 9.626-40.961 0-18.506-13.39-40.041-13.391-58.546 0-13.24 9.58-27.656 9.625-40.959 0-8.163-5.907-20.083-12.312-30.687-10.286-11.499-20.027-19.017-42.209-23.049-64.911H429.76c-4.235 23.879-11.958 45.683-23.008 64.928-.492-.1-1-.154-1.521-.154z"/></svg>