<?xml version="1.0" encoding="utf-8"?>
<!-- Generator: Adobe Illustrator 24.0.1, SVG Export Plug-In . SVG Version: 6.00 Build 0)  -->
<svg version="1.1" id="Capa_1" xmlns="http://www.w3.org/2000/svg" xmlns:xlink="http://www.w3.org/1999/xlink" x="0px" y="0px"
	 viewBox="0 0 512 512" style="enable-background:new 0 0 512 512;" xml:space="preserve">
<path d="M454.3,93l49.8-49.8c9.8-9.8,9.8-25.6,0-35.4c-9.8-9.8-25.6-9.8-35.4,0L419,57.7C373.3,20,316.5-0.5,256.5-0.5
	c-68.4,0-132.7,26.6-181,75s-75,112.6-75,181c0,60,20.5,116.8,58.2,162.5L6.8,469.8c-9.8,9.8-9.8,25.6,0,35.4
	c4.9,4.9,11.3,7.3,17.7,7.3s12.8-2.4,17.7-7.3L94,453.3c45.7,37.7,102.5,58.2,162.5,58.2c68.4,0,132.7-26.6,181-75
	c48.4-48.4,75-112.6,75-181C512.5,195.5,492,138.7,454.3,93z M50.5,255.5c0-113.6,92.4-206,206-206c47.8,0,91.9,16.4,126.8,43.8
	L94.3,382.3C66.9,347.4,50.5,303.3,50.5,255.5z M256.5,461.5c-47.8,0-91.9-16.4-126.8-43.8l289.1-289.1c27.4,35,43.8,79,43.8,126.8
	C462.5,369.1,370.1,461.5,256.5,461.5z"/>
</svg>
