<?xml version="1.0" encoding="iso-8859-1"?>
<!-- Generator: Adobe Illustrator 19.0.0, SVG Export Plug-In . SVG Version: 6.00 Build 0)  -->
<svg version="1.1" id="Layer_1" xmlns="http://www.w3.org/2000/svg" xmlns:xlink="http://www.w3.org/1999/xlink" x="0px" y="0px"
	 viewBox="0 0 492 492" style="enable-background:new 0 0 492 492;" xml:space="preserve">
<path d="M427,40H65C29.159,40,0,69.159,0,105v282c0,35.841,29.159,65,65,65h362c35.841,0,65-29.159,65-65V105
	C492,69.159,462.841,40,427,40z M406.645,90L256.606,240.038c-5.849,5.848-15.364,5.849-21.213,0L85.355,90H406.645z M427,402H65
	c-8.271,0-15-6.729-15-15V125.356l150.038,150.038c12.672,12.672,29.316,19.007,45.962,19.007s33.29-6.336,45.962-19.007
	L442,125.355V387C442,395.271,435.271,402,427,402z"/>
<g>
</g>
<g>
</g>
<g>
</g>
<g>
</g>
<g>
</g>
<g>
</g>
<g>
</g>
<g>
</g>
<g>
</g>
<g>
</g>
<g>
</g>
<g>
</g>
<g>
</g>
<g>
</g>
<g>
</g>
</svg>
