<?xml version="1.0" encoding="iso-8859-1"?>
<!-- Generator: Adobe Illustrator 19.0.0, SVG Export Plug-In . SVG Version: 6.00 Build 0)  -->
<svg version="1.1" id="Layer_1" xmlns="http://www.w3.org/2000/svg" xmlns:xlink="http://www.w3.org/1999/xlink" x="0px" y="0px"
	 viewBox="-49 141 512 512" style="enable-background:new -49 141 512 512;" xml:space="preserve">
<path d="M388,191H26c-35.841,0-65,29.159-65,65v282c0,35.841,29.159,65,65,65h362c35.841,0,65-29.159,65-65V256
	C453,220.159,423.841,191,388,191z M367.645,241L217.606,391.038c-5.849,5.848-15.364,5.849-21.213,0L46.355,241H367.645z M388,553
	H26c-8.271,0-15-6.729-15-15V276.356l150.038,150.038c12.672,12.672,29.316,19.007,45.962,19.007s33.29-6.336,45.962-19.007
	L403,276.355V538C403,546.271,396.271,553,388,553z"/>
</svg>
