<?xml version="1.0" encoding="utf-8"?>
<!-- Generator: Adobe Illustrator 24.0.1, SVG Export Plug-In . SVG Version: 6.00 Build 0)  -->
<svg version="1.1" id="Capa_1" xmlns="http://www.w3.org/2000/svg" xmlns:xlink="http://www.w3.org/1999/xlink" x="0px" y="0px"
	 viewBox="0 0 512 512" style="enable-background:new 0 0 512 512;" xml:space="preserve">
<g>
	<path d="M430.5,226.5c-13.8,0-25,11.2-25,25v189c0,8.3-6.7,15-15,15h-319c-8.3,0-15-6.7-15-15v-319c0-8.3,6.7-15,15-15h189
		c13.8,0,25-11.2,25-25s-11.2-25-25-25h-189c-35.8,0-65,29.2-65,65v319c0,35.8,29.2,65,65,65h319c35.8,0,65-29.2,65-65v-189
		C455.5,237.7,444.3,226.5,430.5,226.5z"/>
	<path d="M505.5,31.3c0-0.4,0-0.7,0-1.1c0-0.2,0-0.4,0-0.6c0-0.2,0-0.4,0-0.6c0-0.3-0.1-0.5-0.1-0.8c0-0.1,0-0.3-0.1-0.4
		c0-0.3-0.1-0.5-0.1-0.8c0-0.1,0-0.3-0.1-0.4c-0.1-0.3-0.1-0.5-0.2-0.8c0-0.1-0.1-0.3-0.1-0.4c-0.1-0.3-0.1-0.5-0.2-0.8
		c0-0.1-0.1-0.3-0.1-0.4c-0.1-0.2-0.2-0.5-0.2-0.7c-0.1-0.2-0.1-0.3-0.2-0.5c-0.1-0.2-0.2-0.4-0.2-0.6c-0.1-0.2-0.1-0.4-0.2-0.5
		c-0.1-0.2-0.2-0.4-0.2-0.5c-0.1-0.2-0.2-0.4-0.3-0.6c-0.1-0.2-0.2-0.3-0.2-0.5c-0.1-0.2-0.2-0.4-0.3-0.6c-0.1-0.1-0.1-0.3-0.2-0.4
		c-0.1-0.2-0.3-0.4-0.4-0.7c-0.1-0.1-0.2-0.2-0.2-0.4c-0.1-0.2-0.3-0.4-0.4-0.7c-0.1-0.1-0.2-0.2-0.3-0.4c-0.1-0.2-0.3-0.4-0.4-0.6
		c-0.1-0.1-0.2-0.3-0.3-0.4c-0.1-0.2-0.3-0.4-0.4-0.6c-0.1-0.2-0.3-0.3-0.4-0.5c-0.1-0.1-0.2-0.3-0.4-0.4c-0.6-0.6-1.1-1.2-1.8-1.8
		c-0.1-0.1-0.3-0.2-0.4-0.4c-0.2-0.1-0.3-0.3-0.5-0.4c-0.2-0.2-0.4-0.3-0.6-0.4c-0.1-0.1-0.3-0.2-0.4-0.3c-0.2-0.2-0.4-0.3-0.6-0.5
		c-0.1-0.1-0.2-0.2-0.3-0.2c-0.2-0.2-0.5-0.3-0.7-0.4c-0.1-0.1-0.2-0.1-0.3-0.2c-0.2-0.1-0.5-0.3-0.7-0.4c-0.1-0.1-0.3-0.1-0.4-0.2
		c-0.2-0.1-0.4-0.2-0.7-0.3c-0.1-0.1-0.3-0.1-0.4-0.2c-0.2-0.1-0.4-0.2-0.6-0.3c-0.2-0.1-0.3-0.2-0.5-0.2c-0.2-0.1-0.4-0.1-0.6-0.2
		c-0.2-0.1-0.4-0.2-0.6-0.2c-0.2-0.1-0.3-0.1-0.5-0.2c-0.2-0.1-0.4-0.1-0.7-0.2c-0.2,0-0.3-0.1-0.5-0.1c-0.2-0.1-0.5-0.1-0.7-0.2
		c-0.1,0-0.3-0.1-0.4-0.1c-0.2-0.1-0.5-0.1-0.8-0.2c-0.2,0-0.3-0.1-0.5-0.1c-0.2,0-0.5-0.1-0.7-0.1c-0.2,0-0.4,0-0.5-0.1
		c-0.2,0-0.4-0.1-0.7-0.1c-0.2,0-0.5,0-0.7-0.1c-0.2,0-0.3,0-0.5,0c-0.4,0-0.8,0-1.3,0h-130c-13.8,0-25,11.2-25,25s11.2,25,25,25
		h69.6L195.8,280.8c-9.8,9.8-9.8,25.6,0,35.4c4.9,4.9,11.3,7.3,17.7,7.3s12.8-2.4,17.7-7.3L455.5,91.9v69.6c0,13.8,11.2,25,25,25
		s25-11.2,25-25v-130C505.5,31.4,505.5,31.4,505.5,31.3z"/>
</g>
</svg>
