<svg xmlns="http://www.w3.org/2000/svg" viewBox="-49 141 512 512"><path d="M459.778 384.697c-17.437-30.935-40.429-58.381-67.612-80.966l-35.575 35.575a240.169 240.169 0 0 1 52.219 57.667C364.779 465.214 288.718 507.049 207 507.049c-5.867 0-11.704-.223-17.503-.648l-44.054 44.054A290.776 290.776 0 0 0 207 557.05c52.374 0 103.708-14.122 148.454-40.84 43.422-25.928 79.497-62.914 104.324-106.959a25 25 0 0 0 0-24.554zM207 446.973c27.57 0 50-22.43 50-50 0-4.474-.599-8.809-1.707-12.938l150.385-150.384c9.763-9.763 9.763-25.593 0-35.355-9.764-9.764-25.592-9.764-35.355 0l-58.269 58.269A290.24 290.24 0 0 0 207 236.898c-52.374 0-103.708 14.122-148.454 40.84-43.422 25.928-79.497 62.914-104.324 106.959a25.004 25.004 0 0 0 0 24.553c24.096 42.748 58.789 78.845 100.509 104.638L8.323 560.296c-9.763 9.763-9.763 25.593 0 35.355 9.917 9.917 25.605 9.75 35.355 0l150.385-150.385A49.835 49.835 0 0 0 207 446.973zm-201.811-50C49.221 328.733 125.282 286.898 207 286.898a239.05 239.05 0 0 1 65.546 9.174l-52.609 52.608A49.883 49.883 0 0 0 207 346.973c-27.57 0-50 22.43-50 50 0 4.474.599 8.809 1.707 12.938l-67.351 67.351c-34.476-18.977-64.28-46.368-86.167-80.289z"/></svg>