<?xml version="1.0" encoding="iso-8859-1"?>
<!-- Generator: Adobe Illustrator 19.0.0, SVG Export Plug-In . SVG Version: 6.00 Build 0)  -->
<svg version="1.1" id="Layer_1" xmlns="http://www.w3.org/2000/svg" xmlns:xlink="http://www.w3.org/1999/xlink" x="0px" y="0px"
	 viewBox="-49 141 512 512" style="enable-background:new -49 141 512 512;" xml:space="preserve">
<g>
	<path d="M459.778,384.697c-17.437-30.935-40.429-58.381-67.612-80.966l-35.575,35.575c20.189,16.077,37.899,35.474,52.219,57.667
		C364.779,465.214,288.718,507.049,207,507.049c-5.867,0-11.704-0.223-17.503-0.648l-44.054,44.054
		c20.124,4.359,40.757,6.595,61.557,6.595c52.374,0,103.708-14.122,148.454-40.84c43.422-25.928,79.497-62.914,104.324-106.959
		C464.074,401.629,464.074,392.318,459.778,384.697z"/>
	<path d="M207,446.973c27.57,0,50-22.43,50-50c0-4.474-0.599-8.809-1.707-12.938l150.385-150.384c9.763-9.763,9.763-25.593,0-35.355
		c-9.764-9.764-25.592-9.764-35.355,0l-58.269,58.269c-33.311-12.936-68.933-19.667-105.054-19.667
		c-52.374,0-103.708,14.122-148.454,40.84c-43.422,25.928-79.497,62.914-104.324,106.959c-4.295,7.621-4.295,16.932,0,24.553
		c24.096,42.748,58.789,78.845,100.509,104.638L8.323,560.296c-9.763,9.763-9.763,25.593,0,35.355c9.917,9.917,25.605,9.75,35.355,0
		l150.385-150.385C198.191,446.374,202.526,446.973,207,446.973z M5.189,396.973C49.221,328.733,125.282,286.898,207,286.898
		c22.46,0,44.488,3.173,65.546,9.174l-52.609,52.608c-4.129-1.107-8.463-1.707-12.937-1.707c-27.57,0-50,22.43-50,50
		c0,4.474,0.599,8.809,1.707,12.938l-67.351,67.351C56.88,458.285,27.076,430.894,5.189,396.973z"/>
</g>
</svg>
