<?xml version="1.0" encoding="iso-8859-1"?>
<!-- Generator: Adobe Illustrator 19.0.0, SVG Export Plug-In . SVG Version: 6.00 Build 0)  -->
<svg version="1.1" id="Layer_1" xmlns="http://www.w3.org/2000/svg" xmlns:xlink="http://www.w3.org/1999/xlink" x="0px" y="0px"
	 viewBox="0 0 512 512" style="enable-background:new 0 0 512 512;" xml:space="preserve">
<g>
	<path d="M508.778,243.697c-17.437-30.935-40.429-58.381-67.612-80.966l-35.575,35.575c20.189,16.076,37.899,35.474,52.219,57.667
		C413.779,324.214,337.718,366.049,256,366.049c-5.867,0-11.704-0.223-17.503-0.648l-44.054,44.054
		c20.124,4.359,40.757,6.595,61.557,6.595c52.374,0,103.708-14.122,148.454-40.84c43.422-25.928,79.497-62.914,104.324-106.959
		C513.074,260.629,513.074,251.318,508.778,243.697z"/>
	<path d="M256,305.974c27.57,0,50-22.43,50-50c0-4.474-0.599-8.809-1.707-12.938L454.678,92.651c9.763-9.763,9.763-25.593,0-35.355
		c-9.764-9.764-25.592-9.764-35.355,0l-58.269,58.269C327.743,102.629,292.121,95.898,256,95.898
		c-52.374,0-103.708,14.122-148.454,40.84C64.124,162.666,28.049,199.652,3.222,243.697c-4.295,7.621-4.295,16.932,0,24.553
		c24.096,42.748,58.789,78.845,100.509,104.638l-46.408,46.408c-9.763,9.763-9.763,25.593,0,35.355
		c9.917,9.917,25.605,9.75,35.355,0l150.385-150.385C247.191,305.374,251.526,305.974,256,305.974z M54.189,255.974
		C98.221,187.733,174.282,145.898,256,145.898c22.46,0,44.488,3.173,65.546,9.174l-52.609,52.608
		c-4.129-1.107-8.464-1.707-12.938-1.707c-27.57,0-50,22.43-50,50c0,4.474,0.599,8.809,1.707,12.938l-67.351,67.351
		C105.88,317.285,76.076,289.895,54.189,255.974z"/>
</g>
<g>
</g>
<g>
</g>
<g>
</g>
<g>
</g>
<g>
</g>
<g>
</g>
<g>
</g>
<g>
</g>
<g>
</g>
<g>
</g>
<g>
</g>
<g>
</g>
<g>
</g>
<g>
</g>
<g>
</g>
</svg>
