<?xml version="1.0" encoding="iso-8859-1"?>
<!-- Generator: Adobe Illustrator 19.0.0, SVG Export Plug-In . SVG Version: 6.00 Build 0)  -->
<svg version="1.1" id="Layer_1" xmlns="http://www.w3.org/2000/svg" xmlns:xlink="http://www.w3.org/1999/xlink" x="0px" y="0px"
	 viewBox="0 0 512 512" style="enable-background:new 0 0 512 512;" xml:space="preserve">
<g>
	<g>
		<path d="M256,306c-27.57,0-50-22.43-50-50s22.43-50,50-50s50,22.43,50,50S283.571,306,256,306z"/>
	</g>
	<g>
		<path d="M256,416.075c-52.374,0-103.709-14.122-148.454-40.84C64.124,349.308,28.049,312.322,3.222,268.277
			c-4.296-7.621-4.296-16.932,0-24.553c24.827-44.045,60.902-81.031,104.324-106.959c44.745-26.718,96.08-40.84,148.454-40.84
			s103.709,14.122,148.454,40.84c43.422,25.928,79.497,62.914,104.324,106.959c4.296,7.621,4.296,16.932,0,24.553
			c-24.827,44.045-60.902,81.031-104.324,106.959C359.709,401.953,308.374,416.075,256,416.075z M54.19,256
			C98.221,324.24,174.282,366.075,256,366.075S413.78,324.24,457.811,256C413.78,187.76,337.718,145.925,256,145.925
			S98.221,187.76,54.19,256z"/>
	</g>
</g>
<g>
</g>
<g>
</g>
<g>
</g>
<g>
</g>
<g>
</g>
<g>
</g>
<g>
</g>
<g>
</g>
<g>
</g>
<g>
</g>
<g>
</g>
<g>
</g>
<g>
</g>
<g>
</g>
<g>
</g>
</svg>
