<svg xmlns="http://www.w3.org/2000/svg" viewBox="-49 141 512 512"><path d="M207 447c-27.57 0-50-22.43-50-50s22.43-50 50-50 50 22.43 50 50-22.429 50-50 50z"/><path d="M207 557.075c-52.374 0-103.709-14.122-148.454-40.84-43.422-25.927-79.497-62.914-104.324-106.958a24.999 24.999 0 0 1 0-24.553c24.827-44.045 60.902-81.031 104.324-106.959 44.745-26.718 96.08-40.84 148.454-40.84s103.709 14.122 148.454 40.84c43.422 25.928 79.497 62.914 104.324 106.959a24.999 24.999 0 0 1 0 24.553c-24.827 44.045-60.902 81.031-104.324 106.959-44.745 26.717-96.08 40.839-148.454 40.839zM5.19 397C49.221 465.24 125.282 507.075 207 507.075S364.779 465.24 408.811 397C364.78 328.76 288.718 286.925 207 286.925S49.221 328.76 5.19 397z"/></svg>