<?xml version="1.0" encoding="iso-8859-1"?>
<!-- Generator: Adobe Illustrator 19.0.0, SVG Export Plug-In . SVG Version: 6.00 Build 0)  -->
<svg version="1.1" id="Layer_1" xmlns="http://www.w3.org/2000/svg" xmlns:xlink="http://www.w3.org/1999/xlink" x="0px" y="0px"
	 viewBox="-49 141 512 512" style="enable-background:new -49 141 512 512;" xml:space="preserve">
<g>
	<g>
		<path d="M207,447c-27.57,0-50-22.43-50-50s22.43-50,50-50s50,22.43,50,50S234.571,447,207,447z"/>
	</g>
	<g>
		<path d="M207,557.075c-52.374,0-103.709-14.122-148.454-40.84c-43.422-25.927-79.497-62.914-104.324-106.958
			c-4.296-7.621-4.296-16.932,0-24.553c24.827-44.045,60.902-81.031,104.324-106.959c44.745-26.718,96.08-40.84,148.454-40.84
			s103.709,14.122,148.454,40.84c43.422,25.928,79.497,62.914,104.324,106.959c4.296,7.621,4.296,16.932,0,24.553
			c-24.827,44.045-60.902,81.031-104.324,106.959C310.709,542.953,259.374,557.075,207,557.075z M5.19,397
			C49.221,465.24,125.282,507.075,207,507.075S364.779,465.24,408.811,397C364.78,328.76,288.718,286.925,207,286.925
			S49.221,328.76,5.19,397z"/>
	</g>
</g>
</svg>
