<?xml version="1.0" encoding="iso-8859-1"?>
<!-- Generator: Adobe Illustrator 19.0.0, SVG Export Plug-In . SVG Version: 6.00 Build 0)  -->
<svg version="1.1" id="Layer_1" xmlns="http://www.w3.org/2000/svg" xmlns:xlink="http://www.w3.org/1999/xlink" x="0px" y="0px"
	 viewBox="0 0 340 340" style="enable-background:new 0 0 340 340;" xml:space="preserve">
<g>
	<g>
		<g>
			<path style="fill:#231F20;" d="M198.221,332.273V169.98h43.394c3.93,0,7.234-2.949,7.678-6.854l4.907-43.135
				c0.522-4.584-3.064-8.601-7.678-8.601h-48.301l0.085-29.325c0-15.281,1.556-23.469,25.075-23.469h23.713
				c4.268,0,7.727-3.46,7.727-7.727V7.727c0-4.268-3.46-7.727-7.727-7.727h-42.572c-60.418,0-81.683,28.422-81.683,76.22v35.177
				H92.905c-4.268,0-7.727,3.46-7.727,7.727v43.135c0,4.268,3.46,7.727,7.727,7.727h29.933v162.286c0,4.268,3.46,7.727,7.727,7.727
				h59.927C194.761,340,198.221,336.54,198.221,332.273z"/>
		</g>
	</g>
</g>
<g>
</g>
<g>
</g>
<g>
</g>
<g>
</g>
<g>
</g>
<g>
</g>
<g>
</g>
<g>
</g>
<g>
</g>
<g>
</g>
<g>
</g>
<g>
</g>
<g>
</g>
<g>
</g>
<g>
</g>
</svg>
