<svg xmlns="http://www.w3.org/2000/svg" viewBox="0 0 340 340"><path d="M198.221 332.273V169.98h43.394a7.727 7.727 0 0 0 7.678-6.854l4.907-43.135c.522-4.584-3.064-8.601-7.678-8.601h-48.301l.085-29.325c0-15.281 1.556-23.469 25.075-23.469h23.713a7.727 7.727 0 0 0 7.727-7.727V7.727A7.727 7.727 0 0 0 247.094 0h-42.572c-60.418 0-81.683 28.422-81.683 76.22v35.177H92.905a7.727 7.727 0 0 0-7.727 7.727v43.135a7.727 7.727 0 0 0 7.727 7.727h29.933v162.286a7.727 7.727 0 0 0 7.727 7.727h59.927a7.727 7.727 0 0 0 7.729-7.726z" fill="#231f20"/></svg>