<svg xmlns="http://www.w3.org/2000/svg" width="512" height="512" viewBox="0 0 512.001 512.001"><path d="M508.668 129.523a7.498 7.498 0 0 0-8.719.275c-53.059 40.513-102.795 92.939-144.696 152.373a7.5 7.5 0 0 0-12.853-1.931c-18.257 22.957-34.973 49.746-49.153 78.622l27.973-140.631a7.5 7.5 0 1 0-14.712-2.926l-18.964 95.337c-.023-32.489-1.901-64.758-5.503-96.072 15.967-64.29 38.71-124.148 67.712-178.273 6.687 67.95 3.487 141.263-9.416 213.534a7.5 7.5 0 1 0 14.767 2.637c14.639-81.994 17.009-165.368 6.854-241.111a7.5 7.5 0 0 0-13.92-2.769c-29.629 51.037-53.521 107.474-71.276 168.141-3.628-22.015-8.128-43.378-13.509-63.768a7.5 7.5 0 0 0-14.504 0c-5.381 20.389-9.881 41.752-13.509 63.767-17.753-60.664-41.645-117.099-71.276-168.141a7.499 7.499 0 0 0-13.92 2.769c-10.873 81.096-7.405 170.288 10.029 257.936a843.87 843.87 0 0 0 1.716 8.39 7.504 7.504 0 0 0-.927.297 7.495 7.495 0 0 0-4.113 4.192c-41.901-59.435-91.637-111.86-144.696-152.374a7.502 7.502 0 0 0-11.801 7.885c14.757 55.602 38.816 112.73 70.107 166.757a380.047 380.047 0 0 0-15.217-7.615 7.498 7.498 0 0 0-9.981 9.981c20.208 42.867 50.121 84.756 86.504 121.138a461.157 461.157 0 0 0 5.465 5.369c-34.54-12.865-69.838-21.583-103.035-25.369a7.5 7.5 0 0 0-5.518 13.322c30.333 24.122 67.347 45.563 107.042 62.005a496.52 496.52 0 0 0 24.953 9.542 96.674 96.674 0 0 0-.247 6.835 7.5 7.5 0 0 0 15 0c0-44.485 36.192-80.677 80.677-80.677s80.677 36.192 80.677 80.677a7.5 7.5 0 0 0 15 0c0-2.298-.087-4.575-.247-6.833a496.494 496.494 0 0 0 24.953-9.544c39.695-16.442 76.709-37.883 107.041-62.005a7.5 7.5 0 0 0-5.518-13.322c-33.198 3.786-68.496 12.504-103.036 25.369a477.235 477.235 0 0 0 5.466-5.37c36.383-36.382 66.296-78.271 86.504-121.138a7.5 7.5 0 0 0-9.981-9.981 378.435 378.435 0 0 0-15.203 7.599c31.28-54.013 55.342-111.158 70.093-166.74a7.501 7.501 0 0 0-3.083-8.159zM336.065 314.372c-5.556 28.075-14.39 57.036-26.047 85.18a481.491 481.491 0 0 1-7.269 16.645 95.252 95.252 0 0 0-14.937-6.781 483.356 483.356 0 0 1 6.441-16.394c11.657-28.145 25.889-54.869 41.812-78.65zM209.249 416.198a483.963 483.963 0 0 1-7.266-16.647c-11.658-28.144-20.491-57.104-26.047-85.18 15.923 23.781 30.155 50.505 41.813 78.649a481.987 481.987 0 0 1 6.44 16.394 95.39 95.39 0 0 0-14.94 6.784zM162.246 36.293c29.006 54.131 51.748 113.992 67.714 178.282-3.601 31.313-5.479 63.579-5.502 96.066l-18.964-95.337a7.5 7.5 0 0 0-14.712 2.926l27.973 140.631c-11.137-22.681-23.846-44.058-37.632-63.317a858.119 858.119 0 0 1-6.338-29.18c-15.485-77.842-19.756-156.866-12.539-230.071zm-20.889 433.12c-28.145-11.658-54.869-25.89-78.65-41.813 28.075 5.556 57.035 14.389 85.18 26.047a481.482 481.482 0 0 1 19.96 8.81 94.843 94.843 0 0 0-4.986 15.265 481.23 481.23 0 0 1-21.504-8.309zm34.372-21.769a455.998 455.998 0 0 1-33.458-30.306c-29.363-29.363-54.344-62.387-73.129-96.536a399.532 399.532 0 0 1 27.766 16.78c3.456 2.283 8.109 1.333 10.392-2.124s1.333-8.108-2.124-10.392a420.653 420.653 0 0 0-7.899-5.078C64.289 267.574 38.225 211.435 21.181 156.23c49.457 40.98 95.417 92.408 133.851 149.927.759 1.136 3.251 4.914 5.712 8.653 3.869 20.185 9.382 40.814 16.375 61.301l-60.826-91.033a7.5 7.5 0 0 0-12.472 8.334l40.731 60.958a453.794 453.794 0 0 0-12.226-9.836 7.5 7.5 0 1 0-9.192 11.854c14.758 11.445 29.071 24.079 42.541 37.548a457.008 457.008 0 0 1 29.226 32.146 96.361 96.361 0 0 0-19.172 21.562zm68.917-42.996c-3.434-30.426-5.194-61.81-5.194-93.378 0-56.719 5.687-112.757 16.548-163.941 10.862 51.184 16.548 107.222 16.548 163.941 0 31.572-1.761 62.952-5.195 93.378a96.288 96.288 0 0 0-11.354-.677c-3.84.001-7.628.235-11.353.677zm125.998 64.765a481.606 481.606 0 0 1-21.507 8.303 94.973 94.973 0 0 0-4.983-15.257 482.853 482.853 0 0 1 19.96-8.812c28.145-11.658 57.105-20.492 85.18-26.047-23.781 15.924-50.505 30.155-78.65 41.813zm-.913-52.075a456.672 456.672 0 0 1-33.458 30.307 96.457 96.457 0 0 0-19.173-21.566 457.009 457.009 0 0 1 29.228-32.144c29.359-29.359 62.384-54.34 96.528-73.125-18.785 34.144-43.767 67.169-73.125 96.528zm44.995-97.334c-16.23 10.226-32.087 21.753-47.3 34.401l40.755-60.994a7.5 7.5 0 0 0-12.472-8.334l-60.826 91.033c6.988-20.474 12.499-41.09 16.368-61.262 1.881-2.9 3.803-5.822 5.719-8.691 38.434-57.52 84.393-108.947 133.851-149.927-17.045 55.206-43.111 111.374-76.095 163.774z"/></svg>