<svg id="Capa_1" enable-background="new 0 0 512.001 512.001" height="512" viewBox="0 0 512.001 512.001" width="512" xmlns="http://www.w3.org/2000/svg"><path d="m508.668 129.523c-2.667-1.782-6.17-1.672-8.719.275-53.059 40.513-102.795 92.939-144.696 152.373-.727-1.853-2.181-3.392-4.113-4.192-3.092-1.28-6.658-.358-8.74 2.261-18.257 22.957-34.973 49.746-49.153 78.622l27.973-140.631c.808-4.063-1.83-8.011-5.893-8.819-4.067-.806-8.011 1.831-8.819 5.893l-18.964 95.337c-.023-32.489-1.901-64.758-5.503-96.072 15.967-64.29 38.71-124.148 67.712-178.273 6.687 67.95 3.487 141.263-9.416 213.534-.728 4.078 1.987 7.974 6.065 8.702.446.08.889.118 1.327.118 3.564 0 6.726-2.552 7.375-6.183 14.639-81.994 17.009-165.368 6.854-241.111-.426-3.178-2.826-5.734-5.97-6.359-3.147-.626-6.34.818-7.95 3.59-29.629 51.037-53.521 107.474-71.276 168.141-3.628-22.015-8.128-43.378-13.509-63.768-.869-3.292-3.847-5.586-7.252-5.586s-6.383 2.294-7.252 5.586c-5.381 20.389-9.881 41.752-13.509 63.767-17.753-60.664-41.645-117.099-71.276-168.141-1.61-2.773-4.803-4.213-7.95-3.59-3.145.625-5.544 3.181-5.97 6.359-10.873 81.096-7.405 170.288 10.029 257.936.555 2.792 1.13 5.591 1.716 8.39-.311.084-.623.171-.927.297-1.932.8-3.386 2.339-4.113 4.192-41.901-59.435-91.637-111.86-144.696-152.374-2.549-1.946-6.052-2.056-8.719-.275-2.666 1.781-3.905 5.061-3.082 8.16 14.757 55.602 38.816 112.73 70.107 166.757-5.06-2.668-10.135-5.22-15.217-7.615-2.863-1.351-6.264-.758-8.501 1.48-2.238 2.238-2.83 5.639-1.48 8.501 20.208 42.867 50.121 84.756 86.504 121.138 1.805 1.806 3.63 3.593 5.465 5.369-34.54-12.865-69.838-21.583-103.035-25.369-3.326-.38-6.498 1.49-7.779 4.582-1.28 3.091-.358 6.657 2.261 8.74 30.333 24.122 67.347 45.563 107.042 62.005 8.236 3.411 16.607 6.602 24.953 9.542-.16 2.258-.247 4.537-.247 6.835 0 4.142 3.358 7.5 7.5 7.5s7.5-3.358 7.5-7.5c0-44.485 36.192-80.677 80.677-80.677s80.677 36.192 80.677 80.677c0 4.142 3.358 7.5 7.5 7.5s7.5-3.358 7.5-7.5c0-2.298-.087-4.575-.247-6.833 8.352-2.942 16.719-6.134 24.953-9.544 39.695-16.442 76.709-37.883 107.041-62.005 2.619-2.083 3.542-5.649 2.261-8.74s-4.457-4.962-7.779-4.582c-33.198 3.786-68.496 12.504-103.036 25.369 1.835-1.777 3.66-3.564 5.466-5.37 36.383-36.382 66.296-78.271 86.504-121.138 1.35-2.862.757-6.264-1.48-8.501s-5.639-2.831-8.501-1.48c-5.084 2.397-10.154 4.935-15.203 7.599 31.28-54.013 55.342-111.158 70.093-166.74.821-3.099-.417-6.378-3.083-8.159zm-172.603 184.849c-5.556 28.075-14.39 57.036-26.047 85.18-2.313 5.585-4.75 11.159-7.269 16.645-4.745-2.668-9.738-4.943-14.937-6.781 2.041-5.486 4.198-10.979 6.441-16.394 11.657-28.145 25.889-54.869 41.812-78.65zm-126.816 101.826c-2.517-5.483-4.952-11.061-7.266-16.647-11.658-28.144-20.491-57.104-26.047-85.18 15.923 23.781 30.155 50.505 41.813 78.649 2.244 5.417 4.401 10.912 6.44 16.394-5.2 1.84-10.194 4.115-14.94 6.784zm-47.003-379.905c29.006 54.131 51.748 113.992 67.714 178.282-3.601 31.313-5.479 63.579-5.502 96.066l-18.964-95.337c-.808-4.063-4.754-6.699-8.819-5.893-4.063.808-6.701 4.757-5.893 8.819l27.973 140.631c-11.137-22.681-23.846-44.058-37.632-63.317-2.268-9.63-4.401-19.442-6.338-29.18-15.485-77.842-19.756-156.866-12.539-230.071zm-20.889 433.12c-28.145-11.658-54.869-25.89-78.65-41.813 28.075 5.556 57.035 14.389 85.18 26.047 6.719 2.783 13.407 5.74 19.96 8.81-2.073 4.894-3.746 9.997-4.986 15.265-7.197-2.584-14.402-5.367-21.504-8.309zm34.372-21.769c-11.542-9.451-22.774-19.621-33.458-30.306-29.363-29.363-54.344-62.387-73.129-96.536 9.358 5.143 18.642 10.752 27.766 16.78 3.456 2.283 8.109 1.333 10.392-2.124s1.333-8.108-2.124-10.392c-2.619-1.73-5.255-3.415-7.899-5.078-32.988-52.414-59.052-108.553-76.096-163.758 49.457 40.98 95.417 92.408 133.851 149.927.759 1.136 3.251 4.914 5.712 8.653 3.869 20.185 9.382 40.814 16.375 61.301l-60.826-91.033c-2.301-3.444-6.958-4.371-10.403-2.069-3.444 2.301-4.37 6.958-2.069 10.403l40.731 60.958c-4.037-3.361-8.113-6.646-12.226-9.836-3.273-2.538-7.984-1.943-10.523 1.331-2.538 3.273-1.943 7.984 1.331 10.523 14.758 11.445 29.071 24.079 42.541 37.548 10.277 10.277 20.087 21.073 29.226 32.146-7.422 6.172-13.895 13.444-19.172 21.562zm68.917-42.996c-3.434-30.426-5.194-61.81-5.194-93.378 0-56.719 5.687-112.757 16.548-163.941 10.862 51.184 16.548 107.222 16.548 163.941 0 31.572-1.761 62.952-5.195 93.378-3.724-.442-7.512-.677-11.354-.677-3.84.001-7.628.235-11.353.677zm125.998 64.765c-7.101 2.941-14.304 5.717-21.507 8.303-1.24-5.265-2.912-10.365-4.983-15.257 6.552-3.069 13.242-6.029 19.96-8.812 28.145-11.658 57.105-20.492 85.18-26.047-23.781 15.924-50.505 30.155-78.65 41.813zm-.913-52.075c-10.683 10.683-21.918 20.856-33.458 30.307-5.278-8.119-11.752-15.392-19.173-21.566 9.14-11.074 18.95-21.866 29.228-32.144 29.359-29.359 62.384-54.34 96.528-73.125-18.785 34.144-43.767 67.169-73.125 96.528zm44.995-97.334c-16.23 10.226-32.087 21.753-47.3 34.401l40.755-60.994c2.301-3.444 1.375-8.102-2.069-10.403-3.444-2.302-8.102-1.375-10.403 2.069l-60.826 91.033c6.988-20.474 12.499-41.09 16.368-61.262 1.881-2.9 3.803-5.822 5.719-8.691 38.434-57.52 84.393-108.947 133.851-149.927-17.045 55.206-43.111 111.374-76.095 163.774z"/></svg>