<svg xmlns="http://www.w3.org/2000/svg" xml:space="preserve" style="enable-background:new 0 0 512 512" viewBox="0 0 512 512"><path d="M256 0C160.883 0 83.5 77.383 83.5 172.5c0 41.965 15.249 82.409 42.938 113.881 25.979 29.529 61.131 49.253 99.562 56.004V391h-31c-16.542 0-30 13.458-30 30 0 8.013 3.121 15.547 8.787 21.213S186.987 451 195 451h31v31c0 16.542 13.458 30 30 30s30-13.458 30-30v-31h31c8.014 0 15.547-3.121 21.213-8.787 5.666-5.667 8.787-13.2 8.787-21.213 0-16.542-13.458-30-30-30h-31v-48.614c38.431-6.751 73.582-26.476 99.562-56.004C413.251 254.909 428.5 214.465 428.5 172.5 428.5 77.383 351.117 0 256 0zm21.486 328.535a7.5 7.5 0 0 0-6.486 7.431V398.5a7.5 7.5 0 0 0 7.5 7.5H317c8.271 0 15 6.729 15 15 0 4.006-1.561 7.773-4.394 10.607A14.9 14.9 0 0 1 317 436h-38.5a7.5 7.5 0 0 0-7.5 7.5V482c0 8.271-6.729 15-15 15s-15-6.729-15-15v-38.5a7.5 7.5 0 0 0-7.5-7.5H195a14.9 14.9 0 0 1-10.606-4.393A14.906 14.906 0 0 1 180 421c0-8.271 6.729-15 15-15h38.5a7.5 7.5 0 0 0 7.5-7.5v-62.534a7.5 7.5 0 0 0-6.486-7.431C156.973 317.96 98.5 250.88 98.5 172.5 98.5 85.654 169.154 15 256 15s157.5 70.654 157.5 157.5c0 78.38-58.473 145.46-136.014 156.035z"/><path d="M256 45c-28.605 0-55.641 9.262-78.183 26.785a7.5 7.5 0 1 0 9.205 11.842C206.908 68.17 230.76 60 256 60c62.032 0 112.5 50.467 112.5 112.5S318.032 285 256 285s-112.5-50.467-112.5-112.5c0-25.241 8.17-49.093 23.628-68.978a7.5 7.5 0 0 0-11.843-9.206C137.762 116.858 128.5 143.894 128.5 172.5c0 70.304 57.196 127.5 127.5 127.5s127.5-57.196 127.5-127.5S326.304 45 256 45z"/></svg>