<?xml version="1.0" encoding="iso-8859-1"?>
<!-- Generator: Adobe Illustrator 19.0.0, SVG Export Plug-In . SVG Version: 6.00 Build 0)  -->
<svg version="1.1" id="Layer_1" xmlns="http://www.w3.org/2000/svg" xmlns:xlink="http://www.w3.org/1999/xlink" x="0px" y="0px"
	 viewBox="0 0 492 492" style="enable-background:new 0 0 492 492;" xml:space="preserve">
<path d="M444.678,107.322l-100-100C339.989,2.634,333.631,0,327,0H105C69.159,0,40,29.159,40,65v362c0,35.841,29.159,65,65,65h282
	c35.841,0,65-29.159,65-65V125C452,118.369,449.366,112.011,444.678,107.322z M387,442H105c-8.271,0-15-6.729-15-15V65
	c0-8.271,6.729-15,15-15h197v75c0,13.808,11.192,25,25,25h75v277C402,435.271,395.271,442,387,442z"/>
<g>
</g>
<g>
</g>
<g>
</g>
<g>
</g>
<g>
</g>
<g>
</g>
<g>
</g>
<g>
</g>
<g>
</g>
<g>
</g>
<g>
</g>
<g>
</g>
<g>
</g>
<g>
</g>
<g>
</g>
</svg>
