<?xml version="1.0" encoding="iso-8859-1"?>
<!-- Generator: Adobe Illustrator 19.0.0, SVG Export Plug-In . SVG Version: 6.00 Build 0)  -->
<svg version="1.1" id="Layer_1" xmlns="http://www.w3.org/2000/svg" xmlns:xlink="http://www.w3.org/1999/xlink" x="0px" y="0px"
	 viewBox="-49 141 512 512" style="enable-background:new -49 141 512 512;" xml:space="preserve">
<path d="M405.678,258.322l-100-100C300.989,153.634,294.631,151,288,151H66c-35.841,0-65,29.159-65,65v362c0,35.841,29.159,65,65,65
	h282c35.841,0,65-29.159,65-65V276C413,269.369,410.366,263.011,405.678,258.322z M348,593H66c-8.271,0-15-6.729-15-15V216
	c0-8.271,6.729-15,15-15h197v75c0,13.808,11.192,25,25,25h75v277C363,586.271,356.271,593,348,593z"/>
</svg>
