<svg xmlns="http://www.w3.org/2000/svg" width="512" height="512"><path d="M444.5 512a7.5 7.5 0 0 1-7.5-7.5v-61a7.5 7.5 0 0 1 15 0v61a7.5 7.5 0 0 1-7.5 7.5zm-90 0h-197c-12.407 0-22.5-10.093-22.5-22.5V391c0-12.407 10.093-22.5 22.5-22.5h197c12.407 0 22.5 10.093 22.5 22.5v98.5c0 12.407-10.093 22.5-22.5 22.5zm-197-128.5c-4.136 0-7.5 3.364-7.5 7.5v98.5c0 4.136 3.364 7.5 7.5 7.5h197c4.136 0 7.5-3.364 7.5-7.5V391c0-4.136-3.364-7.5-7.5-7.5zM67.5 512a7.5 7.5 0 0 1-7.5-7.5v-406a7.5 7.5 0 0 1 15 0v406a7.5 7.5 0 0 1-7.5 7.5zm347-38.5h-15a7.5 7.5 0 0 1 0-15h15a7.5 7.5 0 0 1 0 15zm-302 0h-15a7.5 7.5 0 0 1 0-15h15a7.5 7.5 0 0 1 0 15zm332-52.5a7.5 7.5 0 0 1-7.5-7.5V7.5a7.5 7.5 0 0 1 15 0v406a7.5 7.5 0 0 1-7.5 7.5zm-30 0h-15a7.5 7.5 0 0 1 0-15h15a7.5 7.5 0 0 1 0 15zm-302 0h-15a7.5 7.5 0 0 1 0-15h15a7.5 7.5 0 0 1 0 15zm302-52.5h-15a7.5 7.5 0 0 1 0-15h15a7.5 7.5 0 0 1 0 15zm-302 0h-15a7.5 7.5 0 0 1 0-15h15a7.5 7.5 0 0 1 0 15zm242-15h-197c-12.407 0-22.5-10.093-22.5-22.5V181c0-12.407 10.093-22.5 22.5-22.5h197c12.407 0 22.5 10.093 22.5 22.5v22.5a7.5 7.5 0 0 1-15 0V181c0-4.136-3.364-7.5-7.5-7.5h-197c-4.136 0-7.5 3.364-7.5 7.5v150c0 4.136 3.364 7.5 7.5 7.5h197c4.136 0 7.5-3.364 7.5-7.5v-97.5a7.5 7.5 0 0 1 15 0V331c0 12.407-10.093 22.5-22.5 22.5zm60-37.5h-15a7.5 7.5 0 0 1 0-15h15a7.5 7.5 0 0 1 0 15zm-302 0h-15a7.5 7.5 0 0 1 0-15h15a7.5 7.5 0 0 1 0 15zm302-52.5h-15a7.5 7.5 0 0 1 0-15h15a7.5 7.5 0 0 1 0 15zm-302 0h-15a7.5 7.5 0 0 1 0-15h15a7.5 7.5 0 0 1 0 15zm302-52.5h-15a7.5 7.5 0 0 1 0-15h15a7.5 7.5 0 0 1 0 15zm-302 0h-15a7.5 7.5 0 0 1 0-15h15a7.5 7.5 0 0 1 0 15zm302-52.5h-15a7.5 7.5 0 0 1 0-15h15a7.5 7.5 0 0 1 0 15zm-302 0h-15a7.5 7.5 0 0 1 0-15h15a7.5 7.5 0 0 1 0 15zm242-15h-197c-12.407 0-22.5-10.093-22.5-22.5V22.5C135 10.093 145.093 0 157.5 0h197C366.907 0 377 10.093 377 22.5V121c0 12.407-10.093 22.5-22.5 22.5zM157.5 15c-4.136 0-7.5 3.364-7.5 7.5V121c0 4.136 3.364 7.5 7.5 7.5h197c4.136 0 7.5-3.364 7.5-7.5V22.5c0-4.136-3.364-7.5-7.5-7.5zm257 91h-15a7.5 7.5 0 0 1 0-15h15a7.5 7.5 0 0 1 0 15zm-302 0h-15a7.5 7.5 0 0 1 0-15h15a7.5 7.5 0 0 1 0 15zm-45-30a7.5 7.5 0 0 1-7.5-7.5v-61a7.5 7.5 0 0 1 15 0v61a7.5 7.5 0 0 1-7.5 7.5zm347-22.5h-15a7.5 7.5 0 0 1 0-15h15a7.5 7.5 0 0 1 0 15zm-302 0h-15a7.5 7.5 0 0 1 0-15h15a7.5 7.5 0 0 1 0 15z"/></svg>