<svg id="Capa_1" enable-background="new 0 0 512 512" height="512" viewBox="0 0 512 512" width="512" xmlns="http://www.w3.org/2000/svg"><g><path d="m444.5 512c-4.142 0-7.5-3.358-7.5-7.5v-61c0-4.142 3.358-7.5 7.5-7.5s7.5 3.358 7.5 7.5v61c0 4.142-3.358 7.5-7.5 7.5zm-90 0h-197c-12.407 0-22.5-10.093-22.5-22.5v-98.5c0-12.407 10.093-22.5 22.5-22.5h197c12.407 0 22.5 10.093 22.5 22.5v98.5c0 12.407-10.093 22.5-22.5 22.5zm-197-128.5c-4.136 0-7.5 3.364-7.5 7.5v98.5c0 4.136 3.364 7.5 7.5 7.5h197c4.136 0 7.5-3.364 7.5-7.5v-98.5c0-4.136-3.364-7.5-7.5-7.5zm-90 128.5c-4.142 0-7.5-3.358-7.5-7.5v-406c0-4.142 3.358-7.5 7.5-7.5s7.5 3.358 7.5 7.5v406c0 4.142-3.358 7.5-7.5 7.5zm347-38.5h-15c-4.142 0-7.5-3.358-7.5-7.5s3.358-7.5 7.5-7.5h15c4.142 0 7.5 3.358 7.5 7.5s-3.358 7.5-7.5 7.5zm-302 0h-15c-4.142 0-7.5-3.358-7.5-7.5s3.358-7.5 7.5-7.5h15c4.142 0 7.5 3.358 7.5 7.5s-3.358 7.5-7.5 7.5zm332-52.5c-4.142 0-7.5-3.358-7.5-7.5v-406c0-4.142 3.358-7.5 7.5-7.5s7.5 3.358 7.5 7.5v406c0 4.142-3.358 7.5-7.5 7.5zm-30 0h-15c-4.142 0-7.5-3.358-7.5-7.5s3.358-7.5 7.5-7.5h15c4.142 0 7.5 3.358 7.5 7.5s-3.358 7.5-7.5 7.5zm-302 0h-15c-4.142 0-7.5-3.358-7.5-7.5s3.358-7.5 7.5-7.5h15c4.142 0 7.5 3.358 7.5 7.5s-3.358 7.5-7.5 7.5zm302-52.5h-15c-4.142 0-7.5-3.358-7.5-7.5s3.358-7.5 7.5-7.5h15c4.142 0 7.5 3.358 7.5 7.5s-3.358 7.5-7.5 7.5zm-302 0h-15c-4.142 0-7.5-3.358-7.5-7.5s3.358-7.5 7.5-7.5h15c4.142 0 7.5 3.358 7.5 7.5s-3.358 7.5-7.5 7.5zm242-15h-197c-12.407 0-22.5-10.093-22.5-22.5v-150c0-12.407 10.093-22.5 22.5-22.5h197c12.407 0 22.5 10.093 22.5 22.5v22.5c0 4.142-3.358 7.5-7.5 7.5s-7.5-3.358-7.5-7.5v-22.5c0-4.136-3.364-7.5-7.5-7.5h-197c-4.136 0-7.5 3.364-7.5 7.5v150c0 4.136 3.364 7.5 7.5 7.5h197c4.136 0 7.5-3.364 7.5-7.5v-97.5c0-4.142 3.358-7.5 7.5-7.5s7.5 3.358 7.5 7.5v97.5c0 12.407-10.093 22.5-22.5 22.5zm60-37.5h-15c-4.142 0-7.5-3.358-7.5-7.5s3.358-7.5 7.5-7.5h15c4.142 0 7.5 3.358 7.5 7.5s-3.358 7.5-7.5 7.5zm-302 0h-15c-4.142 0-7.5-3.358-7.5-7.5s3.358-7.5 7.5-7.5h15c4.142 0 7.5 3.358 7.5 7.5s-3.358 7.5-7.5 7.5zm302-52.5h-15c-4.142 0-7.5-3.358-7.5-7.5s3.358-7.5 7.5-7.5h15c4.142 0 7.5 3.358 7.5 7.5s-3.358 7.5-7.5 7.5zm-302 0h-15c-4.142 0-7.5-3.358-7.5-7.5s3.358-7.5 7.5-7.5h15c4.142 0 7.5 3.358 7.5 7.5s-3.358 7.5-7.5 7.5zm302-52.5h-15c-4.142 0-7.5-3.358-7.5-7.5s3.358-7.5 7.5-7.5h15c4.142 0 7.5 3.358 7.5 7.5s-3.358 7.5-7.5 7.5zm-302 0h-15c-4.142 0-7.5-3.358-7.5-7.5s3.358-7.5 7.5-7.5h15c4.142 0 7.5 3.358 7.5 7.5s-3.358 7.5-7.5 7.5zm302-52.5h-15c-4.142 0-7.5-3.358-7.5-7.5s3.358-7.5 7.5-7.5h15c4.142 0 7.5 3.358 7.5 7.5s-3.358 7.5-7.5 7.5zm-302 0h-15c-4.142 0-7.5-3.358-7.5-7.5s3.358-7.5 7.5-7.5h15c4.142 0 7.5 3.358 7.5 7.5s-3.358 7.5-7.5 7.5zm242-15h-197c-12.407 0-22.5-10.093-22.5-22.5v-98.5c0-12.407 10.093-22.5 22.5-22.5h197c12.407 0 22.5 10.093 22.5 22.5v98.5c0 12.407-10.093 22.5-22.5 22.5zm-197-128.5c-4.136 0-7.5 3.364-7.5 7.5v98.5c0 4.136 3.364 7.5 7.5 7.5h197c4.136 0 7.5-3.364 7.5-7.5v-98.5c0-4.136-3.364-7.5-7.5-7.5zm257 91h-15c-4.142 0-7.5-3.358-7.5-7.5s3.358-7.5 7.5-7.5h15c4.142 0 7.5 3.358 7.5 7.5s-3.358 7.5-7.5 7.5zm-302 0h-15c-4.142 0-7.5-3.358-7.5-7.5s3.358-7.5 7.5-7.5h15c4.142 0 7.5 3.358 7.5 7.5s-3.358 7.5-7.5 7.5zm-45-30c-4.142 0-7.5-3.358-7.5-7.5v-61c0-4.142 3.358-7.5 7.5-7.5s7.5 3.358 7.5 7.5v61c0 4.142-3.358 7.5-7.5 7.5zm347-22.5h-15c-4.142 0-7.5-3.358-7.5-7.5s3.358-7.5 7.5-7.5h15c4.142 0 7.5 3.358 7.5 7.5s-3.358 7.5-7.5 7.5zm-302 0h-15c-4.142 0-7.5-3.358-7.5-7.5s3.358-7.5 7.5-7.5h15c4.142 0 7.5 3.358 7.5 7.5s-3.358 7.5-7.5 7.5z"/></g></svg>