<svg xmlns="http://www.w3.org/2000/svg" viewBox="-49 141 512 512"><path d="M413 232H177.7c-10.321-29.098-38.109-50-70.7-50s-60.379 20.902-70.7 50H1c-13.807 0-25 11.193-25 25s11.193 25 25 25h35.3c10.32 29.098 38.109 50 70.7 50s60.379-20.902 70.7-50H413c13.807 0 25-11.193 25-25s-11.193-25-25-25zm-306 50c-13.785 0-25-11.215-25-25s11.215-25 25-25 25 11.215 25 25-11.215 25-25 25zM413 512H177.7c-10.32-29.098-38.109-50-70.7-50s-60.379 20.902-70.7 50H1c-13.807 0-25 11.193-25 25s11.193 25 25 25h35.3c10.32 29.098 38.109 50 70.7 50s60.379-20.902 70.7-50H413c13.807 0 25-11.193 25-25s-11.193-25-25-25zm-306 50c-13.785 0-25-11.215-25-25s11.215-25 25-25 25 11.215 25 25-11.215 25-25 25zM413 372h-35.3c-10.32-29.098-38.109-50-70.7-50s-60.379 20.902-70.7 50H1c-13.807 0-25 11.193-25 25s11.193 25 25 25h235.3c10.32 29.098 38.109 50 70.7 50s60.379-20.902 70.7-50H413c13.807 0 25-11.193 25-25s-11.193-25-25-25zm-106 50c-13.785 0-25-11.215-25-25s11.215-25 25-25 25 11.215 25 25-11.215 25-25 25z"/></svg>