<?xml version="1.0" encoding="iso-8859-1"?>
<!-- Generator: Adobe Illustrator 19.0.0, SVG Export Plug-In . SVG Version: 6.00 Build 0)  -->
<svg version="1.1" id="Layer_1" xmlns="http://www.w3.org/2000/svg" xmlns:xlink="http://www.w3.org/1999/xlink" x="0px" y="0px"
	 viewBox="0 0 462 462" style="enable-background:new 0 0 462 462;" xml:space="preserve">
<g>
	<path d="M437,66H201.7c-10.32-29.098-38.109-50-70.7-50S70.621,36.902,60.3,66H25C11.193,66,0,77.193,0,91s11.193,25,25,25h35.3
		c10.32,29.098,38.109,50,70.7,50s60.379-20.902,70.7-50H437c13.807,0,25-11.193,25-25S450.807,66,437,66z M131,116
		c-13.785,0-25-11.215-25-25s11.215-25,25-25s25,11.215,25,25S144.785,116,131,116z"/>
	<path d="M437,346H201.7c-10.32-29.098-38.109-50-70.7-50s-60.379,20.902-70.7,50H25c-13.807,0-25,11.193-25,25s11.193,25,25,25
		h35.3c10.32,29.098,38.109,50,70.7,50s60.379-20.902,70.7-50H437c13.807,0,25-11.193,25-25S450.807,346,437,346z M131,396
		c-13.785,0-25-11.215-25-25s11.215-25,25-25s25,11.215,25,25S144.785,396,131,396z"/>
	<path d="M437,206h-35.3c-10.32-29.098-38.109-50-70.7-50s-60.379,20.902-70.7,50H25c-13.807,0-25,11.193-25,25s11.193,25,25,25
		h235.3c10.32,29.098,38.109,50,70.7,50s60.379-20.902,70.7-50H437c13.807,0,25-11.193,25-25S450.807,206,437,206z M331,256
		c-13.785,0-25-11.215-25-25s11.215-25,25-25s25,11.215,25,25S344.785,256,331,256z"/>
</g>
<g>
</g>
<g>
</g>
<g>
</g>
<g>
</g>
<g>
</g>
<g>
</g>
<g>
</g>
<g>
</g>
<g>
</g>
<g>
</g>
<g>
</g>
<g>
</g>
<g>
</g>
<g>
</g>
<g>
</g>
</svg>
