<?xml version="1.0" encoding="iso-8859-1"?>
<!-- Generator: Adobe Illustrator 19.0.0, SVG Export Plug-In . SVG Version: 6.00 Build 0)  -->
<svg version="1.1" id="Layer_1" xmlns="http://www.w3.org/2000/svg" xmlns:xlink="http://www.w3.org/1999/xlink" x="0px" y="0px"
	 viewBox="-49 141 512 512" style="enable-background:new -49 141 512 512;" xml:space="preserve">
<g>
	<path d="M413,232H177.7c-10.321-29.098-38.109-50-70.7-50s-60.379,20.902-70.7,50H1c-13.807,0-25,11.193-25,25s11.193,25,25,25
		h35.3c10.32,29.098,38.109,50,70.7,50s60.379-20.902,70.7-50H413c13.807,0,25-11.193,25-25S426.807,232,413,232z M107,282
		c-13.785,0-25-11.215-25-25s11.215-25,25-25s25,11.215,25,25S120.785,282,107,282z"/>
	<path d="M413,512H177.7c-10.32-29.098-38.109-50-70.7-50s-60.379,20.902-70.7,50H1c-13.807,0-25,11.193-25,25s11.193,25,25,25h35.3
		c10.32,29.098,38.109,50,70.7,50s60.379-20.902,70.7-50H413c13.807,0,25-11.193,25-25S426.807,512,413,512z M107,562
		c-13.785,0-25-11.215-25-25s11.215-25,25-25s25,11.215,25,25S120.785,562,107,562z"/>
	<path d="M413,372h-35.3c-10.32-29.098-38.109-50-70.7-50s-60.379,20.902-70.7,50H1c-13.807,0-25,11.193-25,25s11.193,25,25,25
		h235.3c10.32,29.098,38.109,50,70.7,50s60.379-20.902,70.7-50H413c13.807,0,25-11.193,25-25S426.807,372,413,372z M307,422
		c-13.785,0-25-11.215-25-25s11.215-25,25-25s25,11.215,25,25S320.785,422,307,422z"/>
</g>
</svg>
