<svg id="Layer_1" enable-background="new 0 0 511.718 511.718" height="512" viewBox="0 0 511.718 511.718" width="512" xmlns="http://www.w3.org/2000/svg"><g><path d="m271.726 71.66c1.919 0 3.839-.732 5.303-2.197l9.772-9.771c6.857-6.857-3.749-17.463-10.606-10.606l-9.772 9.771c-4.453 4.452-.993 12.803 5.303 12.803z"/><path d="m208.699 127.188c3.535 2.929 7.071 2.929 10.606 0l33.748-33.748c6.858-6.857-3.75-17.463-10.606-10.606l-33.748 33.748c-2.929 2.928-2.929 7.677 0 10.606z"/><path d="m49.019 286.867c3.535 2.929 7.071 2.929 10.606 0l67.496-67.496c6.858-6.857-3.75-17.463-10.606-10.606l-67.496 67.496c-2.929 2.929-2.929 7.678 0 10.606z"/><path d="m219.306 208.765c-6.857-6.857-17.464 3.75-10.606 10.606l67.496 67.496c6.857 6.857 17.464-3.75 10.606-10.606z"/><path d="m116.515 127.188c6.857 6.857 17.464-3.75 10.606-10.606l-67.495-67.496c-6.857-6.857-17.464 3.75-10.606 10.606z"/><path d="m225.594 167.976c0 4.142 3.358 7.5 7.5 7.5h95.453c9.697 0 9.697-15 0-15h-95.453c-4.142 0-7.5 3.358-7.5 7.5z"/><path d="m110.226 167.976c0-4.142-3.358-7.5-7.5-7.5h-95.453c-9.697 0-9.697 15 0 15h95.453c4.142 0 7.5-3.358 7.5-7.5z"/><path d="m175.41 233.16c0-9.697-15-9.697-15 0v95.453c0 9.697 15 9.697 15 0z"/><path d="m167.91 110.292c4.142 0 7.5-3.358 7.5-7.5v-95.453c0-9.697-15-9.697-15 0v95.453c0 4.142 3.358 7.5 7.5 7.5z"/><path d="m125.075 85.194c3.633 8.768 17.563 3.205 13.858-5.74l-11.481-27.716c-3.712-8.958-17.569-3.219-13.858 5.74z"/><path d="m51.012 129.112 27.716 11.48c8.624 3.57 14.665-10.161 5.74-13.858l-27.716-11.48c-8.959-3.713-14.699 10.147-5.74 13.858z"/><path d="m54.545 224.591c.957 0 1.929-.184 2.867-.573l27.716-11.481c8.959-3.711 3.219-17.568-5.74-13.858l-27.716 11.481c-7.593 3.145-4.912 14.431 2.873 14.431z"/><path d="m119.247 290.659c3.571 1.479 8.305-.452 9.799-4.059l11.48-27.716c3.711-8.959-10.148-14.699-13.858-5.74l-11.48 27.716c-1.585 3.827.232 8.214 4.059 9.799z"/><path d="m212.471 252.483c-3.712-8.958-17.569-3.219-13.858 5.74l11.481 27.716c3.633 8.768 17.563 3.205 13.858-5.74z"/><path d="m286.534 208.566-27.716-11.48c-8.961-3.708-14.699 10.147-5.74 13.858l27.716 11.48c8.624 3.571 14.664-10.161 5.74-13.858z"/><path d="m280.134 113.66-27.716 11.481c-8.821 3.654-2.917 17.444 5.74 13.858l27.716-11.481c8.959-3.711 3.219-17.568-5.74-13.858z"/><path d="m201.078 88.593c3.571 1.479 8.305-.452 9.799-4.059l11.48-27.716c3.711-8.959-10.147-14.7-13.858-5.74l-11.48 27.716c-1.585 3.827.232 8.214 4.059 9.799z"/><path d="m507.139 424.993-73.37-30.339c-8.962-3.703-14.694 10.156-5.732 13.861l73.37 30.339c8.626 3.566 14.659-10.171 5.732-13.861z"/><path d="m254.46 336.738 73.37 30.339c8.626 3.565 14.659-10.171 5.732-13.861l-73.37-30.339c-8.962-3.704-14.693 10.156-5.732 13.861z"/><path d="m362.947 424.038c-3.827-1.582-8.214.237-9.797 4.064l-30.339 73.37c-3.607 8.724 10.153 14.699 13.861 5.732l30.339-73.37c1.584-3.827-.236-8.213-4.064-9.796z"/><path d="m398.652 337.692c3.572 1.476 8.305-.456 9.797-4.064l30.339-73.37c3.706-8.961-10.157-14.695-13.861-5.732l-30.339 73.37c-1.584 3.828.236 8.214 4.064 9.796z"/><path d="m408.505 428.07c-3.716-8.957-17.571-3.208-13.854 5.748l30.427 73.333c3.637 8.767 17.565 3.194 13.854-5.748z"/><path d="m326.719 250.526c-3.826 1.587-5.64 5.976-4.053 9.802l30.427 73.333c3.637 8.767 17.565 3.194 13.854-5.749l-30.427-73.333c-1.586-3.826-5.973-5.641-9.801-4.053z"/><path d="m261.683 422.169-7.169 2.975c-8.818 3.658-2.906 17.448 5.748 13.854l7.169-2.975c8.956-3.715 3.209-17.569-5.748-13.854z"/><path d="m337.648 398.77c-1.586-3.825-5.976-5.642-9.801-4.053l-36.703 15.229c-8.818 3.658-2.906 17.448 5.748 13.854l36.703-15.229c3.826-1.587 5.64-5.975 4.053-9.801z"/><path d="m511.139 326.785c-1.587-3.825-5.974-5.641-9.802-4.053l-73.333 30.427c-8.818 3.659-2.906 17.447 5.749 13.854l73.333-30.427c3.826-1.586 5.641-5.975 4.053-9.801z"/><path d="m131.219 159.022c-.882 2.715-.146 5.696 1.898 7.688l11.956 11.654-2.822 16.456c-1.032 6.016 5.507 10.733 10.882 7.906l14.778-7.77 14.778 7.77c5.789 3.042 11.826-2.405 10.882-7.907l-2.823-16.456 11.956-11.654c4.369-4.259 1.883-11.916-4.156-12.792l-16.522-2.401-7.389-14.972c-2.701-5.472-10.75-5.472-13.451 0l-7.389 14.972-16.523 2.401c-2.826.411-5.173 2.39-6.055 5.105zm28.636 6.772c2.443-.355 4.555-1.889 5.647-4.103l2.408-4.88 2.409 4.88c1.093 2.213 3.204 3.748 5.647 4.103l5.386.783-3.897 3.799c-1.768 1.723-2.575 4.206-2.157 6.639l.92 5.364-4.817-2.533c-1.093-.574-2.292-.861-3.49-.861s-2.397.287-3.49.861l-4.817 2.533.92-5.364c.417-2.433-.389-4.915-2.157-6.638l-3.897-3.799z"/><path d="m399.53 408.973c2.31-1.678 3.466-4.521 2.984-7.335l-2.069-12.062 8.763-8.542c4.369-4.259 1.883-11.916-4.156-12.792l-12.111-1.76-5.417-10.975c-2.701-5.472-10.75-5.472-13.451 0l-5.416 10.975-12.111 1.76c-6.039.877-8.526 8.534-4.156 12.792l8.763 8.542-2.069 12.062c-.943 5.503 5.093 10.948 10.882 7.907l10.832-5.695 10.833 5.695c2.688 1.314 5.321 1.123 7.899-.572zm-12.378-27.387c-1.768 1.723-2.575 4.206-2.157 6.639l.167.97-.872-.458c-1.093-.574-2.292-.861-3.49-.861s-2.397.287-3.49.861l-.871.458.167-.97c.417-2.433-.389-4.916-2.157-6.639l-.705-.687.974-.142c2.443-.355 4.555-1.889 5.647-4.103l.436-.883.436.883c1.093 2.213 3.205 3.748 5.647 4.103l.974.142z"/><path d="m361.154 76.516-2.069 12.062c-.482 2.814.674 5.658 2.984 7.336 2.309 1.677 5.37 1.899 7.898.571l10.832-5.695 10.833 5.695c1.098.577 2.296.861 3.489.861 1.555 0 3.103-.483 4.409-1.433 2.31-1.678 3.466-4.521 2.984-7.335l-2.069-12.062 8.763-8.542c2.044-1.993 2.78-4.973 1.898-7.688s-3.229-4.694-6.054-5.104l-12.111-1.76-5.417-10.975c-1.264-2.56-3.871-4.181-6.726-4.181s-5.462 1.621-6.726 4.181l-5.416 10.975-12.111 1.76c-2.825.41-5.172 2.389-6.054 5.104s-.146 5.696 1.898 7.688zm13.563-8.818c2.443-.355 4.555-1.889 5.647-4.103l.436-.883.436.883c1.093 2.213 3.205 3.748 5.647 4.103l.974.142-.705.687c-1.768 1.723-2.575 4.206-2.157 6.639l.167.97-.872-.458c-1.093-.574-2.292-.861-3.49-.861s-2.397.287-3.49.861l-.871.458.167-.97c.417-2.433-.389-4.916-2.157-6.639l-.705-.687z"/><path d="m487.825 178.655c-2.701-5.472-10.75-5.472-13.451 0l-5.416 10.975-12.111 1.76c-6.039.877-8.526 8.533-4.157 12.792l8.764 8.542-2.068 12.062c-1.032 6.017 5.507 10.731 10.882 7.906l10.833-5.695 10.833 5.695c5.79 3.043 11.825-2.405 10.882-7.907l-2.069-12.062 8.764-8.542c4.369-4.259 1.882-11.916-4.157-12.792l-12.111-1.76zm-.374 26.08c-1.768 1.723-2.574 4.206-2.157 6.639l.167.97-.872-.458c-2.185-1.148-4.795-1.148-6.979 0l-.872.458.167-.971c.417-2.433-.389-4.915-2.157-6.638l-.705-.688.975-.142c2.443-.355 4.555-1.889 5.647-4.103l.436-.883.436.883c1.092 2.213 3.204 3.748 5.647 4.103l.975.142z"/><path d="m150.516 442.444-12.111-1.76-5.416-10.975c-2.701-5.472-10.75-5.472-13.451 0l-5.417 10.975-12.111 1.76c-6.039.877-8.526 8.534-4.156 12.792l8.763 8.542-2.069 12.062c-1.032 6.018 5.507 10.731 10.882 7.907l10.833-5.695 10.832 5.695c5.79 3.042 11.826-2.405 10.882-7.907l-2.069-12.062 8.763-8.542c4.371-4.258 1.884-11.915-4.155-12.792zm-17.9 13.346c-1.768 1.723-2.575 4.206-2.157 6.639l.167.97-.871-.458c-2.186-1.148-4.795-1.148-6.98 0l-.872.458.167-.97c.417-2.433-.389-4.916-2.157-6.639l-.705-.687.974-.142c2.442-.355 4.554-1.889 5.647-4.103l.436-.883.436.883c1.092 2.213 3.204 3.748 5.647 4.103l.974.142z"/><path d="m90.578 377.132 11.956-11.654c4.369-4.259 1.883-11.916-4.156-12.792l-16.523-2.401-7.389-14.972c-2.701-5.472-10.75-5.472-13.451 0l-7.389 14.972-16.523 2.401c-6.039.877-8.526 8.534-4.156 12.792l11.956 11.654-2.822 16.456c-.943 5.501 5.093 10.949 10.882 7.906l14.778-7.77 14.779 7.77c5.376 2.825 11.913-1.89 10.882-7.907zm-13.293-7.989c-1.768 1.723-2.574 4.205-2.157 6.638l.92 5.364-4.818-2.533c-1.092-.574-2.291-.861-3.49-.861s-2.397.287-3.49.861l-4.817 2.533.92-5.364c.417-2.433-.389-4.915-2.157-6.638l-3.897-3.799 5.386-.783c2.443-.355 4.555-1.889 5.647-4.103l2.408-4.88 2.409 4.88c1.093 2.213 3.204 3.748 5.647 4.103l5.386.783z"/><path d="m379.617 269.609c-3.797 0-7.517 3.824-7.5 7.533l.112 25.103c.042 9.417 15.044 9.819 15-.066l-.112-25.103c-.019-4.131-3.373-7.467-7.5-7.467z"/><path d="m301.27 303.055c-2.916 2.942-2.895 7.691.047 10.606l17.83 17.671c6.881 6.819 17.452-3.823 10.56-10.653l-17.83-17.671c-2.943-2.915-7.691-2.894-10.607.047z"/><path d="m309.646 381.903c-.017-3.718-3.746-7.467-7.533-7.467l-25.103.112c-9.472.042-9.199 15 .066 15l25.103-.112c4.142-.018 7.486-3.391 7.467-7.533z"/><path d="m331.22 431.913c-2.942-2.916-7.69-2.895-10.606.047l-17.671 17.83c-6.822 6.883 3.821 17.454 10.653 10.56l17.671-17.83c2.916-2.943 2.895-7.692-.047-10.607z"/><path d="m381.871 452.019c-3.797 0-7.517 3.824-7.5 7.533l.112 25.103c.042 9.417 15.044 9.819 15-.066l-.112-25.103c-.019-4.131-3.373-7.467-7.5-7.467z"/><path d="m442.453 430.398c-6.888-6.825-17.447 3.827-10.56 10.653l17.83 17.671c6.881 6.819 17.452-3.823 10.56-10.653z"/><path d="m459.42 372.294c-9.472.042-9.199 15 .066 15l25.103-.112c9.694-.043 9.638-15.056-.066-15z"/><path d="m430.379 329.818c3.542 2.913 7.077 2.898 10.606-.047l17.671-17.83c6.827-6.887-3.827-17.447-10.653-10.56l-17.671 17.83c-2.916 2.943-2.895 7.692.047 10.607z"/><path d="m456.832 95.636h7.673v7.673c0 4.142 3.358 7.5 7.5 7.5s7.5-3.358 7.5-7.5v-7.673h7.673c4.142 0 7.5-3.358 7.5-7.5s-3.358-7.5-7.5-7.5h-7.673v-7.673c0-4.142-3.358-7.5-7.5-7.5s-7.5 3.358-7.5 7.5v7.673h-7.673c-4.142 0-7.5 3.358-7.5 7.5s3.357 7.5 7.5 7.5z"/><path d="m405.036 155.582c0-4.142-3.358-7.5-7.5-7.5s-7.5 3.358-7.5 7.5v7.673h-7.673c-4.142 0-7.5 3.358-7.5 7.5s3.358 7.5 7.5 7.5h7.673v7.673c0 4.142 3.358 7.5 7.5 7.5s7.5-3.358 7.5-7.5v-7.673h7.673c4.142 0 7.5-3.358 7.5-7.5s-3.358-7.5-7.5-7.5h-7.673z"/><path d="m212.642 387.356h-7.673v-7.673c0-4.142-3.358-7.5-7.5-7.5s-7.5 3.358-7.5 7.5v7.673h-7.673c-4.142 0-7.5 3.358-7.5 7.5s3.358 7.5 7.5 7.5h7.673v7.673c0 4.142 3.358 7.5 7.5 7.5s7.5-3.358 7.5-7.5v-7.673h7.673c4.142 0 7.5-3.358 7.5-7.5s-3.358-7.5-7.5-7.5z"/></g></svg>