<svg xmlns="http://www.w3.org/2000/svg" width="512" height="512" viewBox="0 0 511.718 511.718"><path d="M271.726 71.66a7.474 7.474 0 0 0 5.303-2.197l9.772-9.771c6.857-6.857-3.749-17.463-10.606-10.606l-9.772 9.771c-4.453 4.452-.993 12.803 5.303 12.803zM208.699 127.188c3.535 2.929 7.071 2.929 10.606 0l33.748-33.748c6.858-6.857-3.75-17.463-10.606-10.606l-33.748 33.748a7.5 7.5 0 0 0 0 10.606zM49.019 286.867c3.535 2.929 7.071 2.929 10.606 0l67.496-67.496c6.858-6.857-3.75-17.463-10.606-10.606l-67.496 67.496a7.5 7.5 0 0 0 0 10.606zM219.306 208.765c-6.857-6.857-17.464 3.75-10.606 10.606l67.496 67.496c6.857 6.857 17.464-3.75 10.606-10.606zM116.515 127.188c6.857 6.857 17.464-3.75 10.606-10.606L59.626 49.086c-6.857-6.857-17.464 3.75-10.606 10.606zM225.594 167.976a7.5 7.5 0 0 0 7.5 7.5h95.453c9.697 0 9.697-15 0-15h-95.453a7.5 7.5 0 0 0-7.5 7.5zM110.226 167.976a7.5 7.5 0 0 0-7.5-7.5H7.273c-9.697 0-9.697 15 0 15h95.453a7.5 7.5 0 0 0 7.5-7.5zM175.41 233.16c0-9.697-15-9.697-15 0v95.453c0 9.697 15 9.697 15 0zM167.91 110.292a7.5 7.5 0 0 0 7.5-7.5V7.339c0-9.697-15-9.697-15 0v95.453a7.5 7.5 0 0 0 7.5 7.5zM125.075 85.194c3.633 8.768 17.563 3.205 13.858-5.74l-11.481-27.716c-3.712-8.958-17.569-3.219-13.858 5.74zM51.012 129.112l27.716 11.48c8.624 3.57 14.665-10.161 5.74-13.858l-27.716-11.48c-8.959-3.713-14.699 10.147-5.74 13.858zM54.545 224.591c.957 0 1.929-.184 2.867-.573l27.716-11.481c8.959-3.711 3.219-17.568-5.74-13.858L51.672 210.16c-7.593 3.145-4.912 14.431 2.873 14.431zM119.247 290.659c3.571 1.479 8.305-.452 9.799-4.059l11.48-27.716c3.711-8.959-10.148-14.699-13.858-5.74l-11.48 27.716a7.5 7.5 0 0 0 4.059 9.799zM212.471 252.483c-3.712-8.958-17.569-3.219-13.858 5.74l11.481 27.716c3.633 8.768 17.563 3.205 13.858-5.74zM286.534 208.566l-27.716-11.48c-8.961-3.708-14.699 10.147-5.74 13.858l27.716 11.48c8.624 3.571 14.664-10.161 5.74-13.858zM280.134 113.66l-27.716 11.481c-8.821 3.654-2.917 17.444 5.74 13.858l27.716-11.481c8.959-3.711 3.219-17.568-5.74-13.858zM201.078 88.593c3.571 1.479 8.305-.452 9.799-4.059l11.48-27.716c3.711-8.959-10.147-14.7-13.858-5.74l-11.48 27.716a7.5 7.5 0 0 0 4.059 9.799zM507.139 424.993l-73.37-30.339c-8.962-3.703-14.694 10.156-5.732 13.861l73.37 30.339c8.626 3.566 14.659-10.171 5.732-13.861zM254.46 336.738l73.37 30.339c8.626 3.565 14.659-10.171 5.732-13.861l-73.37-30.339c-8.962-3.704-14.693 10.156-5.732 13.861zM362.947 424.038a7.502 7.502 0 0 0-9.797 4.064l-30.339 73.37c-3.607 8.724 10.153 14.699 13.861 5.732l30.339-73.37a7.498 7.498 0 0 0-4.064-9.796zM398.652 337.692c3.572 1.476 8.305-.456 9.797-4.064l30.339-73.37c3.706-8.961-10.157-14.695-13.861-5.732l-30.339 73.37a7.497 7.497 0 0 0 4.064 9.796zM408.505 428.07c-3.716-8.957-17.571-3.208-13.854 5.748l30.427 73.333c3.637 8.767 17.565 3.194 13.854-5.748zM326.719 250.526a7.5 7.5 0 0 0-4.053 9.802l30.427 73.333c3.637 8.767 17.565 3.194 13.854-5.749l-30.427-73.333a7.497 7.497 0 0 0-9.801-4.053zM261.683 422.169l-7.169 2.975c-8.818 3.658-2.906 17.448 5.748 13.854l7.169-2.975c8.956-3.715 3.209-17.569-5.748-13.854zM337.648 398.77a7.498 7.498 0 0 0-9.801-4.053l-36.703 15.229c-8.818 3.658-2.906 17.448 5.748 13.854l36.703-15.229a7.5 7.5 0 0 0 4.053-9.801zM511.139 326.785a7.5 7.5 0 0 0-9.802-4.053l-73.333 30.427c-8.818 3.659-2.906 17.447 5.749 13.854l73.333-30.427a7.498 7.498 0 0 0 4.053-9.801zM131.219 159.022a7.5 7.5 0 0 0 1.898 7.688l11.956 11.654-2.822 16.456c-1.032 6.016 5.507 10.733 10.882 7.906l14.778-7.77 14.778 7.77c5.789 3.042 11.826-2.405 10.882-7.907l-2.823-16.456 11.956-11.654c4.369-4.259 1.883-11.916-4.156-12.792l-16.522-2.401-7.389-14.972c-2.701-5.472-10.75-5.472-13.451 0l-7.389 14.972-16.523 2.401a7.5 7.5 0 0 0-6.055 5.105zm28.636 6.772a7.498 7.498 0 0 0 5.647-4.103l2.408-4.88 2.409 4.88a7.502 7.502 0 0 0 5.647 4.103l5.386.783-3.897 3.799a7.498 7.498 0 0 0-2.157 6.639l.92 5.364-4.817-2.533a7.504 7.504 0 0 0-6.98 0l-4.817 2.533.92-5.364a7.499 7.499 0 0 0-2.157-6.638l-3.897-3.799zM399.53 408.973a7.5 7.5 0 0 0 2.984-7.335l-2.069-12.062 8.763-8.542c4.369-4.259 1.883-11.916-4.156-12.792l-12.111-1.76-5.417-10.975c-2.701-5.472-10.75-5.472-13.451 0l-5.416 10.975-12.111 1.76c-6.039.877-8.526 8.534-4.156 12.792l8.763 8.542-2.069 12.062c-.943 5.503 5.093 10.948 10.882 7.907l10.832-5.695 10.833 5.695c2.688 1.314 5.321 1.123 7.899-.572zm-12.378-27.387a7.498 7.498 0 0 0-2.157 6.639l.167.97-.872-.458a7.504 7.504 0 0 0-6.98 0l-.871.458.167-.97a7.5 7.5 0 0 0-2.157-6.639l-.705-.687.974-.142a7.498 7.498 0 0 0 5.647-4.103l.436-.883.436.883a7.504 7.504 0 0 0 5.647 4.103l.974.142zM361.154 76.516l-2.069 12.062a7.501 7.501 0 0 0 10.882 7.907l10.832-5.695 10.833 5.695a7.493 7.493 0 0 0 7.898-.572 7.5 7.5 0 0 0 2.984-7.335l-2.069-12.062 8.763-8.542a7.5 7.5 0 0 0-4.156-12.792l-12.111-1.76-5.417-10.975a7.501 7.501 0 0 0-13.452 0l-5.416 10.975-12.111 1.76a7.498 7.498 0 0 0-4.156 12.792zm13.563-8.818a7.498 7.498 0 0 0 5.647-4.103l.436-.883.436.883a7.504 7.504 0 0 0 5.647 4.103l.974.142-.705.687a7.498 7.498 0 0 0-2.157 6.639l.167.97-.872-.458a7.504 7.504 0 0 0-6.98 0l-.871.458.167-.97a7.5 7.5 0 0 0-2.157-6.639l-.705-.687zM487.825 178.655c-2.701-5.472-10.75-5.472-13.451 0l-5.416 10.975-12.111 1.76c-6.039.877-8.526 8.533-4.157 12.792l8.764 8.542-2.068 12.062c-1.032 6.017 5.507 10.731 10.882 7.906l10.833-5.695 10.833 5.695c5.79 3.043 11.825-2.405 10.882-7.907l-2.069-12.062 8.764-8.542c4.369-4.259 1.882-11.916-4.157-12.792l-12.111-1.76zm-.374 26.08a7.5 7.5 0 0 0-2.157 6.639l.167.97-.872-.458a7.502 7.502 0 0 0-6.979 0l-.872.458.167-.971a7.499 7.499 0 0 0-2.157-6.638l-.705-.688.975-.142a7.498 7.498 0 0 0 5.647-4.103l.436-.883.436.883a7.5 7.5 0 0 0 5.647 4.103l.975.142zM150.516 442.444l-12.111-1.76-5.416-10.975c-2.701-5.472-10.75-5.472-13.451 0l-5.417 10.975-12.111 1.76c-6.039.877-8.526 8.534-4.156 12.792l8.763 8.542-2.069 12.062c-1.032 6.018 5.507 10.731 10.882 7.907l10.833-5.695 10.832 5.695c5.79 3.042 11.826-2.405 10.882-7.907l-2.069-12.062 8.763-8.542c4.371-4.258 1.884-11.915-4.155-12.792zm-17.9 13.346a7.498 7.498 0 0 0-2.157 6.639l.167.97-.871-.458a7.504 7.504 0 0 0-6.98 0l-.872.458.167-.97a7.5 7.5 0 0 0-2.157-6.639l-.705-.687.974-.142a7.502 7.502 0 0 0 5.647-4.103l.436-.883.436.883a7.5 7.5 0 0 0 5.647 4.103l.974.142zM90.578 377.132l11.956-11.654c4.369-4.259 1.883-11.916-4.156-12.792l-16.523-2.401-7.389-14.972c-2.701-5.472-10.75-5.472-13.451 0l-7.389 14.972-16.523 2.401c-6.039.877-8.526 8.534-4.156 12.792l11.956 11.654-2.822 16.456c-.943 5.501 5.093 10.949 10.882 7.906l14.778-7.77 14.779 7.77c5.376 2.825 11.913-1.89 10.882-7.907zm-13.293-7.989a7.499 7.499 0 0 0-2.157 6.638l.92 5.364-4.818-2.533a7.498 7.498 0 0 0-6.98 0l-4.817 2.533.92-5.364a7.499 7.499 0 0 0-2.157-6.638l-3.897-3.799 5.386-.783a7.498 7.498 0 0 0 5.647-4.103l2.408-4.88 2.409 4.88a7.502 7.502 0 0 0 5.647 4.103l5.386.783zM379.617 269.609c-3.797 0-7.517 3.824-7.5 7.533l.112 25.103c.042 9.417 15.044 9.819 15-.066l-.112-25.103a7.5 7.5 0 0 0-7.5-7.467zM301.27 303.055a7.5 7.5 0 0 0 .047 10.606l17.83 17.671c6.881 6.819 17.452-3.823 10.56-10.653l-17.83-17.671a7.502 7.502 0 0 0-10.607.047zM309.646 381.903c-.017-3.718-3.746-7.467-7.533-7.467l-25.103.112c-9.472.042-9.199 15 .066 15l25.103-.112a7.5 7.5 0 0 0 7.467-7.533zM331.22 431.913a7.5 7.5 0 0 0-10.606.047l-17.671 17.83c-6.822 6.883 3.821 17.454 10.653 10.56l17.671-17.83a7.5 7.5 0 0 0-.047-10.607zM381.871 452.019c-3.797 0-7.517 3.824-7.5 7.533l.112 25.103c.042 9.417 15.044 9.819 15-.066l-.112-25.103a7.5 7.5 0 0 0-7.5-7.467zM442.453 430.398c-6.888-6.825-17.447 3.827-10.56 10.653l17.83 17.671c6.881 6.819 17.452-3.823 10.56-10.653zM459.42 372.294c-9.472.042-9.199 15 .066 15l25.103-.112c9.694-.043 9.638-15.056-.066-15zM430.379 329.818c3.542 2.913 7.077 2.898 10.606-.047l17.671-17.83c6.827-6.887-3.827-17.447-10.653-10.56l-17.671 17.83a7.5 7.5 0 0 0 .047 10.607zM456.832 95.636h7.673v7.673a7.5 7.5 0 0 0 15 0v-7.673h7.673a7.5 7.5 0 0 0 0-15h-7.673v-7.673a7.5 7.5 0 0 0-15 0v7.673h-7.673a7.5 7.5 0 0 0 0 15zM405.036 155.582a7.5 7.5 0 0 0-15 0v7.673h-7.673a7.5 7.5 0 0 0 0 15h7.673v7.673a7.5 7.5 0 0 0 15 0v-7.673h7.673a7.5 7.5 0 0 0 0-15h-7.673zM212.642 387.356h-7.673v-7.673a7.5 7.5 0 0 0-15 0v7.673h-7.673a7.5 7.5 0 0 0 0 15h7.673v7.673a7.5 7.5 0 0 0 15 0v-7.673h7.673a7.5 7.5 0 0 0 0-15z"/></svg>