<svg xmlns="http://www.w3.org/2000/svg" width="512" height="512"><path d="M376 30a37.302 37.302 0 0 0-22.5 7.52C353.5 16.822 336.678 0 316 0c-12.254 0-23.153 5.909-30 15.026C279.153 5.909 268.254 0 256 0s-23.153 5.909-30 15.026C219.153 5.909 208.254 0 196 0c-20.678 0-37.5 16.822-37.5 37.5v61.427c-33.702 3.744-60 32.39-60 67.073v53.5c0 38.205 13.853 75.053 39.006 103.755 13.537 15.446 20.992 34.973 20.992 54.98l.002 66.265a7.5 7.5 0 0 0 15 0l-.002-66.265c0-23.646-8.776-46.684-24.71-64.867A142.358 142.358 0 0 1 113.5 219.5V166c0-28.948 23.551-52.5 52.5-52.5h60c12.407 0 22.5 10.094 22.5 22.5s-10.093 22.5-22.5 22.5h-29.981c-11.029 0-19.896 7.266-22.062 18.08-2.167 10.815 3.217 20.936 13.396 25.184l39.933 16.667c30.938 12.814 50.929 42.733 50.929 76.221 0 4.143 3.358 7.5 7.5 7.5s7.5-3.357 7.5-7.5c0-39.576-23.625-74.935-60.17-90.07l-39.915-16.659c-5.263-2.197-4.749-6.981-4.465-8.396.283-1.413 1.651-6.026 7.354-6.026H226a37.259 37.259 0 0 0 15.002-3.142A37.548 37.548 0 0 0 256 173.501c12.254 0 23.153-5.909 30-15.026 6.847 9.117 17.746 15.026 30 15.026s23.153-5.909 30-15.026c6.847 9.117 17.746 15.026 30 15.026a37.302 37.302 0 0 0 22.5-7.52v53.52c0 26.029-7.083 51.495-20.483 73.646-6.226 10.291-9.517 22.238-9.517 34.55V497h-195v-22.5c0-4.143-3.358-7.5-7.5-7.5s-7.5 3.357-7.5 7.5v30a7.5 7.5 0 0 0 7.5 7.5h210a7.5 7.5 0 0 0 7.5-7.5V327.695c0-9.574 2.542-18.837 7.351-26.786 14.817-24.492 22.649-52.643 22.649-81.409v-152c0-20.678-16.822-37.5-37.5-37.5zM196 15c12.407 0 22.5 10.094 22.5 22.5v61h-45v-61c0-12.406 10.093-22.5 22.5-22.5zm60 143.5a37.418 37.418 0 0 0 7.5-22.5c0-18.11-12.904-33.261-30-36.745V37.5c0-12.406 10.093-22.5 22.5-22.5s22.5 10.094 22.5 22.5V136c0 12.406-10.093 22.5-22.5 22.5zm60 0c-12.407 0-22.5-10.094-22.5-22.5V37.5c0-12.406 10.093-22.5 22.5-22.5s22.5 10.094 22.5 22.5V136c0 12.406-10.093 22.5-22.5 22.5zm60 0c-12.407 0-22.5-10.094-22.5-22.5V67.5c0-12.406 10.093-22.5 22.5-22.5s22.5 10.094 22.5 22.5V136c0 12.406-10.093 22.5-22.5 22.5z"/></svg>