<?xml version="1.0" encoding="utf-8"?>
<!-- Generator: Adobe Illustrator 24.0.1, SVG Export Plug-In . SVG Version: 6.00 Build 0)  -->
<svg version="1.1" id="Capa_1" xmlns="http://www.w3.org/2000/svg" xmlns:xlink="http://www.w3.org/1999/xlink" x="0px" y="0px"
	 viewBox="0 0 512 512" style="enable-background:new 0 0 512 512;" xml:space="preserve">
<g>
	<g>
		<path d="M25,512c-13.8,0-25-11.2-25-25V368.2c0-0.7,0-1.5,0-2.2V87.3c0-24.1,13.3-46.1,34.6-57.5C60.3,16.3,101.4,0,151,0
			c40,0,77.3,10.7,113.4,21c34.3,9.8,66.6,19,99.6,19c24.2,0,48.4-5,71.9-14.8c16.9-7.1,36.2-5.3,51.5,4.9
			C502.8,40.3,512,57.5,512,76v229.2c0,23.7-12.9,45.6-33.7,57C453.5,375.8,413.5,392,364,392c-40,0-77.3-10.7-113.4-21
			c-34.3-9.8-66.6-19-99.6-19c-46.1,0-83.8,18.5-101,28.6V487C50,500.8,38.8,512,25,512z M151,302c40,0,77.3,10.7,113.4,21
			c34.3,9.8,66.6,19,99.6,19c38.9,0,70.6-12.9,90.3-23.7c4.8-2.6,7.7-7.7,7.7-13.1V76c0-2.2-1.2-3.5-2.3-4.2c-1.4-1-2.9-1.1-4.5-0.5
			C425.6,83.7,394.9,90,364,90c-40,0-77.3-10.7-113.4-21C216.4,59.2,184,50,151,50c-39.3,0-72.3,13.1-93,24.1c-4.9,2.6-8,7.7-8,13.3
			v237C75,313.2,110.1,302,151,302z"/>
	</g>
</g>
</svg>
