<svg xmlns="http://www.w3.org/2000/svg" viewBox="-49 141 512 512"><path d="M310.748 259.195c-34.38-26.704-69.93-54.316-101.373-106.158a24.998 24.998 0 0 0-42.046-1.098c-2.453 3.605-56.515 85.254-25.867 220.057-21.81-.288-39.462-18.12-39.462-39.997 0-2.455.239-4.968.709-7.468a25 25 0 0 0-42.368-22.18C22.075 341.147 1 392.517 1 446.999c0 113.589 92.411 206 206 206s206-92.411 206-206c-.002-108.384-49.669-146.961-102.252-187.804zM178.674 591.284c-15.596-15.596-15.596-40.973 0-56.569l28.284-28.284.021.021.021-.021 28.284 28.284c15.596 15.596 15.596 40.973 0 56.569-7.555 7.555-17.6 11.715-28.284 11.715h-.088c-10.668-.013-20.695-4.172-28.238-11.715zm117.477-16.344c3.564-26.844-4.928-54.997-25.511-75.58l-45.962-45.962a24.924 24.924 0 0 0-17.699-7.322 24.924 24.924 0 0 0-17.699 7.322l-45.962 45.962c-20.575 20.575-29.068 48.714-25.515 75.548C77.448 546.681 51 499.874 51 446.999c0-23.493 5.175-46.221 14.982-66.864 15.979 25.144 44.083 41.864 76.018 41.864 14.361 0 28.679-3.491 41.405-10.095 10.604-5.503 15.833-17.741 12.479-29.208-15.438-52.783-17.976-102.919-7.542-149.015a226.226 226.226 0 0 1 4.507-16.887c29.03 36.688 59.541 60.385 87.228 81.89C330.011 337.468 362.998 363.091 363 447c0 52.894-26.468 99.716-66.849 127.94z"/></svg>