<?xml version="1.0" encoding="iso-8859-1"?>
<!-- Generator: Adobe Illustrator 19.0.0, SVG Export Plug-In . SVG Version: 6.00 Build 0)  -->
<svg version="1.1" id="Layer_1" xmlns="http://www.w3.org/2000/svg" xmlns:xlink="http://www.w3.org/1999/xlink" x="0px" y="0px"
	 viewBox="0 0 511.997 511.997" style="enable-background:new 0 0 511.997 511.997;" xml:space="preserve">
<path d="M359.746,118.193c-34.38-26.704-69.93-54.316-101.373-106.158c-4.411-7.274-12.219-11.805-20.723-12.027
	c-8.509-0.216-16.537,3.896-21.323,10.929c-2.453,3.605-56.515,85.254-25.867,220.057c-21.81-0.288-39.462-18.12-39.462-39.997
	c0-2.455,0.239-4.968,0.709-7.468c2.034-10.806-3.232-21.673-12.974-26.773c-9.74-5.099-21.672-3.236-29.394,4.593
	c-38.268,38.796-59.342,90.166-59.342,144.648c0,113.589,92.411,206,206,206s206-92.411,206-206c0,0,0,0,0,0
	C461.996,197.613,412.329,159.036,359.746,118.193z M227.672,450.282c-15.596-15.596-15.596-40.973,0-56.569l28.284-28.284
	l0.021,0.021l0.021-0.021l28.284,28.284c15.596,15.596,15.596,40.973,0,56.569c-7.555,7.555-17.6,11.715-28.284,11.715
	c-0.007,0-0.014,0-0.021,0c-0.002,0-0.004,0-0.006,0c-0.02,0-0.041,0-0.061,0C245.243,461.984,235.216,457.825,227.672,450.282z
	 M345.149,433.938c3.564-26.844-4.928-54.997-25.511-75.58l-45.962-45.962c-4.887-4.887-11.294-7.327-17.699-7.322
	c-6.405-0.005-12.812,2.435-17.699,7.322l-45.962,45.962c-20.575,20.575-29.068,48.714-25.515,75.548
	c-40.355-28.227-66.803-75.034-66.803-127.909c0-23.493,5.175-46.221,14.982-66.864c15.979,25.144,44.083,41.864,76.018,41.864
	c14.361,0,28.679-3.491,41.405-10.095c10.604-5.503,15.833-17.741,12.479-29.208c-15.438-52.783-17.976-102.919-7.542-149.015
	c1.385-6.117,2.919-11.753,4.507-16.887c29.03,36.688,59.541,60.385,87.228,81.89c49.934,38.784,82.921,64.407,82.923,148.316
	C411.998,358.892,385.53,405.714,345.149,433.938z"/>
<g>
</g>
<g>
</g>
<g>
</g>
<g>
</g>
<g>
</g>
<g>
</g>
<g>
</g>
<g>
</g>
<g>
</g>
<g>
</g>
<g>
</g>
<g>
</g>
<g>
</g>
<g>
</g>
<g>
</g>
</svg>
