<svg width="512" height="512" viewBox="0 0 512 512" fill="none" xmlns="http://www.w3.org/2000/svg">
<path d="M277.312 185.798H161.054L124.498 122.878H313.867L369 27.0001H56.1817C46.3225 26.9818 36.635 29.579 28.1074 34.5269C19.5798 39.4747 12.5175 46.5961 7.64091 55.1643C2.63739 63.7071 0 73.4285 0 83.3285C0 93.2286 2.63739 102.95 7.64091 111.493L207.197 457.253C212.173 465.703 219.269 472.707 227.782 477.574C236.296 482.44 245.932 485 255.738 485C265.544 485 275.181 482.44 283.694 477.574C292.208 472.707 299.303 465.703 304.279 457.253L310.871 445.868L219.183 286.47L277.312 185.798Z" fill="black"/>
<path d="M504.52 55.1367C499.635 46.5768 492.56 39.4625 484.017 34.5195C475.474 29.5765 465.769 26.9818 455.893 27.0001H442.085L292 286.216L347.231 382L504.52 110.811C509.42 102.348 512 92.7469 512 82.9739C512 73.201 509.42 63.6003 504.52 55.1367V55.1367Z" fill="black"/>
</svg>
