<svg width="118" height="118" xmlns="http://www.w3.org/2000/svg"><g fill="#000" fill-rule="evenodd"><path d="M47.676 63.91H59.94L70.822 46h-34.12l-11.25-18.364h56.62L92.955 9.727H9.406c-3.32 0-6.27 1.728-7.93 4.546-1.568 2.818-1.568 6.272.092 9l49.335 80.545a9.08 9.08 0 0 0 7.747 4.364 9.08 9.08 0 0 0 7.746-4.364l2.859-4.636-21.58-35.273zM91.94 27.636h21.21l2.674-4.363c1.66-2.728 1.752-6.182.092-9-1.568-2.818-4.61-4.546-7.93-4.546h-5.165L91.94 27.637z"/><path d="M86.776 36.182L63.722 73.909l10.512 17.273 33.66-55z"/></g></svg>