<svg width="1718" height="512" viewBox="0 0 1718 512" fill="none" xmlns="http://www.w3.org/2000/svg">
<path d="M293.762 441.279H226.055V67.3923H293.762V441.279Z" fill="black"/>
<path d="M590.954 441.279H525.045V413.717C508.867 434.089 484.3 447.87 449.548 447.87C380.043 447.87 327.915 390.948 327.915 315.452C327.915 239.956 380.643 183.034 449.548 183.034C484.3 183.034 508.268 196.815 525.045 217.786V190.224H590.954V441.279ZM396.821 315.452C396.821 353.799 421.986 384.957 461.532 384.957C500.478 384.957 526.243 355.597 526.243 315.452C526.243 275.307 499.879 245.947 461.532 245.947C421.986 246.547 396.821 277.105 396.821 315.452Z" fill="black"/>
<path d="M927.692 107.537C927.692 132.104 908.518 150.678 884.551 150.678C859.985 150.678 841.41 132.104 841.41 107.537C841.41 82.971 859.985 63.7973 884.551 63.7973C908.518 64.3965 927.692 83.5702 927.692 107.537ZM918.704 441.279H850.997V189.625H918.704V441.279Z" fill="black"/>
<path d="M191.901 132.703C181.715 128.509 163.74 121.918 143.967 124.315C124.793 126.711 114.608 136.298 114.608 159.666V190.224H192.501V250.741H114.608V442.478H46.9003V250.741H0.16449V190.823H46.9003V159.666C46.9003 100.347 78.0575 62 136.777 62C158.946 62 177.521 66.1943 192.501 72.7852L191.901 132.703Z" fill="black"/>
<path d="M763.517 384.956C742.546 384.956 725.769 373.572 725.769 342.415V250.741H816.844V190.823H725.769V115.926H658.062V190.823H623.909V250.741H658.062V347.807C658.062 413.118 689.818 448.469 752.133 448.469C777.897 448.469 798.869 442.477 816.245 433.49L790.48 378.965C782.092 382.56 773.104 384.956 763.517 384.956Z" fill="black"/>
<path d="M1445.98 315.452C1445.98 390.948 1387.86 447.87 1309.97 447.87C1232.07 447.87 1173.95 391.547 1173.95 315.452C1173.95 239.356 1231.47 183.034 1309.97 183.034C1387.86 183.034 1445.98 239.956 1445.98 315.452ZM1242.86 315.452C1242.86 356.196 1271.62 384.957 1309.37 384.957C1347.72 384.957 1376.48 356.196 1376.48 315.452C1376.48 274.708 1347.72 245.947 1309.37 245.947C1271.02 246.547 1242.86 274.708 1242.86 315.452Z" fill="black"/>
<path d="M1717.41 281.299V441.279H1649.7V302.869C1649.7 266.32 1631.73 246.547 1600.57 246.547C1571.21 246.547 1547.24 265.72 1547.24 303.468V441.279H1479.53V189.625H1545.44V218.984C1563.42 192.022 1590.98 182.435 1619.14 182.435C1676.66 183.034 1717.41 223.179 1717.41 281.299Z" fill="black"/>
<path d="M1140.4 359.791C1127.22 374.171 1110.44 383.159 1091.27 384.956C1089.47 384.956 1087.67 385.556 1085.87 385.556C1082.28 385.556 1078.68 384.956 1075.09 384.357C1055.92 380.762 1039.74 368.779 1030.75 350.803C1025.96 341.217 1023.56 329.233 1023.56 316.051C1023.56 302.869 1026.56 290.886 1031.35 280.7C1040.34 262.724 1056.52 250.741 1076.29 247.745C1079.88 247.146 1082.88 247.146 1086.47 247.146C1087.67 247.146 1089.47 247.146 1090.67 247.146C1110.44 248.344 1126.02 256.732 1140.4 272.311L1173.35 214.79C1159.57 202.806 1142.8 193.819 1124.82 189.025C1113.44 186.03 1101.45 184.232 1088.27 184.232C1072.09 184.232 1057.11 186.629 1043.33 190.823C1024.76 196.815 1008.58 205.802 995.399 218.385C969.634 242.352 954.655 276.505 954.655 316.65C954.655 356.196 969.634 390.349 994.8 414.316C1007.98 426.899 1024.16 435.887 1042.73 441.878C1056.51 446.073 1072.09 449.068 1088.87 449.068C1102.05 449.068 1114.64 447.271 1126.02 444.275C1144.59 439.482 1160.77 430.494 1174.55 417.911L1140.4 359.791Z" fill="black"/>
</svg>
