<svg width="512" height="512" viewBox="0 0 512 512" fill="none" xmlns="http://www.w3.org/2000/svg">
<g clip-path="url(#clip0)">
<path d="M277.87 185.783H161.629L125.079 122.869H313.821L368.946 27H56.1731C35.8009 27 17.8256 37.1861 7.63956 55.1615C-2.54652 72.5377 -2.54652 93.509 7.63956 111.484L207.167 457.811C217.353 475.187 235.328 485.973 255.7 485.973C276.072 485.973 294.048 475.786 304.234 457.811L310.825 446.427L219.15 287.644L277.87 185.783Z" fill="black"/>
<path d="M504.361 55.1615C494.174 37.7852 476.199 27 455.827 27H442.645L292.85 286.445L347.974 382.314L504.361 110.885C514.547 93.5091 514.547 72.5377 504.361 55.1615Z" fill="black"/>
</g>
<defs>
<clipPath id="clip0">
<rect width="512" height="512" fill="white"/>
</clipPath>
</defs>
</svg>
