<?xml version="1.0" encoding="UTF-8"?>
<svg width="118px" height="118px" viewBox="0 0 118 118" version="1.1" xmlns="http://www.w3.org/2000/svg" xmlns:xlink="http://www.w3.org/1999/xlink">
    <!-- Generator: Sketch 52.6 (67491) - http://www.bohemiancoding.com/sketch -->
    <title>Artboard</title>
    <desc>Created with Sketch.</desc>
    <g id="Artboard" stroke="none" stroke-width="1" fill="none" fill-rule="evenodd">
        <g id="flaticon" transform="translate(0.000000, 9.000000)" fill="#000000">
            <path d="M47.6759229,54.9090909 L59.9407154,54.9090909 L70.8222607,37 L36.7021611,37 L25.4517499,18.6363636 L82.0726719,18.6363636 L92.9542172,0.727272727 L9.4060815,0.727272727 C6.08628803,0.727272727 3.1353605,2.45454545 1.47546376,5.27272727 C-0.0922164853,8.09090909 -0.0922164853,11.5454545 1.56768025,14.2727273 L50.9034999,94.8181818 C52.5633966,97.5454545 55.5143241,99.1818182 58.6496846,99.1818182 C61.7850451,99.1818182 64.7359727,97.5454545 66.3958694,94.8181818 L69.2545805,90.1818182 L47.6759229,54.9090909 Z" id="Shape"></path>
            <g id="Shape" transform="translate(63.629375, 0.000000)">
                <path d="M28.310461,18.6363636 L49.5202526,18.6363636 L52.1945307,14.2727273 C53.8544274,11.5454545 53.9466439,8.09090909 52.2867472,5.27272727 C50.7190669,2.45454545 47.6759229,0.727272727 44.3561294,0.727272727 L39.1920062,0.727272727 L28.310461,18.6363636 Z" id="Path"></path>
                <polygon id="Path" points="23.1463378 27.1818182 0.0922164853 64.9090909 10.6048958 82.1818182 44.2639129 27.1818182"></polygon>
            </g>
        </g>
    </g>
</svg>