<?xml version="1.0" encoding="iso-8859-1"?>
<!-- Generator: Adobe Illustrator 19.0.0, SVG Export Plug-In . SVG Version: 6.00 Build 0)  -->
<svg version="1.1" id="Layer_1" xmlns="http://www.w3.org/2000/svg" xmlns:xlink="http://www.w3.org/1999/xlink" x="0px" y="0px"
	 viewBox="0 0 512.09 512.09" style="enable-background:new 0 0 512.09 512.09;" xml:space="preserve">
<g>
	<path d="M210.641,0.481c-11.814-2.232-23.534,4.258-27.918,15.446l-181,462c-3.015,7.694-2.032,16.382,2.626,23.208
		c4.657,6.827,12.388,10.911,20.651,10.911h181c13.808,0,25-11.192,25-25v-462C231,13.029,222.449,2.712,210.641,0.481z
		 M181,462.047H61.645L181,157.393V462.047z"/>
	<path d="M510.367,477.927l-181-462c-4.384-11.189-16.104-17.671-27.918-15.446c-11.809,2.23-20.359,12.548-20.359,24.565v462
		c0,13.808,11.192,25,25,25h181c8.264,0,15.994-4.084,20.651-10.911C512.4,494.309,513.382,485.622,510.367,477.927z"/>
</g>
<g>
</g>
<g>
</g>
<g>
</g>
<g>
</g>
<g>
</g>
<g>
</g>
<g>
</g>
<g>
</g>
<g>
</g>
<g>
</g>
<g>
</g>
<g>
</g>
<g>
</g>
<g>
</g>
<g>
</g>
</svg>
