<?xml version="1.0" encoding="iso-8859-1"?>
<!-- Generator: Adobe Illustrator 19.0.0, SVG Export Plug-In . SVG Version: 6.00 Build 0)  -->
<svg version="1.1" id="Layer_1" xmlns="http://www.w3.org/2000/svg" xmlns:xlink="http://www.w3.org/1999/xlink" x="0px" y="0px"
	 viewBox="-49 141 512 512" style="enable-background:new -49 141 512 512;" xml:space="preserve">
<g>
	<path d="M161.596,141.436c-11.814-2.232-23.534,4.258-27.918,15.446l-181,462c-3.015,7.694-2.032,16.382,2.626,23.208
		c4.657,6.827,12.388,10.911,20.651,10.911h181c13.808,0,25-11.192,25-25v-462C181.955,153.984,173.404,143.667,161.596,141.436z
		 M131.955,603.002H12.6l119.355-304.654V603.002z"/>
	<path d="M461.322,618.883l-181-462c-4.384-11.189-16.104-17.671-27.918-15.446c-11.809,2.23-20.359,12.548-20.359,24.565v462
		c0,13.808,11.192,25,25,25h181c8.264,0,15.994-4.084,20.651-10.911C463.355,635.264,464.337,626.577,461.322,618.883z"/>
</g>
</svg>
