<svg xmlns="http://www.w3.org/2000/svg" width="512" height="512"><path d="M502.693 228.489c-15.062-15.631-36.664-24.595-59.267-24.595-.08 0-.159.006-.239.006 2.744-8.382 4.114-17.144 3.951-25.923a10.42 10.42 0 0 0-10.259-10.259c-4.553-.088-9.1.244-13.591.962a35.472 35.472 0 0 0 6.219-4.948 35.182 35.182 0 0 0 9.596-32.128 35.181 35.181 0 0 0-21.603-25.645l-27.298-10.764a16.374 16.374 0 0 0 2.171-8.158c0-4.401-1.714-8.539-4.825-11.651l-23.085-23.084a16.37 16.37 0 0 0-11.651-4.826c-2.91 0-5.698.764-8.158 2.172L333.89 22.35A35.181 35.181 0 0 0 308.245.747c-11.685-2.425-23.692 1.16-32.129 9.597a35.33 35.33 0 0 0-7.164 10.333 150.576 150.576 0 0 0-14.819-.755c-70.435 0-129.643 48.954-145.411 114.622-9.282.442-17.307 5.684-21.52 13.439-8.846-2.616-18.704-.361-25.648 6.582-6.942 6.943-9.198 16.801-6.581 25.647a25.752 25.752 0 0 0-11.339 12.435c-8.7-2.98-17.831-4.487-26.998-4.31a10.42 10.42 0 0 0-10.259 10.259c-.401 21.704 8.534 43.318 24.517 59.299a84.725 84.725 0 0 0 12.169 10.065c-6.855 9.033-10.933 20.282-10.933 32.474 0 24.054 15.847 44.472 37.647 51.375 3.455 11.534 10.67 21.453 20.223 28.327l27.76 114.943a22.053 22.053 0 0 0 21.497 16.923h229.755c3.844 0 7.49-.979 10.673-2.728a22.053 22.053 0 0 0 10.824-14.196l25.52-105.671c19.784-1.491 36.239-15.102 41.932-33.412a47.697 47.697 0 0 0 26.933-22.389 7.501 7.501 0 0 0-13.155-7.208 32.657 32.657 0 0 1-11.753 12.259c-.749-11.197-5.392-21.333-12.571-29.099.076-.943.126-1.892.126-2.854s-.05-1.912-.126-2.854c5.56-6.015 9.589-13.453 11.473-21.706a32.601 32.601 0 0 1 14.256 15.795 7.5 7.5 0 1 0 13.803-5.873 47.622 47.622 0 0 0-27.173-25.998l-.01-.068c16.447-3.209 31.553-11.198 42.926-23a10.416 10.416 0 0 0 .003-14.511zm-70.636-45.691c-.825 14.899-7.023 29.51-17.441 41.109a47.716 47.716 0 0 0-10.945.756v-33.498c8.813-4.912 18.534-7.821 28.386-8.367zm-33.724 156.075a32.44 32.44 0 0 1-16.559 4.531c-18.021 0-32.684-14.662-32.684-32.684 0-12.28 6.812-22.99 16.852-28.572 1.885 8.251 5.913 15.686 11.471 21.699a35.452 35.452 0 0 0-.126 2.854c.001 14.363 8.669 26.733 21.046 32.172zm-6.045-32.171c0-11.098 9.029-20.126 20.127-20.126s20.127 9.029 20.127 20.126c0 11.098-9.029 20.127-20.127 20.127s-20.127-9.029-20.127-20.127zm-188.021 62.755-3.855-25.582h107.445l-3.855 25.582zm97.476 15-3.505 23.263h-88.205l-3.505-23.263zm-112.645-15h-25.243a53.748 53.748 0 0 0 9.143-17.679 53.689 53.689 0 0 0 12.553-5.862zm-67.723-153.125c2.82 0 5.57.306 8.219.881.952 20.021 12.88 37.209 29.887 45.674a38.678 38.678 0 0 1-4.673 12.122c-6.961-11.158-19.342-18.602-33.434-18.602-14.093 0-26.473 7.444-33.435 18.602a38.603 38.603 0 0 1-5.445-19.798c.001-21.438 17.442-38.879 38.881-38.879zm83.659 30.566a38.61 38.61 0 0 1-21.627 6.607c-21.438 0-38.88-17.441-38.88-38.879 0-15.157 8.724-28.305 21.411-34.713 2.005 10.088 6.832 19.164 13.627 26.378a39.616 39.616 0 0 0-.179 3.696c-.001 16.889 10.685 31.324 25.648 36.911zm-9.416 53.533c0 14.759-8.271 27.612-20.418 34.193-.437-13.57-5.907-25.88-14.614-35.129.114-1.219.174-2.454.174-3.703 0-1.247-.065-2.479-.179-3.697a54.075 54.075 0 0 0 10.591-16.36 54.231 54.231 0 0 0 24.401 23.452c.015.415.045.826.045 1.244zm-11.335-31.951c16.345-.264 30.937-7.834 40.649-19.592 11.494-1.814 21.345-8.621 27.271-18.118a38.608 38.608 0 0 1 5.446 19.8c0 21.438-17.441 38.879-38.879 38.879-14.98.001-27.999-8.521-34.487-20.969zm34.488-34.106c-13.446 0-24.386-10.939-24.386-24.386s10.939-24.386 24.386-24.386 24.386 10.939 24.386 24.386-10.94 24.386-24.386 24.386zm33.434-45.17c-6.961-11.157-19.342-18.602-33.434-18.602-14.093 0-26.473 7.444-33.435 18.602a38.604 38.604 0 0 1-5.445-19.799c0-21.438 17.441-38.879 38.88-38.879 21.438 0 38.879 17.441 38.879 38.879 0 7.23-1.993 13.996-5.445 19.799zM144.01 177.941v-8.487c0-2.23.093-4.452.229-6.669a10.976 10.976 0 0 1 3.583 2.382 10.921 10.921 0 0 1 3.144 6.492 54.395 54.395 0 0 0-6.956 6.282zm-22.635 93.466c13.446 0 24.386 10.939 24.386 24.386s-10.939 24.386-24.386 24.386-24.387-10.939-24.387-24.386 10.939-24.386 24.387-24.386zm6.161 63.286c11.494-1.814 21.345-8.621 27.271-18.118a38.608 38.608 0 0 1 5.446 19.8c0 21.438-17.441 38.879-38.879 38.879-14.981 0-28-8.522-34.488-20.969 16.346-.264 30.937-7.834 40.65-19.592zm74.929-5.818a53.48 53.48 0 0 0 8.035-25.069c2.697.418 5.458.644 8.271.644a53.507 53.507 0 0 0 24.634-5.982h92.29a47.537 47.537 0 0 0-1.605 12.253 47.402 47.402 0 0 0 3.6 18.155H202.465zm135.189-164.063a7.5 7.5 0 0 0 6.223 4.597c5.238.495 9.235 4.675 9.582 9.859a52.391 52.391 0 0 0-23.957-5.766 52.61 52.61 0 0 0-31.245 10.261c-6.331-9.013-15.347-16.011-25.882-19.814a53.494 53.494 0 0 0-7.325-22.082 10.565 10.565 0 0 1 13.107.32 7.501 7.501 0 0 0 12.247-5.073c.519-5.482 5.071-9.617 10.589-9.617s10.07 4.134 10.589 9.617a7.5 7.5 0 0 0 12.247 5.073c4.243-3.51 10.386-3.214 14.287.688 3.902 3.902 4.197 10.044.688 14.288a7.496 7.496 0 0 0-1.15 7.649zm5.021 118.655h-81.282a53.8 53.8 0 0 0 9.001-17.493c16.392-5.201 29.413-18.037 34.856-34.316a25.033 25.033 0 0 1 5.059-.535c13.92 0 25.245 11.325 25.245 25.246a25.34 25.34 0 0 1-.82 6.403 7.498 7.498 0 0 0 8.839 9.228 25.414 25.414 0 0 1 5.358-.575c1.753 0 3.465.189 5.124.531a48.104 48.104 0 0 0-11.38 11.511zm21.584-24.022a40.217 40.217 0 0 0-13.704-2.989v-.089c0-22.191-18.054-40.246-40.245-40.246-.781 0-1.557.029-2.328.074.015-.522.032-1.044.032-1.569a53.6 53.6 0 0 0-2.835-17.228 37.644 37.644 0 0 1 24.322-8.897c15.606 0 29.028 9.526 34.758 23.069zm-92.656-79.531c12.687 6.407 21.411 19.556 21.411 34.713 0 14.754-8.267 27.604-20.407 34.187-.439-13.568-5.918-25.875-14.624-35.123.114-1.219.174-2.454.174-3.703 0-1.247-.065-2.479-.179-3.697 6.794-7.214 11.621-16.29 13.625-26.377zm51.423 163.961h24.531c5.313 5.478 11.92 9.695 19.329 12.136a47.585 47.585 0 0 0 6.672 13.446h-54.386zM379.1 163.209a35.087 35.087 0 0 0 9.572 7.074v59.93a47.938 47.938 0 0 0-9.412 7.103v-67.861a126.84 126.84 0 0 0-.16-6.246zm24.572 11.243v-.405c.301.008.603.022.904.023-.302.127-.604.251-.904.382zM412 119.911c6.476 2.554 11.002 7.927 12.418 14.743 1.417 6.815-.594 13.547-5.517 18.47-4.922 4.922-11.651 6.934-18.47 5.517-6.815-1.417-12.188-5.943-14.741-12.419l-12.918-32.759 6.468-6.468zm-60.231-57.005c.357-.357.765-.433 1.044-.433s.687.075 1.044.433l23.085 23.084c.358.358.433.766.433 1.045s-.074.687-.432 1.045l-23.086 23.084c-.357.357-.765.433-1.044.433s-.687-.075-1.045-.433L328.684 88.08c-.358-.358-.433-.766-.433-1.045s.074-.687.433-1.045zm-65.044-41.959c3.889-3.889 8.906-5.96 14.203-5.96 1.407 0 2.835.146 4.266.444 6.815 1.417 12.189 5.943 14.742 12.419l12.918 32.758-6.469 6.469-32.759-12.917c-6.476-2.554-11.002-7.927-12.418-14.743s.594-13.548 5.517-18.47zm-32.59 13.971c3.928 0 7.811.193 11.654.527.013 2.334.247 4.685.733 7.023.179.861.398 1.707.637 2.543a125.395 125.395 0 0 0-13.025-.682c-24.405 0-48.079 7.068-68.462 20.441a7.5 7.5 0 0 0-2.156 10.385 7.5 7.5 0 0 0 10.385 2.157c17.932-11.765 38.76-17.983 60.233-17.983 8.174 0 16.139.905 23.81 2.603a35.335 35.335 0 0 0 10.18 6.18l27.298 10.764a16.374 16.374 0 0 0-2.171 8.158 16.37 16.37 0 0 0 4.826 11.651l23.084 23.083a16.366 16.366 0 0 0 14.304 4.603 109.41 109.41 0 0 1 8.723 39.355 25.468 25.468 0 0 0-8.934-8.208c2.543-8.719.305-18.416-6.533-25.254-6.838-6.837-16.536-9.074-25.253-6.532-4.367-7.964-12.807-13.238-22.477-13.238s-18.109 5.274-22.477 13.238a25.495 25.495 0 0 0-22.873 4.437c-9.646-9.071-22.617-14.645-36.872-14.645-27.868 0-50.86 21.266-53.604 48.422-.214.077-.423.164-.636.244a25.981 25.981 0 0 0-6.101-9.632 25.898 25.898 0 0 0-12.203-6.882c3.595-17.714 11.508-34.436 23.185-48.49a7.5 7.5 0 0 0-11.538-9.586c-18.613 22.401-28.863 50.76-28.863 79.852v32.433a53.562 53.562 0 0 0-7.636-.556c-.595 0-1.186.023-1.776.042v-31.92c.001-74.18 60.355-134.533 134.538-134.533zM66.383 192.108a7.5 7.5 0 0 0 5.073-12.247c-3.609-4.364-3.306-10.681.706-14.693 4.013-4.012 10.33-4.316 14.694-.707a7.501 7.501 0 0 0 12.247-5.073 10.866 10.866 0 0 1 6.715-9.07 150.332 150.332 0 0 0-1.22 19.136v34.563a54.007 54.007 0 0 0-23.091 14.996 84.217 84.217 0 0 0-5.57-6.162 85.274 85.274 0 0 0-18.604-14.071 10.862 10.862 0 0 1 9.05-6.672zm-44.922 11.308c16.104.893 31.881 8.053 43.869 20.042h.001a69.947 69.947 0 0 1 7.366 8.696 53.44 53.44 0 0 0-4.927 17.6 53.86 53.86 0 0 0-13.81 7.425 70.111 70.111 0 0 1-12.458-9.893c-11.991-11.991-19.15-27.765-20.041-43.87zm25.67 97.015c0-15.153 8.719-28.297 21.399-34.707 2.008 10.083 6.844 19.158 13.637 26.372a39.638 39.638 0 0 0-.179 3.697c0 16.887 10.686 31.323 25.65 36.91a38.61 38.61 0 0 1-21.627 6.607c-21.439 0-38.88-17.441-38.88-38.879zm60.3 87.98a53.725 53.725 0 0 0 13.944 1.844 53.534 53.534 0 0 0 24.266-5.797h45.718l3.505 23.263h-82.77zm14.743 61.05-6.458-26.741h81.408l4.03 26.741zm257.058 28.415-3.304 13.68a7.093 7.093 0 0 1-6.916 5.444H139.258a7.094 7.094 0 0 1-6.917-5.446l-6.543-27.094h99.195c4.143 0 7.5-3.358 7.5-7.5s-3.357-7.5-7.5-7.5h-8.67l-4.03-26.741h83.684l-4.03 26.741h-31.955c-4.143 0-7.5 3.358-7.5 7.5s3.357 7.5 7.5 7.5h122.479zm6.863-28.415h-78.978l4.03-26.741h81.407zm10.081-41.741h-82.77l3.505-23.263h74.103a47.234 47.234 0 0 0 9.891 3.683zm16.239-33.173c-12.017 0-22.531-6.524-28.208-16.212 13.668-.691 25.835-7.159 34.101-17.011 9.511-1.614 17.73-7.059 23.01-14.692a32.463 32.463 0 0 1 3.781 15.231c0 18.022-14.662 32.684-32.684 32.684zm28.903-87.776c-6.344-9.172-16.931-15.196-28.903-15.196s-22.559 6.024-28.903 15.196a32.463 32.463 0 0 1-3.781-15.231c0-18.022 14.662-32.685 32.685-32.685s32.685 14.662 32.685 32.685a32.485 32.485 0 0 1-3.783 15.231zm14.347-35.274a47.957 47.957 0 0 0-24.769-23.899 86.258 86.258 0 0 0 5.444-8.335 69.464 69.464 0 0 1 7.086-.369c16.956 0 33.172 6.092 45.192 16.849-9.082 8.129-20.567 13.573-32.953 15.754z"/></svg>