<svg id="Capa_1" enable-background="new 0 0 512 512" height="512" viewBox="0 0 512 512" width="512" xmlns="http://www.w3.org/2000/svg"><g><path d="m502.693 228.489c-15.062-15.631-36.664-24.595-59.267-24.595-.08 0-.159.006-.239.006 2.744-8.382 4.114-17.144 3.951-25.923-.104-5.647-4.609-10.153-10.259-10.259-4.553-.088-9.1.244-13.591.962 2.223-1.397 4.315-3.044 6.219-4.948 8.436-8.437 12.023-20.447 9.596-32.128-2.428-11.681-10.503-21.268-21.603-25.645l-27.298-10.764c1.407-2.46 2.171-5.247 2.171-8.158 0-4.401-1.714-8.539-4.825-11.651l-23.085-23.084c-3.112-3.112-7.25-4.826-11.651-4.826-2.91 0-5.698.764-8.158 2.172l-10.764-27.298c-4.377-11.1-13.964-19.175-25.645-21.603-11.685-2.425-23.692 1.16-32.129 9.597-3.039 3.04-5.438 6.548-7.164 10.333-4.878-.482-9.817-.755-14.819-.755-70.435 0-129.643 48.954-145.411 114.622-9.282.442-17.307 5.684-21.52 13.439-8.846-2.616-18.704-.361-25.648 6.582-6.942 6.943-9.198 16.801-6.581 25.647-5.067 2.754-9.055 7.139-11.339 12.435-8.7-2.98-17.831-4.487-26.998-4.31-5.648.104-10.154 4.61-10.259 10.259-.401 21.704 8.534 43.318 24.517 59.299 3.764 3.764 7.85 7.118 12.169 10.065-6.855 9.033-10.933 20.282-10.933 32.474 0 24.054 15.847 44.472 37.647 51.375 3.455 11.534 10.67 21.453 20.223 28.327l27.76 114.943c2.406 9.964 11.247 16.923 21.497 16.923h229.755c3.844 0 7.49-.979 10.673-2.728 5.304-2.915 9.321-7.968 10.824-14.196l25.52-105.671c19.784-1.491 36.239-15.102 41.932-33.412 11.315-3.725 21.027-11.61 26.933-22.389 1.99-3.633.659-8.191-2.974-10.182-3.632-1.99-8.19-.658-10.181 2.974-2.821 5.149-6.911 9.33-11.753 12.259-.749-11.197-5.392-21.333-12.571-29.099.076-.943.126-1.892.126-2.854s-.05-1.912-.126-2.854c5.56-6.015 9.589-13.453 11.473-21.706 6.25 3.453 11.333 8.926 14.256 15.795 1.623 3.812 6.026 5.584 9.838 3.965 3.812-1.622 5.587-6.026 3.965-9.838-5.222-12.271-15.158-21.507-27.173-25.998-.003-.023-.007-.045-.01-.068 16.447-3.209 31.553-11.198 42.926-23 3.925-4.071 3.925-10.446.003-14.511zm-70.636-45.691c-.825 14.899-7.023 29.51-17.441 41.109-.73-.033-1.464-.052-2.202-.052-2.986 0-5.908.28-8.743.808v-33.498c8.813-4.912 18.534-7.821 28.386-8.367zm-33.724 156.075c-4.859 2.872-10.516 4.531-16.559 4.531-18.021 0-32.684-14.662-32.684-32.684 0-12.28 6.812-22.99 16.852-28.572 1.885 8.251 5.913 15.686 11.471 21.699-.076.943-.126 1.892-.126 2.854.001 14.363 8.669 26.733 21.046 32.172zm-6.045-32.171c0-11.098 9.029-20.126 20.127-20.126s20.127 9.029 20.127 20.126c0 11.098-9.029 20.127-20.127 20.127s-20.127-9.029-20.127-20.127zm-188.021 62.755-3.855-25.582h107.445l-3.855 25.582zm97.476 15-3.505 23.263h-88.205l-3.505-23.263zm-112.645-15h-25.243c4.07-5.214 7.203-11.189 9.143-17.679 4.463-1.416 8.674-3.398 12.553-5.862zm-67.723-153.125c2.82 0 5.57.306 8.219.881.952 20.021 12.88 37.209 29.887 45.674-.878 4.344-2.476 8.429-4.673 12.122-6.961-11.158-19.342-18.602-33.434-18.602-14.093 0-26.473 7.444-33.435 18.602-3.452-5.803-5.445-12.57-5.445-19.798.001-21.438 17.442-38.879 38.881-38.879zm83.659 30.566c-6.188 4.164-13.624 6.607-21.627 6.607-21.438 0-38.88-17.441-38.88-38.879 0-15.157 8.724-28.305 21.411-34.713 2.005 10.088 6.832 19.164 13.627 26.378-.114 1.218-.179 2.449-.179 3.696-.001 16.889 10.685 31.324 25.648 36.911zm-9.416 53.533c0 14.759-8.271 27.612-20.418 34.193-.437-13.57-5.907-25.88-14.614-35.129.114-1.219.174-2.454.174-3.703 0-1.247-.065-2.479-.179-3.697 4.456-4.732 8.066-10.267 10.591-16.36 5.404 10.191 13.977 18.451 24.401 23.452.015.415.045.826.045 1.244zm-11.335-31.951c16.345-.264 30.937-7.834 40.649-19.592 11.494-1.814 21.345-8.621 27.271-18.118 3.452 5.803 5.446 12.571 5.446 19.8 0 21.438-17.441 38.879-38.879 38.879-14.98.001-27.999-8.521-34.487-20.969zm34.488-34.106c-13.446 0-24.386-10.939-24.386-24.386s10.939-24.386 24.386-24.386 24.386 10.939 24.386 24.386-10.94 24.386-24.386 24.386zm33.434-45.17c-6.961-11.157-19.342-18.602-33.434-18.602-14.093 0-26.473 7.444-33.435 18.602-3.452-5.803-5.445-12.57-5.445-19.799 0-21.438 17.441-38.879 38.88-38.879 21.438 0 38.879 17.441 38.879 38.879 0 7.23-1.993 13.996-5.445 19.799zm-108.195-11.263v-8.487c0-2.23.093-4.452.229-6.669 1.301.538 2.525 1.324 3.583 2.382 1.822 1.822 2.87 4.119 3.144 6.492-2.498 1.889-4.822 3.995-6.956 6.282zm-22.635 93.466c13.446 0 24.386 10.939 24.386 24.386s-10.939 24.386-24.386 24.386-24.387-10.939-24.387-24.386 10.939-24.386 24.387-24.386zm6.161 63.286c11.494-1.814 21.345-8.621 27.271-18.118 3.452 5.803 5.446 12.571 5.446 19.8 0 21.438-17.441 38.879-38.879 38.879-14.981 0-28-8.522-34.488-20.969 16.346-.264 30.937-7.834 40.65-19.592zm74.929-5.818c4.599-7.362 7.465-15.907 8.035-25.069 2.697.418 5.458.644 8.271.644 8.874 0 17.247-2.165 24.634-5.982h92.29c-1.042 3.912-1.605 8.017-1.605 12.253 0 6.427 1.285 12.556 3.6 18.155h-135.225zm135.189-164.063c1.062 2.566 3.457 4.335 6.223 4.597 5.238.495 9.235 4.675 9.582 9.859-7.192-3.685-15.336-5.766-23.957-5.766-11.594 0-22.439 3.78-31.245 10.261-6.331-9.013-15.347-16.011-25.882-19.814-.809-8.006-3.39-15.493-7.325-22.082 3.883-2.906 9.27-2.854 13.107.32 2.142 1.771 5.085 2.212 7.65 1.15 2.566-1.063 4.335-3.458 4.597-6.223.519-5.482 5.071-9.617 10.589-9.617s10.07 4.134 10.589 9.617c.262 2.765 2.03 5.16 4.597 6.223 2.565 1.062 5.51.621 7.65-1.15 4.243-3.51 10.386-3.214 14.287.688 3.902 3.902 4.197 10.044.688 14.288-1.771 2.139-2.213 5.083-1.15 7.649zm5.021 118.655h-81.282c3.998-5.171 7.084-11.081 9.001-17.493 16.392-5.201 29.413-18.037 34.856-34.316 1.641-.338 3.329-.535 5.059-.535 13.92 0 25.245 11.325 25.245 25.246 0 2.167-.276 4.321-.82 6.403-.659 2.521.037 5.204 1.84 7.085 1.802 1.881 4.454 2.694 6.999 2.143 1.768-.382 3.57-.575 5.358-.575 1.753 0 3.465.189 5.124.531-4.413 3.163-8.266 7.061-11.38 11.511zm21.584-24.022c-4.266-1.753-8.885-2.797-13.704-2.989 0-.03 0-.059 0-.089 0-22.191-18.054-40.246-40.245-40.246-.781 0-1.557.029-2.328.074.015-.522.032-1.044.032-1.569 0-6.024-1.002-11.817-2.835-17.228 6.614-5.582 15.139-8.897 24.322-8.897 15.606 0 29.028 9.526 34.758 23.069zm-92.656-79.531c12.687 6.407 21.411 19.556 21.411 34.713 0 14.754-8.267 27.604-20.407 34.187-.439-13.568-5.918-25.875-14.624-35.123.114-1.219.174-2.454.174-3.703 0-1.247-.065-2.479-.179-3.697 6.794-7.214 11.621-16.29 13.625-26.377zm51.423 163.961h24.531c5.313 5.478 11.92 9.695 19.329 12.136 1.513 4.859 3.783 9.387 6.672 13.446h-54.386zm56.074-180.666c2.758 2.878 5.989 5.272 9.572 7.074v59.93c-3.427 1.978-6.589 4.365-9.412 7.103v-67.861c-.001-2.095-.057-4.176-.16-6.246zm24.572 11.243v-.405c.301.008.603.022.904.023-.302.127-.604.251-.904.382zm8.328-54.541c6.476 2.554 11.002 7.927 12.418 14.743 1.417 6.815-.594 13.547-5.517 18.47-4.922 4.922-11.651 6.934-18.47 5.517-6.815-1.417-12.188-5.943-14.741-12.419l-12.918-32.759 6.468-6.468zm-60.231-57.005c.357-.357.765-.433 1.044-.433s.687.075 1.044.433l23.085 23.084c.358.358.433.766.433 1.045s-.074.687-.432 1.045l-23.086 23.084c-.357.357-.765.433-1.044.433s-.687-.075-1.045-.433l-23.084-23.084c-.358-.358-.433-.766-.433-1.045s.074-.687.433-1.045zm-65.044-41.959c3.889-3.889 8.906-5.96 14.203-5.96 1.407 0 2.835.146 4.266.444 6.815 1.417 12.189 5.943 14.742 12.419l12.918 32.758-6.469 6.469-32.759-12.917c-6.476-2.554-11.002-7.927-12.418-14.743s.594-13.548 5.517-18.47zm-32.59 13.971c3.928 0 7.811.193 11.654.527.013 2.334.247 4.685.733 7.023.179.861.398 1.707.637 2.543-4.282-.447-8.626-.682-13.025-.682-24.405 0-48.079 7.068-68.462 20.441-3.463 2.272-4.429 6.922-2.156 10.385 2.271 3.464 6.922 4.429 10.385 2.157 17.932-11.765 38.76-17.983 60.233-17.983 8.174 0 16.139.905 23.81 2.603 2.977 2.579 6.397 4.688 10.18 6.18l27.298 10.764c-1.407 2.46-2.171 5.247-2.171 8.158 0 4.401 1.714 8.539 4.826 11.651l23.084 23.083c3.112 3.113 7.25 4.827 11.651 4.827.899 0 1.784-.081 2.653-.224 5.19 12.16 8.256 25.433 8.723 39.355-2.265-3.396-5.318-6.225-8.934-8.208 2.543-8.719.305-18.416-6.533-25.254-6.838-6.837-16.536-9.074-25.253-6.532-4.367-7.964-12.807-13.238-22.477-13.238s-18.109 5.274-22.477 13.238c-7.752-2.26-16.272-.732-22.873 4.437-9.646-9.071-22.617-14.645-36.872-14.645-27.868 0-50.86 21.266-53.604 48.422-.214.077-.423.164-.636.244-1.26-3.514-3.285-6.816-6.101-9.632-3.496-3.496-7.731-5.79-12.203-6.882 3.595-17.714 11.508-34.436 23.185-48.49 2.647-3.186 2.21-7.915-.976-10.562-3.185-2.647-7.913-2.21-10.562.976-18.613 22.401-28.863 50.76-28.863 79.852v32.433c-2.495-.359-5.042-.556-7.636-.556-.595 0-1.186.023-1.776.042v-31.92c.001-74.18 60.355-134.533 134.538-134.533zm-187.752 157.19c2.765-.262 5.159-2.03 6.222-4.597 1.063-2.566.621-5.51-1.149-7.65-3.609-4.364-3.306-10.681.706-14.693 4.013-4.012 10.33-4.316 14.694-.707 2.141 1.771 5.085 2.212 7.65 1.15 2.566-1.063 4.335-3.458 4.597-6.223.394-4.17 3.06-7.575 6.715-9.07-.804 6.267-1.22 12.654-1.22 19.136v34.563c-8.958 2.943-16.887 8.169-23.091 14.996-1.748-2.132-3.601-4.193-5.57-6.162-5.591-5.591-11.877-10.3-18.604-14.071 1.503-3.633 4.897-6.279 9.05-6.672zm-44.922 11.308c16.104.893 31.881 8.053 43.869 20.042h.001c2.715 2.715 5.167 5.631 7.366 8.696-2.584 5.433-4.296 11.358-4.927 17.6-4.986 1.8-9.627 4.32-13.81 7.425-4.459-2.783-8.653-6.088-12.458-9.893-11.991-11.991-19.15-27.765-20.041-43.87zm25.67 97.015c0-15.153 8.719-28.297 21.399-34.707 2.008 10.083 6.844 19.158 13.637 26.372-.114 1.218-.179 2.45-.179 3.697 0 16.887 10.686 31.323 25.65 36.91-6.188 4.164-13.624 6.607-21.627 6.607-21.439 0-38.88-17.441-38.88-38.879zm60.3 87.98c4.45 1.194 9.121 1.844 13.944 1.844 8.727 0 16.968-2.099 24.266-5.797h45.718l3.505 23.263h-82.77zm14.743 61.05-6.458-26.741h81.408l4.03 26.741zm257.058 28.415-3.304 13.68c-.483 2.003-1.775 3.629-3.482 4.567-1.024.563-2.197.877-3.434.877h-229.754c-1.237 0-2.41-.315-3.434-.878-1.707-.938-3-2.564-3.483-4.568l-6.543-27.094h99.195c4.143 0 7.5-3.358 7.5-7.5s-3.357-7.5-7.5-7.5h-8.67l-4.03-26.741h83.684l-4.03 26.741h-31.955c-4.143 0-7.5 3.358-7.5 7.5s3.357 7.5 7.5 7.5h122.479zm6.863-28.415h-78.978l4.03-26.741h81.407zm10.081-41.741h-82.77l3.505-23.263h74.103c3.118 1.574 6.428 2.822 9.891 3.683zm16.239-33.173c-12.017 0-22.531-6.524-28.208-16.212 13.668-.691 25.835-7.159 34.101-17.011 9.511-1.614 17.73-7.059 23.01-14.692 2.409 4.552 3.781 9.732 3.781 15.231 0 18.022-14.662 32.684-32.684 32.684zm28.903-87.776c-6.344-9.172-16.931-15.196-28.903-15.196s-22.559 6.024-28.903 15.196c-2.409-4.552-3.781-9.732-3.781-15.231 0-18.022 14.662-32.685 32.685-32.685s32.685 14.662 32.685 32.685c-.002 5.499-1.374 10.68-3.783 15.231zm14.347-35.274c-4.987-10.723-13.847-19.286-24.769-23.899 1.977-2.686 3.804-5.464 5.444-8.335 2.341-.24 4.705-.369 7.086-.369 16.956 0 33.172 6.092 45.192 16.849-9.082 8.129-20.567 13.573-32.953 15.754z"/></g></svg>