<?xml version="1.0" encoding="iso-8859-1"?>
<!-- Generator: Adobe Illustrator 19.0.0, SVG Export Plug-In . SVG Version: 6.00 Build 0)  -->
<svg version="1.1" id="Layer_1" xmlns="http://www.w3.org/2000/svg" xmlns:xlink="http://www.w3.org/1999/xlink" x="0px" y="0px"
	 viewBox="-49 141 512 512" style="enable-background:new -49 141 512 512;" xml:space="preserve">
<path d="M388,231H159.253c-6.789-28.635-32.572-50-63.253-50H26c-35.841,0-65,29.159-65,65v302c0,35.841,29.159,65,65,65h362
	c35.841,0,65-29.159,65-65V296C453,260.159,423.841,231,388,231z M26,231h70c8.271,0,15,6.729,15,15v10c0,13.807,11.193,25,25,25
	h252c8.271,0,15,6.729,15,15v25H11v-75C11,237.729,17.729,231,26,231z M388,563H26c-8.271,0-15-6.729-15-15V371h392v177
	C403,556.271,396.271,563,388,563z"/>
</svg>
