<?xml version="1.0" encoding="iso-8859-1"?>
<!-- Generator: Adobe Illustrator 19.0.0, SVG Export Plug-In . SVG Version: 6.00 Build 0)  -->
<svg version="1.1" id="Layer_1" xmlns="http://www.w3.org/2000/svg" xmlns:xlink="http://www.w3.org/1999/xlink" x="0px" y="0px"
	 viewBox="0 0 492 492" style="enable-background:new 0 0 492 492;" xml:space="preserve">
<path d="M427,80H198.253C191.464,51.365,165.681,30,135,30H65C29.159,30,0,59.159,0,95v302c0,35.841,29.159,65,65,65h362
	c35.841,0,65-29.159,65-65V145C492,109.159,462.841,80,427,80z M65,80h70c8.271,0,15,6.729,15,15v10c0,13.807,11.193,25,25,25h252
	c8.271,0,15,6.729,15,15v25H50V95C50,86.729,56.729,80,65,80z M427,412H65c-8.271,0-15-6.729-15-15V220h392v177
	C442,405.271,435.271,412,427,412z"/>
<g>
</g>
<g>
</g>
<g>
</g>
<g>
</g>
<g>
</g>
<g>
</g>
<g>
</g>
<g>
</g>
<g>
</g>
<g>
</g>
<g>
</g>
<g>
</g>
<g>
</g>
<g>
</g>
<g>
</g>
</svg>
