<svg xmlns="http://www.w3.org/2000/svg" viewBox="-49 141 512 512"><path d="M255.942 576.103c-21.39-21.39-21.253-56.154.409-77.373 20.605-20.183 53.738-20.703 74.94-1.149A54.778 54.778 0 0 1 340 507.855a54.752 54.752 0 0 1 8.709-10.274c21.202-19.554 54.336-19.034 74.94 1.149 21.663 21.219 21.799 55.984.409 77.373l-71.825 71.825c-6.763 6.763-17.728 6.762-24.49-.002l-71.801-71.823z"/><path d="M227.653 604.384c-9.125-9.125-16.143-19.78-20.828-31.384H25.658c9.907-74.383 63.38-137.724 136.791-158.682a25.001 25.001 0 0 0 5.533-45.75c-29.595-16.9-47.981-48.538-47.981-82.568 0-52.383 42.617-95 95-95s95 42.617 95 95c0 34.03-18.386 65.668-47.981 82.568a25.001 25.001 0 0 0 5.533 45.75c27.689 7.905 52.539 21.842 73.287 40.124 18.517-9.991 39.604-13.326 59.831-10.058-21.319-25.702-47.914-46.813-77.588-61.778 23.392-26.23 36.918-60.534 36.918-96.606 0-79.953-65.047-145-145-145s-145 65.047-145 145c0 36.072 13.526 70.376 36.919 96.606-32.416 16.349-61.178 40.012-83.377 69.005C-8.867 493.942-25.999 544.563-25.999 598c0 13.808 11.192 25 25 25h247.263l-18.611-18.616z"/></svg>