<?xml version="1.0" encoding="iso-8859-1"?>
<!-- Generator: Adobe Illustrator 19.0.0, SVG Export Plug-In . SVG Version: 6.00 Build 0)  -->
<svg version="1.1" id="Layer_1" xmlns="http://www.w3.org/2000/svg" xmlns:xlink="http://www.w3.org/1999/xlink" x="0px" y="0px"
	 viewBox="0 0 512 512" style="enable-background:new 0 0 512 512;" xml:space="preserve">
<g>
	<g>
		<g>
			<path d="M304.941,435.103c-21.39-21.39-21.253-56.154,0.409-77.373c20.605-20.183,53.738-20.703,74.94-1.149
				c3.398,3.134,6.298,6.591,8.709,10.274c2.411-3.684,5.312-7.141,8.709-10.274c21.202-19.554,54.336-19.034,74.94,1.149
				c21.663,21.219,21.799,55.984,0.409,77.373l-71.825,71.825c-6.763,6.763-17.728,6.762-24.49-0.002L304.941,435.103z"/>
		</g>
	</g>
	<g>
		<g>
			<path d="M276.652,463.384c-9.125-9.125-16.143-19.78-20.828-31.384H74.657c9.907-74.383,63.38-137.724,136.791-158.682
				c9.672-2.762,16.748-11.052,17.956-21.038s-3.688-19.724-12.423-24.712C187.386,210.668,169,179.03,169,145
				c0-52.383,42.617-95,95-95s95,42.617,95,95c0,34.03-18.386,65.668-47.981,82.568c-8.735,4.988-13.631,14.726-12.423,24.712
				s8.284,18.276,17.956,21.038c27.689,7.905,52.539,21.842,73.287,40.124c18.517-9.991,39.604-13.326,59.831-10.058
				c-21.319-25.702-47.914-46.813-77.588-61.778C395.474,215.376,409,181.072,409,145C409,65.047,343.953,0,264,0
				S119,65.047,119,145c0,36.072,13.526,70.376,36.919,96.606c-32.416,16.349-61.178,40.012-83.377,69.005
				C40.132,352.942,23,403.563,23,457c0,13.808,11.192,25,25,25h247.263L276.652,463.384z"/>
		</g>
	</g>
</g>
<g>
</g>
<g>
</g>
<g>
</g>
<g>
</g>
<g>
</g>
<g>
</g>
<g>
</g>
<g>
</g>
<g>
</g>
<g>
</g>
<g>
</g>
<g>
</g>
<g>
</g>
<g>
</g>
<g>
</g>
</svg>
