<?xml version="1.0" encoding="utf-8"?>
<!-- Generator: Adobe Illustrator 24.0.1, SVG Export Plug-In . SVG Version: 6.00 Build 0)  -->
<svg version="1.1" id="Capa_1" xmlns="http://www.w3.org/2000/svg" xmlns:xlink="http://www.w3.org/1999/xlink" x="0px" y="0px"
	 viewBox="0 0 512 512" style="enable-background:new 0 0 512 512;" xml:space="preserve">
<g>
	<path d="M257.8,409.8H70c-8.3,0-15-6.7-15-15v-177h392v40c0,13.8,11.2,25,25,25s25-11.2,25-25v-115c0-35.8-29.2-65-65-65H203.3
		c-6.8-28.6-32.6-50-63.3-50H70c-35.8,0-65,29.2-65,65v302c0,35.8,29.2,65,65,65h187.8c13.8,0,25-11.2,25-25
		S271.6,409.8,257.8,409.8z M70,77.8h70c8.3,0,15,6.7,15,15v10c0,13.8,11.2,25,25,25h252c8.3,0,15,6.7,15,15v25H55v-75
		C55,84.5,61.7,77.8,70,77.8z"/>
	<path d="M490.2,325.3c-21.2-20.8-55.4-21.3-77.2-1.2c-3.5,3.2-6.5,6.8-9,10.6c-2.5-3.8-5.5-7.4-9-10.6c-21.8-20.1-56-19.6-77.2,1.2
		c-22.3,21.9-22.5,57.7-0.4,79.7l74,74c7,7,18.3,7,25.2,0l74-74C512.6,383,512.5,347.2,490.2,325.3z"/>
</g>
</svg>
