<svg xmlns="http://www.w3.org/2000/svg" viewBox="-49 141 512 512"><path d="M127 166H31c-30.327 0-55 24.673-55 55v96c0 30.327 24.673 55 55 55h96c30.327 0 55-24.673 55-55v-96c0-30.327-24.673-55-55-55zm5 151c0 2.757-2.243 5-5 5H31c-2.757 0-5-2.243-5-5v-96c0-2.757 2.243-5 5-5h96c2.757 0 5 2.243 5 5v96zM127 422H31c-30.327 0-55 24.673-55 55v96c0 30.327 24.673 55 55 55h96c30.327 0 55-24.673 55-55v-96c0-30.327-24.673-55-55-55zm5 151c0 2.757-2.243 5-5 5H31c-2.757 0-5-2.243-5-5v-96c0-2.757 2.243-5 5-5h96c2.757 0 5 2.243 5 5v96zM383 422h-96c-30.327 0-55 24.673-55 55v96c0 30.327 24.673 55 55 55h96c30.327 0 55-24.673 55-55v-96c0-30.327-24.673-55-55-55zm5 151c0 2.757-2.243 5-5 5h-96c-2.757 0-5-2.243-5-5v-96c0-2.757 2.243-5 5-5h96c2.757 0 5 2.243 5 5v96zM322.376 353.197c6.965 6.967 18.259 6.968 25.225.002l73.979-73.98c22.031-22.031 21.891-57.839-.422-79.695-21.223-20.788-55.351-21.324-77.189-1.184a56.405 56.405 0 0 0-8.971 10.583 56.399 56.399 0 0 0-8.971-10.583c-21.838-20.141-55.966-19.605-77.189 1.184-22.313 21.856-22.453 57.663-.422 79.695l73.96 73.978z"/></svg>