<?xml version="1.0" encoding="iso-8859-1"?>
<!-- Generator: Adobe Illustrator 19.0.0, SVG Export Plug-In . SVG Version: 6.00 Build 0)  -->
<svg version="1.1" id="Layer_1" xmlns="http://www.w3.org/2000/svg" xmlns:xlink="http://www.w3.org/1999/xlink" x="0px" y="0px"
	 viewBox="-49 141 512 512" style="enable-background:new -49 141 512 512;" xml:space="preserve">
<g>
	<g>
		<g>
			<path d="M255.942,576.103c-21.39-21.39-21.253-56.154,0.409-77.373c20.605-20.183,53.738-20.703,74.94-1.149
				c3.398,3.134,6.298,6.591,8.709,10.274c2.411-3.684,5.312-7.141,8.709-10.274c21.202-19.554,54.336-19.034,74.94,1.149
				c21.663,21.219,21.799,55.984,0.409,77.373l-71.825,71.825c-6.763,6.763-17.728,6.762-24.49-0.002L255.942,576.103z"/>
		</g>
	</g>
	<g>
		<g>
			<path d="M227.653,604.384c-9.125-9.125-16.143-19.78-20.828-31.384H25.658c9.907-74.383,63.38-137.724,136.791-158.682
				c9.672-2.762,16.748-11.052,17.956-21.038s-3.688-19.724-12.423-24.712c-29.595-16.9-47.981-48.538-47.981-82.568
				c0-52.383,42.617-95,95-95s95,42.617,95,95c0,34.03-18.386,65.668-47.981,82.568c-8.735,4.988-13.631,14.726-12.423,24.712
				s8.284,18.276,17.956,21.038c27.689,7.905,52.539,21.842,73.287,40.124c18.517-9.991,39.604-13.326,59.831-10.058
				c-21.319-25.702-47.914-46.813-77.588-61.778c23.392-26.23,36.918-60.534,36.918-96.606c0-79.953-65.047-145-145-145
				s-145,65.047-145,145c0,36.072,13.526,70.376,36.919,96.606c-32.416,16.349-61.178,40.012-83.377,69.005
				C-8.867,493.942-25.999,544.563-25.999,598c0,13.808,11.192,25,25,25h247.263L227.653,604.384z"/>
		</g>
	</g>
</g>
</svg>
