<?xml version="1.0" encoding="iso-8859-1"?>
<!-- Generator: Adobe Illustrator 19.0.0, SVG Export Plug-In . SVG Version: 6.00 Build 0)  -->
<svg version="1.1" id="Layer_1" xmlns="http://www.w3.org/2000/svg" xmlns:xlink="http://www.w3.org/1999/xlink" x="0px" y="0px"
	 viewBox="-49 141 512 512" style="enable-background:new -49 141 512 512;" xml:space="preserve">
<g>
	<path d="M400.503,364.997c-9.786,0-18.253,5.626-22.358,13.817c-11.354-5.634-24.131-8.817-37.642-8.817c-46.869,0-85,38.131-85,85
		s38.131,85,85,85c13.511,0,26.287-3.184,37.642-8.817c4.104,8.191,12.571,13.817,22.358,13.817c13.808,0,25-11.192,25-25v-130
		C425.503,376.189,414.31,364.997,400.503,364.997z M340.503,489.997c-19.299,0-35-15.701-35-35c0-19.299,15.701-35,35-35
		s35,15.701,35,35C375.503,474.296,359.801,489.997,340.503,489.997z"/>
	<path d="M234.695,510.663l-99-246c-3.81-9.465-12.989-15.666-23.192-15.666s-19.383,6.201-23.192,15.666l-99,246
		c-5.154,12.81,1.05,27.372,13.858,32.526c12.809,5.155,27.371-1.051,32.526-13.858l19.854-49.334h111.907l19.854,49.334
		c5.155,12.808,19.718,19.014,32.526,13.858C233.645,538.035,239.849,523.473,234.695,510.663z M76.67,429.997l35.832-89.037
		l35.833,89.037H76.67z"/>
</g>
</svg>
