<?xml version="1.0" encoding="iso-8859-1"?>
<!-- Generator: Adobe Illustrator 19.0.0, SVG Export Plug-In . SVG Version: 6.00 Build 0)  -->
<svg version="1.1" id="Layer_1" xmlns="http://www.w3.org/2000/svg" xmlns:xlink="http://www.w3.org/1999/xlink" x="0px" y="0px"
	 viewBox="0 0 437.007 437.007" style="enable-background:new 0 0 437.007 437.007;" xml:space="preserve">
<g>
	<path d="M412.007,186.5c-9.786,0-18.253,5.626-22.358,13.817c-11.354-5.634-24.131-8.817-37.642-8.817c-46.869,0-85,38.131-85,85
		s38.131,85,85,85c13.511,0,26.287-3.184,37.642-8.817c4.105,8.191,12.572,13.817,22.358,13.817c13.808,0,25-11.192,25-25v-130
		C437.007,197.692,425.814,186.5,412.007,186.5z M352.007,311.5c-19.299,0-35-15.701-35-35s15.701-35,35-35s35,15.701,35,35
		S371.305,311.5,352.007,311.5z"/>
	<path d="M246.199,332.166l-99-246c-3.81-9.465-12.989-15.666-23.192-15.666s-19.383,6.201-23.192,15.666l-99,246
		c-5.154,12.81,1.05,27.372,13.858,32.526c12.809,5.155,27.371-1.051,32.526-13.858L68.053,301.5H179.96l19.854,49.334
		c5.155,12.808,19.718,19.014,32.526,13.858C245.149,359.538,251.353,344.975,246.199,332.166z M88.174,251.5l35.832-89.037
		l35.832,89.037H88.174z"/>
</g>
<g>
</g>
<g>
</g>
<g>
</g>
<g>
</g>
<g>
</g>
<g>
</g>
<g>
</g>
<g>
</g>
<g>
</g>
<g>
</g>
<g>
</g>
<g>
</g>
<g>
</g>
<g>
</g>
<g>
</g>
</svg>
