<svg xmlns="http://www.w3.org/2000/svg" viewBox="-49 141 512 512"><path d="M400.503 364.997c-9.786 0-18.253 5.626-22.358 13.817a84.45 84.45 0 0 0-37.642-8.817c-46.869 0-85 38.131-85 85s38.131 85 85 85a84.467 84.467 0 0 0 37.642-8.817c4.104 8.191 12.571 13.817 22.358 13.817 13.808 0 25-11.192 25-25v-130c0-13.808-11.193-25-25-25zm-60 125c-19.299 0-35-15.701-35-35s15.701-35 35-35 35 15.701 35 35-15.702 35-35 35zm-105.808 20.666l-99-246a25.001 25.001 0 0 0-46.384 0l-99 246c-5.154 12.81 1.05 27.372 13.858 32.526 12.809 5.155 27.371-1.051 32.526-13.858l19.854-49.334h111.907l19.854 49.334c5.155 12.808 19.718 19.014 32.526 13.858 12.809-5.154 19.013-19.716 13.859-32.526zM76.67 429.997l35.832-89.037 35.833 89.037H76.67z"/></svg>