<?xml version="1.0" encoding="iso-8859-1"?>
<!-- Generator: Adobe Illustrator 19.0.0, SVG Export Plug-In . SVG Version: 6.00 Build 0)  -->
<svg version="1.1" id="Layer_1" xmlns="http://www.w3.org/2000/svg" xmlns:xlink="http://www.w3.org/1999/xlink" x="0px" y="0px"
	 viewBox="-49 141 512 512" style="enable-background:new -49 141 512 512;" xml:space="preserve">
<g id="XMLID_5_">
	<path id="XMLID_7_" d="M169.644,397L31.322,535.322c-9.763,9.763-9.763,25.592,0,35.355c9.762,9.764,25.592,9.763,35.355,0l156-156
		C227.366,409.989,230,403.63,230,397s-2.634-12.989-7.322-17.678l-156-156c-9.764-9.763-25.594-9.763-35.355,0
		c-9.763,9.763-9.763,25.592,0,35.355L169.644,397z"/>
	<path id="XMLID_6_" d="M329.644,397L191.322,535.322c-9.763,9.763-9.763,25.592,0,35.355c9.763,9.764,25.593,9.763,35.355,0
		l156-156C387.366,409.989,390,403.63,390,397s-2.634-12.989-7.322-17.678l-156-156c-9.763-9.763-25.593-9.763-35.355,0
		c-9.763,9.763-9.763,25.592,0,35.355L329.644,397z"/>
</g>
</svg>
