<?xml version="1.0" encoding="iso-8859-1"?>
<!-- Generator: Adobe Illustrator 19.0.0, SVG Export Plug-In . SVG Version: 6.00 Build 0)  -->
<svg version="1.1" id="Layer_1" xmlns="http://www.w3.org/2000/svg" xmlns:xlink="http://www.w3.org/1999/xlink" x="0px" y="0px"
	 viewBox="0 0 366 366" style="enable-background:new 0 0 366 366;" xml:space="preserve">
<g>
	<path d="M145.644,183L7.322,321.322c-9.763,9.763-9.763,25.592,0,35.355c9.762,9.764,25.592,9.763,35.355,0l156-156
		C203.366,195.989,206,189.63,206,183s-2.634-12.989-7.322-17.678l-156-156c-9.764-9.763-25.594-9.763-35.355,0
		c-9.763,9.763-9.763,25.592,0,35.355L145.644,183z"/>
	<path d="M305.644,183L167.322,321.322c-9.763,9.763-9.763,25.592,0,35.355c9.763,9.764,25.593,9.763,35.355,0l156-156
		C363.366,195.989,366,189.63,366,183s-2.634-12.989-7.322-17.678l-156-156c-9.763-9.763-25.593-9.763-35.355,0
		c-9.763,9.763-9.763,25.592,0,35.355L305.644,183z"/>
</g>
<g>
</g>
<g>
</g>
<g>
</g>
<g>
</g>
<g>
</g>
<g>
</g>
<g>
</g>
<g>
</g>
<g>
</g>
<g>
</g>
<g>
</g>
<g>
</g>
<g>
</g>
<g>
</g>
<g>
</g>
</svg>
