<svg xmlns="http://www.w3.org/2000/svg" viewBox="-49 141 512 512"><path d="M169.644 397L31.322 535.322c-9.763 9.763-9.763 25.592 0 35.355 9.762 9.764 25.592 9.763 35.355 0l156-156a24.997 24.997 0 0 0 .001-35.355l-156-156c-9.764-9.763-25.594-9.763-35.355 0-9.763 9.763-9.763 25.592 0 35.355L169.644 397z"/><path d="M329.644 397L191.322 535.322c-9.763 9.763-9.763 25.592 0 35.355 9.763 9.764 25.593 9.763 35.355 0l156-156a24.997 24.997 0 0 0 .001-35.355l-156-156c-9.763-9.763-25.593-9.763-35.355 0-9.763 9.763-9.763 25.592 0 35.355L329.644 397z"/></svg>