<svg xmlns="http://www.w3.org/2000/svg" viewBox="-49 141 512 512"><path d="M1 342c-13.808 0-25-11.193-25-25v-86c0-35.841 29.159-65 65-65h86c13.808 0 25 11.193 25 25s-11.192 25-25 25H41c-8.271 0-15 6.729-15 15v86c0 13.807-11.192 25-25 25zM413 342c-13.808 0-25-11.193-25-25v-86c0-8.271-6.729-15-15-15h-86c-13.808 0-25-11.193-25-25s11.192-25 25-25h86c35.841 0 65 29.159 65 65v86c0 13.807-11.192 25-25 25zM373 628h-86c-13.808 0-25-11.193-25-25s11.192-25 25-25h86c8.271 0 15-6.729 15-15v-86c0-13.807 11.192-25 25-25s25 11.193 25 25v86c0 35.841-29.159 65-65 65zM127 628H41c-35.841 0-65-29.159-65-65v-86c0-13.807 11.192-25 25-25s25 11.193 25 25v86c0 8.271 6.729 15 15 15h86c13.808 0 25 11.193 25 25s-11.192 25-25 25z"/></svg>