<?xml version="1.0" encoding="iso-8859-1"?>
<!-- Generator: Adobe Illustrator 19.0.0, SVG Export Plug-In . SVG Version: 6.00 Build 0)  -->
<svg version="1.1" id="Layer_1" xmlns="http://www.w3.org/2000/svg" xmlns:xlink="http://www.w3.org/1999/xlink" x="0px" y="0px"
	 viewBox="-49 141 512 512" style="enable-background:new -49 141 512 512;" xml:space="preserve">
<g>
	<g>
		<path d="M1,342c-13.808,0-25-11.193-25-25v-86c0-35.841,29.159-65,65-65h86c13.808,0,25,11.193,25,25s-11.192,25-25,25H41
			c-8.271,0-15,6.729-15,15v86C26,330.807,14.808,342,1,342z"/>
	</g>
	<g>
		<path d="M413,342c-13.808,0-25-11.193-25-25v-86c0-8.271-6.729-15-15-15h-86c-13.808,0-25-11.193-25-25s11.192-25,25-25h86
			c35.841,0,65,29.159,65,65v86C438,330.807,426.808,342,413,342z"/>
	</g>
	<g>
		<path d="M373,628h-86c-13.808,0-25-11.193-25-25s11.192-25,25-25h86c8.271,0,15-6.729,15-15v-86c0-13.807,11.192-25,25-25
			s25,11.193,25,25v86C438,598.841,408.841,628,373,628z"/>
	</g>
	<g>
		<path d="M127,628H41c-35.841,0-65-29.159-65-65v-86c0-13.807,11.192-25,25-25s25,11.193,25,25v86c0,8.271,6.729,15,15,15h86
			c13.808,0,25,11.193,25,25S140.808,628,127,628z"/>
	</g>
</g>
</svg>
