<?xml version="1.0" encoding="iso-8859-1"?>
<!-- Generator: Adobe Illustrator 19.0.0, SVG Export Plug-In . SVG Version: 6.00 Build 0)  -->
<svg version="1.1" id="Layer_1" xmlns="http://www.w3.org/2000/svg" xmlns:xlink="http://www.w3.org/1999/xlink" x="0px" y="0px"
	 viewBox="0 0 462 462" style="enable-background:new 0 0 462 462;" xml:space="preserve">
<g>
	<g>
		<path d="M25,176c-13.808,0-25-11.193-25-25V65C0,29.159,29.159,0,65,0h86c13.808,0,25,11.193,25,25s-11.192,25-25,25H65
			c-8.271,0-15,6.729-15,15v86C50,164.807,38.808,176,25,176z"/>
	</g>
	<g>
		<path d="M437,176c-13.808,0-25-11.193-25-25V65c0-8.271-6.729-15-15-15h-86c-13.808,0-25-11.193-25-25s11.192-25,25-25h86
			c35.841,0,65,29.159,65,65v86C462,164.807,450.808,176,437,176z"/>
	</g>
	<g>
		<path d="M397,462h-86c-13.808,0-25-11.193-25-25s11.192-25,25-25h86c8.271,0,15-6.729,15-15v-86c0-13.807,11.192-25,25-25
			s25,11.193,25,25v86C462,432.841,432.841,462,397,462z"/>
	</g>
	<g>
		<path d="M151,462H65c-35.841,0-65-29.159-65-65v-86c0-13.807,11.192-25,25-25s25,11.193,25,25v86c0,8.271,6.729,15,15,15h86
			c13.808,0,25,11.193,25,25S164.808,462,151,462z"/>
	</g>
</g>
<g>
</g>
<g>
</g>
<g>
</g>
<g>
</g>
<g>
</g>
<g>
</g>
<g>
</g>
<g>
</g>
<g>
</g>
<g>
</g>
<g>
</g>
<g>
</g>
<g>
</g>
<g>
</g>
<g>
</g>
</svg>
