<svg id="Capa_1" enable-background="new 0 0 511.999 511.999" height="512" viewBox="0 0 511.999 511.999" width="512" xmlns="http://www.w3.org/2000/svg"><g><path d="m143.255 146.914c-10.45 11.873-16.648 27.127-17.452 42.952-1.031 20.319 6.298 39.406 20.636 53.744l104.261 104.262c1.465 1.464 3.385 2.196 5.304 2.196s3.839-.732 5.304-2.196l56.33-56.33c2.929-2.93 2.929-7.678 0-10.607-2.93-2.928-7.678-2.928-10.607 0l-51.026 51.027-98.959-98.959c-11.3-11.299-17.075-26.349-16.262-42.376.633-12.457 5.51-24.461 13.731-33.803 10.816-12.291 25.693-19.034 41.955-19.034 13.794-.129 29.384 6.082 40.078 16.961l6.775 6.777c6.991 6.989 18.368 6.991 25.361-.002l8.819-8.82c11.276-11.278 26.297-17.056 42.298-16.266 12.772.63 25.026 5.705 34.503 14.289 11.874 10.755 18.413 25.463 18.413 41.415 0 14.897-5.802 28.904-16.335 39.438l-24.53 24.528c-2.929 2.929-2.929 7.678 0 10.606 2.93 2.929 7.679 2.93 10.606.001l24.53-24.529c13.367-13.368 20.729-31.141 20.729-50.045 0-20.241-8.29-38.897-23.343-52.532-12.04-10.905-27.607-17.353-43.834-18.154-20.291-1.004-39.335 6.331-53.645 20.642l-8.819 8.82c-1.143 1.145-3.004 1.145-4.146.002l-6.776-6.777c-13.006-13.139-32.014-21.51-50.653-21.354-20.361 0-39.731 8.766-53.246 24.124z"/><path d="m131.965 258.083c-17.233-17.233-26.725-40.146-26.725-64.518 0-18.767 5.616-36.747 16.24-51.998 2.077-2.98 1.719-7.021-.85-9.591l-18.026-18.026c-2.929-2.928-7.677-2.928-10.607 0l-14.163 14.163c-1.933 1.934-4.503 2.998-7.236 2.998s-5.304-1.064-7.236-2.998c-3.991-3.99-3.991-10.482 0-14.473l14.163-14.163c2.929-2.93 2.929-7.678 0-10.606l-26.124-26.125c-2.146-2.146-5.371-2.789-8.174-1.625-2.803 1.16-4.63 3.896-4.63 6.929v9.215c0 5.644-4.591 10.234-10.234 10.234s-10.234-4.591-10.234-10.234c-.003-.146.006-51.88-.003-52.254-.098-3.265 1.707-5.61 2.792-6.719 1.992-2.034 4.786-3.29 7.375-3.29h52.099c5.644 0 10.234 4.591 10.234 10.233 0 5.644-4.591 10.234-10.234 10.234h-9.214c-3.033 0-5.769 1.827-6.929 4.63-1.161 2.803-.52 6.028 1.625 8.173l26.123 26.125c1.407 1.406 3.314 2.196 5.304 2.196s3.896-.79 5.304-2.196l14.162-14.163c3.992-3.99 10.485-3.99 14.474 0 1.934 1.933 2.998 4.503 2.998 7.236s-1.064 5.304-2.998 7.236l-14.164 14.164c-2.929 2.93-2.929 7.678 0 10.607l18.064 18.064c2.563 2.562 6.593 2.925 9.572.863 11.847-8.199 25.674-13.502 39.986-15.335 4.108-.526 7.013-4.283 6.486-8.393-.526-4.108-4.284-7.004-8.393-6.486-14.6 1.87-28.766 6.837-41.334 14.455l-8.473-8.473 8.86-8.859c9.839-9.839 9.839-25.849 0-35.688-9.84-9.838-25.848-9.836-35.687 0l-8.859 8.86-9.216-9.217c10.163-3.261 17.541-12.803 17.541-24.035 0-13.914-11.32-25.233-25.234-25.233-.129-.001-51.811.002-52.168-.001-6.605 0-13.163 2.834-18.022 7.796-4.725 4.825-7.233 11.05-7.072 17.541v51.927c0 13.914 11.32 25.234 25.234 25.234 11.232 0 20.774-7.378 24.035-17.541l9.216 9.216-8.86 8.859c-4.766 4.767-7.391 11.104-7.391 17.844s2.625 13.077 7.391 17.844c4.767 4.766 11.104 7.391 17.844 7.391s13.077-2.625 17.844-7.391l8.859-8.86 8.418 8.419c-10.145 16.583-15.479 35.567-15.479 55.286 0 28.378 11.051 55.058 31.117 75.125l20.937 20.937c1.465 1.464 3.385 2.196 5.304 2.196s3.839-.732 5.304-2.196c2.929-2.93 2.929-7.678 0-10.607z"/><path d="m421.394 112.565c-2.93-2.928-7.678-2.928-10.607 0l-17.991 17.991c-2.568 2.569-2.927 6.61-.851 9.591 10.625 15.251 16.241 33.232 16.241 51.998 0 24.372-9.491 47.285-26.726 64.519l-113.05 113.05c-1.406 1.407-2.196 3.314-2.196 5.304v48.343c0 4.143 3.357 7.5 7.5 7.5h24.091c5.643 0 10.233 4.591 10.233 10.234s-4.591 10.234-10.233 10.234h-24.091c-4.143 0-7.5 3.357-7.5 7.5v27.937c0 5.644-4.591 10.234-10.234 10.234s-10.233-4.591-10.233-10.234v-27.937c0-4.143-3.357-7.5-7.5-7.5h-24.091c-5.643 0-10.233-4.591-10.233-10.234s4.591-10.234 10.233-10.234h24.091c4.143 0 7.5-3.357 7.5-7.5v-48.388c0-1.989-.79-3.896-2.196-5.304l-65.674-65.674c-2.932-2.93-7.68-2.928-10.607 0-2.929 2.93-2.929 7.678 0 10.607l63.478 63.477v37.781h-16.591c-13.914 0-25.233 11.32-25.233 25.234s11.319 25.234 25.233 25.234h16.591v20.437c0 13.914 11.319 25.234 25.233 25.234s25.234-11.32 25.234-25.234v-20.437h16.591c13.914 0 25.233-11.32 25.233-25.234s-11.319-25.234-25.233-25.234h-16.591v-37.736l110.854-110.853c20.066-20.067 31.118-46.748 31.118-75.126 0-19.718-5.334-38.702-15.479-55.286l13.688-13.687c2.927-2.93 2.927-7.678-.002-10.607z"/><path d="m508.756 22.764c-1.04-12.153-12.617-22.938-25.179-22.762h-51.962c-13.914 0-25.234 11.319-25.234 25.233 0 11.233 7.377 20.775 17.541 24.035l-51.952 51.953c-16.523-10.044-35.418-15.322-55.026-15.322-22.285.001-43.345 6.691-61.258 19.404-10.755-7.254-22.606-12.392-35.306-15.298-4.029-.921-8.06 1.6-8.983 5.637-.925 4.038 1.6 8.061 5.637 8.984 12.474 2.855 23.995 8.223 34.245 15.954 1.338 1.01 2.928 1.513 4.517 1.513 1.646 0 3.293-.541 4.655-1.62 16.174-12.805 35.709-19.573 56.493-19.574 18.666 0 36.567 5.562 51.77 16.084 2.979 2.062 7.008 1.7 9.572-.863l67.849-67.849c2.145-2.146 2.786-5.371 1.625-8.174-1.16-2.803-3.896-4.63-6.929-4.63h-9.215c-5.644 0-10.234-4.591-10.234-10.234s4.591-10.233 10.234-10.233h52.024c4.575-.152 10.318 4.583 10.238 10.239v52.023c0 5.644-4.591 10.234-10.233 10.234-5.644 0-10.234-4.591-10.234-10.234v-9.214c0-3.033-1.827-5.769-4.63-6.929-2.803-1.163-6.028-.52-8.174 1.625l-25.07 25.07c-2.929 2.93-2.929 7.678 0 10.607 2.93 2.928 7.678 2.928 10.607 0l13.466-13.466c3.26 10.164 12.802 17.541 24.035 17.541 13.914 0 25.233-11.32 25.233-25.234v-52.01c.001-.815-.04-1.658-.122-2.49z"/></g></svg>