<svg xmlns="http://www.w3.org/2000/svg" width="512" height="512" viewBox="0 0 511.999 511.999"><path d="M143.255 146.914c-10.45 11.873-16.648 27.127-17.452 42.952-1.031 20.319 6.298 39.406 20.636 53.744L250.7 347.872c1.465 1.464 3.385 2.196 5.304 2.196s3.839-.732 5.304-2.196l56.33-56.33a7.5 7.5 0 0 0-10.607-10.607l-51.026 51.027-98.959-98.959c-11.3-11.299-17.075-26.349-16.262-42.376.633-12.457 5.51-24.461 13.731-33.803 10.816-12.291 25.693-19.034 41.955-19.034 13.794-.129 29.384 6.082 40.078 16.961l6.775 6.777c6.991 6.989 18.368 6.991 25.361-.002l8.819-8.82c11.276-11.278 26.297-17.056 42.298-16.266a55.61 55.61 0 0 1 34.503 14.289c11.874 10.755 18.413 25.463 18.413 41.415 0 14.897-5.802 28.904-16.335 39.438l-24.53 24.528a7.5 7.5 0 0 0 0 10.606 7.5 7.5 0 0 0 10.606.001l24.53-24.529c13.367-13.368 20.729-31.141 20.729-50.045 0-20.241-8.29-38.897-23.343-52.532a70.654 70.654 0 0 0-43.834-18.154c-20.291-1.004-39.335 6.331-53.645 20.642l-8.819 8.82a2.933 2.933 0 0 1-4.146.002l-6.776-6.777c-13.006-13.139-32.014-21.51-50.653-21.354-20.361 0-39.731 8.766-53.246 24.124z"/><path d="M131.965 258.083c-17.233-17.233-26.725-40.146-26.725-64.518 0-18.767 5.616-36.747 16.24-51.998a7.5 7.5 0 0 0-.85-9.591l-18.026-18.026a7.502 7.502 0 0 0-10.607 0l-14.163 14.163c-1.933 1.934-4.503 2.998-7.236 2.998s-5.304-1.064-7.236-2.998c-3.991-3.99-3.991-10.482 0-14.473l14.163-14.163a7.5 7.5 0 0 0 0-10.606L51.401 62.746a7.493 7.493 0 0 0-8.174-1.625 7.499 7.499 0 0 0-4.63 6.929v9.215c0 5.644-4.591 10.234-10.234 10.234s-10.234-4.591-10.234-10.234c-.003-.146.006-51.88-.003-52.254-.098-3.265 1.707-5.61 2.792-6.719 1.992-2.034 4.786-3.29 7.375-3.29h52.099c5.644 0 10.234 4.591 10.234 10.233 0 5.644-4.591 10.234-10.234 10.234h-9.214a7.499 7.499 0 0 0-5.304 12.803l26.123 26.125a7.502 7.502 0 0 0 10.608 0l14.162-14.163c3.992-3.99 10.485-3.99 14.474 0 1.934 1.933 2.998 4.503 2.998 7.236s-1.064 5.304-2.998 7.236L117.077 88.87a7.5 7.5 0 0 0 0 10.607l18.064 18.064a7.502 7.502 0 0 0 9.572.863c11.847-8.199 25.674-13.502 39.986-15.335a7.5 7.5 0 1 0-1.907-14.879c-14.6 1.87-28.766 6.837-41.334 14.455l-8.473-8.473 8.86-8.859c9.839-9.839 9.839-25.849 0-35.688-9.84-9.838-25.848-9.836-35.687 0l-8.859 8.86-9.216-9.217c10.163-3.261 17.541-12.803 17.541-24.035C105.624 11.319 94.304 0 80.39 0c-.129-.001-51.811.002-52.168-.001-6.605 0-13.163 2.834-18.022 7.796-4.725 4.825-7.233 11.05-7.072 17.541v51.927c0 13.914 11.32 25.234 25.234 25.234 11.232 0 20.774-7.378 24.035-17.541l9.216 9.216-8.86 8.859c-4.766 4.767-7.391 11.104-7.391 17.844s2.625 13.077 7.391 17.844c4.767 4.766 11.104 7.391 17.844 7.391s13.077-2.625 17.844-7.391l8.859-8.86 8.418 8.419c-10.145 16.583-15.479 35.567-15.479 55.286 0 28.378 11.051 55.058 31.117 75.125l20.937 20.937c1.465 1.464 3.385 2.196 5.304 2.196s3.839-.732 5.304-2.196a7.5 7.5 0 0 0 0-10.607zM421.394 112.565a7.502 7.502 0 0 0-10.607 0l-17.991 17.991a7.503 7.503 0 0 0-.851 9.591c10.625 15.251 16.241 33.232 16.241 51.998 0 24.372-9.491 47.285-26.726 64.519l-113.05 113.05a7.502 7.502 0 0 0-2.196 5.304v48.343c0 4.143 3.357 7.5 7.5 7.5h24.091c5.643 0 10.233 4.591 10.233 10.234s-4.591 10.234-10.233 10.234h-24.091a7.499 7.499 0 0 0-7.5 7.5v27.937c0 5.644-4.591 10.234-10.234 10.234s-10.233-4.591-10.233-10.234v-27.937c0-4.143-3.357-7.5-7.5-7.5h-24.091c-5.643 0-10.233-4.591-10.233-10.234s4.591-10.234 10.233-10.234h24.091c4.143 0 7.5-3.357 7.5-7.5v-48.388c0-1.989-.79-3.896-2.196-5.304l-65.674-65.674a7.5 7.5 0 0 0-10.607 10.607l63.478 63.477v37.781h-16.591c-13.914 0-25.233 11.32-25.233 25.234s11.319 25.234 25.233 25.234h16.591v20.437c0 13.914 11.319 25.234 25.233 25.234s25.234-11.32 25.234-25.234v-20.437h16.591c13.914 0 25.233-11.32 25.233-25.234s-11.319-25.234-25.233-25.234h-16.591v-37.736l110.854-110.853c20.066-20.067 31.118-46.748 31.118-75.126 0-19.718-5.334-38.702-15.479-55.286l13.688-13.687a7.502 7.502 0 0 0-.002-10.607z"/><path d="M508.756 22.764C507.716 10.611 496.139-.174 483.577.002h-51.962c-13.914 0-25.234 11.319-25.234 25.233 0 11.233 7.377 20.775 17.541 24.035l-51.952 51.953c-16.523-10.044-35.418-15.322-55.026-15.322-22.285.001-43.345 6.691-61.258 19.404-10.755-7.254-22.606-12.392-35.306-15.298a7.499 7.499 0 1 0-3.346 14.621c12.474 2.855 23.995 8.223 34.245 15.954a7.485 7.485 0 0 0 4.517 1.513 7.487 7.487 0 0 0 4.655-1.62c16.174-12.805 35.709-19.573 56.493-19.574 18.666 0 36.567 5.562 51.77 16.084a7.501 7.501 0 0 0 9.572-.863l67.849-67.849a7.5 7.5 0 0 0-5.304-12.804h-9.215c-5.644 0-10.234-4.591-10.234-10.234s4.591-10.233 10.234-10.233h52.024c4.575-.152 10.318 4.583 10.238 10.239v52.023c0 5.644-4.591 10.234-10.233 10.234-5.644 0-10.234-4.591-10.234-10.234V68.05a7.499 7.499 0 0 0-12.804-5.304l-25.07 25.07a7.5 7.5 0 0 0 10.607 10.607l13.466-13.466c3.26 10.164 12.802 17.541 24.035 17.541 13.914 0 25.233-11.32 25.233-25.234v-52.01c.001-.815-.04-1.658-.122-2.49z"/></svg>