<svg xmlns="http://www.w3.org/2000/svg" width="512" height="512"><path d="M504.486 261.397h-96.107c24.547-23.447 35.678-48.4 32.318-72.963-4.206-30.759-25.87-43.413-44.74-44.998-16.826-1.418-32.54 4.912-41.882 15.882-3.716-4.344-8.502-8.013-14.144-10.772-12.713-6.217-28.13-7.004-41.243-2.107a7.515 7.515 0 0 0 5.26 14.079c9.321-3.483 20.304-2.91 29.38 1.529 6.855 3.353 11.679 8.544 13.582 14.619a7.515 7.515 0 0 0 14.342 0c3.665-11.7 18.058-19.544 33.446-18.254 8.129.683 27.432 5.174 31.109 32.059 3.965 28.992-19.287 54.322-40.38 70.927h-62.692c-21.093-16.604-44.345-41.934-40.38-70.927.673-4.921 1.943-9.398 3.777-13.305a7.515 7.515 0 1 0-13.606-6.382c-2.479 5.284-4.182 11.224-5.06 17.652-3.359 24.563 7.772 49.516 32.318 72.963h-110.63l9.801-35.565c2.569-9.321-2.924-18.996-12.243-21.566l-33.478-9.233c-9.037-2.691-19.246 3.108-21.563 12.247l-8.102 29.4c-5.71-1.987-13.961-4.543-23.077-6.353-23.931-4.749-41.445-2.004-52.055 8.158-10.315 9.882-10.512 26.873-.587 50.503 4.92 11.712 11.061 22.048 14.115 26.918l-9.799 35.64c-5.122 2.617-15.688 8.339-25.911 15.866C5.619 382.61-2.919 397.3.877 411.075c3.905 14.164 17.537 25.498 40.52 33.686 8.757 3.12 17.153 5.154 23.075 6.374l-8.103 29.403c-2.569 9.322 2.923 18.996 12.243 21.566l33.477 9.232c9.004 2.699 19.259-3.109 21.564-12.246l11.254-40.839a7.514 7.514 0 1 0-14.489-3.993l-11.254 40.839c-.706 1.6-1.345 1.962-3.08 1.751l-33.477-9.232a2.511 2.511 0 0 1-1.749-3.086l29.848-108.312 38.306 10.564-10.422 37.819a7.514 7.514 0 1 0 14.489 3.993l28.879-104.796v165.625c0 12.432 10.114 22.545 22.546 22.545h294.95c12.432 0 22.546-10.114 22.546-22.545V268.912a7.515 7.515 0 0 0-7.514-7.515zM58.835 249.339c8.507-8.151 25.636-6.846 38.505-4.315 8.857 1.741 16.968 4.323 22.226 6.186l-17.749 64.407-26.985-7.441c-12.425-19.331-25.399-49.831-15.997-58.837zm16.518 74.568 22.452 6.191-7.597 27.628-22.452-6.191zm-59.987 83.174c-1.883-6.832 5.278-16.837 19.646-27.451 9.549-7.053 19.73-12.521 24.277-14.84l26.93 7.427-17.752 64.419c-17.097-3.418-48.518-12.926-53.101-29.555zm91.278-52.409 5.676-20.597 38.306 10.564-7.621 27.655-38.306-10.564zm9.668-35.085 29.848-108.314c.706-1.6 1.346-1.963 3.079-1.752l33.477 9.232a2.511 2.511 0 0 1 1.749 3.086L154.617 330.15zm70.675 169.837V276.426h125.628v220.515H194.504c-4.145 0-7.517-3.372-7.517-7.517zm309.984 0c0 4.145-3.373 7.517-7.517 7.517h-118.11V376.888a7.514 7.514 0 1 0-15.028 0V496.94h-28.671V276.426h28.671v70.406a7.514 7.514 0 1 0 15.028 0v-70.406h125.628v212.998zM320.381 86.443a7.515 7.515 0 0 0 6.573 0c2.04-.992 49.896-24.7 45.076-59.947C369.566 8.473 356.769 1.05 345.615.113c-8.393-.701-16.325 1.91-21.947 6.719-5.623-4.81-13.563-7.42-21.948-6.719-11.154.938-23.95 8.361-26.415 26.383-4.82 35.246 43.036 58.955 45.076 59.947zm-30.187-57.911c1.489-10.887 8.648-13.096 12.784-13.443.466-.04.931-.059 1.392-.059 5.679 0 10.854 2.899 12.126 6.96a7.515 7.515 0 0 0 14.342 0c1.375-4.391 7.314-7.424 13.517-6.902 4.136.348 11.296 2.556 12.785 13.443 2.535 18.54-20.879 35.672-33.473 42.672-12.6-7.004-36.008-24.133-33.473-42.671zM444.386 128.602a7.515 7.515 0 0 0 6.573 0c1.981-.964 48.468-23.994 43.778-58.292-2.406-17.59-14.902-24.835-25.795-25.75-8.107-.682-15.788 1.818-21.269 6.431-5.481-4.613-13.162-7.111-21.271-6.431-10.892.915-23.388 8.161-25.793 25.751-4.691 34.297 41.796 57.327 43.777 58.291zm-28.888-56.255c1.419-10.376 8.23-12.481 12.163-12.811.446-.037.89-.056 1.332-.056 5.396 0 10.308 2.736 11.509 6.572a7.515 7.515 0 0 0 14.342 0c1.3-4.15 6.951-7.004 12.84-6.516 3.933.33 10.744 2.434 12.164 12.811 2.428 17.764-20.001 34.222-32.175 41.012-12.179-6.794-34.603-23.25-32.175-41.012z"/><path d="M213.742 171.588a7.515 7.515 0 0 0 6.573 0c1.981-.964 48.469-23.994 43.778-58.291-2.405-17.59-14.902-24.835-25.794-25.751-8.099-.678-15.788 1.818-21.27 6.431-5.481-4.613-13.16-7.113-21.271-6.431-10.892.915-23.388 8.161-25.793 25.751-4.692 34.297 41.795 57.327 43.777 58.291zm-28.889-56.255c1.419-10.377 8.229-12.481 12.162-12.811.446-.037.89-.056 1.332-.056 5.397 0 10.308 2.736 11.509 6.572a7.515 7.515 0 0 0 14.342 0c1.3-4.149 6.944-7.006 12.841-6.516 3.933.331 10.744 2.434 12.163 12.811 2.43 17.764-20.001 34.222-32.174 41.012-12.179-6.795-34.604-23.25-32.175-41.012z"/></svg>