<?xml version="1.0" encoding="iso-8859-1"?>
<!-- Generator: Adobe Illustrator 19.0.0, SVG Export Plug-In . SVG Version: 6.00 Build 0)  -->
<svg version="1.1" id="Layer_1" xmlns="http://www.w3.org/2000/svg" xmlns:xlink="http://www.w3.org/1999/xlink" x="0px" y="0px"
	 viewBox="0 0 512 512" style="enable-background:new 0 0 512 512;" xml:space="preserve">
<path d="M437.02,74.98C388.667,26.629,324.38,0,256,0S123.333,26.629,74.98,74.98C26.629,123.332,0,187.62,0,256
	s26.629,132.668,74.98,181.02C123.333,485.371,187.62,512,256,512s132.667-26.629,181.02-74.98C485.371,388.668,512,324.38,512,256
	S485.371,123.332,437.02,74.98z M255.999,453.556c-28.257-26.276-50.21-57.813-64.859-92.556H320.86
	C306.21,395.744,284.257,427.281,255.999,453.556z M175.613,311c-3.693-17.895-5.613-36.301-5.613-55s1.921-37.105,5.613-55h160.774
	c3.693,17.895,5.613,36.301,5.613,55s-1.921,37.105-5.613,55H175.613z M50,256c0-19.042,2.609-37.484,7.467-55h67.236
	c-3.106,17.985-4.703,36.371-4.703,55s1.597,37.015,4.703,55H57.467C52.609,293.484,50,275.042,50,256z M256,58.443
	c28.257,26.276,50.211,57.813,64.859,92.557H191.141C205.789,116.257,227.743,84.719,256,58.443z M387.297,201h67.236
	c4.858,17.516,7.467,35.958,7.467,55s-2.609,37.484-7.467,55h-67.235c3.106-17.985,4.703-36.371,4.703-55
	S390.403,218.985,387.297,201z M433.163,151h-58.741c-10.981-31.718-26.933-61.516-47.355-88.362
	C371.719,79.102,409.14,110.62,433.163,151z M184.934,62.638c-20.423,26.846-36.375,56.644-47.355,88.362H78.837
	C102.86,110.62,140.281,79.102,184.934,62.638z M78.837,361h58.742c10.981,31.718,26.932,61.516,47.355,88.362
	C140.281,432.898,102.86,401.38,78.837,361z M327.067,449.362c20.423-26.846,36.375-56.644,47.355-88.362h58.741
	C409.14,401.379,371.72,432.898,327.067,449.362z"/>
<g>
</g>
<g>
</g>
<g>
</g>
<g>
</g>
<g>
</g>
<g>
</g>
<g>
</g>
<g>
</g>
<g>
</g>
<g>
</g>
<g>
</g>
<g>
</g>
<g>
</g>
<g>
</g>
<g>
</g>
</svg>
