<?xml version="1.0" encoding="iso-8859-1"?>
<!-- Generator: Adobe Illustrator 19.0.0, SVG Export Plug-In . SVG Version: 6.00 Build 0)  -->
<svg version="1.1" id="Layer_1" xmlns="http://www.w3.org/2000/svg" xmlns:xlink="http://www.w3.org/1999/xlink" x="0px" y="0px"
	 viewBox="-49 141 512 512" style="enable-background:new -49 141 512 512;" xml:space="preserve">
<path d="M388.02,215.98C339.667,167.629,275.38,141,207,141S74.333,167.629,25.98,215.98C-22.371,264.332-49,328.62-49,397
	s26.629,132.668,74.98,181.02C74.333,626.371,138.62,653,207,653s132.667-26.629,181.02-74.98C436.371,529.668,463,465.38,463,397
	S436.371,264.332,388.02,215.98z M206.999,594.556c-28.257-26.276-50.21-57.813-64.859-92.556h129.72
	C257.21,536.744,235.257,568.281,206.999,594.556z M126.613,452C122.92,434.105,121,415.699,121,397s1.921-37.105,5.613-55h160.774
	c3.693,17.895,5.613,36.301,5.613,55s-1.921,37.105-5.613,55H126.613z M1,397c0-19.042,2.609-37.484,7.467-55h67.236
	C72.597,359.985,71,378.371,71,397s1.597,37.015,4.703,55H8.467C3.609,434.484,1,416.042,1,397z M207,199.443
	c28.257,26.276,50.211,57.813,64.859,92.557H142.141C156.789,257.257,178.743,225.719,207,199.443z M338.297,342h67.236
	c4.858,17.516,7.467,35.958,7.467,55s-2.609,37.484-7.467,55h-67.235c3.106-17.985,4.703-36.371,4.703-55
	S341.403,359.985,338.297,342z M384.163,292h-58.741c-10.981-31.718-26.933-61.516-47.355-88.362
	C322.719,220.102,360.14,251.62,384.163,292z M135.934,203.638C115.511,230.484,99.559,260.282,88.579,292H29.837
	C53.86,251.62,91.281,220.102,135.934,203.638z M29.837,502h58.742c10.981,31.718,26.932,61.516,47.355,88.362
	C91.281,573.898,53.86,542.38,29.837,502z M278.067,590.362c20.423-26.846,36.375-56.644,47.355-88.362h58.741
	C360.14,542.379,322.72,573.898,278.067,590.362z"/>
</svg>
