<svg width="512" height="512" viewBox="0 0 512 512" fill="none" xmlns="http://www.w3.org/2000/svg">
<g clip-path="url(#clip0_130_57042)">
<path d="M99.7028 512C85.5046 512 74 500.495 74 486.297V25.7028C74 11.5046 85.5046 0 99.7028 0C113.901 0 125.406 11.5046 125.406 25.7028V486.297C125.406 500.495 113.901 512 99.7028 512Z" fill="black"/>
<path d="M412.434 478.576C405.854 478.576 399.274 476.067 394.257 471.05L197.384 274.177C187.349 264.143 187.349 247.868 197.384 237.823L394.257 40.9496C404.291 30.9152 420.566 30.9152 430.611 40.9496C440.645 50.984 440.645 67.259 430.611 77.3037L251.915 256L430.611 434.696C440.645 444.731 440.645 461.006 430.611 471.05C425.594 476.067 419.014 478.576 412.434 478.576Z" fill="black"/>
</g>
<defs>
<clipPath id="clip0_130_57042">
<rect width="364.137" height="512" fill="white" transform="translate(74)"/>
</clipPath>
</defs>
</svg>
