<svg xmlns="http://www.w3.org/2000/svg" width="512" height="512"><path d="M460.1 175h-18.3c-2.8-5.4-5.9-10.7-9.3-15.9 6.8-.7 12.2-6.4 12.2-13.4V116c0-7.4-6-13.5-13.5-13.5h-22V93c0-13.6-11-24.6-24.6-24.6h-10.9v-9.6c0-11.5-7.9-21.1-18.5-23.8V24.6c0-13.6-11-24.6-24.6-24.6h-98.5c-14 0-25.4 11.4-25.4 25.4v10.4h-50.3c-13.3 0-24.2 10.8-24.2 24.2v9.2h-5.3c-13.3 0-24.2 10.8-24.2 24.2v9.1H80.8c-7.4 0-13.5 6.1-13.5 13.5v29.7c0 7 5.3 12.7 12.2 13.4-3.3 5.2-6.4 10.5-9.2 15.9H51.9c-23.2 0-42.1 18.9-42.1 42.1v22.5c0 21.4 16.1 39.1 36.8 41.7 2.2 49.8 21.8 96.9 55.9 133.6 2 2.1 4 4.2 6.1 6.3l-15.3 46.9c-5.6 17.2-.1 33.5 13.8 40.7 4.2 2.2 8.7 3.3 13.2 3.3 10.2 0 20.4-5.5 27.9-15.5l23.9-32.2c21.6 9.4 44.7 15.2 68.7 16.9h.5c3.9 0 7.2-3 7.5-7 .3-4.1-2.8-7.7-6.9-8C140.7 459 61.4 373.8 61.4 272.2c0-40.9 12.5-79.9 36.1-113h144c4.1 0 7.5-3.4 7.5-7.5s-3.4-7.5-7.5-7.5H82.3v-26.7h347.4v26.7H276.1c-4.1 0-7.5 3.4-7.5 7.5s3.4 7.5 7.5 7.5h138.3c23.7 33.1 36.1 72.1 36.1 113 0 100.4-75.2 183.6-175 193.6-4.1.4-7.1 4.1-6.7 8.2.4 3.9 3.6 6.8 7.5 6.8h.8c21.9-2.2 43-7.8 62.8-16.4l23.9 32.2c7.5 10.1 17.7 15.5 27.9 15.5 4.5 0 9-1.1 13.2-3.3 13.9-7.1 19.4-23.5 13.8-40.7l-15.3-46.9c2.6-2.6 5.2-5.2 7.6-7.9 33.1-36.4 52.2-82.9 54.4-131.9 20.7-2.6 36.8-20.3 36.8-41.7v-22.5c0-23.3-18.9-42.2-42.1-42.2zM120.7 432.3c11.6 9.8 24.2 18.3 37.6 25.4l-22.2 29.9c-4.8 6.5-13.5 12.4-22.2 7.9s-8.9-15-6.4-22.7zM46.5 266.2c-12.4-2.5-21.7-13.5-21.7-26.5v-22.5c0-14.9 12.1-27.1 27.1-27.1h11.2c-10.2 23.8-15.8 49.5-16.6 76.1zM274 102.5H117.8v-9.1c0-5.1 4.1-9.2 9.2-9.2h36.8c4.1 0 7.5-3.4 7.5-7.5s-3.4-7.5-7.5-7.5h-16.5V60c0-5.1 4.1-9.2 9.2-9.2h90.4c5.1 0 9.2 4.1 9.2 9.2v9.2h-46.6c-4.1 0-7.5 3.4-7.5 7.5s3.4 7.5 7.5 7.5H265c5.1 0 9.2 4.1 9.2 9.2zm120.2 0H289v-9.1c0-11.2-7.7-20.7-18-23.4V60c0-13.3-10.8-24.2-24.2-24.2h-25.1V25.4c0-5.8 4.7-10.4 10.4-10.4h98.5c5.3 0 9.6 4.3 9.6 9.6v9.6h-46c-4.1 0-7.5 3.4-7.5 7.5s3.4 7.5 7.5 7.5h53.5s11 4.3 11 9.6v9.6h-44.9c-4.1 0-7.5 3.4-7.5 7.5s3.4 7.5 7.5 7.5h70.8c5.3 0 9.6 4.3 9.6 9.6zm10.3 370.2c2.5 7.6 2.3 18.2-6.4 22.7s-17.4-1.4-22.2-7.9l-22.2-29.9c13.3-7 25.9-15.5 37.6-25.4zm82.7-233.1c0 13.1-9.3 24-21.7 26.5-.7-26.5-6.4-52.2-16.6-76.1h11.2c14.9 0 27.1 12.1 27.1 27.1z"/><path d="M344.9 287.1c-5.4-15.8-21.3-25-37.3-22.7 8-13.2 6.3-30.6-5.1-42-6.5-6.5-15.1-10-24.2-10-8.3 0-16.1 2.9-22.3 8.3-6.2-5.4-14.1-8.3-22.3-8.3-9.1 0-17.8 3.6-24.2 10-11.4 11.4-13.1 28.8-5.1 42-15.9-2.3-31.8 7-37.3 22.7-5.9 17 2.5 35.6 18.8 42.6-2.3 8.1-2.2 16.5.2 23.8 3.2 9.5 10.2 16.5 19.8 19.8 15.5 5.4 30.8.7 42.6-12.1V406c0 4.1 3.4 7.5 7.5 7.5s7.5-3.4 7.5-7.5v-44.8c8.6 9.3 18.9 14.3 29.9 14.3 4.2 0 8.4-.7 12.7-2.2 8.2-2.8 14.5-8.3 18.2-15.9 3.9-8.1 4.6-18.1 1.8-27.7 16.3-7 24.7-25.5 18.8-42.6zm-26.1 29.4-4.6 1.6c-3.9 1.4-6 5.6-4.6 9.5l1.6 4.6c2.3 6.6 2.1 13.6-.4 18.7-1.9 3.9-5.1 6.7-9.6 8.2-18 6.2-31.5-10.1-38.2-27.4-1.1-2.9-3.9-4.8-7-4.8s-5.9 1.9-7 4.8c-6.7 17.3-20.3 33.6-38.2 27.4-5.2-1.8-8.7-5.3-10.5-10.4-1.6-4.9-1.5-10.9.5-16.6l1.6-4.6c.7-1.9.5-3.9-.3-5.7s-2.4-3.2-4.3-3.8l-4.6-1.6c-10-3.5-15.4-14.4-11.9-24.5 3.5-10 14.4-15.4 24.5-11.9l16.5 5.7c3.1 1.1 6.6 0 8.5-2.7s1.9-6.3-.1-8.9c-9-12.4-25-25.9-10.6-41.2 3.6-3.6 8.5-5.6 13.6-5.6s10 2 13.6 5.6l3.4 3.4c1.4 1.4 3.3 2.2 5.3 2.2s3.9-.8 5.3-2.2l3.4-3.4c3.6-3.6 8.4-5.6 13.6-5.6 5.1 0 10 2 13.6 5.6 14.3 15.3-1.6 28.7-10.6 41.2-2 2.6-2 6.3-.1 8.9 1.9 2.7 5.4 3.8 8.5 2.7l16.5-5.7c10-3.5 21 1.9 24.5 11.9 3.5 10.2-1.9 21.2-11.9 24.6z"/></svg>