<?xml version="1.0" encoding="iso-8859-1"?>
<!-- Generator: Adobe Illustrator 19.0.0, SVG Export Plug-In . SVG Version: 6.00 Build 0)  -->
<svg version="1.1" id="Layer_1" xmlns="http://www.w3.org/2000/svg" xmlns:xlink="http://www.w3.org/1999/xlink" x="0px" y="0px"
	 viewBox="0 0 400 400" style="enable-background:new 0 0 400 400;" xml:space="preserve">
<g>
	<g>
		<g>
			<g>
				<g>
					<path style="fill:#231F20;" d="M133.944,331.55C60.089,331.55,0,272.549,0,200.002C0,127.459,60.089,68.45,133.944,68.45
						c29.27,0,57.641,9.412,80.825,26.657c3.885,2.89,4.501,8.471,1.289,12.095l-23.212,26.197
						c-2.784,3.142-7.481,3.67-10.905,1.241c-13.908-9.864-30.693-15.231-47.997-15.231c-45.25,0-82.058,36.155-82.058,80.589
						c0,44.431,36.811,80.582,82.058,80.582c38.283,0,63.343-18.342,71.483-51.25h-62.628c-4.541,0-8.222-3.681-8.222-8.222v-34.511
						c0-4.541,3.681-8.222,8.222-8.222h109.174c4.541,0,8.222,3.681,8.222,8.222v17.261
						C260.195,280.226,209.458,331.55,133.944,331.55z"/>
				</g>
			</g>
		</g>
		<g>
			<g>
				<path style="fill:#231F20;" d="M391.778,178.398h-30.613v-30.613c0-4.541-3.681-8.222-8.222-8.222H338.32
					c-4.541,0-8.222,3.681-8.222,8.222v30.613h-30.613c-4.541,0-8.222,3.681-8.222,8.222v14.624c0,4.541,3.681,8.222,8.222,8.222
					h30.613v30.613c0,4.541,3.681,8.222,8.222,8.222h14.624c4.541,0,8.222-3.681,8.222-8.222v-30.613h30.613
					c4.541,0,8.222-3.681,8.222-8.222V186.62C400,182.079,396.319,178.398,391.778,178.398z"/>
			</g>
		</g>
	</g>
</g>
<g>
</g>
<g>
</g>
<g>
</g>
<g>
</g>
<g>
</g>
<g>
</g>
<g>
</g>
<g>
</g>
<g>
</g>
<g>
</g>
<g>
</g>
<g>
</g>
<g>
</g>
<g>
</g>
<g>
</g>
</svg>
