<svg xmlns="http://www.w3.org/2000/svg" viewBox="0 0 400 400"><path d="M133.944 331.55C60.089 331.55 0 272.549 0 200.002 0 127.459 60.089 68.45 133.944 68.45c29.27 0 57.641 9.412 80.825 26.657 3.885 2.89 4.501 8.471 1.289 12.095l-23.212 26.197c-2.784 3.142-7.481 3.67-10.905 1.241-13.908-9.864-30.693-15.231-47.997-15.231-45.25 0-82.058 36.155-82.058 80.589 0 44.431 36.811 80.582 82.058 80.582 38.283 0 63.343-18.342 71.483-51.25h-62.628a8.222 8.222 0 0 1-8.222-8.222v-34.511a8.222 8.222 0 0 1 8.222-8.222h109.174a8.222 8.222 0 0 1 8.222 8.222v17.261c0 76.368-50.737 127.692-126.251 127.692zM391.778 178.398h-30.613v-30.613a8.222 8.222 0 0 0-8.222-8.222H338.32a8.222 8.222 0 0 0-8.222 8.222v30.613h-30.613a8.222 8.222 0 0 0-8.222 8.222v14.624a8.222 8.222 0 0 0 8.222 8.222h30.613v30.613a8.222 8.222 0 0 0 8.222 8.222h14.624a8.222 8.222 0 0 0 8.222-8.222v-30.613h30.613a8.222 8.222 0 0 0 8.222-8.222V186.62a8.223 8.223 0 0 0-8.223-8.222z" fill="#231f20"/></svg>