<?xml version="1.0" encoding="utf-8"?>
<!-- Generator: Adobe Illustrator 26.0.2, SVG Export Plug-In . SVG Version: 6.00 Build 0)  -->
<svg version="1.1" id="Capa_1" xmlns="http://www.w3.org/2000/svg" xmlns:xlink="http://www.w3.org/1999/xlink" x="0px" y="0px"
	 viewBox="0 0 512 512" style="enable-background:new 0 0 512 512;" xml:space="preserve">
<g>
	<path d="M477,205.5c-13.8,0-25,11.2-25,25V418c0,2.2-0.5,4.4-1.4,6.3l-75.9-75.9c-4.7-4.7-11-7.3-17.7-7.3s-13,2.6-17.7,7.3
		L306,381.6L188.7,264.3c-9.8-9.8-25.6-9.8-35.4,0L60,357.6V136c0-8.3,6.7-15,15-15h211c13.8,0,25-11.2,25-25s-11.2-25-25-25H75
		c-35.8,0-65,29.2-65,65v282c0,0.4,0,0.8,0,1.2c0.7,35.3,29.5,63.8,65,63.8h362c35.8,0,65-29.2,65-65V230.5
		C502,216.7,490.8,205.5,477,205.5z"/>
	<path d="M503.9,87.1l-36.7-14c-3.4-1.3-6-3.9-7.3-7.3l-14-36.7c-4.1-10.8-19.4-10.8-23.5,0l-14,36.7c-1.3,3.4-3.9,6-7.3,7.3
		l-36.7,14c-10.8,4.1-10.8,19.4,0,23.5l36.7,14c3.4,1.3,6,3.9,7.3,7.3l14,36.7c4.1,10.8,19.4,10.8,23.5,0l14-36.7
		c1.3-3.4,3.9-6,7.3-7.3l36.7-14C514.7,106.5,514.7,91.2,503.9,87.1z"/>
	<path d="M293.8,236l21.4,8.2c3.2,1.2,5.8,3.8,7,7l8.2,21.4c4,10.4,18.8,10.4,22.7,0l8.2-21.4c1.2-3.2,3.8-5.8,7-7l21.4-8.2
		c10.4-4,10.4-18.8,0-22.7l-21.4-8.2c-3.2-1.2-5.8-3.8-7-7l-8.2-21.4c-4-10.4-18.8-10.4-22.7,0l-8.2,21.4c-1.2,3.2-3.8,5.8-7,7
		l-21.4,8.2C283.3,217.3,283.3,232.1,293.8,236z"/>
</g>
</svg>
