<?xml version="1.0" encoding="iso-8859-1"?>
<!-- Generator: Adobe Illustrator 19.0.0, SVG Export Plug-In . SVG Version: 6.00 Build 0)  -->
<svg version="1.1" id="Layer_1" xmlns="http://www.w3.org/2000/svg" xmlns:xlink="http://www.w3.org/1999/xlink" x="0px" y="0px"
	 viewBox="-49 141 512 512" style="enable-background:new -49 141 512 512;" xml:space="preserve">
<g>
	<path d="M76,191H26c-13.807,0-25,11.193-25,25v50c0,13.807,11.193,25,25,25h50c13.807,0,25-11.193,25-25v-50
		C101,202.193,89.807,191,76,191z"/>
	<path d="M232,191h-50c-13.807,0-25,11.193-25,25v50c0,13.807,11.193,25,25,25h50c13.808,0,25-11.193,25-25v-50
		C257,202.193,245.808,191,232,191z"/>
	<path d="M388,191h-50c-13.808,0-25,11.193-25,25v50c0,13.807,11.192,25,25,25h50c13.808,0,25-11.193,25-25v-50
		C413,202.193,401.808,191,388,191z"/>
	<path d="M76,347H26c-13.807,0-25,11.193-25,25v50c0,13.807,11.193,25,25,25h50c13.807,0,25-11.193,25-25v-50
		C101,358.193,89.807,347,76,347z"/>
	<path d="M232,347h-50c-13.807,0-25,11.193-25,25v50c0,13.807,11.193,25,25,25h50c13.808,0,25-11.193,25-25v-50
		C257,358.193,245.808,347,232,347z"/>
	<path d="M388,347h-50c-13.808,0-25,11.193-25,25v50c0,13.807,11.192,25,25,25h50c13.808,0,25-11.193,25-25v-50
		C413,358.193,401.808,347,388,347z"/>
	<path d="M76,503H26c-13.807,0-25,11.193-25,25v50c0,13.807,11.193,25,25,25h50c13.807,0,25-11.193,25-25v-50
		C101,514.193,89.807,503,76,503z"/>
	<path d="M232,503h-50c-13.807,0-25,11.193-25,25v50c0,13.807,11.193,25,25,25h50c13.808,0,25-11.193,25-25v-50
		C257,514.193,245.808,503,232,503z"/>
	<path d="M388,503h-50c-13.808,0-25,11.193-25,25v50c0,13.807,11.192,25,25,25h50c13.808,0,25-11.193,25-25v-50
		C413,514.193,401.808,503,388,503z"/>
</g>
</svg>
