<svg xmlns="http://www.w3.org/2000/svg" viewBox="-49 141 512 512"><path d="M76 191H26c-13.807 0-25 11.193-25 25v50c0 13.807 11.193 25 25 25h50c13.807 0 25-11.193 25-25v-50c0-13.807-11.193-25-25-25zM232 191h-50c-13.807 0-25 11.193-25 25v50c0 13.807 11.193 25 25 25h50c13.808 0 25-11.193 25-25v-50c0-13.807-11.192-25-25-25zM388 191h-50c-13.808 0-25 11.193-25 25v50c0 13.807 11.192 25 25 25h50c13.808 0 25-11.193 25-25v-50c0-13.807-11.192-25-25-25zM76 347H26c-13.807 0-25 11.193-25 25v50c0 13.807 11.193 25 25 25h50c13.807 0 25-11.193 25-25v-50c0-13.807-11.193-25-25-25zM232 347h-50c-13.807 0-25 11.193-25 25v50c0 13.807 11.193 25 25 25h50c13.808 0 25-11.193 25-25v-50c0-13.807-11.192-25-25-25zM388 347h-50c-13.808 0-25 11.193-25 25v50c0 13.807 11.192 25 25 25h50c13.808 0 25-11.193 25-25v-50c0-13.807-11.192-25-25-25zM76 503H26c-13.807 0-25 11.193-25 25v50c0 13.807 11.193 25 25 25h50c13.807 0 25-11.193 25-25v-50c0-13.807-11.193-25-25-25zM232 503h-50c-13.807 0-25 11.193-25 25v50c0 13.807 11.193 25 25 25h50c13.808 0 25-11.193 25-25v-50c0-13.807-11.192-25-25-25zM388 503h-50c-13.808 0-25 11.193-25 25v50c0 13.807 11.192 25 25 25h50c13.808 0 25-11.193 25-25v-50c0-13.807-11.192-25-25-25z"/></svg>