<svg xmlns="http://www.w3.org/2000/svg" width="512" height="512" viewBox="0 0 511.997 511.997"><path d="M344.833 305.971H187.317l12.668-12.668c17.386-17.387 17.402-45.689.029-63.1l-.433-.434c-6.026-6.039-14.042-9.367-22.571-9.372h-.018c-8.521 0-16.531 3.318-22.557 9.344l-38.883 38.884c-14.853 14.853-32.388 26.049-52.12 33.277-30.664 11.231-51.266 40.565-51.266 72.992v12.438c0 4.143 3.358 7.5 7.5 7.5s7.5-3.357 7.5-7.5v-12.438c0-26.158 16.647-49.832 41.425-58.908 21.794-7.983 41.162-20.35 57.567-36.755l38.883-38.883a16.789 16.789 0 0 1 11.951-4.951h.01a16.796 16.796 0 0 1 11.958 4.965l.442.442c11.531 11.555 11.52 30.348-.023 41.891l-23.275 23.275h-27.539c-4.142 0-7.5 3.357-7.5 7.5s3.358 7.5 7.5 7.5h206.268c9.031 0 16.379 7.347 16.379 16.378s-7.348 16.379-16.379 16.379H201.248c-4.142 0-7.5 3.357-7.5 7.5s3.358 7.5 7.5 7.5h33.085c9.031 0 16.378 7.347 16.378 16.378s-7.347 16.379-16.378 16.379h-30.016c-4.142 0-7.5 3.357-7.5 7.5s3.358 7.5 7.5 7.5h18.991c9.031 0 16.378 7.347 16.378 16.378s-7.347 16.379-16.378 16.379h-18.991c-4.142 0-7.5 3.357-7.5 7.5s3.358 7.5 7.5 7.5h7.816c9.031 0 16.378 7.347 16.378 16.378s-7.347 16.378-16.378 16.378H89.77c-34.52 0-62.604-28.084-62.604-62.604v-13.061c0-4.143-3.358-7.5-7.5-7.5s-7.5 3.357-7.5 7.5v13.061c0 42.791 34.813 77.604 77.604 77.604h122.363c17.302 0 31.378-14.076 31.378-31.378a31.227 31.227 0 0 0-6.743-19.414c10.586-5.048 17.918-15.854 17.918-28.343a31.223 31.223 0 0 0-6.784-19.466c10.526-5.07 17.809-15.847 17.809-28.291a31.192 31.192 0 0 0-4.622-16.378h83.743c17.303 0 31.379-14.076 31.379-31.379.001-17.301-14.076-31.377-31.378-31.377z"/><path d="M485.48 32.67a7.499 7.499 0 0 0-10.459-1.762 7.5 7.5 0 0 0-1.762 10.459c7.57 10.639 11.571 23.169 11.571 36.237v59.499c0 26.158-16.647 49.832-41.425 58.908-21.794 7.983-41.162 20.35-57.567 36.755l-38.883 38.883a16.786 16.786 0 0 1-11.95 4.951h-.009a16.804 16.804 0 0 1-11.968-4.974l-.434-.434c-11.531-11.555-11.521-30.348.023-41.891l23.275-23.275h27.538c4.143 0 7.5-3.357 7.5-7.5s-3.357-7.5-7.5-7.5H259.999c-4.142 0-7.5 3.357-7.5 7.5s3.358 7.5 7.5 7.5h64.682l-12.669 12.668c-17.386 17.387-17.4 45.69-.046 63.081l.451.452c6.025 6.039 14.042 9.367 22.571 9.372h.018c8.521-.001 16.531-3.318 22.558-9.344l38.883-38.884c14.852-14.853 32.388-26.049 52.12-33.277 30.663-11.231 51.265-40.565 51.265-72.992V77.604c-.001-16.203-4.963-31.741-14.352-44.934z"/><path d="M167.164 206.027h58.834c4.142 0 7.5-3.357 7.5-7.5s-3.358-7.5-7.5-7.5h-58.834c-9.031 0-16.378-7.347-16.378-16.378s7.347-16.379 16.378-16.379h143.584c4.143 0 7.5-3.357 7.5-7.5s-3.357-7.5-7.5-7.5h-33.084c-9.031 0-16.379-7.347-16.379-16.378s7.348-16.379 16.379-16.379h30.016c4.143 0 7.5-3.357 7.5-7.5s-3.357-7.5-7.5-7.5h-18.991c-9.031 0-16.379-7.347-16.379-16.378s7.348-16.379 16.379-16.379h18.991c4.143 0 7.5-3.357 7.5-7.5s-3.357-7.5-7.5-7.5h-7.816c-9.031 0-16.378-7.347-16.378-16.378S290.833 15 299.864 15h122.363c9.785 0 19.173 2.208 27.9 6.563a7.5 7.5 0 0 0 10.06-3.362 7.5 7.5 0 0 0-3.362-10.06C445.998 2.739 434.357 0 422.227 0H299.864c-17.302 0-31.378 14.076-31.378 31.379a31.221 31.221 0 0 0 6.743 19.414c-10.586 5.047-17.919 15.854-17.919 28.343a31.218 31.218 0 0 0 6.785 19.466c-10.527 5.07-17.81 15.847-17.81 28.291a31.192 31.192 0 0 0 4.623 16.378h-83.744c-17.302 0-31.378 14.076-31.378 31.379 0 17.301 14.076 31.377 31.378 31.377z"/></svg>