<svg id="Capa_1" enable-background="new 0 0 511.997 511.997" height="512" viewBox="0 0 511.997 511.997" width="512" xmlns="http://www.w3.org/2000/svg"><path d="m344.833 305.971h-157.516l12.668-12.668c17.386-17.387 17.402-45.689.029-63.1l-.433-.434c-6.026-6.039-14.042-9.367-22.571-9.372-.006 0-.012 0-.018 0-8.521 0-16.531 3.318-22.557 9.344l-38.883 38.884c-14.853 14.853-32.388 26.049-52.12 33.277-30.664 11.231-51.266 40.565-51.266 72.992v12.438c0 4.143 3.358 7.5 7.5 7.5s7.5-3.357 7.5-7.5v-12.438c0-26.158 16.647-49.832 41.425-58.908 21.794-7.983 41.162-20.35 57.567-36.755l38.883-38.883c3.193-3.193 7.436-4.951 11.951-4.951h.01c4.52.003 8.768 1.767 11.958 4.965l.442.442c11.531 11.555 11.52 30.348-.023 41.891l-23.275 23.275h-27.539c-4.142 0-7.5 3.357-7.5 7.5s3.358 7.5 7.5 7.5h206.268c9.031 0 16.379 7.347 16.379 16.378s-7.348 16.379-16.379 16.379h-143.585c-4.142 0-7.5 3.357-7.5 7.5s3.358 7.5 7.5 7.5h33.085c9.031 0 16.378 7.347 16.378 16.378s-7.347 16.379-16.378 16.379h-30.016c-4.142 0-7.5 3.357-7.5 7.5s3.358 7.5 7.5 7.5h18.991c9.031 0 16.378 7.347 16.378 16.378s-7.347 16.379-16.378 16.379h-18.991c-4.142 0-7.5 3.357-7.5 7.5s3.358 7.5 7.5 7.5h7.816c9.031 0 16.378 7.347 16.378 16.378s-7.347 16.378-16.378 16.378h-122.363c-34.52 0-62.604-28.084-62.604-62.604v-13.061c0-4.143-3.358-7.5-7.5-7.5s-7.5 3.357-7.5 7.5v13.061c0 42.791 34.813 77.604 77.604 77.604h122.363c17.302 0 31.378-14.076 31.378-31.378 0-7.323-2.522-14.069-6.743-19.414 10.586-5.048 17.918-15.854 17.918-28.343 0-7.348-2.538-14.113-6.784-19.466 10.526-5.07 17.809-15.847 17.809-28.291 0-5.997-1.691-11.607-4.622-16.378h83.743c17.303 0 31.379-14.076 31.379-31.379.001-17.301-14.076-31.377-31.378-31.377z"/><path d="m485.48 32.67c-2.401-3.374-7.083-4.165-10.459-1.762-3.375 2.401-4.164 7.084-1.762 10.459 7.57 10.639 11.571 23.169 11.571 36.237v59.499c0 26.158-16.647 49.832-41.425 58.908-21.794 7.983-41.162 20.35-57.567 36.755l-38.883 38.883c-3.192 3.193-7.436 4.951-11.95 4.951-.003 0-.006 0-.009 0-4.521-.003-8.769-1.767-11.968-4.974l-.434-.434c-11.531-11.555-11.521-30.348.023-41.891l23.275-23.275h27.538c4.143 0 7.5-3.357 7.5-7.5s-3.357-7.5-7.5-7.5h-113.431c-4.142 0-7.5 3.357-7.5 7.5s3.358 7.5 7.5 7.5h64.682l-12.669 12.668c-17.386 17.387-17.4 45.69-.046 63.081l.451.452c6.025 6.039 14.042 9.367 22.571 9.372h.018c8.521-.001 16.531-3.318 22.558-9.344l38.883-38.884c14.852-14.853 32.388-26.049 52.12-33.277 30.663-11.231 51.265-40.565 51.265-72.992v-59.498c-.001-16.203-4.963-31.741-14.352-44.934z"/><path d="m167.164 206.027h58.834c4.142 0 7.5-3.357 7.5-7.5s-3.358-7.5-7.5-7.5h-58.834c-9.031 0-16.378-7.347-16.378-16.378s7.347-16.379 16.378-16.379h143.584c4.143 0 7.5-3.357 7.5-7.5s-3.357-7.5-7.5-7.5h-33.084c-9.031 0-16.379-7.347-16.379-16.378s7.348-16.379 16.379-16.379h30.016c4.143 0 7.5-3.357 7.5-7.5s-3.357-7.5-7.5-7.5h-18.991c-9.031 0-16.379-7.347-16.379-16.378s7.348-16.379 16.379-16.379h18.991c4.143 0 7.5-3.357 7.5-7.5s-3.357-7.5-7.5-7.5h-7.816c-9.031 0-16.378-7.347-16.378-16.378s7.347-16.378 16.378-16.378h122.363c9.785 0 19.173 2.208 27.9 6.563 3.706 1.851 8.21.344 10.06-3.362 1.85-3.707.344-8.211-3.362-10.06-10.827-5.402-22.468-8.141-34.598-8.141h-122.363c-17.302 0-31.378 14.076-31.378 31.379 0 7.323 2.521 14.069 6.743 19.414-10.586 5.047-17.919 15.854-17.919 28.343 0 7.348 2.538 14.113 6.785 19.466-10.527 5.07-17.81 15.847-17.81 28.291 0 5.997 1.692 11.607 4.623 16.378h-83.744c-17.302 0-31.378 14.076-31.378 31.379 0 17.301 14.076 31.377 31.378 31.377z"/></svg>