<svg id="Capa_1" enable-background="new 0 0 512 512" height="512" viewBox="0 0 512 512" width="512" xmlns="http://www.w3.org/2000/svg"><g><g><path d="m336.1 207.1c3.7-7.7 4.2-16.3 1.5-24.3-2.8-8-8.5-14.5-16.2-18.3-5.4-2.6-11.3-3.7-17.1-3.1 6.6-12.1 4.8-27.6-5.4-37.9-6-6-14-9.3-22.5-9.3-7.5 0-14.6 2.6-20.3 7.3-5.7-4.7-12.8-7.3-20.3-7.3-8.5 0-16.5 3.3-22.5 9.3-10.2 10.2-12 25.8-5.4 37.9-5.8-.6-11.7.4-17.1 3.1-7.6 3.7-13.4 10.2-16.2 18.3-2.8 8-2.3 16.7 1.5 24.3 3.3 6.8 8.7 12 15.5 15-4.2 15.6.7 33.7 18.8 39.9 13.9 4.8 27.5 1 38.3-9.9v46.4c0 4.1 3.4 7.5 7.5 7.5s7.5-3.4 7.5-7.5v-46.4c7.7 7.8 16.8 12 26.5 12 3.9 0 7.8-.7 11.8-2.1 18-6.2 23-24.3 18.8-39.9 6.6-3 12-8.2 15.3-15zm-13.5-6.6c-2 4-5.4 7.1-9.6 8.5l-4.2 1.4c-1.9.6-3.4 2-4.3 3.8s-1 3.9-.3 5.7l1.4 4.2c3.1 8.9 1.7 20.1-8.6 23.7-15.9 5.5-27.9-9.1-33.9-24.6-1.1-2.9-3.9-4.8-7-4.8s-5.9 1.9-7 4.8c-6 15.5-18 30.1-33.9 24.6-10.3-3.6-11.7-14.8-8.6-23.7l1.4-4.2c1.3-3.9-.7-8.2-4.6-9.5l-4.2-1.5c-4.2-1.5-7.7-4.5-9.6-8.5-2-4-2.2-8.6-.8-12.9 1.5-4.3 4.5-7.7 8.6-9.7 4-2 8.6-2.2 12.9-.8l15 5.2c3.1 1.1 6.6 0 8.5-2.7s1.9-6.3-.1-8.9c-7.8-10.9-22.5-23.3-9.7-36.6 3.2-3.2 7.4-4.9 11.9-4.9s8.7 1.7 11.9 4.9l3.1 3.1c1.4 1.4 3.3 2.2 5.3 2.2s3.9-.8 5.3-2.2l3.1-3.1c3.2-3.2 7.4-4.9 11.9-4.9s8.7 1.7 11.9 4.9c12.7 13.4-1.9 25.7-9.7 36.6-2 2.6-2 6.3-.1 8.9 1.9 2.7 5.4 3.8 8.5 2.7l15-5.2c4.2-1.5 8.8-1.2 12.9.8 4 2 7.1 5.4 8.6 9.7 1.2 4.4.9 9-1 13z"/><path d="m492.3 437c-6.2-16.6-24.6-25.1-41.2-18.9-4.3 1.6-8.7 3.1-13.3 4.6l20.5-136.2c.6-4.1-2.2-7.9-6.3-8.5s-7.9 2.2-8.5 6.3l-15.8 105h-91.1v-2.8c0-14-11.4-25.5-25.5-25.5h-110.2c-14 0-25.5 11.4-25.5 25.5v2.8h-91l-15.8-105c-.6-4.1-4.5-6.9-8.5-6.3-4.1.6-6.9 4.4-6.3 8.5l20.6 136.2c-4.5-1.5-9-3-13.3-4.6-16.5-6.1-35 2.3-41.2 18.9-6.1 16.6 2.3 35.1 18.9 41.2 58.5 21.8 135.7 33.8 217.2 33.8s158.7-12 217.4-33.8c16.5-6.1 25-24.6 18.9-41.2zm-66.9-32.7-3.5 23.2c-26.2 7.3-55.1 12.7-85.3 16.1v-39.3zm-224.5-28.3h110.1c5.8 0 10.5 4.7 10.5 10.5v58.6c-7.2.6-14.4 1.2-21.6 1.6v-36.9c0-6.7-5.5-12.2-12.2-12.2h-63.5c-6.7 0-12.2 5.5-12.2 12.2v36.9c-7.2-.4-14.5-1-21.6-1.6v-58.6c.1-5.8 4.8-10.5 10.5-10.5zm84 71.5c-19.2.7-38.6.7-57.8 0v-34.8h57.8zm-198.3-43.2h88.8v39.3c-30.2-3.4-59.1-8.8-85.3-16.1zm381.6 59.9c-117 43.4-307.3 43.4-424.3 0-8.8-3.3-13.3-13.1-10.1-21.9 3.3-8.8 13.1-13.3 21.9-10.1 55.2 20.5 127.7 30.8 200.3 30.7 72.5 0 145.1-10.3 200.2-30.7 8.8-3.3 18.7 1.2 21.9 10.1 3.4 8.8-1.1 18.6-9.9 21.9z"/><path d="m48.1 249.7c.6 4.1 4.4 6.9 8.5 6.3s6.9-4.4 6.3-8.5l-22.4-149.4c-3.3-21.9 4.5-29.6 21.9-37.9 65.8-31 129.2-45.8 193.6-45.2h.1c64.4-.6 127.7 14.2 193.5 45.2 17.5 8.2 25.2 16 21.9 37.9l-22.6 149.9c-.6 4.1 2.2 7.9 6.3 8.5.4.1.8.1 1.1.1 3.6 0 6.8-2.7 7.4-6.4l22.6-149.9c4.6-30.5-8.8-43.5-30.4-53.7-67.8-31.9-133.2-47.2-199.9-46.6-66.7-.6-132.1 14.7-200 46.7-21.6 10.2-35 23.2-30.4 53.7z"/></g></g></svg>