<?xml version="1.0" encoding="utf-8"?>
<!-- Generator: Adobe Illustrator 24.0.1, SVG Export Plug-In . SVG Version: 6.00 Build 0)  -->
<svg version="1.1" id="Capa_1" xmlns="http://www.w3.org/2000/svg" xmlns:xlink="http://www.w3.org/1999/xlink" x="0px" y="0px"
	 viewBox="0 0 512 512" style="enable-background:new 0 0 512 512;" xml:space="preserve">
<path d="M462.3,196c-3.9-49.7-25.3-96-61.3-131.7C361.9,25.4,310.5,4,256,4c-0.4,0-0.8,0-1.2,0c-55.2,0.3-106.9,22-145.6,60.9
	c-35.5,35.7-56.4,82.2-59.6,132.2C20.9,205.9,0,232.5,0,264v78c0,38.6,31.4,70,70,70h10c38.6,0,70-31.4,70-70v-78
	c0-31.8-21.3-58.7-50.4-67.2c3.2-36.6,18.9-70.4,44.9-96.6C173.9,70.6,213.2,54.2,255,54c0.3,0,0.6,0,0.9,0
	c41.2,0,80.2,16.2,109.9,45.8c26.4,26.2,42.5,59.9,46.3,96.1c-28.9,8.6-50.1,35.4-50.1,67.1v78c0,32.4,22.1,59.7,52,67.6
	c-0.3,13.5-11.4,24.4-25,24.4h-68.7c-8.7-14.9-24.8-25-43.3-25c-27.6,0-50,22.4-50,50s22.4,50,50,50c18.5,0,34.6-10.1,43.3-25H389
	c41.4,0,75-33.6,75-75v-0.6c27.8-9.2,48-35.5,48-66.4v-78C512,231.5,491.1,204.8,462.3,196z M100,342c0,11-9,20-20,20H70
	c-11,0-20-9-20-20v-78c0-11,9-20,20-20h10c11,0,20,9,20,20V342z M412,263c0-11,9-20,20-20h10c11,0,20,9,20,20v78c0,11-9,20-20,20
	h-10c-11,0-20-9-20-20V263z"/>
</svg>
