<?xml version="1.0" encoding="iso-8859-1"?>
<!-- Generator: Adobe Illustrator 19.0.0, SVG Export Plug-In . SVG Version: 6.00 Build 0)  -->
<svg version="1.1" id="Layer_1" xmlns="http://www.w3.org/2000/svg" xmlns:xlink="http://www.w3.org/1999/xlink" x="0px" y="0px"
	 viewBox="0 0 512 512" style="enable-background:new 0 0 512 512;" xml:space="preserve">
<g>
	<g>
		<path d="M252.837,260.379c-0.179-0.221-0.37-0.435-0.575-0.641c-0.205-0.206-0.419-0.396-0.641-0.575
			c-9.796-9.494-23.132-15.355-37.817-15.355c-4.512,0-8.17,3.658-8.17,8.17s3.658,8.17,8.17,8.17c7.538,0,14.566,2.213,20.483,6.01
			L120.33,380.115H69.795c-2.167,0-4.245,0.861-5.777,2.393L2.394,444.132c-2.337,2.337-3.036,5.851-1.771,8.903
			c1.265,3.052,4.244,5.044,7.548,5.044h45.751v45.751c0,3.304,1.99,6.283,5.044,7.548c1.011,0.418,2.072,0.622,3.125,0.622
			c2.126,0,4.216-0.83,5.779-2.393l61.623-61.624c1.533-1.532,2.393-3.61,2.393-5.777v-50.537l113.954-113.954
			c3.796,5.917,6.01,12.945,6.01,20.483c0,4.512,3.658,8.17,8.17,8.17c4.513,0,8.17-3.658,8.17-8.17
			C268.191,283.512,262.33,270.176,252.837,260.379z M70.262,484.106V449.91c0-4.512-3.658-8.17-8.17-8.17H27.896l45.283-45.283
			h30.812l-24.567,24.567c-3.191,3.191-3.191,8.363,0,11.554c1.595,1.596,3.686,2.393,5.777,2.393c2.091,0,4.182-0.797,5.777-2.393
			l24.567-24.567v30.812h0.001L70.262,484.106z"/>
	</g>
</g>
<g>
	<g>
		<path d="M511.946,7.252c-0.009-0.077-0.023-0.155-0.034-0.232c-0.036-0.256-0.084-0.51-0.145-0.761
			c-0.019-0.076-0.035-0.154-0.056-0.229c-0.17-0.63-0.417-1.242-0.74-1.824c-0.037-0.066-0.077-0.131-0.117-0.197
			c-0.132-0.222-0.276-0.439-0.43-0.651c-0.051-0.071-0.101-0.142-0.155-0.21c-0.204-0.261-0.42-0.516-0.66-0.756
			s-0.495-0.455-0.755-0.659c-0.071-0.056-0.144-0.106-0.216-0.158c-0.209-0.153-0.423-0.294-0.642-0.425
			c-0.069-0.041-0.136-0.083-0.207-0.122c-0.578-0.321-1.187-0.566-1.813-0.736c-0.083-0.023-0.166-0.04-0.248-0.061
			c-0.243-0.058-0.488-0.105-0.734-0.139c-0.085-0.012-0.17-0.027-0.255-0.037c-0.316-0.035-0.634-0.056-0.952-0.053
			c-0.058,0-0.115,0.007-0.173,0.009c-0.271,0.008-0.542,0.028-0.812,0.062c-0.09,0.011-0.18,0.024-0.27,0.039
			c-0.294,0.047-0.585,0.108-0.874,0.187c-0.024,0.007-0.049,0.009-0.073,0.015l-0.051,0.014
			c-0.048,0.014-53.868,15.391-53.868,15.391c-4.338,1.24-6.851,5.762-5.611,10.101c1.24,4.34,5.763,6.851,10.101,5.611
			l23.602-6.743L413.86,86.585c-16.701-11.421-36.882-18.112-58.598-18.112c-33.327,0-64.394,16.016-83.855,42.534
			c-19.462-26.518-50.528-42.534-83.855-42.534c-57.383,0-104.067,46.684-104.067,104.067c0,48.179,21.775,96.775,64.72,144.436
			c3.02,3.352,8.187,3.62,11.539,0.6c3.352-3.021,3.621-8.187,0.6-11.539c-40.157-44.567-60.52-89.482-60.52-133.497
			c0-48.372,39.354-87.727,87.727-87.727c31.835,0,61.228,17.348,76.71,45.274c1.44,2.597,4.176,4.209,7.146,4.209
			s5.706-1.611,7.146-4.209c15.481-27.926,44.873-45.274,76.709-45.274c48.372,0,87.727,39.354,87.727,87.727
			c0,66.312-47.296,123.672-86.973,160.115c-36.177,33.229-72.824,55.63-84.61,62.488c-9.599-5.583-35.667-21.455-64.452-45.026
			c-3.491-2.86-8.639-2.346-11.497,1.145c-2.86,3.491-2.346,8.639,1.145,11.497c37.43,30.648,69.555,48.227,70.905,48.961
			c1.216,0.661,2.559,0.991,3.901,0.991c1.342,0,2.685-0.33,3.901-0.991c1.872-1.016,46.338-25.376,91.497-66.788
			c26.669-24.457,47.956-49.782,63.27-75.269c19.41-32.306,29.254-64.983,29.254-97.125c0-29.77-12.568-56.657-32.673-75.642
			l60.658-60.657l-6.744,23.604c-1.241,4.339,1.272,8.861,5.61,10.101c0.75,0.215,1.505,0.317,2.248,0.317
			c3.556,0,6.827-2.339,7.851-5.927l15.374-53.809c0.008-0.025,0.014-0.051,0.022-0.076c0.104-0.382,0.166-0.685,0.215-0.989
			c0.015-0.086,0.027-0.169,0.038-0.254c0.036-0.279,0.058-0.559,0.064-0.84c0.001-0.05,0.007-0.099,0.008-0.149
			C512.002,7.895,511.982,7.574,511.946,7.252z"/>
	</g>
</g>
<g>
</g>
<g>
</g>
<g>
</g>
<g>
</g>
<g>
</g>
<g>
</g>
<g>
</g>
<g>
</g>
<g>
</g>
<g>
</g>
<g>
</g>
<g>
</g>
<g>
</g>
<g>
</g>
<g>
</g>
</svg>
