<svg xmlns="http://www.w3.org/2000/svg" width="512" height="512"><path d="M474.018 78.819c-50.643-50.643-133.045-50.643-183.687 0l-28.996 28.996c-1.417 1.417-3.301 2.197-5.304 2.197s-3.887-.78-5.304-2.197L221.73 78.819c-20.979-20.981-48.755-34.237-78.209-37.33a7.499 7.499 0 0 0-8.243 6.677 7.5 7.5 0 0 0 6.677 8.243c26.047 2.734 50.611 14.46 69.168 33.018l10.675 10.675H39.22a115.487 115.487 0 0 1 9.431-10.675c17.057-17.057 38.606-28.153 62.316-32.09a7.5 7.5 0 1 0-2.458-14.799C81.693 46.99 57.326 59.536 38.043 78.819 13.51 103.352 0 135.969 0 170.663s13.51 67.312 38.043 91.844l202.075 202.076c4.387 4.387 10.149 6.58 15.912 6.58s11.525-2.193 15.912-6.58l202.076-202.076c50.643-50.643 50.643-133.045 0-183.688zm-173.08 10.608c44.793-44.793 117.679-44.793 162.472.001a115.228 115.228 0 0 1 9.431 10.675H290.263zm-64.139 25.677 3.319 3.319c4.25 4.251 9.901 6.591 15.912 6.591s11.662-2.341 15.912-6.591l3.319-3.319H482.74c7.647 13.855 12.221 28.966 13.717 44.324H15.604c1.496-15.358 6.07-30.468 13.717-44.324zm141.107 222.3H228.577a7.501 7.501 0 0 0 0 15.002h134.327L318.58 396.73h-125.1l-44.324-44.324h46.73c4.143 0 7.501-3.358 7.501-7.501s-3.358-7.501-7.501-7.501h-61.732L89.831 293.08h332.398zM261.334 453.975c-1.417 1.417-3.301 2.197-5.304 2.197s-3.887-.78-5.304-2.197l-42.244-42.244h95.097zM463.41 251.899l-26.179 26.179H74.83l-26.179-26.179a114.95 114.95 0 0 1-14.788-18.145h307.376c4.143 0 7.501-3.358 7.501-7.501s-3.358-7.501-7.501-7.501H25.548c-6.459-14.051-9.93-29.147-10.424-44.324h481.812c-.493 15.176-3.965 30.272-10.424 44.324H373.93c-4.143 0-7.501 3.358-7.501 7.501s3.358 7.501 7.501 7.501h104.268a114.95 114.95 0 0 1-14.788 18.145z"/></svg>