<?xml version="1.0" encoding="utf-8"?>
<!-- Generator: Adobe Illustrator 21.0.0, SVG Export Plug-In . SVG Version: 6.00 Build 0)  -->
<svg version="1.1" id="Layer_1" xmlns="http://www.w3.org/2000/svg" xmlns:xlink="http://www.w3.org/1999/xlink" x="0px" y="0px"
	 viewBox="0 0 512 512" style="enable-background:new 0 0 512 512;" xml:space="preserve">
<path d="M512,184.7c0-75.5-60-149.8-148.4-149.8c-38.9,0-76,13.5-104.4,39.7c-1.1,1-2.1,2-3.2,3c-1-1-2.1-2-3.2-3
	c-28.4-26.2-65.5-39.7-104.4-39.7C60,34.9,0,109.2,0,184.7c0,40.6,15.5,78.7,44.1,107.4l0,0L210,458c12.3,12.3,28.6,19,46,19
	c0,0,0,0,0,0c0,0,0,0,0,0c0,0,0,0,0,0c0,0,0,0,0,0c17.4,0,33.7-6.8,46-19l165.9-165.9l0,0C496.5,263.4,512,225.3,512,184.7z"/>
</svg>
