<svg xmlns="http://www.w3.org/2000/svg" xml:space="preserve" style="enable-background:new 0 0 512 512" viewBox="0 0 512 512"><path d="M252.837 260.379a7.865 7.865 0 0 0-1.216-1.216c-9.796-9.494-23.132-15.355-37.817-15.355a8.17 8.17 0 0 0 0 16.34 37.807 37.807 0 0 1 20.483 6.01L120.33 380.115H69.795a8.17 8.17 0 0 0-5.777 2.393L2.394 444.132a8.168 8.168 0 0 0-1.771 8.903 8.173 8.173 0 0 0 7.548 5.044h45.751v45.751a8.17 8.17 0 0 0 13.948 5.777l61.623-61.624a8.166 8.166 0 0 0 2.393-5.777v-50.537L245.84 277.715a37.815 37.815 0 0 1 6.01 20.483 8.17 8.17 0 0 0 16.34 0c.001-14.686-5.86-28.022-15.353-37.819zM70.262 484.106V449.91a8.17 8.17 0 0 0-8.17-8.17H27.896l45.283-45.283h30.812l-24.567 24.567a8.17 8.17 0 0 0 0 11.554 8.14 8.14 0 0 0 5.777 2.393 8.14 8.14 0 0 0 5.777-2.393l24.567-24.567v30.812h.001l-45.284 45.283z"/><path d="M511.946 7.252c-.009-.077-.023-.155-.034-.232a7.852 7.852 0 0 0-.145-.761c-.019-.076-.035-.154-.056-.229a8.11 8.11 0 0 0-.74-1.824c-.037-.066-.077-.131-.117-.197a8.505 8.505 0 0 0-.43-.651c-.051-.071-.101-.142-.155-.21-.204-.261-.42-.516-.66-.756s-.495-.455-.755-.659c-.071-.056-.144-.106-.216-.158a8.284 8.284 0 0 0-.642-.425c-.069-.041-.136-.083-.207-.122a8.109 8.109 0 0 0-1.813-.736c-.083-.023-.166-.04-.248-.061a7.71 7.71 0 0 0-.734-.139c-.085-.012-.17-.027-.255-.037a7.97 7.97 0 0 0-.952-.053c-.058 0-.115.007-.173.009a8.507 8.507 0 0 0-1.082.101 8.24 8.24 0 0 0-.874.187c-.024.007-.049.009-.073.015l-.051.014-53.868 15.391a8.17 8.17 0 0 0 4.49 15.712l23.602-6.743-61.898 61.897c-16.701-11.421-36.882-18.112-58.598-18.112-33.327 0-64.394 16.016-83.855 42.534-19.462-26.518-50.528-42.534-83.855-42.534-57.383 0-104.067 46.684-104.067 104.067 0 48.179 21.775 96.775 64.72 144.436a8.171 8.171 0 0 0 12.139-10.939c-40.157-44.567-60.52-89.482-60.52-133.497 0-48.372 39.354-87.727 87.727-87.727 31.835 0 61.228 17.348 76.71 45.274a8.172 8.172 0 0 0 14.292 0c15.481-27.926 44.873-45.274 76.709-45.274 48.372 0 87.727 39.354 87.727 87.727 0 66.312-47.296 123.672-86.973 160.115-36.177 33.229-72.824 55.63-84.61 62.488-9.599-5.583-35.667-21.455-64.452-45.026a8.169 8.169 0 0 0-11.497 1.145 8.169 8.169 0 0 0 1.145 11.497c37.43 30.648 69.555 48.227 70.905 48.961a8.165 8.165 0 0 0 7.802 0c1.872-1.016 46.338-25.376 91.497-66.788 26.669-24.457 47.956-49.782 63.27-75.269 19.41-32.306 29.254-64.983 29.254-97.125 0-29.77-12.568-56.657-32.673-75.642l60.658-60.657-6.744 23.604a8.17 8.17 0 0 0 5.61 10.101c.75.215 1.505.317 2.248.317a8.171 8.171 0 0 0 7.851-5.927l15.374-53.809.022-.076a9.153 9.153 0 0 0 .253-1.243c.036-.279.058-.559.064-.84.001-.05.007-.099.008-.149a8.437 8.437 0 0 0-.055-.965z"/></svg>