<svg id="Capa_1" enable-background="new 0 0 512 512" height="512" viewBox="0 0 512 512" width="512" xmlns="http://www.w3.org/2000/svg"><path d="m474.018 78.819c-50.643-50.643-133.045-50.643-183.687 0l-28.996 28.996c-1.417 1.417-3.301 2.197-5.304 2.197s-3.887-.78-5.304-2.197l-28.997-28.996c-20.979-20.981-48.755-34.237-78.209-37.33-4.125-.43-7.811 2.556-8.243 6.677-.433 4.12 2.557 7.811 6.677 8.243 26.047 2.734 50.611 14.46 69.168 33.018l10.675 10.675h-182.578c2.886-3.703 6.027-7.271 9.431-10.675 17.057-17.057 38.606-28.153 62.316-32.09 4.087-.679 6.85-4.542 6.171-8.628s-4.537-6.85-8.629-6.171c-26.816 4.452-51.183 16.998-70.466 36.281-24.533 24.533-38.043 57.15-38.043 91.844s13.51 67.312 38.043 91.844l202.075 202.076c4.387 4.387 10.149 6.58 15.912 6.58s11.525-2.193 15.912-6.58l202.076-202.076c50.643-50.643 50.643-133.045 0-183.688zm-173.08 10.608c44.793-44.793 117.679-44.793 162.472.001 3.404 3.403 6.545 6.971 9.431 10.675h-182.578zm-64.139 25.677 3.319 3.319c4.25 4.251 9.901 6.591 15.912 6.591s11.662-2.341 15.912-6.591l3.319-3.319h207.479c7.647 13.855 12.221 28.966 13.717 44.324h-480.853c1.496-15.358 6.07-30.468 13.717-44.324zm141.107 222.3h-149.329c-4.142 0-7.501 3.358-7.501 7.501s3.358 7.501 7.501 7.501h134.327l-44.324 44.324h-125.1l-44.324-44.324h46.73c4.143 0 7.501-3.358 7.501-7.501s-3.358-7.501-7.501-7.501h-61.732l-44.323-44.324h332.398zm-116.572 116.571c-1.417 1.417-3.301 2.197-5.304 2.197s-3.887-.78-5.304-2.197l-42.244-42.244h95.097zm202.076-202.076-26.179 26.179h-362.401l-26.179-26.179c-5.64-5.64-10.568-11.726-14.788-18.145h307.376c4.143 0 7.501-3.358 7.501-7.501s-3.358-7.501-7.501-7.501h-315.691c-6.459-14.051-9.93-29.147-10.424-44.324h481.812c-.493 15.176-3.965 30.272-10.424 44.324h-112.582c-4.143 0-7.501 3.358-7.501 7.501s3.358 7.501 7.501 7.501h104.268c-4.22 6.419-9.148 12.505-14.788 18.145z"/></svg>