<?xml version="1.0" encoding="iso-8859-1"?>
<!-- Generator: Adobe Illustrator 19.0.0, SVG Export Plug-In . SVG Version: 6.00 Build 0)  -->
<svg version="1.1" id="Layer_1" xmlns="http://www.w3.org/2000/svg" xmlns:xlink="http://www.w3.org/1999/xlink" x="0px" y="0px"
	 viewBox="0 0 511.996 511.996" style="enable-background:new 0 0 511.996 511.996;" xml:space="preserve">
<path d="M511.996,184.74c0-75.526-59.998-149.797-148.419-149.797c-38.906,0-75.989,13.503-104.409,39.715
	c-1.071,0.988-2.128,1.991-3.17,3.009c-1.042-1.017-2.099-2.021-3.17-3.009c-28.42-26.212-65.503-39.715-104.409-39.715
	C59.998,34.943,0,109.214,0,184.74c0,40.557,15.467,78.684,44.143,107.36l-0.002-0.002l165.867,165.912
	c12.276,12.28,28.6,19.043,45.964,19.044c0.002,0,0.002,0,0.005,0c0.007,0,0.015-0.001,0.022-0.001s0.015,0.001,0.022,0.001
	c0.002,0,0.003,0,0.005,0c17.364-0.001,33.688-6.765,45.964-19.044l165.867-165.912l-0.002,0.002
	C496.529,263.424,511.996,225.296,511.996,184.74z M432.498,256.744c-0.001,0.001-0.001,0.002-0.002,0.002L266.628,422.658
	c-2.833,2.834-6.6,4.395-10.607,4.395c0,0,0,0-0.001,0c-0.008,0-0.015-0.001-0.022-0.001s-0.015,0.001-0.022,0.001
	c0,0-0.001,0-0.001,0c-4.007,0-7.774-1.561-10.607-4.395L79.501,256.747c-0.001-0.001-0.001-0.002-0.002-0.002
	C60.335,237.581,50,212.102,50,184.998c0-54.451,44.665-100.246,100.747-100.246c24.43,0,48.756,9.003,68.184,26.66
	c15.735,14.301,17.818,30.356,37.068,30.356s21.333-16.055,37.068-30.356c19.427-17.658,43.753-26.66,68.184-26.66
	c56.082,0,100.747,45.795,100.747,100.246C461.997,212.102,451.661,237.581,432.498,256.744z"/>
<g>
</g>
<g>
</g>
<g>
</g>
<g>
</g>
<g>
</g>
<g>
</g>
<g>
</g>
<g>
</g>
<g>
</g>
<g>
</g>
<g>
</g>
<g>
</g>
<g>
</g>
<g>
</g>
<g>
</g>
</svg>
