<svg xmlns="http://www.w3.org/2000/svg" viewBox="-49 141 512 512"><path d="M462.998 325.742c0-75.526-59.998-149.797-148.419-149.797-38.906 0-75.989 13.503-104.409 39.715a152.623 152.623 0 0 0-3.17 3.009 155.323 155.323 0 0 0-3.17-3.009c-28.42-26.212-65.503-39.715-104.409-39.715-88.421 0-148.419 74.271-148.419 149.797 0 40.557 15.467 78.684 44.143 107.36l-.002-.002L161.01 599.011c12.276 12.28 28.6 19.043 45.964 19.044h.005l.022-.001.022.001h.005c17.364-.001 33.688-6.765 45.964-19.044l165.867-165.912-.002.002c28.674-28.675 44.141-66.803 44.141-107.359zM383.5 397.746l-.002.002L217.63 563.66a14.9 14.9 0 0 1-10.607 4.395h-.001l-.022-.001-.022.001h-.001a14.9 14.9 0 0 1-10.607-4.395L30.503 397.749l-.002-.002C11.337 378.583 1.002 353.104 1.002 326c0-54.451 44.665-100.246 100.747-100.246 24.43 0 48.756 9.003 68.184 26.66 15.735 14.301 17.818 30.356 37.068 30.356s21.333-16.055 37.068-30.356c19.427-17.658 43.753-26.66 68.184-26.66C368.335 225.754 413 271.549 413 326c-.001 27.104-10.337 52.583-29.5 71.746z"/></svg>