<?xml version="1.0" encoding="iso-8859-1"?>
<!-- Generator: Adobe Illustrator 19.0.0, SVG Export Plug-In . SVG Version: 6.00 Build 0)  -->
<svg version="1.1" id="Layer_1" xmlns="http://www.w3.org/2000/svg" xmlns:xlink="http://www.w3.org/1999/xlink" x="0px" y="0px"
	 viewBox="-49 141 512 512" style="enable-background:new -49 141 512 512;" xml:space="preserve">
<path d="M462.998,325.742c0-75.526-59.998-149.797-148.419-149.797c-38.906,0-75.989,13.503-104.409,39.715
	c-1.071,0.988-2.128,1.991-3.17,3.009c-1.042-1.017-2.099-2.021-3.17-3.009c-28.42-26.212-65.503-39.715-104.409-39.715
	c-88.421,0-148.419,74.271-148.419,149.797c0,40.557,15.467,78.684,44.143,107.36l-0.002-0.002L161.01,599.011
	c12.276,12.28,28.6,19.043,45.964,19.044c0.002,0,0.002,0,0.005,0c0.007,0,0.015-0.001,0.022-0.001c0.007,0,0.015,0.001,0.022,0.001
	c0.002,0,0.003,0,0.005,0c17.364-0.001,33.688-6.765,45.964-19.044l165.867-165.912l-0.002,0.002
	C447.531,404.426,462.998,366.298,462.998,325.742z M383.5,397.746c-0.001,0.001-0.001,0.002-0.002,0.002L217.63,563.66
	c-2.833,2.834-6.6,4.395-10.607,4.395c0,0,0,0-0.001,0c-0.008,0-0.015-0.001-0.022-0.001s-0.015,0.001-0.022,0.001h-0.001
	c-4.007,0-7.774-1.561-10.607-4.395L30.503,397.749c-0.001-0.001-0.001-0.002-0.002-0.002C11.337,378.583,1.002,353.104,1.002,326
	c0-54.451,44.665-100.246,100.747-100.246c24.43,0,48.756,9.003,68.184,26.66c15.735,14.301,17.818,30.356,37.068,30.356
	s21.333-16.055,37.068-30.356c19.427-17.658,43.753-26.66,68.184-26.66C368.335,225.754,413,271.549,413,326
	C412.999,353.104,402.663,378.583,383.5,397.746z"/>
</svg>
