<?xml version="1.0" encoding="iso-8859-1"?>
<!-- Generator: Adobe Illustrator 19.0.0, SVG Export Plug-In . SVG Version: 6.00 Build 0)  -->
<svg version="1.1" id="Layer_1" xmlns="http://www.w3.org/2000/svg" xmlns:xlink="http://www.w3.org/1999/xlink" x="0px" y="0px"
	 viewBox="-49 141 512 512" style="enable-background:new -49 141 512 512;" xml:space="preserve">
<path d="M455.678,404.322L352,300.644V216c0-13.807-11.193-25-25-25s-25,11.193-25,25v34.645l-77.322-77.322
	c-9.764-9.763-25.592-9.763-35.355,0l-231,231c-7.15,7.15-9.289,17.903-5.419,27.245C-43.228,440.909-34.111,447-24,447H1v126
	c0,30.327,24.673,55,55,55h121h60h121c30.327,0,55-24.673,55-55V447h25c10.111,0,19.228-6.091,23.097-15.433
	C464.966,422.225,462.828,411.472,455.678,404.322z M363,573c0,2.757-2.243,5-5,5h-96v-95c0-13.807-11.193-25-25-25h-60
	c-13.807,0-25,11.193-25,25v95H56c-2.757,0-5-2.243-5-5V382.355l156-156l156,156V573z"/>
</svg>
