<?xml version="1.0" encoding="utf-8"?>
<!-- Generator: Adobe Illustrator 24.0.1, SVG Export Plug-In . SVG Version: 6.00 Build 0)  -->
<svg version="1.1" id="Capa_1" xmlns="http://www.w3.org/2000/svg" xmlns:xlink="http://www.w3.org/1999/xlink" x="0px" y="0px"
	 viewBox="0 0 512 512" style="enable-background:new 0 0 512 512;" xml:space="preserve">
<path d="M457.5,462.4h-5v-40.7c0-42.5-21.3-81.7-56.9-104.8l-93.1-60.5l93.1-60.5c35.7-23.1,56.9-62.3,56.9-104.8V50.4h5
	c13.8,0,25-11.2,25-25s-11.2-25-25-25h-402c-13.8,0-25,11.2-25,25s11.2,25,25,25h5v40.7c0,42.5,21.3,81.7,56.9,104.8l93.1,60.5
	l-93.1,60.5C81.8,340,60.5,379.2,60.5,421.7v40.7h-5c-13.8,0-25,11.2-25,25s11.2,25,25,25h402c13.8,0,25-11.2,25-25
	S471.3,462.4,457.5,462.4z M110.5,91.1V50.4h292v40.7c0,25.5-12.8,49-34.2,62.9l-111.8,72.6L144.7,154
	C123.3,140.1,110.5,116.6,110.5,91.1z M110.5,421.7c0-25.5,12.8-49,34.2-62.9l111.8-72.6l111.8,72.6c21.4,13.9,34.2,37.4,34.2,62.9
	v40.7h-292V421.7z"/>
</svg>
