<?xml version="1.0" encoding="utf-8"?>
<!-- Generator: Adobe Illustrator 26.3.1, SVG Export Plug-In . SVG Version: 6.00 Build 0)  -->
<svg version="1.1" id="Capa_1" xmlns="http://www.w3.org/2000/svg" xmlns:xlink="http://www.w3.org/1999/xlink" x="0px" y="0px"
	 viewBox="0 0 512 512" style="enable-background:new 0 0 512 512;" xml:space="preserve">
<g>
	<path d="M322.8,324.4l-7.9-45.8l33.3-32.5c11-10.7,4.9-29.3-10.2-31.5l-46-6.7l-20.6-41.7c-6.8-13.7-26.3-13.7-33.1,0L217.7,208
		l-46,6.7c-15.1,2.2-21.2,20.8-10.2,31.5l33.3,32.5l-7.9,45.8c-2.6,15.1,13.2,26.6,26.8,19.4l41.2-21.6l41.2,21.6
		C309.6,351,325.4,339.5,322.8,324.4z"/>
	<path d="M39,192c13.8,0,25-11.2,25-25V81c0-8.3,6.7-15,15-15h85c13.8,0,25-11.2,25-25s-11.2-25-25-25H79c-35.8,0-65,29.2-65,65v86
		C14,180.8,25.2,192,39,192z"/>
	<path d="M431,16h-86c-13.8,0-25,11.2-25,25s11.2,25,25,25h86c8.3,0,15,6.7,15,15v86c0,13.8,11.2,25,25,25s25-11.2,25-25V81
		C496,45.2,466.8,16,431,16z"/>
	<path d="M471,322c-13.8,0-25,11.2-25,25v86c0,8.3-6.7,15-15,15h-86c-13.8,0-25,11.2-25,25s11.2,25,25,25h86c35.8,0,65-29.2,65-65
		v-86C496,333.2,484.8,322,471,322z"/>
	<path d="M164,448H79c-8.3,0-15-6.7-15-15v-86c0-13.8-11.2-25-25-25s-25,11.2-25,25v86c0,35.8,29.2,65,65,65h85
		c13.8,0,25-11.2,25-25S177.8,448,164,448z"/>
</g>
</svg>
