<svg width="24" height="24" viewBox="0 0 24 24" fill="none" xmlns="http://www.w3.org/2000/svg">
<path d="M21.5759 10.8766H15.4579C14.1703 10.8766 13.1227 9.82903 13.1227 8.54144V2.4234C13.1227 1.13581 14.1703 0.0882732 15.4579 0.0882732H21.5759C22.8635 0.0882732 23.911 1.13581 23.911 2.4234V8.54144C23.911 9.82903 22.8635 10.8766 21.5759 10.8766ZM15.4579 2.4234V8.54144H21.5759V2.4234H15.4579ZM5.65032 24C2.56001 24 0.0460093 21.486 0.0460093 18.3957C0.0460093 15.3054 2.56001 12.7914 5.65032 12.7914C8.74063 12.7914 11.2546 15.3054 11.2546 18.3957C11.2546 21.486 8.74063 24 5.65032 24ZM5.65032 15.1265C3.8476 15.1265 2.38114 16.593 2.38114 18.3957C2.38114 20.1984 3.8476 21.6649 5.65032 21.6649C7.45304 21.6649 8.9195 20.1984 8.9195 18.3957C8.9195 16.593 7.45304 15.1265 5.65032 15.1265ZM8.10268 10.8588C8.88541 11.2703 9.80032 10.6057 9.65087 9.73469L9.19645 7.08572L11.122 5.20968C11.7553 4.59274 11.406 3.51764 10.5307 3.39061L7.86963 3.00438L6.67965 0.594529C6.28828 -0.198014 5.15714 -0.198014 4.76577 0.594529L3.57579 3.00438L0.914678 3.39061C0.039471 3.51764 -0.309865 4.59274 0.323423 5.20968L2.24897 7.08572L1.79455 9.73469C1.64511 10.6057 2.56001 11.2703 3.34275 10.8588L5.72318 9.60813L8.10361 10.8588H8.10268ZM23.0606 15.4049C21.9266 14.2709 20.0875 14.2709 18.9536 15.4049L18.1858 16.1726L17.418 15.4049C16.284 14.2709 14.4449 14.2709 13.311 15.4049C12.177 16.5388 12.177 18.3779 13.311 19.5119L14.0787 20.2797L17.4717 23.6726C17.8663 24.0673 18.5057 24.0673 18.9003 23.6726L22.2933 20.2797L23.0611 19.5119C24.195 18.3779 24.195 16.5388 23.0611 15.4049H23.0606Z" fill="black"/>
</svg>
