<?xml version="1.0" encoding="utf-8"?>
<!-- Generator: Adobe Illustrator 24.0.1, SVG Export Plug-In . SVG Version: 6.00 Build 0)  -->
<svg version="1.1" id="Capa_1" xmlns="http://www.w3.org/2000/svg" xmlns:xlink="http://www.w3.org/1999/xlink" x="0px" y="0px"
	 viewBox="0 0 512 512" style="enable-background:new 0 0 512 512;" xml:space="preserve">
<g>
	<path d="M448.9,24.4H189c-34.8,0-63.1,28.3-63.1,63.1v201.8c0,34.8,28.3,63.1,63.1,63.1h259.8c34.8,0,63.1-28.3,63.1-63.1V87.4
		C512,52.7,483.7,24.4,448.9,24.4z M189,74.4h259.8c7.2,0,13.1,5.9,13.1,13.1v170.1l-30.6-31c-4.7-4.8-11.1-7.4-17.8-7.4
		c0,0,0,0,0,0c-6.7,0-13.1,2.7-17.8,7.5l-23,23.5l-90-90.3c-4.7-4.7-11.1-7.4-17.7-7.4c0,0,0,0,0,0c-6.6,0-13,2.6-17.7,7.3
		L176,231.2V87.4C176,80.2,181.8,74.4,189,74.4z"/>
	<path d="M388,172.7c15.8,0,28.6-12.8,28.6-28.6c0-15.8-12.8-28.6-28.6-28.6c-15.8,0-28.6,12.8-28.6,28.6
		C359.4,159.9,372.2,172.7,388,172.7z"/>
	<path d="M326.3,428.1c-2,7-9.2,11-16.2,9.1L59.6,366.9c-3.4-0.9-6.2-3.1-7.9-6.2c-1.7-3.1-2.1-6.6-1.2-10L76,260.1V112.5
		c-8.8,7.8-15.6,18.1-19,30.3L2.4,337.3c-4.5,16.2-2.5,33.3,5.8,48c8.3,14.7,21.8,25.3,38,29.8l250.5,70.2c0,0,0,0,0,0
		c5.7,1.6,11.4,2.3,17,2.3c27.6,0,53-18.3,60.8-46.1l11-39.2h-51.9L326.3,428.1z"/>
</g>
</svg>
