<?xml version="1.0" encoding="iso-8859-1"?>
<!-- Generator: Adobe Illustrator 19.0.0, SVG Export Plug-In . SVG Version: 6.00 Build 0)  -->
<svg version="1.1" id="Layer_1" xmlns="http://www.w3.org/2000/svg" xmlns:xlink="http://www.w3.org/1999/xlink" x="0px" y="0px"
	 viewBox="0 0 512.001 512.001" style="enable-background:new 0 0 512.001 512.001;" xml:space="preserve">
<path d="M509.974,298.141L420.371,89.365c-10.263-23.913-33.709-39.365-59.731-39.365H151.362
	c-26.022,0-49.469,15.452-59.731,39.364L2.027,298.141c-1.406,3.276-2.052,6.685-2.026,10.035v88.825c0,35.841,29.159,65,65,65h382
	c35.841,0,65-29.159,65-65v-88.825C512.026,304.826,511.38,301.417,509.974,298.141z M137.578,109.085
	c2.368-5.519,7.779-9.084,13.784-9.084h209.277c6.005,0,11.416,3.565,13.784,9.084l74.558,173.721l-51.704-0.803
	c-6.662-0.068-13.108,2.527-17.856,7.223c-4.749,4.696-7.421,11.097-7.421,17.776v40c0,30.327-24.673,55-55,55h-122
	c-30.327,0-55-24.673-55-55v-40c0-6.679-2.672-13.08-7.421-17.776c-4.748-4.696-11.212-7.296-17.856-7.223l-51.662,0.706
	L137.578,109.085z"/>
<g>
</g>
<g>
</g>
<g>
</g>
<g>
</g>
<g>
</g>
<g>
</g>
<g>
</g>
<g>
</g>
<g>
</g>
<g>
</g>
<g>
</g>
<g>
</g>
<g>
</g>
<g>
</g>
<g>
</g>
</svg>
