<svg xmlns="http://www.w3.org/2000/svg" viewBox="-49 141 512 512"><path d="M460.973 439.14L371.37 230.365A64.933 64.933 0 0 0 311.638 191H102.361a64.932 64.932 0 0 0-59.731 39.364L-46.974 439.14A24.892 24.892 0 0 0-49 449.175V538c0 35.841 29.159 65 65 65h382c35.841 0 65-29.159 65-65v-88.825a24.91 24.91 0 0 0-2.027-10.035zM88.577 250.084A14.983 14.983 0 0 1 102.361 241h209.277a14.983 14.983 0 0 1 13.784 9.084l74.558 173.721-51.704-.803a25.05 25.05 0 0 0-17.856 7.223 24.998 24.998 0 0 0-7.421 17.776v40c0 30.327-24.673 55-55 55h-122c-30.327 0-55-24.673-55-55v-40c0-6.679-2.672-13.08-7.421-17.776a25.06 25.06 0 0 0-17.856-7.223l-51.662.706 74.517-173.624z"/></svg>