<?xml version="1.0" encoding="iso-8859-1"?>
<!-- Generator: Adobe Illustrator 19.0.0, SVG Export Plug-In . SVG Version: 6.00 Build 0)  -->
<svg version="1.1" id="Layer_1" xmlns="http://www.w3.org/2000/svg" xmlns:xlink="http://www.w3.org/1999/xlink" x="0px" y="0px"
	 viewBox="-49 141 512 512" style="enable-background:new -49 141 512 512;" xml:space="preserve">
<g>
	<g>
		<path d="M207,653c-68.38,0-132.667-26.629-181.02-74.98C-22.371,529.667-49,465.38-49,397s26.629-132.667,74.98-181.02
			C74.333,167.629,138.62,141,207,141s132.667,26.629,181.02,74.98C436.371,264.333,463,328.62,463,397
			s-26.629,132.667-74.98,181.02C339.667,626.371,275.38,653,207,653z M207,191C93.411,191,1,283.411,1,397s92.411,206,206,206
			s206-92.411,206-206S320.589,191,207,191z"/>
	</g>
	<g>
		<path d="M217,543c-13.807,0-25-11.193-25-25V391h-25c-13.807,0-25-11.193-25-25s11.193-25,25-25h50c13.807,0,25,11.193,25,25v152
			C242,531.807,230.807,543,217,543z"/>
	</g>
	<g>
		<path d="M207,311c-16.542,0-30-13.458-30-30s13.458-30,30-30s30,13.458,30,30S223.542,311,207,311z"/>
	</g>
</g>
</svg>
