<?xml version="1.0" encoding="iso-8859-1"?>
<!-- Generator: Adobe Illustrator 19.0.0, SVG Export Plug-In . SVG Version: 6.00 Build 0)  -->
<svg version="1.1" id="Layer_1" xmlns="http://www.w3.org/2000/svg" xmlns:xlink="http://www.w3.org/1999/xlink" x="0px" y="0px"
	 viewBox="0 0 340.014 340.014" style="enable-background:new 0 0 340.014 340.014;" xml:space="preserve">
<g>
	<g>
		<g>
			<path style="fill:#231F20;" d="M169.792,113.375c-31.374,0-56.708,25.466-56.708,56.708c0,31.373,25.466,56.708,56.708,56.708
				c31.242,0,56.708-25.466,56.708-56.708C226.5,138.71,201.165,113.375,169.792,113.375z"/>
		</g>
	</g>
	<g>
		<g>
			<path style="fill:#231F20;" d="M339.786,170.083c0-75.521,1.754-111.137-28.485-141.377
				C278.182-4.411,232.859,0.221,169.923,0.221c-75.521,0-111.137-1.754-141.377,28.485C-2.208,59.461,0.061,96.633,0.061,170.083
				c0,71.292-2.618,110.273,28.485,141.377c30.754,30.754,67.927,28.485,141.377,28.485c70.335,0,110.029,2.862,141.377-28.485
				C344.418,278.342,339.786,233.019,339.786,170.083z M169.792,257.377c-48.176,0-87.294-39.118-87.294-87.294
				s39.118-87.294,87.294-87.294c48.176,0,87.294,39.118,87.294,87.294S217.968,257.377,169.792,257.377z M260.499,99.723
				c-11.237,0-20.347-9.11-20.347-20.347c0-11.237,9.109-20.347,20.347-20.347c11.237,0,20.347,9.11,20.347,20.347
				C280.846,90.614,271.736,99.723,260.499,99.723z"/>
		</g>
	</g>
</g>
<g>
</g>
<g>
</g>
<g>
</g>
<g>
</g>
<g>
</g>
<g>
</g>
<g>
</g>
<g>
</g>
<g>
</g>
<g>
</g>
<g>
</g>
<g>
</g>
<g>
</g>
<g>
</g>
<g>
</g>
</svg>
