<svg xmlns="http://www.w3.org/2000/svg" viewBox="0 0 340.014 340.014"><path d="M169.792 113.375c-31.374 0-56.708 25.466-56.708 56.708 0 31.373 25.466 56.708 56.708 56.708 31.242 0 56.708-25.466 56.708-56.708 0-31.373-25.335-56.708-56.708-56.708z" fill="#231f20"/><path d="M339.786 170.083c0-75.521 1.754-111.137-28.485-141.377C278.182-4.411 232.859.221 169.923.221 94.402.221 58.786-1.533 28.546 28.706-2.208 59.461.061 96.633.061 170.083c0 71.292-2.618 110.273 28.485 141.377 30.754 30.754 67.927 28.485 141.377 28.485 70.335 0 110.029 2.862 141.377-28.485 33.118-33.118 28.486-78.441 28.486-141.377zm-169.994 87.294c-48.176 0-87.294-39.118-87.294-87.294s39.118-87.294 87.294-87.294c48.176 0 87.294 39.118 87.294 87.294s-39.118 87.294-87.294 87.294zm90.707-157.654c-11.237 0-20.347-9.11-20.347-20.347 0-11.237 9.109-20.347 20.347-20.347 11.237 0 20.347 9.11 20.347 20.347 0 11.238-9.11 20.347-20.347 20.347z" fill="#231f20"/></svg>