<?xml version="1.0" encoding="iso-8859-1"?>
<!-- Generator: Adobe Illustrator 19.0.0, SVG Export Plug-In . SVG Version: 6.00 Build 0)  -->
<svg version="1.1" id="Layer_1" xmlns="http://www.w3.org/2000/svg" xmlns:xlink="http://www.w3.org/1999/xlink" x="0px" y="0px"
	 viewBox="-49 141 512 512" style="enable-background:new -49 141 512 512;" xml:space="preserve">
<g>
	<path d="M226,282h-69c-13.807,0-25,11.193-25,25v271c0,13.807,11.193,25,25,25h69c13.807,0,25-11.193,25-25V307
		C251,293.193,239.807,282,226,282z"/>
	<path d="M417,191H316c-13.807,0-25,11.193-25,25v362c0,13.807,11.193,25,25,25h101c13.807,0,25-11.193,25-25V216
		C442,202.193,430.807,191,417,191z M392,553h-51V241h51V553z"/>
	<path d="M67,397H-3c-13.807,0-25,11.193-25,25v156c0,13.807,11.193,25,25,25h70c13.807,0,25-11.193,25-25V422
		C92,408.193,80.807,397,67,397z"/>
</g>
</svg>
