<?xml version="1.0" encoding="iso-8859-1"?>
<!-- Generator: Adobe Illustrator 19.0.0, SVG Export Plug-In . SVG Version: 6.00 Build 0)  -->
<svg version="1.1" id="Layer_1" xmlns="http://www.w3.org/2000/svg" xmlns:xlink="http://www.w3.org/1999/xlink" x="0px" y="0px"
	 viewBox="0 0 512 512" style="enable-background:new 0 0 512 512;" xml:space="preserve">
<g>
	<g>
		<path d="M256,512c-68.38,0-132.668-26.629-181.02-74.98C26.629,388.667,0,324.38,0,256S26.629,123.333,74.98,74.98
			C123.332,26.629,187.62,0,256,0s132.668,26.629,181.02,74.98C485.371,123.333,512,187.62,512,256s-26.629,132.667-74.98,181.02
			C388.668,485.371,324.38,512,256,512z M256,50C142.411,50,50,142.411,50,256s92.411,206,206,206s206-92.411,206-206
			S369.589,50,256,50z"/>
	</g>
	<g>
		<path d="M256,512c-68.38,0-132.668-26.629-181.02-74.98C26.629,388.667,0,324.38,0,256S26.629,123.333,74.98,74.98
			C123.332,26.629,187.62,0,256,0s132.668,26.629,181.02,74.98C485.371,123.333,512,187.62,512,256s-26.629,132.667-74.98,181.02
			C388.668,485.371,324.38,512,256,512z M256,50C142.411,50,50,142.411,50,256s92.411,206,206,206s206-92.411,206-206
			S369.589,50,256,50z"/>
	</g>
	<g>
		<path d="M256,332c-13.807,0-25-11.193-25-25v-32c0-13.807,11.193-25,25-25c27.57,0,50-22.43,50-50s-22.43-50-50-50
			s-50,22.43-50,50c0,13.807-11.193,25-25,25s-25-11.193-25-25c0-55.14,44.859-100,100-100s100,44.86,100,100
			c0,46.511-31.917,85.708-75,96.836V307C281,320.807,269.807,332,256,332z"/>
	</g>
	<g>
		<path d="M256,412c-16.542,0-30-13.458-30-30s13.458-30,30-30s30,13.458,30,30S272.542,412,256,412z"/>
	</g>
</g>
<g>
</g>
<g>
</g>
<g>
</g>
<g>
</g>
<g>
</g>
<g>
</g>
<g>
</g>
<g>
</g>
<g>
</g>
<g>
</g>
<g>
</g>
<g>
</g>
<g>
</g>
<g>
</g>
<g>
</g>
</svg>
