<?xml version="1.0" encoding="iso-8859-1"?>
<!-- Generator: Adobe Illustrator 19.0.0, SVG Export Plug-In . SVG Version: 6.00 Build 0)  -->
<svg version="1.1" id="Layer_1" xmlns="http://www.w3.org/2000/svg" xmlns:xlink="http://www.w3.org/1999/xlink" x="0px" y="0px"
	 viewBox="0 0 470 470" style="enable-background:new 0 0 470 470;" xml:space="preserve">
<g>
	<path d="M254,120h-69c-13.807,0-25,11.193-25,25v271c0,13.807,11.193,25,25,25h69c13.807,0,25-11.193,25-25V145
		C279,131.193,267.807,120,254,120z"/>
	<path d="M445,29H344c-13.807,0-25,11.193-25,25v362c0,13.807,11.193,25,25,25h101c13.807,0,25-11.193,25-25V54
		C470,40.193,458.807,29,445,29z M420,391h-51V79h51V391z"/>
	<path d="M95,235H25c-13.807,0-25,11.193-25,25v156c0,13.807,11.193,25,25,25h70c13.807,0,25-11.193,25-25V260
		C120,246.193,108.807,235,95,235z"/>
</g>
<g>
</g>
<g>
</g>
<g>
</g>
<g>
</g>
<g>
</g>
<g>
</g>
<g>
</g>
<g>
</g>
<g>
</g>
<g>
</g>
<g>
</g>
<g>
</g>
<g>
</g>
<g>
</g>
<g>
</g>
</svg>
