<?xml version="1.0" encoding="utf-8"?>
<!-- Generator: Adobe Illustrator 22.0.1, SVG Export Plug-In . SVG Version: 6.00 Build 0)  -->
<svg version="1.1" id="Capa_1" xmlns="http://www.w3.org/2000/svg" xmlns:xlink="http://www.w3.org/1999/xlink" x="0px" y="0px"
	 viewBox="0 0 512 512" style="enable-background:new 0 0 512 512;" xml:space="preserve">
<g>
	<path d="M273.7,183.3c-7.1-7.1-17.9-9.3-27.2-5.4c-9.3,3.9-15.4,13-15.4,23.1v236c0,8.4,4.2,16.1,11.1,20.8c4.2,2.8,9,4.2,13.9,4.2
		c3.2,0,6.5-0.6,9.6-1.9l60.3-25l25.5,61.5c4,9.6,13.3,15.4,23.1,15.4c3.2,0,6.4-0.6,9.6-1.9c12.8-5.3,18.8-19.9,13.5-32.7
		L372.1,416l60.3-25c7.7-3.2,13.3-10,15-18.2s-0.9-16.7-6.8-22.6L273.7,183.3z M281,399.6V261.4l97.7,97.7L281,399.6z"/>
	<path d="M191.7,337.7c-25.5-12-47.2-31-62.6-54.8C113.3,258.5,105,230.2,105,201c0-83.3,67.7-151,151-151s151,67.7,151,151
		c0,18-3.1,35.6-9.3,52.3c-4.8,13,1.8,27.3,14.8,32.1c13,4.8,27.3-1.8,32.1-14.8c8.2-22.3,12.4-45.7,12.4-69.7
		C457,90.2,366.8,0,256,0S55,90.2,55,201c0,38.8,11.1,76.6,32.1,109c20.5,31.6,49.2,56.8,83.2,72.8c3.4,1.6,7.1,2.4,10.7,2.4
		c9.4,0,18.4-5.3,22.6-14.3C209.5,358.4,204.2,343.5,191.7,337.7z"/>
	<path d="M314.7,184.5c3.7,13.3,17.5,21.1,30.8,17.3c13.3-3.7,21.1-17.5,17.3-30.8c-13.4-47.7-57.3-81-106.9-81
		c-61.2,0-111,49.8-111,111c0,19,4.9,37.8,14.2,54.4c4.6,8.2,13.1,12.7,21.8,12.7c4.2,0,8.4-1,12.2-3.2c12-6.8,16.3-22,9.5-34
		c-5.1-9.1-7.8-19.4-7.8-29.8c0-33.6,27.4-61,61-61C283.2,140,307.4,158.3,314.7,184.5z"/>
</g>
</svg>
