<?xml version="1.0" encoding="utf-8"?>
<!-- Generator: Adobe Illustrator 24.0.1, SVG Export Plug-In . SVG Version: 6.00 Build 0)  -->
<svg version="1.1" id="Capa_1" xmlns="http://www.w3.org/2000/svg" xmlns:xlink="http://www.w3.org/1999/xlink" x="0px" y="0px"
	 viewBox="0 0 512 512" style="enable-background:new 0 0 512 512;" xml:space="preserve">
<g>
	<path d="M437,147H279v-35c0-2.8,2.2-5,5-5c30.3,0,55-24.7,55-55V35c0-13.8-11.2-25-25-25s-25,11.2-25,25v17c0,2.8-2.2,5-5,5
		c-30.3,0-55,24.7-55,55v35H75c-35.8,0-65,29.2-65,65v225c0,35.8,29.2,65,65,65h362c35.8,0,65-29.2,65-65V212
		C502,176.2,472.8,147,437,147z M452,437c0,8.3-6.7,15-15,15H75c-8.3,0-15-6.7-15-15V212c0-8.3,6.7-15,15-15h362c8.3,0,15,6.7,15,15
		V437z"/>
	<path d="M125,312h20c13.8,0,25-11.2,25-25s-11.2-25-25-25h-20c-13.8,0-25,11.2-25,25S111.2,312,125,312z"/>
	<path d="M235,312h20c13.8,0,25-11.2,25-25s-11.2-25-25-25h-20c-13.8,0-25,11.2-25,25S221.2,312,235,312z"/>
	<path d="M387,262h-42c-13.8,0-25,11.2-25,25s11.2,25,25,25h42c13.8,0,25-11.2,25-25S400.8,262,387,262z"/>
	<path d="M277,352H125c-13.8,0-25,11.2-25,25s11.2,25,25,25h152c13.8,0,25-11.2,25-25S290.8,352,277,352z"/>
	<path d="M387,352h-20c-13.8,0-25,11.2-25,25s11.2,25,25,25h20c13.8,0,25-11.2,25-25S400.8,352,387,352z"/>
</g>
</svg>
