<svg xmlns="http://www.w3.org/2000/svg" width="512" height="512" viewBox="0 0 511.968 511.968"><path d="M467.671 137.497a3286.857 3286.857 0 0 0-221.558-7.046c-2.898-10.426-7.489-16.731-7.848-17.213l-.003.002a7.742 7.742 0 0 0-.536-.646A2194.22 2194.22 0 0 0 136.603 11.471a7.5 7.5 0 0 0-9.315-.748c-17.172 11.56-31.74 26.128-43.3 43.301a7.5 7.5 0 0 0 .748 9.315c21.793 23.27 44.304 46.241 67.227 68.658a3296.581 3296.581 0 0 0-114.055 5.501 7.5 7.5 0 0 0-6.974 6.757c-7.785 80.001-10.299 161.144-7.47 241.172a7.5 7.5 0 0 0 14.99-.53c-2.73-77.252-.441-155.557 6.803-232.843a3277.743 3277.743 0 0 1 121.758-5.478c6.26 6.005 12.536 11.98 18.843 17.886.207.194.424.37.647.536l-.002.003c.709.528 13.979 10.198 34.445 10.197 4.69 0 9.764-.52 15.146-1.762l1.122 1.122c1.465 1.464 3.385 2.197 5.304 2.197s3.839-.732 5.304-2.197a7.5 7.5 0 0 0 0-10.606l-1.126-1.126c1.442-6.248 1.906-12.076 1.723-17.379a3269.39 3269.39 0 0 1 211.901 6.606c10.522 112.284 10.522 226.025 0 338.328-137.744 8.784-277.317 8.785-415.063 0a1803.577 1803.577 0 0 1-5.508-75.852c-.212-4.137-3.742-7.323-7.874-7.106a7.5 7.5 0 0 0-7.106 7.874 1818.045 1818.045 0 0 0 6.165 82.883 7.5 7.5 0 0 0 6.973 6.757c71.293 4.688 143.087 7.033 214.882 7.033s143.59-2.344 214.883-7.033a7.501 7.501 0 0 0 6.973-6.758c11.423-117.433 11.423-236.51 0-353.922a7.507 7.507 0 0 0-6.976-6.76zM99.855 57.528a143.747 143.747 0 0 1 30.937-30.936 2181.49 2181.49 0 0 1 91.015 90.967l-30.984 30.985a2181.538 2181.538 0 0 1-90.968-91.016zm103.663 99.532 26.802-26.803c2.441 6.456 4.592 16.442 1.888 28.688-12.256 2.707-22.236.559-28.69-1.885z"/><path d="M89.044 329.005a7.5 7.5 0 1 0 7.117 13.204l48.17-25.961v40.922l-43.187 91.258a7.5 7.5 0 0 0 13.558 6.416l37.128-78.455 37.127 78.455a7.5 7.5 0 0 0 6.784 4.294 7.461 7.461 0 0 0 3.203-.723 7.5 7.5 0 0 0 3.571-9.987l-43.186-91.258v-40.559l56.354 35.111a7.498 7.498 0 0 0 3.966 1.134l52.944.003v30.566l-30.762 65.002a7.5 7.5 0 0 0 13.558 6.416l24.703-52.2 24.702 52.2c1.771 3.745 6.243 5.343 9.987 3.571s5.343-6.243 3.571-9.987l-30.761-65.002v-24.781l37.162 23.153a7.459 7.459 0 0 0 3.959 1.135 7.501 7.501 0 0 0 3.973-13.867l-45.094-28.095v-8.694a38.943 38.943 0 0 0 1.639-.303c10.219-2.162 18.984-8.174 24.681-16.929 5.481-8.424 6.068-18.44 1.611-27.48-4.646-9.424-13.971-16.007-23.753-16.77-4.143-.314-7.739 2.765-8.061 6.895s2.765 7.738 6.895 8.061c4.47.348 9.185 3.823 11.466 8.448 1.477 2.996 2.549 7.625-.73 12.667a23.948 23.948 0 0 1-15.213 10.435c-6.3 1.332-12.739.133-18.136-3.378-5.396-3.512-9.103-8.915-10.436-15.213a23.943 23.943 0 0 1 3.378-18.136c3.693-5.676 10.096-10.361 17.126-12.532 4.11-1.27 12.011-2.746 18.728 1.625a7.5 7.5 0 1 0 8.182-12.572c-8.778-5.712-19.906-6.914-31.335-3.384-10.432 3.221-19.643 10.031-25.272 18.683-5.697 8.754-7.644 19.203-5.48 29.422 2.162 10.218 8.174 18.983 16.929 24.68a39.119 39.119 0 0 0 12.783 5.4v5.966l-50.799-.003-62.466-38.918v-16.21c9.73-1.99 17.994-7.867 23.304-16.81 6.961-11.721 7.543-26.479 1.482-37.597-1.98-3.637-6.536-4.977-10.174-2.996a7.499 7.499 0 0 0-2.996 10.175c3.522 6.463 3.036 15.609-1.21 22.759-2.268 3.82-7.61 10.228-17.906 10.228-20.168 0-36.576-16.408-36.576-36.576s16.408-36.576 36.576-36.576 36.575 16.408 36.575 36.576c0 4.142 3.357 7.5 7.5 7.5s7.5-3.358 7.5-7.5c0-28.439-23.137-51.576-51.575-51.576-28.439 0-51.576 23.137-51.576 51.576 0 25.891 19.18 47.381 44.076 51.025v16.272zM398.934 180.335c-26.511 0-48.079 21.568-48.079 48.079s21.568 48.079 48.079 48.079 48.079-21.568 48.079-48.079-21.568-48.079-48.079-48.079zm0 81.158c-18.24 0-33.079-14.839-33.079-33.079s14.839-33.079 33.079-33.079 33.079 14.839 33.079 33.079-14.838 33.079-33.079 33.079zM343.69 180.708l-29.778-9.757a7.497 7.497 0 0 0-9.462 4.792 7.498 7.498 0 0 0 4.792 9.462l29.778 9.757a7.49 7.49 0 0 0 2.336.375 7.502 7.502 0 0 0 2.334-14.629zM299.252 231.911a7.5 7.5 0 0 0 7.5 7.5h21.972c4.143 0 7.5-3.358 7.5-7.5s-3.357-7.5-7.5-7.5h-21.972a7.5 7.5 0 0 0-7.5 7.5zM348.204 324.224a7.463 7.463 0 0 0 3.153.699 7.503 7.503 0 0 0 6.808-4.344l12.967-27.934a7.5 7.5 0 0 0-3.645-9.96 7.498 7.498 0 0 0-9.961 3.645l-12.967 27.934a7.5 7.5 0 0 0 3.645 9.96zM435.688 323.15l-5.828-34.898c-.682-4.085-4.549-6.847-8.633-6.162a7.499 7.499 0 0 0-6.162 8.633l5.828 34.898a7.502 7.502 0 0 0 8.633 6.162 7.499 7.499 0 0 0 6.162-8.633z"/><path d="M124.732 227.52v.459c0 4.142 3.357 7.5 7.5 7.5s7.5-3.358 7.5-7.5v-.459c0-4.142-3.357-7.5-7.5-7.5s-7.5 3.358-7.5 7.5zM144.331 218.873v.459c0 4.142 3.357 7.5 7.5 7.5s7.5-3.358 7.5-7.5v-.459c0-4.142-3.357-7.5-7.5-7.5s-7.5 3.358-7.5 7.5zM263.642 290.526l-.258.38a7.5 7.5 0 0 0 12.416 8.416l.258-.38a7.5 7.5 0 0 0-12.416-8.416zM290.662 306.445a7.495 7.495 0 0 0 6.215-3.293l.258-.38a7.5 7.5 0 0 0-12.416-8.417l-.258.38a7.5 7.5 0 0 0 6.201 11.71zM64.552 447.911V435.09c0-4.142-3.357-7.5-7.5-7.5s-7.5 3.358-7.5 7.5v12.821c0 4.142 3.357 7.5 7.5 7.5s7.5-3.358 7.5-7.5zM84.366 447.911V435.09c0-4.142-3.357-7.5-7.5-7.5s-7.5 3.358-7.5 7.5v12.821c0 4.142 3.357 7.5 7.5 7.5s7.5-3.358 7.5-7.5zM341.455 427.589a7.5 7.5 0 0 0-7.5 7.5v12.821c0 4.142 3.357 7.5 7.5 7.5s7.5-3.358 7.5-7.5v-12.821a7.5 7.5 0 0 0-7.5-7.5zM353.769 435.089v12.821c0 4.142 3.357 7.5 7.5 7.5s7.5-3.358 7.5-7.5v-12.821c0-4.142-3.357-7.5-7.5-7.5s-7.5 3.358-7.5 7.5zM395.148 435.089v12.821c0 4.142 3.357 7.5 7.5 7.5s7.5-3.358 7.5-7.5v-12.821c0-4.142-3.357-7.5-7.5-7.5s-7.5 3.358-7.5 7.5zM422.463 427.589a7.5 7.5 0 0 0-7.5 7.5v12.821c0 4.142 3.357 7.5 7.5 7.5s7.5-3.358 7.5-7.5v-12.821a7.5 7.5 0 0 0-7.5-7.5zM438.274 435.089v12.821c0 4.142 3.357 7.5 7.5 7.5s7.5-3.358 7.5-7.5v-12.821c0-4.142-3.357-7.5-7.5-7.5s-7.5 3.358-7.5 7.5zM489.433 59.053c-4.687-20.155-13.121-38.955-25.068-55.877a7.498 7.498 0 0 0-8.974-2.613 2218.517 2218.517 0 0 0-46.046 19.496 7.499 7.499 0 0 0-3.869 9.875 7.5 7.5 0 0 0 9.875 3.87 2193.649 2193.649 0 0 1 40.097-17.042 143.619 143.619 0 0 1 17.909 39.917 2184.923 2184.923 0 0 1-117.393 52.708l-17.938-39.984a2155.433 2155.433 0 0 1 50.088-23.48 7.5 7.5 0 0 0-6.194-13.662 2163.412 2163.412 0 0 0-57.008 26.844 7.467 7.467 0 0 0-.728.411l-.002-.003c-.917.583-21.479 14.006-25.519 43.345l-1.452.651a7.5 7.5 0 0 0-3.772 9.913 7.502 7.502 0 0 0 6.847 4.432 7.48 7.48 0 0 0 3.066-.659l1.454-.652c13.629 9.134 26.98 11.249 36.355 11.249 7.548 0 12.521-1.357 12.986-1.489.266-.076.531-.164.793-.271a2198.259 2198.259 0 0 0 130.478-58.541 7.499 7.499 0 0 0 4.015-8.438zM325.552 78.241l15.515 34.582c-6.902-.015-17-1.558-27.482-8.44 1.829-12.416 7.387-20.979 11.967-26.142z"/></svg>