<svg xmlns="http://www.w3.org/2000/svg" width="512" height="512" viewBox="0 0 512.021 512.021"><path d="M120.735 269.022a7.499 7.499 0 0 0-7.5 7.5v39.588c0 4.143 3.357 7.5 7.5 7.5s7.5-3.357 7.5-7.5v-39.588a7.5 7.5 0 0 0-7.5-7.5zm186.834 54.588c4.143 0 7.5-3.357 7.5-7.5v-39.588c0-4.143-3.357-7.5-7.5-7.5s-7.5 3.357-7.5 7.5v39.588c0 4.143 3.357 7.5 7.5 7.5zM469.993 10.971A11.482 11.482 0 0 0 462.434.698a11.483 11.483 0 0 0-12.396 3.017c-37.286 40.442-69.919 58.434-97.001 53.457-13.068-2.4-23.57-9.737-34.689-17.506-15.322-10.704-31.178-21.771-54.447-20.435-15.054.866-29.802 6.844-43.884 17.775a44.84 44.84 0 0 0-5.865-.397c-24.267 0-44.01 19.482-44.01 43.43 0 2.77.265 5.504.785 8.186-10.341 2.9-20.371 6.826-29.875 11.747a7.501 7.501 0 0 0 6.898 13.32c18.055-9.351 38.207-14.758 58.701-15.825v109.82l-134.78 35.559v-5.687c0-40.179 17.604-78.464 48.299-105.039a7.499 7.499 0 0 0 .761-10.579 7.499 7.499 0 0 0-10.579-.761c-33.987 29.426-53.48 71.845-53.48 116.379v9.644c-8.559 1.437-14.999 8.75-14.999 17.439v64.148c-.066 8.475 6.469 16.136 14.999 17.439v63.519c0 6.367 3.259 12.161 8.706 15.492l136.414 83.732c7.502 4.599 16.821 4.597 24.324-.003l136.398-83.723c5.459-3.338 8.718-9.132 8.718-15.499v-63.52c8.373-1.831 15.06-8.46 14.999-17.438v-64.148c-.012-8.862-6.471-15.853-14.999-17.439v-9.644c0-31.049-9.331-59.988-25.365-84.256 3.633-.241 7.262-.62 10.868-1.17 32.343-4.94 61.759-22.085 82.829-48.275 21.093-26.218 31.828-59.064 30.229-92.486zm-284.43 73.871a28.049 28.049 0 0 1-.421-4.804c0-15.676 13.014-28.43 29.01-28.43s29.01 12.754 29.01 28.43a28 28 0 0 1-.419 4.792 159.932 159.932 0 0 0-28.591-2.572c-9.603 0-19.181.875-28.589 2.584zm185.868 179.4v64.148a2.502 2.502 0 0 1-1.862 2.417l-56.413 14.883a7.5 7.5 0 0 0 3.826 14.504l39.45-10.408v59.562c0 1.102-.576 2.111-1.554 2.709l-136.406 83.727c-2.624 1.611-6.017 1.609-8.637.003L73.414 412.05c-.966-.591-1.542-1.601-1.542-2.702v-59.562l137.819 36.361c2.92.768 6.005.768 8.925-.001l64.425-16.997a7.5 7.5 0 0 0-3.826-14.504l-64.422 16.996c-.419.111-.861.11-1.278.001l-154.78-40.835a2.5 2.5 0 0 1-1.862-2.417v-64.148c0-1.134.766-2.128 1.862-2.417 0 0 155.186-40.789 155.417-40.789s155.417 40.789 155.417 40.789a2.5 2.5 0 0 1 1.862 2.417zm-14.999-27.083v5.687l-134.78-35.559V97.453c74.98 3.847 134.78 65.038 134.78 139.706zm-1.76-100.254a113.467 113.467 0 0 1-19.642 1.266 157.896 157.896 0 0 0-77.652-49.962c.518-2.677.783-5.406.783-8.17 0-15.517-8.295-29.151-20.733-36.834 9.017-5.443 18.171-8.471 27.333-8.999 18.095-1.023 31.161 8.091 44.996 17.756 11.944 8.345 24.295 16.974 40.57 19.964 14.803 2.718 30.681.188 47.191-7.52 18.007-8.405 37.358-23.266 57.598-44.217-1.317 57.695-44.01 108.096-100.444 116.716zm-148.02 121.432v84.085c0 4.143 3.357 7.5 7.5 7.5s7.5-3.357 7.5-7.5v-84.085c0-4.143-3.357-7.5-7.5-7.5s-7.5 3.357-7.5 7.5zm54.208 81.886c4.143 0 7.5-3.357 7.5-7.5V267.33c0-4.143-3.357-7.5-7.5-7.5s-7.5 3.357-7.5 7.5v65.393c0 4.143 3.357 7.5 7.5 7.5zm-93.416-80.392a7.499 7.499 0 0 0-7.5 7.5v65.393c0 4.143 3.357 7.5 7.5 7.5s7.5-3.357 7.5-7.5v-65.393c0-4.143-3.357-7.5-7.5-7.5z"/></svg>