<?xml version="1.0" encoding="iso-8859-1"?>
<!-- Generator: Adobe Illustrator 19.0.0, SVG Export Plug-In . SVG Version: 6.00 Build 0)  -->
<svg version="1.1" id="Layer_1" xmlns="http://www.w3.org/2000/svg" xmlns:xlink="http://www.w3.org/1999/xlink" x="0px" y="0px"
	 viewBox="0 0 512 512" style="enable-background:new 0 0 512 512;" xml:space="preserve">
<path d="M509.072,406.76L462,318.265V102.5c0-35.841-29.159-65-65-65H115c-35.841,0-65,29.159-65,65v215.765L2.928,406.76
	C1.005,410.374,0,414.406,0,418.5v31c0,13.808,11.193,25,25,25h462c13.807,0,25-11.192,25-25v-31
	C512,414.406,510.995,410.374,509.072,406.76z M306,399.5H206c-13.807,0-25-11.192-25-25s11.193-25,25-25h100
	c13.807,0,25,11.192,25,25S319.807,399.5,306,399.5z M412,299.5H100v-197c0-8.271,6.729-15,15-15h282c8.271,0,15,6.729,15,15V299.5z
	"/>
<g>
</g>
<g>
</g>
<g>
</g>
<g>
</g>
<g>
</g>
<g>
</g>
<g>
</g>
<g>
</g>
<g>
</g>
<g>
</g>
<g>
</g>
<g>
</g>
<g>
</g>
<g>
</g>
<g>
</g>
</svg>
