<?xml version="1.0" encoding="iso-8859-1"?>
<!-- Generator: Adobe Illustrator 19.0.0, SVG Export Plug-In . SVG Version: 6.00 Build 0)  -->
<svg version="1.1" id="Layer_1" xmlns="http://www.w3.org/2000/svg" xmlns:xlink="http://www.w3.org/1999/xlink" x="0px" y="0px"
	 viewBox="-49 141 512 512" style="enable-background:new -49 141 512 512;" xml:space="preserve">
<path d="M460.072,547.76L413,459.265V243.5c0-35.841-29.159-65-65-65H66c-35.841,0-65,29.159-65,65v215.765l-47.072,88.495
	C-47.995,551.374-49,555.406-49,559.5v31c0,13.808,11.193,25,25,25h462c13.807,0,25-11.192,25-25v-31
	C463,555.406,461.995,551.374,460.072,547.76z M257,540.5H157c-13.807,0-25-11.192-25-25c0-13.808,11.193-25,25-25h100
	c13.807,0,25,11.192,25,25C282,529.308,270.807,540.5,257,540.5z M363,440.5H51v-197c0-8.271,6.729-15,15-15h282
	c8.271,0,15,6.729,15,15V440.5z"/>
</svg>
