<?xml version="1.0" encoding="iso-8859-1"?>
<!-- Generator: Adobe Illustrator 19.0.0, SVG Export Plug-In . SVG Version: 6.00 Build 0)  -->
<svg version="1.1" id="Layer_1" xmlns="http://www.w3.org/2000/svg" xmlns:xlink="http://www.w3.org/1999/xlink" x="0px" y="0px"
	 viewBox="0 0 512.009 512.009" style="enable-background:new 0 0 512.009 512.009;" xml:space="preserve">
<g>
	<g>
		<path d="M256.005,311.004c-4.228,0-8.455-1.071-12.261-3.213l-231-130c-7.856-4.422-12.725-12.73-12.739-21.746
			s4.825-17.34,12.668-21.787l231-131c7.648-4.338,17.016-4.338,24.664,0l231,131c7.843,4.447,12.683,12.771,12.668,21.787
			s-4.883,17.324-12.739,21.746l-231,130C264.46,309.933,260.232,311.004,256.005,311.004z M75.831,155.921l180.174,101.396
			l180.174-101.396L256.005,53.745L75.831,155.921z"/>
	</g>
	<g>
		<path d="M256.005,412.004c-4.228,0-8.455-1.071-12.261-3.213l-231-130c-12.033-6.771-16.298-22.016-9.526-34.048
			c6.772-12.035,22.016-16.298,34.048-9.526l218.739,123.101l218.739-123.101c12.031-6.771,27.275-2.506,34.048,9.526
			c6.771,12.032,2.507,27.276-9.526,34.048l-231,130C264.46,410.933,260.232,412.004,256.005,412.004z"/>
	</g>
	<g>
		<path d="M256.005,512.004c-4.228,0-8.455-1.071-12.261-3.213l-231-130c-12.033-6.771-16.298-22.016-9.526-34.048
			c6.772-12.035,22.016-16.298,34.048-9.526l218.739,123.101l218.739-123.101c12.031-6.772,27.275-2.507,34.048,9.526
			c6.771,12.032,2.507,27.276-9.526,34.048l-231,130C264.46,510.933,260.232,512.004,256.005,512.004z"/>
	</g>
</g>
<g>
</g>
<g>
</g>
<g>
</g>
<g>
</g>
<g>
</g>
<g>
</g>
<g>
</g>
<g>
</g>
<g>
</g>
<g>
</g>
<g>
</g>
<g>
</g>
<g>
</g>
<g>
</g>
<g>
</g>
</svg>
