<?xml version="1.0" encoding="iso-8859-1"?>
<!-- Generator: Adobe Illustrator 19.0.0, SVG Export Plug-In . SVG Version: 6.00 Build 0)  -->
<svg version="1.1" id="Layer_1" xmlns="http://www.w3.org/2000/svg" xmlns:xlink="http://www.w3.org/1999/xlink" x="0px" y="0px"
	 viewBox="-49 141 512 512" style="enable-background:new -49 141 512 512;" xml:space="preserve">
<g>
	<g>
		<path d="M207,452c-4.228,0-8.455-1.071-12.261-3.213l-231-130c-7.856-4.422-12.725-12.73-12.739-21.746
			c-0.014-9.016,4.825-17.34,12.668-21.787l231-131c7.648-4.338,17.016-4.338,24.664,0l231,131
			c7.843,4.447,12.683,12.771,12.668,21.787c-0.015,9.016-4.883,17.324-12.739,21.746l-231,130C215.455,450.928,211.227,452,207,452
			z M26.826,296.917L207,398.313l180.174-101.396L207,194.74L26.826,296.917z"/>
	</g>
	<g>
		<path d="M207,553c-4.228,0-8.455-1.071-12.261-3.213l-231-130c-12.033-6.771-16.298-22.016-9.526-34.048
			c6.772-12.035,22.016-16.298,34.048-9.526L207,499.314l218.739-123.101c12.031-6.771,27.275-2.506,34.048,9.526
			c6.771,12.032,2.507,27.276-9.526,34.048l-231,130C215.455,551.928,211.227,553,207,553z"/>
	</g>
	<g>
		<path d="M207,653c-4.228,0-8.455-1.071-12.261-3.213l-231-130c-12.033-6.771-16.298-22.016-9.526-34.048
			c6.772-12.035,22.016-16.298,34.048-9.526L207,599.314l218.739-123.101c12.031-6.772,27.275-2.507,34.048,9.526
			c6.771,12.032,2.507,27.276-9.526,34.048l-231,130C215.455,651.928,211.227,653,207,653z"/>
	</g>
</g>
</svg>
