<svg xmlns="http://www.w3.org/2000/svg" viewBox="-49 141 512 512"><path d="M207 452a24.983 24.983 0 0 1-12.261-3.213l-231-130a25 25 0 0 1-.071-43.533l231-131a24.998 24.998 0 0 1 24.664 0l231 131a25.002 25.002 0 0 1-.071 43.533l-231 130A24.997 24.997 0 0 1 207 452zM26.826 296.917L207 398.313l180.174-101.396L207 194.74 26.826 296.917z"/><path d="M207 553a24.983 24.983 0 0 1-12.261-3.213l-231-130c-12.033-6.771-16.298-22.016-9.526-34.048 6.772-12.035 22.016-16.298 34.048-9.526L207 499.314l218.739-123.101c12.031-6.771 27.275-2.506 34.048 9.526 6.771 12.032 2.507 27.276-9.526 34.048l-231 130A24.997 24.997 0 0 1 207 553z"/><path d="M207 653a24.983 24.983 0 0 1-12.261-3.213l-231-130c-12.033-6.771-16.298-22.016-9.526-34.048 6.772-12.035 22.016-16.298 34.048-9.526L207 599.314l218.739-123.101c12.031-6.772 27.275-2.507 34.048 9.526 6.771 12.032 2.507 27.276-9.526 34.048l-231 130A24.997 24.997 0 0 1 207 653z"/></svg>