<?xml version="1.0" encoding="iso-8859-1"?>
<!-- Generator: Adobe Illustrator 19.0.0, SVG Export Plug-In . SVG Version: 6.00 Build 0)  -->
<svg version="1.1" id="Layer_1" xmlns="http://www.w3.org/2000/svg" xmlns:xlink="http://www.w3.org/1999/xlink" x="0px" y="0px"
	 viewBox="-49 141 512 512" style="enable-background:new -49 141 512 512;" xml:space="preserve">
<path id="XMLID_17_" d="M337,372H137.356l42.175-42.175c9.763-9.763,9.763-25.592,0-35.355s-25.592-9.762-35.355,0l-84.854,84.852
	C54.634,384.009,52,390.368,52,397l0,0c0,6.63,2.634,12.989,7.322,17.678l84.853,84.853c9.763,9.762,25.592,9.763,35.355,0
	s9.763-25.592,0-35.355L137.355,422H337c13.807,0,25-11.193,25-25l0,0C362,383.191,350.807,372,337,372z"/>
</svg>
