<svg xmlns="http://www.w3.org/2000/svg" xml:space="preserve" style="enable-background:new 0 0 512 512" viewBox="0 0 512 512"><path d="M437.02 74.98C388.668 26.629 324.38 0 256 0S123.332 26.629 74.98 74.98C26.629 123.333 0 187.62 0 256s26.629 132.667 74.98 181.02C123.332 485.371 187.62 512 256 512s132.668-26.629 181.02-74.98C485.371 388.667 512 324.38 512 256s-26.629-132.667-74.98-181.02zm-10.607 351.433C380.894 471.932 320.374 497 256 497s-124.894-25.068-170.413-70.587C40.068 380.894 15 320.374 15 256S40.068 131.106 85.587 85.587C131.106 40.068 191.626 15 256 15s124.894 25.068 170.413 70.587C471.932 131.106 497 191.626 497 256s-25.068 124.894-70.587 170.413z"/><path d="M410.852 128.18a7.5 7.5 0 1 0-11.557 9.562 184.814 184.814 0 0 1 34.606 64.618H254.995l102.199-102.2a185.448 185.448 0 0 1 17.064 12.545 7.501 7.501 0 0 0 9.563-11.558c-38.319-31.703-86.913-47.942-136.782-45.727-50.209 2.23-97.446 23.044-133.01 58.607-35.564 35.563-56.378 82.803-58.608 133.011-2.216 49.886 14.024 98.463 45.728 136.782a7.48 7.48 0 0 0 5.782 2.719 7.5 7.5 0 0 0 5.774-12.281 184.814 184.814 0 0 1-34.606-64.618h178.906l-102.199 102.2a185.459 185.459 0 0 1-17.064-12.546 7.501 7.501 0 0 0-9.563 11.558c36.009 29.791 81.072 45.927 127.771 45.927 2.997 0 6.004-.066 9.012-.2 50.209-2.23 97.446-23.044 133.01-58.607s56.377-82.801 58.607-133.009c2.216-49.887-14.024-98.464-45.727-136.783zM217.359 74.266a186.426 186.426 0 0 1 30.344-3.86c33.8-1.496 66.929 6.16 96.164 21.867L217.359 218.781V74.266zm-92.723 50.369c21.911-21.911 48.613-37.761 77.724-46.523v178.893L100.17 154.814a186.3 186.3 0 0 1 24.466-30.179zM74.254 294.641a186.632 186.632 0 0 1-3.848-46.937c1.249-28.125 8.811-55.237 21.879-79.56l126.496 126.497H74.254zm220.387 143.092a186.317 186.317 0 0 1-30.344 3.861c-33.8 1.498-66.929-6.158-96.164-21.867l126.508-126.508v144.514zm0-165.726-22.635 22.635h-32.011v-.001l-22.635-22.635v-32.01l22.635-22.635h32.01l22.636 22.636v32.01zm92.723 115.358c-21.911 21.911-48.613 37.761-77.724 46.523V254.995l102.191 102.19a186.367 186.367 0 0 1-24.467 30.18zm54.23-123.069c-1.249 28.124-8.811 55.236-21.878 79.559L293.219 217.359h144.527a186.632 186.632 0 0 1 3.848 46.937z"/></svg>