<?xml version="1.0" encoding="iso-8859-1"?>
<!-- Generator: Adobe Illustrator 19.0.0, SVG Export Plug-In . SVG Version: 6.00 Build 0)  -->
<svg version="1.1" id="Layer_1" xmlns="http://www.w3.org/2000/svg" xmlns:xlink="http://www.w3.org/1999/xlink" x="0px" y="0px"
	 viewBox="0 0 512 512" style="enable-background:new 0 0 512 512;" xml:space="preserve">
<g>
	<g>
		<path d="M437.02,74.98C388.668,26.629,324.38,0,256,0S123.332,26.629,74.98,74.98C26.629,123.333,0,187.62,0,256
			s26.629,132.667,74.98,181.02C123.332,485.371,187.62,512,256,512s132.668-26.629,181.02-74.98
			C485.371,388.667,512,324.38,512,256S485.371,123.333,437.02,74.98z M426.413,426.413C380.894,471.932,320.374,497,256,497
			s-124.894-25.068-170.413-70.587C40.068,380.894,15,320.374,15,256S40.068,131.106,85.587,85.587
			C131.106,40.068,191.626,15,256,15s124.894,25.068,170.413,70.587C471.932,131.106,497,191.626,497,256
			S471.932,380.894,426.413,426.413z"/>
	</g>
</g>
<g>
	<g>
		<path d="M410.852,128.18c-2.64-3.193-7.368-3.638-10.56-0.998c-3.191,2.641-3.638,7.368-0.997,10.56
			c15.878,19.192,27.553,41.172,34.606,64.618H254.995l102.199-102.2c5.893,3.835,11.592,8.018,17.064,12.545
			c3.192,2.639,7.92,2.194,10.56-0.998c2.641-3.191,2.194-7.919-0.997-10.56c-38.319-31.703-86.913-47.942-136.782-45.727
			c-50.209,2.23-97.446,23.044-133.01,58.607C78.465,149.59,57.651,196.83,55.421,247.038
			c-2.216,49.886,14.024,98.463,45.728,136.782c1.482,1.793,3.624,2.719,5.782,2.719c1.685,0,3.378-0.564,4.777-1.721
			c3.191-2.641,3.638-7.368,0.997-10.56c-15.878-19.192-27.553-41.172-34.606-64.618h178.906l-102.199,102.2
			c-5.893-3.835-11.592-8.019-17.064-12.546c-3.191-2.639-7.919-2.194-10.56,0.998c-2.641,3.191-2.194,7.919,0.997,10.56
			c36.009,29.791,81.072,45.927,127.771,45.927c2.997,0,6.004-0.066,9.012-0.2c50.209-2.23,97.446-23.044,133.01-58.607
			s56.377-82.801,58.607-133.009C458.795,215.076,442.555,166.499,410.852,128.18z M217.359,74.266
			c9.922-2.101,20.066-3.403,30.344-3.86c33.8-1.496,66.929,6.16,96.164,21.867L217.359,218.781V74.266z M124.636,124.635
			c21.911-21.911,48.613-37.761,77.724-46.523v178.893L100.17,154.814C107.19,144.018,115.372,133.899,124.636,124.635z
			 M74.254,294.641c-3.233-15.276-4.554-31.034-3.848-46.937c1.249-28.125,8.811-55.237,21.879-79.56l126.496,126.497H74.254z
			 M294.641,437.733c-9.922,2.102-20.066,3.404-30.344,3.861c-33.8,1.498-66.929-6.158-96.164-21.867l126.508-126.508V437.733z
			 M294.641,272.007l-22.635,22.635h-32.011v-0.001l-22.635-22.635v-32.01l22.635-22.635h32.01l22.636,22.636V272.007z
			 M387.364,387.365c-21.911,21.911-48.613,37.761-77.724,46.523V254.995l102.191,102.19
			C404.81,367.981,396.628,378.101,387.364,387.365z M441.594,264.296c-1.249,28.124-8.811,55.236-21.878,79.559L293.219,217.359
			h144.527C440.979,232.635,442.3,248.393,441.594,264.296z"/>
	</g>
</g>
<g>
</g>
<g>
</g>
<g>
</g>
<g>
</g>
<g>
</g>
<g>
</g>
<g>
</g>
<g>
</g>
<g>
</g>
<g>
</g>
<g>
</g>
<g>
</g>
<g>
</g>
<g>
</g>
<g>
</g>
</svg>
