<?xml version="1.0" encoding="iso-8859-1"?>
<!-- Generator: Adobe Illustrator 21.0.0, SVG Export Plug-In . SVG Version: 6.00 Build 0)  -->
<svg xmlns="http://www.w3.org/2000/svg" xmlns:xlink="http://www.w3.org/1999/xlink" version="1.1" id="Capa_1" x="0px" y="0px" viewBox="0 0 512 512" style="enable-background:new 0 0 512 512;" xml:space="preserve" width="512" height="512">
<g>
	<circle cx="209.546" cy="209.546" r="10.099"/>
	<circle cx="300.434" cy="209.546" r="10.099"/>
	<path d="M504.426,401.378c4.183,0,7.574-3.391,7.574-7.574v-16.621c0-70.997-57.76-128.757-128.757-128.757h-1.515v-33.033   c4.936-0.786,11.723-2.432,18.651-5.884c12.352-6.153,27.526-19.238,29.778-46.623c0.002-0.022,0.004-0.044,0.006-0.065   c0.004-0.046,0.009-0.09,0.013-0.136c0.007-0.091,0.004-0.181,0.008-0.271c0.005-0.11,0.017-0.219,0.017-0.33v-31.306   c0-4.183-3.391-7.574-7.574-7.574h-40.899V90.383V7.574c0-4.183-3.391-7.574-7.574-7.574H137.846c-4.183,0-7.574,3.391-7.574,7.574   v22.722c0,4.183,3.391,7.574,7.574,7.574c4.183,0,7.574-3.391,7.574-7.574V15.148h221.16v67.661H145.42V65.725   c0-4.183-3.391-7.574-7.574-7.574c-4.183,0-7.574,3.391-7.574,7.574v24.657v32.821H89.373c-4.183,0-7.574,3.391-7.574,7.574v31.306   c0,0.112,0.012,0.22,0.017,0.33c0.004,0.09,0,0.18,0.008,0.271c0.004,0.046,0.009,0.09,0.013,0.136   c0.002,0.022,0.004,0.044,0.006,0.065c2.253,27.384,17.426,40.469,29.778,46.623c6.929,3.452,13.715,5.099,18.651,5.884v33.033   h-1.515C57.76,248.426,0,306.186,0,377.183v127.243C0,508.609,3.391,512,7.574,512h123.203h86.848h76.75h86.848h123.203   c4.183,0,7.574-3.391,7.574-7.574v-74.982c0-4.183-3.391-7.574-7.574-7.574c-4.183,0-7.574,3.391-7.574,7.574v67.408h-79.779   v-34.84c0-4.183-3.391-7.574-7.574-7.574c-4.183,0-7.574,3.391-7.574,7.574v34.84h-14.043l-6.81-52.773l38.333-46.958   c1.572-1.927,2.099-4.502,1.409-6.892l-25.012-86.58c3.822-4.759,6.122-10.789,6.122-17.354c0-9.249-4.556-17.44-11.529-22.49   c59.324,3.704,106.456,53.136,106.456,113.378v16.621C496.852,397.987,500.243,401.378,504.426,401.378z M374.102,298.919   c-3.173,0-6.01,1.978-7.107,4.956c-1.097,2.977-0.221,6.323,2.194,8.382c2.566,2.187,4.127,5.243,4.395,8.604   c0.268,3.361-0.789,6.625-2.977,9.191c-2.27,2.663-5.398,4.33-8.809,4.696c-3.323,0.353-6.516-0.608-8.987-2.714   c-3.04-2.59-7.569-2.376-10.35,0.491c-2.781,2.867-2.857,7.401-0.175,10.36c2.237,2.467,3.361,5.674,3.167,9.029   c-0.196,3.384-1.697,6.509-4.226,8.802c-2.523,2.286-5.811,3.467-9.241,3.321c-3.415-0.143-6.531-1.585-8.773-4.059   c-2.459-2.713-6.508-3.279-9.616-1.342c-3.108,1.936-4.386,5.819-3.035,9.222c1.23,3.099,0.631,7.689-1.525,11.695   c-1.856,3.448-4.517,5.83-7.118,6.372c-8.459,1.764-15.94-4.629-18.681-11.537c-1.341-3.378-4.892-5.327-8.462-4.645   c-3.57,0.682-6.152,3.805-6.152,7.439c0,6.961-5.663,12.623-12.623,12.623c-6.961,0-12.623-5.663-12.623-12.623   c0-3.635-2.582-6.757-6.152-7.439c-3.568-0.681-7.121,1.266-8.462,4.645c-2.742,6.908-10.221,13.301-18.681,11.537   c-2.601-0.542-5.262-2.924-7.118-6.372c-2.156-4.006-2.755-8.597-1.525-11.695c1.351-3.403,0.073-7.286-3.036-9.222   c-3.107-1.937-7.157-1.372-9.616,1.342c-2.243,2.474-5.358,3.916-8.773,4.059c-1.048,0.047-2.077-0.046-3.078-0.241   c-0.294-0.087-0.595-0.152-0.899-0.202c-1.943-0.526-3.742-1.498-5.265-2.878c-2.529-2.292-4.03-5.418-4.226-8.802   c-0.194-3.355,0.93-6.562,3.167-9.029c2.682-2.959,2.606-7.493-0.175-10.36c-2.781-2.867-7.31-3.082-10.35-0.491   c-2.471,2.106-5.663,3.069-8.987,2.714c-3.411-0.365-6.539-2.033-8.809-4.696c-2.187-2.566-3.245-5.83-2.977-9.191   c0.268-3.361,1.828-6.417,4.394-8.604c2.415-2.059,3.265-5.405,2.168-8.382c-1.097-2.978-3.96-4.956-7.133-4.956   c-6.961,0-12.623-5.663-12.623-12.623c0-6.961,5.663-12.623,12.623-12.623c4.183,0,7.574-3.391,7.574-7.574v-57.562v-38.88h16.158   v92.402c0,2.009,0.798,3.935,2.218,5.356l60.592,60.592c1.42,1.421,3.347,2.218,5.356,2.218h52.513   c2.009,0,3.935-0.798,5.356-2.218l60.592-60.592c1.421-1.42,2.218-3.347,2.218-5.356v-92.402h16.158v38.88v57.562   c0,4.183,3.391,7.574,7.574,7.574c6.961,0,12.623,5.663,12.623,12.623C386.777,293.256,381.114,298.919,374.102,298.919z    M223.148,496.852l-37.971-118.237c0.426-0.088,0.85-0.181,1.27-0.288c0.656,2.855,1.719,5.695,3.178,8.407   c4.008,7.447,10.338,12.558,17.366,14.022c10.213,2.126,19.547-1.458,26.384-7.484c5.04,7.067,13.303,11.682,22.624,11.682   c9.321,0,17.584-4.616,22.624-11.682c6.838,6.025,16.175,9.61,26.385,7.483c7.028-1.464,13.358-6.575,17.366-14.022   c1.46-2.712,2.523-5.553,3.178-8.407c0.42,0.107,0.844,0.201,1.27,0.288l-37.971,118.237H223.148z M335.274,169.657v89.265   l-56.155,56.155h-46.239l-56.155-56.155v-89.265H335.274z M381.728,200.043v-30.386h32.103   C408.783,191.3,391.79,197.981,381.728,200.043z M366.58,97.957v25.247H145.42V97.957H366.58z M96.947,138.351h40.899h236.308   h40.899v16.158h-40.899H137.846H96.947V138.351z M98.17,169.657h32.103v30.386C120.21,197.981,103.217,191.3,98.17,169.657z    M15.148,377.183c0-60.241,47.132-109.673,106.456-113.378c-6.973,5.05-11.529,13.241-11.529,22.49   c0,6.563,2.298,12.592,6.123,17.35l-25.013,86.583c-0.69,2.389-0.163,4.965,1.409,6.892l38.333,46.958l-6.81,52.773h-14.043v-34.84   c0-4.183-3.391-7.574-7.574-7.574s-7.574,3.391-7.574,7.574v34.84H15.148V377.183z M139.391,496.852l6.977-54.068   c0.266-2.064-0.328-4.147-1.644-5.759l-37.883-46.407l17.555-60.768c1.092,3.64,2.931,7.049,5.47,10.028   c4.794,5.625,11.444,9.152,18.724,9.931c0.947,0.102,1.89,0.155,2.826,0.161c-0.348,8.011,2.756,16.143,9.183,21.968   c2.444,2.215,5.211,3.951,8.185,5.17l38.454,119.743H139.391z M367.277,437.025c-1.316,1.612-1.911,3.695-1.645,5.759l6.977,54.068   h-67.847l38.455-119.745c2.974-1.219,5.741-2.953,8.184-5.168c6.427-5.825,9.531-13.958,9.183-21.968   c0.936-0.006,1.88-0.059,2.826-0.161c7.28-0.779,13.93-4.306,18.724-9.93c2.54-2.979,4.379-6.389,5.471-10.029l17.555,60.768   L367.277,437.025z"/>
	<path d="M256,299.929c15.87,0,28.781-12.911,28.781-28.781c0-4.183-3.391-7.574-7.574-7.574c-4.183,0-7.574,3.391-7.574,7.574   c0,7.517-6.116,13.633-13.633,13.633c-7.517,0-13.633-6.116-13.633-13.633c0-4.183-3.391-7.574-7.574-7.574   c-4.183,0-7.574,3.391-7.574,7.574C227.219,287.018,240.13,299.929,256,299.929z"/>
	<path d="M248.931,247.416H256c4.183,0,7.574-3.391,7.574-7.574c0-2.986-1.728-5.568-4.238-6.802l3.813-10.893   c1.382-3.948-0.699-8.269-4.647-9.651c-3.949-1.381-8.269,0.699-9.651,4.647l-7.069,20.197c-0.811,2.317-0.449,4.883,0.972,6.885   C244.174,246.227,246.476,247.416,248.931,247.416z"/>
</g>















</svg>
