<svg xmlns="http://www.w3.org/2000/svg" xml:space="preserve" width="512" height="512" style="enable-background:new 0 0 512 512"><circle cx="209.546" cy="209.546" r="10.099"/><circle cx="300.434" cy="209.546" r="10.099"/><path d="M504.426 401.378a7.574 7.574 0 0 0 7.574-7.574v-16.621c0-70.997-57.76-128.757-128.757-128.757h-1.515v-33.033c4.936-.786 11.723-2.432 18.651-5.884 12.352-6.153 27.526-19.238 29.778-46.623l.006-.065.013-.136c.007-.091.004-.181.008-.271.005-.11.017-.219.017-.33v-31.306a7.574 7.574 0 0 0-7.574-7.574h-40.899V7.574A7.574 7.574 0 0 0 374.154 0H137.846a7.574 7.574 0 0 0-7.574 7.574v22.722a7.574 7.574 0 0 0 15.148 0V15.148h221.16v67.661H145.42V65.725a7.574 7.574 0 0 0-15.148 0V123.203H89.373a7.574 7.574 0 0 0-7.574 7.574v31.306c0 .112.012.22.017.33.004.09 0 .18.008.271l.013.136.006.065c2.253 27.384 17.426 40.469 29.778 46.623 6.929 3.452 13.715 5.099 18.651 5.884v33.033h-1.515C57.76 248.426 0 306.186 0 377.183v127.243A7.574 7.574 0 0 0 7.574 512h496.852a7.574 7.574 0 0 0 7.574-7.574v-74.982a7.574 7.574 0 0 0-15.148 0v67.408h-79.779v-34.84a7.574 7.574 0 0 0-15.148 0v34.84h-14.043l-6.81-52.773 38.333-46.958a7.577 7.577 0 0 0 1.409-6.892l-25.012-86.58c3.822-4.759 6.122-10.789 6.122-17.354 0-9.249-4.556-17.44-11.529-22.49 59.324 3.704 106.456 53.136 106.456 113.378v16.621a7.575 7.575 0 0 0 7.575 7.574zM374.102 298.919a7.574 7.574 0 0 0-4.913 13.338 12.541 12.541 0 0 1 4.395 8.604 12.536 12.536 0 0 1-2.977 9.191c-2.27 2.663-5.398 4.33-8.809 4.696-3.323.353-6.516-.608-8.987-2.714a7.575 7.575 0 0 0-10.525 10.851c2.237 2.467 3.361 5.674 3.167 9.029-.196 3.384-1.697 6.509-4.226 8.802-2.523 2.286-5.811 3.467-9.241 3.321-3.415-.143-6.531-1.585-8.773-4.059a7.573 7.573 0 0 0-12.651 7.88c1.23 3.099.631 7.689-1.525 11.695-1.856 3.448-4.517 5.83-7.118 6.372-8.459 1.764-15.94-4.629-18.681-11.537a7.575 7.575 0 0 0-14.614 2.794c0 6.961-5.663 12.623-12.623 12.623-6.961 0-12.623-5.663-12.623-12.623a7.573 7.573 0 0 0-14.614-2.794c-2.742 6.908-10.221 13.301-18.681 11.537-2.601-.542-5.262-2.924-7.118-6.372-2.156-4.006-2.755-8.597-1.525-11.695a7.573 7.573 0 0 0-3.036-9.222 7.572 7.572 0 0 0-9.616 1.342c-2.243 2.474-5.358 3.916-8.773 4.059a13.018 13.018 0 0 1-3.078-.241 7.398 7.398 0 0 0-.899-.202 12.8 12.8 0 0 1-5.265-2.878 12.82 12.82 0 0 1-4.226-8.802c-.194-3.355.93-6.562 3.167-9.029a7.574 7.574 0 0 0-10.525-10.851c-2.471 2.106-5.663 3.069-8.987 2.714-3.411-.365-6.539-2.033-8.809-4.696a12.54 12.54 0 0 1-2.977-9.191 12.54 12.54 0 0 1 4.394-8.604c2.415-2.059 3.265-5.405 2.168-8.382-1.097-2.978-3.96-4.956-7.133-4.956-6.961 0-12.623-5.663-12.623-12.623 0-6.961 5.663-12.623 12.623-12.623a7.574 7.574 0 0 0 7.574-7.574V169.657h16.158v92.402c0 2.009.798 3.935 2.218 5.356l60.592 60.592a7.57 7.57 0 0 0 5.356 2.218h52.513a7.577 7.577 0 0 0 5.356-2.218l60.592-60.592a7.57 7.57 0 0 0 2.218-5.356v-92.402h16.158V266.099a7.574 7.574 0 0 0 7.574 7.574c6.961 0 12.623 5.663 12.623 12.623 0 6.96-5.663 12.623-12.675 12.623zM223.148 496.852l-37.971-118.237c.426-.088.85-.181 1.27-.288a33.731 33.731 0 0 0 3.178 8.407c4.008 7.447 10.338 12.558 17.366 14.022 10.213 2.126 19.547-1.458 26.384-7.484 5.04 7.067 13.303 11.682 22.624 11.682 9.321 0 17.584-4.616 22.624-11.682 6.838 6.025 16.175 9.61 26.385 7.483 7.028-1.464 13.358-6.575 17.366-14.022a33.668 33.668 0 0 0 3.178-8.407c.42.107.844.201 1.27.288l-37.971 118.237h-65.703zm112.126-327.195v89.265l-56.155 56.155H232.88l-56.155-56.155v-89.265h158.549zm46.454 30.386v-30.386h32.103c-5.048 21.643-22.041 28.324-32.103 30.386zM366.58 97.957v25.247H145.42V97.957h221.16zM96.947 138.351h318.106v16.158H96.947v-16.158zm1.223 31.306h32.103v30.386c-10.063-2.062-27.056-8.743-32.103-30.386zM15.148 377.183c0-60.241 47.132-109.673 106.456-113.378-6.973 5.05-11.529 13.241-11.529 22.49 0 6.563 2.298 12.592 6.123 17.35l-25.013 86.583a7.578 7.578 0 0 0 1.409 6.892l38.333 46.958-6.81 52.773h-14.043v-34.84a7.574 7.574 0 0 0-15.148 0v34.84H15.148V377.183zm124.243 119.669 6.977-54.068a7.575 7.575 0 0 0-1.644-5.759l-37.883-46.407 17.555-60.768a27.705 27.705 0 0 0 5.47 10.028c4.794 5.625 11.444 9.152 18.724 9.931.947.102 1.89.155 2.826.161a27.96 27.96 0 0 0 9.183 21.968 27.977 27.977 0 0 0 8.185 5.17l38.454 119.743h-67.847zm227.886-59.827a7.576 7.576 0 0 0-1.645 5.759l6.977 54.068h-67.847l38.455-119.745a27.952 27.952 0 0 0 8.184-5.168 27.962 27.962 0 0 0 9.183-21.968c.936-.006 1.88-.059 2.826-.161 7.28-.779 13.93-4.306 18.724-9.93a27.697 27.697 0 0 0 5.471-10.029l17.555 60.768-37.883 46.406z"/><path d="M256 299.929c15.87 0 28.781-12.911 28.781-28.781a7.574 7.574 0 0 0-15.148 0c0 7.517-6.116 13.633-13.633 13.633-7.517 0-13.633-6.116-13.633-13.633a7.574 7.574 0 0 0-15.148 0c0 15.87 12.911 28.781 28.781 28.781zM248.931 247.416H256a7.574 7.574 0 0 0 3.336-14.376l3.813-10.893a7.574 7.574 0 0 0-14.298-5.004l-7.069 20.197a7.572 7.572 0 0 0 7.149 10.076z"/></svg>