<?xml version="1.0" encoding="utf-8"?>
<!-- Generator: Adobe Illustrator 24.0.1, SVG Export Plug-In . SVG Version: 6.00 Build 0)  -->
<svg version="1.1" id="Capa_1" xmlns="http://www.w3.org/2000/svg" xmlns:xlink="http://www.w3.org/1999/xlink" x="0px" y="0px"
	 viewBox="0 0 512 512" style="enable-background:new 0 0 512 512;" xml:space="preserve">
<g>
	<path d="M275,239c-47.7,0-86.5,38.8-86.5,86.5c0,29.1,14.4,54.9,36.5,70.6l0,104.1c0.2,3,1.4,5.9,3.7,8.1c0,0,0.1,0.1,0.1,0.1
		c4,3.9,10.1,4.7,14.9,2l31-18.1l31,18.1c4.9,2.7,10.9,1.9,14.9-2c2.3-2.2,4.2-5.2,4.4-8.3V396c22.1-15.7,36.5-41.5,36.5-70.5
		C361.5,277.8,322.7,239,275,239z M275,289c20.1,0,36.5,16.4,36.5,36.5S295.1,362,275,362s-36.5-16.4-36.5-36.5S254.9,289,275,289z"
		/>
	<path d="M462,123.7c0,0,0-0.1,0-0.1c0-0.5-0.1-1-0.1-1.5c0-0.1,0-0.3-0.1-0.4c-0.1-0.5-0.1-1-0.2-1.5c0,0,0,0,0,0
		c-0.1-0.5-0.2-1-0.4-1.6c0-0.1-0.1-0.3-0.1-0.4c-0.1-0.5-0.3-0.9-0.4-1.4c0,0,0-0.1,0-0.1c-0.2-0.5-0.4-1-0.6-1.5
		c-0.1-0.1-0.1-0.3-0.2-0.4c-0.2-0.4-0.4-0.8-0.6-1.3c0-0.1-0.1-0.1-0.1-0.2c-0.2-0.5-0.5-0.9-0.8-1.4c-0.1-0.1-0.2-0.3-0.3-0.4
		c-0.3-0.4-0.5-0.8-0.8-1.2c0-0.1-0.1-0.1-0.1-0.2c-0.3-0.4-0.7-0.8-1-1.3c-0.1-0.1-0.2-0.2-0.3-0.3c-0.4-0.4-0.7-0.8-1.1-1.2
		c0,0,0,0,0,0l-100-100c-0.4-0.4-0.8-0.8-1.2-1.1c-0.1-0.1-0.2-0.2-0.3-0.3c-0.4-0.3-0.8-0.7-1.3-1c0,0-0.1-0.1-0.1-0.1
		c-0.4-0.3-0.8-0.6-1.2-0.8c-0.1-0.1-0.3-0.2-0.4-0.3c-0.4-0.3-0.9-0.5-1.3-0.8c-0.1,0-0.2-0.1-0.2-0.1c-0.4-0.2-0.8-0.4-1.2-0.6
		c-0.1-0.1-0.3-0.1-0.4-0.2c-0.5-0.2-1-0.4-1.4-0.6c-0.1,0-0.1,0-0.2-0.1c-0.4-0.2-0.9-0.3-1.3-0.4c-0.1,0-0.3-0.1-0.4-0.1
		c-0.5-0.1-1-0.3-1.5-0.4c0,0-0.1,0-0.1,0c-0.5-0.1-1-0.2-1.5-0.2c-0.2,0-0.3,0-0.5-0.1c-0.5-0.1-0.9-0.1-1.4-0.1
		c-0.1,0-0.1,0-0.2,0c-0.4,0-0.8,0-1.2,0H115C79.2,0,50,29.2,50,65v362c0,35.8,29.2,65,65,65h60v-50h-60c-8.3,0-15-6.7-15-15V65
		c0-8.3,6.7-15,15-15h197v75c0,13.8,11.2,25,25,25h75v277c0,8.3-6.7,15-15,15h-22v50h22c35.8,0,65-29.2,65-65V125
		C462,124.6,462,124.2,462,123.7z"/>
</g>
</svg>
