<?xml version="1.0" encoding="utf-8"?>
<!-- Generator: Adobe Illustrator 24.0.1, SVG Export Plug-In . SVG Version: 6.00 Build 0)  -->
<svg version="1.1" id="Capa_1" xmlns="http://www.w3.org/2000/svg" xmlns:xlink="http://www.w3.org/1999/xlink" x="0px" y="0px"
	 viewBox="0 0 512 512" style="enable-background:new 0 0 512 512;" xml:space="preserve">
<path d="M440.4,104.9c-10.2-22-25.1-41.3-44.1-57.3C360.3,17.1,310.6,0.4,256.5,0.4S152.7,17.1,116.7,47.5
	c-19,16-33.8,35.3-44.1,57.3c-10.7,23-16.1,48.4-16.1,75.5c0,65,37.9,112.4,68.4,150.4c19.3,24.1,37.6,46.9,37.6,64.6v46.2
	c0,18.9,7.1,36.6,20.1,49.9c13.2,13.5,30.9,21,49.9,21h49c19,0,36.7-7.4,49.9-21c13-13.3,20.1-31,20.1-49.9v-46.2
	c0-17.7,18.1-40.5,37.3-64.7c30.2-38,67.7-85.3,67.7-150.3C456.5,153.2,451.1,127.8,440.4,104.9z M281.5,462.4h-49
	c-11.2,0-20-9.2-20-20.8v-26.2h89v26.2C301.5,453.2,292.7,462.4,281.5,462.4z M349.6,299.6c-17.4,21.9-34.1,43-42.5,65.8h-25.6v-145
	c0-13.8,11.2-25,25-25c13.8,0,25-11.2,25-25s-11.2-25-25-25c-19.2,0-36.7,7.3-50,19.2c-13.3-11.9-30.8-19.2-50-19.2
	c-13.8,0-25,11.2-25,25s11.2,25,25,25c13.8,0,25,11.2,25,25v145h-24.7c-8.5-22.8-25.4-43.9-42.9-65.9
	c-28.2-35.2-57.4-71.7-57.4-119.1c0-38.6,14.6-71.3,42.4-94.6C176,63,214.2,50.4,256.5,50.4S337,63,364.1,85.8
	c27.7,23.3,42.4,56.1,42.4,94.6C406.5,227.9,377.6,264.4,349.6,299.6z"/>
</svg>
