<?xml version="1.0" encoding="iso-8859-1"?>
<!-- Generator: Adobe Illustrator 19.0.0, SVG Export Plug-In . SVG Version: 6.00 Build 0)  -->
<svg version="1.1" id="Layer_1" xmlns="http://www.w3.org/2000/svg" xmlns:xlink="http://www.w3.org/1999/xlink" x="0px" y="0px"
	 viewBox="0 0 300 300" style="enable-background:new 0 0 300 300;" xml:space="preserve">
<g>
	<g>
		<g>
			<g>
				<path style="fill:#231F20;" d="M0,106.439v179.525c0,5.178,4.197,9.375,9.375,9.375h45.478c5.178,0,9.375-4.197,9.375-9.375
					V106.439c0-5.178-4.197-9.375-9.375-9.375H9.375C4.197,97.064,0,101.262,0,106.439z"/>
			</g>
		</g>
		<g>
			<g>
				<path style="fill:#231F20;" d="M36.337,0C14.364,0,0,14.807,0,34.248c0,19.038,13.94,34.272,35.503,34.272h0.41
					c22.395,0,36.343-15.234,36.343-34.272C71.84,14.807,58.309,0,36.337,0z"/>
			</g>
		</g>
		<g>
			<g>
				<path style="fill:#231F20;" d="M226.049,97.064c-34.101,0-49.369,19.245-57.893,32.745v-18.709c0-5.178-4.197-9.375-9.375-9.375
					h-45.288c-5.222,0-9.436,4.253-9.374,9.474c0.418,35.481-0.015,146.312-0.157,179.389c-0.022,5.193,4.182,9.411,9.375,9.411
					h45.444c5.178,0,9.375-4.197,9.375-9.375V189.267c0-5.926,0.417-11.837,2.115-16.08c4.642-11.838,15.211-24.095,32.956-24.095
					c23.251,0,32.545,18.181,32.545,44.826v96.702c0,5.178,4.197,9.375,9.375,9.375h45.476c5.177,0,9.375-4.197,9.375-9.375
					L300,186.31C300,125.409,268.314,97.064,226.049,97.064z"/>
			</g>
		</g>
	</g>
</g>
<g>
</g>
<g>
</g>
<g>
</g>
<g>
</g>
<g>
</g>
<g>
</g>
<g>
</g>
<g>
</g>
<g>
</g>
<g>
</g>
<g>
</g>
<g>
</g>
<g>
</g>
<g>
</g>
<g>
</g>
</svg>
