<?xml version="1.0" encoding="utf-8"?>
<!-- Generator: Adobe Illustrator 24.0.1, SVG Export Plug-In . SVG Version: 6.00 Build 0)  -->
<svg version="1.1" id="Capa_1" xmlns="http://www.w3.org/2000/svg" xmlns:xlink="http://www.w3.org/1999/xlink" x="0px" y="0px"
	 viewBox="0 0 512 512" style="enable-background:new 0 0 512 512;" xml:space="preserve">
<path d="M436.2,436.3h-75.9V317.4c0-28.3-0.5-64.8-39.5-64.8c-39.5,0-45.6,30.9-45.6,62.7v120.9h-75.9V191.9h72.8v33.4h1
	c7.3-12.5,17.8-22.7,30.5-29.7c12.7-6.9,27-10.3,41.4-9.8c76.9,0,91.1,50.6,91.1,116.4L436.2,436.3z M113.9,158.5
	c-8.7,0-17.2-2.6-24.5-7.4c-7.2-4.8-12.9-11.7-16.2-19.8s-4.2-16.9-2.5-25.4c1.7-8.5,5.9-16.4,12-22.5c6.2-6.2,14-10.4,22.5-12.1
	c8.5-1.7,17.4-0.8,25.4,2.5c8,3.3,14.9,9,19.8,16.2c4.8,7.2,7.4,15.7,7.4,24.5c0,5.8-1.1,11.5-3.3,16.8c-2.2,5.3-5.5,10.2-9.5,14.3
	c-4.1,4.1-8.9,7.3-14.3,9.5C125.4,157.4,119.7,158.5,113.9,158.5z M151.8,436.3H75.9V191.9h75.9V436.3z M474.1,0H37.8
	c-9.9-0.1-19.4,3.7-26.5,10.6S0.1,27,0,36.9V475c0.1,9.9,4.2,19.4,11.2,26.3c7.1,6.9,16.6,10.8,26.5,10.7h436.3
	c9.9,0.1,19.5-3.7,26.6-10.6c7.1-6.9,11.2-16.4,11.3-26.3V36.9c-0.1-9.9-4.2-19.4-11.3-26.3S484-0.1,474.1,0"/>
</svg>
