<svg xmlns="http://www.w3.org/2000/svg" viewBox="0 0 300 300"><path d="M0 106.439v179.525a9.375 9.375 0 0 0 9.375 9.375h45.478a9.375 9.375 0 0 0 9.375-9.375V106.439a9.375 9.375 0 0 0-9.375-9.375H9.375A9.375 9.375 0 0 0 0 106.439zM36.337 0C14.364 0 0 14.807 0 34.248 0 53.286 13.94 68.52 35.503 68.52h.41c22.395 0 36.343-15.234 36.343-34.272C71.84 14.807 58.309 0 36.337 0zm189.712 97.064c-34.101 0-49.369 19.245-57.893 32.745V111.1a9.375 9.375 0 0 0-9.375-9.375h-45.288c-5.222 0-9.436 4.253-9.374 9.474.418 35.481-.015 146.312-.157 179.389-.022 5.193 4.182 9.411 9.375 9.411h45.444a9.375 9.375 0 0 0 9.375-9.375V189.267c0-5.926.417-11.837 2.115-16.08 4.642-11.838 15.211-24.095 32.956-24.095 23.251 0 32.545 18.181 32.545 44.826v96.702a9.375 9.375 0 0 0 9.375 9.375h45.476a9.375 9.375 0 0 0 9.375-9.375L300 186.31c0-60.901-31.686-89.246-73.951-89.246z" fill="#231f20"/></svg>