<?xml version="1.0" encoding="iso-8859-1"?>
<!-- Generator: Adobe Illustrator 19.0.0, SVG Export Plug-In . SVG Version: 6.00 Build 0)  -->
<svg version="1.1" id="Layer_1" xmlns="http://www.w3.org/2000/svg" xmlns:xlink="http://www.w3.org/1999/xlink" x="0px" y="0px"
	 viewBox="0 0 512 512" style="enable-background:new 0 0 512 512;" xml:space="preserve">
<g>
	<g>
		<path d="M487,281H125c-13.807,0-25-11.193-25-25s11.193-25,25-25h362c13.807,0,25,11.193,25,25S500.807,281,487,281z"/>
	</g>
	<g>
		<path d="M30,286c-16.542,0-30-13.458-30-30s13.458-30,30-30s30,13.458,30,30S46.542,286,30,286z"/>
	</g>
	<g>
		<path d="M487,421H125c-13.807,0-25-11.193-25-25s11.193-25,25-25h362c13.807,0,25,11.193,25,25S500.807,421,487,421z"/>
	</g>
	<g>
		<path d="M30,426c-16.542,0-30-13.458-30-30s13.458-30,30-30s30,13.458,30,30S46.542,426,30,426z"/>
	</g>
	<g>
		<path d="M487,141H125c-13.807,0-25-11.193-25-25s11.193-25,25-25h362c13.807,0,25,11.193,25,25S500.807,141,487,141z"/>
	</g>
	<g>
		<path d="M30,146c-16.542,0-30-13.458-30-30s13.458-30,30-30s30,13.458,30,30S46.542,146,30,146z"/>
	</g>
</g>
<g>
</g>
<g>
</g>
<g>
</g>
<g>
</g>
<g>
</g>
<g>
</g>
<g>
</g>
<g>
</g>
<g>
</g>
<g>
</g>
<g>
</g>
<g>
</g>
<g>
</g>
<g>
</g>
<g>
</g>
</svg>
