<?xml version="1.0" encoding="iso-8859-1"?>
<!-- Generator: Adobe Illustrator 19.0.0, SVG Export Plug-In . SVG Version: 6.00 Build 0)  -->
<svg version="1.1" id="Layer_1" xmlns="http://www.w3.org/2000/svg" xmlns:xlink="http://www.w3.org/1999/xlink" x="0px" y="0px"
	 viewBox="-49 141 512 512" style="enable-background:new -49 141 512 512;" xml:space="preserve">
<g>
	<g>
		<path d="M438,422H76c-13.807,0-25-11.193-25-25s11.193-25,25-25h362c13.807,0,25,11.193,25,25S451.807,422,438,422z"/>
	</g>
	<g>
		<path d="M-19,427c-16.542,0-30-13.458-30-30s13.458-30,30-30s30,13.458,30,30S-2.458,427-19,427z"/>
	</g>
	<g>
		<path d="M438,562H76c-13.807,0-25-11.193-25-25s11.193-25,25-25h362c13.807,0,25,11.193,25,25S451.807,562,438,562z"/>
	</g>
	<g>
		<path d="M-19,567c-16.542,0-30-13.458-30-30s13.458-30,30-30s30,13.458,30,30S-2.458,567-19,567z"/>
	</g>
	<g>
		<path d="M438,282H76c-13.807,0-25-11.193-25-25s11.193-25,25-25h362c13.807,0,25,11.193,25,25S451.807,282,438,282z"/>
	</g>
	<g>
		<path d="M-19,287c-16.542,0-30-13.458-30-30s13.458-30,30-30s30,13.458,30,30S-2.458,287-19,287z"/>
	</g>
</g>
</svg>
