<svg xmlns="http://www.w3.org/2000/svg" viewBox="-49 141 512 512"><path d="M438 422H76c-13.807 0-25-11.193-25-25s11.193-25 25-25h362c13.807 0 25 11.193 25 25s-11.193 25-25 25zm-457 5c-16.542 0-30-13.458-30-30s13.458-30 30-30 30 13.458 30 30-13.458 30-30 30zm457 135H76c-13.807 0-25-11.193-25-25s11.193-25 25-25h362c13.807 0 25 11.193 25 25s-11.193 25-25 25zm-457 5c-16.542 0-30-13.458-30-30s13.458-30 30-30 30 13.458 30 30-13.458 30-30 30zm457-285H76c-13.807 0-25-11.193-25-25s11.193-25 25-25h362c13.807 0 25 11.193 25 25s-11.193 25-25 25zm-457 5c-16.542 0-30-13.458-30-30s13.458-30 30-30 30 13.458 30 30-13.458 30-30 30z"/></svg>