<?xml version="1.0" encoding="iso-8859-1"?>
<!-- Generator: Adobe Illustrator 19.0.0, SVG Export Plug-In . SVG Version: 6.00 Build 0)  -->
<svg version="1.1" id="Layer_1" xmlns="http://www.w3.org/2000/svg" xmlns:xlink="http://www.w3.org/1999/xlink" x="0px" y="0px"
	 viewBox="-49 141 512 512" style="enable-background:new -49 141 512 512;" xml:space="preserve">
<path id="XMLID_52_" d="M303.313,350.894H147.001v-26.405c0-33.296,26.896-60.383,60.191-60.383c10.799,0,21.288,2.876,30.516,8.319
	c11.892,7.014,27.172,3.059,34.187-8.833c7.014-11.893,3.035-27.22-8.858-34.234c-16.917-9.978-36.106-15.252-55.833-15.252
	c-60.865,0-110.203,49.518-110.203,110.383v28.168c-22,6.162-39,26.409-39,50.385v124.317c0,28.851,23.837,52.535,52.688,52.535
	h192.623c28.852,0,52.688-23.685,52.688-52.535V403.041C356,374.19,332.163,350.894,303.313,350.894z"/>
</svg>
