<svg xmlns="http://www.w3.org/2000/svg" viewBox="-49 141 512 512"><path d="M303.313 350.894H147.001v-26.405c0-33.296 26.896-60.383 60.191-60.383a59.933 59.933 0 0 1 30.516 8.319c11.892 7.014 27.172 3.059 34.187-8.833 7.014-11.893 3.035-27.22-8.858-34.234-16.917-9.978-36.106-15.252-55.833-15.252-60.865 0-110.203 49.518-110.203 110.383v28.168c-22 6.162-39 26.409-39 50.385v124.317c0 28.851 23.837 52.535 52.688 52.535h192.623c28.852 0 52.688-23.685 52.688-52.535V403.041c0-28.851-23.837-52.147-52.687-52.147z"/></svg>