<?xml version="1.0" encoding="iso-8859-1"?>
<!-- Generator: Adobe Illustrator 19.0.0, SVG Export Plug-In . SVG Version: 6.00 Build 0)  -->
<svg version="1.1" id="Layer_1" xmlns="http://www.w3.org/2000/svg" xmlns:xlink="http://www.w3.org/1999/xlink" x="0px" y="0px"
	 viewBox="-49 141 512 512" style="enable-background:new -49 141 512 512;" xml:space="preserve">
<path d="M357,341.638V291c0-82.71-67.29-150-150-150S57,208.29,57,291v50.638C25.405,346.035,1,373.213,1,406v182
	c0,35.841,29.159,65,65,65h282c35.841,0,65-29.159,65-65V406C413,373.213,388.595,346.035,357,341.638z M207,191
	c55.14,0,100,44.86,100,100v50H107v-50C107,235.86,151.86,191,207,191z M363,588c0,8.271-6.729,15-15,15H66c-8.271,0-15-6.729-15-15
	V406c0-8.271,6.729-15,15-15h282c8.271,0,15,6.729,15,15V588z"/>
</svg>
