<?xml version="1.0" encoding="iso-8859-1"?>
<!-- Generator: Adobe Illustrator 19.0.0, SVG Export Plug-In . SVG Version: 6.00 Build 0)  -->
<svg version="1.1" id="Layer_1" xmlns="http://www.w3.org/2000/svg" xmlns:xlink="http://www.w3.org/1999/xlink" x="0px" y="0px"
	 viewBox="0 0 512 512" style="enable-background:new 0 0 512 512;" xml:space="preserve">
<path d="M406,200.638V150C406,67.29,338.71,0,256,0S106,67.29,106,150v50.638C74.405,205.035,50,232.213,50,265v182
	c0,35.841,29.159,65,65,65h282c35.841,0,65-29.159,65-65V265C462,232.213,437.595,205.035,406,200.638z M256,50
	c55.14,0,100,44.86,100,100v50H156v-50C156,94.86,200.86,50,256,50z M412,447c0,8.271-6.729,15-15,15H115c-8.271,0-15-6.729-15-15
	V265c0-8.271,6.729-15,15-15h282c8.271,0,15,6.729,15,15V447z"/>
<g>
</g>
<g>
</g>
<g>
</g>
<g>
</g>
<g>
</g>
<g>
</g>
<g>
</g>
<g>
</g>
<g>
</g>
<g>
</g>
<g>
</g>
<g>
</g>
<g>
</g>
<g>
</g>
<g>
</g>
</svg>
