<?xml version="1.0" encoding="iso-8859-1"?>
<!-- Generator: Adobe Illustrator 19.0.0, SVG Export Plug-In . SVG Version: 6.00 Build 0)  -->
<svg version="1.1" id="Layer_1" xmlns="http://www.w3.org/2000/svg" xmlns:xlink="http://www.w3.org/1999/xlink" x="0px" y="0px"
	 viewBox="-49 141 512 512" style="enable-background:new -49 141 512 512;" xml:space="preserve">
<path d="M303.312,350.826H146.617v-26.23c0-33.295,27.088-60.383,60.383-60.383c21.454,0,41.483,11.544,52.272,30.127
	c6.932,11.939,22.231,16,34.173,9.068c11.94-6.933,16-22.232,9.068-34.173c-19.704-33.939-56.302-55.022-95.513-55.022
	c-60.865,0-110.383,49.518-110.383,110.383v28.167c-22.035,6.163-38.251,26.409-38.251,50.385v124.317
	c0,28.851,23.472,52.323,52.322,52.323h192.624c28.851,0,52.322-23.472,52.322-52.323V403.147
	C355.635,374.297,332.163,350.826,303.312,350.826z"/>
</svg>
