<?xml version="1.0" encoding="iso-8859-1"?>
<!-- Generator: Adobe Illustrator 19.0.0, SVG Export Plug-In . SVG Version: 6.00 Build 0)  -->
<svg version="1.1" id="Layer_1" xmlns="http://www.w3.org/2000/svg" xmlns:xlink="http://www.w3.org/1999/xlink" x="0px" y="0px"
	 viewBox="-49 141 512 512" style="enable-background:new -49 141 512 512;" xml:space="preserve">
<path d="M317.383,352.763v-28.167c0-60.865-49.517-110.383-110.383-110.383S96.617,263.73,96.617,324.595v28.167
	c-22.035,6.163-38.251,26.409-38.251,50.385v124.317c0,28.851,23.472,52.323,52.322,52.323h192.624
	c28.851,0,52.323-23.472,52.323-52.323V403.147C355.635,379.172,339.419,358.925,317.383,352.763z M207,264.212
	c33.295,0,60.383,27.088,60.383,60.383v26.23H146.617v-26.23C146.617,291.3,173.704,264.212,207,264.212z"/>
</svg>
