<svg xmlns="http://www.w3.org/2000/svg" viewBox="0 0 398 151.5"><path d="M49.5 47.2c-2.6-1-7.1-2.7-12.1-2.1-4.8.6-7.4 3-7.4 8.8v7.6h19.6v15.1H30v47.9H13V76.6H1.2v-15H13v-7.8c0-14.8 7.9-24.4 22.6-24.4 5.6 0 10.2 1.1 14 2.7l-.1 15.1zM90.9 76.5c-1.6-.3-3.1-.4-4.6-.4-7.9 0-13.3 4.8-13.3 14.2v34.3H56v-63h16.4v6.9c4-5.9 10-8.6 17.7-8.6 3.6 0 7.4 1.1 9.6 3l-8.8 13.6zM158.2 93c0 1.9-.1 4.3-.3 5.7h-44.7c1.8 9.1 8.2 13.1 16.2 13.1 5.5 0 11.4-2.2 15.9-6l9.9 10.9c-7.2 6.6-16.3 9.6-26.8 9.6-19.3 0-32.7-13.1-32.7-33 0-19.8 13-33.3 31.9-33.3 18.1-.1 30.5 13.3 30.6 33zm-44.9-5.9h27.9c-1.6-8.1-6.4-12.6-13.7-12.6-8.1 0-12.7 4.8-14.2 12.6zM225.4 93c0 1.9-.1 4.3-.3 5.7h-44.7c1.8 9.1 8.2 13.1 16.2 13.1 5.5 0 11.4-2.2 15.9-6l9.9 10.9c-7.2 6.6-16.3 9.6-26.8 9.6-19.3 0-32.7-13.1-32.7-33 0-19.8 13-33.3 31.9-33.3 18.1-.1 30.5 13.3 30.6 33zm-44.9-5.9h27.9c-1.6-8.1-6.4-12.6-13.7-12.6-8 0-12.7 4.8-14.2 12.6zM298.7 93c0 18.9-13.1 33.2-30.5 33.2-8.5 0-14.4-3.3-18.5-8.2v32.6h-16.9v-89h16.6v7c4.1-5.1 10.1-8.6 18.8-8.6 17.4-.1 30.5 14.1 30.5 33zm-49.9 0c0 9.9 6.6 17.4 16.2 17.4 10 0 16.3-7.7 16.3-17.4s-6.2-17.4-16.3-17.4c-9.6.1-16.2 7.5-16.2 17.4zM326 40.9c0 6.1-4.7 10.8-10.9 10.8-6.1 0-10.8-4.7-10.8-10.8S309 30 315.1 30c6.1 0 10.9 4.8 10.9 10.9zm-2.3 83.6h-17v-63h17v63zM352 84l23.7-22.4h20.8l-30.6 29.6 30.7 33.3h-20.9L351.8 99v25.5h-17V30.9h17V84h.2z"/></svg>