<?xml version="1.0" encoding="utf-8"?>
<!-- Generator: Adobe Illustrator 22.0.1, SVG Export Plug-In . SVG Version: 6.00 Build 0)  -->
<svg version="1.1" id="Capa_2" xmlns="http://www.w3.org/2000/svg" xmlns:xlink="http://www.w3.org/1999/xlink" x="0px" y="0px"
	 viewBox="0 0 345.8 151.5" style="enable-background:new 0 0 345.8 151.5;" xml:space="preserve">
<style type="text/css">
	.st0{fill:#010001;}
</style>
<g id="Page-1_1_">
	<g id="icon_1_" transform="translate(-430.000000, -16.000000)">
		<g id="Group_1_" transform="translate(430.000000, 16.000000)">
			<path id="Shape_15_" class="st0" d="M27,55.5c0.7-1.5,2.5-2.3,5.2-2.3c1,0,2.2,0.1,3.6,0.3c1.4,0.3,2.5,0.3,3,0.3
				c1.3,0,2.3-0.6,3.2-1.5c0.9-0.9,1.4-2,1.4-3.5c0-4.2-4.4-6.4-12.9-6.4c-4.9,0-8.7,0.6-11.5,1.9c-2.8,1.2-4.6,3.2-5.7,5.9
				c-1.2,2.6-1.6,6.4-1.6,11v4.9H7.9c-4.9,0-7.4,1.5-7.5,5.1c0,1.5,0.6,2.7,1.7,3.6c1.2,1,2.9,1.3,5.1,1.3h4.5v39.3
				c0,3,0.5,5.2,1.9,6.7c1.4,1.5,3.1,2.3,5.1,2.3c2.3,0,3.9-0.8,5.2-2.3c1.4-1.6,1.8-3.8,1.8-6.7V76.1h3.9c2.5,0,4.6-0.1,6.1-0.8
				c1.5-0.7,2.2-2,2.2-4.3c0-3.3-2.8-4.8-8.4-4.8h-3.8v-3.9C25.7,59.4,26.2,57.2,27,55.5z"/>
			<path id="Shape_14_" class="st0" d="M81.9,72.6c0-2.5-1.5-4.6-4.4-6.1c-2.9-1.5-5.9-2.3-9-2.3c-3.1,0-5.5,0.8-7.4,2.3
				c-1.9,1.5-3.7,3.8-5.4,6.8c-0.1-3-0.7-5.3-1.7-6.8c-1.2-1.5-2.8-2.3-5.2-2.3c-4.8,0-7,3.3-7,9.9v41.1c0,3,0.6,5.2,1.9,6.7
				c1.3,1.5,3.1,2.3,5.1,2.3c2,0,3.7-0.7,5.1-2.2c1.4-1.5,1.8-3.7,1.8-6.7v-12.2c0-4.4,0.5-8.2,0.5-11.5c0.3-3.2,1-5.8,1.7-8
				c0.8-2.3,1.9-3.9,3.3-5.1c1.4-1.2,3.2-1.7,5.4-1.7c1.5,0,3.3,0.3,5.5,1c2.1,0.7,3.3,1,3.9,1c1.5,0,2.8-0.6,4.1-1.7
				C81.3,75.9,81.9,74.5,81.9,72.6z"/>
			<path id="Shape_13_" class="st0" d="M132.9,96.6c2.2-1,3.2-3.5,3.2-7.2c0-4.1-1-8-3.2-11.8c-2-3.9-5.1-7.1-9.3-9.5
				c-4.1-2.5-9-3.8-14.8-3.8c-4.5,0-8.6,0.7-12.2,2c-3.6,1.4-6.7,3.5-9.1,6.1c-2.5,2.6-4.4,5.9-5.7,9.6c-1.3,3.7-2,7.7-2,12.2
				c0,9.3,2.6,16.5,7.8,21.9c5.2,5.4,12.6,8.1,22.1,8.1c4.2,0,7.7-0.6,11-1.6c3.2-1,5.9-2.5,8-4.1c2.1-1.6,3.7-3.3,4.8-5.1
				c1-1.7,1.6-3.3,1.6-4.6c0-1.5-0.4-2.6-1.4-3.5c-0.9-0.8-2.2-1.3-3.7-1.3c-1.4,0-2.5,0.3-3.2,0.9c-1.9,1.6-3.3,3-4.5,4.1
				c-1.2,1-2.5,2-3.8,2.9c-1.3,0.9-2.8,1.5-4.2,2c-1.5,0.3-3.2,0.6-4.9,0.6c-2.5,0-4.9-0.7-7.1-2c-2-1.3-3.9-3.1-5.2-5.7
				c-1.3-2.6-2-5.8-2-8.8h28.8C127.8,98.1,130.8,97.5,132.9,96.6z M95.1,90.1c0.6-5,2-9,4.2-11.5c2.3-2.5,5.3-3.9,9-3.9
				c3.9,0,7,1.4,9.4,4c2.3,2.5,3.7,5.5,4.1,11.5H95.1z"/>
			<path id="Shape_12_" class="st0" d="M194,96.6c2.2-1,3.2-3.5,3.2-7.2c0-4.1-1-8-3.2-11.8c-2-3.9-5.1-7.1-9.3-9.5
				c-4.1-2.5-9-3.8-14.8-3.8c-4.5,0-8.6,0.7-12.2,2c-3.6,1.4-6.7,3.5-9.1,6.1c-2.5,2.6-4.4,5.9-5.7,9.6c-1.3,3.7-2,7.7-2,12.2
				c0,9.3,2.6,16.5,7.8,21.9c5.2,5.4,12.6,8.1,22.1,8.1c4.2,0,7.7-0.6,11-1.6c3.2-1,5.9-2.5,8-4.1c2-1.6,3.7-3.3,4.8-5.1
				c1.2-1.7,1.6-3.3,1.6-4.6c0-1.5-0.4-2.6-1.4-3.5c-0.9-0.8-2.2-1.3-3.7-1.3c-1.4,0-2.5,0.3-3.2,0.9c-1.9,1.6-3.3,3-4.5,4.1
				c-1.2,1-2.5,2-3.8,2.9c-1.3,0.9-2.8,1.5-4.2,2c-1.5,0.3-3.2,0.6-4.9,0.6c-2.5,0-4.9-0.7-7.1-2c-2-1.3-3.9-3.1-5.2-5.7
				c-1.3-2.6-2-5.8-2-8.8h28.9C189.2,98.1,192.2,97.5,194,96.6z M156.5,90.1c0.4-5,2-9,4.2-11.5c2.3-2.5,5.3-3.9,9-3.9
				c3.9,0,7,1.4,9.4,4c2.3,2.5,3.7,5.5,4.1,11.5H156.5z"/>
			<path id="Shape_11_" class="st0" d="M248.9,68c-3.8-2.3-8-3.5-12.5-3.5c-3.8,0-7.1,0.8-10.1,2.5c-3.1,1.6-5.6,4.1-8.6,7.5v-1.7
				c0-2.6-0.7-4.8-2.3-6.2c-1.3-1.5-3-2.2-5.1-2.2c-2.1,0-3.7,0.7-4.8,2c-1.3,1.4-1.8,3.5-1.8,6.2v63.7c0,3.2,0.3,5.5,1.3,7.3
				c0.9,1.7,2.9,2.5,5.6,2.5c4.8,0,7.1-3.2,7.1-9.7v-22.2c2,3.3,5.2,5.8,8.1,7.5c2.9,1.7,6.4,2.5,10.6,2.5c3.5,0,6.8-0.7,9.8-2
				c3-1.4,5.7-3.3,7.8-5.9c2.3-2.6,4.1-5.8,5.3-9.6c1.4-3.8,2-8,2-12.5c0-6.1-1.2-11.5-3.3-16C255.8,73.7,252.8,70.3,248.9,68z
				 M244.6,104.3c-1.2,2.8-2.9,4.9-4.9,6.4c-2,1.4-4.4,2-6.8,2c-4.1,0-7.5-1.6-10.3-4.9c-2.8-3.2-4.2-7.7-4.2-13.6
				c0-6.2,1.4-10.9,4.2-14.1c2.8-3.2,6.2-4.9,10.3-4.9c2.6,0,4.9,0.7,7,2.2c2.1,1.5,3.8,3.7,4.9,6.5c1.2,2.8,1.7,6.1,1.7,10
				C246.5,98.1,246,101.5,244.6,104.3z"/>
			<path id="Shape_10_" class="st0" d="M276.1,64.5c-2.2,0-4,0.7-5.4,2.2c-1.3,1.5-2,3.7-2,6.6v42.3c0,2.8,0.7,5.1,2,6.6
				c1.4,1.5,3.2,2.3,5.4,2.3c2,0,4-0.8,5.4-2.3c1.4-1.5,2.1-3.7,2.1-6.7V72.9c0-2.6-0.8-4.8-2.1-6.1
				C280.1,65.2,278.3,64.5,276.1,64.5z"/>
			<path id="Shape_9_" class="st0" d="M281.3,44.9c-1.5-1.3-3.2-1.9-5.1-1.9c-1.9,0-3.7,0.7-5.2,2c-1.5,1.4-2.2,3.2-2.2,5.2
				c0,2.3,0.7,4.1,2.2,5.3c1.4,1.3,3.2,1.9,5.2,1.9c2,0,3.7-0.7,5.1-2c1.5-1.3,2.2-3,2.2-5.3C283.5,47.9,282.8,46.2,281.3,44.9z"/>
			<path id="Shape_8_" class="st0" d="M345.4,114c-0.4-0.9-1.3-2.3-2.5-4.1l-15.1-23.8l7.8-7.1c4.1-3.6,6-6.5,6-8.7
				c0-1.7-0.6-3.2-1.9-4.4c-1.3-1.2-2.8-1.7-4.6-1.7c-1.5,0-2.9,0.3-3.9,1.2c-1.2,0.8-2.8,2.2-4.9,4.4l-16.7,17.4V51.6
				c0-3-0.4-5.3-1.8-6.8c-1.4-1.4-3.1-2.3-5.3-2.3c-2.5,0-4,0.8-5.2,2.5s-1.7,4.2-1.7,7.5v62.9c0,3,0.5,5.2,1.8,6.7
				c1.3,1.5,2.9,2.3,5.3,2.3c2,0,3.5-0.8,5-2.3c1.5-1.5,2-3.7,2-6.6v-11.7l8.2-7.5l13.2,21.4c1.6,2.5,3,4.2,3.9,5.2
				c0.9,1,2.3,1.5,4.2,1.5c2,0,3.8-0.7,5.1-2c1.4-1.4,2-3.2,2-5.5C346.1,115.8,345.8,115,345.4,114z"/>
		</g>
	</g>
</g>
</svg>
