<svg xmlns="http://www.w3.org/2000/svg" viewBox="0 0 137 151.5"><path d="M25.1 37.7c-3.8 3.9-7.1 8.2-9.7 12.8l-4.1-2.1c-.6-2.6-3.1-4.4-5.8-4.1-2.9.3-5 3-4.6 5.9.3 2.9 3 5 5.9 4.6.6-.1 1.1-.2 1.6-.5l4 2.1c-2.2 4.9-3.8 10-4.7 15.3l6.6 1.2c2-11.5 7.5-22 15.7-30.5l-4.9-4.7zm48.2-20.2c-1.5 0-3 .1-4.5.1l-.6-5.5c1.6-1.3 2.6-3.4 2.3-5.7-.4-3.5-3.5-5.9-7-5.5-3.5.4-5.9 3.5-5.5 7 .3 2.2 1.7 4.1 3.6 4.9l.6 5.5c-6.3 1-12.3 2.9-18.1 5.7l2.9 6c8.2-3.9 17.1-5.9 26.3-5.9 4.4 0 8.7.5 13 1.4l1.4-6.5c-4.7-1-9.6-1.5-14.4-1.5zm58 22.3c2.9-.4 5-3 4.6-5.9s-3-5-5.9-4.6c-2.7.3-4.7 2.7-4.7 5.3l-3.7 3.2c-3.7-3.8-7.8-7.1-12.4-10l-3.5 5.6c10 6.3 17.7 15.2 22.5 25.7l6.1-2.7c-2.2-4.9-5-9.4-8.3-13.6l3.5-3.1c.6.2 1.2.2 1.8.1zm-62.8 67.3c-3.4.2-6.8.3-10.2.3-7.7 0-15.2-.5-21.8-1.6-3.4-.5-7.4-1.4-11.2-2.6 9.2 16.3 27 27.4 47.3 27.4 25.1 0 46.2-16.8 52.3-39.6-6 3.9-13.2 7.2-21.6 9.9-10.3 3.4-22.3 5.5-34.8 6.2z"/><path d="M73.3 30.8c-29.4 0-53.4 23.4-53.4 52.2 0 3.7.4 7.5 1.2 11.1 5.9 4.2 23.8 7.8 47 6.4 25.3-1.5 46.5-8.4 58.6-19 0-1.7-.2-3.4-.4-5.1-3.4-26-26.1-45.6-53-45.6zM54.3 88c-9 0-16.2-7.3-16.2-16.2 0-9 7.3-16.2 16.2-16.2 9 0 16.2 7.3 16.2 16.2.1 8.9-7.2 16.2-16.2 16.2zm41.6-8C89.3 80 84 74.6 84 68.1c0-6.6 5.4-11.9 11.9-11.9 6.6 0 11.9 5.4 11.9 11.9.1 6.6-5.3 11.9-11.9 11.9z"/></svg>