<svg xmlns="http://www.w3.org/2000/svg" viewBox="-49 141 512 512"><path d="M207 372c-13.807 0-25-11.193-25-25V166c0-13.807 11.193-25 25-25s25 11.193 25 25v181c0 13.807-11.193 25-25 25z"/><path d="M370.342 258.658c-27.847-27.847-61.558-47.693-98.342-58.419v52.84C339.785 279.251 388 345.096 388 422c0 99.804-81.196 181-181 181S26 521.804 26 422c0-76.904 48.215-142.749 116-168.921v-52.84c-36.784 10.726-70.494 30.572-98.342 58.419C.028 302.288-24 360.298-24 422S.028 541.712 43.658 585.342C87.289 628.972 145.298 653 207 653s119.712-24.028 163.342-67.658C413.972 541.712 438 483.702 438 422s-24.028-119.712-67.658-163.342z"/></svg>