<?xml version="1.0" encoding="utf-8"?>
<!-- Generator: Adobe Illustrator 21.0.0, SVG Export Plug-In . SVG Version: 6.00 Build 0)  -->
<svg version="1.1" id="Capa_1" xmlns="http://www.w3.org/2000/svg" xmlns:xlink="http://www.w3.org/1999/xlink" x="0px" y="0px"
	 viewBox="0 0 398 151.5" style="enable-background:new 0 0 398 151.5;" xml:space="preserve">
<g id="XMLID_1_">
	<path id="XMLID_8_" d="M49.5,47.2c-2.6-1-7.1-2.7-12.1-2.1c-4.8,0.6-7.4,3-7.4,8.8v7.6h19.6v15.1H30v47.9H13V76.6H1.2
		v-15H13v-7.8c0-14.8,7.9-24.4,22.6-24.4c5.6,0,10.2,1.1,14,2.7L49.5,47.2z"/>
	<path id="XMLID_7_" d="M90.9,76.5c-1.6-0.3-3.1-0.4-4.6-0.4c-7.9,0-13.3,4.8-13.3,14.2v34.3H56v-63h16.4v6.9
		c4-5.9,10-8.6,17.7-8.6c3.6,0,7.4,1.1,9.6,3L90.9,76.5z"/>
	<path id="XMLID_6_" d="M158.2,93c0,1.9-0.1,4.3-0.3,5.7h-44.7c1.8,9.1,8.2,13.1,16.2,13.1c5.5,0,11.4-2.2,15.9-6
		l9.9,10.9c-7.2,6.6-16.3,9.6-26.8,9.6c-19.3,0-32.7-13.1-32.7-33c0-19.8,13-33.3,31.9-33.3C145.7,59.9,158.1,73.3,158.2,93z
		 M113.3,87.1h27.9c-1.6-8.1-6.4-12.6-13.7-12.6C119.4,74.5,114.8,79.3,113.3,87.1z"/>
	<path id="XMLID_5_" d="M225.4,93c0,1.9-0.1,4.3-0.3,5.7h-44.7c1.8,9.1,8.2,13.1,16.2,13.1c5.5,0,11.4-2.2,15.9-6
		l9.9,10.9c-7.2,6.6-16.3,9.6-26.8,9.6c-19.3,0-32.7-13.1-32.7-33c0-19.8,13-33.3,31.9-33.3C212.9,59.9,225.3,73.3,225.4,93z
		 M180.5,87.1h27.9c-1.6-8.1-6.4-12.6-13.7-12.6C186.7,74.5,182,79.3,180.5,87.1z"/>
	<path id="XMLID_4_" d="M298.7,93c0,18.9-13.1,33.2-30.5,33.2c-8.5,0-14.4-3.3-18.5-8.2v32.6h-16.9v-89h16.6v7
		c4.1-5.1,10.1-8.6,18.8-8.6C285.6,59.9,298.7,74.1,298.7,93z M248.8,93c0,9.9,6.6,17.4,16.2,17.4c10,0,16.3-7.7,16.3-17.4
		s-6.2-17.4-16.3-17.4C255.4,75.7,248.8,83.1,248.8,93z"/>
	<path id="XMLID_3_" d="M326,40.9c0,6.1-4.7,10.8-10.9,10.8c-6.1,0-10.8-4.7-10.8-10.8S309,30,315.1,30
		C321.2,30,326,34.8,326,40.9z M323.7,124.5h-17v-63h17V124.5z"/>
	<path id="XMLID_2_" d="M352,84l23.7-22.4h20.8l-30.6,29.6l30.7,33.3h-20.9L351.8,99v25.5h-17V30.9h17V84H352z"/>
</g>
</svg>
