<?xml version="1.0" encoding="iso-8859-1"?>
<!-- Generator: Adobe Illustrator 19.0.0, SVG Export Plug-In . SVG Version: 6.00 Build 0)  -->
<svg version="1.1" id="Layer_1" xmlns="http://www.w3.org/2000/svg" xmlns:xlink="http://www.w3.org/1999/xlink" x="0px" y="0px"
	 viewBox="-49 141 512 512" style="enable-background:new -49 141 512 512;" xml:space="preserve">
<g>
	<g>
		<path d="M207,372c-13.807,0-25-11.193-25-25V166c0-13.807,11.193-25,25-25s25,11.193,25,25v181C232,360.807,220.807,372,207,372z"
			/>
	</g>
	<g>
		<path d="M370.342,258.658c-27.847-27.847-61.558-47.693-98.342-58.419v52.84C339.785,279.251,388,345.096,388,422
			c0,99.804-81.196,181-181,181S26,521.804,26,422c0-76.904,48.215-142.749,116-168.921v-52.84
			c-36.784,10.726-70.494,30.572-98.342,58.419C0.028,302.288-24,360.298-24,422S0.028,541.712,43.658,585.342
			C87.289,628.972,145.298,653,207,653s119.712-24.028,163.342-67.658C413.972,541.712,438,483.702,438,422
			S413.972,302.288,370.342,258.658z"/>
	</g>
</g>
</svg>
