<?xml version="1.0" encoding="utf-8"?>
<!-- Generator: Adobe Illustrator 21.0.0, SVG Export Plug-In . SVG Version: 6.00 Build 0)  -->
<svg version="1.1" id="Capa_1" xmlns="http://www.w3.org/2000/svg" xmlns:xlink="http://www.w3.org/1999/xlink" x="0px" y="0px"
	 viewBox="0 0 137 151.5" style="enable-background:new 0 0 137 151.5;" xml:space="preserve">
<g id="XMLID_1_">
	<g id="XMLID_9_">
		<path id="XMLID_14_" d="M25.1,37.7c-3.8,3.9-7.1,8.2-9.7,12.8l-4.1-2.1c-0.6-2.6-3.1-4.4-5.8-4.1
			c-2.9,0.3-5,3-4.6,5.9c0.3,2.9,3,5,5.9,4.6c0.6-0.1,1.1-0.2,1.6-0.5l4,2.1c-2.2,4.9-3.8,10-4.7,15.3l6.6,1.2
			c2-11.5,7.5-22,15.7-30.5L25.1,37.7z"/>
		<path id="XMLID_13_" d="M73.3,17.5c-1.5,0-3,0.1-4.5,0.1l-0.6-5.5c1.6-1.3,2.6-3.4,2.3-5.7c-0.4-3.5-3.5-5.9-7-5.5
			c-3.5,0.4-5.9,3.5-5.5,7c0.3,2.2,1.7,4.1,3.6,4.9l0.6,5.5c-6.3,1-12.3,2.9-18.1,5.7l2.9,6c8.2-3.9,17.1-5.9,26.3-5.9
			c4.4,0,8.7,0.5,13,1.4l1.4-6.5C83,18,78.1,17.5,73.3,17.5z"/>
		<path id="XMLID_12_" d="M131.3,39.8c2.9-0.4,5-3,4.6-5.9s-3-5-5.9-4.6c-2.7,0.3-4.7,2.7-4.7,5.3l-3.7,3.2
			c-3.7-3.8-7.8-7.1-12.4-10l-3.5,5.6c10,6.3,17.7,15.2,22.5,25.7l6.1-2.7c-2.2-4.9-5-9.4-8.3-13.6l3.5-3.1
			C130.1,39.9,130.7,39.9,131.3,39.8z"/>
		<path id="XMLID_11_" d="M68.5,107.1c-3.4,0.2-6.8,0.3-10.2,0.3c-7.7,0-15.2-0.5-21.8-1.6c-3.4-0.5-7.4-1.4-11.2-2.6
			c9.2,16.3,27,27.4,47.3,27.4c25.1,0,46.2-16.8,52.3-39.6c-6,3.9-13.2,7.2-21.6,9.9C93,104.3,81,106.4,68.5,107.1z"/>
		<path id="XMLID_10_" d="M73.3,30.8c-29.4,0-53.4,23.4-53.4,52.2c0,3.7,0.4,7.5,1.2,11.1c5.9,4.2,23.8,7.8,47,6.4
			c25.3-1.5,46.5-8.4,58.6-19c0-1.7-0.2-3.4-0.4-5.1C122.9,50.4,100.2,30.8,73.3,30.8z M54.3,88c-9,0-16.2-7.3-16.2-16.2
			c0-9,7.3-16.2,16.2-16.2c9,0,16.2,7.3,16.2,16.2C70.6,80.7,63.3,88,54.3,88z M95.9,80C89.3,80,84,74.6,84,68.1
			c0-6.6,5.4-11.9,11.9-11.9c6.6,0,11.9,5.4,11.9,11.9C107.9,74.7,102.5,80,95.9,80z"/>
	</g>
</g>
</svg>
