<?xml version="1.0" encoding="iso-8859-1"?>
<!-- Generator: Adobe Illustrator 19.0.0, SVG Export Plug-In . SVG Version: 6.00 Build 0)  -->
<svg version="1.1" id="Layer_1" xmlns="http://www.w3.org/2000/svg" xmlns:xlink="http://www.w3.org/1999/xlink" x="0px" y="0px"
	 viewBox="0 0 512 512" style="enable-background:new 0 0 512 512;" xml:space="preserve">
<g>
	<g>
		<path d="M256,231c-13.807,0-25-11.193-25-25V25c0-13.807,11.193-25,25-25c13.807,0,25,11.193,25,25v181
			C281,219.807,269.807,231,256,231z"/>
	</g>
	<g>
		<path d="M419.342,117.658C391.495,89.811,357.784,69.965,321,59.239v52.84C388.785,138.251,437,204.096,437,281
			c0,99.804-81.196,181-181,181S75,380.804,75,281c0-76.904,48.215-142.749,116-168.921v-52.84
			c-36.784,10.726-70.494,30.572-98.342,58.419C49.028,161.288,25,219.298,25,281s24.028,119.712,67.658,163.342
			C136.289,487.972,194.298,512,256,512s119.712-24.028,163.342-67.658S487,342.702,487,281S462.972,161.288,419.342,117.658z"/>
	</g>
</g>
<g>
</g>
<g>
</g>
<g>
</g>
<g>
</g>
<g>
</g>
<g>
</g>
<g>
</g>
<g>
</g>
<g>
</g>
<g>
</g>
<g>
</g>
<g>
</g>
<g>
</g>
<g>
</g>
<g>
</g>
</svg>
