<svg id="Capa_2" xmlns="http://www.w3.org/2000/svg" viewBox="0 0 137 151.5"><style>.st0{fill:#010001}</style><g id="Page-1"><g id="icon"><g id="Group"><path id="Shape" class="st0" d="M53.7 35.7c5.8-1.9 10.8-3.1 15.3-3.6 4.4-.5 7.8-.7 10.5-.7 2.9 0 5.1.2 7.5.7l.7-4.4s-6.8-2.1-15.8-1.4l-.7-2.4c2.8-.6 4.9-3.1 4.9-6 0-3.4-2.8-6.2-6.2-6.2-3.4 0-6.2 2.8-6.2 6.2 0 3 2.1 5.4 4.9 6l.8 2.7c-9.5 1.3-17.1 5-17.1 5l1.4 4.1z"/><path id="Shape_1_" class="st0" d="M26.7 53.9c.2-.3.4-.6.7-.8l-1.8-1.3-2.8-2.1c-.2.2-4.6 4.3-8.2 11.9-.2-.2-.3-.7-.5-.9-1.1-1.2-2.5-2-4.4-2h-.1c-1.2 0-2-.2-2.5-.6.5-.7.8-1.4.8-2.3C7.9 53.6 6.2 52 4 52s-4 1.8-4 3.9 1.7 3.9 3.9 3.9c.3 0 .7 0 1-.1 1 1.1 2.5 2 4.7 2 1.1 0 2 .3 2.5.9.6.7.9 1.7.9 2.5-2.5 6.9-1.8 15.6-1.8 15.6l6.2.2c.1-3.1.6-8.6 2.2-13 3-8.4 6.9-13.7 7.1-14z"/><path id="Shape_2_" class="st0" d="M133.1 36.6c-2.2 0-3.9 1.7-3.9 3.9 0 .3 0 .7.1 1-1.1 1-2 2.5-2 4.7 0 1.1-.3 2-.9 2.5-.5.4-1.1.7-1.7.8-4.6-6.4-10.2-10.3-10.2-10.3l-4.4 4.7c3.3 3 6.8 6.8 10.1 11.6 2.3 3.3 4.6 7.5 6.6 11.7l6-2.8s-2.7-6.7-6.6-12.8c.7-.2 1.3-.6 1.9-1.1 1.2-1.1 1.7-2.5 1.7-4.4 0-1.2.4-2 .9-2.6.7.5 1.5.8 2.4.8 2.2 0 3.9-1.7 3.9-3.9 0-2-1.8-3.8-3.9-3.8z"/><path id="Shape_3_" class="st0" d="M117.6 90.3c-8.2 4-21.7 9.3-39.5 11.8-7 1-13.8 1.3-20 1.3-8.1 0-15.3-.6-20.8-1.3-6.3-.8-11.2-1.8-14.2-2.4.7 2.3 1.6 4.6 2.7 6.7 0 .1.1.1.1.2.1.3.3.5.4.8.1.2.2.5.4.7 0 .1.1.1.1.2 1.8 3.3 3.9 6.4 6.3 9 8.4 9.2 16.9 10.6 17 10.6h.2c.1 0 7.7 2.5 19.2 2.5 11.3 0 22.5-2.3 33.1-6.8 7.8-4 15.3-10.1 19-15.6 2.8-4.2 4.9-8.7 6.1-13.4.6-2.5 1.2-6.4.9-10.6-2.4 1.6-6.1 3.9-11 6.3z"/><path id="Shape_4_" class="st0" d="M77.5 97.2c17.1-2.4 29.9-7.4 37.8-11.2 6.5-3.2 10.7-6 12.3-7.2-1.6-6-6.1-15.4-10.2-21.2-11.7-16.7-24.3-21-30.7-22-2.5-.4-4.4-.6-7.2-.6-2.6 0-5.8.2-10.2.7-4.3.5-9.2 1.6-14.8 3.5-7.9 2.6-15 6.8-20.6 11.9l-.1-.1c-.8.8-2.6 2.4-4.5 4.9-.2.3-3.6 5.4-6.4 13.1-2.2 5.8-1.9 14.3-1.9 14.4 0 2-.1 3.9.1 5.9l-.1.1v1.1c.2 1.2.5 2.5.7 3.7h.1c4.2 1.1 28.5 6.7 55.7 3zM100.8 52c5.6 0 10.2 4.5 10.2 10.2 0 5.6-4.5 10.2-10.2 10.2s-10.2-4.5-10.2-10.2c0-5.6 4.6-10.2 10.2-10.2zm-48.1-.4c9.1 0 16.4 7.3 16.4 16.4s-7.3 16.4-16.4 16.4c-9.1 0-16.4-7.3-16.4-16.4 0-9 7.4-16.4 16.4-16.4z"/></g></g></g></svg>