<?xml version="1.0" encoding="utf-8"?>
<!-- Generator: Adobe Illustrator 22.0.1, SVG Export Plug-In . SVG Version: 6.00 Build 0)  -->
<svg version="1.1" id="Capa_2" xmlns="http://www.w3.org/2000/svg" xmlns:xlink="http://www.w3.org/1999/xlink" x="0px" y="0px"
	 viewBox="0 0 137 151.5" style="enable-background:new 0 0 137 151.5;" xml:space="preserve">
<style type="text/css">
	.st0{fill:#010001;}
</style>
<g id="Page-1">
	<g id="icon">
		<g id="Group">
			<path id="Shape" class="st0" d="M53.7,35.7c5.8-1.9,10.8-3.1,15.3-3.6c4.4-0.5,7.8-0.7,10.5-0.7c2.9,0,5.1,0.2,7.5,0.7l0.7-4.4
				c0,0-6.8-2.1-15.8-1.4l-0.7-2.4c2.8-0.6,4.9-3.1,4.9-6c0-3.4-2.8-6.2-6.2-6.2c-3.4,0-6.2,2.8-6.2,6.2c0,3,2.1,5.4,4.9,6l0.8,2.7
				c-9.5,1.3-17.1,5-17.1,5L53.7,35.7z"/>
			<path id="Shape_1_" class="st0" d="M26.7,53.9c0.2-0.3,0.4-0.6,0.7-0.8l-1.8-1.3l-2.8-2.1c-0.2,0.2-4.6,4.3-8.2,11.9
				c-0.2-0.2-0.3-0.7-0.5-0.9c-1.1-1.2-2.5-2-4.4-2c0,0-0.1,0-0.1,0c-1.2,0-2-0.2-2.5-0.6c0.5-0.7,0.8-1.4,0.8-2.3
				c0-2.2-1.7-3.8-3.9-3.8C1.8,52,0,53.8,0,55.9s1.7,3.9,3.9,3.9c0.3,0,0.7,0,1-0.1c1,1.1,2.5,2,4.7,2c1.1,0,2,0.3,2.5,0.9
				c0.6,0.7,0.9,1.7,0.9,2.5c0,0,0,0,0,0c-2.5,6.9-1.8,15.6-1.8,15.6l6.2,0.2c0.1-3.1,0.6-8.6,2.2-13C22.6,59.5,26.5,54.2,26.7,53.9
				L26.7,53.9z"/>
			<path id="Shape_2_" class="st0" d="M133.1,36.6c-2.2,0-3.9,1.7-3.9,3.9c0,0.3,0,0.7,0.1,1c-1.1,1-2,2.5-2,4.7
				c0,1.1-0.3,2-0.9,2.5c-0.5,0.4-1.1,0.7-1.7,0.8c-4.6-6.4-10.2-10.3-10.2-10.3l-4.4,4.7c3.3,3,6.8,6.8,10.1,11.6
				c2.3,3.3,4.6,7.5,6.6,11.7l6-2.8c0,0-2.7-6.7-6.6-12.8c0.7-0.2,1.3-0.6,1.9-1.1c1.2-1.1,1.7-2.5,1.7-4.4c0-1.2,0.4-2,0.9-2.6
				c0.7,0.5,1.5,0.8,2.4,0.8c2.2,0,3.9-1.7,3.9-3.9C137,38.4,135.2,36.6,133.1,36.6z"/>
			<path id="Shape_3_" class="st0" d="M117.6,90.3c-8.2,4-21.7,9.3-39.5,11.8c-7,1-13.8,1.3-20,1.3c-8.1,0-15.3-0.6-20.8-1.3
				c-6.3-0.8-11.2-1.8-14.2-2.4c0,0,0,0,0,0c0.7,2.3,1.6,4.6,2.7,6.7c0,0,0,0,0,0c0,0.1,0.1,0.1,0.1,0.2c0.1,0.3,0.3,0.5,0.4,0.8
				c0.1,0.2,0.2,0.5,0.4,0.7c0,0.1,0.1,0.1,0.1,0.2c1.8,3.3,3.9,6.4,6.3,9c8.4,9.2,16.9,10.6,17,10.6l0.1,0l0.1,0
				c0.1,0,7.7,2.5,19.2,2.5c11.3,0,22.5-2.3,33.1-6.8c7.8-4,15.3-10.1,19-15.6c2.8-4.2,4.9-8.7,6.1-13.4c0.6-2.5,1.2-6.4,0.9-10.6
				C126.2,85.6,122.5,87.9,117.6,90.3z"/>
			<path id="Shape_4_" class="st0" d="M77.5,97.2c17.1-2.4,29.9-7.4,37.8-11.2c6.5-3.2,10.7-6,12.3-7.2c-1.6-6-6.1-15.4-10.2-21.2
				c-11.7-16.7-24.3-21-30.7-22c-2.5-0.4-4.4-0.6-7.2-0.6c-2.6,0-5.8,0.2-10.2,0.7c-4.3,0.5-9.2,1.6-14.8,3.5
				c-7.9,2.6-15,6.8-20.6,11.9L33.8,51c-0.8,0.8-2.6,2.4-4.5,4.9c-0.2,0.3-3.6,5.4-6.4,13.1C20.7,74.8,21,83.3,21,83.4v0
				c0,2-0.1,3.9,0.1,5.9c0,0-0.1,0.1-0.1,0.1c0,0.2,0,0.5,0,0.7c0,0.1,0,0.3,0,0.4c0.2,1.2,0.5,2.5,0.7,3.7c0,0,0.1,0,0.1,0v0
				C26,95.3,50.3,100.9,77.5,97.2z M100.8,52c5.6,0,10.2,4.5,10.2,10.2c0,5.6-4.5,10.2-10.2,10.2s-10.2-4.5-10.2-10.2
				C90.6,56.6,95.2,52,100.8,52z M52.7,51.6c9.1,0,16.4,7.3,16.4,16.4s-7.3,16.4-16.4,16.4c-9.1,0-16.4-7.3-16.4-16.4
				C36.3,59,43.7,51.6,52.7,51.6z"/>
		</g>
	</g>
</g>
</svg>
