<svg xmlns="http://www.w3.org/2000/svg" xml:space="preserve" style="enable-background:new 0 0 470 470" viewBox="0 0 470 470"><path d="M416.942 101.456c0-14.402-9.935-26.525-23.311-29.884V60.695c13.375-3.359 23.311-15.481 23.311-29.884C416.942 13.822 403.12 0 386.131 0S355.32 13.822 355.32 30.812c0 14.403 9.935 26.526 23.312 29.884v10.876c-13.376 3.358-23.312 15.481-23.312 29.884s9.935 26.526 23.312 29.884v10.876c-13.376 3.358-23.312 15.481-23.312 29.884s9.935 26.526 23.312 29.884v10.876c-13.376 3.358-23.312 15.481-23.312 29.884s9.935 26.526 23.312 29.884v10.033c-14.979 2.082-26.551 14.967-26.551 30.51 0 11.883 6.766 22.208 16.644 27.347a144.466 144.466 0 0 1-3.198 7.51 30.676 30.676 0 0 0-9.513-1.51c-16.989 0-30.812 13.822-30.812 30.812a30.629 30.629 0 0 0 5.614 17.699 145.117 145.117 0 0 1-6.378 5.399c-5.554-5.407-13.13-8.747-21.475-8.747-16.989 0-30.812 13.822-30.812 30.812 0 1.445.108 2.865.301 4.257a143.161 143.161 0 0 1-8.461 2.004c-4.285-11.869-15.661-20.378-28.989-20.378s-24.704 8.508-28.989 20.378a143.957 143.957 0 0 1-8.461-2.004c.193-1.393.301-2.813.301-4.257 0-16.989-13.822-30.812-30.812-30.812-8.345 0-15.921 3.34-21.475 8.747a144.535 144.535 0 0 1-6.378-5.399 30.632 30.632 0 0 0 5.614-17.699c0-16.989-13.822-30.812-30.812-30.812-3.319 0-6.515.534-9.513 1.51a143.244 143.244 0 0 1-3.198-7.51c9.878-5.138 16.644-15.464 16.644-27.347 0-15.543-11.572-28.428-26.551-30.51v-10.033c13.376-3.358 23.312-15.481 23.312-29.884s-9.935-26.526-23.312-29.884v-10.876c13.376-3.358 23.312-15.481 23.312-29.884s-9.935-26.526-23.312-29.884V131.34c13.376-3.358 23.312-15.481 23.312-29.884s-9.935-26.526-23.312-29.884V60.696c13.376-3.358 23.312-15.481 23.312-29.884C114.68 13.822 100.858 0 83.869 0S53.058 13.822 53.058 30.812c0 14.402 9.935 26.525 23.311 29.884v10.877c-13.375 3.359-23.311 15.481-23.311 29.884s9.935 26.525 23.311 29.884v10.877c-13.375 3.359-23.311 15.481-23.311 29.884s9.935 26.525 23.311 29.884v10.877c-13.375 3.359-23.311 15.481-23.311 29.884s9.935 26.525 23.311 29.884v11.667c-11.709 4.369-20.072 15.663-20.072 28.877 0 16.789 13.5 30.476 30.214 30.796a158.627 158.627 0 0 0 5.165 12.146c-5.26 5.53-8.5 12.999-8.5 21.215 0 16.989 13.822 30.812 30.812 30.812 4.931 0 9.591-1.171 13.728-3.239a160.71 160.71 0 0 0 9.918 8.383 30.688 30.688 0 0 0-1.406 9.206c0 16.989 13.822 30.812 30.812 30.812 10.164 0 19.191-4.95 24.806-12.563a158.581 158.581 0 0 0 12.684 3.019C206.746 458.589 219.564 470 235 470s28.254-11.411 30.47-26.239a158.581 158.581 0 0 0 12.684-3.019c5.615 7.613 14.642 12.563 24.806 12.563 16.989 0 30.812-13.822 30.812-30.812 0-3.206-.493-6.298-1.406-9.206a160.415 160.415 0 0 0 9.918-8.383 30.616 30.616 0 0 0 13.728 3.239c16.989 0 30.812-13.822 30.812-30.812 0-8.216-3.239-15.686-8.5-21.215a158.23 158.23 0 0 0 5.165-12.146c16.714-.321 30.214-14.008 30.214-30.796 0-13.214-8.363-24.508-20.072-28.877V272.63c13.375-3.359 23.311-15.481 23.311-29.884s-9.935-26.525-23.311-29.884v-10.877c13.375-3.359 23.311-15.481 23.311-29.884s-9.935-26.525-23.311-29.884V131.34c13.376-3.359 23.311-15.481 23.311-29.884zM151.228 422.493c0-8.719 7.093-15.812 15.812-15.812s15.812 7.093 15.812 15.812-7.093 15.812-15.812 15.812-15.812-7.093-15.812-15.812zm-53.052-45.162c0-8.719 7.093-15.812 15.812-15.812s15.812 7.093 15.812 15.812-7.093 15.812-15.812 15.812-15.812-7.093-15.812-15.812zm-11.069-79.97c8.719 0 15.812 7.093 15.812 15.812s-7.093 15.812-15.812 15.812-15.812-7.093-15.812-15.812 7.094-15.812 15.812-15.812zm-3.238-70.427c8.718 0 15.811 7.093 15.811 15.812 0 8.716-7.088 15.806-15.801 15.811-8.733-.006-15.821-7.096-15.821-15.811 0-8.72 7.092-15.812 15.811-15.812zm0-70.645c8.718 0 15.811 7.093 15.811 15.812s-7.093 15.812-15.811 15.812c-8.719 0-15.812-7.093-15.812-15.812s7.093-15.812 15.812-15.812zm0-70.644c8.718 0 15.811 7.093 15.811 15.812 0 8.716-7.088 15.806-15.801 15.811-8.733-.006-15.821-7.096-15.821-15.811 0-8.72 7.092-15.812 15.811-15.812zm0-70.645c8.718 0 15.811 7.093 15.811 15.812s-7.093 15.812-15.811 15.812c-8.719 0-15.812-7.093-15.812-15.812S75.15 15 83.869 15zm135.319 424.188c0-8.719 7.093-15.812 15.812-15.812s15.812 7.093 15.812 15.812S243.719 455 235 455s-15.812-7.093-15.812-15.812zM386.131 85.645c8.719 0 15.812 7.093 15.812 15.812 0 8.715-7.087 15.805-15.801 15.811-8.733-.005-15.821-7.095-15.821-15.811-.001-8.72 7.092-15.812 15.81-15.812zm0-70.645c8.719 0 15.812 7.093 15.812 15.812s-7.093 15.812-15.812 15.812c-8.718 0-15.811-7.093-15.811-15.812S377.413 15 386.131 15zm0 172.912c-8.718 0-15.811-7.093-15.811-15.812s7.093-15.812 15.811-15.812c8.719 0 15.812 7.093 15.812 15.812s-7.093 15.812-15.812 15.812zm.01 70.644c-8.733-.005-15.821-7.095-15.821-15.811 0-8.719 7.093-15.812 15.811-15.812 8.719 0 15.812 7.093 15.812 15.812-.001 8.715-7.088 15.806-15.802 15.811zm-3.248 70.428c-8.719 0-15.812-7.093-15.812-15.812s7.093-15.812 15.812-15.812 15.812 7.093 15.812 15.812-7.094 15.812-15.812 15.812zm-26.88 64.159c-8.719 0-15.812-7.093-15.812-15.812s7.093-15.812 15.812-15.812 15.812 7.093 15.812 15.812-7.094 15.812-15.812 15.812zm-53.052 45.162c-8.719 0-15.812-7.093-15.812-15.812s7.093-15.812 15.812-15.812 15.812 7.093 15.812 15.812-7.093 15.812-15.812 15.812z"/><path d="M135.888 125.67c0 13.676 9.354 25.204 22 28.531v39.597c-11.54 4.007-19.85 14.983-19.85 27.871 0 16.267 13.233 29.5 29.5 29.5a29.8 29.8 0 0 0 3.221-.179 77.43 77.43 0 0 0 21.281 21.385 44.326 44.326 0 0 0-.349 5.448c0 24.298 19.769 44.066 44.066 44.066s44.066-19.769 44.066-44.066c0-1.845-.127-3.661-.349-5.447a77.43 77.43 0 0 0 21.281-21.385c1.058.115 2.131.179 3.22.179 16.267 0 29.5-13.233 29.5-29.5 0-12.887-8.309-23.863-19.849-27.87v-39.597c12.646-3.327 22-14.855 22-28.531s-9.354-25.204-22-28.531v-39.11c12.646-3.327 22-14.855 22-28.531 0-16.267-13.233-29.5-29.5-29.5s-29.5 13.233-29.5 29.5c0 13.676 9.354 25.204 22 28.531v39.108c-12.646 3.327-22 14.855-22 28.531s9.354 25.204 22 28.531v38.462c-13.721 2.524-24.151 14.565-24.151 29.005 0 9.684 4.691 18.291 11.918 23.673a62.396 62.396 0 0 1-11.662 11.951c-7.395-13.983-22.087-23.537-38.975-23.537s-31.579 9.554-38.975 23.537a62.424 62.424 0 0 1-11.662-11.951c7.228-5.382 11.918-13.989 11.918-23.673 0-14.439-10.43-26.48-24.15-29.005v-38.462c12.646-3.327 22-14.855 22-28.531s-9.354-25.204-22-28.531V58.031c12.646-3.327 22-14.855 22-28.531 0-16.267-13.233-29.5-29.5-29.5s-29.5 13.233-29.5 29.5c0 13.676 9.354 25.204 22 28.531v39.108c-12.645 3.327-21.999 14.855-21.999 28.531zm168.088 81.498c7.995 0 14.5 6.505 14.5 14.5s-6.505 14.5-14.5 14.5-14.5-6.505-14.5-14.5 6.504-14.5 14.5-14.5zm2.151-95.998c7.995 0 14.5 6.505 14.5 14.5s-6.505 14.5-14.5 14.5-14.5-6.505-14.5-14.5 6.505-14.5 14.5-14.5zm0-96.17c7.995 0 14.5 6.505 14.5 14.5s-6.505 14.5-14.5 14.5-14.5-6.505-14.5-14.5 6.505-14.5 14.5-14.5zm-70.37 233.755c16.027 0 29.066 13.039 29.066 29.066s-13.039 29.066-29.066 29.066-29.066-13.039-29.066-29.066 13.038-29.066 29.066-29.066zM165.388 140.17c-7.995 0-14.5-6.505-14.5-14.5s6.505-14.5 14.5-14.5 14.5 6.505 14.5 14.5-6.505 14.5-14.5 14.5zm2.15 95.998c-7.995 0-14.5-6.505-14.5-14.5s6.505-14.5 14.5-14.5 14.5 6.505 14.5 14.5-6.505 14.5-14.5 14.5zM165.388 15c7.995 0 14.5 6.505 14.5 14.5s-6.505 14.5-14.5 14.5-14.5-6.505-14.5-14.5 6.505-14.5 14.5-14.5z"/></svg>