<?xml version="1.0" encoding="iso-8859-1"?>
<!-- Generator: Adobe Illustrator 19.0.0, SVG Export Plug-In . SVG Version: 6.00 Build 0)  -->
<svg version="1.1" id="Layer_1" xmlns="http://www.w3.org/2000/svg" xmlns:xlink="http://www.w3.org/1999/xlink" x="0px" y="0px"
	 viewBox="-49 141 512 512" style="enable-background:new -49 141 512 512;" xml:space="preserve">
<g>
	<path d="M207,277c-41.355,0-75,33.645-75,75s33.645,75,75,75s75-33.645,75-75S248.355,277,207,277z M207,377
		c-13.785,0-25-11.215-25-25s11.215-25,25-25s25,11.215,25,25S220.785,377,207,377z"/>
	<path d="M363.271,205.729C321.529,163.988,266.031,141,207,141S92.471,163.988,50.729,205.729C8.988,247.471-14,302.969-14,362
		c0,90.223,91.834,177.338,165.624,247.337c13.584,12.885,26.413,25.056,37.698,36.341C194.204,650.559,200.602,653,207,653
		s12.796-2.441,17.678-7.322c11.285-11.285,24.114-23.456,37.698-36.341C336.166,539.338,428,452.223,428,362
		C428,302.969,405.012,247.471,363.271,205.729z M227.965,573.062c-7.226,6.854-14.235,13.506-20.965,19.976
		c-6.729-6.47-13.739-13.122-20.965-19.976c-34.277-32.516-73.128-69.371-102.711-107.003C51.479,425.548,36,391.51,36,362
		c0-94.29,76.71-171,171-171s171,76.71,171,171c0,29.51-15.479,63.548-47.324,104.058
		C301.093,503.691,262.242,540.545,227.965,573.062z"/>
</g>
</svg>
