<?xml version="1.0" encoding="iso-8859-1"?>
<!-- Generator: Adobe Illustrator 19.0.0, SVG Export Plug-In . SVG Version: 6.00 Build 0)  -->
<svg version="1.1" id="Layer_1" xmlns="http://www.w3.org/2000/svg" xmlns:xlink="http://www.w3.org/1999/xlink" x="0px" y="0px"
	 viewBox="0 0 512 512" style="enable-background:new 0 0 512 512;" xml:space="preserve">
<g>
	<path d="M256,136c-41.355,0-75,33.645-75,75s33.645,75,75,75s75-33.645,75-75S297.355,136,256,136z M256,236
		c-13.785,0-25-11.215-25-25s11.215-25,25-25s25,11.215,25,25S269.785,236,256,236z"/>
	<path d="M412.271,64.729C370.529,22.988,315.031,0,256,0S141.471,22.988,99.729,64.729C57.988,106.471,35,161.969,35,221
		c0,90.223,91.834,177.338,165.624,247.337c13.584,12.885,26.413,25.056,37.698,36.341C243.204,509.559,249.602,512,256,512
		s12.796-2.441,17.678-7.322c11.285-11.285,24.114-23.456,37.698-36.341C385.166,398.338,477,311.223,477,221
		C477,161.969,454.012,106.471,412.271,64.729z M276.965,432.062c-7.226,6.854-14.235,13.506-20.965,19.976
		c-6.729-6.47-13.739-13.122-20.965-19.976c-34.277-32.516-73.128-69.371-102.711-107.003C100.479,284.548,85,250.51,85,221
		c0-94.29,76.71-171,171-171s171,76.71,171,171c0,29.51-15.479,63.548-47.324,104.058
		C350.093,362.691,311.242,399.545,276.965,432.062z"/>
</g>
<g>
</g>
<g>
</g>
<g>
</g>
<g>
</g>
<g>
</g>
<g>
</g>
<g>
</g>
<g>
</g>
<g>
</g>
<g>
</g>
<g>
</g>
<g>
</g>
<g>
</g>
<g>
</g>
<g>
</g>
</svg>
