<svg id="Capa_1" enable-background="new 0 0 512 512" height="512" viewBox="0 0 512 512" width="512" xmlns="http://www.w3.org/2000/svg"><g><path d="m508.84 288.384c-1.981-1.405-4.522-1.766-6.817-.962-18.312 6.41-38.005 7.593-56.95 3.42l-71.358-15.715c-13.471-2.966-27.261-3.222-40.63-.925 9.06-10.279 18.772-23.223 28.284-39.375 23.674-39.338 61.841-79.868 98.295-110.456 21.13-18.303 35.135-30.434 31.648-43.795-.645-2.916-2.605-6.938-8.191-10.149-14.953-8.591-47.222-6.994-78.478 3.889-3.912 1.362-5.979 5.637-4.617 9.549 1.362 3.911 5.638 5.98 9.549 4.617 38.551-13.421 63.86-7.981 67.179-4.285.012.044.023.088.035.132.006.021.507 2.142-5.266 8.63-5.028 5.651-12.745 12.336-21.68 20.075-6.987 6.052-14.904 12.909-22.792 20.394-3.302 2.974-6.6 6.058-9.883 9.226-10.814-.728-21.787-.79-32.834-.14 6.482-5.269 13.197-10.268 20.142-14.96 3.433-2.318 4.335-6.98 2.017-10.413s-6.98-4.334-10.413-2.017c-25.291 17.084-47.758 37.96-66.692 61.637-.134-14.531.876-29.265 3.02-44.022 14.091-11.813 29.76-22.394 46.172-30.962 3.672-1.917 5.095-6.447 3.178-10.119-1.917-3.673-6.449-5.096-10.119-3.178-24.059 12.56-46.657 29.255-65.429 47.908-2.772-28.123-7.849-55.844-14.391-77.994-9.942-33.656-21.658-50.018-35.819-50.018-14.167 0-25.887 16.375-35.829 50.06-6.539 22.154-11.613 49.869-14.382 77.983-25.829-25.678-58.593-47.445-90.989-59.337-37.393-14.778-71.289-14.667-85.455-6.915-5.934 3.247-7.993 7.398-8.658 10.415-2.448 9.453 4.628 18.344 11.091 25.049 2.874 2.983 7.622 3.07 10.605.196 2.982-2.875 3.069-7.622.195-10.605-7.976-8.274-7.374-10.868-7.367-10.894.013-.043.024-.087.035-.132 3.631-4.067 32.509-9.601 74.123 6.868.059.023.119.046.179.068 24.302 8.908 48.81 23.714 70.038 41.562 2.149 14.772 3.161 29.521 3.027 44.067-18.933-23.677-41.4-44.553-66.692-61.637-3.433-2.317-8.095-1.417-10.413 2.017-2.318 3.433-1.416 8.095 2.017 10.413 6.945 4.691 13.66 9.69 20.141 14.959-11.047-.649-22.02-.587-32.835.141-3.283-3.167-6.582-6.252-9.884-9.226-6.175-5.861-12.314-11.278-16.979-15.348-3.12-2.721-7.858-2.399-10.582.721-2.723 3.121-2.4 7.858.721 10.582 33.56 28.42 70.38 68.67 92.523 105.445 9.519 16.163 19.237 29.108 28.285 39.374-13.369-2.297-27.16-2.042-40.631.926l-71.358 15.715c-18.944 4.171-38.639 2.989-56.95-3.42-2.293-.803-4.834-.443-6.817.962-1.981 1.407-3.159 3.686-3.159 6.116v70.836c0 66.873 47.735 124.195 113.504 136.3 7.195 1.324 14.444 1.986 21.696 1.986 6.876 0 13.756-.596 20.589-1.787 4.08-.712 6.812-4.597 6.1-8.678-.712-4.08-4.589-6.812-8.678-6.1-12.279 2.142-24.727 2.083-36.992-.174-15.304-2.817-29.509-8.384-42.152-16.126 4.527-7.22 6.961-15.593 6.961-24.257 0-19.384-11.88-36.177-29.558-42.784-.321-10.486-4.958-19.904-12.203-26.523 4.171-5.022 6.561-11.409 6.561-18.197 0-6.167-2.008-12.039-5.536-16.85 3.434-2.443 6.491-5.379 9.065-8.71 5.227 2.649 11.05 4.064 16.971 4.064 20.678 0 37.5-16.822 37.5-37.5 0-.639-.029-1.276-.061-1.913l37.747-8.313c8.514-1.875 17.176-2.479 25.734-1.891-.161 1.508-.247 3.026-.247 4.553 0 22.738 17.949 41.36 40.422 42.447 5.097 12.406 14.81 22.435 26.992 27.954-3.851 4.765-6.164 10.822-6.164 17.412 0 7.778 3.22 14.814 8.393 19.857-13.35 10.777-21.21 32.297-21.999 53.906-2.762 1.934-5.404 4.07-7.903 6.403-6.814 6.36-14.445 11.783-22.682 16.12-3.665 1.931-5.072 6.466-3.143 10.131 1.932 3.666 6.47 5.07 10.131 3.143 9.416-4.958 18.14-11.158 25.928-18.427 10.628-9.92 24.487-15.383 39.024-15.383s28.396 5.463 39.024 15.383c22.319 20.83 51.847 32.214 81.966 32.212 7.163 0 14.365-.645 21.506-1.959 65.769-12.103 113.504-69.426 113.504-136.299v-70.836c0-2.43-1.178-4.709-3.16-6.117zm-465.637 19.889c-.291 14.533-13.098 27.145-28.203 26.709v-30.389c9.242 2.355 18.709 3.58 28.203 3.68zm-6.704 96.605c0 6.631-2.93 12.82-7.797 17.032-6.267-12.158-10.562-25.449-12.51-39.424 11.381 1.107 20.307 10.726 20.307 22.392zm29.528 41.623c0 5.56-1.498 10.939-4.281 15.637-9.767-7.761-18.294-16.949-25.297-27.223 5.514-4.13 9.748-9.698 12.304-16.023 10.314 5.07 17.274 15.772 17.274 27.609zm-35.2-87.503c0 4.062-1.803 7.823-4.84 10.357-3.458-1.17-7.14-1.847-10.964-1.951-.011-.688-.023-1.376-.023-2.067v-15.356c2.888.074 6.525-.234 11.081-1.262 2.977 2.539 4.746 6.283 4.746 10.279zm35.5-36.497c-3.55 0-6.941-.819-10.023-2.362 1.246-3.994 1.919-8.239 1.919-12.638 0-.007 0-.015 0-.022 3.996-.464 7.979-1.118 11.932-1.989l18.626-4.102c-.72 11.763-10.514 21.113-22.454 21.113zm416.971 99.41c-4.867-4.212-7.797-10.401-7.797-17.032 0-11.666 8.926-21.285 20.307-22.392-1.948 13.974-6.243 27.265-12.51 39.424zm2.715-52.556c-3.036-2.535-4.84-6.296-4.84-10.357 0-3.995 1.769-7.739 4.747-10.278 2.27.561 6.711 1.341 11.081 1.262-.017 5.066.035 12.974-.023 17.423-3.825.103-7.507.78-10.965 1.95zm10.987-34.373c-14.597.563-27.812-11.742-28.203-26.708 9.493-.101 18.959-1.326 28.203-3.682zm-43.222-27.503v.022c0 4.399.672 8.644 1.919 12.638-3.082 1.543-6.473 2.362-10.023 2.362-11.94 0-21.733-9.351-22.453-21.113l18.626 4.102c3.952.872 7.935 1.526 11.931 1.989zm-123.778-15.041c0 13.17-9.309 24.203-21.692 26.877.116-1.424.192-2.86.192-4.314 0-4.918-.994-10.097-2.688-15.358 6.363-3.537 15.283-7.439 24.088-9.505.063.763.1 1.529.1 2.3zm-29.253-38.677c14.26-8.509 29.06-15.454 44.188-20.755-16.568 26.607-33.25 43.002-45.141 52.478-2.021-3.907-4.287-7.772-6.687-11.524 2.295-6.834 4.838-13.575 7.64-20.199zm64.562-94.316c12.594-1.726 25.17-2.501 37.572-2.352-16.798 17.766-32.621 37.321-45.572 56.4-15.509 4.162-30.761 9.929-45.563 17.225 14.038-26.351 32.149-50.448 53.563-71.273zm-82.795 99.539c-6.922-8.97-13.595-16.332-17.662-20.627 2.754-16.793 9.683-34.24 20.63-51.917.025-.041.05-.083.075-.124 7.746-13.07 17.976-25.975 29.952-38.057-1.398 16.081-1.506 32.07-.313 47.75-13.288 19.59-24.301 40.732-32.682 62.975zm9.901-107.719c-7.57 8.892-14.226 18.072-19.724 27.34-3.427 5.538-6.484 11.069-9.191 16.584v-39.385l24.111-46.405c2.166 13.691 3.815 27.938 4.804 41.866zm-14.983-88.622c2.059 6.973 3.978 14.659 5.729 22.787l-19.661 37.84v-93.477c3.988 5.71 8.911 15.853 13.932 32.85zm-28.932-32.851v93.516l-19.674-37.813c1.752-8.136 3.671-15.831 5.731-22.813 5.024-17.022 9.951-27.176 13.943-32.89zm-24.119 79.66 24.119 46.355v39.383c-2.708-5.515-5.764-11.046-9.19-16.584-5.498-9.268-12.162-18.444-19.726-27.319.988-13.917 2.635-28.154 4.797-41.835zm-27.89 38.817c11.914 12.039 22.187 24.947 29.952 38.047.025.041.05.083.075.124 10.947 17.677 17.876 35.125 20.63 51.917-4.067 4.295-10.74 11.657-17.662 20.627-8.38-22.243-19.394-43.385-32.683-62.976 1.193-15.676 1.085-31.661-.312-47.739zm22.401 125.693c-2.4 3.752-4.666 7.617-6.687 11.524-11.792-9.396-28.521-25.793-45.14-52.479 15.128 5.301 29.928 12.246 44.188 20.755 2.802 6.623 5.345 13.364 7.639 20.2zm-72.2-114.517c21.414 20.825 39.525 44.922 53.563 71.273-14.803-7.296-30.054-13.063-45.564-17.225-12.951-19.078-28.774-38.633-45.571-56.399 12.402-.149 24.977.627 37.572 2.351zm35.308 132.993c0-.771.038-1.537.101-2.3 7.006 1.627 16.448 5.207 24.087 9.506-1.694 5.261-2.688 10.44-2.688 15.358 0 1.454.075 2.889.192 4.314-12.383-2.675-21.692-13.708-21.692-26.878zm36.5 22.563c0-19.249 23.604-48.988 37.5-64.133 13.896 15.146 37.5 44.884 37.5 64.133 0 20.678-16.822 37.5-37.5 37.5s-37.5-16.822-37.5-37.5zm50.25 65.25c0 7.03-5.72 12.75-12.75 12.75s-12.75-5.72-12.75-12.75 5.72-12.75 12.75-12.75 12.75 5.72 12.75 12.75zm-38.334 65.434c3.011-21.101 13.69-37.684 25.608-37.684 11.92 0 22.597 16.596 25.578 37.69-8.095-3.07-16.746-4.69-25.602-4.69-8.849 0-17.494 1.619-25.584 4.684zm165.365 41.2c-32.515 5.984-66.354-3.909-90.522-26.468-2.497-2.331-5.137-4.465-7.896-6.398-.756-21.61-8.614-43.156-21.984-53.932 5.16-5.042 8.371-12.069 8.371-19.836 0-6.59-2.313-12.647-6.164-17.412 12.182-5.519 21.895-15.549 26.992-27.954 22.473-1.087 40.422-19.709 40.422-42.447 0-1.526-.087-3.044-.248-4.551 8.559-.589 17.222.016 25.735 1.889l37.747 8.313c-.032.637-.061 1.274-.061 1.913 0 20.678 16.822 37.5 37.5 37.5 5.921 0 11.744-1.415 16.971-4.064 2.574 3.331 5.631 6.267 9.065 8.71-3.528 4.811-5.536 10.683-5.536 16.85 0 6.788 2.389 13.175 6.561 18.197-7.245 6.618-11.882 16.036-12.203 26.523-17.678 6.607-29.558 23.4-29.558 42.784 0 8.665 2.434 17.038 6.961 24.257-12.644 7.742-26.849 13.31-42.153 16.126zm54.473-24.747c-2.784-4.698-4.281-10.077-4.281-15.637 0-11.838 6.96-22.54 17.275-27.609 2.556 6.325 6.79 11.893 12.304 16.023-7.004 10.274-15.531 19.462-25.298 27.223z"/><path d="m278.5 315.001c0-12.948-13.839-31.133-16.613-34.647-1.4-1.774-3.527-2.852-5.787-2.852-1.662 0-4.201.685-5.861 2.697-1.713 2.057-16.738 20.499-16.738 34.802 0 12.406 10.094 22.5 22.5 22.5s22.499-10.093 22.499-22.5zm-30 0c0-4.253 3.456-11.103 7.391-17.158 4.004 6.275 7.609 13.311 7.609 17.158 0 4.136-3.364 7.5-7.5 7.5s-7.5-3.364-7.5-7.5z"/><path d="m442.076 354.368c-.625-.296-15.532-7.293-35.87-11.299-4.062-.803-8.007 1.845-8.808 5.909-.801 4.063 1.845 8.008 5.909 8.808 11.63 2.291 21.422 5.708 27.091 7.931-2.411 10.307-10.033 32.682-31.915 42.279-14.569 6.39-40.506 7.419-71.163 2.822-3.762-.564-6.404-4.092-5.89-7.863 1.858-13.62 7.535-31.637 24.026-40.124 7.387-3.801 15.896-6.184 25.294-7.08 4.124-.394 7.147-4.055 6.754-8.178-.394-4.124-4.075-7.156-8.178-6.754-11.305 1.078-21.645 3.997-30.733 8.674-17.345 8.927-28.718 27.193-32.024 51.435-1.619 11.857 6.692 22.949 18.526 24.725 9.613 1.441 23.256 2.993 37.427 2.993 14.742 0 30.056-1.681 41.986-6.913 36.853-16.163 41.631-58.032 41.815-59.807.332-3.166-1.371-6.195-4.247-7.558z"/><path d="m186.904 425.652c11.834-1.775 20.146-12.867 18.526-24.725-3.307-24.241-14.68-42.508-32.024-51.435-44.158-22.728-101.081 3.737-103.482 4.875-2.876 1.362-4.579 4.393-4.248 7.558.185 1.774 4.963 43.644 41.815 59.807 11.933 5.233 27.242 6.913 41.986 6.913 14.169 0 27.815-1.552 37.427-2.993zm-105.3-59.927c14.229-5.553 54.425-18.601 84.938-2.895 16.491 8.487 22.168 26.504 24.026 40.124.515 3.771-2.128 7.299-5.89 7.863-30.654 4.596-56.593 3.567-71.163-2.822-21.874-9.594-29.498-31.96-31.911-42.27z"/><path d="m343.261 446.105h-.01c-4.142 0-7.495 3.357-7.495 7.5s3.363 7.5 7.505 7.5c4.143 0 7.5-3.357 7.5-7.5s-3.358-7.5-7.5-7.5z"/><path d="m373.261 452.105h-.01c-4.142 0-7.495 3.357-7.495 7.5s3.363 7.5 7.505 7.5c4.143 0 7.5-3.357 7.5-7.5s-3.358-7.5-7.5-7.5z"/><path d="m403.261 444.105h-.01c-4.142 0-7.495 3.357-7.495 7.5s3.363 7.5 7.505 7.5c4.143 0 7.5-3.357 7.5-7.5s-3.358-7.5-7.5-7.5z"/><path d="m168.778 446.105h-.01c-4.142 0-7.495 3.357-7.495 7.5s3.363 7.5 7.505 7.5c4.143 0 7.5-3.357 7.5-7.5s-3.357-7.5-7.5-7.5z"/><path d="m138.769 452.105c-4.142 0-7.495 3.357-7.495 7.5s3.363 7.5 7.505 7.5c4.143 0 7.5-3.357 7.5-7.5s-3.357-7.5-7.5-7.5z"/><path d="m108.769 444.105c-4.142 0-7.495 3.357-7.495 7.5s3.363 7.5 7.505 7.5c4.143 0 7.5-3.357 7.5-7.5s-3.357-7.5-7.5-7.5z"/></g></svg>