<svg xmlns="http://www.w3.org/2000/svg" width="512" height="512"><path d="M508.84 288.384a7.5 7.5 0 0 0-6.817-.962 104.328 104.328 0 0 1-56.95 3.42l-71.358-15.715a105.665 105.665 0 0 0-40.63-.925c9.06-10.279 18.772-23.223 28.284-39.375 23.674-39.338 61.841-79.868 98.295-110.456 21.13-18.303 35.135-30.434 31.648-43.795-.645-2.916-2.605-6.938-8.191-10.149-14.953-8.591-47.222-6.994-78.478 3.889a7.5 7.5 0 0 0 4.932 14.166c38.551-13.421 63.86-7.981 67.179-4.285l.035.132c.006.021.507 2.142-5.266 8.63-5.028 5.651-12.745 12.336-21.68 20.075-6.987 6.052-14.904 12.909-22.792 20.394a393.682 393.682 0 0 0-9.883 9.226 260.852 260.852 0 0 0-32.834-.14 283.974 283.974 0 0 1 20.142-14.96 7.5 7.5 0 1 0-8.396-12.43c-25.291 17.084-47.758 37.96-66.692 61.637-.134-14.531.876-29.265 3.02-44.022 14.091-11.813 29.76-22.394 46.172-30.962a7.5 7.5 0 0 0 3.178-10.119 7.498 7.498 0 0 0-10.119-3.178c-24.059 12.56-46.657 29.255-65.429 47.908-2.772-28.123-7.849-55.844-14.391-77.994C281.877 24.738 270.161 8.376 256 8.376c-14.167 0-25.887 16.375-35.829 50.06-6.539 22.154-11.613 49.869-14.382 77.983-25.829-25.678-58.593-47.445-90.989-59.337-37.393-14.778-71.289-14.667-85.455-6.915-5.934 3.247-7.993 7.398-8.658 10.415-2.448 9.453 4.628 18.344 11.091 25.049a7.5 7.5 0 1 0 10.8-10.409c-7.976-8.274-7.374-10.868-7.367-10.894.013-.043.024-.087.035-.132 3.631-4.067 32.509-9.601 74.123 6.868l.179.068c24.302 8.908 48.81 23.714 70.038 41.562 2.149 14.772 3.161 29.521 3.027 44.067-18.933-23.677-41.4-44.553-66.692-61.637a7.5 7.5 0 0 0-10.413 2.017 7.5 7.5 0 0 0 2.017 10.413 283.407 283.407 0 0 1 20.141 14.959 261.057 261.057 0 0 0-32.835.141 395.577 395.577 0 0 0-9.884-9.226c-6.175-5.861-12.314-11.278-16.979-15.348a7.5 7.5 0 0 0-9.861 11.303c33.56 28.42 70.38 68.67 92.523 105.445 9.519 16.163 19.237 29.108 28.285 39.374a105.631 105.631 0 0 0-40.631.926l-71.358 15.715a104.356 104.356 0 0 1-56.95-3.42 7.504 7.504 0 0 0-6.817.962A7.502 7.502 0 0 0 0 294.501v70.836c0 66.873 47.735 124.195 113.504 136.3a119.778 119.778 0 0 0 21.696 1.986c6.876 0 13.756-.596 20.589-1.787a7.501 7.501 0 0 0-2.578-14.778 104.518 104.518 0 0 1-36.992-.174 123.34 123.34 0 0 1-42.152-16.126 45.585 45.585 0 0 0 6.961-24.257c0-19.384-11.88-36.177-29.558-42.784-.321-10.486-4.958-19.904-12.203-26.523a28.423 28.423 0 0 0 6.561-18.197 28.483 28.483 0 0 0-5.536-16.85 42.847 42.847 0 0 0 9.065-8.71 37.59 37.59 0 0 0 16.971 4.064c20.678 0 37.5-16.822 37.5-37.5 0-.639-.029-1.276-.061-1.913l37.747-8.313a90.693 90.693 0 0 1 25.734-1.891 42.864 42.864 0 0 0-.247 4.553c0 22.738 17.949 41.36 40.422 42.447 5.097 12.406 14.81 22.435 26.992 27.954a27.613 27.613 0 0 0-6.164 17.412c0 7.778 3.22 14.814 8.393 19.857-13.35 10.777-21.21 32.297-21.999 53.906a72.6 72.6 0 0 0-7.903 6.403 104.821 104.821 0 0 1-22.682 16.12 7.502 7.502 0 0 0-3.143 10.131 7.504 7.504 0 0 0 10.131 3.143 119.841 119.841 0 0 0 25.928-18.427C227.604 461.463 241.463 456 256 456s28.396 5.463 39.024 15.383c22.319 20.83 51.847 32.214 81.966 32.212 7.163 0 14.365-.645 21.506-1.959C464.265 489.533 512 432.21 512 365.337v-70.836a7.504 7.504 0 0 0-3.16-6.117zM43.203 308.273c-.291 14.533-13.098 27.145-28.203 26.709v-30.389a119.285 119.285 0 0 0 28.203 3.68zm-6.704 96.605c0 6.631-2.93 12.82-7.797 17.032a123.075 123.075 0 0 1-12.51-39.424c11.381 1.107 20.307 10.726 20.307 22.392zm29.528 41.623c0 5.56-1.498 10.939-4.281 15.637a123.938 123.938 0 0 1-25.297-27.223 37.629 37.629 0 0 0 12.304-16.023c10.314 5.07 17.274 15.772 17.274 27.609zm-35.2-87.503c0 4.062-1.803 7.823-4.84 10.357a37.324 37.324 0 0 0-10.964-1.951c-.011-.688-.023-1.376-.023-2.067v-15.356c2.888.074 6.525-.234 11.081-1.262a13.516 13.516 0 0 1 4.746 10.279zm35.5-36.497c-3.55 0-6.941-.819-10.023-2.362a42.371 42.371 0 0 0 1.919-12.638v-.022a119.47 119.47 0 0 0 11.932-1.989l18.626-4.102c-.72 11.763-10.514 21.113-22.454 21.113zm416.971 99.41a22.548 22.548 0 0 1-7.797-17.032c0-11.666 8.926-21.285 20.307-22.392a123.09 123.09 0 0 1-12.51 39.424zm2.715-52.556a13.462 13.462 0 0 1-4.84-10.357c0-3.995 1.769-7.739 4.747-10.278 2.27.561 6.711 1.341 11.081 1.262-.017 5.066.035 12.974-.023 17.423-3.825.103-7.507.78-10.965 1.95zM497 334.982c-14.597.563-27.812-11.742-28.203-26.708A119.307 119.307 0 0 0 497 304.592zm-43.222-27.503v.022c0 4.399.672 8.644 1.919 12.638a22.266 22.266 0 0 1-10.023 2.362c-11.94 0-21.733-9.351-22.453-21.113l18.626 4.102a118.83 118.83 0 0 0 11.931 1.989zM330 292.438c0 13.17-9.309 24.203-21.692 26.877.116-1.424.192-2.86.192-4.314 0-4.918-.994-10.097-2.688-15.358 6.363-3.537 15.283-7.439 24.088-9.505.063.763.1 1.529.1 2.3zm-29.253-38.677c14.26-8.509 29.06-15.454 44.188-20.755-16.568 26.607-33.25 43.002-45.141 52.478-2.021-3.907-4.287-7.772-6.687-11.524a283.52 283.52 0 0 1 7.64-20.199zm64.562-94.316a254.405 254.405 0 0 1 37.572-2.352c-16.798 17.766-32.621 37.321-45.572 56.4-15.509 4.162-30.761 9.929-45.563 17.225a289.217 289.217 0 0 1 53.563-71.273zm-82.795 99.539c-6.922-8.97-13.595-16.332-17.662-20.627 2.754-16.793 9.683-34.24 20.63-51.917l.075-.124c7.746-13.07 17.976-25.975 29.952-38.057-1.398 16.081-1.506 32.07-.313 47.75-13.288 19.59-24.301 40.732-32.682 62.975zm9.901-107.719c-7.57 8.892-14.226 18.072-19.724 27.34a193.792 193.792 0 0 0-9.191 16.584v-39.385l24.111-46.405a495.019 495.019 0 0 1 4.804 41.866zm-14.983-88.622c2.059 6.973 3.978 14.659 5.729 22.787L263.5 123.27V29.793c3.988 5.71 8.911 15.853 13.932 32.85zM248.5 29.792v93.516l-19.674-37.813c1.752-8.136 3.671-15.831 5.731-22.813 5.024-17.022 9.951-27.176 13.943-32.89zm-24.119 79.66 24.119 46.355v39.383a194.326 194.326 0 0 0-9.19-16.584c-5.498-9.268-12.162-18.444-19.726-27.319a495.561 495.561 0 0 1 4.797-41.835zm-27.89 38.817c11.914 12.039 22.187 24.947 29.952 38.047l.075.124c10.947 17.677 17.876 35.125 20.63 51.917-4.067 4.295-10.74 11.657-17.662 20.627-8.38-22.243-19.394-43.385-32.683-62.976 1.193-15.676 1.085-31.661-.312-47.739zm22.401 125.693c-2.4 3.752-4.666 7.617-6.687 11.524-11.792-9.396-28.521-25.793-45.14-52.479 15.128 5.301 29.928 12.246 44.188 20.755a282.51 282.51 0 0 1 7.639 20.2zm-72.2-114.517a289.217 289.217 0 0 1 53.563 71.273c-14.803-7.296-30.054-13.063-45.564-17.225-12.951-19.078-28.774-38.633-45.571-56.399a254.684 254.684 0 0 1 37.572 2.351zM182 292.438c0-.771.038-1.537.101-2.3 7.006 1.627 16.448 5.207 24.087 9.506-1.694 5.261-2.688 10.44-2.688 15.358 0 1.454.075 2.889.192 4.314C191.309 316.641 182 305.608 182 292.438zm36.5 22.563c0-19.249 23.604-48.988 37.5-64.133 13.896 15.146 37.5 44.884 37.5 64.133 0 20.678-16.822 37.5-37.5 37.5s-37.5-16.822-37.5-37.5zm50.25 65.25c0 7.03-5.72 12.75-12.75 12.75s-12.75-5.72-12.75-12.75 5.72-12.75 12.75-12.75 12.75 5.72 12.75 12.75zm-38.334 65.434c3.011-21.101 13.69-37.684 25.608-37.684 11.92 0 22.597 16.596 25.578 37.69a72.122 72.122 0 0 0-25.602-4.69 72.138 72.138 0 0 0-25.584 4.684zm165.365 41.2c-32.515 5.984-66.354-3.909-90.522-26.468a72.693 72.693 0 0 0-7.896-6.398c-.756-21.61-8.614-43.156-21.984-53.932 5.16-5.042 8.371-12.069 8.371-19.836 0-6.59-2.313-12.647-6.164-17.412 12.182-5.519 21.895-15.549 26.992-27.954C327.051 333.798 345 315.176 345 292.438c0-1.526-.087-3.044-.248-4.551a90.73 90.73 0 0 1 25.735 1.889l37.747 8.313a38.109 38.109 0 0 0-.061 1.913c0 20.678 16.822 37.5 37.5 37.5a37.59 37.59 0 0 0 16.971-4.064 42.847 42.847 0 0 0 9.065 8.71 28.483 28.483 0 0 0-5.536 16.85 28.418 28.418 0 0 0 6.561 18.197c-7.245 6.618-11.882 16.036-12.203 26.523-17.678 6.607-29.558 23.4-29.558 42.784a45.58 45.58 0 0 0 6.961 24.257 123.334 123.334 0 0 1-42.153 16.126zm54.473-24.747a30.625 30.625 0 0 1-4.281-15.637c0-11.838 6.96-22.54 17.275-27.609a37.629 37.629 0 0 0 12.304 16.023 123.967 123.967 0 0 1-25.298 27.223z"/><path d="M278.5 315.001c0-12.948-13.839-31.133-16.613-34.647-1.4-1.774-3.527-2.852-5.787-2.852-1.662 0-4.201.685-5.861 2.697-1.713 2.057-16.738 20.499-16.738 34.802 0 12.406 10.094 22.5 22.5 22.5s22.499-10.093 22.499-22.5zm-30 0c0-4.253 3.456-11.103 7.391-17.158 4.004 6.275 7.609 13.311 7.609 17.158 0 4.136-3.364 7.5-7.5 7.5s-7.5-3.364-7.5-7.5zM442.076 354.368c-.625-.296-15.532-7.293-35.87-11.299-4.062-.803-8.007 1.845-8.808 5.909a7.5 7.5 0 0 0 5.909 8.808c11.63 2.291 21.422 5.708 27.091 7.931-2.411 10.307-10.033 32.682-31.915 42.279-14.569 6.39-40.506 7.419-71.163 2.822-3.762-.564-6.404-4.092-5.89-7.863 1.858-13.62 7.535-31.637 24.026-40.124 7.387-3.801 15.896-6.184 25.294-7.08a7.5 7.5 0 0 0 6.754-8.178c-.394-4.124-4.075-7.156-8.178-6.754-11.305 1.078-21.645 3.997-30.733 8.674-17.345 8.927-28.718 27.193-32.024 51.435-1.619 11.857 6.692 22.949 18.526 24.725 9.613 1.441 23.256 2.993 37.427 2.993 14.742 0 30.056-1.681 41.986-6.913 36.853-16.163 41.631-58.032 41.815-59.807a7.498 7.498 0 0 0-4.247-7.558zM186.904 425.652c11.834-1.775 20.146-12.867 18.526-24.725-3.307-24.241-14.68-42.508-32.024-51.435-44.158-22.728-101.081 3.737-103.482 4.875a7.5 7.5 0 0 0-4.248 7.558c.185 1.774 4.963 43.644 41.815 59.807 11.933 5.233 27.242 6.913 41.986 6.913 14.169 0 27.815-1.552 37.427-2.993zm-105.3-59.927c14.229-5.553 54.425-18.601 84.938-2.895 16.491 8.487 22.168 26.504 24.026 40.124.515 3.771-2.128 7.299-5.89 7.863-30.654 4.596-56.593 3.567-71.163-2.822-21.874-9.594-29.498-31.96-31.911-42.27zM343.261 446.105h-.01c-4.142 0-7.495 3.357-7.495 7.5s3.363 7.5 7.505 7.5c4.143 0 7.5-3.357 7.5-7.5s-3.358-7.5-7.5-7.5zM373.261 452.105h-.01c-4.142 0-7.495 3.357-7.495 7.5s3.363 7.5 7.505 7.5c4.143 0 7.5-3.357 7.5-7.5s-3.358-7.5-7.5-7.5zM403.261 444.105h-.01c-4.142 0-7.495 3.357-7.495 7.5s3.363 7.5 7.505 7.5c4.143 0 7.5-3.357 7.5-7.5s-3.358-7.5-7.5-7.5zM168.778 446.105h-.01c-4.142 0-7.495 3.357-7.495 7.5s3.363 7.5 7.505 7.5c4.143 0 7.5-3.357 7.5-7.5s-3.357-7.5-7.5-7.5zM138.769 452.105c-4.142 0-7.495 3.357-7.495 7.5s3.363 7.5 7.505 7.5c4.143 0 7.5-3.357 7.5-7.5s-3.357-7.5-7.5-7.5zM108.769 444.105c-4.142 0-7.495 3.357-7.495 7.5s3.363 7.5 7.505 7.5c4.143 0 7.5-3.357 7.5-7.5s-3.357-7.5-7.5-7.5z"/></svg>