<?xml version="1.0" encoding="iso-8859-1"?>
<!-- Generator: Adobe Illustrator 19.0.0, SVG Export Plug-In . SVG Version: 6.00 Build 0)  -->
<svg version="1.1" id="Layer_1" xmlns="http://www.w3.org/2000/svg" xmlns:xlink="http://www.w3.org/1999/xlink" x="0px" y="0px"
	 viewBox="0 0 370.002 370.002" style="enable-background:new 0 0 370.002 370.002;" xml:space="preserve">
<g>
	<g>
		<g>
			<path style="fill:#231F20;" d="M167.875,78.071c3.025-2.422,2.201-7.214-1.427-8.574C87.263,39.806,3.129,97.442,0.087,180.382
				c-3.224,87.872,84.235,150.9,166.349,120.12c3.634-1.362,4.472-6.151,1.441-8.577C99.152,236.917,99.241,133.008,167.875,78.071z
				"/>
		</g>
	</g>
	<g>
		<g>
			<path style="fill:#231F20;" d="M223.408,71.988c-3.831,1.01-5.052,5.8-2.163,8.511c60.369,56.669,60.498,152.202,0.003,208.992
				c-2.88,2.704-1.682,7.5,2.137,8.508c74.726,19.721,147.693-37.611,146.605-114.682C368.93,108.259,297.149,52.543,223.408,71.988
				z"/>
		</g>
	</g>
	<g>
		<g>
			<path style="fill:#231F20;" d="M196.96,283.819c-1.669,1.248-3.931,1.354-5.697,0.248c-73.241-45.894-73.216-152.262,0-198.14
				c1.766-1.107,4.028-1,5.697,0.248C263.164,135.659,263.1,234.383,196.96,283.819z"/>
		</g>
	</g>
</g>
<g>
</g>
<g>
</g>
<g>
</g>
<g>
</g>
<g>
</g>
<g>
</g>
<g>
</g>
<g>
</g>
<g>
</g>
<g>
</g>
<g>
</g>
<g>
</g>
<g>
</g>
<g>
</g>
<g>
</g>
</svg>
