<svg xmlns="http://www.w3.org/2000/svg" viewBox="0 0 370.002 370.002"><path d="M167.875 78.071c3.025-2.422 2.201-7.214-1.427-8.574C87.263 39.806 3.129 97.442.087 180.382c-3.224 87.872 84.235 150.9 166.349 120.12 3.634-1.362 4.472-6.151 1.441-8.577-68.725-55.008-68.636-158.917-.002-213.854zM223.408 71.988c-3.831 1.01-5.052 5.8-2.163 8.511 60.369 56.669 60.498 152.202.003 208.992-2.88 2.704-1.682 7.5 2.137 8.508 74.726 19.721 147.693-37.611 146.605-114.682-1.06-75.058-72.841-130.774-146.582-111.329z" fill="#231f20"/><path d="M196.96 283.819a5.042 5.042 0 0 1-5.697.248c-73.241-45.894-73.216-152.262 0-198.14a5.04 5.04 0 0 1 5.697.248c66.204 49.484 66.14 148.208 0 197.644z" fill="#231f20"/></svg>