<?xml version="1.0" encoding="utf-8"?>
<!-- Generator: Adobe Illustrator 26.0.2, SVG Export Plug-In . SVG Version: 6.00 Build 0)  -->
<svg version="1.1" id="Capa_1" xmlns="http://www.w3.org/2000/svg" xmlns:xlink="http://www.w3.org/1999/xlink" x="0px" y="0px"
	 viewBox="0 0 512 512" style="enable-background:new 0 0 512 512;" xml:space="preserve">
<g>
	<path d="M437.5,103.9h-85v-29c0-35.8-29.2-65-65-65h-62c-35.8,0-65,29.2-65,65v29h-85c-35.8,0-65,29.2-65,65v268
		c0,35.8,29.2,65,65,65h362c35.8,0,65-29.2,65-65v-268C502.5,133,473.3,103.9,437.5,103.9z M210.5,74.9c0-8.3,6.7-15,15-15h62
		c8.3,0,15,6.7,15,15v29h-92V74.9z M452.5,436.9c0,8.3-6.7,15-15,15h-362c-8.3,0-15-6.7-15-15v-268c0-8.3,6.7-15,15-15h362
		c8.3,0,15,6.7,15,15V436.9z"/>
	<path d="M315.5,283.9h-35v-35c0-13.8-11.2-25-25-25s-25,11.2-25,25v35h-35c-13.8,0-25,11.2-25,25s11.2,25,25,25h35v35
		c0,13.8,11.2,25,25,25s25-11.2,25-25v-35h35c13.8,0,25-11.2,25-25S329.3,283.9,315.5,283.9z"/>
</g>
</svg>
