<?xml version="1.0" encoding="utf-8"?>
<!-- Generator: Adobe Illustrator 26.0.2, SVG Export Plug-In . SVG Version: 6.00 Build 0)  -->
<svg version="1.1" id="Capa_1" xmlns="http://www.w3.org/2000/svg" xmlns:xlink="http://www.w3.org/1999/xlink" x="0px" y="0px"
	 viewBox="0 0 512 512" style="enable-background:new 0 0 512 512;" xml:space="preserve">
<path d="M512.5,159.4c0-41.4-33.6-75-75-75s-75,33.6-75,75c0,33,21.4,61,51,71v109c0,67.5-55,122.5-122.5,122.5
	c-67.5,0-122.5-55-122.5-122.5v-30.1c67.5-11.7,119-70.6,119-141.4v-103c0-35.8-29.2-65-65-65h-10c-13.8,0-25,11.2-25,25
	s11.2,25,25,25h10c8.3,0,15,6.7,15,15v103c0,51.6-41.9,93.5-93.5,93.5s-93.5-41.9-93.5-93.5v-103c0-8.3,6.7-15,15-15h10
	c13.8,0,25-11.2,25-25s-11.2-25-25-25h-10c-35.8,0-65,29.2-65,65v103c0,70.4,51,129.2,118,141.2v30.3c0,95.1,77.4,172.5,172.5,172.5
	s172.5-77.4,172.5-172.5V229.7C492.1,219.1,512.5,191.6,512.5,159.4z M437.5,134.4c13.8,0,25,11.2,25,25s-11.2,25-25,25
	s-25-11.2-25-25S423.7,134.4,437.5,134.4z"/>
</svg>
