<svg id="Capa_1" enable-background="new 0 0 512 512" height="512" viewBox="0 0 512 512" width="512" xmlns="http://www.w3.org/2000/svg"><g><path d="m490.44 69.053c2.34-4.068 3.685-8.777 3.685-13.797 0-24.755-23.587-36.048-24.591-36.516-2.016-.941-4.341-.941-6.356 0-1.004.468-24.591 11.76-24.591 36.516 0 5.02 1.346 9.729 3.685 13.797-2.204 1.31-3.685 3.708-3.685 6.458v65.037c0 2.944 1.696 5.485 4.161 6.718-.685 44.871-17.478 87.909-47.483 121.478-2.766 3.094-2.5 7.844.595 10.611 3.096 2.767 7.845 2.498 10.611-.595 32.294-36.129 50.435-82.412 51.306-130.696h15.697c-.929 56.73-23.457 109.928-63.675 150.147-35.339 35.339-81.567 57.352-130.922 62.51v-15.791c38.611-4.367 74.801-19.691 105.058-44.55 3.206-2.635 3.67-7.37 1.035-10.577-2.635-3.206-7.371-3.668-10.577-1.035-27.556 22.642-60.431 36.729-95.517 41.023v-19.596c37.417-5.281 71.853-23.458 97.577-51.664 27.455-30.105 42.575-69.081 42.575-109.751v-1.088c3.009-.981 5.185-3.805 5.185-7.142v-65.039c0-2.75-1.481-5.148-3.685-6.458 2.34-4.068 3.685-8.777 3.685-13.797 0-24.755-23.587-36.048-24.591-36.516-2.016-.941-4.341-.941-6.356 0-1.004.468-24.591 11.76-24.591 36.516 0 5.02 1.346 9.729 3.685 13.797-2.204 1.31-3.685 3.708-3.685 6.458v65.037c0 3.118 1.898 5.791 4.602 6.929v1.301c0 56.251-40.021 104.274-94.401 115.033v-19.815c41.339-10.376 70.731-47.56 70.731-90.73v-5.59c2.987-.994 5.143-3.806 5.143-7.127v-65.038c0-2.75-1.481-5.148-3.685-6.458 2.34-4.068 3.685-8.777 3.685-13.797 0-24.755-23.587-36.048-24.591-36.516-2.016-.941-4.34-.941-6.356 0-1.004.468-24.591 11.76-24.591 36.516 0 5.02 1.346 9.729 3.685 13.797-2.204 1.31-3.685 3.708-3.685 6.458v65.037c0 3.133 1.918 5.816 4.643 6.944v5.773c0 17.654-9.89 33.721-24.978 41.992v-65.708c2.856-1.065 4.893-3.808 4.893-7.035v-65.038c0-2.75-1.481-5.148-3.685-6.458 2.339-4.068 3.685-8.777 3.685-13.797 0-24.755-23.587-36.048-24.591-36.516-2.016-.941-4.341-.941-6.356 0-1.004.468-24.591 11.76-24.591 36.516 0 5.02 1.346 9.729 3.685 13.797-2.204 1.31-3.685 3.708-3.685 6.458v65.037c0 3.227 2.038 5.971 4.893 7.035v65.708c-15.088-8.271-24.979-24.338-24.979-41.992v-5.773c2.725-1.128 4.643-3.811 4.643-6.944v-65.036c0-2.75-1.481-5.148-3.685-6.458 2.339-4.068 3.685-8.777 3.685-13.797 0-24.755-23.587-36.048-24.591-36.516-2.016-.941-4.34-.941-6.356 0-1.004.468-24.591 11.76-24.591 36.516 0 5.02 1.346 9.729 3.685 13.797-2.204 1.31-3.685 3.708-3.685 6.458v65.037c0 3.321 2.156 6.133 5.143 7.127v5.59c0 43.171 29.392 80.355 70.731 90.73v19.814c-54.38-10.758-94.401-58.781-94.401-115.032v-1.301c2.703-1.138 4.602-3.811 4.602-6.929v-65.036c0-2.75-1.481-5.148-3.685-6.458 2.339-4.068 3.685-8.777 3.685-13.797 0-24.755-23.587-36.048-24.591-36.516-2.016-.941-4.34-.941-6.356 0-1.004.468-24.591 11.76-24.591 36.516 0 5.02 1.346 9.729 3.685 13.797-2.204 1.31-3.685 3.708-3.685 6.458v65.037c0 3.337 2.176 6.161 5.185 7.142v1.088c0 29.168 7.832 57.809 22.649 82.828 2.115 3.572 6.728 4.752 10.294 2.637 3.571-2.115 4.752-6.724 2.637-10.294-13.444-22.702-20.551-48.696-20.551-75.17v-.715h15.693v.715c0 64.464 46.592 119.352 109.43 130.322v15.907c-33.792-5.261-64.687-22.099-87.706-47.975-2.759-3.1-7.509-3.38-10.61-.619-3.101 2.758-3.378 7.509-.619 10.609 25.875 29.084 60.796 47.794 98.935 53.171v19.595c-43.549-5.342-83.754-25.868-113.94-58.357-31.57-33.978-49.231-77.974-49.931-124.166 2.464-1.233 4.16-3.774 4.16-6.717v-65.038c0-2.75-1.481-5.148-3.685-6.458 2.34-4.068 3.685-8.777 3.685-13.797 0-24.755-23.587-36.048-24.591-36.516-2.016-.941-4.34-.941-6.356 0-1.004.468-24.591 11.76-24.591 36.516 0 5.02 1.346 9.729 3.685 13.797-2.204 1.31-3.685 3.708-3.685 6.458v65.037c0 3.5 2.396 6.432 5.634 7.268.868 60.837 24.95 117.905 68.065 161.021 38.153 38.152 88.187 61.764 141.55 66.974v49.83c-20.351 1.163-36.998 16.344-40.43 36.014h-4.582c-24.447 0-45.899 17.352-51.009 41.259-.475 2.218.079 4.532 1.506 6.296s3.573 2.789 5.842 2.789h60.664c4.151 0 7.515-3.364 7.515-7.515s-3.364-7.515-7.515-7.515h-50.077c6.24-12.156 18.955-20.286 33.073-20.286h135.777c14.118 0 26.834 8.13 33.073 20.286h-121.788c-4.151 0-7.515 3.364-7.515 7.515s3.364 7.515 7.515 7.515h132.375c2.269 0 4.416-1.025 5.842-2.789 1.427-1.764 1.98-4.078 1.506-6.296-5.109-23.907-26.562-41.259-51.009-41.259h-4.582c-3.433-19.67-20.08-34.851-40.43-36.014v-49.83c53.363-5.21 103.397-28.822 141.551-66.974 43.115-43.117 67.196-100.184 68.064-161.021 3.239-.836 5.634-3.768 5.634-7.268v-65.037c0-2.75-1.481-5.148-3.685-6.458zm-106.736 13.973h25.479v50.008h-25.479zm7.534-44.519c1.834-1.819 3.701-3.239 5.207-4.253 1.507 1.016 3.373 2.434 5.206 4.253 4.999 4.957 7.533 10.592 7.533 16.75 0 7.025-5.715 12.74-12.74 12.74s-12.74-5.715-12.74-12.74c0-6.158 2.535-11.793 7.534-16.75zm-112.361 240.593c62.839-10.97 109.429-65.858 109.429-130.322v-.715h15.693v.715c0 36.914-13.727 72.295-38.651 99.624-22.876 25.083-53.328 41.437-86.471 46.604zm-168.528-240.593c1.834-1.819 3.701-3.239 5.206-4.253 1.507 1.016 3.373 2.434 5.207 4.253 4.999 4.957 7.533 10.592 7.533 16.75 0 7.025-5.715 12.74-12.74 12.74-7.024 0-12.74-5.715-12.74-12.74.001-6.158 2.535-11.793 7.534-16.75zm-7.533 94.527v-50.008h25.479v50.008zm165.924-68.043v50.008h-25.48v-50.008zm-20.586 65.037h15.693v295.536h-15.693zm66.087-47.002h25.479v50.008h-25.479zm7.533-44.519c1.834-1.819 3.701-3.239 5.206-4.253 1.507 1.016 3.373 2.434 5.206 4.253 4.999 4.957 7.533 10.592 7.533 16.75 0 7.025-5.715 12.74-12.74 12.74-7.024 0-12.74-5.715-12.74-12.74.002-6.158 2.536-11.793 7.535-16.75zm-2.891 114.758v-5.202h15.694v5.202c0 34.95-22.94 65.242-55.701 75.164v-16.607c23.818-9.34 40.007-32.654 40.007-58.557zm-68.09-132.793c1.834-1.819 3.701-3.239 5.206-4.253 1.507 1.016 3.373 2.434 5.206 4.253 4.999 4.957 7.533 10.592 7.533 16.75 0 7.024-5.715 12.74-12.74 12.74s-12.74-5.715-12.74-12.74c.002-6.158 2.536-11.793 7.535-16.75zm-78.513 62.554h25.479v50.008h-25.479zm7.533-44.519c1.834-1.819 3.701-3.239 5.206-4.253 1.507 1.016 3.373 2.434 5.206 4.253 4.999 4.957 7.533 10.592 7.533 16.75 0 7.025-5.715 12.74-12.74 12.74-7.024 0-12.74-5.715-12.74-12.74.002-6.158 2.536-11.793 7.535-16.75zm-2.39 114.758v-5.202h15.694v5.202c0 25.902 16.19 49.216 40.008 58.558v16.607c-32.762-9.923-55.702-40.214-55.702-75.165zm-144.519-70.239h25.479v50.008h-25.479zm7.534-44.519c1.834-1.819 3.701-3.239 5.206-4.253 1.507 1.016 3.373 2.434 5.207 4.253 4.999 4.957 7.533 10.592 7.533 16.75 0 7.025-5.715 12.74-12.74 12.74-7.024 0-12.74-5.715-12.74-12.74 0-6.158 2.535-11.793 7.534-16.75zm61.765 259.703c-40.219-40.218-62.748-93.417-63.676-150.147h15.696c.891 49.71 19.971 97.026 53.951 133.599 33.032 35.552 77.181 57.851 124.951 63.266v15.792c-49.355-5.158-95.584-27.172-130.922-62.51zm201.733 163.446h-95.873c3.308-12.124 14.418-21.063 27.575-21.063h40.722c13.159 0 24.268 8.938 27.576 21.063zm157.213-423.149c1.834-1.819 3.701-3.239 5.207-4.253 1.507 1.016 3.373 2.434 5.206 4.253 4.999 4.957 7.533 10.592 7.533 16.75 0 7.025-5.715 12.74-12.74 12.74s-12.74-5.715-12.74-12.74c.001-6.158 2.535-11.793 7.534-16.75zm-7.533 94.527v-50.008h25.479v50.008z"/></g></svg>