<?xml version="1.0" encoding="iso-8859-1"?>
<!-- Generator: Adobe Illustrator 19.0.0, SVG Export Plug-In . SVG Version: 6.00 Build 0)  -->
<svg version="1.1" id="Layer_1" xmlns="http://www.w3.org/2000/svg" xmlns:xlink="http://www.w3.org/1999/xlink" x="0px" y="0px"
	 viewBox="0 0 412 412" style="enable-background:new 0 0 412 412;" xml:space="preserve">
<g>
	<path d="M206,312c-27.57,0-50,22.43-50,50s22.43,50,50,50s50-22.43,50-50S233.57,312,206,312z"/>
	<path d="M206,156c-27.57,0-50,22.43-50,50s22.43,50,50,50s50-22.43,50-50S233.57,156,206,156z"/>
	<path d="M206,100c27.57,0,50-22.43,50-50S233.57,0,206,0s-50,22.43-50,50S178.43,100,206,100z"/>
</g>
<g>
</g>
<g>
</g>
<g>
</g>
<g>
</g>
<g>
</g>
<g>
</g>
<g>
</g>
<g>
</g>
<g>
</g>
<g>
</g>
<g>
</g>
<g>
</g>
<g>
</g>
<g>
</g>
<g>
</g>
</svg>
