<?xml version="1.0" encoding="iso-8859-1"?>
<!-- Generator: Adobe Illustrator 19.0.0, SVG Export Plug-In . SVG Version: 6.00 Build 0)  -->
<svg version="1.1" id="Layer_1" xmlns="http://www.w3.org/2000/svg" xmlns:xlink="http://www.w3.org/1999/xlink" x="0px" y="0px"
	 viewBox="0 0 462 462" style="enable-background:new 0 0 462 462;" xml:space="preserve">
<g>
	<g>
		<path d="M437,256H25c-13.807,0-25-11.193-25-25s11.193-25,25-25h412c13.807,0,25,11.193,25,25S450.807,256,437,256z"/>
	</g>
	<g>
		<path d="M437,396H25c-13.807,0-25-11.193-25-25s11.193-25,25-25h412c13.807,0,25,11.193,25,25S450.807,396,437,396z"/>
	</g>
	<g>
		<path d="M437,116H25c-13.807,0-25-11.193-25-25s11.193-25,25-25h412c13.807,0,25,11.193,25,25S450.807,116,437,116z"/>
	</g>
</g>
<g>
</g>
<g>
</g>
<g>
</g>
<g>
</g>
<g>
</g>
<g>
</g>
<g>
</g>
<g>
</g>
<g>
</g>
<g>
</g>
<g>
</g>
<g>
</g>
<g>
</g>
<g>
</g>
<g>
</g>
</svg>
