<?xml version="1.0" encoding="iso-8859-1"?>
<!-- Generator: Adobe Illustrator 19.0.0, SVG Export Plug-In . SVG Version: 6.00 Build 0)  -->
<svg version="1.1" id="Layer_1" xmlns="http://www.w3.org/2000/svg" xmlns:xlink="http://www.w3.org/1999/xlink" x="0px" y="0px"
	 viewBox="-49 141 512 512" style="enable-background:new -49 141 512 512;" xml:space="preserve">
<g>
	<path d="M363,347c-27.57,0-50,22.43-50,50s22.43,50,50,50s50-22.43,50-50S390.57,347,363,347z"/>
	<path d="M207,347c-27.57,0-50,22.43-50,50s22.43,50,50,50s50-22.43,50-50S234.57,347,207,347z"/>
	<path d="M51,347c-27.57,0-50,22.43-50,50s22.43,50,50,50s50-22.43,50-50S78.57,347,51,347z"/>
</g>
</svg>
