<?xml version="1.0" encoding="iso-8859-1"?>
<!-- Generator: Adobe Illustrator 19.0.0, SVG Export Plug-In . SVG Version: 6.00 Build 0)  -->
<svg version="1.1" id="Layer_1" xmlns="http://www.w3.org/2000/svg" xmlns:xlink="http://www.w3.org/1999/xlink" x="0px" y="0px"
	 viewBox="-49 141 512 512" style="enable-background:new -49 141 512 512;" xml:space="preserve">
<g>
	<g>
		<path d="M413,422H1c-13.807,0-25-11.193-25-25s11.193-25,25-25h412c13.807,0,25,11.193,25,25S426.807,422,413,422z"/>
	</g>
	<g>
		<path d="M413,562H1c-13.807,0-25-11.193-25-25s11.193-25,25-25h412c13.807,0,25,11.193,25,25S426.807,562,413,562z"/>
	</g>
	<g>
		<path d="M413,282H1c-13.807,0-25-11.193-25-25s11.193-25,25-25h412c13.807,0,25,11.193,25,25S426.807,282,413,282z"/>
	</g>
</g>
</svg>
