<svg xmlns="http://www.w3.org/2000/svg" xml:space="preserve" style="enable-background:new 0 0 470.837 470.837" viewBox="0 0 470.837 470.837"><path d="M411.143 171.441c-.011-4.021-2.192-9.091-11.201-12.808.515-1.385.771-2.78.767-4.178-.009-3.049-1.441-5.822-4.032-7.809-8.277-6.347-28.442-3.867-36.369-1.761-9.561 2.54-11.617 3.5-14.704 5.111l-.664.345a41.137 41.137 0 0 0-2.552-.075c-12.094.034-23.249 5.671-29.972 14.933-4.35.146-8.647.47-12.902.967 7.899-10.343 13.38-21.283 17.028-30.234 7.555-5.544 14.217-13.544 18.898-22.734 5.709-11.21 9.071-15.039 13.328-19.886 1.786-2.034 3.812-4.339 6.143-7.343 3.213-4.146 6.096-8.364 8.339-12.198 8.903-15.218 11.615-29.769 7.256-38.924-2.355-4.945-6.647-8.129-12.088-8.965-2.361-.362-4.865-.311-7.447.118-3.438-12.865-10.334-21.081-19.151-22.436-9.065-1.395-17.857 4.575-24.372 16.242-2.564-1.519-5.255-2.563-8.048-2.993-5.437-.833-10.49.913-14.221 4.923-6.908 7.424-8.688 22.118-4.766 39.303a94.406 94.406 0 0 0 1.661 6.263c2.368 7.857 4.427 12.634 6.243 16.849 2.618 6.074 4.686 10.872 6.891 23.469 1.872 10.696 4.65 18.753 8.646 24.969-4.867 11.537-12.944 26.202-25.539 37.564-22.777 5.95-43.577 16.928-61.136 31.657a155.643 155.643 0 0 0 5.35-24.25c8.169-9.724 14.299-22.382 17.345-35.886 3.862-17.128 7.098-23.476 11.193-31.512 1.671-3.278 3.564-6.993 5.617-11.704 2.817-6.478 5.186-12.958 6.85-18.741 6.465-22.471 5.321-41.903-3.061-51.983-4.276-5.143-10.32-7.619-17.01-6.968-3.635.353-7.384 1.557-11.106 3.47-8.544-16.36-20.119-25.274-31.803-24.139-12.069 1.172-21.268 12.431-25.443 30.638-4.648-1.722-9.101-2.449-13.169-2.053-6.693.65-12.145 4.24-15.353 10.109-6.287 11.503-3.671 30.793 6.996 51.599a127.39 127.39 0 0 0 4.229 7.591c5.744 9.54 10.057 15.14 13.861 20.081 5.632 7.314 10.08 13.091 17.391 29.349 6.034 13.42 12.713 23.305 20.34 30.076-3.034 20.192-10.437 39.676-21.583 56.809-.555.817-2.72 4.076-2.864 4.371a156.604 156.604 0 0 0-15.505 32.111c-.144.327-2.96 9.22-4.013 13.429A155.574 155.574 0 0 0 160.797 322v3.106l-23.008-107.319c2.568-10.174.221-20.971-6.409-29.887l-2.035-9.493c9.654-4.258 17.227-12.848 20.438-23.57l.649-2.168c3.859-12.889.757-26.672-8.097-35.971a6.5 6.5 0 0 0-6.177-1.849c-7.016 1.628-13.296 5.429-18.139 10.727l-5.797-27.037c9.076-8.959 13.4-22.21 11.382-35.547l-.386-2.545c-2.237-14.782-11.888-27.158-25.187-32.296a6.5 6.5 0 0 0-6.375.965c-11.183 8.845-16.739 23.522-14.5 38.297l.386 2.551c2.047 13.524 10.296 25.033 21.868 30.83l1.18 5.502c-.279-.161-.552-.317-.808-.462-11.655-6.719-25.782-6.869-36.868-.39a6.5 6.5 0 0 0-3.22 5.586c-.051 12.842 7.158 24.992 18.782 31.691.666.389 1.362.791 1.996 1.15 8.484 4.893 18.285 6.303 27.282 4.21-1.31 8.84.505 17.745 5.067 25.037-6.728-2.632-14.091-3.262-21.145-1.59a6.5 6.5 0 0 0-4.71 4.404c-3.794 12.266-.444 25.991 8.742 35.815l1.552 1.662c7.402 7.916 17.994 12.036 28.747 11.452l34.788 162.263v77.216a6.5 6.5 0 1 0 13 0v-77.77a5.853 5.853 0 0 0 0-.265v-64.307c0-15.721 2.563-30.88 7.294-45.086a143.632 143.632 0 0 1 50.728-32.07c3.729 16.306 15.115 30.543 31.098 38.312l3.368 1.638c18.621 9.049 40.285 7.77 56.542-3.34a6.498 6.498 0 0 0 2.818-5.799c-1.31-19.647-13.689-37.472-32.302-46.516l-3.375-1.643c-18.301-8.894-39.55-7.81-55.709 2.781-14.627 4.61-28.534 11.402-41.182 20.051 1.147-1.979 5.157-8.189 5.92-9.372 25.076-36.526 66.527-61.083 113.559-62.754 6.766 9.109 17.854 14.619 29.846 14.619h.113a39.553 39.553 0 0 0 2.551-.092l.667.342c3.097 1.593 5.159 2.541 14.73 5.021 7.943 2.059 28.124 4.418 36.361-1.977 2.578-2.001 3.993-4.783 3.984-7.833a11.71 11.71 0 0 0-.645-3.759c8.884-4.071 10.993-9.155 10.982-13.08zM329.844 16.412c2.952.454 6.716 5.048 8.863 14.086-4.591 2.565-9.092 6.059-13.143 10.271-2.329-4.31-5.044-8.471-8.079-12.092 4.192-8.672 9.188-12.75 12.359-12.265zm-36.569 42.539a92.161 92.161 0 0 1-.188-.804c-3.253-14.249-1.447-24.273 1.608-27.557.639-.686 1.238-.985 2.059-.985.208 0 .43.019.67.056 4.965.763 13.062 8.73 19.141 22.197-6.043 6.262-14.334 7.081-23.29 7.093zm6.981 20.054c-.946-2.196-1.91-4.432-2.934-7.141 11.202-.448 23.795-3.048 32.396-15.661 8.69-12.744 21.117-18.33 26.726-17.473 1.189.183 1.819.645 2.324 1.705 1.929 4.05.643 14.154-6.739 26.77v.001c-1.964 3.356-4.521 7.091-7.391 10.795-2.086 2.688-3.892 4.744-5.638 6.732-4.473 5.092-8.696 9.902-15.145 22.564a55.49 55.49 0 0 1-3.023 5.188 114.853 114.853 0 0 0 1.722-13.378 4 4 0 0 0-7.981-.55 106.736 106.736 0 0 1-3.248 19.789c-1.335-3.648-2.436-7.95-3.314-12.967-2.466-14.101-4.918-19.789-7.755-26.374zM86.928 132.586c-.627-.356-1.276-.73-1.93-1.111-6.393-3.684-10.74-9.774-11.958-16.473 6.408-2.303 13.863-1.588 20.291 2.117.423.24.852.488 1.278.734l.646.374c6.355 3.663 9.411 9.924 11.322 16.705-6.276 2.019-13.448 1.229-19.649-2.346zm16.971-44.135c-7.124-4.115-12.172-11.638-13.503-20.435l-.385-2.543c-1.333-8.794 1.264-17.474 6.851-23.514 7.124 4.116 12.172 11.637 13.503 20.431l.386 2.546c1.33 8.796-1.266 17.475-6.852 23.515zm21.775 123.405c-7.084.492-14.077-2.152-18.92-7.332l-1.546-1.655c-5.04-5.39-7.422-12.484-6.633-19.245 6.807-.341 13.72 2.519 18.76 7.909 0 0 2.45 2.654 2.868 3.169.042.054.085.107.129.16 4.091 5.119 5.974 11.168 5.342 16.994zm-1.631-45.317c-3.714-5.707-4.735-13.121-2.617-20.196l.064-.213c.05-.148.095-.299.134-.451l.449-1.5c2.117-7.069 7.047-12.701 13.286-15.427 3.714 5.705 4.734 13.12 2.614 20.2l-.646 2.16c-2.117 7.069-7.045 12.701-13.284 15.427zm147.931 106.565-3.375-1.642c-10.311-5.011-18.129-13.43-22.128-23.297 3.348 2.281 6.999 4.251 11.192 6.288a56.516 56.516 0 0 0 24.67 5.703c7.817 0 15.525-1.663 22.512-4.948 3.776 5.236 6.348 11.206 7.39 17.513-11.979 6.58-27.061 6.798-40.261.383zm12.31-33.917 3.371 1.641a46.549 46.549 0 0 1 11.655 8.06c-11.862 4.812-25.879 4.337-38.15-1.629-5.871-2.852-10.384-5.423-14.473-9.017 11.5-5.241 25.355-5.005 37.597.945zM201.81 13.036c6.202-.605 13.884 6.787 19.798 18.754-6.309 5.667-12.081 13.154-16.499 21.652-5.813-6.686-11.947-12.226-18.023-16.365 2.518-13.926 8.231-23.41 14.724-24.041zm-35.222 74.127c-.494-.901-.973-1.804-1.434-2.704-9.599-18.722-9.879-32.99-7.157-39.434 1.734-4.106 5.869-3.452 6.22-3.452 8.068 0 22.04 8.429 35.043 25.228-6.482 12.835-19.42 17.072-32.672 20.362zm34.334 54.917c-7.936-17.65-13.039-24.276-18.947-31.949-2.563-3.329-5.185-6.734-8.288-11.375 15.475-4.168 32.041-11.045 39.383-31.206 4.61-12.663 12.387-22.643 19.913-28.406.334-.205.644-.436.928-.69 3.862-2.788 7.62-4.44 10.808-4.75 2.439-.235 4.216.485 5.759 2.34 4.472 5.378 6.38 19.855.563 40.076-1.511 5.25-3.682 11.181-6.276 17.146-1.894 4.346-3.615 7.724-5.279 10.989-4.331 8.498-8.072 15.837-12.292 34.555a77.22 77.22 0 0 1-5.806 16.608 155.81 155.81 0 0 0-2.515-27.321 4 4 0 1 0-7.87 1.436 147.65 147.65 0 0 1 2.254 33.268c-4.368-5.214-8.445-12.069-12.335-20.721zm122.982 29.517c3.698-4.388 9.115-7.294 15.148-8.102a122.477 122.477 0 0 0-.24 8.059c.008 2.699.104 5.392.288 8.057-6.036-.773-11.471-3.648-15.196-8.014zm64.372 3.342a6.5 6.5 0 0 0-2.659 11.137c.245.218.465.424.66.616-4.847.928-14.617.872-22.552-1.185-7.744-2.008-9.512-2.717-11.395-3.665-.334-3.39-.509-6.851-.519-10.328-.01-3.48.144-6.942.458-10.333 1.876-.958 3.643-1.679 11.375-3.733 7.922-2.105 17.695-2.219 22.543-1.317-.332.33-.731.697-1.213 1.102a6.498 6.498 0 0 0 2.866 11.338c4.672.968 7.52 2.124 9.089 2.994-1.491.931-4.195 2.194-8.653 3.374z"/></svg>