<?xml version="1.0" encoding="utf-8"?>
<!-- Generator: Adobe Illustrator 22.0.1, SVG Export Plug-In . SVG Version: 6.00 Build 0)  -->
<svg version="1.1" id="Capa_1" xmlns="http://www.w3.org/2000/svg" xmlns:xlink="http://www.w3.org/1999/xlink" x="0px" y="0px"
	 viewBox="0 0 512 512" style="enable-background:new 0 0 512 512;" xml:space="preserve">
<g>
	<path d="M176,25c-13.8,0-25,11.2-25,25v65.6L67.7,32.3c-9.8-9.8-25.6-9.8-35.4,0s-9.8,25.6,0,35.4l83.3,83.3H50
		c-13.8,0-25,11.2-25,25s11.2,25,25,25h86c35.8,0,65-29.2,65-65V50C201,36.2,189.8,25,176,25z"/>
	<path d="M376,201h86c13.8,0,25-11.2,25-25s-11.2-25-25-25h-65.6l83.3-83.3c9.8-9.8,9.8-25.6,0-35.4c-9.8-9.8-25.6-9.8-35.4,0
		L361,115.6V50c0-13.8-11.2-25-25-25s-25,11.2-25,25v86C311,171.8,340.2,201,376,201z"/>
	<path d="M136,311H50c-13.8,0-25,11.2-25,25s11.2,25,25,25h65.6l-83.3,83.3c-9.8,9.8-9.8,25.6,0,35.4c4.9,4.9,11.3,7.3,17.7,7.3
		s12.8-2.4,17.7-7.3l83.3-83.3V462c0,13.8,11.2,25,25,25s25-11.2,25-25v-86C201,340.2,171.8,311,136,311z"/>
	<path d="M396.4,361H462c13.8,0,25-11.2,25-25s-11.2-25-25-25h-86c-35.8,0-65,29.2-65,65v86c0,13.8,11.2,25,25,25s25-11.2,25-25
		v-65.6l83.3,83.3c4.9,4.9,11.3,7.3,17.7,7.3s12.8-2.4,17.7-7.3c9.8-9.8,9.8-25.6,0-35.4L396.4,361z"/>
</g>
</svg>
