<svg xmlns="http://www.w3.org/2000/svg" viewBox="0 0 512 512"><path d="M176 25c-13.8 0-25 11.2-25 25v65.6L67.7 32.3c-9.8-9.8-25.6-9.8-35.4 0s-9.8 25.6 0 35.4l83.3 83.3H50c-13.8 0-25 11.2-25 25s11.2 25 25 25h86c35.8 0 65-29.2 65-65V50c0-13.8-11.2-25-25-25zM376 201h86c13.8 0 25-11.2 25-25s-11.2-25-25-25h-65.6l83.3-83.3c9.8-9.8 9.8-25.6 0-35.4-9.8-9.8-25.6-9.8-35.4 0L361 115.6V50c0-13.8-11.2-25-25-25s-25 11.2-25 25v86c0 35.8 29.2 65 65 65zM136 311H50c-13.8 0-25 11.2-25 25s11.2 25 25 25h65.6l-83.3 83.3c-9.8 9.8-9.8 25.6 0 35.4 4.9 4.9 11.3 7.3 17.7 7.3s12.8-2.4 17.7-7.3l83.3-83.3V462c0 13.8 11.2 25 25 25s25-11.2 25-25v-86c0-35.8-29.2-65-65-65zM396.4 361H462c13.8 0 25-11.2 25-25s-11.2-25-25-25h-86c-35.8 0-65 29.2-65 65v86c0 13.8 11.2 25 25 25s25-11.2 25-25v-65.6l83.3 83.3c4.9 4.9 11.3 7.3 17.7 7.3s12.8-2.4 17.7-7.3c9.8-9.8 9.8-25.6 0-35.4L396.4 361z"/></svg>