<?xml version="1.0" encoding="utf-8"?>
<!-- Generator: Adobe Illustrator 24.0.1, SVG Export Plug-In . SVG Version: 6.00 Build 0)  -->
<svg version="1.1" id="Capa_1" xmlns="http://www.w3.org/2000/svg" xmlns:xlink="http://www.w3.org/1999/xlink" x="0px" y="0px"
	 viewBox="0 0 512 512" style="enable-background:new 0 0 512 512;" xml:space="preserve">
<g>
	<path d="M455.5,359.2l-152-48c-8.9-2.8-18.6-0.4-25.2,6.2c-6.6,6.6-9,16.3-6.2,25.2l48,152c3.3,10.4,12.9,17.5,23.8,17.5
		c0.1,0,0.2,0,0.4,0c11-0.2,20.7-7.5,23.7-18.2l19.2-67.6l67.6-19.2c10.6-3,18-12.6,18.2-23.7C473.2,372.3,466.1,362.5,455.5,359.2z
		"/>
	<path d="M487,9H327c-13.8,0-25,11.2-25,25c0,24.8-20.2,45-45,45s-45-20.2-45-45c0-13.8-11.2-25-25-25H25C11.2,9,0,20.2,0,34v127
		c0,13.8,11.2,25,25,25h45v250c0,35.4,28.5,64.3,63.7,65c0.4,0,0.9,0,1.3,0h134.8L254,451H135c-8.3,0-15-6.7-15-15V161
		c0-13.8-11.2-25-25-25H50V59h115.3c11,40.3,47.9,70,91.7,70s80.7-29.7,91.7-70H462v77h-45c-13.8,0-25,11.2-25,25v125.7l50,15.8V186
		h45c13.8,0,25-11.2,25-25V34C512,20.2,500.8,9,487,9z"/>
	<path d="M327,277c13.8,0,25-11.2,25-25v-30c0-13.8-11.2-25-25-25h-30c-13.8,0-25,11.2-25,25s11.2,25,25,25h5v5
		C302,265.8,313.2,277,327,277z"/>
	<path d="M215,197h-30c-13.8,0-25,11.2-25,25v30c0,13.8,11.2,25,25,25s25-11.2,25-25v-5h5c13.8,0,25-11.2,25-25S228.8,197,215,197z"
		/>
	<path d="M185,311c-13.8,0-25,11.2-25,25v30c0,13.8,11.2,25,25,25h29c13.8,0,25-11.2,25-25s-11.2-25-25-25h-4v-5
		C210,322.2,198.8,311,185,311z"/>
</g>
</svg>
