<svg xmlns="http://www.w3.org/2000/svg" width="512" height="512"><path d="M334.972 108.031 377 141.847c3.056 2.458 6.8 3.688 10.545 3.688 3.749 0 7.497-1.231 10.554-3.694l41.968-33.813c11.912-9.597 20.546-22.41 24.969-37.054a43.863 43.863 0 0 0-7.572-39.858c-12.275-15.533-33.534-20.91-51.717-13.09-6.619 2.753-12.528 6.191-18.229 10.634-5.701-4.442-11.611-7.881-18.229-10.634-18.182-7.821-39.442-2.442-51.717 13.09A43.866 43.866 0 0 0 310 70.975c4.422 14.642 13.056 27.456 24.972 37.056zm-5.633-67.615c5.595-7.08 14.026-10.952 22.657-10.952 3.837 0 7.715.766 11.398 2.355l.096.041c6.974 2.896 13.013 6.76 19.005 12.16a7.5 7.5 0 0 0 10.042 0c5.992-5.4 12.031-9.265 19.005-12.16l.096-.041c11.969-5.166 25.973-1.63 34.055 8.597a28.853 28.853 0 0 1 4.981 26.221 60.443 60.443 0 0 1-20.02 29.71l-41.968 33.812a1.83 1.83 0 0 1-2.285.001l-42.024-33.812a60.459 60.459 0 0 1-20.021-29.711 28.866 28.866 0 0 1 4.983-26.221zM158.875 284.819c17.269 0 31.317-14.049 31.317-31.317 0-4.143-3.358-7.5-7.5-7.5s-7.5 3.357-7.5 7.5c0 8.997-7.32 16.317-16.317 16.317s-16.317-7.32-16.317-16.317c0-4.143-3.358-7.5-7.5-7.5s-7.5 3.357-7.5 7.5c0 17.269 14.048 31.317 31.317 31.317zM213.616 225.946a7.5 7.5 0 0 0 7.5-7.5v-13.151h1.379c4.142 0 7.5-3.357 7.5-7.5s-3.358-7.5-7.5-7.5h-8.879a7.5 7.5 0 0 0-7.5 7.5v20.651a7.5 7.5 0 0 0 7.5 7.5zM95.255 205.295h1.379v13.151c0 4.143 3.358 7.5 7.5 7.5s7.5-3.357 7.5-7.5v-20.651a7.5 7.5 0 0 0-7.5-7.5h-8.879c-4.142 0-7.5 3.357-7.5 7.5s3.358 7.5 7.5 7.5zM381.244 365.479c12.366 0 22.427-10.061 22.427-22.427 0-4.143-3.358-7.5-7.5-7.5s-7.5 3.357-7.5 7.5c0 4.095-3.332 7.427-7.427 7.427-4.096 0-7.428-3.332-7.428-7.427 0-4.143-3.358-7.5-7.5-7.5s-7.5 3.357-7.5 7.5c0 12.366 10.061 22.427 22.428 22.427zM415.553 328.774a7.5 7.5 0 0 0 7.5-7.5v-6.042a7.5 7.5 0 0 0-1.768-14.79h-5.732a7.5 7.5 0 0 0-7.5 7.5v13.332a7.5 7.5 0 0 0 7.5 7.5zM339.435 315.232v6.042c0 4.143 3.358 7.5 7.5 7.5s7.5-3.357 7.5-7.5v-13.332a7.5 7.5 0 0 0-7.5-7.5h-5.731a7.5 7.5 0 0 0-7.5 7.5 7.5 7.5 0 0 0 5.731 7.29z"/><path d="M483.933 319.525a32.203 32.203 0 0 0 2.825-13.205c0-8.022-2.937-15.366-7.784-21.031a7.448 7.448 0 0 0 1.083-3.867v-19.547c0-26.989-11.851-52.447-32.513-69.847-3.169-2.668-7.9-2.263-10.568.906s-2.263 7.9.906 10.568c17.27 14.542 27.175 35.818 27.175 58.372v12.047H423.67c-19.384 0-35.154-15.77-35.154-35.153 0-4.143-3.358-7.5-7.5-7.5s-7.5 3.357-7.5 7.5c0 19.384-15.771 35.153-35.154 35.153h-41.387v-12.047a75.864 75.864 0 0 1 5.25-27.755c6.468-5.882 11.25-13.586 13.535-22.29 13.994-16.056 34.571-26.233 57.492-26.233.146 0 .264.118.264.264 0 4.142 3.358 7.499 7.5 7.499s7.5-3.357 7.5-7.499c0-.146.118-.264.264-.264a76.44 76.44 0 0 1 21.22 2.988 7.498 7.498 0 0 0 9.287-5.123 7.5 7.5 0 0 0-5.123-9.287 91.409 91.409 0 0 0-25.384-3.578c-2.833 0-5.488.775-7.764 2.126a15.163 15.163 0 0 0-7.764-2.126c-21.546 0-41.368 7.509-56.998 20.04-2.677-12.585-10.526-23.278-21.213-29.734v-26.079c0-66.372-53.998-120.369-120.369-120.369h-34.976c-3.892 0-7.7.358-11.408 1.007C65.676 23.396 18.474 77.015 18.474 140.229c0 23.492-.06 22.049.15 23.088C7.334 171.681 0 185.094 0 200.19c0 20.699 13.785 38.231 32.654 43.918-16.526 13.465-26.36 33.707-26.36 55.551a71.61 71.61 0 0 0 32.471 60.038c-12.428 10.95-20.292 26.966-20.292 44.792v21.448c0 4.143 3.358 7.5 7.5 7.5s7.5-3.357 7.5-7.5v-21.448c0-13.413 5.946-25.457 15.331-33.658v111.713h-15.33v-21.606c0-4.143-3.358-7.5-7.5-7.5s-7.5 3.357-7.5 7.5v29.106a7.5 7.5 0 0 0 7.5 7.5H292.24l.021-.001.021.001h177.924a7.5 7.5 0 0 0 7.5-7.5v-57.169a42.114 42.114 0 0 0-5.604-21.023 51.46 51.46 0 0 0 17.212 2.956H504.5a7.5 7.5 0 0 0 7.5-7.5v-41.814c0-19.486-11.167-37.221-28.067-45.969zm-79.802 76.476v7.758h-.001c0 12.62-10.267 22.887-22.887 22.887s-22.887-10.267-22.887-22.887v-7.744c16.097 4.467 31.31 4.221 45.775-.014zm-94.697-39.223v6.313c0 14.54-8.496 27.133-20.784 33.076-5.591 2.657-10.473 3.642-15.933 3.642h-7.686v-34.314c0-.835 0-3.26.444-5.616 1.96-12.482 10.333-23.277 22.016-28.219 4.461 3.503 9.464 5.721 15.014 6.641 1.631 6.729 4.019 12.441 6.929 18.477zm-14.322-38.445c-2.991-3.126-4.838-7.355-4.838-12.013 0-7 4.157-13.049 10.131-15.807-.02.714-.029 1.428-.029 2.14 0 0 .009 28.763.028 29.456-2.58-1.315-5.07-3.545-5.292-3.776zm27.848 56.991a81.112 81.112 0 0 0 20.247 15.165h-16.038c-4.054 0-7.973.584-11.688 1.652a51.483 51.483 0 0 0 7.479-16.817zm96.055 15.158a81.102 81.102 0 0 0 20.091-15.01 51.477 51.477 0 0 0 7.33 16.505 42.26 42.26 0 0 0-11.116-1.489h-16.304zm42.793-68.464c0-3.952.025-29.365.025-29.365 0-.685-.009-1.369-.027-2.056 5.878 2.796 9.951 8.793 9.951 15.723 0 4.644-1.835 8.862-4.81 11.985-1.738 1.693-3.455 3.009-5.139 3.713zm-20.181 23.299c-6.531 15.148-18.75 27.347-33.992 34.007-17.576 7.441-35.501 7.353-53.073-.007-14.264-6.237-25.882-17.324-32.662-31.143-3.736-7.835-6.523-16.115-6.523-28.141v-27.379c0-1.101-.029-3.448-.021-3.587l23.008-.143c17.99-.001 33.8-9.525 42.652-23.796 8.852 14.271 24.661 23.795 42.654 23.795h23.042c.008.14.018.28.025.419.057 1.105.097 2.21.097 3.311v27.379c0 11.321-1.758 17.115-5.207 25.285zm-158.57-60.027c-4.847 5.664-7.784 13.009-7.784 21.031 0 4.702 1.015 9.169 2.825 13.205-11.095 5.743-19.713 15.359-24.327 26.804-4.209-.992-8.55-1.397-14.843-1.544-4.572-.112-10.143-.085-17.405-.048-2.469.011-5.158.024-8.077.033v-17.45c31.779-16.149 55.432-45.941 63.121-81.562a45.587 45.587 0 0 0 7.098-1.38 91.34 91.34 0 0 0-1.69 17.499v19.547c0 1.415.4 2.735 1.082 3.865zM121.658 391.63H101.08v-31.849h4.202c2.012 13.513 7.424 24.043 16.376 31.849zm31.781-66.419a105.12 105.12 0 0 1-39.311-9.792c-11.047-5.4-20.786-12.179-29.05-20.131-15.73-15.362-26.645-35.578-30.262-58.182a105.155 105.155 0 0 1-1.315-16.521c0-44.794-.169-44.135.544-51.263 20.851.001 40.182-4.042 59.433-14.737 15.257 10.131 32.397 14.738 49.005 14.738h101.228c.372 3.7.539 7.398.539 10.5v39.087c-.044 4.178-.137 7.206-.317 9.831a103.906 103.906 0 0 1-.898 7.769l-.003.016c-7.344 47.625-47.063 84.79-96.043 88.516-4.507.354-9.024.409-13.55.169zm38.469 10.553a119.244 119.244 0 0 0 6.537-2.036v18.553c0 21.019-16.562 38.241-37.318 39.297a39.27 39.27 0 0 1-11.841-1.19c-16.89-4.355-29.417-19.679-29.513-37.897v-.072c-.002-.335-.004-.801-.005-1.455v-17.073a119.066 119.066 0 0 0 11.678 3.32c20.158 4.613 40.312 4.133 60.462-1.447zm21.026 24.017h3.854v31.849h-20.23c7.807-7.233 14.736-16.689 16.376-31.849zm88.938-154.726a91.417 91.417 0 0 0-12.091 19.906 30.757 30.757 0 0 1-10.907 5.18c.589-8.224.376-51.318.376-50.317 0-4.12-.305-8.586-.386-9.586 13.422 3.349 23.397 15.508 23.397 29.953 0 1.655-.137 3.278-.389 4.864zM174.671 29.456c58.101 0 105.369 47.269 105.369 105.369v19.498H162.482c-38.031 0-69.635-28.973-73.444-66.273l-.003-.034c-3.603-35.449 22.796-58.56 50.659-58.56h34.977zM33.474 154.323v-14.094c0-37.612 18.967-71.366 48.274-91.464-5.301 9.684-8.093 20.63-8.093 31.73 0 24.457 9.727 47.165 27.021 63.824-23.214 11.018-38.553 10.004-67.202 10.004zM15 200.19c0-14.623 10.22-26.902 23.892-30.072-.517 6.287-.392 6.123-.392 50.468 0 2.72.126 6.348.393 9.676C25.221 227.093 15 214.813 15 200.19zm6.294 99.469c0-17.837 8.291-34.327 22.143-44.96 6.42 21.827 18.671 40.758 35.78 55.595a120.904 120.904 0 0 0 25.55 17.255l-.001 12.452v4.765c-2.211-.009-4.303-.021-6.287-.031-.274-.001-20.297.047-20.297.047-3.293 0-6.52.279-9.669.795-2.351.335-4.531.79-6.694 1.407-3.056.828-5.99 1.947-9.094 3.46a56.646 56.646 0 0 1-31.431-50.785zm230.833 112.848v70.036H63.805v.001-120.377a44.297 44.297 0 0 1 4.963-1.379c3.274-.603 7.039-.885 11.946-1.006h5.367v32.571c0 7.872 6.405 14.277 14.277 14.277h117.151c7.873 0 14.277-6.405 14.277-14.277V359.71c3.924.006 7.036.047 9.613.158 3.665.164 6.334.477 8.835 1.057-.006.07-.203 1.961-.203 4.569v41.814c0 2.148.976 4.143 2.096 5.199zm32.615.9-.002 69.137h-17.614v-67.735h5.591c3.97.001 7.979-.475 12.025-1.402zm134.252-7.919h16.321c15.102 0 27.387 12.285 27.387 27.387v49.669h.004-162.924v-49.669c0-15.102 12.286-27.387 27.387-27.387h16.089c2.918 48.571 73.624 51.041 75.736 0zm55.547-73.826C487.946 337.331 497 350.705 497 365.494v34.315h-7.686c-20.246 0-36.717-16.472-36.717-36.718v-5.965c2.895-5.441 6.05-14.508 7.115-18.855 5.303-.881 10.384-3.22 14.829-6.609z"/></svg>