<svg xmlns="http://www.w3.org/2000/svg" viewBox="0 0 512 512"><path d="M299.7 198.3c-9.8-9.8-25.6-9.8-35.4 0-9.8 9.8-9.8 25.6 0 35.4l22.3 22.3H165c-13.8 0-25 11.2-25 25s11.2 25 25 25h121.6l-22.3 22.3c-9.8 9.8-9.8 25.6 0 35.4 4.9 4.9 11.3 7.3 17.7 7.3s12.8-2.4 17.7-7.3l65-65c9.8-9.8 9.8-25.6 0-35.4l-65-65z"/><path d="M437 90H208.3c-6.8-28.6-32.6-50-63.3-50H75c-35.8 0-65 29.2-65 65v302c0 35.8 29.2 65 65 65h362c35.8 0 65-29.2 65-65V155c0-35.8-29.2-65-65-65zm15 317c0 8.3-6.7 15-15 15H75c-8.3 0-15-6.7-15-15V105c0-8.3 6.7-15 15-15h70c8.3 0 15 6.7 15 15v10c0 13.8 11.2 25 25 25h252c8.3 0 15 6.7 15 15v252z"/></svg>