<?xml version="1.0" encoding="utf-8"?>
<!-- Generator: Adobe Illustrator 26.2.1, SVG Export Plug-In . SVG Version: 6.00 Build 0)  -->
<svg version="1.1" id="Capa_1" xmlns="http://www.w3.org/2000/svg" xmlns:xlink="http://www.w3.org/1999/xlink" x="0px" y="0px"
	 viewBox="0 0 512 512" style="enable-background:new 0 0 512 512;" xml:space="preserve">
<g>
	<g>
		<path d="M437,462H75c-35.8,0-65-29.2-65-65V115c0-35.8,29.2-65,65-65h362c35.8,0,65,29.2,65,65v282C502,432.8,472.8,462,437,462z
			 M75,100c-8.3,0-15,6.7-15,15v282c0,8.3,6.7,15,15,15h362c8.3,0,15-6.7,15-15V115c0-8.3-6.7-15-15-15H75z"/>
	</g>
</g>
</svg>
