<?xml version="1.0" encoding="iso-8859-1"?>
<!-- Generator: Adobe Illustrator 19.0.0, SVG Export Plug-In . SVG Version: 6.00 Build 0)  -->
<svg version="1.1" id="Layer_1" xmlns="http://www.w3.org/2000/svg" xmlns:xlink="http://www.w3.org/1999/xlink" x="0px" y="0px"
	 viewBox="0 0 512 512" style="enable-background:new 0 0 512 512;" xml:space="preserve">
<path d="M512,397c0-55.965-22.801-84.694-42.918-110.042C451.158,264.374,437,246.535,437,208c0-0.251-0.011-0.5-0.019-0.749
	c0.008-0.249,0.019-0.498,0.019-0.749c0-48.482-18.828-94.062-53.016-128.344C355.761,49.858,319.865,32.07,281,26.719V25
	c0-13.807-11.192-25-25-25s-25,11.193-25,25v1.754C142.992,39.107,75,115.687,75,208c0,38.535-14.158,56.374-32.082,78.958
	C22.801,312.306,0,341.035,0,397c0,0.432,0.011,0.862,0.033,1.289C0.724,433.535,29.591,462,65,462h141c0,27.57,22.43,50,50,50
	s50-22.43,50-50h141c35.409,0,64.276-28.465,64.967-63.711C511.989,397.862,512,397.432,512,397z M447,412H65
	c-8.271,0-15-6.729-15-15c0-38.535,14.158-56.374,32.082-78.958C102.199,292.694,125,263.965,125,208
	c0-73.3,58.736-132.963,130.933-133c0.023,0,0.044,0,0.068,0c34.964,0,67.842,13.66,92.58,38.465
	C373.355,138.309,387,171.35,387,206.502c0,0.251,0.011,0.5,0.019,0.749C387.011,207.5,387,207.749,387,208
	c0,55.965,22.801,84.694,42.918,110.042C447.842,340.626,462,358.465,462,397C462,405.271,455.271,412,447,412z"/>
<g>
</g>
<g>
</g>
<g>
</g>
<g>
</g>
<g>
</g>
<g>
</g>
<g>
</g>
<g>
</g>
<g>
</g>
<g>
</g>
<g>
</g>
<g>
</g>
<g>
</g>
<g>
</g>
<g>
</g>
</svg>
