<?xml version="1.0" encoding="utf-8"?>
<!-- Generator: Adobe Illustrator 23.0.4, SVG Export Plug-In . SVG Version: 6.00 Build 0)  -->
<svg version="1.1" id="Layer_1" xmlns="http://www.w3.org/2000/svg" xmlns:xlink="http://www.w3.org/1999/xlink" x="0px" y="0px"
	 viewBox="0 0 512 512" style="enable-background:new 0 0 512 512;" xml:space="preserve">
<path d="M469.1,287c-17.9-22.6-32.1-40.4-32.1-79c0-0.3,0-0.5,0-0.7c0-0.2,0-0.5,0-0.7c0-48.5-18.8-94.1-53-128.3
	c-28.2-28.3-64.1-46.1-103-51.4V25c0-13.8-11.2-25-25-25s-25,11.2-25,25v1.8C143,39.1,75,115.7,75,208c0,38.5-14.2,56.4-32.1,79
	C22.8,312.3,0,341,0,397c0,0.4,0,0.9,0,1.3C0.7,433.5,29.6,462,65,462h141c0,27.6,22.4,50,50,50s50-22.4,50-50h141
	c35.4,0,64.3-28.5,65-63.7c0-0.4,0-0.9,0-1.3C512,341,489.2,312.3,469.1,287z"/>
</svg>
