<?xml version="1.0" encoding="iso-8859-1"?>
<!-- Generator: Adobe Illustrator 19.0.0, SVG Export Plug-In . SVG Version: 6.00 Build 0)  -->
<svg version="1.1" id="Layer_1" xmlns="http://www.w3.org/2000/svg" xmlns:xlink="http://www.w3.org/1999/xlink" x="0px" y="0px"
	 viewBox="-49 141 512 512" style="enable-background:new -49 141 512 512;" xml:space="preserve">
<path d="M463,538c0-55.965-22.801-84.694-42.918-110.042C402.158,405.374,388,387.535,388,349c0-0.251-0.011-0.5-0.019-0.749
	c0.008-0.249,0.019-0.498,0.019-0.749c0-48.482-18.828-94.062-53.016-128.344c-28.223-28.3-64.119-46.088-102.984-51.439V166
	c0-13.807-11.192-25-25-25s-25,11.193-25,25v1.754C93.992,180.107,26,256.687,26,349c0,38.535-14.158,56.374-32.082,78.958
	C-26.199,453.306-49,482.035-49,538c0,0.432,0.011,0.862,0.033,1.289C-48.276,574.535-19.409,603,16,603h141c0,27.57,22.43,50,50,50
	s50-22.43,50-50h141c35.409,0,64.276-28.465,64.967-63.711C462.989,538.862,463,538.432,463,538z M398,553H16
	c-8.271,0-15-6.729-15-15c0-38.535,14.158-56.374,32.082-78.958C53.199,433.694,76,404.965,76,349
	c0-73.3,58.736-132.963,130.933-133c0.023,0,0.044,0,0.068,0c34.964,0,67.842,13.66,92.58,38.465
	C324.355,279.309,338,312.35,338,347.502c0,0.251,0.011,0.5,0.019,0.749C338.011,348.5,338,348.749,338,349
	c0,55.965,22.801,84.694,42.918,110.042C398.842,481.626,413,499.465,413,538C413,546.271,406.271,553,398,553z"/>
</svg>
