<svg xmlns="http://www.w3.org/2000/svg" viewBox="-49 141 512 512"><path d="M463 538c0-55.965-22.801-84.694-42.918-110.042C402.158 405.374 388 387.535 388 349c0-.251-.011-.5-.019-.749.008-.249.019-.498.019-.749 0-48.482-18.828-94.062-53.016-128.344-28.223-28.3-64.119-46.088-102.984-51.439V166c0-13.807-11.192-25-25-25s-25 11.193-25 25v1.754C93.992 180.107 26 256.687 26 349c0 38.535-14.158 56.374-32.082 78.958C-26.199 453.306-49 482.035-49 538c0 .432.011.862.033 1.289C-48.276 574.535-19.409 603 16 603h141c0 27.57 22.43 50 50 50s50-22.43 50-50h141c35.409 0 64.276-28.465 64.967-63.711.022-.427.033-.857.033-1.289zm-65 15H16c-8.271 0-15-6.729-15-15 0-38.535 14.158-56.374 32.082-78.958C53.199 433.694 76 404.965 76 349c0-73.3 58.736-132.963 130.933-133h.068c34.964 0 67.842 13.66 92.58 38.465C324.355 279.309 338 312.35 338 347.502c0 .251.011.5.019.749-.008.249-.019.498-.019.749 0 55.965 22.801 84.694 42.918 110.042C398.842 481.626 413 499.465 413 538c0 8.271-6.729 15-15 15z"/></svg>