<?xml version="1.0" encoding="utf-8"?>
<!-- Generator: Adobe Illustrator 22.0.1, SVG Export Plug-In . SVG Version: 6.00 Build 0)  -->
<svg version="1.1" id="Capa_1" xmlns="http://www.w3.org/2000/svg" xmlns:xlink="http://www.w3.org/1999/xlink" x="0px" y="0px"
	 viewBox="0 0 512 512" style="enable-background:new 0 0 512 512;" xml:space="preserve">
<g>
	<g>
		<path d="M416.5,425H95.5c-35.8,0-65-29.2-65-65V152c0-35.8,29.2-65,65-65h320.9c35.8,0,65,29.2,65,65V360
			C481.5,395.9,452.3,425,416.5,425z M95.5,137c-8.3,0-15,6.7-15,15V360c0,8.3,6.7,15,15,15h320.9c8.3,0,15-6.7,15-15V152
			c0-8.3-6.7-15-15-15H95.5z"/>
	</g>
</g>
</svg>
