<?xml version="1.0" encoding="utf-8"?>
<!-- Generator: Adobe Illustrator 22.0.1, SVG Export Plug-In . SVG Version: 6.00 Build 0)  -->
<svg version="1.1" id="Capa_1" xmlns="http://www.w3.org/2000/svg" xmlns:xlink="http://www.w3.org/1999/xlink" x="0px" y="0px"
	 viewBox="0 0 512 512" style="enable-background:new 0 0 512 512;" xml:space="preserve">
<g>
	<g>
		<path d="M446.8,392.9H65.2c-35.8,0-65-29.2-65-65V184.1c0-35.8,29.2-65,65-65h381.6c35.8,0,65,29.2,65,65v143.8
			C511.8,363.7,482.6,392.9,446.8,392.9z M65.2,169.1c-8.3,0-15,6.7-15,15v143.8c0,8.3,6.7,15,15,15h381.6c8.3,0,15-6.7,15-15V184.1
			c0-8.3-6.7-15-15-15H65.2z"/>
	</g>
</g>
</svg>
