<?xml version="1.0" encoding="utf-8"?>
<!-- Generator: Adobe Illustrator 22.0.1, SVG Export Plug-In . SVG Version: 6.00 Build 0)  -->
<svg version="1.1" id="Capa_1" xmlns="http://www.w3.org/2000/svg" xmlns:xlink="http://www.w3.org/1999/xlink" x="0px" y="0px"
	 viewBox="0 0 512 512" style="enable-background:new 0 0 512 512;" xml:space="preserve">
<g>
	<g>
		<path d="M371.4,436.4H140.6c-35.8,0-65-29.2-65-65V140.6c0-35.8,29.2-65,65-65h230.7c35.8,0,65,29.2,65,65v230.7
			C436.4,407.2,407.2,436.4,371.4,436.4z M140.6,125.6c-8.3,0-15,6.7-15,15v230.7c0,8.3,6.7,15,15,15h230.7c8.3,0,15-6.7,15-15
			V140.6c0-8.3-6.7-15-15-15H140.6z"/>
	</g>
</g>
</svg>
