<?xml version="1.0" encoding="utf-8"?>
<!-- Generator: Adobe Illustrator 22.0.1, SVG Export Plug-In . SVG Version: 6.00 Build 0)  -->
<svg version="1.1" id="Capa_1" xmlns="http://www.w3.org/2000/svg" xmlns:xlink="http://www.w3.org/1999/xlink" x="0px" y="0px"
	 viewBox="0 0 512 512" style="enable-background:new 0 0 512 512;" xml:space="preserve">
<g>
	<g>
		<path d="M366.6,481.5H158.6c-35.8,0-65-29.2-65-65V95.5c0-35.8,29.2-65,65-65h208.1c35.8,0,65,29.2,65,65v320.9
			C431.6,452.3,402.5,481.5,366.6,481.5z M158.6,80.5c-8.3,0-15,6.7-15,15v320.9c0,8.3,6.7,15,15,15h208.1c8.3,0,15-6.7,15-15V95.5
			c0-8.3-6.7-15-15-15H158.6z"/>
	</g>
</g>
</svg>
