<svg xmlns="http://www.w3.org/2000/svg" viewBox="-49 141 512 512"><path d="M-1.974 375.823c1.854.419 3.705.62 5.529.62 11.427 0 21.741-7.886 24.363-19.5a179.972 179.972 0 0 1 9.904-30.701c5.403-12.706-.517-27.387-13.223-32.79-12.705-5.4-27.387.519-32.79 13.224a230.085 230.085 0 0 0-12.664 39.256c-3.041 13.466 5.412 26.85 18.881 29.891zM27.938 437.148c-3.048-13.466-16.436-21.911-29.901-18.865-13.467 3.048-21.913 16.436-18.865 29.902a230.102 230.102 0 0 0 12.675 39.229c4.048 9.51 13.292 15.215 23.014 15.215 3.266 0 6.586-.645 9.781-2.005 12.704-5.407 18.618-20.091 13.21-32.794a179.894 179.894 0 0 1-9.914-30.682zM110.855 551.943a182.21 182.21 0 0 1-26.032-19.129c-10.355-9.134-26.154-8.14-35.286 2.217-9.131 10.355-8.139 26.153 2.217 35.285a232.333 232.333 0 0 0 33.196 24.393 24.884 24.884 0 0 0 12.929 3.621c8.456 0 16.707-4.291 21.407-12.052 7.153-11.809 3.378-27.182-8.431-34.335zM68.231 267.495a24.908 24.908 0 0 0 16.533-6.256 182.185 182.185 0 0 1 26.017-19.137c11.806-7.16 15.573-22.534 8.414-34.34-7.159-11.805-22.534-15.572-34.339-8.414A232.365 232.365 0 0 0 51.68 223.75c-10.352 9.137-11.338 24.935-2.202 35.287 4.941 5.6 11.83 8.458 18.753 8.458zM367.817 233.658C324.187 190.028 266.178 166 204.475 166c-7.46 0-14.986.36-22.368 1.071-13.744 1.323-23.812 13.537-22.489 27.281 1.323 13.743 13.537 23.823 27.281 22.488a184.5 184.5 0 0 1 17.576-.84v362c-5.867 0-11.78-.283-17.576-.841-13.744-1.335-25.958 8.745-27.281 22.488-1.323 13.744 8.745 25.958 22.489 27.281a234.26 234.26 0 0 0 22.368 1.071c61.702 0 119.711-24.028 163.342-67.658 43.63-43.63 67.658-101.64 67.658-163.342s-24.028-119.711-67.658-163.341z"/></svg>