<?xml version="1.0" encoding="iso-8859-1"?>
<!-- Generator: Adobe Illustrator 19.0.0, SVG Export Plug-In . SVG Version: 6.00 Build 0)  -->
<svg version="1.1" id="Layer_1" xmlns="http://www.w3.org/2000/svg" xmlns:xlink="http://www.w3.org/1999/xlink" x="0px" y="0px"
	 viewBox="0 0 462 462" style="enable-background:new 0 0 462 462;" xml:space="preserve">
<g>
	<path d="M22.025,209.822c1.854,0.419,3.705,0.62,5.529,0.62c11.427,0,21.741-7.886,24.363-19.5
		c2.367-10.482,5.699-20.812,9.904-30.701c5.403-12.706-0.517-27.387-13.223-32.79c-12.705-5.4-27.387,0.519-32.79,13.224
		c-5.377,12.646-9.638,25.853-12.664,39.256C0.104,193.398,8.557,206.782,22.025,209.822z"/>
	<path d="M51.938,271.148c-3.048-13.466-16.436-21.911-29.901-18.865c-13.467,3.048-21.913,16.436-18.865,29.902
		c3.031,13.394,7.296,26.592,12.675,39.229c4.048,9.51,13.292,15.215,23.014,15.215c3.266,0,6.586-0.645,9.781-2.005
		c12.704-5.407,18.618-20.091,13.21-32.794C57.644,291.946,54.308,281.624,51.938,271.148z"/>
	<path d="M134.854,385.942c-9.195-5.57-17.954-12.006-26.032-19.129c-10.355-9.134-26.154-8.14-35.286,2.217
		c-9.131,10.355-8.139,26.153,2.217,35.285c10.3,9.082,21.468,17.289,33.196,24.393c4.05,2.453,8.517,3.621,12.929,3.621
		c8.456,0,16.707-4.291,21.407-12.052C150.438,408.468,146.664,393.096,134.854,385.942z"/>
	<path d="M92.231,101.495c5.877,0,11.779-2.061,16.533-6.256c8.074-7.126,16.827-13.564,26.017-19.137
		c11.806-7.16,15.573-22.534,8.414-34.34c-7.159-11.805-22.534-15.572-34.339-8.414c-11.721,7.108-22.883,15.318-33.176,24.402
		c-10.352,9.137-11.338,24.935-2.202,35.287C78.418,98.637,85.307,101.495,92.231,101.495z"/>
	<path d="M391.816,67.658C348.186,24.028,290.177,0,228.475,0c-7.46,0-14.986,0.36-22.368,1.071
		c-13.744,1.323-23.812,13.537-22.489,27.281c1.323,13.743,13.537,23.823,27.281,22.488C216.694,50.283,222.608,50,228.475,50v362
		c-5.867,0-11.78-0.283-17.576-0.841c-13.744-1.335-25.958,8.745-27.281,22.488c-1.323,13.744,8.745,25.958,22.489,27.281
		c7.382,0.711,14.907,1.071,22.368,1.071c61.702,0,119.711-24.028,163.342-67.658c43.63-43.63,67.658-101.64,67.658-163.342
		S435.446,111.288,391.816,67.658z"/>
</g>
<g>
</g>
<g>
</g>
<g>
</g>
<g>
</g>
<g>
</g>
<g>
</g>
<g>
</g>
<g>
</g>
<g>
</g>
<g>
</g>
<g>
</g>
<g>
</g>
<g>
</g>
<g>
</g>
<g>
</g>
</svg>
