<svg xmlns="http://www.w3.org/2000/svg" width="512" height="512"><path d="M494.5 163.435h-15.148c.32-3.371-1.116-6.231-4.31-8.58-.432-.203-9.814-4.58-25.674-9.513V96.559a7.5 7.5 0 0 0-7.5-7.5c-63.872 0-112.353 19.549-141.775 35.949-16.567 9.234-29.049 18.448-37.35 25.306-1.264-13.741-4.554-34.578-13.038-56.654C230.311 43.196 192.959 10.845 141.686.102c-5.343-.422-8.355 2.025-9.038 7.341v34.272a239.895 239.895 0 0 0-40.962-12.498c-5.342-.421-8.355 2.025-9.038 7.341v103.296c-27.614 6.582-44.919 14.637-45.69 14.999-3.193 2.349-4.63 5.209-4.31 8.58H17.5c-9.649 0-17.5 7.851-17.5 17.5v229.344c0 9.697 15 9.697 15 0V180.935c0-1.378 1.122-2.5 2.5-2.5h15.148v294.927a7.5 7.5 0 0 0 7.5 7.5h431.704a7.5 7.5 0 0 0 7.5-7.5V178.435H494.5c1.378 0 2.5 1.122 2.5 2.5v313.509c0 1.378-1.122 2.5-2.5 2.5H278.548c-12.158-12.521-32.937-12.521-45.096 0H17.5a2.503 2.503 0 0 1-2.5-2.5v-38.5c0-9.697-15-9.697-15 0v38.5c0 9.649 7.851 17.5 17.5 17.5h219.378a7.5 7.5 0 0 0 5.973-2.964c6.524-8.59 19.774-8.59 26.298 0a7.5 7.5 0 0 0 5.973 2.964H494.5c9.649 0 17.5-7.851 17.5-17.5V180.935c0-9.65-7.851-17.5-17.5-17.5zm-60.132-59.282v76.791a7.5 7.5 0 0 0 15 0v-19.849c6.583 2.173 11.686 4.139 14.984 5.487v273.117c-55.426-17.545-101.396-15.805-134.467-9.097 28.806-12.618 66.355-22.99 111.983-22.99a7.5 7.5 0 0 0 7.5-7.5V226.944a7.5 7.5 0 0 0-15 0v165.758c-60.176 1.449-106.015 20.106-134.275 35.858-16.052 8.947-28.281 17.882-36.577 24.667V169.673c11.417-10.947 70.88-63.009 170.852-65.52zm-286.72-87.196c41.747 11.379 71.288 38.806 87.884 81.642 13.519 34.891 12.985 67.455 12.978 67.792l-.002.169v227.619c-18.923-46.777-53.664-77.469-100.86-89.161zm-15 41.022v253.017a7.5 7.5 0 0 0 5.962 7.341c46.543 9.75 79.152 37.95 96.922 83.814 4.815 12.427 7.846 24.557 9.754 35.042a273.154 273.154 0 0 0-22.025-27.764c-24.214-26.76-65.416-61.113-125.613-75.329V45.988a223.546 223.546 0 0 1 35 11.991zm-85 108.601c6.1-2.495 18.401-7.104 35-11.276v184.808a7.5 7.5 0 0 0 5.962 7.341c59.276 12.418 99.694 45.811 123.164 71.638a256.798 256.798 0 0 1 22.985 29.328c-9.12-4.5-20.536-9.252-34.132-13.247-33.308-9.786-86.312-16.576-152.978 4.527V166.58zm0 288.902c64.845-21.61 116.117-15.374 148-6.137 17.137 4.965 30.626 11.286 40.028 16.517H47.648zm228.625 10.38c9.235-5.14 22.457-11.341 39.329-16.298 32.02-9.407 83.534-15.816 148.75 5.918v10.38z"/></svg>