<?xml version="1.0" encoding="iso-8859-1"?>
<!-- Generator: Adobe Illustrator 19.0.0, SVG Export Plug-In . SVG Version: 6.00 Build 0)  -->
<svg version="1.1" id="Layer_1" xmlns="http://www.w3.org/2000/svg" xmlns:xlink="http://www.w3.org/1999/xlink" x="0px" y="0px"
	 viewBox="-49 141 512 512" style="enable-background:new -49 141 512 512;" xml:space="preserve">
<g>
	<g>
		<g>
			<path d="M167.089,650.914c-4.536,0-9.105-0.476-13.645-1.441c-56.47-12.026-107.823-43.382-144.599-88.29
				C-28.457,515.63-49,458.063-49,399.088c0-68.289,26.568-132.516,74.81-180.849c48.235-48.325,112.398-75.014,180.669-75.151
				c0.172,0,0.346-0.001,0.517-0.001c140.513,0,255.305,114.153,256,254.707c0.007,1.382,0.003,2.763-0.012,4.143
				c-0.358,32.797-13.529,63.552-37.085,86.599c-23.434,22.927-54.399,35.553-87.193,35.553H267c-19.299,0-35,15.701-35,35v26.805
				c0,19.708-8.786,38.123-24.105,50.523C196.18,645.899,181.819,650.914,167.089,650.914z M206.996,193.087
				c-0.146,0-0.271,0-0.417,0C93.223,193.314,1,285.726,1,399.088c0,96.65,68.492,181.385,162.858,201.48
				c6.102,1.303,10.498-1.332,12.578-3.016c2.078-1.682,5.564-5.434,5.564-11.66v-26.805c0-46.869,38.131-85,85-85h71.706
				c40.521,0,73.844-32.612,74.281-72.698v-0.002c0.012-1.112,0.016-2.226,0.01-3.343
				C412.438,284.948,320.056,193.087,206.996,193.087z"/>
		</g>
	</g>
	<g>
		<path d="M71,429.088c-16.542,0-30-13.458-30-30s13.458-30,30-30s30,13.458,30,30S87.542,429.088,71,429.088z"/>
	</g>
	<g>
		<path d="M207,293.088c-16.542,0-30-13.458-30-30s13.458-30,30-30s30,13.458,30,30C237,279.63,223.542,293.088,207,293.088z"/>
	</g>
	<g>
		<path d="M303.151,332.937c-16.542,0-30-13.458-30-30s13.458-30,30-30s30,13.458,30,30S319.693,332.937,303.151,332.937z"/>
	</g>
	<g>
		<path d="M110.849,332.937c-16.542,0-30-13.458-30-30s13.458-30,30-30s30,13.458,30,30S127.391,332.937,110.849,332.937z"/>
	</g>
</g>
</svg>
