<?xml version="1.0" encoding="iso-8859-1"?>
<!-- Generator: Adobe Illustrator 19.0.0, SVG Export Plug-In . SVG Version: 6.00 Build 0)  -->
<svg version="1.1" id="Layer_1" xmlns="http://www.w3.org/2000/svg" xmlns:xlink="http://www.w3.org/1999/xlink" x="0px" y="0px"
	 viewBox="0 0 512 512" style="enable-background:new 0 0 512 512;" xml:space="preserve">
<g>
	<g>
		<g>
			<path d="M216.089,509.914c-4.536,0-9.105-0.476-13.645-1.441c-56.47-12.026-107.823-43.382-144.599-88.29
				C20.543,374.629,0,317.063,0,258.087c0-68.289,26.568-132.516,74.81-180.849C123.045,28.914,187.208,2.224,255.479,2.087
				c0.172,0,0.346-0.001,0.517-0.001c140.513,0,255.305,114.153,256,254.707c0.007,1.382,0.003,2.763-0.012,4.143
				c-0.358,32.797-13.529,63.552-37.085,86.599c-23.434,22.927-54.399,35.553-87.193,35.553H316c-19.299,0-35,15.701-35,35v26.805
				c0,19.708-8.786,38.123-24.105,50.523C245.18,504.899,230.819,509.914,216.089,509.914z M255.996,52.087
				c-0.146,0-0.271,0-0.417,0C142.223,52.314,50,144.725,50,258.087c0,96.65,68.492,181.385,162.858,201.48
				c6.102,1.303,10.498-1.332,12.578-3.016c2.078-1.682,5.564-5.434,5.564-11.66v-26.805c0-46.869,38.131-85,85-85h71.706
				c40.521,0,73.844-32.612,74.281-72.698v-0.002c0.012-1.112,0.016-2.226,0.01-3.343
				C461.438,143.949,369.056,52.087,255.996,52.087z"/>
		</g>
	</g>
	<g>
		<path d="M120,288.087c-16.542,0-30-13.458-30-30s13.458-30,30-30s30,13.458,30,30S136.542,288.087,120,288.087z"/>
	</g>
	<g>
		<path d="M256,152.087c-16.542,0-30-13.458-30-30s13.458-30,30-30s30,13.458,30,30S272.542,152.087,256,152.087z"/>
	</g>
	<g>
		<path d="M352.151,191.936c-16.542,0-30-13.458-30-30s13.458-30,30-30s30,13.458,30,30S368.693,191.936,352.151,191.936z"/>
	</g>
	<g>
		<path d="M159.849,191.936c-16.542,0-30-13.458-30-30s13.458-30,30-30s30,13.458,30,30S176.391,191.936,159.849,191.936z"/>
	</g>
</g>
<g>
</g>
<g>
</g>
<g>
</g>
<g>
</g>
<g>
</g>
<g>
</g>
<g>
</g>
<g>
</g>
<g>
</g>
<g>
</g>
<g>
</g>
<g>
</g>
<g>
</g>
<g>
</g>
<g>
</g>
</svg>
