<svg xmlns="http://www.w3.org/2000/svg" viewBox="-49 141 512 512"><path d="M167.089 650.914c-4.536 0-9.105-.476-13.645-1.441-56.47-12.026-107.823-43.382-144.599-88.29C-28.457 515.63-49 458.063-49 399.088c0-68.289 26.568-132.516 74.81-180.849 48.235-48.325 112.398-75.014 180.669-75.151l.517-.001c140.513 0 255.305 114.153 256 254.707.007 1.382.003 2.763-.012 4.143-.358 32.797-13.529 63.552-37.085 86.599-23.434 22.927-54.399 35.553-87.193 35.553H267c-19.299 0-35 15.701-35 35v26.805c0 19.708-8.786 38.123-24.105 50.523-11.715 9.482-26.076 14.497-40.806 14.497zm39.907-457.827h-.417C93.223 193.314 1 285.726 1 399.088c0 96.65 68.492 181.385 162.858 201.48 6.102 1.303 10.498-1.332 12.578-3.016 2.078-1.682 5.564-5.434 5.564-11.66v-26.805c0-46.869 38.131-85 85-85h71.706c40.521 0 73.844-32.612 74.281-72.698v-.002c.012-1.112.016-2.226.01-3.343-.559-113.096-92.941-204.957-206.001-204.957z"/><path d="M71 429.088c-16.542 0-30-13.458-30-30s13.458-30 30-30 30 13.458 30 30-13.458 30-30 30zM207 293.088c-16.542 0-30-13.458-30-30s13.458-30 30-30 30 13.458 30 30-13.458 30-30 30zM303.151 332.937c-16.542 0-30-13.458-30-30s13.458-30 30-30 30 13.458 30 30-13.458 30-30 30zM110.849 332.937c-16.542 0-30-13.458-30-30s13.458-30 30-30 30 13.458 30 30-13.458 30-30 30z"/></svg>