<?xml version="1.0" encoding="iso-8859-1"?>
<!-- Generator: Adobe Illustrator 19.0.0, SVG Export Plug-In . SVG Version: 6.00 Build 0)  -->
<svg version="1.1" id="Layer_1" xmlns="http://www.w3.org/2000/svg" xmlns:xlink="http://www.w3.org/1999/xlink" x="0px" y="0px"
	 viewBox="-49 141 512 512" style="enable-background:new -49 141 512 512;" xml:space="preserve">
<path d="M449.33,143.713c-8.391-4.264-18.461-3.456-26.062,2.089l-462,337c-8.266,6.028-12.023,16.484-9.487,26.396
	c2.536,9.91,10.855,17.276,21,18.594l209.22,27.171v73.036c0,11.034,7.234,20.764,17.801,23.941
	c2.381,0.716,4.803,1.061,7.198,1.061c8.235,0,16.14-4.083,20.854-11.214l49.243-74.475c0,0,159.833,20.687,160.905,20.687
	c6.035,0,11.91-2.188,16.499-6.219c5.403-4.746,8.5-11.59,8.5-18.781v-397C463,156.59,457.717,147.977,449.33,143.713z
	 M347.374,263.049L194.361,506.147L41.348,486.275L347.374,263.049z M268.388,515.761c-0.137-0.02-19.411-2.521-19.411-2.521
	L413,252.649v281.893L268.388,515.761z"/>
</svg>
