<?xml version="1.0" encoding="iso-8859-1"?>
<!-- Generator: Adobe Illustrator 19.0.0, SVG Export Plug-In . SVG Version: 6.00 Build 0)  -->
<svg version="1.1" id="Layer_1" xmlns="http://www.w3.org/2000/svg" xmlns:xlink="http://www.w3.org/1999/xlink" x="0px" y="0px"
	 viewBox="0 0 504.671 504.671" style="enable-background:new 0 0 504.671 504.671;" xml:space="preserve">
<path d="M375.749,486.444l127.986-454.67c2.45-8.704,0.008-18.056-6.387-24.452S481.6-1.514,472.896,0.935L18.227,128.922
	c-8.528,2.401-15.148,9.135-17.403,17.702c-2.255,8.568,0.193,17.688,6.435,23.976l84.665,85.288L77.131,400.119
	c-0.767,7.481,1.874,14.911,7.192,20.229c5.318,5.318,12.747,7.959,20.229,7.192l144.232-14.793l85.288,84.665
	c6.287,6.241,15.408,8.689,23.976,6.435C366.614,501.592,373.348,494.972,375.749,486.444z M142.87,249.221
	c0.764-7.45-1.852-14.849-7.128-20.163l-63.058-63.521l321.632-90.537L134.045,335.27L142.87,249.221z M275.613,368.928
	c-5.314-5.276-12.714-7.892-20.163-7.128l-86.05,8.826l260.272-260.272l-90.537,321.632L275.613,368.928z"/>
<g>
</g>
<g>
</g>
<g>
</g>
<g>
</g>
<g>
</g>
<g>
</g>
<g>
</g>
<g>
</g>
<g>
</g>
<g>
</g>
<g>
</g>
<g>
</g>
<g>
</g>
<g>
</g>
<g>
</g>
</svg>
