<?xml version="1.0" encoding="iso-8859-1"?>
<!-- Generator: Adobe Illustrator 19.0.0, SVG Export Plug-In . SVG Version: 6.00 Build 0)  -->
<svg version="1.1" id="Layer_1" xmlns="http://www.w3.org/2000/svg" xmlns:xlink="http://www.w3.org/1999/xlink" x="0px" y="0px"
	 viewBox="0 0 512.002 512.002" style="enable-background:new 0 0 512.002 512.002;" xml:space="preserve">
<path d="M498.331,2.714c-8.391-4.264-18.461-3.456-26.062,2.089l-462,337c-8.266,6.028-12.023,16.484-9.487,26.396
	c2.536,9.91,10.855,17.276,21,18.594l209.22,27.171V487c0,11.034,7.234,20.764,17.801,23.941c2.381,0.716,4.803,1.061,7.198,1.061
	c8.235,0,16.14-4.083,20.854-11.214l49.243-74.475c0,0,159.833,20.687,160.905,20.687c6.035,0,11.91-2.188,16.499-6.219
	c5.403-4.746,8.5-11.59,8.5-18.781V25C512.002,15.591,506.718,6.978,498.331,2.714z M396.375,122.05L243.363,365.148L90.349,345.276
	L396.375,122.05z M317.389,374.762c-0.137-0.02-19.411-2.521-19.411-2.521L462.002,111.65v281.893L317.389,374.762z"/>
<g>
</g>
<g>
</g>
<g>
</g>
<g>
</g>
<g>
</g>
<g>
</g>
<g>
</g>
<g>
</g>
<g>
</g>
<g>
</g>
<g>
</g>
<g>
</g>
<g>
</g>
<g>
</g>
<g>
</g>
</svg>
