<svg xmlns="http://www.w3.org/2000/svg" viewBox="0 0 504.671 504.671"><path d="M375.749 486.444l127.986-454.67c2.45-8.704.008-18.056-6.387-24.452S481.6-1.514 472.896.935L18.227 128.922A25.002 25.002 0 0 0 7.259 170.6l84.665 85.288-14.793 144.231a25.002 25.002 0 0 0 27.421 27.421l144.232-14.793 85.288 84.665a25.003 25.003 0 0 0 23.976 6.435 25.002 25.002 0 0 0 17.701-17.403zM142.87 249.221a24.997 24.997 0 0 0-7.128-20.163l-63.058-63.521L394.316 75 134.045 335.27l8.825-86.049zm132.743 119.707a24.999 24.999 0 0 0-20.163-7.128l-86.05 8.826 260.272-260.272-90.537 321.632-63.522-63.058z"/></svg>