<?xml version="1.0" encoding="utf-8"?>
<!-- Generator: Adobe Illustrator 24.0.1, SVG Export Plug-In . SVG Version: 6.00 Build 0)  -->
<svg version="1.1" id="Capa_1" xmlns="http://www.w3.org/2000/svg" xmlns:xlink="http://www.w3.org/1999/xlink" x="0px" y="0px"
	 viewBox="0 0 512 512" style="enable-background:new 0 0 512 512;" xml:space="preserve">
<g>
	<path d="M437,191.5h-57v-79c0-35.8-29.2-65-65-65h-33.4c-6.9-22.5-27.9-39-52.6-39h-67c-24.8,0-45.7,16.5-52.6,39H75
		c-35.8,0-65,29.2-65,65v313c0,35.8,29.2,65,65,65h183c0.7,0,1.3,0,1.9-0.1c10.9,8.2,24.4,13.1,39.1,13.1h138c35.8,0,65-29.2,65-65
		v-182C502,220.7,472.8,191.5,437,191.5z M157,63.5c0-2.8,2.2-5,5-5h67c2.8,0,5,2.2,5,5v40c0,2.8-2.2,5-5,5h-67c-2.8,0-5-2.2-5-5
		V63.5z M60,425.5v-313c0-8.3,6.7-15,15-15h32v6c0,30.3,24.7,55,55,55h67c30.3,0,55-24.7,55-55v-6h31c8.3,0,15,6.7,15,15v79h-31
		c-35.8,0-65,29.2-65,65v182c0,0.7,0,1.3,0.1,2H75C66.7,440.5,60,433.8,60,425.5z M452,438.5c0,8.3-6.7,15-15,15H299
		c-8.3,0-15-6.7-15-15v-182c0-8.3,6.7-15,15-15h138c8.3,0,15,6.7,15,15V438.5z"/>
	<path d="M398,278.5h-60c-13.8,0-25,11.2-25,25s11.2,25,25,25h60c13.8,0,25-11.2,25-25S411.8,278.5,398,278.5z"/>
	<path d="M398,366.5h-60c-13.8,0-25,11.2-25,25s11.2,25,25,25h60c13.8,0,25-11.2,25-25S411.8,366.5,398,366.5z"/>
</g>
</svg>
