<?xml version="1.0" encoding="utf-8"?>
<!-- Generator: Adobe Illustrator 26.0.2, SVG Export Plug-In . SVG Version: 6.00 Build 0)  -->
<svg version="1.1" id="Capa_1" xmlns="http://www.w3.org/2000/svg" xmlns:xlink="http://www.w3.org/1999/xlink" x="0px" y="0px"
	 viewBox="0 0 512 512" style="enable-background:new 0 0 512 512;" xml:space="preserve">
<g>
	<path d="M422,25H90c-35.8,0-65,29.2-65,65v332c0,35.8,29.2,65,65,65h332c35.8,0,65-29.2,65-65V90C487,54.2,457.8,25,422,25z
		 M437,422c0,8.3-6.7,15-15,15H90c-8.3,0-15-6.7-15-15V90c0-8.3,6.7-15,15-15h332c8.3,0,15,6.7,15,15V422z"/>
	<path d="M175,226c28.1,0,51-22.9,51-51s-22.9-51-51-51s-51,22.9-51,51S146.9,226,175,226z M175,174c0.6,0,1,0.4,1,1s-0.4,1-1,1
		s-1-0.4-1-1S174.4,174,175,174z"/>
	<path d="M312,225h50c13.8,0,25-11.2,25-25v-50c0-13.8-11.2-25-25-25h-50c-13.8,0-25,11.2-25,25v50C287,213.8,298.2,225,312,225z"/>
	<path d="M191.7,282.3c-9.8-9.8-25.6-9.8-35.4,0l-35,35c-9.8,9.8-9.8,25.6,0,35.4l35,35c4.9,4.9,11.3,7.3,17.7,7.3
		s12.8-2.4,17.7-7.3l35-35c9.8-9.8,9.8-25.6,0-35.4L191.7,282.3z"/>
	<path d="M358.2,292.8c-4.6-7.3-12.6-11.8-21.2-11.8s-16.6,4.4-21.2,11.8l-35,56c-4.8,7.7-5.1,17.4-0.7,25.4
		c4.4,7.9,12.8,12.9,21.9,12.9h70c9.1,0,17.5-4.9,21.9-12.9c4.4-7.9,4.2-17.7-0.7-25.4L358.2,292.8z"/>
</g>
</svg>
