<?xml version="1.0" encoding="iso-8859-1"?>
<!-- Generator: Adobe Illustrator 19.0.0, SVG Export Plug-In . SVG Version: 6.00 Build 0)  -->
<svg version="1.1" id="Layer_1" xmlns="http://www.w3.org/2000/svg" xmlns:xlink="http://www.w3.org/1999/xlink" x="0px" y="0px"
	 viewBox="0 0 322 322" style="enable-background:new 0 0 322 322;" xml:space="preserve">
<g>
	<g>
		<path d="M94,322H54c-13.807,0-25-11.193-25-25V25C29,11.193,40.193,0,54,0h40c13.807,0,25,11.193,25,25v272
			C119,310.807,107.807,322,94,322z"/>
	</g>
	<g>
		<path d="M268,322h-40c-13.807,0-25-11.193-25-25V25c0-13.807,11.193-25,25-25h40c13.807,0,25,11.193,25,25v272
			C293,310.807,281.807,322,268,322z"/>
	</g>
</g>
<g>
</g>
<g>
</g>
<g>
</g>
<g>
</g>
<g>
</g>
<g>
</g>
<g>
</g>
<g>
</g>
<g>
</g>
<g>
</g>
<g>
</g>
<g>
</g>
<g>
</g>
<g>
</g>
<g>
</g>
</svg>
