<?xml version="1.0" encoding="iso-8859-1"?>
<!-- Generator: Adobe Illustrator 19.0.0, SVG Export Plug-In . SVG Version: 6.00 Build 0)  -->
<svg version="1.1" id="Layer_1" xmlns="http://www.w3.org/2000/svg" xmlns:xlink="http://www.w3.org/1999/xlink" x="0px" y="0px"
	 viewBox="-49 141 512 512" style="enable-background:new -49 141 512 512;" xml:space="preserve">
<g id="XMLID_3_">
	<g id="XMLID_6_">
		<path id="XMLID_7_" d="M140,558h-40c-13.807,0-25-11.193-25-25V261c0-13.807,11.193-25,25-25h40c13.807,0,25,11.193,25,25v272
			C165,546.807,153.807,558,140,558z"/>
	</g>
	<g id="XMLID_4_">
		<path id="XMLID_5_" d="M314,558h-40c-13.807,0-25-11.193-25-25V261c0-13.807,11.193-25,25-25h40c13.807,0,25,11.193,25,25v272
			C339,546.807,327.807,558,314,558z"/>
	</g>
</g>
</svg>
