<?xml version="1.0" encoding="iso-8859-1"?>
<!-- Generator: Adobe Illustrator 19.0.0, SVG Export Plug-In . SVG Version: 6.00 Build 0)  -->
<svg version="1.1" id="Layer_1" xmlns="http://www.w3.org/2000/svg" xmlns:xlink="http://www.w3.org/1999/xlink" x="0px" y="0px"
	 viewBox="0 0 512.213 512.213" style="enable-background:new 0 0 512.213 512.213;" xml:space="preserve">
<path d="M445.583,159.715c-14.021-16.249-31.367-28.854-50.594-37.17c-3.478-27.033-14.784-52.749-32.972-73.829
	C335.304,17.756,296.532,0,255.641,0H144.014c-15.584,0-30.664,5.606-42.463,15.787S81.998,40.064,79.715,55.48L32.77,372.552
	c-1.064,7.19,1.054,14.489,5.803,19.993s11.658,8.668,18.928,8.668h71.027l-12.191,82.339c-1.064,7.19,1.054,14.489,5.803,19.993
	s11.658,8.668,18.928,8.668h100c12.393,0,22.915-9.079,24.73-21.339L280.437,392h58.771c33.685,0,66.281-12.119,91.785-34.124
	c25.504-22.006,42.267-52.477,47.2-85.799C484.182,231.629,472.296,190.674,445.583,159.715z M135.929,351.213H86.474
	l42.702-288.409c1.081-7.3,7.46-12.804,14.838-12.804h111.627c26.339,0,51.313,11.438,68.52,31.379
	c7.609,8.818,13.346,18.897,17.05,29.648c-0.667-0.01-1.334-0.027-2.003-0.027H227.581c-15.584,0-30.664,5.606-42.463,15.787
	s-19.554,24.277-21.836,39.693L135.929,351.213z M428.732,264.755C422.212,308.792,383.725,342,339.207,342h-80.342
	c-12.393,0-22.915,9.079-24.73,21.339l-14.64,98.874H170.04L196.871,281h58.77c33.685,0,66.281-12.119,91.785-34.124
	c21.267-18.35,36.449-42.589,43.769-69.456c6.046,4.245,11.608,9.252,16.532,14.958C424.934,212.32,432.589,238.7,428.732,264.755z"
	/>
<g>
</g>
<g>
</g>
<g>
</g>
<g>
</g>
<g>
</g>
<g>
</g>
<g>
</g>
<g>
</g>
<g>
</g>
<g>
</g>
<g>
</g>
<g>
</g>
<g>
</g>
<g>
</g>
<g>
</g>
</svg>
