<?xml version="1.0" encoding="iso-8859-1"?>
<!-- Generator: Adobe Illustrator 19.0.0, SVG Export Plug-In . SVG Version: 6.00 Build 0)  -->
<svg version="1.1" id="Layer_1" xmlns="http://www.w3.org/2000/svg" xmlns:xlink="http://www.w3.org/1999/xlink" x="0px" y="0px"
	 viewBox="-49 141 512 512" style="enable-background:new -49 141 512 512;" xml:space="preserve">
<path d="M396.476,300.608c-14.021-16.249-31.367-28.854-50.594-37.17c-3.478-27.033-14.784-52.749-32.972-73.829
	c-26.713-30.96-65.486-48.716-106.376-48.716H94.907c-15.584,0-30.664,5.606-42.463,15.787s-19.554,24.277-21.836,39.693
	l-46.945,317.072c-1.064,7.19,1.054,14.489,5.803,19.993c4.749,5.504,11.658,8.668,18.928,8.668h71.027L67.23,624.445
	c-1.064,7.19,1.054,14.489,5.803,19.993c4.749,5.504,11.658,8.668,18.928,8.668h100c12.393,0,22.915-9.079,24.73-21.339
	l14.639-98.874h58.771c33.685,0,66.281-12.119,91.785-34.124c25.504-22.006,42.267-52.477,47.2-85.799
	C435.075,372.522,423.189,331.568,396.476,300.608z M86.822,492.107H37.367l42.702-288.409c1.081-7.3,7.46-12.804,14.838-12.804
	h111.627c26.339,0,51.313,11.438,68.52,31.379c7.609,8.818,13.346,18.897,17.05,29.648c-0.667-0.01-1.334-0.027-2.003-0.027H178.473
	c-15.584,0-30.664,5.606-42.463,15.787c-11.799,10.181-19.554,24.277-21.836,39.693L86.822,492.107z M379.625,405.648
	c-6.52,44.037-45.007,77.245-89.525,77.245h-80.342c-12.393,0-22.915,9.079-24.73,21.339l-14.64,98.874h-49.455l26.831-181.213
	h58.77c33.685,0,66.281-12.119,91.785-34.124c21.267-18.35,36.449-42.589,43.769-69.456c6.046,4.245,11.608,9.252,16.532,14.958
	C375.827,353.214,383.482,379.594,379.625,405.648z"/>
</svg>
