<svg xmlns="http://www.w3.org/2000/svg" viewBox="-49 141 512 512"><path d="M396.476 300.608a140.424 140.424 0 0 0-50.594-37.17 140.387 140.387 0 0 0-32.972-73.829 140.388 140.388 0 0 0-106.376-48.716H94.907c-15.584 0-30.664 5.606-42.463 15.787s-19.554 24.277-21.836 39.693l-46.945 317.072a25.003 25.003 0 0 0 24.731 28.661h71.027L67.23 624.445a25.003 25.003 0 0 0 24.731 28.661h100c12.393 0 22.915-9.079 24.73-21.339l14.639-98.874h58.771a140.55 140.55 0 0 0 91.785-34.124 140.548 140.548 0 0 0 47.2-85.799 140.387 140.387 0 0 0-32.61-112.362zM86.822 492.107H37.367l42.702-288.409c1.081-7.3 7.46-12.804 14.838-12.804h111.627a90.432 90.432 0 0 1 68.52 31.379 90.47 90.47 0 0 1 17.05 29.648c-.667-.01-1.334-.027-2.003-.027H178.473a65.02 65.02 0 0 0-42.463 15.787 65.02 65.02 0 0 0-21.836 39.693L86.822 492.107zm292.803-86.459c-6.52 44.037-45.007 77.245-89.525 77.245h-80.342c-12.393 0-22.915 9.079-24.73 21.339l-14.64 98.874h-49.455l26.831-181.213h58.77a140.55 140.55 0 0 0 91.785-34.124 140.553 140.553 0 0 0 43.769-69.456 90.576 90.576 0 0 1 16.532 14.958 90.432 90.432 0 0 1 21.005 72.377z"/></svg>