<?xml version="1.0" encoding="iso-8859-1"?>
<!-- Generator: Adobe Illustrator 19.0.0, SVG Export Plug-In . SVG Version: 6.00 Build 0)  -->
<svg version="1.1" id="Layer_1" xmlns="http://www.w3.org/2000/svg" xmlns:xlink="http://www.w3.org/1999/xlink" x="0px" y="0px"
	 viewBox="-49 141 512 512" style="enable-background:new -49 141 512 512;" xml:space="preserve">
<path d="M418.834,199.236l-14.142-14.142c-23.679-23.679-64.603-27.321-91.924,0l-42.417,42.417
	c-0.003,0.003-0.007,0.006-0.01,0.009c-0.003,0.003-0.006,0.007-0.009,0.01L-16.806,514.668c-4.688,4.689-7.322,11.047-7.322,17.678
	v70.71c0,13.807,11.193,25,25,25h70.71c6.63,0,12.989-2.634,17.678-7.322l287.147-287.146c0,0,0,0,0.001-0.001s0,0,0,0
	l42.426-42.426C446.53,263.464,442.513,222.915,418.834,199.236z M61.227,578.056H25.872v-35.355l262.147-262.147l35.355,35.355
	L61.227,578.056z M383.478,255.805l-24.749,24.749l-35.355-35.355l24.749-24.749c5.321-5.321,14.784-6.429,21.213,0l14.142,14.142
	C388.845,239.958,389.487,249.796,383.478,255.805z"/>
</svg>
