<svg xmlns="http://www.w3.org/2000/svg" viewBox="-49 141 512 512"><path d="M418.834 199.236l-14.142-14.142c-23.679-23.679-64.603-27.321-91.924 0l-42.417 42.417-.01.009-.009.01-287.138 287.138a25.002 25.002 0 0 0-7.322 17.678v70.71c0 13.807 11.193 25 25 25h70.71c6.63 0 12.989-2.634 17.678-7.322l287.147-287.146.001-.001c.001-.001 0 0 0 0l42.426-42.426c27.696-27.697 23.679-68.246 0-91.925zM61.227 578.056H25.872v-35.355l262.147-262.147 35.355 35.355L61.227 578.056zm322.251-322.251l-24.749 24.749-35.355-35.355 24.749-24.749c5.321-5.321 14.784-6.429 21.213 0l14.142 14.142c5.367 5.366 6.009 15.204 0 21.213z"/></svg>