<?xml version="1.0" encoding="iso-8859-1"?>
<!-- Generator: Adobe Illustrator 19.0.0, SVG Export Plug-In . SVG Version: 6.00 Build 0)  -->
<svg version="1.1" id="Layer_1" xmlns="http://www.w3.org/2000/svg" xmlns:xlink="http://www.w3.org/1999/xlink" x="0px" y="0px"
	 viewBox="0 0 462.257 462.257" style="enable-background:new 0 0 462.257 462.257;" xml:space="preserve">
<path d="M442.962,33.364L428.82,19.222c-23.679-23.679-64.603-27.321-91.924,0l-42.417,42.417c-0.003,0.003-0.007,0.006-0.01,0.009
	s-0.006,0.007-0.009,0.01L7.322,348.796C2.634,353.484,0,359.843,0,366.474v70.71c0,13.807,11.193,25,25,25h70.71
	c6.63,0,12.989-2.634,17.678-7.322l287.147-287.146c0,0,0,0,0.001-0.001s0,0,0,0l42.426-42.426
	C470.658,97.592,466.641,57.043,442.962,33.364z M85.355,412.184H50v-35.355l262.147-262.147l35.355,35.355L85.355,412.184z
	 M407.606,89.933l-24.749,24.749l-35.355-35.355l24.749-24.749c5.321-5.321,14.784-6.429,21.213,0l14.142,14.142
	C412.973,74.086,413.615,83.924,407.606,89.933z"/>
<g>
</g>
<g>
</g>
<g>
</g>
<g>
</g>
<g>
</g>
<g>
</g>
<g>
</g>
<g>
</g>
<g>
</g>
<g>
</g>
<g>
</g>
<g>
</g>
<g>
</g>
<g>
</g>
<g>
</g>
</svg>
