<?xml version="1.0" encoding="iso-8859-1"?>
<!-- Generator: Adobe Illustrator 19.0.0, SVG Export Plug-In . SVG Version: 6.00 Build 0)  -->
<svg version="1.1" id="Layer_1" xmlns="http://www.w3.org/2000/svg" xmlns:xlink="http://www.w3.org/1999/xlink" x="0px" y="0px"
	 viewBox="-49 141 512 512" style="enable-background:new -49 141 512 512;" xml:space="preserve">
<path d="M308,151H106c-35.841,0-65,29.159-65,65v362c0,35.841,29.159,65,65,65h202c35.841,0,65-29.159,65-65V216
	C373,180.159,343.841,151,308,151z M207,613c-16.542,0-30-13.458-30-30s13.458-30,30-30s30,13.458,30,30S223.542,613,207,613z
	 M323,523H91V216c0-8.271,6.729-15,15-15h202c8.271,0,15,6.729,15,15V523z"/>
</svg>
