<?xml version="1.0" encoding="iso-8859-1"?>
<!-- Generator: Adobe Illustrator 19.0.0, SVG Export Plug-In . SVG Version: 6.00 Build 0)  -->
<svg version="1.1" id="Layer_1" xmlns="http://www.w3.org/2000/svg" xmlns:xlink="http://www.w3.org/1999/xlink" x="0px" y="0px"
	 viewBox="0 0 492 492" style="enable-background:new 0 0 492 492;" xml:space="preserve">
<g>
	<path d="M427,40H65C29.159,40,0,69.159,0,105v281.995c0,0.415,0.011,0.831,0.031,1.246C0.698,423.509,29.575,452,65,452h362
		c35.841,0,65-29.159,65-65V105C492,69.159,462.841,40,427,40z M65,90h362c8.271,0,15,6.729,15,15v282
		c0,2.235-0.505,4.351-1.386,6.258l-75.936-75.936c-9.764-9.763-25.592-9.763-35.355,0L296,350.645L178.678,233.322
		c-9.764-9.763-25.592-9.763-35.355,0L50,326.645V105C50,96.729,56.729,90,65,90z"/>
	<path d="M332,250c27.57,0,50-22.43,50-50s-22.43-50-50-50s-50,22.43-50,50S304.43,250,332,250z"/>
</g>
<g>
</g>
<g>
</g>
<g>
</g>
<g>
</g>
<g>
</g>
<g>
</g>
<g>
</g>
<g>
</g>
<g>
</g>
<g>
</g>
<g>
</g>
<g>
</g>
<g>
</g>
<g>
</g>
<g>
</g>
</svg>
