<svg xmlns="http://www.w3.org/2000/svg" viewBox="-49 141 512 512"><path d="M388 191H26c-35.841 0-65 29.159-65 65v281.995c0 .415.011.831.031 1.246C-38.302 574.509-9.425 603 26 603h362c35.841 0 65-29.159 65-65V256c0-35.841-29.159-65-65-65zM26 241h362c8.271 0 15 6.729 15 15v282a14.88 14.88 0 0 1-1.386 6.258l-75.936-75.936c-9.764-9.763-25.592-9.763-35.355 0L257 501.645 139.678 384.322c-9.764-9.763-25.592-9.763-35.355 0L11 477.645V256c0-8.271 6.729-15 15-15z"/><path d="M293 401c27.57 0 50-22.43 50-50s-22.43-50-50-50-50 22.43-50 50 22.43 50 50 50z"/></svg>