<svg xmlns="http://www.w3.org/2000/svg" width="512" height="512"><path d="M483.561 112.01H379.057L341.094 56.4a31.198 31.198 0 0 0-25.781-13.616h-55.096c-4.143 0-7.5 3.357-7.5 7.5s3.357 7.5 7.5 7.5h55.096a16.21 16.21 0 0 1 13.393 7.073l32.189 47.153H151.106l32.189-47.153a16.203 16.203 0 0 1 13.393-7.073h33.541c4.143 0 7.5-3.357 7.5-7.5s-3.357-7.5-7.5-7.5h-33.541A31.192 31.192 0 0 0 170.907 56.4l-37.963 55.61h-15.21v-8.392c0-10.458-8.508-18.966-18.966-18.966H59.746c-10.458 0-18.966 8.508-18.966 18.966v8.392H28.44C12.759 112.01 0 124.764 0 140.44v273.37c0 15.682 12.759 28.439 28.44 28.439h10.919v3.418c0 12.984 10.564 23.549 23.549 23.549h28.333c4.143 0 7.5-3.357 7.5-7.5s-3.357-7.5-7.5-7.5H62.908c-4.714 0-8.549-3.835-8.549-8.549v-3.418H457.64v3.418c0 4.714-3.835 8.549-8.549 8.549H121.229c-4.143 0-7.5 3.357-7.5 7.5s3.357 7.5 7.5 7.5h327.863c12.984 0 23.549-10.564 23.549-23.549v-3.418h10.92c15.682 0 28.439-12.758 28.439-28.439V140.44c0-15.676-12.758-28.43-28.439-28.43zM55.78 103.618a3.97 3.97 0 0 1 3.966-3.966h39.022a3.97 3.97 0 0 1 3.966 3.966v8.392H55.78zM28.44 127.01h455.12c7.41 0 13.439 6.025 13.439 13.431v38.199H347.817c-24.322-22.334-56.706-35.848-91.817-35.848-35.367 0-67.612 13.604-91.792 35.848H15v-38.2c0-7.405 6.029-13.43 13.44-13.43zm455.121 300.24H28.441c-7.411 0-13.44-6.029-13.44-13.439V193.64h135.18c-18.689 23.258-29.891 52.775-29.891 84.864 0 74.831 60.88 135.711 135.711 135.711 33.733 0 66.072-12.46 91.058-35.084 24.805-22.461 40.393-53.081 43.893-86.22a7.5 7.5 0 1 0-14.918-1.574c-3.11 29.464-16.977 56.694-39.043 76.675-22.222 20.122-50.984 31.203-80.989 31.203-66.561 0-120.711-54.15-120.711-120.711S189.439 157.792 256 157.792c60.612 0 112.088 45.266 119.737 105.293.523 4.109 4.271 7.008 8.388 6.491a7.498 7.498 0 0 0 6.491-8.388c-3.25-25.504-13.538-48.635-28.753-67.549H497V413.81c0 7.411-6.029 13.44-13.439 13.44z"/><path d="M430.113 160.325h23.31c4.143 0 7.5-3.357 7.5-7.5s-3.357-7.5-7.5-7.5h-23.31c-4.143 0-7.5 3.357-7.5 7.5s3.358 7.5 7.5 7.5zM256 176.245c-56.386 0-102.259 45.873-102.259 102.259S199.614 380.763 256 380.763s102.259-45.873 102.259-102.259S312.386 176.245 256 176.245zm0 189.518c-48.114 0-87.259-39.145-87.259-87.259s39.145-87.259 87.259-87.259 87.259 39.145 87.259 87.259-39.145 87.259-87.259 87.259z"/><path d="M256 214.095c-35.516 0-64.409 28.894-64.409 64.409 0 4.143 3.357 7.5 7.5 7.5s7.5-3.357 7.5-7.5c0-27.244 22.165-49.409 49.409-49.409 4.143 0 7.5-3.357 7.5-7.5s-3.357-7.5-7.5-7.5zM443.506 384.753a7.499 7.499 0 0 0-7.5 7.5v3.1c0 4.143 3.357 7.5 7.5 7.5s7.5-3.357 7.5-7.5v-3.1a7.5 7.5 0 0 0-7.5-7.5zM68.495 384.753a7.499 7.499 0 0 0-7.5 7.5v3.1c0 4.143 3.357 7.5 7.5 7.5s7.5-3.357 7.5-7.5v-3.1c0-4.143-3.357-7.5-7.5-7.5z"/></svg>