<svg id="Capa_1" enable-background="new 0 0 512 512" height="512" viewBox="0 0 512 512" width="512" xmlns="http://www.w3.org/2000/svg"><g><path d="m483.561 112.01h-104.504l-37.963-55.61c-5.821-8.526-15.459-13.616-25.781-13.616h-55.096c-4.143 0-7.5 3.357-7.5 7.5s3.357 7.5 7.5 7.5h55.096c5.362 0 10.369 2.645 13.393 7.073l32.189 47.153h-209.789l32.189-47.153c3.023-4.429 8.029-7.073 13.393-7.073h33.541c4.143 0 7.5-3.357 7.5-7.5s-3.357-7.5-7.5-7.5h-33.541c-10.324 0-19.962 5.09-25.781 13.616l-37.963 55.61h-15.21v-8.392c0-10.458-8.508-18.966-18.966-18.966h-39.022c-10.458 0-18.966 8.508-18.966 18.966v8.392h-12.34c-15.681 0-28.44 12.754-28.44 28.43v273.37c0 15.682 12.759 28.439 28.44 28.439h10.919v3.418c0 12.984 10.564 23.549 23.549 23.549h28.333c4.143 0 7.5-3.357 7.5-7.5s-3.357-7.5-7.5-7.5h-28.333c-4.714 0-8.549-3.835-8.549-8.549v-3.418h403.281v3.418c0 4.714-3.835 8.549-8.549 8.549h-327.862c-4.143 0-7.5 3.357-7.5 7.5s3.357 7.5 7.5 7.5h327.863c12.984 0 23.549-10.564 23.549-23.549v-3.418h10.92c15.682 0 28.439-12.758 28.439-28.439v-273.37c0-15.676-12.758-28.43-28.439-28.43zm-427.781-8.392c0-2.187 1.779-3.966 3.966-3.966h39.022c2.187 0 3.966 1.779 3.966 3.966v8.392h-46.954zm-27.34 23.392h455.12c7.41 0 13.439 6.025 13.439 13.431v38.199h-149.182c-24.322-22.334-56.706-35.848-91.817-35.848-35.367 0-67.612 13.604-91.792 35.848h-149.208v-38.2c0-7.405 6.029-13.43 13.44-13.43zm455.121 300.24c-28.759 0-437.957 0-455.12 0-7.411 0-13.44-6.029-13.44-13.439v-220.171h135.18c-18.689 23.258-29.891 52.775-29.891 84.864 0 74.831 60.88 135.711 135.711 135.711 33.733 0 66.072-12.46 91.058-35.084 24.805-22.461 40.393-53.081 43.893-86.22.435-4.119-2.552-7.811-6.672-8.246-4.118-.432-7.811 2.553-8.246 6.672-3.11 29.464-16.977 56.694-39.043 76.675-22.222 20.122-50.984 31.203-80.989 31.203-66.561 0-120.711-54.15-120.711-120.711s54.148-120.712 120.709-120.712c60.612 0 112.088 45.266 119.737 105.293.523 4.109 4.271 7.008 8.388 6.491 4.108-.523 7.016-4.278 6.491-8.388-3.25-25.504-13.538-48.635-28.753-67.549h135.137v220.171c0 7.411-6.029 13.44-13.439 13.44z"/><path d="m430.113 160.325h23.31c4.143 0 7.5-3.357 7.5-7.5s-3.357-7.5-7.5-7.5h-23.31c-4.143 0-7.5 3.357-7.5 7.5s3.358 7.5 7.5 7.5z"/><path d="m256 176.245c-56.386 0-102.259 45.873-102.259 102.259s45.873 102.259 102.259 102.259 102.259-45.873 102.259-102.259-45.873-102.259-102.259-102.259zm0 189.518c-48.114 0-87.259-39.145-87.259-87.259s39.145-87.259 87.259-87.259 87.259 39.145 87.259 87.259-39.145 87.259-87.259 87.259z"/><path d="m256 214.095c-35.516 0-64.409 28.894-64.409 64.409 0 4.143 3.357 7.5 7.5 7.5s7.5-3.357 7.5-7.5c0-27.244 22.165-49.409 49.409-49.409 4.143 0 7.5-3.357 7.5-7.5s-3.357-7.5-7.5-7.5z"/><path d="m443.506 384.753c-4.143 0-7.5 3.357-7.5 7.5v3.1c0 4.143 3.357 7.5 7.5 7.5s7.5-3.357 7.5-7.5v-3.1c0-4.143-3.358-7.5-7.5-7.5z"/><path d="m68.495 384.753c-4.143 0-7.5 3.357-7.5 7.5v3.1c0 4.143 3.357 7.5 7.5 7.5s7.5-3.357 7.5-7.5v-3.1c0-4.143-3.357-7.5-7.5-7.5z"/></g></svg>