<?xml version="1.0" encoding="iso-8859-1"?>
<!-- Generator: Adobe Illustrator 19.0.0, SVG Export Plug-In . SVG Version: 6.00 Build 0)  -->
<svg version="1.1" id="Layer_1" xmlns="http://www.w3.org/2000/svg" xmlns:xlink="http://www.w3.org/1999/xlink" x="0px" y="0px"
	 viewBox="-49 141 512 512" style="enable-background:new -49 141 512 512;" xml:space="preserve">
<g>
	<path d="M388,191H26c-35.841,0-65,29.159-65,65v281.995c0,0.415,0.011,0.831,0.031,1.246C-38.302,574.509-9.425,603,26,603h362
		c35.841,0,65-29.159,65-65V256C453,220.159,423.841,191,388,191z M26,241h362c8.271,0,15,6.729,15,15v282
		c0,2.235-0.505,4.351-1.386,6.258l-75.936-75.936c-9.764-9.763-25.592-9.763-35.355,0L257,501.645L139.678,384.322
		c-9.764-9.763-25.592-9.763-35.355,0L11,477.645V256C11,247.729,17.729,241,26,241z"/>
	<path d="M293,401c27.57,0,50-22.43,50-50s-22.43-50-50-50s-50,22.43-50,50S265.43,401,293,401z"/>
</g>
</svg>
