<svg xmlns="http://www.w3.org/2000/svg" viewBox="0 0 512 512"><path d="M437 50H75c-35.8 0-65 29.2-65 65v282c0 35.8 29.2 65 65 65h362c35.8 0 65-29.2 65-65V115c0-35.8-29.2-65-65-65zm15 347c0 8.3-6.7 15-15 15h-42.2l-1.8-14c-3.7-28.8-16.3-55.2-36.2-76.4-16.8-17.9-37.6-30.7-60.7-37.6v-1.5c22.7-13.7 37-38.4 37-65.6 0-44.6-38.3-80.4-83.7-76.2-34.8 3.2-63.2 30-68.4 64.6-4.7 31.6 10.1 61.6 36.1 77.2v1.5c-23.1 6.9-43.9 19.8-60.7 37.6-20 21.2-32.5 47.6-36.2 76.4l-1.8 14H75c-8.3 0-15-6.7-15-15V115c0-8.3 6.7-15 15-15h362c8.3 0 15 6.7 15 15v282z"/></svg>