<svg xmlns="http://www.w3.org/2000/svg" viewBox="0 0 512 512"><path d="M437 50H75c-35.8 0-65 29.2-65 65v282c0 35.8 29.2 65 65 65h362c35.8 0 65-29.2 65-65V115c0-35.8-29.2-65-65-65zM219.8 284.5c-14.8-11.3-23.3-28.4-23.3-47 0-32.5 26.5-59 59-59s59 26.5 59 59c0 18.5-8.4 35.5-23.1 46.8-7.1 5.5-10.8 14.4-9.5 23.3 1.2 8.9 7.2 16.5 15.5 19.8 15.4 6.1 28.9 15.4 40.4 27.6 15 16 24.9 35.6 28.7 57.1H145.4c3.8-21.4 13.7-41 28.7-57.1 11.3-12.1 24.7-21.3 39.9-27.4 8.3-3.4 14.2-10.9 15.4-19.9 1.3-8.9-2.4-17.8-9.6-23.2zM452 397c0 8.3-6.7 15-15 15h-19.9l-.1-1c-4.4-34-19.2-65.2-42.7-90.3-8.4-8.9-17.6-16.8-27.5-23.5 11.5-17.5 17.7-38.1 17.7-59.7 0-60.1-48.9-109-109-109s-109 48.9-109 109c0 21.9 6.4 42.6 18 60.2-9.7 6.6-18.6 14.3-26.8 23.1-23.5 25-38.3 56.2-42.7 90.2l-.1 1H75c-8.3 0-15-6.7-15-15V115c0-8.3 6.7-15 15-15h362c8.3 0 15 6.7 15 15v282z"/></svg>