<svg xmlns="http://www.w3.org/2000/svg" viewBox="0 0 340 340"><path d="M45.951 121.999c0 33.59 12.004 63.472 37.752 74.608 4.222 1.829 8.004.063 9.228-4.889.852-3.427 2.866-12.073 3.765-15.673 1.235-4.898.755-6.616-2.652-10.884-7.424-9.277-12.168-21.287-12.168-38.299 0-116.124 167.471-126.889 167.471-18.695 0 56.31-23.524 103.836-58.446 103.836-19.285 0-33.722-16.897-29.095-37.62 5.54-24.74 16.273-51.441 16.273-69.298 0-15.986-8.1-29.319-24.863-29.319-19.715 0-35.553 21.606-35.553 50.549 0 18.435 5.88 30.902 5.88 30.902s-20.176 90.559-23.712 106.419c-7.043 31.585-1.059 70.305-.553 74.216.297 2.316 3.108 2.867 4.382 1.117 1.818-2.514 25.299-33.223 33.282-63.908 2.258-8.689 12.967-53.681 12.967-53.681 6.405 12.943 25.125 24.343 45.033 24.343C317.284 245.723 342.576 0 177.701 0 90.113 0 45.951 66.524 45.951 121.999z" fill="#231f20"/></svg>