<?xml version="1.0" encoding="utf-8"?>
<!-- Generator: Adobe Illustrator 24.0.1, SVG Export Plug-In . SVG Version: 6.00 Build 0)  -->
<svg version="1.1" id="Capa_1" xmlns="http://www.w3.org/2000/svg" xmlns:xlink="http://www.w3.org/1999/xlink" x="0px" y="0px"
	 viewBox="0 0 512 512" style="enable-background:new 0 0 512 512;" xml:space="preserve">
<path d="M256.2,10.6C120.8,10.6,11,120.4,11,255.8c0,103.9,64.6,192.7,155.8,228.5c-2.2-19.4-4-49.2,0.8-70.4
	c4.4-19.2,28.7-121.9,28.7-121.9s-7.3-14.7-7.3-36.3c0-34.1,19.8-59.5,44.4-59.5c21,0,31.1,15.7,31.1,34.5c0,21-13.3,52.5-20.4,81.7
	c-5.9,24.4,12.3,44.4,36.3,44.4c43.6,0,77.1-46,77.1-112.2c0-58.7-42.2-99.7-102.5-99.7c-69.8,0-110.8,52.3-110.8,106.4
	c0,21,8.1,43.6,18.2,55.9c2,2.4,2.2,4.6,1.6,7.1c-1.8,7.7-6.1,24.4-6.9,27.9c-1,4.4-3.6,5.4-8.3,3.2C118.2,330.9,99,286.3,99,250.1
	c0-77.3,56.1-148.3,162.1-148.3c85,0,151.2,60.5,151.2,141.7c0,84.6-53.3,152.6-127.1,152.6c-24.8,0-48.2-12.9-56.1-28.3
	c0,0-12.3,46.8-15.3,58.3c-5.4,21.4-20.4,48-30.5,64.4c23,7.1,47.2,10.9,72.7,10.9c135.4,0,245.2-109.8,245.2-245.2
	C501.4,120.4,391.6,10.6,256.2,10.6z"/>
</svg>
