<?xml version="1.0" encoding="iso-8859-1"?>
<!-- Generator: Adobe Illustrator 19.0.0, SVG Export Plug-In . SVG Version: 6.00 Build 0)  -->
<svg version="1.1" id="Layer_1" xmlns="http://www.w3.org/2000/svg" xmlns:xlink="http://www.w3.org/1999/xlink" x="0px" y="0px"
	 viewBox="0 0 340 340" style="enable-background:new 0 0 340 340;" xml:space="preserve">
<g>
	<g>
		<g>
			<path style="fill:#231F20;" d="M45.951,121.999c0,33.59,12.004,63.472,37.752,74.608c4.222,1.829,8.004,0.063,9.228-4.889
				c0.852-3.427,2.866-12.073,3.765-15.673c1.235-4.898,0.755-6.616-2.652-10.884c-7.424-9.277-12.168-21.287-12.168-38.299
				c0-116.124,167.471-126.889,167.471-18.695c0,56.31-23.524,103.836-58.446,103.836c-19.285,0-33.722-16.897-29.095-37.62
				c5.54-24.74,16.273-51.441,16.273-69.298c0-15.986-8.1-29.319-24.863-29.319c-19.715,0-35.553,21.606-35.553,50.549
				c0,18.435,5.88,30.902,5.88,30.902s-20.176,90.559-23.712,106.419c-7.043,31.585-1.059,70.305-0.553,74.216
				c0.297,2.316,3.108,2.867,4.382,1.117c1.818-2.514,25.299-33.223,33.282-63.908c2.258-8.689,12.967-53.681,12.967-53.681
				c6.405,12.943,25.125,24.343,45.033,24.343C317.284,245.723,342.576,0,177.701,0C90.113,0,45.951,66.524,45.951,121.999z"/>
		</g>
	</g>
</g>
<g>
</g>
<g>
</g>
<g>
</g>
<g>
</g>
<g>
</g>
<g>
</g>
<g>
</g>
<g>
</g>
<g>
</g>
<g>
</g>
<g>
</g>
<g>
</g>
<g>
</g>
<g>
</g>
<g>
</g>
</svg>
