<svg xmlns="http://www.w3.org/2000/svg" viewBox="-49 141 512 512"><path d="M26 377h196c13.807 0 25-11.193 25-25V216c0-13.807-11.193-25-25-25H56c-30.327 0-55 24.673-55 55v106c0 13.807 11.193 25 25 25zm332-186h-46c-13.808 0-25 11.193-25 25v136c0 13.807 11.192 25 25 25h76c13.808 0 25-11.193 25-25V246c0-30.327-24.673-55-55-55zm30 226H192c-13.807 0-25 11.193-25 25v136c0 13.807 11.193 25 25 25h166c30.327 0 55-24.673 55-55V442c0-13.807-11.193-25-25-25zm-286 0H26c-13.808 0-25 11.193-25 25v106c0 30.327 24.673 55 55 55h46c13.808 0 25-11.193 25-25V442c0-13.807-11.192-25-25-25z"/></svg>