<?xml version="1.0" encoding="utf-8"?>
<!-- Generator: Adobe Illustrator 26.0.2, SVG Export Plug-In . SVG Version: 6.00 Build 0)  -->
<svg version="1.1" id="Capa_1" xmlns="http://www.w3.org/2000/svg" xmlns:xlink="http://www.w3.org/1999/xlink" x="0px" y="0px"
	 viewBox="0 0 512 512" style="enable-background:new 0 0 512 512;" xml:space="preserve">
<g>
	<path d="M492.5,340.4v-291c11.4-2.3,20-12.4,20-24.5c0-13.8-11.2-25-25-25h-462c-13.8,0-25,11.2-25,25c0,12.1,8.6,22.2,20,24.5v291
		c-11.4,2.3-20,12.4-20,24.5c0,13.8,11.2,25,25,25h205v39.5c-12.1,8.1-20.1,21.9-20.1,37.5c0,24.8,20.2,45,45,45s45-20.2,45-45
		c0-15.5-7.9-29.2-19.9-37.3v-39.7h207c13.8,0,25-11.2,25-25C512.5,352.8,503.9,342.7,492.5,340.4z M70.5,339.9v-290h372v290H70.5z"
		/>
	<path d="M395.2,127.3c-9.7-9.8-25.6-9.8-35.4-0.1l-78.9,78.5l-53.4-52.6c-9.8-9.6-25.4-9.6-35.2,0.1l-74.5,74
		c-9.8,9.7-9.8,25.6-0.1,35.4c4.9,4.9,11.3,7.4,17.7,7.4c6.4,0,12.7-2.4,17.6-7.3l56.9-56.6l53.4,52.6c9.8,9.6,25.5,9.6,35.2-0.1
		l96.5-96C404.9,152.9,405,137,395.2,127.3z"/>
</g>
</svg>
