<svg xmlns="http://www.w3.org/2000/svg" width="512" height="512" viewBox="0 0 512.014 512.014"><path d="M162.391 290.743c2.173.569 4.264.198 6.272-1.112 1.976-1.393 48.304-34.579 41.04-74.996-5.148-28.638-43.429-38.127-61.279-14.82-24.822-15.594-57.44 6.5-52.27 35.279 7.06 39.275 63.823 54.999 66.237 55.649zM126.622 209.8c6.348-1.144 14.03 1.634 18.199 6.48 5.112 4.083 9.352 3.32 12.72-2.288 6.682-18.061 33.955-15.869 37.398 3.298 4.696 26.129-23.054 50.699-32.125 57.94-15.758-5.033-47.753-19.739-51.896-42.789-1.901-10.581 5.143-20.738 15.704-22.641z"/><path d="M505.744 18.738c-4.092-.688-7.949 2.081-8.63 6.167l-4.308 25.879c-41.099 4.716-78.873-9.437-118.765-24.397C332.45 10.789 289.443-5.337 242.383 1.914a7.501 7.501 0 0 0-6.256 6.181l-19.628 117.89c-27.146 4.206-53.219 14.192-78.482 23.872-39.88 15.279-77.626 29.735-119.261 23.495-1.427-7.659-2.766-15.394-3.812-23.062-1.312-9.607-16.174-7.579-14.861 2.029 1.724 12.628 8.794 49.014 9.846 54.819 1.696 9.364 16.502 6.942 14.76-2.675a1265.793 1265.793 0 0 0-2.953-15.59c5.703.644 11.339.944 16.917.944 36.987 0 71.319-13.153 104.731-25.954 22.949-8.793 46.587-17.843 70.51-22.222l-4.802 28.839c-.096 5.789 2.751 8.67 8.541 8.644 17.801-2.744 34.943-1.846 51.86 1.244l19.14 106.484c-43.473-4.86-83.088 10.314-121.495 25.028-39.905 15.288-77.677 29.751-119.336 23.484-4.961-27.557-9.844-55.271-14.471-82.815-1.607-9.562-16.398-7.08-14.793 2.484 8.981 53.476 18.915 107.547 28.521 159.837 5.475 29.799 11.136 60.613 16.575 91.064 1.673 9.368 16.485 6.985 14.766-2.638-5.445-30.487-11.109-61.32-16.588-91.137a27119.82 27119.82 0 0 1-11.21-61.293c5.79.664 11.511.974 17.172.974 36.986 0 71.318-13.153 104.73-25.954 41.383-15.855 80.473-30.829 123.981-22.709 5.962.164 8.882-2.736 8.758-8.699l-19.879-110.597c18.704 4.813 37.297 11.779 56.375 18.934 14.488 5.434 29.471 11.052 44.488 15.614 8.942 2.716 13.559-11.558 4.359-14.353-14.559-4.422-29.313-9.955-43.581-15.306-38.573-14.465-78.358-29.387-121.477-25.69l4.229-25.398c41.094-4.715 78.868 9.45 118.761 24.411 38.575 14.466 78.371 29.374 121.484 25.677l-4.229 25.404c-11.379 1.303-22.993 1.211-35.333-.286-9.622-1.16-11.436 13.722-1.807 14.891 11.482 1.393 23.065 1.709 34.59.711l-45.76 274.895c-1.547 9.301 13.178 12.181 14.797 2.463l79.649-478.482a7.496 7.496 0 0 0-6.165-8.628zm-26.467 113.323c-41.102 4.714-78.875-9.437-118.767-24.397-38.572-14.465-78.355-29.384-121.477-25.691l4.229-25.398c41.096-4.716 78.868 9.45 118.761 24.411 38.574 14.466 78.369 29.375 121.482 25.678zm-110.503-91.63C403.303 53.38 438.8 66.693 476.791 66.693c4.451 0 8.94-.19 13.463-.578l-4.199 25.223c-41.098 4.716-78.873-9.437-118.766-24.397-38.573-14.465-78.366-29.371-121.479-25.677l4.202-25.243c41.095-4.717 78.87 9.45 118.762 24.41zm-14.988 107.618c-38.573-14.465-78.365-29.372-121.479-25.677l4.172-25.06c41.098-4.716 78.871 9.438 118.763 24.397 34.529 12.949 70.027 26.264 108.018 26.262 4.451 0 8.94-.19 13.464-.578l-4.17 25.054c-41.101 4.716-78.874-9.437-118.768-24.398zM25.013 58.118c9.652 0 9.668-15 0-15-9.652 0-9.668 15 0 15z"/><path d="M180.013 36.118c9.652 0 9.668-15 0-15-9.652 0-9.668 15 0 15zM65.013 118.118c9.652 0 9.668-15 0-15-9.652 0-9.668 15 0 15zM346.013 244.118c-9.652 0-9.668 15 0 15 9.651 0 9.667-15 0-15zM276.045 364.246c-9.652 0-9.668 15 0 15 9.652 0 9.668-15 0-15zM109.013 391.118c-9.652 0-9.668 15 0 15 9.651 0 9.667-15 0-15zM474.013 464.118c-9.652 0-9.668 15 0 15 9.651 0 9.667-15 0-15zM7.257 459.118c-9.652 0-9.668 15 0 15 9.652 0 9.668-15 0-15zM504.768 363.118c-9.652 0-9.668 15 0 15 9.652 0 9.667-15 0-15zM261.013 459.118c-9.652 0-9.668 15 0 15 9.651 0 9.667-15 0-15zM171.669 439.855l-21.92 21.92c-6.857 6.857 3.749 17.462 10.607 10.606l21.92-21.92a7.5 7.5 0 0 0-10.607-10.606zM349.352 411.353a7.5 7.5 0 0 0-10.607 10.606l21.921 21.92c6.858 6.856 17.465-3.749 10.607-10.606zM392.669 302.855l-21.92 21.92c-6.857 6.857 3.749 17.462 10.607 10.606l21.92-21.92a7.5 7.5 0 0 0-10.607-10.606zM129.669 93.382c6.858 6.856 17.465-3.749 10.607-10.606l-21.92-21.92a7.5 7.5 0 0 0-10.607 10.606z"/></svg>