<svg id="Capa_1" enable-background="new 0 0 512 512" height="512" viewBox="0 0 512 512" width="512" xmlns="http://www.w3.org/2000/svg"><path d="m360.301 183.932 27.755 5.295c4.13.786 8.202-2.095 8.837-6.25.602-3.942-2.105-7.765-6.021-8.512l-20.373-3.887 3.779-19.807 20.374 3.888c4.13.786 8.202-2.095 8.837-6.251.602-3.942-2.105-7.765-6.021-8.512l-20.373-3.887 3.779-19.806 20.374 3.887c4.13.786 8.202-2.095 8.837-6.251.602-3.942-2.105-7.765-6.021-8.512l-27.754-5.296c-4.07-.774-8.012 1.896-8.789 5.973l-13.184 69.098c-.001.006-.002.012-.003.017-.001.008-.004.015-.005.022-.78 4.078 1.895 8.013 5.972 8.791z"/><path d="m220.452 171.439c2.493 3.645 7.756 4.335 11.11 1.451 2.864-2.463 3.427-6.818 1.297-9.934l-15.653-22.891c6.155-5.823 9.576-14.385 8.483-23.423-.886-7.334-4.576-13.883-10.389-18.443-5.812-4.558-13.043-6.581-20.387-5.694l-12.763 1.543c-4.061.491-7.05 4.299-6.558 8.362l4.835 39.992c0 .001.001.003.001.004l3.62 29.942c.491 4.066 4.296 7.05 8.362 6.558 4.065-.492 7.05-4.297 6.557-8.362l-2.719-22.486c2.505-.303 5.05-.506 7.525-1.01zm-26.006-38.301-3.032-25.072 5.303-.641c3.347-.403 6.653.518 9.308 2.6 2.654 2.082 4.338 5.072 4.743 8.421.836 6.912-4.107 13.216-11.02 14.052z"/><path d="m252.429 97.391v70.345c0 4.15 3.364 7.494 7.514 7.494 4.151 0 7.514-3.384 7.514-7.535v-70.304c0-4.15-3.364-7.514-7.514-7.514s-7.514 3.364-7.514 7.514z"/><path d="m317.689 91.181-9.274-.964c-4.072-.424-7.828 2.63-8.251 6.697l-7.275 69.967c-.428 4.128 2.569 7.822 6.698 8.251l9.274.964c1.136.118 2.268.177 3.395.177 7.367 0 14.456-2.504 20.255-7.211 6.686-5.427 10.859-13.132 11.749-21.697l2.161-20.786c1.837-17.68-11.052-33.56-28.732-35.398zm13.783 33.845-2.161 20.786c-.97 9.325-9.562 16.31-18.897 15.336l-1.799-.187 5.721-55.019 1.799.187c9.438.982 16.318 9.459 15.337 18.897z"/><path d="m154.764 145.726c4.046-6.181 5.443-13.567 3.933-20.798-3.116-14.928-17.796-24.538-32.725-21.422l-12.584 2.627c-4.008.837-6.657 4.882-5.82 8.892 0 0 8.232 39.438 8.233 39.441l6.162 29.52c.859 4.115 5.084 6.767 9.166 5.758 3.871-.958 6.361-4.927 5.546-8.829l-4.628-22.172 5.228-1.091c7.232-1.51 13.442-5.745 17.489-11.926zm-25.788-1.695-5.16-24.722 5.228-1.091c6.811-1.422 13.519 2.964 14.942 9.781 1.423 6.816-2.965 13.519-9.781 14.941z"/><path d="m496.267 65.928c-5.691-1.601-11.634-.837-16.733 2.151-5.1 2.987-8.672 7.796-10.059 13.541l-.993 4.112c-33.492-13.928-68.672-24.66-104.712-31.921-4.071-.817-8.03 1.814-8.851 5.883-.819 4.068 1.814 8.031 5.882 8.851 35.872 7.226 70.862 17.98 104.108 31.98l-32.035 132.609c-36.251-13.002-90.779-32.248-176.872-32.248s-140.621 19.247-176.872 32.248l-32.038-132.612c66.131-27.856 138.22-42.559 208.908-42.559 24.984 0 50.42 1.857 75.6 5.517 4.104.594 7.919-2.248 8.517-6.355.597-4.107-2.249-7.921-6.355-8.517-25.894-3.765-52.057-5.674-77.762-5.674-71.872 0-145.135 14.782-212.481 42.797l-.993-4.112c-1.387-5.745-4.96-10.554-10.059-13.541-5.101-2.987-11.04-3.751-16.734-2.151-11.214 3.155-17.854 14.495-15.119 25.817l43.627 180.591c.974 4.034 5.034 6.513 9.068 5.54 4.034-.974 6.514-5.035 5.54-9.069l-43.626-180.591c-.829-3.429 1.183-6.864 4.579-7.82 1.723-.485 3.522-.254 5.069.652 1.544.905 2.626 2.361 3.047 4.102l87.163 360.811c.828 3.43-1.184 6.865-4.579 7.821-1.726.485-3.525.253-5.069-.652s-2.626-2.361-3.047-4.101l-36.481-151.015c-.974-4.034-5.032-6.512-9.068-5.54-4.034.975-6.514 5.035-5.54 9.069l36.481 151.014c1.387 5.745 4.96 10.554 10.059 13.541 3.357 1.966 7.077 2.969 10.852 2.969 1.961 0 3.936-.27 5.882-.818 11.211-3.154 17.853-14.494 15.118-25.816l-47.012-194.606c.134-.048.263-.094.397-.142 35.265-12.651 88.559-31.77 172.926-31.77s137.661 19.119 172.926 31.77c.134.048.263.094.397.142l-47.012 194.606c-2.735 11.322 3.907 22.661 15.119 25.815 1.946.548 3.921.819 5.881.818 3.774 0 7.496-1.003 10.852-2.969 5.1-2.987 8.672-7.796 10.059-13.54l10.467-43.327c.975-4.034-1.506-8.094-5.539-9.069-4.038-.973-8.096 1.505-9.069 5.54l-10.467 43.328c-.421 1.74-1.503 3.196-3.047 4.101s-3.345 1.137-5.068.652c-3.396-.955-5.408-4.391-4.58-7.82l87.163-360.812c.421-1.74 1.503-3.197 3.047-4.101 1.545-.905 3.344-1.137 5.068-.652 3.397.955 5.409 4.39 4.58 7.82l-69.652 288.326c-.974 4.034 1.506 8.095 5.54 9.069 4.034.971 8.095-1.506 9.068-5.54l69.652-288.326c2.736-11.323-3.904-22.663-15.118-25.817z"/></svg>