<svg xmlns="http://www.w3.org/2000/svg" viewBox="-49 141 512 512"><path d="M123.9 451.397c-1.286 2.265-3.047 5.367-3.812 6.36-14.319 18.615-28.724 29.184-29.567 29.794-8.989 6.212-12.82 17.486-9.577 27.926C84.193 525.934 93.954 533 104.904 533h70c33.084 0 60-26.916 60-60s-26.916-60-60-60c-29.201 0-43.383 24.978-51.004 38.397zM455.245 177.899c-9.997-9.523-25.819-9.141-35.346.855l-196.853 206.62a100.755 100.755 0 0 1 36.403 34.278l196.652-206.407c9.523-9.997 9.14-25.821-.856-35.346z"/><path d="M393 337.465V558c0 8.271-6.729 15-15 15H16c-8.271 0-15-6.729-15-15s6.729-15 15-15c13.807 0 25-11.193 25-25V271h235.767l47.636-50H41v-25c0-13.807-11.193-25-25-25-35.841 0-65 29.159-65 65v322c0 35.409 28.465 64.276 63.712 64.968.426.021.856.032 1.288.032h362c35.841 0 65-29.159 65-65V286c0-.332-.02-.658-.025-.989L393 337.465z"/></svg>