<?xml version="1.0" encoding="iso-8859-1"?>
<!-- Generator: Adobe Illustrator 19.0.0, SVG Export Plug-In . SVG Version: 6.00 Build 0)  -->
<svg version="1.1" id="Layer_1" xmlns="http://www.w3.org/2000/svg" xmlns:xlink="http://www.w3.org/1999/xlink" x="0px" y="0px"
	 viewBox="-49 141 512 512" style="enable-background:new -49 141 512 512;" xml:space="preserve">
<g>
	<path d="M123.9,451.397c-1.286,2.265-3.047,5.367-3.812,6.36c-14.319,18.615-28.724,29.184-29.567,29.794
		c-8.989,6.212-12.82,17.486-9.577,27.926C84.193,525.934,93.954,533,104.904,533h70c33.084,0,60-26.916,60-60s-26.916-60-60-60
		C145.703,413,131.521,437.978,123.9,451.397z"/>
	<path d="M455.245,177.899c-9.997-9.523-25.819-9.141-35.346,0.855l-196.853,206.62c14.829,8.18,27.369,20.013,36.403,34.278
		l196.652-206.407C465.624,203.248,465.241,187.424,455.245,177.899z"/>
	<path d="M393,337.465V558c0,8.271-6.729,15-15,15H16c-8.271,0-15-6.729-15-15s6.729-15,15-15c13.807,0,25-11.193,25-25V271h235.767
		l47.636-50H41v-25c0-13.807-11.193-25-25-25c-35.841,0-65,29.159-65,65v322c0,35.409,28.465,64.276,63.712,64.968
		C15.138,622.989,15.568,623,16,623h362c35.841,0,65-29.159,65-65V286c0-0.332-0.02-0.658-0.025-0.989L393,337.465z"/>
</g>
</svg>
