<?xml version="1.0" encoding="iso-8859-1"?>
<!-- Generator: Adobe Illustrator 19.0.0, SVG Export Plug-In . SVG Version: 6.00 Build 0)  -->
<svg version="1.1" id="Layer_1" xmlns="http://www.w3.org/2000/svg" xmlns:xlink="http://www.w3.org/1999/xlink" x="0px" y="0px"
	 viewBox="0 0 512 512" style="enable-background:new 0 0 512 512;" xml:space="preserve">
<g>
	<path d="M172.9,310.397c-1.286,2.265-3.047,5.367-3.812,6.36c-14.319,18.615-28.724,29.184-29.567,29.794
		c-8.989,6.212-12.82,17.486-9.577,27.926c3.249,10.457,13.01,17.523,23.96,17.523h70c33.084,0,60-26.916,60-60s-26.916-60-60-60
		C194.703,272,180.521,296.978,172.9,310.397z"/>
	<path d="M504.245,36.899c-9.997-9.523-25.819-9.141-35.346,0.855l-196.853,206.62c14.829,8.18,27.369,20.013,36.403,34.278
		L505.101,72.245C514.624,62.248,514.241,46.424,504.245,36.899z"/>
	<path d="M442,196.465V417c0,8.271-6.729,15-15,15H65c-8.271,0-15-6.729-15-15s6.729-15,15-15c13.807,0,25-11.193,25-25V130h235.767
		l47.636-50H90V55c0-13.807-11.193-25-25-25C29.159,30,0,59.159,0,95v322c0,35.409,28.465,64.276,63.712,64.968
		C64.138,481.989,64.568,482,65,482h362c35.841,0,65-29.159,65-65V145c0-0.332-0.02-0.658-0.025-0.989L442,196.465z"/>
</g>
<g>
</g>
<g>
</g>
<g>
</g>
<g>
</g>
<g>
</g>
<g>
</g>
<g>
</g>
<g>
</g>
<g>
</g>
<g>
</g>
<g>
</g>
<g>
</g>
<g>
</g>
<g>
</g>
<g>
</g>
</svg>
