<svg xmlns="http://www.w3.org/2000/svg" width="512" height="512" fill="none"><path fill="#000" d="M279.8 168c0-13.8-11.2-25-25-25H139c-13.8 0-25 11.2-25 25s11.2 25 25 25h115.8c13.9 0 25-11.2 25-25ZM251 233c-13.8 0-25 11.2-25 25s11.2 25 25 25h69.9c13.8 0 25-11.2 25-25s-11.2-25-25-25H251ZM314 168c0-13.8 11.2-25 25-25h29.9c13.8 0 25 11.2 25 25s-11.2 25-25 25H339c-13.8 0-25-11.2-25-25ZM139 323c-13.8 0-25 11.2-25 25s11.2 25 25 25h59.9c13.8 0 25-11.2 25-25s-11.2-25-25-25H139ZM114 258c0-13.8 11.2-25 25-25h29.9c13.8 0 25 11.2 25 25s-11.2 25-25 25H139c-13.8 0-25-11.2-25-25Z"/><path fill="#000" fill-rule="evenodd" d="M511.77 113v286.01c0 46.87-38.113 85-84.962 85H84.962c-22.71 0-44.05-8.85-60.103-24.93C8.806 443-.02 421.64 0 398.92l.17-142.915L0 113.09c-.02-22.72 8.806-44.08 24.859-60.16C40.912 36.85 62.252 28 84.962 28h341.846c46.849 0 84.962 38.13 84.962 85Zm-49.977.01c0-19.3-15.693-35-34.985-35H84.962c-.279 0-.557.003-.834.01-18.73.621-33.791 16.063-33.81 34.95l-.17 143.035.17 143.035c.019 18.887 15.08 34.329 33.81 34.951.277.006.555.009.834.009h341.846c19.292 0 34.985-15.7 34.985-35V113.01Z" clip-rule="evenodd"/></svg>