<svg xmlns="http://www.w3.org/2000/svg" viewBox="-49 141 512 512"><path d="M373 166H41c-35.841 0-65 29.159-65 65v332c0 35.841 29.159 65 65 65h272c6.63 0 12.989-2.634 17.678-7.322l100-100A25.004 25.004 0 0 0 438 503V231c0-35.841-29.159-65-65-65zM26 563V231c0-8.271 6.729-15 15-15h332c8.271 0 15 6.729 15 15v247h-75c-13.807 0-25 11.193-25 25v75H41c-8.271 0-15-6.729-15-15z"/><path d="M205.92 336.912c-11.164-3.046-21.471-5.047-21.471-12.537 0-5.666 4.227-8.501 12.681-8.501 7.108 0 18.716 3.382 27.235 9.799l10.376-19.598c-11.389-6.332-22.597-11.239-36.89-11.239-26.436 0-37.754 16.314-37.754 33.286 0 16.752 9.399 23.625 37.393 31.126 8.35 2.238 14.915 5.34 14.915 10.951 0 5.093-4.18 7.638-12.537 7.638-13.442 0-24.75-5.845-33.72-11.961l-10.374 20.606c12.54 8.226 26.85 12.682 43.662 12.682 26.418 0 38.331-14.096 38.331-31.272-.002-17.314-9.263-24.82-31.847-30.98zM109.662 295.699H66v102.312h23.632v-32.998h20.75c17.955 0 32.71-15.036 32.71-34.729.001-17.133-14.555-34.585-33.43-34.585zm-.72 48.705h-19.31V316.45h18.446c6.75 0 11.095 5.607 11.095 13.833 0 7.986-3.945 14.121-10.231 14.121zM348 346.711c0-29.289-19.722-51.012-51.012-51.012h-38.186v102.312h38.186c29.155 0 51.012-20.014 51.012-51.3zm-65.566-30.261h14.554c18.482 0 26.947 14.846 26.947 30.26 0 17.143-9.266 30.55-26.947 30.55h-14.554v-60.81z"/></svg>