<?xml version="1.0" encoding="iso-8859-1"?>
<!-- Generator: Adobe Illustrator 19.0.0, SVG Export Plug-In . SVG Version: 6.00 Build 0)  -->
<svg version="1.1" id="Layer_1" xmlns="http://www.w3.org/2000/svg" xmlns:xlink="http://www.w3.org/1999/xlink" x="0px" y="0px"
	 viewBox="0 0 462 462" style="enable-background:new 0 0 462 462;" xml:space="preserve">
<g>
	<path d="M397,0H65C29.159,0,0,29.159,0,65v332c0,35.841,29.159,65,65,65h272c6.63,0,12.989-2.634,17.678-7.322l100-100
		C459.366,349.989,462,343.63,462,337V65C462,29.159,432.841,0,397,0z M50,397V65c0-8.271,6.729-15,15-15h332
		c8.271,0,15,6.729,15,15v247h-75c-13.807,0-25,11.193-25,25v75H65C56.729,412,50,405.271,50,397z"/>
	<path d="M229.92,170.912c-11.164-3.046-21.471-5.047-21.471-12.537c0-5.666,4.227-8.501,12.681-8.501
		c7.108,0,18.716,3.382,27.235,9.799l10.376-19.598c-11.389-6.332-22.597-11.239-36.89-11.239
		c-26.436,0-37.754,16.314-37.754,33.286c0,16.752,9.399,23.625,37.393,31.126c8.35,2.238,14.915,5.34,14.915,10.951
		c0,5.093-4.18,7.638-12.537,7.638c-13.442,0-24.75-5.845-33.72-11.961l-10.374,20.606c12.54,8.226,26.85,12.682,43.662,12.682
		c26.418,0,38.331-14.096,38.331-31.272C261.765,184.578,252.504,177.072,229.92,170.912z"/>
	<path d="M133.662,129.699H90v102.312h23.632v-32.998h20.75c17.955,0,32.71-15.036,32.71-34.729
		C167.093,147.151,152.537,129.699,133.662,129.699z M132.942,178.404h-19.31V150.45h18.446c6.75,0,11.095,5.607,11.095,13.833
		C143.173,172.269,139.228,178.404,132.942,178.404z"/>
	<path d="M372,180.711c0-29.289-19.722-51.012-51.012-51.012h-38.186v102.312h38.186C350.143,232.011,372,211.997,372,180.711z
		 M306.434,150.45h14.554c18.482,0,26.947,14.846,26.947,30.26c0,17.143-9.266,30.55-26.947,30.55h-14.554V150.45z"/>
</g>
<g>
</g>
<g>
</g>
<g>
</g>
<g>
</g>
<g>
</g>
<g>
</g>
<g>
</g>
<g>
</g>
<g>
</g>
<g>
</g>
<g>
</g>
<g>
</g>
<g>
</g>
<g>
</g>
<g>
</g>
</svg>
