<?xml version="1.0" encoding="iso-8859-1"?>
<!-- Generator: Adobe Illustrator 19.0.0, SVG Export Plug-In . SVG Version: 6.00 Build 0)  -->
<svg version="1.1" id="Layer_1" xmlns="http://www.w3.org/2000/svg" xmlns:xlink="http://www.w3.org/1999/xlink" x="0px" y="0px"
	 viewBox="-49 141 512 512" style="enable-background:new -49 141 512 512;" xml:space="preserve">
<g id="XMLID_21_">
	<path id="XMLID_29_" d="M373,166H41c-35.841,0-65,29.159-65,65v332c0,35.841,29.159,65,65,65h272c6.63,0,12.989-2.634,17.678-7.322
		l100-100C435.366,515.989,438,509.63,438,503V231C438,195.159,408.841,166,373,166z M26,563V231c0-8.271,6.729-15,15-15h332
		c8.271,0,15,6.729,15,15v247h-75c-13.807,0-25,11.193-25,25v75H41C32.729,578,26,571.271,26,563z"/>
	<path id="XMLID_28_" d="M205.92,336.912c-11.164-3.046-21.471-5.047-21.471-12.537c0-5.666,4.227-8.501,12.681-8.501
		c7.108,0,18.716,3.382,27.235,9.799l10.376-19.598c-11.389-6.332-22.597-11.239-36.89-11.239
		c-26.436,0-37.754,16.314-37.754,33.286c0,16.752,9.399,23.625,37.393,31.126c8.35,2.238,14.915,5.34,14.915,10.951
		c0,5.093-4.18,7.638-12.537,7.638c-13.442,0-24.75-5.845-33.72-11.961l-10.374,20.606c12.54,8.226,26.85,12.682,43.662,12.682
		c26.418,0,38.331-14.096,38.331-31.272C237.765,350.578,228.504,343.072,205.92,336.912z"/>
	<path id="XMLID_25_" d="M109.662,295.699H66v102.312h23.632v-32.998h20.75c17.955,0,32.71-15.036,32.71-34.729
		C143.093,313.151,128.537,295.699,109.662,295.699z M108.942,344.404h-19.31V316.45h18.446c6.75,0,11.095,5.607,11.095,13.833
		C119.173,338.269,115.228,344.404,108.942,344.404z"/>
	<path id="XMLID_22_" d="M348,346.711c0-29.289-19.722-51.012-51.012-51.012h-38.186v102.312h38.186
		C326.143,398.011,348,377.997,348,346.711z M282.434,316.45h14.554c18.482,0,26.947,14.846,26.947,30.26
		c0,17.143-9.266,30.55-26.947,30.55h-14.554V316.45z"/>
</g>
</svg>
