<?xml version="1.0" encoding="iso-8859-1"?>
<!-- Generator: Adobe Illustrator 19.0.0, SVG Export Plug-In . SVG Version: 6.00 Build 0)  -->
<svg version="1.1" id="Layer_1" xmlns="http://www.w3.org/2000/svg" xmlns:xlink="http://www.w3.org/1999/xlink" x="0px" y="0px"
	 viewBox="-49 141 512 512" style="enable-background:new -49 141 512 512;" xml:space="preserve">
<g>
	<path d="M352,277H252c-13.808,0-25,11.192-25,25v90c0,13.808,11.192,25,25,25h71.827c-2.969,11.313-7.96,21.602-14.767,30.11
		C298.8,459.937,285.638,467,272,467c-13.808,0-25,11.192-25,25s11.192,25,25,25c29.135,0,56.162-13.728,76.104-38.655
		C366.737,455.053,377,424.388,377,392v-90C377,288.192,365.808,277,352,277z"/>
	<path d="M162,277H62c-13.808,0-25,11.192-25,25v90c0,13.808,11.192,25,25,25h71.827c-2.969,11.313-7.96,21.602-14.767,30.11
		C108.8,459.937,95.638,467,82,467c-13.808,0-25,11.192-25,25s11.192,25,25,25c29.135,0,56.162-13.728,76.104-38.655
		C176.737,455.053,187,424.388,187,392v-90C187,288.192,175.808,277,162,277z"/>
</g>
</svg>
