<svg xmlns="http://www.w3.org/2000/svg" viewBox="-49 141 512 512"><path d="M352 277H252c-13.808 0-25 11.192-25 25v90c0 13.808 11.192 25 25 25h71.827c-2.969 11.313-7.96 21.602-14.767 30.11C298.8 459.937 285.638 467 272 467c-13.808 0-25 11.192-25 25s11.192 25 25 25c29.135 0 56.162-13.728 76.104-38.655C366.737 455.053 377 424.388 377 392v-90c0-13.808-11.192-25-25-25zm-190 0H62c-13.808 0-25 11.192-25 25v90c0 13.808 11.192 25 25 25h71.827c-2.969 11.313-7.96 21.602-14.767 30.11C108.8 459.937 95.638 467 82 467c-13.808 0-25 11.192-25 25s11.192 25 25 25c29.135 0 56.162-13.728 76.104-38.655C176.737 455.053 187 424.388 187 392v-90c0-13.808-11.192-25-25-25z"/></svg>