<?xml version="1.0" encoding="iso-8859-1"?>
<!-- Generator: Adobe Illustrator 19.0.0, SVG Export Plug-In . SVG Version: 6.00 Build 0)  -->
<svg version="1.1" id="Layer_1" xmlns="http://www.w3.org/2000/svg" xmlns:xlink="http://www.w3.org/1999/xlink" x="0px" y="0px"
	 viewBox="0 0 340 340" style="enable-background:new 0 0 340 340;" xml:space="preserve">
<g>
	<path d="M315,50H215c-13.808,0-25,11.192-25,25v90c0,13.808,11.192,25,25,25h71.827c-2.969,11.313-7.96,21.602-14.767,30.11
		C261.8,232.937,248.638,240,235,240c-13.808,0-25,11.192-25,25s11.192,25,25,25c29.135,0,56.162-13.728,76.104-38.655
		C329.737,228.053,340,197.388,340,165V75C340,61.192,328.808,50,315,50z"/>
	<path d="M125,50H25C11.192,50,0,61.192,0,75v90c0,13.808,11.192,25,25,25h71.827c-2.969,11.313-7.96,21.602-14.767,30.11
		C71.8,232.937,58.638,240,45,240c-13.808,0-25,11.192-25,25s11.192,25,25,25c29.135,0,56.162-13.728,76.104-38.655
		C139.737,228.053,150,197.388,150,165V75C150,61.192,138.808,50,125,50z"/>
</g>
<g>
</g>
<g>
</g>
<g>
</g>
<g>
</g>
<g>
</g>
<g>
</g>
<g>
</g>
<g>
</g>
<g>
</g>
<g>
</g>
<g>
</g>
<g>
</g>
<g>
</g>
<g>
</g>
<g>
</g>
</svg>
