<?xml version="1.0" encoding="iso-8859-1"?>
<!-- Generator: Adobe Illustrator 19.0.0, SVG Export Plug-In . SVG Version: 6.00 Build 0)  -->
<svg version="1.1" id="Layer_1" xmlns="http://www.w3.org/2000/svg" xmlns:xlink="http://www.w3.org/1999/xlink" x="0px" y="0px"
	 viewBox="0 0 512 512" style="enable-background:new 0 0 512 512;" xml:space="preserve">
<g>
	<path d="M297,250H175c-13.808,0-25,11.193-25,25s11.192,25,25,25h122c13.808,0,25-11.193,25-25S310.808,250,297,250z"/>
	<path d="M337,160H175c-13.807,0-25,11.193-25,25s11.193,25,25,25h162c13.807,0,25-11.193,25-25S350.807,160,337,160z"/>
	<path d="M437,0.042c-5.729,0-10.792,1.792-15.952,5.709L376.669,42.53L332.292,5.751c-9.254-7.668-22.653-7.668-31.905,0
		l-44.38,36.78L256,42.525l-0.007,0.006l-44.38-36.78c-9.252-7.668-22.651-7.668-31.905,0L135.331,42.53L90.952,5.751
		C85.792,1.833,80.729,0.042,75,0.042c-13.808,0-25,11.193-25,25v461.917c0,13.807,11.192,25,25,25
		c5.729,0,10.792-1.792,15.952-5.709l44.379-36.779l44.377,36.779c9.254,7.668,22.653,7.668,31.905,0l44.38-36.78l0.007,0.006
		l0.007-0.006l44.38,36.78c9.252,7.668,22.651,7.668,31.905,0l44.377-36.779l44.379,36.779c5.16,3.918,10.223,5.709,15.952,5.709
		c13.808,0,25-11.193,25-25V25.042C462,11.235,450.808,0.042,437,0.042z M412,433.812l-19.379-16.061
		c-8.454-7.459-22.413-7.959-31.905,0l-44.377,36.779l-44.38-36.779c-8.792-7.501-23.126-7.834-31.918,0l-44.38,36.779
		l-44.377-36.779c-9.492-7.959-23.451-7.459-31.905,0L100,433.812V78.188l19.379,16.061c8.454,7.459,22.413,7.959,31.905,0
		l44.377-36.779l44.38,36.779c8.792,7.501,23.126,7.834,31.918,0l44.38-36.779l44.377,36.779c9.492,7.959,23.451,7.459,31.905,0
		L412,78.188V433.812z"/>
</g>
<g>
</g>
<g>
</g>
<g>
</g>
<g>
</g>
<g>
</g>
<g>
</g>
<g>
</g>
<g>
</g>
<g>
</g>
<g>
</g>
<g>
</g>
<g>
</g>
<g>
</g>
<g>
</g>
<g>
</g>
</svg>
