<svg xmlns="http://www.w3.org/2000/svg" viewBox="-49 141 512 512"><path d="M248 391H126c-13.808 0-25 11.193-25 25s11.192 25 25 25h122c13.808 0 25-11.193 25-25s-11.192-25-25-25zM288 301H126c-13.807 0-25 11.193-25 25s11.193 25 25 25h162c13.807 0 25-11.193 25-25s-11.193-25-25-25z"/><path d="M388 141.042c-5.729 0-10.792 1.792-15.952 5.709l-44.379 36.779-44.377-36.779c-9.254-7.668-22.653-7.668-31.905 0l-44.38 36.78-.007-.006-.007.006-44.38-36.78c-9.252-7.668-22.651-7.668-31.905 0L86.331 183.53l-44.379-36.779c-5.16-3.918-10.223-5.709-15.952-5.709-13.808 0-25 11.193-25 25v461.917c0 13.807 11.192 25 25 25 5.729 0 10.792-1.792 15.952-5.709l44.379-36.779 44.377 36.779c9.254 7.668 22.653 7.668 31.905 0l44.38-36.78.007.006.007-.006 44.38 36.78c9.252 7.668 22.651 7.668 31.905 0l44.377-36.779 44.379 36.779c5.16 3.918 10.223 5.709 15.952 5.709 13.808 0 25-11.193 25-25V166.042c0-13.807-11.192-25-25-25zm-25 433.77l-19.379-16.061c-8.454-7.459-22.413-7.959-31.905 0l-44.377 36.779-44.38-36.779c-8.792-7.501-23.126-7.834-31.918 0l-44.38 36.779-44.377-36.779c-9.492-7.959-23.451-7.459-31.905 0L51 574.812V219.188l19.379 16.061c8.454 7.459 22.413 7.959 31.905 0l44.377-36.779 44.38 36.779c8.792 7.501 23.126 7.834 31.918 0l44.38-36.779 44.377 36.779c9.492 7.959 23.451 7.459 31.905 0L363 219.188v355.624z"/></svg>