<svg xmlns="http://www.w3.org/2000/svg" width="512" height="512"><path d="M25 482c13.807 0 25-11.192 25-25 0-68.925 56.075-125 125-125h106v65.001c0 13.807 11.193 25 25 25a24.908 24.908 0 0 0 17.18-6.839l-.012.011 181-171c4.826-4.569 7.829-11.019 7.829-18.173s-3.004-13.605-7.819-18.162l-.012-.011-181-171A24.907 24.907 0 0 0 305.998 30c-13.807 0-25 11.193-25 25v65h-94c-103.112 0-187 83.888-187 187v150c0 13.808 11.193 25 25 25zm425.596-256L331 338.988V307c0-13.808-11.193-25-25-25H175c-48.919 0-93.213 20.175-125 52.643V307c0-75.542 61.458-137 137-137h119c13.807 0 25-11.192 25-25v-31.988L450.596 226z"/></svg>