<!-- Generated by IcoMoon.io -->
<svg version="1.1" xmlns="http://www.w3.org/2000/svg" width="512" height="512" viewBox="0 0 512 512">
<title></title>
<g id="icomoon-ignore">
</g>
<path fill="#000" d="M25 482c13.807 0 25-11.192 25-25 0-68.925 56.075-125 125-125h106v65c0 0 0 0 0 0.001 0 13.807 11.193 25 25 25 6.654 0 12.701-2.599 17.18-6.839l-0.012 0.011 181-171c4.826-4.569 7.829-11.019 7.829-18.173s-3.004-13.605-7.819-18.162l-0.012-0.011-181-171c-4.468-4.227-10.514-6.827-17.168-6.827-13.807 0-25 11.193-25 25v0 65h-94c-103.112 0-187 83.888-187 187v150c0 13.808 11.193 25 25 25zM450.596 226l-119.596 112.988v-31.988c0-13.808-11.193-25-25-25h-131c-48.919 0-93.213 20.175-125 52.643v-27.643c0-75.542 61.458-137 137-137h119c13.807 0 25-11.192 25-25v-31.988l119.596 112.988z"></path>
</svg>
