<?xml version="1.0" encoding="utf-8"?>
<!-- Generator: Adobe Illustrator 24.0.1, SVG Export Plug-In . SVG Version: 6.00 Build 0)  -->
<svg version="1.1" id="Capa_1" xmlns="http://www.w3.org/2000/svg" xmlns:xlink="http://www.w3.org/1999/xlink" x="0px" y="0px"
	 viewBox="0 0 512 512" style="enable-background:new 0 0 512 512;" xml:space="preserve">
<g>
	<g>
		<path d="M25,399c-3.2,0-6.5-0.6-9.6-1.9C6.1,393.2,0,384.1,0,374V134c0-10.1,6.1-19.2,15.4-23.1c9.3-3.9,20.1-1.7,27.2,5.4
			l120,120c9.8,9.8,9.8,25.6,0,35.4l-120,120C37.9,396.5,31.5,399,25,399z M50,194.4v119.3l59.6-59.6L50,194.4z"/>
	</g>
	<g>
		<path d="M512,134v240c0,10.1-6.1,19.2-15.4,23.1c-9.3,3.9-20.1,1.7-27.2-5.4l-120-120c-9.8-9.8-9.8-25.6,0-35.4l120-120
			c7.1-7.1,17.9-9.3,27.2-5.4C505.9,114.8,512,123.9,512,134z"/>
	</g>
	<g>
		<path d="M256,507c-13.8,0-25-11.2-25-25V30c0-13.8,11.2-25,25-25s25,11.2,25,25v452C281,495.8,269.8,507,256,507z"/>
	</g>
</g>
</svg>
