<?xml version="1.0" encoding="utf-8"?>
<!-- Generator: Adobe Illustrator 24.0.1, SVG Export Plug-In . SVG Version: 6.00 Build 0)  -->
<svg version="1.1" id="Capa_1" xmlns="http://www.w3.org/2000/svg" xmlns:xlink="http://www.w3.org/1999/xlink" x="0px" y="0px"
	 viewBox="0 0 512 512" style="enable-background:new 0 0 512 512;" xml:space="preserve">
<g>
	<g>
		<path d="M258,170c-6.4,0-12.8-2.4-17.7-7.3l-120-120c-7.1-7.2-9.3-17.9-5.4-27.2C118.8,6.1,127.9,0,138,0h240
			c10.1,0,19.2,6.1,23.1,15.4c3.9,9.3,1.7,20.1-5.4,27.2l-120,120C270.8,167.6,264.4,170,258,170z M198.4,50l59.6,59.6L317.6,50
			H198.4z"/>
	</g>
	<g>
		<path d="M378,512H138c-10.1,0-19.2-6.1-23.1-15.4c-3.9-9.3-1.7-20.1,5.4-27.2l120-120c9.8-9.8,25.6-9.8,35.4,0l120,120
			c7.1,7.1,9.3,17.9,5.4,27.2C397.2,505.9,388.1,512,378,512z"/>
	</g>
	<g>
		<path d="M482,281H30c-13.8,0-25-11.2-25-25s11.2-25,25-25h452c13.8,0,25,11.2,25,25S495.8,281,482,281z"/>
	</g>
</g>
</svg>
