<?xml version="1.0" encoding="iso-8859-1"?>
<!-- Generator: Adobe Illustrator 19.0.0, SVG Export Plug-In . SVG Version: 6.00 Build 0)  -->
<svg version="1.1" id="Layer_1" xmlns="http://www.w3.org/2000/svg" xmlns:xlink="http://www.w3.org/1999/xlink" x="0px" y="0px"
	 viewBox="-49 141 512 512" style="enable-background:new -49 141 512 512;" xml:space="preserve">
<g>
	<path d="M413,372c-13.807,0-25,11.193-25,25c0,99.804-81.196,181-181,181c-50.03,0-97.131-20.73-130.871-56H136
		c13.808,0,25-11.193,25-25s-11.192-25-25-25H16c-13.808,0-25,11.193-25,25v120c0,13.807,11.192,25,25,25s25-11.193,25-25v-59.376
		C83.978,601.98,143.655,628,207,628c61.702,0,119.712-24.028,163.342-67.658C413.972,516.711,438,458.702,438,397
		C438,383.193,426.808,372,413,372z"/>
	<path d="M26,397c0-99.804,81.196-181,181-181c49.996,0,97.114,20.737,130.862,56H278c-13.808,0-25,11.193-25,25s11.192,25,25,25
		h120c13.808,0,25-11.193,25-25V177c0-13.807-11.192-25-25-25s-25,11.193-25,25v59.387C330.012,192.031,270.308,166,207,166
		c-61.702,0-119.712,24.028-163.342,67.658C0.028,277.289-24,335.298-24,397c0,13.807,11.193,25,25,25S26,410.807,26,397z"/>
</g>
</svg>
