<?xml version="1.0" encoding="iso-8859-1"?>
<!-- Generator: Adobe Illustrator 19.0.0, SVG Export Plug-In . SVG Version: 6.00 Build 0)  -->
<svg version="1.1" id="Layer_1" xmlns="http://www.w3.org/2000/svg" xmlns:xlink="http://www.w3.org/1999/xlink" x="0px" y="0px"
	 viewBox="0 0 490 490" style="enable-background:new 0 0 490 490;" xml:space="preserve">
<g>
	<path d="M451,220c-13.807,0-25,11.193-25,25c0,99.804-81.196,181-181,181c-50.03,0-97.131-20.73-130.871-56H174
		c13.808,0,25-11.193,25-25s-11.192-25-25-25H54c-13.808,0-25,11.193-25,25v120c0,13.807,11.192,25,25,25s25-11.193,25-25v-59.376
		C121.978,449.98,181.655,476,245,476c61.702,0,119.712-24.028,163.342-67.658C451.972,364.711,476,306.702,476,245
		C476,231.193,464.808,220,451,220z"/>
	<path d="M64,245c0-99.804,81.196-181,181-181c49.996,0,97.114,20.737,130.862,56H316c-13.808,0-25,11.193-25,25s11.192,25,25,25
		h120c13.808,0,25-11.193,25-25V25c0-13.807-11.192-25-25-25s-25,11.193-25,25v59.387C368.012,40.031,308.308,14,245,14
		c-61.702,0-119.712,24.028-163.342,67.658C38.028,125.289,14,183.298,14,245c0,13.807,11.193,25,25,25S64,258.807,64,245z"/>
</g>
<g>
</g>
<g>
</g>
<g>
</g>
<g>
</g>
<g>
</g>
<g>
</g>
<g>
</g>
<g>
</g>
<g>
</g>
<g>
</g>
<g>
</g>
<g>
</g>
<g>
</g>
<g>
</g>
<g>
</g>
</svg>
