<svg xmlns="http://www.w3.org/2000/svg" viewBox="-49 141 512 512"><path d="M413 372c-13.807 0-25 11.193-25 25 0 99.804-81.196 181-181 181-50.03 0-97.131-20.73-130.871-56H136c13.808 0 25-11.193 25-25s-11.192-25-25-25H16c-13.808 0-25 11.193-25 25v120c0 13.807 11.192 25 25 25s25-11.193 25-25v-59.376C83.978 601.98 143.655 628 207 628c61.702 0 119.712-24.028 163.342-67.658C413.972 516.711 438 458.702 438 397c0-13.807-11.192-25-25-25zM26 397c0-99.804 81.196-181 181-181 49.996 0 97.114 20.737 130.862 56H278c-13.808 0-25 11.193-25 25s11.192 25 25 25h120c13.808 0 25-11.193 25-25V177c0-13.807-11.192-25-25-25s-25 11.193-25 25v59.387C330.012 192.031 270.308 166 207 166c-61.702 0-119.712 24.028-163.342 67.658C.028 277.289-24 335.298-24 397c0 13.807 11.193 25 25 25s25-11.193 25-25z"/></svg>