<svg xmlns="http://www.w3.org/2000/svg" viewBox="0 0 512 512"><path d="M261 402H70c-8.3 0-15-6.7-15-15V210h392v28c0 13.8 11.2 25 25 25s25-11.2 25-25V135c0-35.8-29.2-65-65-65H203.3c-6.8-28.6-32.6-50-63.3-50H70C34.2 20 5 49.2 5 85v302c0 35.8 29.2 65 65 65h191c13.8 0 25-11.2 25-25s-11.2-25-25-25zM70 70h70c8.3 0 15 6.7 15 15v10c0 13.8 11.2 25 25 25h252c8.3 0 15 6.7 15 15v25H55V85c0-8.3 6.7-15 15-15z"/><path d="M449.9 399.5l49.8-49.8c9.8-9.8 9.8-25.6 0-35.4-9.8-9.8-25.6-9.8-35.4 0l-49.8 49.8-49.8-49.8c-9.8-9.8-25.6-9.8-35.4 0-9.8 9.8-9.8 25.6 0 35.4l49.8 49.8-49.8 49.8c-9.8 9.8-9.8 25.6 0 35.4 4.9 4.9 11.3 7.3 17.7 7.3s12.8-2.4 17.7-7.3l49.8-49.8 49.8 49.8c4.9 4.9 11.3 7.3 17.7 7.3s12.8-2.4 17.7-7.3c9.8-9.8 9.8-25.6 0-35.4l-49.8-49.8z"/></svg>