<?xml version="1.0" encoding="iso-8859-1"?>
<!-- Generator: Adobe Illustrator 19.0.0, SVG Export Plug-In . SVG Version: 6.00 Build 0)  -->
<svg version="1.1" id="Layer_1" xmlns="http://www.w3.org/2000/svg" xmlns:xlink="http://www.w3.org/1999/xlink" x="0px" y="0px"
	 viewBox="-49 141 512 512" style="enable-background:new -49 141 512 512;" xml:space="preserve">
<g>
	<g>
		<path d="M127,372H31c-30.327,0-55-24.673-55-55v-96c0-30.327,24.673-55,55-55h96c30.327,0,55,24.673,55,55v96
			C182,347.327,157.327,372,127,372z M31,216c-2.757,0-5,2.243-5,5v96c0,2.757,2.243,5,5,5h96c2.757,0,5-2.243,5-5v-96
			c0-2.757-2.243-5-5-5H31z"/>
	</g>
	<g>
		<path d="M127,628H31c-30.327,0-55-24.673-55-55v-96c0-30.327,24.673-55,55-55h96c30.327,0,55,24.673,55,55v96
			C182,603.327,157.327,628,127,628z M31,472c-2.757,0-5,2.243-5,5v96c0,2.757,2.243,5,5,5h96c2.757,0,5-2.243,5-5v-96
			c0-2.757-2.243-5-5-5H31z"/>
	</g>
	<g>
		<path d="M383,628h-96c-30.327,0-55-24.673-55-55v-96c0-30.327,24.673-55,55-55h96c30.327,0,55,24.673,55,55v96
			C438,603.327,413.327,628,383,628z M287,472c-2.757,0-5,2.243-5,5v96c0,2.757,2.243,5,5,5h96c2.757,0,5-2.243,5-5v-96
			c0-2.757-2.243-5-5-5H287z"/>
	</g>
	<g>
		<path d="M413,294H257c-13.807,0-25-11.193-25-25s11.193-25,25-25h156c13.807,0,25,11.193,25,25S426.807,294,413,294z"/>
	</g>
</g>
</svg>
