<svg xmlns="http://www.w3.org/2000/svg" viewBox="-49 141 512 512"><path d="M127 372H31c-30.327 0-55-24.673-55-55v-96c0-30.327 24.673-55 55-55h96c30.327 0 55 24.673 55 55v96c0 30.327-24.673 55-55 55zM31 216c-2.757 0-5 2.243-5 5v96c0 2.757 2.243 5 5 5h96c2.757 0 5-2.243 5-5v-96c0-2.757-2.243-5-5-5H31zM127 628H31c-30.327 0-55-24.673-55-55v-96c0-30.327 24.673-55 55-55h96c30.327 0 55 24.673 55 55v96c0 30.327-24.673 55-55 55zM31 472c-2.757 0-5 2.243-5 5v96c0 2.757 2.243 5 5 5h96c2.757 0 5-2.243 5-5v-96c0-2.757-2.243-5-5-5H31zM383 628h-96c-30.327 0-55-24.673-55-55v-96c0-30.327 24.673-55 55-55h96c30.327 0 55 24.673 55 55v96c0 30.327-24.673 55-55 55zm-96-156c-2.757 0-5 2.243-5 5v96c0 2.757 2.243 5 5 5h96c2.757 0 5-2.243 5-5v-96c0-2.757-2.243-5-5-5h-96zM413 294H257c-13.807 0-25-11.193-25-25s11.193-25 25-25h156c13.807 0 25 11.193 25 25s-11.193 25-25 25z"/></svg>