<svg xmlns="http://www.w3.org/2000/svg" viewBox="0 0 512 512"><path d="M447 79h-61.6l12.3-12.3c9.8-9.8 9.8-25.6 0-35.4-9.8-9.8-25.6-9.8-35.4 0l-55 55c-9.8 9.8-9.8 25.6 0 35.4l55 55c4.9 4.9 11.3 7.3 17.7 7.3s12.8-2.4 17.7-7.3c9.8-9.8 9.8-25.6 0-35.4L385.4 129H447c8.3 0 15 6.7 15 15v45c0 13.8 11.2 25 25 25s25-11.2 25-25v-45c0-35.8-29.2-65-65-65zM149.7 333.3c-9.8-9.8-25.6-9.8-35.4 0-9.8 9.8-9.8 25.6 0 35.4l12.3 12.3H65c-8.3 0-15-6.7-15-15v-45c0-13.8-11.2-25-25-25S0 307.2 0 321v45c0 35.8 29.2 65 65 65h61.6l-12.3 12.3c-9.8 9.8-9.8 25.6 0 35.4 4.9 4.9 11.3 7.3 17.7 7.3s12.8-2.4 17.7-7.3l55-55c9.8-9.8 9.8-25.6 0-35.4l-55-55zM190 0H65C29.2 0 0 29.2 0 65v125c0 35.8 29.2 65 65 65h125c35.8 0 65-29.2 65-65V65c0-35.8-29.2-65-65-65zm15 190c0 8.3-6.7 15-15 15H65c-8.3 0-15-6.7-15-15V65c0-8.3 6.7-15 15-15h125c8.3 0 15 6.7 15 15v125zM447 257H322c-35.8 0-65 29.2-65 65v125c0 35.8 29.2 65 65 65h125c35.8 0 65-29.2 65-65V322c0-35.8-29.2-65-65-65zm15 190c0 8.3-6.7 15-15 15H322c-8.3 0-15-6.7-15-15V322c0-8.3 6.7-15 15-15h125c8.3 0 15 6.7 15 15v125z"/></svg>