<?xml version="1.0" encoding="iso-8859-1"?>
<!-- Generator: Adobe Illustrator 19.0.0, SVG Export Plug-In . SVG Version: 6.00 Build 0)  -->
<svg version="1.1" id="Layer_1" xmlns="http://www.w3.org/2000/svg" xmlns:xlink="http://www.w3.org/1999/xlink" x="0px" y="0px"
	 viewBox="-49 141 512 512" style="enable-background:new -49 141 512 512;" xml:space="preserve">
<path d="M437.838,214.25h-200c-13.807,0-25,11.193-25,25v59.933L142.151,176.75c-4.466-7.735-12.719-12.5-21.65-12.5
	s-17.185,4.765-21.65,12.5l-144.339,250c-4.466,7.735-4.466,17.265,0,25s12.719,12.5,21.651,12.5h121.15
	c-2.273,9.804-3.475,20.014-3.475,30.5c0,74.439,60.561,135,135,135s135-60.561,135-135c0-10.486-1.202-20.696-3.475-30.5h77.475
	c13.807,0,25-11.193,25-25v-200C462.838,225.443,451.645,214.25,437.838,214.25z M19.464,414.25l101.037-175l72.383,125.369
	c-29.306,8.107-54.642,25.865-72.352,49.631H19.464z M228.838,579.75c-46.869,0-85-38.131-85-85s38.131-85,85-85s85,38.131,85,85
	S275.707,579.75,228.838,579.75z M412.838,414.25h-75.693c-18.103-24.293-44.173-42.314-74.307-50.161V264.25h150V414.25z"/>
</svg>
