<?xml version="1.0" encoding="iso-8859-1"?>
<!-- Generator: Adobe Illustrator 19.0.0, SVG Export Plug-In . SVG Version: 6.00 Build 0)  -->
<svg version="1.1" id="Layer_1" xmlns="http://www.w3.org/2000/svg" xmlns:xlink="http://www.w3.org/1999/xlink" x="0px" y="0px"
	 viewBox="0 0 310 310" style="enable-background:new 0 0 310 310;" xml:space="preserve">
<path d="M25,180h199.644l-42.175,42.175c-9.763,9.763-9.763,25.592,0,35.355c9.763,9.763,25.592,9.762,35.355,0l84.853-84.853
	C307.366,167.989,310,161.63,310,155v0c0-6.63-2.634-12.989-7.322-17.678l-84.853-84.853c-9.763-9.762-25.592-9.763-35.355,0
	c-9.763,9.763-9.763,25.592,0,35.355L224.644,130H25c-13.807,0-25,11.193-25,25v0C0,168.807,11.193,180,25,180z"/>
<g>
</g>
<g>
</g>
<g>
</g>
<g>
</g>
<g>
</g>
<g>
</g>
<g>
</g>
<g>
</g>
<g>
</g>
<g>
</g>
<g>
</g>
<g>
</g>
<g>
</g>
<g>
</g>
<g>
</g>
</svg>
