<?xml version="1.0" encoding="iso-8859-1"?>
<!-- Generator: Adobe Illustrator 19.0.0, SVG Export Plug-In . SVG Version: 6.00 Build 0)  -->
<svg version="1.1" id="Layer_1" xmlns="http://www.w3.org/2000/svg" xmlns:xlink="http://www.w3.org/1999/xlink" x="0px" y="0px"
	 viewBox="-49 141 512 512" style="enable-background:new -49 141 512 512;" xml:space="preserve">
<path id="XMLID_18_" d="M77.001,422h199.644l-42.175,42.175c-9.763,9.763-9.763,25.592,0,35.355s25.592,9.762,35.355,0
	l84.853-84.853C359.365,409.99,362,403.63,362,397l0,0c0-6.63-2.634-12.989-7.322-17.678l-84.852-84.852
	c-9.763-9.762-25.592-9.763-35.355,0s-9.763,25.592,0,35.355L276.646,372H77.001c-13.807,0-25,11.193-25,25l0,0
	C52,410.807,63.194,422,77.001,422z"/>
</svg>
