<svg xmlns="http://www.w3.org/2000/svg" xml:space="preserve" style="enable-background:new 0 0 512 512" viewBox="0 0 512 512"><path d="M509.273 141.615c-2.016-2.474-12.224-14.491-28.614-25.36 4.448-.178 9.093.41 13.983 1.762a11.486 11.486 0 0 0 12.173-4.032 11.39 11.39 0 0 0 .877-12.691c-2.769-4.829-28.408-47.292-75.252-50.961l-.176-.012a101.53 101.53 0 0 0-8.242-.114 104.57 104.57 0 0 0-4.017-7.221l-.094-.15C394.531 3.289 344.994.774 339.431.616c-4.651-.122-8.881 2.525-10.772 6.771a11.483 11.483 0 0 0 2.202 12.634c3.502 3.67 6.215 7.485 8.162 11.488-17.325-9.303-32.739-12.616-35.871-13.223a12.016 12.016 0 0 0-12.383 5.207 12.13 12.13 0 0 0 .127 13.546c9.345 13.699 11.507 27.262 6.779 42.759-3.094 10.557-12.857 26.688-20.901 37.166-.221.288-.419.59-.594.902a60.59 60.59 0 0 0-7.521 16.222c-4.96 16.912-2.202 34.287 6.204 48.337-7.889 1.935-14.635 5.01-19.618 9.018-4.149 3.337-5.408 9.2-2.993 13.94 7.162 14.062 20.153 23.782 35.641 26.67a50.647 50.647 0 0 0 16.512.361 1011.662 1011.662 0 0 1-53.49 66.711l-2.521-30.624a7.498 7.498 0 0 0-8.091-6.859 7.5 7.5 0 0 0-6.859 8.091l3.691 44.826c-16.55 18.145-34.528 36.478-53.961 54.585a7.468 7.468 0 0 0-2.285 2.121 895.475 895.475 0 0 1-30.023 26.568c.855-10.247-.216-21.823-3.246-33.785-5.313-20.97-15.356-38.028-27.556-46.798-4.737-3.405-11.295-3.021-15.592.915l-.001.001c-17.257 15.806-24.128 38.785-18.379 61.469 4.869 19.217 17.802 34.306 35.443 41.925-35.408 27.372-74.539 53.15-117.515 75.681a7.502 7.502 0 0 0 6.965 13.287c63.314-33.194 123.761-76.322 180.021-128.409 5.579-1.921 29.107-9.251 62.165-8.885.14.388.297.773.473 1.153 10.882 23.563 31.486 40.764 56.53 47.193 4.007 1.025 8.101-1.388 9.13-5.399a7.501 7.501 0 0 0-5.399-9.131c-20.511-5.266-37.419-19.303-46.45-38.542 28.911-21.014 97.999-16.813 124.159 7.546-10.322 16.444-27.08 28.043-46.047 31.851a7.499 7.499 0 0 0-5.876 8.831 7.5 7.5 0 0 0 8.83 5.877c23.171-4.652 43.615-18.886 56.091-39.052 3.58-5.784 2.594-13.389-2.343-18.08-31.309-29.758-109.424-34.503-144.107-8.758a14.252 14.252 0 0 0-1.777 1.564c-17.124-.419-31.985 1.107-43.694 3.106 38.37-37.841 73.982-79.218 106.133-123.289 1.807 6.461 4.929 12.582 9.293 18.012 9.637 11.997 23.891 18.813 39.249 18.813.368 0 .737-.004 1.106-.012 5.32-.113 9.892-3.995 10.869-9.23 1.172-6.274.697-13.658-1.318-21.508a62.364 62.364 0 0 0 11.225-.537c19.186-2.659 35.54-13.925 44.868-30.907a7.502 7.502 0 0 0-13.149-7.222c-7.023 12.786-19.334 21.267-33.779 23.27-6.025.837-12 .493-17.662-.943a7.507 7.507 0 0 0-.699-.228 45.742 45.742 0 0 1-19.785-11.254l-.179-.175-.124-.122-.04-.04a48.262 48.262 0 0 1-1.231-1.266l-.027-.029a28.838 28.838 0 0 1-.338-.368l-.119-.132-.236-.264-.191-.219-.154-.177a77.707 77.707 0 0 1-.252-.296l-.085-.1-.299-.36-.031-.037a40.75 40.75 0 0 1-6.227-10.525l-.015-.037a48.593 48.593 0 0 1-.136-.342l-.097-.248-.041-.106c-5.907-15.442-2.45-33.62 5.741-46.355l.107-.166.07-.107c.131-.201.264-.401.398-.6 12.138-16.36 26.978-28.145 44.109-35.024l.01-.004c7.965-3.197 16.442-5.344 25.211-6.387l.08-.01c.273-.032.547-.064.82-.094l.543-.044.144-.011c.173-.013.347-.026.521-.037l.108-.007.515-.032.052-.003a76.003 76.003 0 0 1 5.62-.12l.124.002.348.007c30.093.662 55.655 19.061 69.325 33.39-21.924-.393-39.645 8.956-54.005 28.417a7.502 7.502 0 0 0 12.071 8.907c12.608-17.087 27.674-24.064 47.41-21.962 4.936.527 9.642-1.943 11.999-6.292a12.026 12.026 0 0 0-1.268-13.368zM133.042 409.804c-16.189-4.812-28.224-17.324-32.412-33.853-4.188-16.527.436-33.26 12.38-45.2 18.189 15.106 28.833 57.105 20.032 79.053zm157.6-192.496c-9.813-1.83-18.198-7.57-23.44-15.934 4.57-2.722 11.084-4.742 18.361-5.683.499.466 1.006.922 1.521 1.37l.078.068.094.082a60.421 60.421 0 0 0 21.349 11.943l.016.005.384.12.048.015.403.123.008.002.424.126c.812.238 1.627.457 2.445.657l.054.013.427.103.141.033.343.079.204.045.274.061.275.059.206.044.315.064.169.034.338.066.147.028a39.845 39.845 0 0 0 .482.089l.399.07.084.015c.132.023.264.045.397.066l.097.016.411.065.072.011.405.06.094.014.119.017c-7.81 5.651-17.508 7.852-27.144 6.054zm45.747 7.572.128.138.195.207.265.279.146.152a44.614 44.614 0 0 0 .735.749l.028.028c6.736 6.738 14.728 11.677 23.402 14.621 2.592 6.832 3.881 13.499 3.645 18.794-9.848-.664-18.872-5.341-25.125-13.124-6.134-7.637-8.781-17.216-7.497-26.764a56.819 56.819 0 0 0 4.078 4.92zm-.235-83.008-.142.18a104.155 104.155 0 0 0-.752.962l-.209.27-.457.595-.109.143a115.9 115.9 0 0 0-.503.666l-.06.081-.549.736a7.178 7.178 0 0 0-.178.252l-.336.501-.062.094c-8.702 13.127-12.645 28.874-11.374 43.85.179 2.195.466 4.35.86 6.461l-.307-.025-.01-.001c-.174-.015-.347-.032-.521-.049l-.009-.001a40.574 40.574 0 0 1-7.326-1.435l-.327-.097a45.753 45.753 0 0 1-17.408-9.803l-.049-.044c-12.628-11.43-18.379-29.49-13.273-46.896a45.62 45.62 0 0 1 5.917-12.591l.06-.091c8.564-11.253 19.311-28.893 23.017-41.533 5.361-17.576 3.724-33.833-5.026-49.491 17.217 4.753 41.922 16.462 57.474 37.948a78.536 78.536 0 0 1 9.675 18.162 99.622 99.622 0 0 1 4.468 16.976c-16.23 7.552-30.486 19.021-42.484 34.18zm83.141-44.327a93.337 93.337 0 0 0-4.898.289l-.088.008-.089.008-.66.074-.043.005-.638.075-.086.01-.498.062-.344.044-.192.025a115.28 115.28 0 0 0-18.839 4.07c-1.341-7.015-3.293-13.627-5.868-19.859a104.337 104.337 0 0 0-.468-1.166c-6.976-16.167-17.608-28.35-28.988-37.471-.767-9.884-4.223-19.062-10.312-27.41 18.24 2.442 45.163 11.578 59.955 34.555a86.971 86.971 0 0 1 5.113 9.736c.047.126.098.251.152.375 5.068 11.533 7.344 23.806 6.791 36.57zm15.007.719c.515-11.402-.883-22.437-4.178-33.025.411.016.822.034 1.232.057 27.237 2.17 48.017 21.575 58.795 36.494-10.235-1.419-19.957-.123-29.031 3.873-8.121-3.46-17.102-6.148-26.818-7.399z"/></svg>