<?xml version="1.0" encoding="iso-8859-1"?>
<!-- Generator: Adobe Illustrator 19.0.0, SVG Export Plug-In . SVG Version: 6.00 Build 0)  -->
<svg version="1.1" id="Layer_1" xmlns="http://www.w3.org/2000/svg" xmlns:xlink="http://www.w3.org/1999/xlink" x="0px" y="0px"
	 viewBox="-49 141 512 512" style="enable-background:new -49 141 512 512;" xml:space="preserve">
<path d="M413,379c-13.807,0-25,11.193-25,25c0,99.804-81.196,181-181,181S26,503.804,26,404s81.196-181,181-181
	c50.012,0,97.122,20.734,130.866,56H278c-13.808,0-25,11.192-25,25s11.192,25,25,25h120c13.808,0,25-11.192,25-25V184
	c0-13.808-11.192-25-25-25s-25,11.192-25,25v59.382C330.017,199.026,270.326,173,207,173c-61.702,0-119.712,24.028-163.342,67.658
	S-24,342.298-24,404S0.028,523.712,43.658,567.342S145.298,635,207,635s119.712-24.028,163.342-67.658
	C413.972,523.712,438,465.702,438,404C438,390.193,426.807,379,413,379z"/>
</svg>
