<svg xmlns="http://www.w3.org/2000/svg" viewBox="0 0 512 512">
<path d="M50 238C63.807 238 75 249.193 75 263C75 362.804 156.196 444 256 444C355.804 444 437 362.804 437 263C437 163.196 355.804 82 256 82C205.988 82 158.878 102.734 125.134 138H185C198.808 138 210 149.192 210 163C210 176.808 198.808 188 185 188H65C51.192 188 40 176.808 40 163V43C40 29.192 51.192 18 65 18C78.808 18 90 29.192 90 43V102.382C132.983 58.026 192.674 32 256 32C317.702 32 375.712 56.028 419.342 99.658C462.972 143.288 487 201.298 487 263C487 324.702 462.972 382.712 419.342 426.342C375.712 469.972 317.702 494 256 494C194.298 494 136.288 469.972 92.658 426.342C49.028 382.712 25 324.702 25 263C25 249.193 36.193 238 50 238Z"/>
</svg>
