<?xml version="1.0" encoding="iso-8859-1"?>
<!-- Generator: Adobe Illustrator 19.0.0, SVG Export Plug-In . SVG Version: 6.00 Build 0)  -->
<svg version="1.1" id="Layer_1" xmlns="http://www.w3.org/2000/svg" xmlns:xlink="http://www.w3.org/1999/xlink" x="0px" y="0px"
	 viewBox="0 0 476 476" style="enable-background:new 0 0 476 476;" xml:space="preserve">
<path d="M444,220c-13.807,0-25,11.193-25,25c0,99.804-81.196,181-181,181S57,344.804,57,245S138.196,64,238,64
	c50.012,0,97.122,20.734,130.866,56H309c-13.808,0-25,11.192-25,25s11.192,25,25,25h120c13.808,0,25-11.192,25-25V25
	c0-13.808-11.192-25-25-25s-25,11.192-25,25v59.382C361.017,40.026,301.326,14,238,14c-61.702,0-119.712,24.028-163.342,67.658
	S7,183.298,7,245s24.028,119.712,67.658,163.342S176.298,476,238,476s119.712-24.028,163.342-67.658S469,306.702,469,245
	C469,231.193,457.807,220,444,220z"/>
<g>
</g>
<g>
</g>
<g>
</g>
<g>
</g>
<g>
</g>
<g>
</g>
<g>
</g>
<g>
</g>
<g>
</g>
<g>
</g>
<g>
</g>
<g>
</g>
<g>
</g>
<g>
</g>
<g>
</g>
</svg>
