<svg xmlns="http://www.w3.org/2000/svg" width="512pt" height="512pt" viewBox="0 -42 512 512"><path d="M504.484 333.016H7.516A7.514 7.514 0 0 0 0 340.53v80.156a7.513 7.513 0 0 0 7.516 7.512h332.648a7.514 7.514 0 1 0 0-15.027H15.031v-65.129h33.063v16.535a7.513 7.513 0 0 0 7.515 7.512 7.515 7.515 0 0 0 7.516-7.512v-16.535h41.078v16.535c0 4.149 3.363 7.512 7.516 7.512s7.515-3.363 7.515-7.512v-16.535h41.079v16.535c0 4.149 3.363 7.512 7.515 7.512s7.516-3.363 7.516-7.512v-16.535h41.078v16.535c0 4.149 3.363 7.512 7.516 7.512s7.515-3.363 7.515-7.512v-16.535h41.078v16.535c0 4.149 3.364 7.512 7.516 7.512s7.515-3.363 7.515-7.512v-16.535h41.079v16.535c0 4.149 3.363 7.512 7.515 7.512s7.516-3.363 7.516-7.512v-16.535h41.078v16.535c0 4.149 3.363 7.512 7.516 7.512s7.515-3.363 7.515-7.512v-16.535h41.078v16.535a7.515 7.515 0 0 0 7.516 7.512 7.513 7.513 0 0 0 7.516-7.512v-16.535h41.078v65.129H376.234a7.514 7.514 0 1 0 0 15.027h128.25a7.513 7.513 0 0 0 7.516-7.511V340.53a7.514 7.514 0 0 0-7.516-7.515zM95.688 267.887h122.007c6.598 0 9.98-8.293 5.239-12.903L100.926 136.367c-4.668-4.539-12.754-1.11-12.754 5.387V260.37a7.514 7.514 0 0 0 7.516 7.516zm7.515-108.348 95.98 93.32h-95.98zm0 0"/><path d="M47.594 315.98h288.562c6.598 0 9.98-8.292 5.239-12.902L52.832 22.531c-4.672-4.539-12.754-1.11-12.754 5.387v280.547a7.514 7.514 0 0 0 7.516 7.515zm270.05-15.027h-30.082v-16.535c0-4.148-3.363-7.512-7.515-7.512s-7.516 3.364-7.516 7.512v16.535H239.47v-16.535c0-4.148-3.364-7.512-7.516-7.512s-7.516 3.364-7.516 7.512v16.535h-33.062v-16.535c0-4.148-3.363-7.512-7.516-7.512s-7.515 3.364-7.515 7.512v16.535H143.28v-16.535c0-4.148-3.363-7.512-7.515-7.512s-7.516 3.364-7.516 7.512v16.535H95.187v-16.535c0-4.148-3.363-7.512-7.515-7.512s-7.516 3.364-7.516 7.512v16.535H55.11v-41.082h16.532a7.514 7.514 0 1 0 0-15.027H55.109v-33.067h16.532a7.514 7.514 0 1 0 0-15.027H55.109v-33.066h16.532a7.514 7.514 0 1 0 0-15.028H55.109V115.59h16.532a7.514 7.514 0 1 0 0-15.028H55.109V45.707zM399.426 313.781c2.894 2.895 7.734 2.895 10.629 0 71.687-71.687 71.687-188.328 0-260.015s-188.332-71.688-260.02 0c-2.89 2.89-2.89 7.734 0 10.625zm0-249.39c64.047 64.046 65.781 167.171 5.199 233.332l-17.594-17.594 11.688-11.691a7.507 7.507 0 0 0 0-10.625 7.507 7.507 0 0 0-10.625 0L376.402 269.5l-29.05-29.047 11.691-11.691a7.514 7.514 0 0 0 0-10.625 7.511 7.511 0 0 0-10.629 0l-11.687 11.687-29.047-29.047 11.687-11.691a7.507 7.507 0 0 0 0-10.625 7.51 7.51 0 0 0-10.625 0l-11.691 11.691-29.047-29.05 11.687-11.692a7.507 7.507 0 0 0 0-10.625 7.51 7.51 0 0 0-10.625 0l-11.691 11.692-29.047-29.051 11.692-11.688a7.518 7.518 0 0 0 0-10.629 7.518 7.518 0 0 0-10.63 0l-11.69 11.688-29.048-29.047 11.692-11.691a7.514 7.514 0 0 0 0-10.625c-2.938-2.934-7.696-2.938-10.63 0l-11.69 11.691-11.926-11.93C232.258-1.387 335.383.348 399.426 64.391zm0 0"/><path d="M392.813 239.148a7.518 7.518 0 0 0 6.753 2.063 7.51 7.51 0 0 0 5.48-4.45c10.4-24.609 13.31-51.558 8.415-77.933-5.016-27.023-17.953-51.594-37.414-71.055-19.461-19.46-44.031-32.398-71.055-37.414-26.37-4.894-53.324-1.984-77.933 8.414a7.51 7.51 0 0 0-4.45 5.48 7.507 7.507 0 0 0 2.063 6.755zm-27.395-140.75c32.223 32.223 43.332 78.993 29.73 121.832L243.59 68.672c42.844-13.602 89.613-2.492 121.828 29.726zm0 0"/></svg>