<svg height="512pt" viewBox="0 -42 512 512" width="512pt" xmlns="http://www.w3.org/2000/svg"><path d="m504.484375 333.015625h-496.96875c-4.152344 0-7.515625 3.363281-7.515625 7.515625v80.15625c0 4.148438 3.363281 7.511719 7.515625 7.511719h332.648437c4.152344 0 7.515626-3.363281 7.515626-7.511719 0-4.152344-3.363282-7.515625-7.515626-7.515625h-325.132812v-65.128906h33.0625v16.535156c0 4.148437 3.363281 7.511719 7.515625 7.511719 4.148437 0 7.515625-3.363282 7.515625-7.511719v-16.535156h41.078125v16.535156c0 4.148437 3.363281 7.511719 7.515625 7.511719s7.515625-3.363282 7.515625-7.511719v-16.535156h41.078125v16.535156c0 4.148437 3.363281 7.511719 7.515625 7.511719s7.515625-3.363282 7.515625-7.511719v-16.535156h41.078125v16.535156c0 4.148437 3.363281 7.511719 7.515625 7.511719s7.515625-3.363282 7.515625-7.511719v-16.535156h41.078125v16.535156c0 4.148437 3.363281 7.511719 7.515625 7.511719s7.515625-3.363282 7.515625-7.511719v-16.535156h41.078125v16.535156c0 4.148437 3.363281 7.511719 7.515625 7.511719s7.515625-3.363282 7.515625-7.511719v-16.535156h41.078125v16.535156c0 4.148437 3.363281 7.511719 7.515625 7.511719s7.515625-3.363282 7.515625-7.511719v-16.535156h41.078125v16.535156c0 4.148437 3.367187 7.511719 7.515625 7.511719 4.152344 0 7.515625-3.363282 7.515625-7.511719v-16.535156h41.078125v65.128906h-120.734375c-4.152344 0-7.515625 3.363281-7.515625 7.515625 0 4.148438 3.363281 7.511719 7.515625 7.511719h128.25c4.152344 0 7.515625-3.363281 7.515625-7.511719v-80.15625c0-4.152344-3.363281-7.515625-7.515625-7.515625zm0 0"/><path d="m95.6875 267.886719h122.007812c6.597657 0 9.980469-8.292969 5.238282-12.902344l-122.007813-118.617187c-4.667969-4.539063-12.753906-1.109376-12.753906 5.386718v118.617188c0 4.152344 3.363281 7.515625 7.515625 7.515625zm7.515625-108.347657 95.980469 93.320313h-95.980469zm0 0"/><path d="m47.59375 315.980469h288.5625c6.597656 0 9.980469-8.292969 5.238281-12.902344l-288.5625-280.546875c-4.671875-4.539062-12.753906-1.109375-12.753906 5.386719v280.546875c0 4.152344 3.363281 7.515625 7.515625 7.515625zm270.050781-15.027344h-30.082031v-16.535156c0-4.148438-3.363281-7.511719-7.515625-7.511719s-7.515625 3.363281-7.515625 7.511719v16.535156h-33.0625v-16.535156c0-4.148438-3.363281-7.511719-7.515625-7.511719s-7.515625 3.363281-7.515625 7.511719v16.535156h-33.0625v-16.535156c0-4.148438-3.363281-7.511719-7.515625-7.511719s-7.515625 3.363281-7.515625 7.511719v16.535156h-33.0625v-16.535156c0-4.148438-3.363281-7.511719-7.515625-7.511719s-7.515625 3.363281-7.515625 7.511719v16.535156h-33.0625v-16.535156c0-4.148438-3.363281-7.511719-7.515625-7.511719s-7.515625 3.363281-7.515625 7.511719v16.535156h-25.046875v-41.082031h16.53125c4.152344 0 7.515625-3.363282 7.515625-7.515625 0-4.148438-3.363281-7.511719-7.515625-7.511719h-16.53125v-33.066406h16.53125c4.152344 0 7.515625-3.363282 7.515625-7.515625 0-4.148438-3.363281-7.511719-7.515625-7.511719h-16.53125v-33.066406h16.53125c4.152344 0 7.515625-3.363282 7.515625-7.515625 0-4.148438-3.363281-7.511719-7.515625-7.511719h-16.53125v-33.066406h16.53125c4.152344 0 7.515625-3.363282 7.515625-7.515625 0-4.148438-3.363281-7.511719-7.515625-7.511719h-16.53125v-54.855469zm0 0"/><path d="m399.425781 313.78125c2.894531 2.894531 7.734375 2.894531 10.628907 0 71.6875-71.6875 71.6875-188.328125 0-260.015625s-188.332032-71.6875-260.019532 0c-2.890625 2.890625-2.890625 7.734375 0 10.625zm0-249.390625c64.046875 64.046875 65.78125 167.171875 5.199219 233.332031l-17.59375-17.59375 11.6875-11.691406c2.9375-2.933594 2.9375-7.691406 0-10.625-2.933594-2.9375-7.691406-2.9375-10.625 0l-11.691406 11.6875-29.050782-29.046875 11.691407-11.691406c2.933593-2.933594 2.933593-7.691407 0-10.625-2.933594-2.9375-7.691407-2.9375-10.628907 0l-11.6875 11.6875-29.046874-29.046875 11.6875-11.691406c2.9375-2.933594 2.9375-7.691407 0-10.625-2.933594-2.933594-7.691407-2.9375-10.625 0l-11.691407 11.691406-29.046875-29.050782 11.6875-11.691406c2.9375-2.933594 2.9375-7.691406 0-10.625-2.933594-2.9375-7.691406-2.933594-10.625 0l-11.691406 11.691406-29.046875-29.050781 11.691406-11.6875c2.933594-2.9375 2.933594-7.695312 0-10.628906-2.9375-2.933594-7.695312-2.933594-10.628906 0l-11.691406 11.6875-29.046875-29.046875 11.691406-11.691406c2.933594-2.933594 2.933594-7.691406 0-10.625-2.9375-2.933594-7.695312-2.9375-10.628906 0l-11.691406 11.691406-11.925782-11.929688c66.160156-60.582031 169.285156-58.847656 233.328125 5.195313zm0 0"/><path d="m392.8125 239.148438c1.421875 1.421874 3.339844 2.203124 5.3125 2.203124.480469 0 .960938-.046874 1.441406-.140624 2.453125-.476563 4.507813-2.148438 5.480469-4.449219 10.398437-24.609375 13.308594-51.558594 8.414063-77.933594-5.015626-27.023437-17.953126-51.59375-37.414063-71.054687-19.460937-19.460938-44.03125-32.398438-71.054687-37.414063-26.371094-4.894531-53.324219-1.984375-77.933594 8.414063-2.300782.972656-3.972656 3.027343-4.449219 5.480468-.480469 2.453125.292969 4.988282 2.0625 6.753906zm-27.394531-140.75c32.222656 32.222656 43.332031 78.992187 29.730469 121.832031l-151.558594-151.558594c42.84375-13.601563 89.613281-2.492187 121.828125 29.726563zm0 0"/></svg>