<svg xmlns="http://www.w3.org/2000/svg" viewBox="-49 141 512 512"><path d="M430.678 263.322l-90-90A25.004 25.004 0 0 0 323 166H41c-35.841 0-65 29.159-65 65v332c0 35.841 29.159 65 65 65h332c35.841 0 65-29.159 65-65V281a25.002 25.002 0 0 0-7.322-17.678zM298 216v96H116v-96h182zM116 578V462h182v116H116zm272-15c0 8.271-6.729 15-15 15h-25V437c0-13.807-11.193-25-25-25H91c-13.807 0-25 11.193-25 25v141H41c-8.271 0-15-6.729-15-15V231c0-8.271 6.729-15 15-15h25v121c0 13.807 11.193 25 25 25h232c13.807 0 25-11.193 25-25v-85.645l40 40V563z"/></svg>