<?xml version="1.0" encoding="iso-8859-1"?>
<!-- Generator: Adobe Illustrator 19.0.0, SVG Export Plug-In . SVG Version: 6.00 Build 0)  -->
<svg version="1.1" id="Layer_1" xmlns="http://www.w3.org/2000/svg" xmlns:xlink="http://www.w3.org/1999/xlink" x="0px" y="0px"
	 viewBox="-49 141 512 512" style="enable-background:new -49 141 512 512;" xml:space="preserve">
<path d="M430.678,263.322l-90-90C335.989,168.634,329.63,166,323,166H41c-35.841,0-65,29.159-65,65v332c0,35.841,29.159,65,65,65
	h332c35.841,0,65-29.159,65-65V281C438,274.369,435.366,268.011,430.678,263.322z M298,216v96H116v-96H298z M116,578V462h182v116
	H116z M388,563c0,8.271-6.729,15-15,15h-25V437c0-13.807-11.193-25-25-25H91c-13.807,0-25,11.193-25,25v141H41
	c-8.271,0-15-6.729-15-15V231c0-8.271,6.729-15,15-15h25v121c0,13.807,11.193,25,25,25h232c13.807,0,25-11.193,25-25v-85.645l40,40
	V563z"/>
</svg>
