<?xml version="1.0" encoding="iso-8859-1"?>
<!-- Generator: Adobe Illustrator 19.0.0, SVG Export Plug-In . SVG Version: 6.00 Build 0)  -->
<svg version="1.1" id="Layer_1" xmlns="http://www.w3.org/2000/svg" xmlns:xlink="http://www.w3.org/1999/xlink" x="0px" y="0px"
	 viewBox="0 0 462 462" style="enable-background:new 0 0 462 462;" xml:space="preserve">
<path d="M454.678,97.322l-90-90C359.989,2.634,353.63,0,347,0H65C29.159,0,0,29.159,0,65v332c0,35.841,29.159,65,65,65h332
	c35.841,0,65-29.159,65-65V115C462,108.369,459.366,102.011,454.678,97.322z M322,50v96H140V50H322z M140,412V296h182v116H140z
	 M412,397c0,8.271-6.729,15-15,15h-25V271c0-13.807-11.193-25-25-25H115c-13.807,0-25,11.193-25,25v141H65c-8.271,0-15-6.729-15-15
	V65c0-8.271,6.729-15,15-15h25v121c0,13.807,11.193,25,25,25h232c13.807,0,25-11.193,25-25V85.355l40,40V397z"/>
<g>
</g>
<g>
</g>
<g>
</g>
<g>
</g>
<g>
</g>
<g>
</g>
<g>
</g>
<g>
</g>
<g>
</g>
<g>
</g>
<g>
</g>
<g>
</g>
<g>
</g>
<g>
</g>
<g>
</g>
</svg>
