<?xml version="1.0" encoding="utf-8"?>
<!-- Generator: Adobe Illustrator 27.0.0, SVG Export Plug-In . SVG Version: 6.00 Build 0)  -->
<svg version="1.1" id="Layer_1" xmlns="http://www.w3.org/2000/svg" xmlns:xlink="http://www.w3.org/1999/xlink" x="0px" y="0px"
	 viewBox="0 0 512 512" style="enable-background:new 0 0 512 512;" xml:space="preserve">
<path d="M446.2,154.1H219.3c-35.8,0-65,29.2-65,65V446c0,35.8,29.2,65,65,65h226.9c35.8,0,65-29.2,65-65V219.1
	C511.2,183.3,482.1,154.1,446.2,154.1z M219.3,204.1h226.9c8.3,0,15,6.7,15,15v195.4l-18.4-18.7c-4.7-4.8-11.2-7.5-17.9-7.5
	c-6.7,0-13.2,2.8-17.8,7.6l-33.9,35l-86.3-86.7c-9.7-9.8-25.5-9.8-35.3-0.1l-47.2,46.8V219.1C204.3,210.9,211,204.1,219.3,204.1z
	 M341,288.8c0-20.2,16.4-36.5,36.5-36.5s36.5,16.4,36.5,36.5s-16.4,36.5-36.5,36.5S341,309,341,288.8z M174.7,26L174.7,26
	c0-13.8,11.2-25,25-25h64.3c13.8,0,25,11.2,25,25v0c0,13.8-11.2,25-25,25h-64.3C185.9,51,174.7,39.8,174.7,26z M350.8,26L350.8,26
	c0-13.8,11.2-25,25-25h11.9c41.4,0,75,33.6,75,75v12c0,13.8-11.2,25-25,25h0c-13.8,0-25-11.2-25-25V76c0-13.8-11.2-25-25-25h-11.9
	C362,51,350.8,39.8,350.8,26z M111.8,437.9L111.8,437.9c0,13.8-11.2,25-25,25h-11c-41.4,0-75-33.6-75-75v-11c0-13.8,11.2-25,25-25h0
	c13.8,0,25,11.2,25,25v11c0,13.8,11.2,25,25,25h11C100.6,412.9,111.8,424.1,111.8,437.9z M111.8,26L111.8,26c0,13.8-11.2,25-25,25
	h-11c-13.8,0-25,11.2-25,25v12c0,13.8-11.2,25-25,25h0c-13.8,0-25-11.2-25-25V76c0-41.4,33.6-75,75-75h11
	C100.6,1,111.8,12.2,111.8,26z M0.8,264v-64.2c0-13.8,11.2-25,25-25h0c13.8,0,25,11.2,25,25V264c0,13.8-11.2,25-25,25h0
	C12,289,0.8,277.8,0.8,264z"/>
</svg>
