<?xml version="1.0" encoding="utf-8"?>
<!-- Generator: Adobe Illustrator 26.3.1, SVG Export Plug-In . SVG Version: 6.00 Build 0)  -->
<svg version="1.1" id="Capa_1" xmlns="http://www.w3.org/2000/svg" xmlns:xlink="http://www.w3.org/1999/xlink" x="0px" y="0px"
	 viewBox="0 0 512 512" style="enable-background:new 0 0 512 512;" xml:space="preserve">
<g>
	<path d="M497.2,461.8L365.4,330.1c26.4-33.9,42.1-76.4,42.1-122.6c0-110.3-89.7-200-200-200s-200,89.7-200,200s89.7,200,200,200
		c46.1,0,88.7-15.7,122.6-42.1l131.8,131.8c4.9,4.9,11.3,7.3,17.7,7.3s12.8-2.4,17.7-7.3C506.9,487.4,506.9,471.6,497.2,461.8z
		 M57.5,207.5c0-82.7,67.3-150,150-150s150,67.3,150,150s-67.3,150-150,150S57.5,290.2,57.5,207.5z"/>
	<path d="M218.8,156.3c-2.7,2.5-5.1,5.3-7.1,8.4l-4.2,6.4l-4.2-6.4c-2-3.1-4.4-5.9-7.1-8.4c-8.5-7.8-19.3-11.7-30-11.7
		c-12.4,0-24.8,5.2-33.6,15.5c-6.1,7.1-9.8,15.9-10.6,25.2c-1.1,13.2,3.6,25.8,12.8,35l65.1,65.1c2,2,4.7,3.1,7.6,3.1
		c2.9,0,5.5-1.1,7.6-3.1l64.6-64.6c8.5-8.5,13.6-20.1,13.5-32.1c-0.1-11.9-4.8-23.1-13.3-31.5C263,140.7,236.1,140.3,218.8,156.3z"
		/>
</g>
</svg>
