<?xml version="1.0" encoding="utf-8"?>
<!-- Generator: Adobe Illustrator 27.6.1, SVG Export Plug-In . SVG Version: 6.00 Build 0)  -->
<svg version="1.1" id="Capa_1" xmlns="http://www.w3.org/2000/svg" xmlns:xlink="http://www.w3.org/1999/xlink" x="0px" y="0px"
	 viewBox="0 0 512 512" style="enable-background:new 0 0 512 512;" xml:space="preserve">
<style type="text/css">
	.st0{fill-rule:evenodd;clip-rule:evenodd;fill:#121212;}
</style>
<path class="st0" d="M150.9,301.8c83.3,0,150.9-67.6,150.9-150.9S234.2,0,150.9,0S0,67.6,0,150.9S67.6,301.8,150.9,301.8z
	 M170.3,122.9V227c0,11-8.9,19.9-19.9,19.9s-19.9-8.9-19.9-19.9V122.9L97,156.4c-7.8,7.8-20.3,7.8-28.1,0s-7.8-20.4,0-28.2
	l67.5-67.6c3.7-3.7,8.8-5.8,14.1-5.8c5.3,0,10.3,2.1,14.1,5.8l67.5,67.6c7.8,7.8,7.8,20.4,0,28.2c-7.8,7.8-20.4,7.8-28.1,0
	L170.3,122.9z M150.1,336.4V446c0,36.3,29.6,65.9,65.9,65.9h230.1c36.3,0,65.9-29.6,65.9-65.9V215.8c0-36.3-29.5-65.9-65.9-65.9
	H337.4c0,17.6-2.4,34.6-7,50.7h115.7c8.4,0,15.2,6.8,15.2,15.2v198.2l-18.7-19c-4.8-4.9-11.4-7.6-18.1-7.6c-6.8,0-13.4,2.8-18,7.7
	l-34.4,35.5l-87.5-88c-9.8-9.9-25.9-9.9-35.8-0.1l-47.9,47.5v-60.5c-15.9,4.4-32.7,6.8-50,6.8C150.6,336.4,150.4,336.4,150.1,336.4z
	 M376.4,249.5c-20.4,0-37,16.5-37,37s16.6,37,37,37s37-16.6,37-37C413.5,266.2,396.8,249.5,376.4,249.5z"/>
</svg>
