<?xml version="1.0" encoding="iso-8859-1"?>
<!-- Generator: Adobe Illustrator 19.0.0, SVG Export Plug-In . SVG Version: 6.00 Build 0)  -->
<svg version="1.1" id="Layer_1" xmlns="http://www.w3.org/2000/svg" xmlns:xlink="http://www.w3.org/1999/xlink" x="0px" y="0px"
	 viewBox="-49 141 512 512" style="enable-background:new -49 141 512 512;" xml:space="preserve">
<path d="M448.178,602.822L316.426,471.071c26.355-33.88,42.074-76.422,42.074-122.571c0-110.28-89.72-200-200-200
	s-200,89.72-200,200s89.72,200,200,200c46.149,0,88.691-15.719,122.571-42.074l131.751,131.751
	c4.882,4.882,11.28,7.323,17.678,7.323s12.796-2.441,17.678-7.322C457.94,628.415,457.94,612.585,448.178,602.822z M8.5,348.5
	c0-82.71,67.29-150,150-150s150,67.29,150,150s-67.29,150-150,150S8.5,431.21,8.5,348.5z"/>
</svg>
