<?xml version="1.0" encoding="iso-8859-1"?>
<!-- Generator: Adobe Illustrator 19.0.0, SVG Export Plug-In . SVG Version: 6.00 Build 0)  -->
<svg version="1.1" id="Layer_1" xmlns="http://www.w3.org/2000/svg" xmlns:xlink="http://www.w3.org/1999/xlink" x="0px" y="0px"
	 viewBox="-49 141 512 512" style="enable-background:new -49 141 512 512;" xml:space="preserve">
<g>
	<g>
		<path d="M207,648c-4.164,0-8.328-1.039-12.09-3.117l-57.062-31.525C53.438,566.721,1,477.841,1,381.403V221
			c0-11.243,7.506-21.104,18.344-24.098l181-50c4.355-1.203,8.957-1.203,13.313,0l181,50C405.494,199.896,413,209.757,413,221
			v160.403c0,96.438-52.438,185.317-136.849,231.954l-57.062,31.525C215.328,646.961,211.164,648,207,648z M51,240.03v141.373
			c0,78.242,42.544,150.352,111.028,188.188L207,594.438l44.972-24.847C320.456,531.755,363,459.646,363,381.403V240.03l-156-43.093
			L51,240.03z"/>
	</g>
	<g>
		<path d="M323,381.403c0,63.686-34.629,122.38-90.371,153.177L207,548.739V238.435l116,32.044V381.403z"/>
	</g>
</g>
</svg>
