<svg xmlns="http://www.w3.org/2000/svg" viewBox="-49 141 512 512"><path d="M207 648a24.991 24.991 0 0 1-12.09-3.117l-57.062-31.525C53.438 566.721 1 477.841 1 381.403V221a25.001 25.001 0 0 1 18.344-24.098l181-50a25.006 25.006 0 0 1 13.313 0l181 50A25.002 25.002 0 0 1 413 221v160.403c0 96.438-52.438 185.317-136.849 231.954l-57.062 31.525A24.974 24.974 0 0 1 207 648zM51 240.03v141.373c0 78.242 42.544 150.352 111.028 188.188L207 594.438l44.972-24.847C320.456 531.755 363 459.646 363 381.403V240.03l-156-43.093L51 240.03z"/><path d="M323 381.403c0 63.686-34.629 122.38-90.371 153.177L207 548.739V238.435l116 32.044v110.924z"/></svg>