<?xml version="1.0" encoding="iso-8859-1"?>
<!-- Generator: Adobe Illustrator 19.0.0, SVG Export Plug-In . SVG Version: 6.00 Build 0)  -->
<svg version="1.1" id="Layer_1" xmlns="http://www.w3.org/2000/svg" xmlns:xlink="http://www.w3.org/1999/xlink" x="0px" y="0px"
	 viewBox="0 0 502 502" style="enable-background:new 0 0 502 502;" xml:space="preserve">
<g>
	<g>
		<path d="M251,502c-4.164,0-8.328-1.039-12.09-3.117l-57.062-31.525C97.438,420.721,45,331.841,45,235.403V75
			c0-11.243,7.506-21.104,18.344-24.098l181-50c4.355-1.203,8.957-1.203,13.313,0l181,50C449.494,53.896,457,63.757,457,75v160.403
			c0,96.438-52.438,185.317-136.849,231.954l-57.062,31.525C259.328,500.961,255.164,502,251,502z M95,94.03v141.373
			c0,78.242,42.544,150.352,111.028,188.188L251,448.438l44.972-24.847C364.456,385.755,407,313.646,407,235.403V94.03L251,50.937
			L95,94.03z"/>
	</g>
	<g>
		<path d="M367,235.403c0,63.686-34.629,122.38-90.371,153.177L251,402.739V92.435l116,32.044V235.403z"/>
	</g>
</g>
<g>
</g>
<g>
</g>
<g>
</g>
<g>
</g>
<g>
</g>
<g>
</g>
<g>
</g>
<g>
</g>
<g>
</g>
<g>
</g>
<g>
</g>
<g>
</g>
<g>
</g>
<g>
</g>
<g>
</g>
</svg>
