<?xml version="1.0" encoding="iso-8859-1"?>
<!-- Generator: Adobe Illustrator 19.0.0, SVG Export Plug-In . SVG Version: 6.00 Build 0)  -->
<svg version="1.1" id="Layer_1" xmlns="http://www.w3.org/2000/svg" xmlns:xlink="http://www.w3.org/1999/xlink" x="0px" y="0px"
	 viewBox="0 0 512 512" style="enable-background:new 0 0 512 512;" xml:space="preserve">
<g>
	<g>
		<path d="M256,362c-58.448,0-106-47.551-106-106s47.552-106,106-106s106,47.551,106,106S314.448,362,256,362z M256,200
			c-30.879,0-56,25.122-56,56s25.121,56,56,56s56-25.122,56-56S286.879,200,256,200z"/>
	</g>
	<path d="M459.669,286.992C461.219,276.753,462,266.385,462,256s-0.781-20.753-2.331-30.992
		c31.77-19.008,40.581-58.133,23.033-88.348l-10-17.32c-17.779-30.793-57.123-41.541-88.05-24.213
		C368.42,82.147,350.279,71.658,330.994,64.1C330.512,28.67,301.541,0,266,0h-20c-35.541,0-64.512,28.67-64.994,64.1
		c-19.285,7.558-37.426,18.048-53.658,31.027c-30.927-17.328-70.271-6.58-88.05,24.213l-10,17.32
		C11.75,166.875,20.561,206,52.331,225.008C50.781,235.247,50,245.615,50,256s0.781,20.753,2.331,30.992
		c-30.454,18.128-40.808,57.563-23.033,88.348l10,17.32c17.779,30.794,57.123,41.542,88.05,24.213
		c16.232,12.979,34.373,23.469,53.658,31.027C181.488,483.33,210.459,512,246,512h20c35.541,0,64.512-28.67,64.994-64.099
		c19.285-7.559,37.426-18.048,53.658-31.027c30.927,17.329,70.271,6.581,88.05-24.213l10-17.32
		C500.477,344.555,490.123,305.12,459.669,286.992z M439.401,350.34l-10,17.32c-4.136,7.163-13.329,9.626-20.49,5.49l-14.769-8.526
		c-9.657-5.575-21.835-4.081-29.857,3.658c-18.329,17.682-40.867,30.714-65.178,37.687C288.387,409.044,281,418.847,281,430v17
		c0,8.271-6.729,15-15,15h-20c-8.271,0-15-6.729-15-15v-17c0-11.153-7.387-20.956-18.107-24.031
		c-24.311-6.973-46.849-20.004-65.178-37.687c-8.022-7.739-20.2-9.233-29.857-3.658l-14.769,8.526
		c-7.161,4.136-16.354,1.672-20.49-5.49l-10-17.32c-4.136-7.163-1.673-16.355,5.49-20.491l-0.001,0l14.733-8.506
		c9.648-5.57,14.447-16.852,11.767-27.666C101.544,281.396,100,268.72,100,256s1.544-25.396,4.588-37.677
		c2.681-10.813-2.117-22.096-11.766-27.666l-14.733-8.506c-7.714-4.65-8.964-13.9-5.49-20.49l10-17.32
		c4.136-7.163,13.328-9.624,20.49-5.49l14.769,8.526c9.655,5.573,21.832,4.083,29.856-3.658
		c18.33-17.682,40.868-30.714,65.179-37.687C223.613,102.956,231,93.152,231,82V65c0-8.271,6.729-15,15-15h20
		c8.271,0,15,6.729,15,15v17c0,11.152,7.387,20.956,18.107,24.031c24.311,6.973,46.849,20.005,65.179,37.687
		c8.024,7.741,20.201,9.231,29.856,3.658l14.769-8.526c7.162-4.134,16.354-1.673,20.49,5.49l10,17.32
		c3.474,6.59,2.224,15.84-5.49,20.49l-14.733,8.506c-9.648,5.57-14.446,16.853-11.766,27.666C410.456,230.604,412,243.28,412,256
		s-1.544,25.396-4.588,37.678c-2.681,10.813,2.118,22.095,11.767,27.666l14.733,8.506l-0.001,0
		C441.074,333.985,443.537,343.177,439.401,350.34z"/>
</g>
<g>
</g>
<g>
</g>
<g>
</g>
<g>
</g>
<g>
</g>
<g>
</g>
<g>
</g>
<g>
</g>
<g>
</g>
<g>
</g>
<g>
</g>
<g>
</g>
<g>
</g>
<g>
</g>
<g>
</g>
</svg>
