<svg xmlns="http://www.w3.org/2000/svg" viewBox="-49 141 512 512"><path d="M358 463c-27.186 0-51.738 11.481-69.071 29.847l-140.285-74.788A94.99 94.99 0 0 0 151 397c0-7.243-.818-14.298-2.361-21.081l140.285-74.772C306.257 319.516 330.811 331 358 331c52.383 0 95-42.617 95-95s-42.617-95-95-95-95 42.617-95 95c0 7.232.816 14.277 2.354 21.051L125.056 331.83C107.724 313.475 83.178 302 56 302c-52.383 0-95 42.617-95 95s42.617 95 95 95c27.186 0 51.738-11.481 69.071-29.847l140.285 74.788A94.99 94.99 0 0 0 263 558c0 52.383 42.617 95 95 95s95-42.617 95-95-42.617-95-95-95zm0-272c24.813 0 45 20.187 45 45s-20.187 45-45 45-45-20.187-45-45 20.187-45 45-45zM56 442c-24.813 0-45-20.187-45-45s20.187-45 45-45 45 20.187 45 45-20.187 45-45 45zm302 161c-24.813 0-45-20.187-45-45s20.187-45 45-45 45 20.187 45 45-20.187 45-45 45z"/></svg>