<?xml version="1.0" encoding="iso-8859-1"?>
<!-- Generator: Adobe Illustrator 19.0.0, SVG Export Plug-In . SVG Version: 6.00 Build 0)  -->
<svg version="1.1" id="Layer_1" xmlns="http://www.w3.org/2000/svg" xmlns:xlink="http://www.w3.org/1999/xlink" x="0px" y="0px"
	 viewBox="-49 141 512 512" style="enable-background:new -49 141 512 512;" xml:space="preserve">
<path d="M358,463c-27.186,0-51.738,11.481-69.071,29.847l-140.285-74.788C150.183,411.283,151,404.235,151,397
	c0-7.243-0.818-14.298-2.361-21.081l140.285-74.772C306.257,319.516,330.811,331,358,331c52.383,0,95-42.617,95-95s-42.617-95-95-95
	s-95,42.617-95,95c0,7.232,0.816,14.277,2.354,21.051L125.056,331.83C107.724,313.475,83.178,302,56,302c-52.383,0-95,42.617-95,95
	s42.617,95,95,95c27.186,0,51.738-11.481,69.071-29.847l140.285,74.788C263.817,543.717,263,550.765,263,558
	c0,52.383,42.617,95,95,95s95-42.617,95-95S410.383,463,358,463z M358,191c24.813,0,45,20.187,45,45s-20.187,45-45,45
	s-45-20.187-45-45S333.187,191,358,191z M56,442c-24.813,0-45-20.187-45-45s20.187-45,45-45s45,20.187,45,45S80.813,442,56,442z
	 M358,603c-24.813,0-45-20.187-45-45s20.187-45,45-45s45,20.187,45,45S382.813,603,358,603z"/>
</svg>
