<?xml version="1.0" encoding="iso-8859-1"?>
<!-- Generator: Adobe Illustrator 19.0.0, SVG Export Plug-In . SVG Version: 6.00 Build 0)  -->
<svg version="1.1" id="Layer_1" xmlns="http://www.w3.org/2000/svg" xmlns:xlink="http://www.w3.org/1999/xlink" x="0px" y="0px"
	 viewBox="0 0 512 512" style="enable-background:new 0 0 512 512;" xml:space="preserve">
<path d="M407,322c-27.186,0-51.738,11.481-69.071,29.847l-140.285-74.788C199.183,270.283,200,263.235,200,256
	c0-7.243-0.818-14.298-2.361-21.081l140.285-74.772C355.257,178.516,379.811,190,407,190c52.383,0,95-42.617,95-95S459.383,0,407,0
	s-95,42.617-95,95c0,7.232,0.816,14.277,2.354,21.051L174.056,190.83C156.724,172.475,132.178,161,105,161
	c-52.383,0-95,42.617-95,95s42.617,95,95,95c27.186,0,51.738-11.481,69.071-29.847l140.285,74.788
	C312.817,402.717,312,409.765,312,417c0,52.383,42.617,95,95,95s95-42.617,95-95S459.383,322,407,322z M407,50
	c24.813,0,45,20.187,45,45s-20.187,45-45,45s-45-20.187-45-45S382.187,50,407,50z M105,301c-24.813,0-45-20.187-45-45
	s20.187-45,45-45s45,20.187,45,45S129.813,301,105,301z M407,462c-24.813,0-45-20.187-45-45s20.187-45,45-45s45,20.187,45,45
	S431.813,462,407,462z"/>
<g>
</g>
<g>
</g>
<g>
</g>
<g>
</g>
<g>
</g>
<g>
</g>
<g>
</g>
<g>
</g>
<g>
</g>
<g>
</g>
<g>
</g>
<g>
</g>
<g>
</g>
<g>
</g>
<g>
</g>
</svg>
