<?xml version="1.0" encoding="utf-8"?>
<!-- Generator: Adobe Illustrator 26.2.1, SVG Export Plug-In . SVG Version: 6.00 Build 0)  -->
<svg version="1.1" id="Capa_1" xmlns="http://www.w3.org/2000/svg" xmlns:xlink="http://www.w3.org/1999/xlink" x="0px" y="0px"
	 viewBox="0 0 512 512" style="enable-background:new 0 0 512 512;" xml:space="preserve">
<g>
	<g>
		<path d="M236.3,328c-6.4,0-12.8-2.4-17.6-7.3l-62.3-62c-9.8-9.7-9.8-25.6-0.1-35.4c9.7-9.8,25.6-9.8,35.4-0.1l44.8,44.6l86.1-84.7
			c9.8-9.7,25.7-9.6,35.4,0.3c9.7,9.8,9.6,25.7-0.3,35.4l-103.7,102C249,325.6,242.6,328,236.3,328z"/>
	</g>
	<g>
		<path d="M256,507c-4.2,0-8.3-1-12.1-3.1l-57.1-31.5C102.4,425.8,50,336.9,50,240.4V80c0-11.2,7.5-21.1,18.3-24.1l181-50
			c4.4-1.2,9-1.2,13.3,0l181,50c10.8,3,18.3,12.9,18.3,24.1v160.4c0,96.4-52.4,185.3-136.8,232l-57.1,31.5
			C264.3,506,260.2,507,256,507z M100,99.1v141.4c0,78.2,42.5,150.4,111,188.2l45,24.8l45-24.8c68.5-37.8,111-109.9,111-188.2V99.1
			L256,56L100,99.1z"/>
	</g>
</g>
</svg>
