<?xml version="1.0" encoding="iso-8859-1"?>
<!-- Generator: Adobe Illustrator 19.0.0, SVG Export Plug-In . SVG Version: 6.00 Build 0)  -->
<svg version="1.1" id="Layer_1" xmlns="http://www.w3.org/2000/svg" xmlns:xlink="http://www.w3.org/1999/xlink" x="0px" y="0px"
	 viewBox="0 0 511.998 511.998" style="enable-background:new 0 0 511.998 511.998;" xml:space="preserve">
<g>
	<path d="M497.222,48.752c-12.394-15.095-30.704-23.752-50.235-23.752H25c-13.807,0-25,11.193-25,25s11.193,25,25,25h25v277
		c0,35.841,29.159,65,65,65h322c13.807,0,25-11.193,25-25s-11.193-25-25-25H115c-8.271,0-15-6.729-15-15v-25h312.859
		c30.925,0,57.739-22.016,63.757-52.35l34.127-172C514.545,83.492,509.617,63.847,497.222,48.752z M461.7,92.918l-34.127,172
		c-1.389,7-7.577,12.081-14.713,12.081H100v-202h346.987c6.171,0,9.912,3.434,11.593,5.481
		C460.26,82.528,462.901,86.866,461.7,92.918z"/>
	<path d="M146,426.999c-16.542,0-30,13.458-30,30s13.458,30,30,30s30-13.458,30-30S162.542,426.999,146,426.999z"/>
	<path d="M366,426.999c-16.542,0-30,13.458-30,30s13.458,30,30,30s30-13.458,30-30S382.542,426.999,366,426.999z"/>
</g>
<g>
</g>
<g>
</g>
<g>
</g>
<g>
</g>
<g>
</g>
<g>
</g>
<g>
</g>
<g>
</g>
<g>
</g>
<g>
</g>
<g>
</g>
<g>
</g>
<g>
</g>
<g>
</g>
<g>
</g>
</svg>
