<svg xmlns="http://www.w3.org/2000/svg" viewBox="-49 141 512 512"><path d="M448.223 189.752C435.829 174.657 417.519 166 397.988 166H-23.999c-13.807 0-25 11.193-25 25s11.193 25 25 25h25v277c0 35.841 29.159 65 65 65h322c13.807 0 25-11.193 25-25s-11.193-25-25-25h-322c-8.271 0-15-6.729-15-15v-25H363.86c30.925 0 57.739-22.016 63.757-52.35l34.127-172c3.802-19.158-1.126-38.803-13.521-53.898zm-35.522 44.167l-34.127 172c-1.389 7-7.577 12.081-14.713 12.081H51.001V216h346.987c6.171 0 9.912 3.434 11.593 5.481 1.68 2.047 4.321 6.385 3.12 12.438zM97.001 568c-16.542 0-30 13.458-30 30s13.458 30 30 30 30-13.458 30-30-13.458-30-30-30zm220 0c-16.542 0-30 13.458-30 30s13.458 30 30 30 30-13.458 30-30-13.458-30-30-30z"/></svg>