<?xml version="1.0" encoding="iso-8859-1"?>
<!-- Generator: Adobe Illustrator 19.0.0, SVG Export Plug-In . SVG Version: 6.00 Build 0)  -->
<svg version="1.1" id="Layer_1" xmlns="http://www.w3.org/2000/svg" xmlns:xlink="http://www.w3.org/1999/xlink" x="0px" y="0px"
	 viewBox="-49 141 512 512" style="enable-background:new -49 141 512 512;" xml:space="preserve">
<g>
	<path d="M448.223,189.752C435.829,174.657,417.519,166,397.988,166H-23.999c-13.807,0-25,11.193-25,25s11.193,25,25,25h25v277
		c0,35.841,29.159,65,65,65h322c13.807,0,25-11.193,25-25s-11.193-25-25-25h-322c-8.271,0-15-6.729-15-15v-25H363.86
		c30.925,0,57.739-22.016,63.757-52.35l34.127-172C465.546,224.492,460.618,204.847,448.223,189.752z M412.701,233.919l-34.127,172
		c-1.389,7-7.577,12.081-14.713,12.081H51.001V216h346.987c6.171,0,9.912,3.434,11.593,5.481
		C411.261,223.528,413.902,227.866,412.701,233.919z"/>
	<path d="M97.001,568c-16.542,0-30,13.458-30,30s13.458,30,30,30s30-13.458,30-30S113.543,568,97.001,568z"/>
	<path d="M317.001,568c-16.542,0-30,13.458-30,30s13.458,30,30,30s30-13.458,30-30S333.543,568,317.001,568z"/>
</g>
</svg>
