<?xml version="1.0" encoding="iso-8859-1"?>
<!-- Generator: Adobe Illustrator 19.0.0, SVG Export Plug-In . SVG Version: 6.00 Build 0)  -->
<svg version="1.1" id="Layer_1" xmlns="http://www.w3.org/2000/svg" xmlns:xlink="http://www.w3.org/1999/xlink" x="0px" y="0px"
	 viewBox="0 0 412 412" style="enable-background:new 0 0 412 412;" xml:space="preserve">
<g>
	<path d="M354.678,233.274c-9.764-9.763-25.592-9.763-35.355,0c-9.763,9.763-9.763,25.592,0,35.355l7.318,7.318
		c-36.998-0.1-63.125-15.502-85.85-38.578c-3.838,5.195-23.538,32.538-29.723,40.758c28.896,27.469,64.963,47.727,115.582,47.821
		l-7.327,7.327c-9.763,9.763-9.763,25.592,0,35.355c9.063,9.063,24.668,10.688,35.355,0l50-50c9.763-9.763,9.763-25.592,0-35.355
		L354.678,233.274z"/>
	<path d="M326.641,135.956l-7.318,7.318c-9.763,9.763-9.763,25.592,0,35.355c9.833,9.833,25.189,10.167,35.355,0l50-50
		c9.763-9.763,9.763-25.592,0-35.355l-50-50c-9.764-9.763-25.592-9.763-35.355,0c-9.763,9.763-9.763,25.592,0,35.355l7.326,7.326
		c-67.914,0.126-109.633,36.549-142.983,77.985C147.525,114.919,103.926,65.952,25,65.952c-13.807,0-25,11.193-25,25
		s11.193,25,25,25c60.784,0,92.265,41.22,127.397,90c-35.131,48.78-66.613,90-127.397,90c-13.807,0-25,11.193-25,25s11.193,25,25,25
		c88.316,0,132.401-61.311,171.297-115.405C232.725,179.886,264.197,136.124,326.641,135.956z"/>
</g>
<g>
</g>
<g>
</g>
<g>
</g>
<g>
</g>
<g>
</g>
<g>
</g>
<g>
</g>
<g>
</g>
<g>
</g>
<g>
</g>
<g>
</g>
<g>
</g>
<g>
</g>
<g>
</g>
<g>
</g>
</svg>
