<svg xmlns="http://www.w3.org/2000/svg" viewBox="-49 141 512 512"><path d="M355.678 424.274c-9.764-9.763-25.592-9.763-35.355 0s-9.763 25.592 0 35.355l7.318 7.318c-36.998-.1-63.125-15.502-85.85-38.578-3.838 5.195-23.538 32.539-29.723 40.758 28.896 27.469 64.963 47.727 115.582 47.821l-7.327 7.327c-9.763 9.763-9.763 25.592 0 35.355 9.063 9.063 24.668 10.688 35.355 0l50-50c9.763-9.763 9.763-25.592 0-35.355l-50-50.001z"/><path d="M327.641 326.956l-7.318 7.318c-9.763 9.763-9.763 25.592 0 35.355 9.833 9.833 25.189 10.167 35.355 0l50-50c9.763-9.763 9.763-25.592 0-35.355l-50-50c-9.764-9.763-25.592-9.763-35.355 0s-9.763 25.592 0 35.355l7.326 7.326c-67.914.126-109.633 36.549-142.983 77.985-36.141-49.021-79.74-97.988-158.666-97.988-13.807 0-25 11.193-25 25s11.193 25 25 25c60.784 0 92.265 41.22 127.397 90-35.132 48.78-66.613 90-127.397 90-13.807 0-25 11.193-25 25s11.193 25 25 25c88.316 0 132.401-61.311 171.297-115.405 36.428-50.661 67.9-94.423 130.344-94.591z"/></svg>