<svg viewBox="0 0 41 41" xmlns="http://www.w3.org/2000/svg">
<path fill-rule="evenodd" clip-rule="evenodd" d="M38.3985 4.19911L13.365 0.0691528H13.0936C12.2795 0.0691528 11.6011 0.678491 11.6011 1.55865V3.52207L34.3959 7.2458C36.0241 7.51662 37.2452 8.93841 37.2452 10.631V30.1975L39.1448 30.5361H39.4162C40.2303 30.5361 40.9087 29.9267 40.9087 29.0466V7.11039C40.8408 5.6209 39.8232 4.40222 38.3985 4.19911ZM32.6998 9.34462L7.59836 5.21466H7.32699C6.51289 5.21466 5.83447 5.824 5.83447 6.70415V8.73528L28.4258 12.459C30.054 12.7298 31.2751 14.1516 31.2751 15.8442V35.4785L33.1747 35.817H33.446C34.2601 35.817 34.9386 35.2076 34.9386 34.3275V11.9851C34.9386 10.6987 33.9888 9.54773 32.6998 9.34462ZM1.76388 10.1571L26.7975 14.2871C28.1543 14.5579 29.1041 15.7089 29.1719 17.0629V39.2022C29.1719 40.0824 28.4935 40.6917 27.6794 40.6917H27.408L1.76388 36.4264C0.746259 36.2909 0 35.4108 0 34.3952V11.6466C0 10.7664 0.678417 10.1571 1.49252 10.1571H1.76388ZM10.3798 30.2653C10.719 30.6038 11.3296 30.4007 11.3296 29.9267V20.8544C11.3296 20.3127 10.7868 19.9742 10.3798 20.1773L4.27403 23.698C3.93482 23.8334 3.93482 24.375 4.27403 24.6458L10.3798 30.2653ZM18.0459 31.5516L24.1516 27.8956C24.4909 27.6925 24.4909 27.2186 24.1516 26.8801L18.0459 21.396C17.6388 21.0575 17.0961 21.2606 17.0961 21.7345V30.8746C17.0961 31.4162 17.6388 31.8225 18.0459 31.5516Z"/>
</svg>
