<?xml version="1.0" encoding="utf-8"?>
<!-- Generator: Adobe Illustrator 24.0.1, SVG Export Plug-In . SVG Version: 6.00 Build 0)  -->
<svg version="1.1" id="Capa_1" xmlns="http://www.w3.org/2000/svg" xmlns:xlink="http://www.w3.org/1999/xlink" x="0px" y="0px"
	 viewBox="0 0 512 512" style="enable-background:new 0 0 512 512;" xml:space="preserve">
<g>
	<path d="M437,25H75c-35.8,0-65,29.2-65,65v257c0,35.8,29.2,65,65,65h35v50c0,9.1,4.9,17.4,12.8,21.8c3.8,2.1,8,3.2,12.2,3.2
		c4.6,0,9.1-1.3,13.2-3.8L263.1,412H437c35.8,0,65-29.2,65-65V90C502,54.2,472.8,25,437,25z M452,347c0,8.3-6.7,15-15,15H256
		c-4.7,0-9.2,1.3-13.2,3.8L160,417.1V387c0-13.8-11.2-25-25-25H75c-8.3,0-15-6.7-15-15V90c0-8.3,6.7-15,15-15h362
		c8.3,0,15,6.7,15,15V347z"/>
	<path d="M320.6,193.5c0.1,0,0.1,0,0.2,0c10.8,0,20.4-5.5,25.8-14.7c5.5-9.5,5.5-21.2,0-30.6c-5.4-9.2-15-14.7-25.8-14.7
		c-0.1,0-0.1,0-0.2,0c-10.8,0-20.4,5.5-25.8,14.7c-5.5,9.5-5.5,21.2,0,30.6C300.2,188,309.9,193.5,320.6,193.5z"/>
	<path d="M191.6,193.5c0.1,0,0.1,0,0.2,0c10.8,0,20.4-5.5,25.8-14.7c5.5-9.5,5.5-21.2,0-30.6c-5.4-9.2-15-14.7-25.8-14.7
		c-0.1,0-0.1,0-0.2,0c-10.8,0-20.4,5.5-25.8,14.7c-5.5,9.5-5.5,21.2,0,30.6C171.2,188,180.9,193.5,191.6,193.5z"/>
	<path d="M343.1,230.3c-47.5,44.6-123,44.3-175.6-0.8c-10.5-9-26.3-7.8-35.3,2.7c-9,10.5-7.8,26.3,2.7,35.3
		c34.6,29.7,78.2,46,122.7,46c0.2,0,0.5,0,0.7,0c44.8-0.2,87.1-16.8,119-46.7c10.1-9.5,10.6-25.3,1.1-35.3
		C369,221.3,353.2,220.9,343.1,230.3z"/>
</g>
</svg>
