<svg xmlns="http://www.w3.org/2000/svg" viewBox="-49 141 512 512"><path d="M127.073 166h-96c-30.327 0-55 24.673-55 55v96c0 30.327 24.673 55 55 55h96c30.327 0 55-24.673 55-55v-96c0-30.327-24.673-55-55-55zm5 151c0 2.757-2.243 5-5 5h-96c-2.757 0-5-2.243-5-5v-96c0-2.757 2.243-5 5-5h96c2.757 0 5 2.243 5 5v96zm-5 105h-96c-30.327 0-55 24.673-55 55v96c0 30.327 24.673 55 55 55h96c30.327 0 55-24.673 55-55v-96c0-30.327-24.673-55-55-55zm5 151c0 2.757-2.243 5-5 5h-96c-2.757 0-5-2.243-5-5v-96c0-2.757 2.243-5 5-5h96c2.757 0 5 2.243 5 5v96zm263.175-72.53l-42.175 42.175V251.356l42.175 42.175c4.882 4.882 11.279 7.322 17.678 7.322s12.796-2.44 17.678-7.322c9.763-9.763 9.763-25.593 0-35.355l-84.853-84.853c-9.764-9.764-25.592-9.764-35.355 0l-84.853 84.852c-9.763 9.763-9.763 25.593 0 35.355 9.764 9.764 25.592 9.764 35.355 0l42.175-42.174v291.289l-42.175-42.175c-9.764-9.764-25.592-9.764-35.355 0-9.763 9.763-9.763 25.593 0 35.355l84.853 84.853c4.881 4.882 11.279 7.322 17.677 7.322s12.796-2.44 17.678-7.322l84.853-84.853c9.763-9.763 9.763-25.593 0-35.355-9.764-9.763-25.593-9.763-35.356 0z"/></svg>