<?xml version="1.0" encoding="iso-8859-1"?>
<!-- Generator: Adobe Illustrator 19.0.0, SVG Export Plug-In . SVG Version: 6.00 Build 0)  -->
<svg version="1.1" id="Layer_1" xmlns="http://www.w3.org/2000/svg" xmlns:xlink="http://www.w3.org/1999/xlink" x="0px" y="0px"
	 viewBox="0 0 462 462" style="enable-background:new 0 0 462 462;" xml:space="preserve">
<g>
	<path d="M151.074,0h-96c-30.327,0-55,24.673-55,55v96c0,30.327,24.673,55,55,55h96c30.327,0,55-24.673,55-55V55
		C206.074,24.673,181.401,0,151.074,0z M156.074,151c0,2.757-2.243,5-5,5h-96c-2.757,0-5-2.243-5-5V55c0-2.757,2.243-5,5-5h96
		c2.757,0,5,2.243,5,5V151z"/>
	<path d="M151.074,256h-96c-30.327,0-55,24.673-55,55v96c0,30.327,24.673,55,55,55h96c30.327,0,55-24.673,55-55v-96
		C206.074,280.673,181.401,256,151.074,256z M156.074,407c0,2.757-2.243,5-5,5h-96c-2.757,0-5-2.243-5-5v-96c0-2.757,2.243-5,5-5h96
		c2.757,0,5,2.243,5,5V407z"/>
	<path d="M419.249,334.47l-42.175,42.175V85.356l42.175,42.175c4.882,4.882,11.279,7.322,17.678,7.322s12.796-2.44,17.678-7.322
		c9.763-9.763,9.763-25.593,0-35.355L369.752,7.323c-9.764-9.764-25.592-9.764-35.355,0l-84.853,84.853
		c-9.763,9.763-9.763,25.593,0,35.355c9.764,9.764,25.592,9.764,35.355,0l42.175-42.175v291.289l-42.175-42.175
		c-9.764-9.764-25.592-9.764-35.355,0c-9.763,9.763-9.763,25.593,0,35.355l84.853,84.853c4.882,4.882,11.279,7.322,17.678,7.322
		s12.796-2.44,17.678-7.322l84.853-84.853c9.763-9.763,9.763-25.593,0-35.355C444.841,324.707,429.013,324.707,419.249,334.47z"/>
</g>
<g>
</g>
<g>
</g>
<g>
</g>
<g>
</g>
<g>
</g>
<g>
</g>
<g>
</g>
<g>
</g>
<g>
</g>
<g>
</g>
<g>
</g>
<g>
</g>
<g>
</g>
<g>
</g>
<g>
</g>
</svg>
