<svg xmlns="http://www.w3.org/2000/svg" viewBox="0 0 512 512"><path d="M491.4 15.1c-6.6-4.7-15.1-5.9-22.8-3.1L163.7 120.5H75c-35.8 0-65 29.2-65 65v80c0 30.7 21.4 56.4 50 63.2v97.8c0 41.4 33.6 75 75 75s75-33.6 75-75V347l258.6 92.1c2.7 1 5.6 1.4 8.4 1.4 5.1 0 10.1-1.6 14.4-4.6 6.6-4.7 10.6-12.3 10.6-20.4v-380c0-8.1-3.9-15.7-10.6-20.4zM60 185.5c0-8.3 6.7-15 15-15h85v110H75c-8.3 0-15-6.7-15-15v-80zm75 266c-13.8 0-25-11.2-25-25v-96h50v96c0 13.8-11.2 25-25 25zm317-71.4L210 294V157.1L452 71v309.1z"/></svg>