<?xml version="1.0" encoding="utf-8"?>
<!-- Generator: Adobe Illustrator 22.0.1, SVG Export Plug-In . SVG Version: 6.00 Build 0)  -->
<svg version="1.1" id="Capa_1" xmlns="http://www.w3.org/2000/svg" xmlns:xlink="http://www.w3.org/1999/xlink" x="0px" y="0px"
	 viewBox="0 0 512 512" style="enable-background:new 0 0 512 512;" xml:space="preserve">
<g>
	<path d="M269.2,438.4c-100.6,0-182.4-81.8-182.4-182.4S168.6,73.6,269.2,73.6c61.1,0,117.9,30.4,151.8,81.3
		c7.7,11.5,4.6,27-6.9,34.7c-11.5,7.7-27,4.6-34.7-6.9c-24.6-37-65.9-59.1-110.2-59.1c-73,0-132.4,59.4-132.4,132.4
		s59.4,132.4,132.4,132.4c44.4,0,85.6-22.1,110.2-59.1c7.7-11.5,23.2-14.6,34.7-6.9c11.5,7.7,14.6,23.2,6.9,34.7
		C387.1,408,330.3,438.4,269.2,438.4z"/>
</g>
</svg>
