<?xml version="1.0" encoding="iso-8859-1"?>
<!-- Generator: Adobe Illustrator 19.0.0, SVG Export Plug-In . SVG Version: 6.00 Build 0)  -->
<svg version="1.1" id="Layer_1" xmlns="http://www.w3.org/2000/svg" xmlns:xlink="http://www.w3.org/1999/xlink" x="0px" y="0px"
	 viewBox="-49 141 512 512" style="enable-background:new -49 141 512 512;" xml:space="preserve">
<g>
	<path d="M162,191H56c-30.327,0-55,24.673-55,55v106c0,13.807,11.192,25,25,25h136c13.808,0,25-11.193,25-25V216
		C187,202.193,175.808,191,162,191z"/>
	<path d="M358,191H252c-13.808,0-25,11.193-25,25v136c0,13.807,11.192,25,25,25h136c13.808,0,25-11.193,25-25V246
		C413,215.673,388.327,191,358,191z"/>
	<path d="M388,417H252c-13.808,0-25,11.193-25,25v136c0,13.807,11.192,25,25,25h106c30.327,0,55-24.673,55-55V442
		C413,428.193,401.808,417,388,417z"/>
	<path d="M162,417H26c-13.808,0-25,11.193-25,25v106c0,30.327,24.673,55,55,55h106c13.808,0,25-11.193,25-25V442
		C187,428.193,175.808,417,162,417z"/>
</g>
</svg>
