<svg xmlns="http://www.w3.org/2000/svg" viewBox="-49 141 512 512"><path d="M162 191H56c-30.327 0-55 24.673-55 55v106c0 13.807 11.192 25 25 25h136c13.808 0 25-11.193 25-25V216c0-13.807-11.192-25-25-25zM358 191H252c-13.808 0-25 11.193-25 25v136c0 13.807 11.192 25 25 25h136c13.808 0 25-11.193 25-25V246c0-30.327-24.673-55-55-55zM388 417H252c-13.808 0-25 11.193-25 25v136c0 13.807 11.192 25 25 25h106c30.327 0 55-24.673 55-55V442c0-13.807-11.192-25-25-25zM162 417H26c-13.808 0-25 11.193-25 25v106c0 30.327 24.673 55 55 55h106c13.808 0 25-11.193 25-25V442c0-13.807-11.192-25-25-25z"/></svg>