<?xml version="1.0" encoding="utf-8"?>
<!-- Generator: Adobe Illustrator 24.0.1, SVG Export Plug-In . SVG Version: 6.00 Build 0)  -->
<svg version="1.1" id="Capa_1" xmlns="http://www.w3.org/2000/svg" xmlns:xlink="http://www.w3.org/1999/xlink" x="0px" y="0px"
	 viewBox="0 0 512 512" style="enable-background:new 0 0 512 512;" xml:space="preserve">
<style type="text/css">
	.st0{fill:#1D1D1B;}
</style>
<g>
	<g>
		<path class="st0" d="M359.6,502H152.4C73.9,502,10,438.1,10,359.6V152.4C10,73.9,73.9,10,152.4,10h207.2
			C438.1,10,502,73.9,502,152.4v207.2C502,438.1,438.1,502,359.6,502z M152.4,60c-51,0-92.4,41.5-92.4,92.4v207.2
			c0,51,41.5,92.4,92.4,92.4h207.2c51,0,92.4-41.5,92.4-92.4V152.4c0-51-41.5-92.4-92.4-92.4H152.4z"/>
	</g>
</g>
</svg>
