<svg xmlns="http://www.w3.org/2000/svg" width="512" height="512" fill="none"><g fill="#000" clip-path="url(#a)"><path d="m422.436 72.834-23.509-53.32c-11.47-26.019-48.39-26.019-59.859 0l-23.51 53.32a32.674 32.674 0 0 1-16.73 16.73l-53.319 23.509c-26.02 11.47-26.02 48.39 0 59.859l53.319 23.51a32.674 32.674 0 0 1 16.73 16.73l23.51 53.319c11.469 26.02 48.389 26.02 59.859 0l23.509-53.319a32.674 32.674 0 0 1 16.73-16.73l53.319-23.51c26.02-11.469 26.02-48.389 0-59.859l-53.319-23.51a32.674 32.674 0 0 1-16.73-16.73ZM116.091 203.102l15.78 35.79a21.936 21.936 0 0 0 11.229 11.23l35.79 15.779c17.47 7.7 17.47 32.49 0 40.19l-35.79 15.78a21.938 21.938 0 0 0-11.229 11.229l-15.78 35.79c-7.7 17.47-32.49 17.47-40.19 0l-15.78-35.79a21.94 21.94 0 0 0-11.23-11.229l-35.789-15.78c-17.47-7.7-17.47-32.49 0-40.19l35.79-15.779c5.02-2.21 9.02-6.22 11.23-11.23l15.78-35.79c7.7-17.469 32.489-17.469 40.189 0ZM306.488 364.68l12.99 29.47a18.071 18.071 0 0 0 9.25 9.249l29.469 12.99c14.38 6.34 14.38 26.75 0 33.09l-29.469 12.99a18.075 18.075 0 0 0-9.25 9.249l-12.99 29.47c-6.34 14.38-26.75 14.38-33.09 0l-12.989-29.47a18.075 18.075 0 0 0-9.25-9.249l-29.47-12.99c-14.38-6.34-14.38-26.75 0-33.09l29.47-12.99a18.071 18.071 0 0 0 9.25-9.249l12.989-29.47c6.34-14.38 26.75-14.38 33.09 0Z"/></g><defs><clipPath id="a"><path fill="#fff" d="M0 0h512v512H0z"/></clipPath></defs></svg>