<?xml version="1.0" encoding="iso-8859-1"?>
<!-- Generator: Adobe Illustrator 19.0.0, SVG Export Plug-In . SVG Version: 6.00 Build 0)  -->
<svg version="1.1" id="Layer_1" xmlns="http://www.w3.org/2000/svg" xmlns:xlink="http://www.w3.org/1999/xlink" x="0px" y="0px"
	 viewBox="-49 141 512 512" style="enable-background:new -49 141 512 512;" xml:space="preserve">
<g>
	<path d="M349.763,641.694c-3.979,0-7.973-0.949-11.631-2.872L207,569.882l-131.132,68.94c-8.424,4.429-18.631,3.69-26.328-1.903
		c-7.699-5.594-11.555-15.073-9.946-24.452l25.044-146.018L-41.45,363.039c-6.814-6.642-9.267-16.577-6.326-25.627
		c2.94-9.051,10.765-15.646,20.182-17.015l146.61-21.304l65.566-132.852c4.212-8.533,12.902-13.935,22.419-13.935
		c9.517,0,18.207,5.402,22.418,13.936l65.566,132.852l146.61,21.304c9.417,1.368,17.241,7.964,20.182,17.015
		c2.94,9.05,0.488,18.985-6.326,25.627L349.363,466.45l25.044,146.018c1.608,9.379-2.247,18.858-9.946,24.452
		C360.105,640.084,354.948,641.694,349.763,641.694z M207.001,516.638c3.996,0,7.992,0.957,11.634,2.872l97.929,51.484
		L297.86,461.948c-1.391-8.11,1.298-16.385,7.19-22.128l79.227-77.227l-109.488-15.909c-8.143-1.183-15.182-6.297-18.824-13.676
		l-48.964-99.213l-48.964,99.213c-3.643,7.379-10.682,12.493-18.824,13.676L29.724,362.593l79.227,77.227
		c5.893,5.743,8.581,14.018,7.19,22.128L97.438,570.994l97.929-51.484C199.008,517.595,203.005,516.638,207.001,516.638z"/>
</g>
</svg>
