<svg xmlns="http://www.w3.org/2000/svg" width="512" height="512"><path d="m420.043 256 57.659-99.868c5.01-8.676 5.01-19.456 0-28.132s-14.345-14.066-24.362-14.066h-21.612c-4.143 0-7.5 3.358-7.5 7.5s3.357 7.5 7.5 7.5h21.612a13.17 13.17 0 0 1 11.372 6.566 13.17 13.17 0 0 1 0 13.132L411.383 241l-15.163-26.263 27.88-48.289a7.499 7.499 0 0 0-6.495-11.25H215.122l15.163-26.264h166.046c4.143 0 7.5-3.358 7.5-7.5s-3.357-7.5-7.5-7.5H338.02l-57.659-99.868C275.354 5.39 266.019 0 256 0s-19.354 5.39-24.363 14.066l-57.659 99.868H58.66c-10.018 0-19.353 5.39-24.363 14.066-5.009 8.676-5.009 19.456 0 28.132L91.957 256l-57.659 99.868c-5.009 8.676-5.009 19.456 0 28.132 5.01 8.676 14.345 14.065 24.363 14.065h57.458a7.5 7.5 0 0 0 0-15H58.66a13.17 13.17 0 0 1-11.373-6.566 13.17 13.17 0 0 1 0-13.132L100.617 271l15.163 26.263-27.879 48.289a7.499 7.499 0 0 0 6.495 11.25h202.482l-15.163 26.264H151.513a7.5 7.5 0 0 0 0 15h22.465l57.659 99.868C236.646 506.61 245.981 512 256 512c10.02 0 19.354-5.39 24.362-14.066l57.659-99.868H453.34c10.018 0 19.353-5.39 24.362-14.066s5.01-19.456 0-28.132zm-32.484-56.263-17.055-29.539h34.109zm-148.613-85.803L256 84.396l17.054 29.539h-34.108zM47.288 135.5a13.17 13.17 0 0 1 11.373-6.566h106.657l-15.163 26.264H94.396a7.5 7.5 0 0 0-6.495 11.25l101.241 175.354h-30.327L47.288 148.632a13.17 13.17 0 0 1 0-13.132zm60.098 34.698h34.108l-17.054 29.539zm17.054 142.065 17.054 29.539h-34.109zm82.022 29.539L156.924 256l16.389-28.386a7.5 7.5 0 0 0-12.99-7.5L148.264 241 133.1 214.736 244.628 21.565C246.966 17.516 251.323 15 256 15s9.034 2.516 11.372 6.566l53.329 92.368h-30.327l-27.879-48.289a7.5 7.5 0 0 0-12.99 0l-71.479 123.807a7.5 7.5 0 0 0 12.99 7.5l15.447-26.754h99.076L355.076 256l-49.538 85.803h-99.076zm66.592 56.264L256 427.604l-17.054-29.539h34.108zm-5.682 92.369C265.034 494.484 260.677 497 256 497s-9.034-2.516-11.373-6.566l-53.329-92.368h30.327l27.88 48.289a7.5 7.5 0 0 0 12.99 0L363.736 271l15.164 26.264zm137.242-148.633h-34.109l17.054-29.539zm60.098 34.698a13.17 13.17 0 0 1-11.372 6.566H346.681l15.163-26.264h55.759a7.5 7.5 0 0 0 6.495-11.25l-101.24-175.354h30.326l111.527 193.17a13.168 13.168 0 0 1 .001 13.132z"/></svg>