<svg id="Capa_1" enable-background="new 0 0 512 512" height="512" viewBox="0 0 512 512" width="512" xmlns="http://www.w3.org/2000/svg"><path d="m420.043 256 57.659-99.868c5.01-8.676 5.01-19.456 0-28.132s-14.345-14.066-24.362-14.066h-21.612c-4.143 0-7.5 3.358-7.5 7.5s3.357 7.5 7.5 7.5h21.612c4.676 0 9.033 2.516 11.372 6.566 2.338 4.05 2.338 9.082 0 13.132l-53.329 92.368-15.163-26.263 27.88-48.289c1.34-2.32 1.34-5.18 0-7.5s-3.815-3.75-6.495-3.75h-202.483l15.163-26.264h166.046c4.143 0 7.5-3.358 7.5-7.5s-3.357-7.5-7.5-7.5h-58.311l-57.659-99.868c-5.007-8.676-14.342-14.066-24.361-14.066s-19.354 5.39-24.363 14.066l-57.659 99.868h-115.318c-10.018 0-19.353 5.39-24.363 14.066-5.009 8.676-5.009 19.456 0 28.132l57.66 99.868-57.659 99.868c-5.009 8.676-5.009 19.456 0 28.132 5.01 8.676 14.345 14.065 24.363 14.065h57.458c4.142 0 7.5-3.358 7.5-7.5s-3.358-7.5-7.5-7.5h-57.459c-4.676 0-9.034-2.516-11.373-6.566-2.338-4.05-2.338-9.082 0-13.132l53.33-92.367 15.163 26.263-27.879 48.289c-1.34 2.321-1.34 5.18 0 7.5s3.815 3.75 6.495 3.75h202.482l-15.163 26.264h-130.202c-4.142 0-7.5 3.358-7.5 7.5s3.358 7.5 7.5 7.5h22.465l57.659 99.868c5.009 8.676 14.344 14.066 24.363 14.066 10.02 0 19.354-5.39 24.362-14.066l57.659-99.868h115.319c10.018 0 19.353-5.39 24.362-14.066s5.01-19.456 0-28.132zm-32.484-56.263-17.055-29.539h34.109zm-148.613-85.803 17.054-29.538 17.054 29.539h-34.108zm-191.658 21.566c2.339-4.05 6.696-6.566 11.373-6.566h106.657l-15.163 26.264h-55.759c-2.68 0-5.155 1.43-6.495 3.75s-1.34 5.18 0 7.5l101.241 175.354h-30.327l-111.527-193.17c-2.338-4.05-2.338-9.082 0-13.132zm60.098 34.698h34.108l-17.054 29.539zm17.054 142.065 17.054 29.539h-34.109zm82.022 29.539-49.538-85.802 16.389-28.386c2.071-3.587.842-8.174-2.745-10.245-3.588-2.072-8.174-.842-10.245 2.745l-12.059 20.886-15.164-26.264 111.528-193.171c2.338-4.049 6.695-6.565 11.372-6.565s9.034 2.516 11.372 6.566l53.329 92.368h-30.327l-27.879-48.289c-1.34-2.32-3.815-3.75-6.495-3.75s-5.155 1.43-6.495 3.75l-71.479 123.807c-2.071 3.587-.842 8.174 2.745 10.245 1.181.682 2.471 1.006 3.743 1.006 2.592 0 5.113-1.346 6.502-3.751l15.447-26.754h99.076l49.537 85.802-49.538 85.803h-99.076zm66.592 56.264-17.054 29.538-17.054-29.539h34.108zm-5.682 92.369c-2.338 4.049-6.695 6.565-11.372 6.565s-9.034-2.516-11.373-6.566l-53.329-92.368h30.327l27.88 48.289c1.34 2.32 3.815 3.75 6.495 3.75s5.155-1.43 6.495-3.75l101.241-175.355 15.164 26.264zm137.242-148.633h-34.109l17.054-29.539zm60.098 34.698c-2.339 4.05-6.696 6.566-11.372 6.566h-106.659l15.163-26.264h55.759c2.68 0 5.155-1.43 6.495-3.75s1.34-5.18 0-7.5l-101.24-175.354h30.326l111.527 193.17c2.339 4.05 2.339 9.082.001 13.132z"/></svg>