<svg xmlns="http://www.w3.org/2000/svg" viewBox="-49 141 512 512"><path d="M349.763 641.694c-3.979 0-7.973-.949-11.631-2.872L207 569.882l-131.132 68.94a25 25 0 0 1-36.274-26.355l25.044-146.018-106.088-103.41a24.999 24.999 0 0 1 13.856-42.642l146.61-21.304 65.566-132.852a25 25 0 0 1 44.837.001l65.566 132.852 146.61 21.304a25 25 0 0 1 13.856 42.642L349.363 466.45l25.044 146.018a25.002 25.002 0 0 1-24.644 29.226zM207.001 516.638c3.996 0 7.992.957 11.634 2.872l97.929 51.484-18.704-109.046a25 25 0 0 1 7.19-22.128l79.227-77.227-109.488-15.909a25 25 0 0 1-18.824-13.676l-48.964-99.213-48.964 99.213a25.003 25.003 0 0 1-18.824 13.676L29.724 362.593l79.227 77.227a24.997 24.997 0 0 1 7.19 22.128L97.438 570.994l97.929-51.484a24.982 24.982 0 0 1 11.634-2.872z"/></svg>