<?xml version="1.0" encoding="utf-8"?>
<!-- Generator: Adobe Illustrator 21.0.0, SVG Export Plug-In . SVG Version: 6.00 Build 0)  -->
<svg version="1.1" id="Layer_1" xmlns="http://www.w3.org/2000/svg" xmlns:xlink="http://www.w3.org/1999/xlink" x="0px" y="0px"
	 viewBox="0 0 512 512" style="enable-background:new 0 0 512 512;" xml:space="preserve">
<g>
	<path d="M398.8,500.7c-4,0-8-0.9-11.6-2.9L256,428.9l-131.1,68.9c-8.4,4.4-18.6,3.7-26.3-1.9c-7.7-5.6-11.6-15.1-9.9-24.5l25-146
		L7.6,222c-6.8-6.6-9.3-16.6-6.3-25.6c2.9-9.1,10.8-15.6,20.2-17L168,158.1l65.6-132.9c4.2-8.5,12.9-13.9,22.4-13.9
		s18.2,5.4,22.4,13.9L344,158.1l146.6,21.3c9.4,1.4,17.2,8,20.2,17c2.9,9.1,0.5,19-6.3,25.6L398.4,325.5l25,146
		c1.6,9.4-2.2,18.9-9.9,24.5C409.1,499.1,403.9,500.7,398.8,500.7z"/>
</g>
</svg>
