<?xml version="1.0" encoding="utf-8"?>
<!-- Generator: Adobe Illustrator 24.0.1, SVG Export Plug-In . SVG Version: 6.00 Build 0)  -->
<svg version="1.1" id="Capa_1" xmlns="http://www.w3.org/2000/svg" xmlns:xlink="http://www.w3.org/1999/xlink" x="0px" y="0px"
	 viewBox="0 0 512 512" style="enable-background:new 0 0 512 512;" xml:space="preserve">
<style type="text/css">
	.st0{fill:#1D1D1B;}
</style>
<g>
	<g>
		<path class="st0" d="M270.2,141.6l19,38.7l42.6,6.1c13,1.9,18.2,17.8,8.8,27l-30.9,30l7.4,42.4c2.3,12.9-11.3,22.8-22.9,16.7
			L256,282.3l-38.1,20.1c-11.6,6.1-25.2-3.7-22.9-16.7l7.4-42.4l-30.9-30c-9.4-9.1-4.2-25.1,8.8-27l42.6-6.1l19-38.7
			C247.6,129.8,264.4,129.8,270.2,141.6z"/>
	</g>
	<g>
		<path class="st0" d="M135,487c-4.2,0-8.4-1-12.2-3.2c-7.9-4.4-12.8-12.8-12.8-21.8v-50H75c-35.8,0-65-29.2-65-65V90
			c0-35.8,29.2-65,65-65h362c35.8,0,65,29.2,65,65v257c0,35.8-29.2,65-65,65H263.1l-114.9,71.2C144.1,485.7,139.6,487,135,487z
			 M75,75c-8.3,0-15,6.7-15,15v257c0,8.3,6.7,15,15,15h60c13.8,0,25,11.2,25,25v30.1l82.8-51.3c4-2.5,8.5-3.8,13.2-3.8h181
			c8.3,0,15-6.7,15-15V90c0-8.3-6.7-15-15-15H75z"/>
	</g>
</g>
</svg>
