<svg xmlns="http://www.w3.org/2000/svg" viewBox="-49 141 512 512"><path d="M413 628H41c-35.841 0-65-29.159-65-65V191c0-13.807 11.193-25 25-25s25 11.193 25 25v372c0 8.271 6.729 15 15 15h372c13.807 0 25 11.193 25 25s-11.193 25-25 25z"/><path d="M91 538c-13.807 0-25-11.193-25-25V397c0-13.807 11.193-25 25-25s25 11.193 25 25v116c0 13.807-11.193 25-25 25zm90 0c-13.807 0-25-11.193-25-25V281c0-13.807 11.193-25 25-25s25 11.193 25 25v232c0 13.807-11.193 25-25 25zm90 0c-13.807 0-25-11.193-25-25V397c0-13.807 11.193-25 25-25s25 11.193 25 25v116c0 13.807-11.193 25-25 25zm90 0c-13.807 0-25-11.193-25-25V281c0-13.807 11.193-25 25-25s25 11.193 25 25v232c0 13.807-11.193 25-25 25z"/></svg>