<?xml version="1.0" encoding="iso-8859-1"?>
<!-- Generator: Adobe Illustrator 19.0.0, SVG Export Plug-In . SVG Version: 6.00 Build 0)  -->
<svg version="1.1" id="Layer_1" xmlns="http://www.w3.org/2000/svg" xmlns:xlink="http://www.w3.org/1999/xlink" x="0px" y="0px"
	 viewBox="0 0 462 462" style="enable-background:new 0 0 462 462;" xml:space="preserve">
<g>
	<g>
		<path d="M437,462H65c-35.841,0-65-29.159-65-65V25C0,11.193,11.193,0,25,0s25,11.193,25,25v372c0,8.271,6.729,15,15,15h372
			c13.807,0,25,11.193,25,25S450.807,462,437,462z"/>
	</g>
	<g>
		<path d="M115,372c-13.807,0-25-11.193-25-25V231c0-13.807,11.193-25,25-25s25,11.193,25,25v116C140,360.807,128.807,372,115,372z"
			/>
	</g>
	<g>
		<path d="M205,372c-13.807,0-25-11.193-25-25V115c0-13.807,11.193-25,25-25s25,11.193,25,25v232C230,360.807,218.807,372,205,372z"
			/>
	</g>
	<g>
		<path d="M295,372c-13.807,0-25-11.193-25-25V231c0-13.807,11.193-25,25-25s25,11.193,25,25v116C320,360.807,308.807,372,295,372z"
			/>
	</g>
	<g>
		<path d="M385,372c-13.807,0-25-11.193-25-25V115c0-13.807,11.193-25,25-25s25,11.193,25,25v232C410,360.807,398.807,372,385,372z"
			/>
	</g>
</g>
<g>
</g>
<g>
</g>
<g>
</g>
<g>
</g>
<g>
</g>
<g>
</g>
<g>
</g>
<g>
</g>
<g>
</g>
<g>
</g>
<g>
</g>
<g>
</g>
<g>
</g>
<g>
</g>
<g>
</g>
</svg>
