<?xml version="1.0" encoding="iso-8859-1"?>
<!-- Generator: Adobe Illustrator 19.0.0, SVG Export Plug-In . SVG Version: 6.00 Build 0)  -->
<svg version="1.1" id="Layer_1" xmlns="http://www.w3.org/2000/svg" xmlns:xlink="http://www.w3.org/1999/xlink" x="0px" y="0px"
	 viewBox="-49 141 512 512" style="enable-background:new -49 141 512 512;" xml:space="preserve">
<g>
	<g>
		<path d="M413,628H41c-35.841,0-65-29.159-65-65V191c0-13.807,11.193-25,25-25s25,11.193,25,25v372c0,8.271,6.729,15,15,15h372
			c13.807,0,25,11.193,25,25S426.807,628,413,628z"/>
	</g>
	<g>
		<path d="M91,538c-13.807,0-25-11.193-25-25V397c0-13.807,11.193-25,25-25s25,11.193,25,25v116C116,526.807,104.807,538,91,538z"/>
	</g>
	<g>
		<path d="M181,538c-13.807,0-25-11.193-25-25V281c0-13.807,11.193-25,25-25s25,11.193,25,25v232C206,526.807,194.807,538,181,538z"
			/>
	</g>
	<g>
		<path d="M271,538c-13.807,0-25-11.193-25-25V397c0-13.807,11.193-25,25-25s25,11.193,25,25v116C296,526.807,284.807,538,271,538z"
			/>
	</g>
	<g>
		<path d="M361,538c-13.807,0-25-11.193-25-25V281c0-13.807,11.193-25,25-25s25,11.193,25,25v232C386,526.807,374.807,538,361,538z"
			/>
	</g>
</g>
</svg>
