<?xml version="1.0" encoding="utf-8"?>
<!-- Generator: Adobe Illustrator 26.0.2, SVG Export Plug-In . SVG Version: 6.00 Build 0)  -->
<svg version="1.1" id="Capa_1" xmlns="http://www.w3.org/2000/svg" xmlns:xlink="http://www.w3.org/1999/xlink" x="0px" y="0px"
	 viewBox="0 0 512 512" style="enable-background:new 0 0 512 512;" xml:space="preserve">
<style type="text/css">
	.st0{display:none;}
</style>
<path d="M437.5,74.9c-48.4-48.4-112.6-75-181-75s-132.7,26.6-181,75c-48.4,48.4-75,112.6-75,181s26.6,132.7,75,181
	c48.4,48.4,112.6,75,181,75c6.6,0,13-2.6,17.7-7.3l231-231c4.7-4.7,7.3-11,7.3-17.7C512.5,187.5,485.9,123.2,437.5,74.9z
	 M50.5,255.9c0-113.6,92.4-206,206-206c95.7,0,176.4,65.6,199.4,154.2c-1.1-0.2-2.2-0.2-3.4-0.2c-67.6,0-131.1,26.3-178.9,74.1
	c-47.1,47.1-73.3,109.4-74.1,175.9C113.6,429.1,50.5,349.7,50.5,255.9z M249.4,458.6c0-0.6,0.1-1.1,0.1-1.7
	c0-111.9,91.1-203,203-203c0.6,0,1.1,0,1.7-0.1L249.4,458.6z"/>
</svg>
