<?xml version="1.0" encoding="utf-8"?>
<!-- Generator: Adobe Illustrator 24.0.1, SVG Export Plug-In . SVG Version: 6.00 Build 0)  -->
<svg version="1.1" id="Capa_1" xmlns="http://www.w3.org/2000/svg" xmlns:xlink="http://www.w3.org/1999/xlink" x="0px" y="0px"
	 viewBox="0 0 512 512" style="enable-background:new 0 0 512 512;" xml:space="preserve">
<g>
	<g>
		<path d="M474,268.1H39c-20.7,0-37.5-16.8-37.5-37.5s16.8-37.5,37.5-37.5h435c20.7,0,37.5,16.8,37.5,37.5S494.7,268.1,474,268.1z"
			/>
	</g>
	<g>
		<path d="M462,433.4H50c-27.6,0-50-22.4-50-50s22.4-50,50-50h412c27.6,0,50,22.4,50,50S489.6,433.4,462,433.4z"/>
	</g>
	<g>
		<path d="M486.3,128.6H26.5c-13.8,0-25-11.2-25-25s11.2-25,25-25h459.8c13.8,0,25,11.2,25,25S500.1,128.6,486.3,128.6z"/>
	</g>
</g>
</svg>
