<svg xmlns="http://www.w3.org/2000/svg" viewBox="0 0 360 360"><path d="M199.051 123.338c0-10.515-8.528-19.043-19.053-19.043s-19.053 8.528-19.053 19.043l-.093 114.807c-.604 43.495-35.664 78.662-79.163 79.304C36.765 318.112 0 280.51 0 235.582v-39.915a8.591 8.591 0 0 1 8.591-8.591h44.411a8.59 8.59 0 0 1 8.591 8.591v40.039c0 10.489 8.209 19.483 18.697 19.67 10.684.19 19.4-8.409 19.4-19.05v-116.23c1.546-43.084 36.851-77.553 80.308-77.553 43.618 0 79.006 34.722 80.308 78.032v19.034a8.592 8.592 0 0 1-6.133 8.232l-27.402 8.181a8.591 8.591 0 0 1-6.087-.445l-16.67-7.77a8.592 8.592 0 0 1-4.962-7.787l-.001-16.682zm99.351 72.796v41.88c0 10.494-8.221 19.49-18.714 19.664-10.681.177-19.379-8.429-19.379-19.052v-39.037c0-5.75-5.539-9.877-11.048-8.232l-22.49 6.713a8.591 8.591 0 0 1-6.087-.445l-9.408-4.385c-5.695-2.655-12.221 1.503-12.221 7.787v36.672c.374 43.683 35.586 79.074 79.194 79.75 44.957.696 81.751-36.915 81.751-81.879v-39.436a8.59 8.59 0 0 0-8.591-8.591h-44.416a8.591 8.591 0 0 0-8.591 8.591z" fill="#231f20"/></svg>