<?xml version="1.0" encoding="iso-8859-1"?>
<!-- Generator: Adobe Illustrator 19.0.0, SVG Export Plug-In . SVG Version: 6.00 Build 0)  -->
<svg version="1.1" id="Layer_1" xmlns="http://www.w3.org/2000/svg" xmlns:xlink="http://www.w3.org/1999/xlink" x="0px" y="0px"
	 viewBox="0 0 360 360" style="enable-background:new 0 0 360 360;" xml:space="preserve">
<g>
	<g>
		<g>
			<path style="fill:#231F20;" d="M199.051,123.338c0-10.515-8.528-19.043-19.053-19.043c-10.525,0-19.053,8.528-19.053,19.043
				l-0.093,114.807c-0.604,43.495-35.664,78.662-79.163,79.304C36.765,318.112,0,280.51,0,235.582v-39.915
				c0-4.745,3.847-8.591,8.591-8.591h44.411c4.745,0,8.591,3.846,8.591,8.591v40.039c0,10.489,8.209,19.483,18.697,19.67
				c10.684,0.19,19.4-8.409,19.4-19.05v-116.23c1.546-43.084,36.851-77.553,80.308-77.553c43.618,0,79.006,34.722,80.308,78.032
				v19.034c0,3.798-2.494,7.145-6.133,8.232l-27.402,8.181c-2.015,0.602-4.181,0.443-6.087-0.445l-16.67-7.77
				c-3.027-1.411-4.962-4.448-4.962-7.787L199.051,123.338L199.051,123.338z M298.402,196.134v41.88
				c0,10.494-8.221,19.49-18.714,19.664c-10.681,0.177-19.379-8.429-19.379-19.052v-39.037c0-5.75-5.539-9.877-11.048-8.232
				l-22.49,6.713c-2.015,0.602-4.181,0.443-6.087-0.445l-9.408-4.385c-5.695-2.655-12.221,1.503-12.221,7.787v36.672
				c0.374,43.683,35.586,79.074,79.194,79.75C323.206,318.145,360,280.534,360,235.57v-39.436c0-4.745-3.846-8.591-8.591-8.591
				h-44.416C302.248,187.543,298.402,191.39,298.402,196.134z"/>
		</g>
	</g>
</g>
<g>
</g>
<g>
</g>
<g>
</g>
<g>
</g>
<g>
</g>
<g>
</g>
<g>
</g>
<g>
</g>
<g>
</g>
<g>
</g>
<g>
</g>
<g>
</g>
<g>
</g>
<g>
</g>
<g>
</g>
</svg>
