<?xml version="1.0" encoding="iso-8859-1"?>
<!-- Generator: Adobe Illustrator 19.0.0, SVG Export Plug-In . SVG Version: 6.00 Build 0)  -->
<svg version="1.1" id="Layer_1" xmlns="http://www.w3.org/2000/svg" xmlns:xlink="http://www.w3.org/1999/xlink" x="0px" y="0px"
	 viewBox="-49 141 512 512" style="enable-background:new -49 141 512 512;" xml:space="preserve">
<g>
	<g>
		<path d="M388,603H26c-35.841,0-65-29.159-65-65V256c0-35.841,29.159-65,65-65h362c35.841,0,65,29.159,65,65v282
			C453,573.841,423.841,603,388,603z M26,241c-8.271,0-15,6.729-15,15v282c0,8.271,6.729,15,15,15h362c8.271,0,15-6.729,15-15V256
			c0-8.271-6.729-15-15-15H26z"/>
	</g>
	<g>
		<path d="M338,423H186c-13.807,0-25-11.193-25-25s11.193-25,25-25h152c13.807,0,25,11.193,25,25S351.807,423,338,423z"/>
	</g>
	<g>
		<path d="M96,423H76c-13.808,0-25-11.193-25-25s11.192-25,25-25h20c13.808,0,25,11.193,25,25S109.808,423,96,423z"/>
	</g>
	<g>
		<path d="M228,513H76c-13.807,0-25-11.193-25-25s11.193-25,25-25h152c13.807,0,25,11.193,25,25S241.807,513,228,513z"/>
	</g>
	<g>
		<path d="M338,513h-20c-13.808,0-25-11.193-25-25s11.192-25,25-25h20c13.808,0,25,11.193,25,25S351.808,513,338,513z"/>
	</g>
</g>
</svg>
