<?xml version="1.0" encoding="iso-8859-1"?>
<!-- Generator: Adobe Illustrator 19.0.0, SVG Export Plug-In . SVG Version: 6.00 Build 0)  -->
<svg version="1.1" id="Layer_1" xmlns="http://www.w3.org/2000/svg" xmlns:xlink="http://www.w3.org/1999/xlink" x="0px" y="0px"
	 viewBox="0 0 492 492" style="enable-background:new 0 0 492 492;" xml:space="preserve">
<g>
	<g>
		<path d="M427,452H65c-35.841,0-65-29.159-65-65V105c0-35.841,29.159-65,65-65h362c35.841,0,65,29.159,65,65v282
			C492,422.841,462.841,452,427,452z M65,90c-8.271,0-15,6.729-15,15v282c0,8.271,6.729,15,15,15h362c8.271,0,15-6.729,15-15V105
			c0-8.271-6.729-15-15-15H65z"/>
	</g>
	<g>
		<path d="M377,272H225c-13.807,0-25-11.193-25-25s11.193-25,25-25h152c13.807,0,25,11.193,25,25S390.807,272,377,272z"/>
	</g>
	<g>
		<path d="M135,272h-20c-13.808,0-25-11.193-25-25s11.192-25,25-25h20c13.808,0,25,11.193,25,25S148.808,272,135,272z"/>
	</g>
	<g>
		<path d="M267,362H115c-13.807,0-25-11.193-25-25s11.193-25,25-25h152c13.807,0,25,11.193,25,25S280.807,362,267,362z"/>
	</g>
	<g>
		<path d="M377,362h-20c-13.808,0-25-11.193-25-25s11.192-25,25-25h20c13.808,0,25,11.193,25,25S390.808,362,377,362z"/>
	</g>
</g>
<g>
</g>
<g>
</g>
<g>
</g>
<g>
</g>
<g>
</g>
<g>
</g>
<g>
</g>
<g>
</g>
<g>
</g>
<g>
</g>
<g>
</g>
<g>
</g>
<g>
</g>
<g>
</g>
<g>
</g>
</svg>
