<?xml version="1.0" encoding="iso-8859-1"?>
<!-- Generator: Adobe Illustrator 19.0.0, SVG Export Plug-In . SVG Version: 6.00 Build 0)  -->
<svg version="1.1" id="Layer_1" xmlns="http://www.w3.org/2000/svg" xmlns:xlink="http://www.w3.org/1999/xlink" x="0px" y="0px"
	 viewBox="0 0 512 512" style="enable-background:new 0 0 512 512;" xml:space="preserve">
<g>
	<path d="M512,256c0-60.075-20.56-116.988-58.341-162.715c7.178-9.781,6.345-23.603-2.498-32.446
		c-8.844-8.845-22.665-9.677-32.446-2.498C372.989,20.561,316.075,0,256,0S139.011,20.561,93.285,58.341
		c-9.781-7.179-23.602-6.347-32.446,2.498c-8.843,8.844-9.676,22.665-2.498,32.446C20.56,139.012,0,195.925,0,256
		s20.56,116.988,58.341,162.715c-7.178,9.781-6.345,23.603,2.498,32.446c8.844,8.845,22.665,9.677,32.446,2.498
		C139.011,491.439,195.925,512,256,512s116.989-20.561,162.715-58.341c9.781,7.179,23.602,6.347,32.446-2.498
		c8.843-8.844,9.676-22.665,2.498-32.446C491.44,372.988,512,316.075,512,256z M256,50c47.804,0,91.855,16.371,126.848,43.796
		l-53.627,53.628C308.304,133.272,283.1,125,256,125s-52.304,8.272-73.221,22.424l-53.627-53.628C164.145,66.371,208.196,50,256,50z
		 M337,256c0,44.663-36.337,81-81,81s-81-36.337-81-81s36.337-81,81-81S337,211.337,337,256z M50,256
		c0-47.805,16.371-91.855,43.796-126.849l53.627,53.628C133.272,203.695,125,228.9,125,256s8.272,52.305,22.423,73.221
		l-53.627,53.628C66.371,347.855,50,303.805,50,256z M256,462c-47.804,0-91.855-16.371-126.848-43.796l53.627-53.628
		C203.696,378.728,228.9,387,256,387s52.304-8.272,73.221-22.424l53.627,53.628C347.855,445.629,303.804,462,256,462z
		 M418.204,382.849l-53.627-53.628C378.728,308.305,387,283.1,387,256s-8.272-52.305-22.423-73.221l53.627-53.628
		C445.629,164.145,462,208.195,462,256S445.629,347.855,418.204,382.849z"/>
</g>
<g>
</g>
<g>
</g>
<g>
</g>
<g>
</g>
<g>
</g>
<g>
</g>
<g>
</g>
<g>
</g>
<g>
</g>
<g>
</g>
<g>
</g>
<g>
</g>
<g>
</g>
<g>
</g>
<g>
</g>
</svg>
