<?xml version="1.0" encoding="iso-8859-1"?>
<!-- Generator: Adobe Illustrator 19.0.0, SVG Export Plug-In . SVG Version: 6.00 Build 0)  -->
<svg version="1.1" id="Layer_1" xmlns="http://www.w3.org/2000/svg" xmlns:xlink="http://www.w3.org/1999/xlink" x="0px" y="0px"
	 viewBox="-49 141 512 512" style="enable-background:new -49 141 512 512;" xml:space="preserve">
<g>
	<path d="M463,397c0-60.075-20.56-116.988-58.341-162.715c7.178-9.781,6.345-23.603-2.498-32.446
		c-8.844-8.845-22.665-9.677-32.446-2.498C323.989,161.561,267.075,141,207,141S90.011,161.561,44.285,199.341
		c-9.781-7.179-23.602-6.347-32.446,2.498c-8.843,8.844-9.676,22.665-2.498,32.446C-28.44,280.012-49,336.925-49,397
		s20.56,116.988,58.341,162.715c-7.178,9.781-6.345,23.603,2.498,32.446c8.844,8.845,22.665,9.677,32.446,2.498
		C90.011,632.439,146.925,653,207,653s116.989-20.561,162.715-58.341c9.781,7.179,23.602,6.347,32.446-2.498
		c8.843-8.844,9.676-22.665,2.498-32.446C442.44,513.988,463,457.075,463,397z M207,191c47.804,0,91.855,16.371,126.848,43.796
		l-53.627,53.628C259.304,274.272,234.1,266,207,266s-52.304,8.272-73.221,22.424l-53.627-53.628
		C115.145,207.371,159.196,191,207,191z M288,397c0,44.663-36.337,81-81,81s-81-36.337-81-81s36.337-81,81-81S288,352.337,288,397z
		 M1,397c0-47.805,16.371-91.855,43.796-126.849l53.627,53.628C84.272,344.695,76,369.9,76,397s8.272,52.305,22.423,73.221
		l-53.627,53.628C17.371,488.855,1,444.805,1,397z M207,603c-47.804,0-91.855-16.371-126.848-43.796l53.627-53.628
		C154.696,519.728,179.9,528,207,528s52.304-8.272,73.221-22.424l53.627,53.628C298.855,586.629,254.804,603,207,603z
		 M369.204,523.849l-53.627-53.628C329.728,449.305,338,424.1,338,397s-8.272-52.305-22.423-73.221l53.627-53.628
		C396.629,305.145,413,349.195,413,397S396.629,488.855,369.204,523.849z"/>
</g>
</svg>
