<?xml version="1.0" encoding="iso-8859-1"?>
<!-- Generator: Adobe Illustrator 19.0.0, SVG Export Plug-In . SVG Version: 6.00 Build 0)  -->
<svg version="1.1" id="Layer_1" xmlns="http://www.w3.org/2000/svg" xmlns:xlink="http://www.w3.org/1999/xlink" x="0px" y="0px"
	 viewBox="0 0 492 492" style="enable-background:new 0 0 492 492;" xml:space="preserve">
<path d="M427,40H65C29.159,40,0,69.159,0,105v282c0,35.841,29.159,65,65,65h362c35.841,0,65-29.159,65-65V105
	C492,69.159,462.841,40,427,40z M60,276c-16.542,0-30-13.458-30-30s13.458-30,30-30s30,13.458,30,30S76.542,276,60,276z M442,387
	c0,8.271-6.729,15-15,15H120V90h307c8.271,0,15,6.729,15,15V387z"/>
<g>
</g>
<g>
</g>
<g>
</g>
<g>
</g>
<g>
</g>
<g>
</g>
<g>
</g>
<g>
</g>
<g>
</g>
<g>
</g>
<g>
</g>
<g>
</g>
<g>
</g>
<g>
</g>
<g>
</g>
</svg>
