<?xml version="1.0" encoding="iso-8859-1"?>
<!-- Generator: Adobe Illustrator 19.0.0, SVG Export Plug-In . SVG Version: 6.00 Build 0)  -->
<svg version="1.1" id="Layer_1" xmlns="http://www.w3.org/2000/svg" xmlns:xlink="http://www.w3.org/1999/xlink" x="0px" y="0px"
	 viewBox="-49 141 512 512" style="enable-background:new -49 141 512 512;" xml:space="preserve">
<g>
	<g>
		<path d="M277,578H21c-35.841,0-65-29.159-65-65V281c0-35.841,29.159-65,65-65h256c6.631,0,12.989,2.634,17.678,7.322l156,156
			c9.763,9.763,9.763,25.592,0,35.355l-156,156C289.989,575.366,283.631,578,277,578z M21,266c-8.271,0-15,6.729-15,15v232
			c0,8.271,6.729,15,15,15h245.645l131-131l-131-131H21z"/>
	</g>
	<g>
		<path d="M295,427c-16.542,0-30-13.458-30-30s13.458-30,30-30s30,13.458,30,30S311.542,427,295,427z"/>
	</g>
</g>
</svg>
