<?xml version="1.0" encoding="iso-8859-1"?>
<!-- Generator: Adobe Illustrator 19.0.0, SVG Export Plug-In . SVG Version: 6.00 Build 0)  -->
<svg version="1.1" id="Layer_1" xmlns="http://www.w3.org/2000/svg" xmlns:xlink="http://www.w3.org/1999/xlink" x="0px" y="0px"
	 viewBox="-49 141 512 512" style="enable-background:new -49 141 512 512;" xml:space="preserve">
<g id="XMLID_496_">
	<path id="XMLID_497_" d="M-37.724,387.942l116.909,43.634l45.251,145.526c2.895,9.32,14.293,12.766,21.858,6.581l65.167-53.125
		c6.831-5.566,16.561-5.843,23.699-0.661l117.538,85.335c8.093,5.882,19.558,1.448,21.587-8.331l86.103-414.17
		c2.216-10.682-8.28-19.593-18.451-15.659l-479.798,185.09C-49.702,366.729-49.599,383.492-37.724,387.942z M117.143,408.348
		l228.483-140.723c4.106-2.522,8.331,3.031,4.805,6.302l-188.565,175.28c-6.628,6.17-10.903,14.426-12.114,23.388l-6.423,47.602
		c-0.851,6.356-9.779,6.987-11.533,0.835l-24.704-86.803C104.262,424.329,108.386,413.754,117.143,408.348z"/>
</g>
</svg>
