<svg xmlns="http://www.w3.org/2000/svg" viewBox="-49 141 512 512"><path d="M-37.724 387.942l116.909 43.634 45.251 145.526c2.895 9.32 14.293 12.766 21.858 6.581l65.167-53.125a19.441 19.441 0 0 1 23.699-.661l117.538 85.335c8.093 5.882 19.558 1.448 21.587-8.331l86.103-414.17c2.216-10.682-8.28-19.593-18.451-15.659l-479.798 185.09c-11.841 4.567-11.738 21.33.137 25.78zm154.867 20.406l228.483-140.723c4.106-2.522 8.331 3.031 4.805 6.302l-188.565 175.28a39.089 39.089 0 0 0-12.114 23.388l-6.423 47.602c-.851 6.356-9.779 6.987-11.533.835l-24.704-86.803c-2.83-9.9 1.294-20.475 10.051-25.881z"/></svg>