<?xml version="1.0" encoding="utf-8"?>
<!-- Generator: Adobe Illustrator 24.0.1, SVG Export Plug-In . SVG Version: 6.00 Build 0)  -->
<svg version="1.1" id="Capa_1" xmlns="http://www.w3.org/2000/svg" xmlns:xlink="http://www.w3.org/1999/xlink" x="0px" y="0px"
	 viewBox="0 0 512 512" style="enable-background:new 0 0 512 512;" xml:space="preserve">
<g>
	<path d="M462,133.7c0,0,0-0.1,0-0.1c0-0.5-0.1-1-0.1-1.5c0-0.1,0-0.3-0.1-0.4c-0.1-0.5-0.2-1.1-0.3-1.6c0,0,0,0,0,0
		c-0.1-0.5-0.2-1.1-0.4-1.6c0-0.1-0.1-0.3-0.1-0.4c-0.1-0.5-0.3-1-0.5-1.4c0,0,0-0.1,0-0.1c-0.2-0.5-0.4-1-0.6-1.5
		c-0.1-0.1-0.1-0.3-0.2-0.4c-0.2-0.4-0.4-0.9-0.6-1.3c0-0.1-0.1-0.1-0.1-0.2c-0.2-0.5-0.5-0.9-0.8-1.4c-0.1-0.1-0.2-0.3-0.2-0.4
		c-0.3-0.4-0.5-0.8-0.8-1.2c0,0-0.1-0.1-0.1-0.1c-0.3-0.4-0.7-0.9-1-1.3c-0.1-0.1-0.2-0.2-0.3-0.3c-0.4-0.4-0.7-0.8-1.1-1.2
		l-100-100c-0.4-0.4-0.8-0.8-1.2-1.1c-0.1-0.1-0.2-0.2-0.3-0.3c-0.4-0.4-0.8-0.7-1.3-1c0,0-0.1-0.1-0.1-0.1
		c-0.4-0.3-0.8-0.6-1.2-0.8c-0.1-0.1-0.3-0.2-0.4-0.2c-0.4-0.3-0.9-0.5-1.4-0.8c-0.1,0-0.1-0.1-0.2-0.1c-0.4-0.2-0.8-0.4-1.3-0.6
		c-0.1-0.1-0.3-0.1-0.4-0.2c-0.5-0.2-1-0.4-1.5-0.6c-0.1,0-0.1,0-0.2-0.1c-0.5-0.2-0.9-0.3-1.4-0.4c-0.1,0-0.3-0.1-0.4-0.1
		c-0.5-0.1-1-0.3-1.6-0.4c0,0,0,0-0.1,0c-0.5-0.1-1-0.2-1.5-0.2c-0.1,0-0.3,0-0.4-0.1c-0.5-0.1-1-0.1-1.5-0.1c0,0-0.1,0-0.1,0
		c-0.4,0-0.8,0-1.2,0H115c-35.8,0-65,29.2-65,65v362c0,35.8,29.2,65,65,65h282c35.8,0,65-29.2,65-65V135
		C462,134.6,462,134.2,462,133.7z M397,452H115c-8.3,0-15-6.7-15-15V75c0-8.3,6.7-15,15-15h197v75c0,13.8,11.2,25,25,25h75v277
		C412,445.3,405.3,452,397,452z"/>
	<path d="M337,327c-13.8,0-25,11.2-25,25c-13.8,0-25,11.2-25,25s11.2,25,25,25h25c13.8,0,25-11.2,25-25v-25
		C362,338.2,350.8,327,337,327z"/>
	<path d="M200,352c0-13.8-11.2-25-25-25s-25,11.2-25,25v25c0,13.8,11.2,25,25,25h25c13.8,0,25-11.2,25-25S213.8,352,200,352z"/>
	<path d="M200,209h-25c-13.8,0-25,11.2-25,25v25c0,13.8,11.2,25,25,25s25-11.2,25-25c13.8,0,25-11.2,25-25S213.8,209,200,209z"/>
	<path d="M337,209h-25c-13.8,0-25,11.2-25,25s11.2,25,25,25c0,13.8,11.2,25,25,25s25-11.2,25-25v-25C362,220.2,350.8,209,337,209z"
		/>
	<path d="M237,110h-61c-13.8,0-25,11.2-25,25s11.2,25,25,25h61c13.8,0,25-11.2,25-25S250.8,110,237,110z"/>
</g>
</svg>
