<?xml version="1.0" encoding="utf-8"?>
<!-- Generator: Adobe Illustrator 24.0.1, SVG Export Plug-In . SVG Version: 6.00 Build 0)  -->
<svg version="1.1" id="Capa_1" xmlns="http://www.w3.org/2000/svg" xmlns:xlink="http://www.w3.org/1999/xlink" x="0px" y="0px"
	 viewBox="0 0 512 512" style="enable-background:new 0 0 512 512;" xml:space="preserve">
<g>
	<path d="M462,133.7c0,0,0-0.1,0-0.1c0-0.5-0.1-1-0.1-1.5c0-0.1,0-0.3-0.1-0.4c-0.1-0.5-0.2-1.1-0.3-1.6c0,0,0,0,0,0
		c-0.1-0.5-0.2-1.1-0.4-1.6c0-0.1-0.1-0.3-0.1-0.4c-0.1-0.5-0.3-1-0.5-1.4c0,0,0-0.1,0-0.1c-0.2-0.5-0.4-1-0.6-1.5
		c-0.1-0.1-0.1-0.3-0.2-0.4c-0.2-0.4-0.4-0.9-0.6-1.3c0-0.1-0.1-0.1-0.1-0.2c-0.2-0.5-0.5-0.9-0.8-1.4c-0.1-0.1-0.2-0.3-0.2-0.4
		c-0.3-0.4-0.5-0.8-0.8-1.2c0,0-0.1-0.1-0.1-0.1c-0.3-0.4-0.7-0.9-1-1.3c-0.1-0.1-0.2-0.2-0.3-0.3c-0.4-0.4-0.7-0.8-1.1-1.2
		l-100-100c-0.4-0.4-0.8-0.8-1.2-1.1c-0.1-0.1-0.2-0.2-0.3-0.3c-0.4-0.3-0.8-0.7-1.3-1c-0.1,0-0.1-0.1-0.2-0.1
		c-0.4-0.3-0.8-0.6-1.2-0.8c-0.1-0.1-0.3-0.2-0.4-0.3c-0.4-0.3-0.9-0.5-1.3-0.8c-0.1,0-0.2-0.1-0.2-0.1c-0.4-0.2-0.8-0.4-1.2-0.6
		c-0.1-0.1-0.3-0.1-0.4-0.2c-0.5-0.2-1-0.4-1.4-0.6c-0.1,0-0.1,0-0.2-0.1c-0.4-0.2-0.9-0.3-1.4-0.4c-0.1,0-0.3-0.1-0.4-0.1
		c-0.5-0.1-1-0.3-1.5-0.4c0,0-0.1,0-0.1,0c-0.5-0.1-1-0.2-1.5-0.2c-0.2,0-0.3,0-0.5-0.1c-0.5-0.1-1-0.1-1.4-0.1c-0.1,0-0.1,0-0.2,0
		c-0.4,0-0.8,0-1.2,0H115c-35.8,0-65,29.2-65,65v362c0,35.8,29.2,65,65,65h282c35.8,0,65-29.2,65-65V135
		C462,134.6,462,134.2,462,133.7z M397,452H115c-8.3,0-15-6.7-15-15V75c0-8.3,6.7-15,15-15h197v75c0,13.8,11.2,25,25,25h75v277
		C412,445.3,405.3,452,397,452z"/>
	<path d="M337,210H175c-13.8,0-25,11.2-25,25v142c0,13.8,11.2,25,25,25h162c13.8,0,25-11.2,25-25V235C362,221.2,350.8,210,337,210z
		 M312,352H200v-92h112V352z"/>
	<path d="M176,160h61c13.8,0,25-11.2,25-25s-11.2-25-25-25h-61c-13.8,0-25,11.2-25,25S162.2,160,176,160z"/>
</g>
</svg>
