<?xml version="1.0" encoding="utf-8"?>
<!-- Generator: Adobe Illustrator 26.0.2, SVG Export Plug-In . SVG Version: 6.00 Build 0)  -->
<svg version="1.1" id="Capa_1" xmlns="http://www.w3.org/2000/svg" xmlns:xlink="http://www.w3.org/1999/xlink" x="0px" y="0px"
	 viewBox="0 0 512 512" style="enable-background:new 0 0 512 512;" xml:space="preserve">
<style type="text/css">
	.st0{display:none;}
</style>
<g>
	<path d="M380.5,75.9c13.8,0,25-11.2,25-25s-11.2-25-25-25h-336c-13.8,0-25,11.2-25,25s11.2,25,25,25h143v337c0,13.8,11.2,25,25,25
		s25-11.2,25-25v-337H380.5z"/>
	<path d="M411.4,138.4c-0.1-0.8-0.2-1.6-0.4-2.4c-0.2-0.8-0.4-1.6-0.6-2.4c-0.2-0.8-0.5-1.5-0.8-2.3c-0.3-0.8-0.7-1.5-1-2.2
		c-0.4-0.7-0.8-1.4-1.2-2.1c-0.5-0.7-1-1.3-1.5-2c-0.3-0.3-0.5-0.6-0.8-0.9c-0.3-0.3-0.6-0.6-0.9-0.9s-0.6-0.6-0.9-0.8
		c-0.3-0.3-0.6-0.5-0.9-0.8c-0.6-0.5-1.3-1-2-1.5c-0.7-0.5-1.4-0.9-2.1-1.2c-0.7-0.4-1.5-0.7-2.2-1c-0.8-0.3-1.5-0.6-2.3-0.8
		c-0.8-0.2-1.6-0.4-2.4-0.6c-0.8-0.2-1.6-0.3-2.4-0.4c-0.4,0-0.8-0.1-1.2-0.1c-0.8,0-1.6,0-2.5,0c-0.4,0-0.8,0.1-1.2,0.1
		c-0.8,0.1-1.6,0.2-2.4,0.4c-0.8,0.2-1.6,0.4-2.4,0.6c-0.8,0.2-1.5,0.5-2.3,0.8c-0.8,0.3-1.5,0.7-2.2,1c-0.7,0.4-1.4,0.8-2.1,1.2
		c-0.7,0.5-1.3,1-2,1.5c-0.3,0.3-0.6,0.5-0.9,0.8c-0.3,0.3-0.6,0.6-0.9,0.8s-0.6,0.6-0.9,0.9c-0.3,0.3-0.5,0.6-0.8,0.9
		c-0.5,0.6-1,1.3-1.5,2c-0.5,0.7-0.9,1.4-1.2,2.1c-0.4,0.7-0.7,1.5-1,2.2c-0.3,0.8-0.6,1.5-0.8,2.3c-0.2,0.8-0.4,1.6-0.6,2.4
		c-0.2,0.8-0.3,1.6-0.4,2.4c0,0.4-0.1,0.8-0.1,1.2s0,0.8,0,1.2s0,0.8,0,1.2s0.1,0.8,0.1,1.2c0.1,0.8,0.2,1.6,0.4,2.4
		c0.2,0.8,0.4,1.6,0.6,2.4s0.5,1.5,0.8,2.3c0.3,0.8,0.7,1.5,1,2.2c0.4,0.7,0.8,1.4,1.2,2.1c0.5,0.7,0.9,1.3,1.5,2
		c0.3,0.3,0.5,0.6,0.8,0.9c0.3,0.3,0.6,0.6,0.9,0.9s0.6,0.6,0.9,0.8c0.3,0.3,0.6,0.5,0.9,0.8c0.6,0.5,1.3,1,2,1.5
		c0.7,0.4,1.4,0.9,2.1,1.2c0.7,0.4,1.5,0.7,2.2,1c0.8,0.3,1.5,0.6,2.3,0.8c0.8,0.2,1.6,0.4,2.4,0.6c0.8,0.2,1.6,0.3,2.4,0.4
		c0.4,0,0.8,0.1,1.2,0.1c0.4,0,0.8,0,1.2,0c0.4,0,0.8,0,1.2,0c0.4,0,0.8,0,1.2-0.1c0.8-0.1,1.6-0.2,2.4-0.4s1.6-0.4,2.4-0.6
		c0.8-0.2,1.6-0.5,2.3-0.8c0.8-0.3,1.5-0.7,2.2-1c0.7-0.4,1.4-0.8,2.1-1.2c0.7-0.5,1.3-1,2-1.5c0.3-0.3,0.6-0.5,0.9-0.8
		c0.3-0.3,0.6-0.6,0.9-0.8s0.6-0.6,0.9-0.9c0.3-0.3,0.5-0.6,0.8-0.9c0.5-0.6,1-1.3,1.5-2c0.4-0.7,0.9-1.4,1.2-2.1
		c0.4-0.7,0.7-1.5,1-2.2c0.3-0.8,0.6-1.5,0.8-2.3c0.2-0.8,0.4-1.6,0.6-2.4s0.3-1.6,0.4-2.4c0-0.4,0.1-0.8,0.1-1.2s0-0.8,0-1.2
		s0-0.8,0-1.2S411.4,138.8,411.4,138.4z"/>
	<path d="M493.5,139.7c0-0.4,0-0.8-0.1-1.2c-0.1-0.8-0.2-1.6-0.4-2.4c-0.2-0.8-0.4-1.6-0.6-2.4c-0.2-0.8-0.5-1.5-0.8-2.3
		c-0.3-0.8-0.7-1.5-1-2.2c-0.4-0.7-0.8-1.4-1.2-2.1c-0.5-0.7-1-1.3-1.5-2c-0.3-0.3-0.5-0.6-0.8-0.9c-0.3-0.3-0.6-0.6-0.9-0.9
		s-0.6-0.6-0.9-0.8c-0.3-0.3-0.6-0.5-0.9-0.8c-0.6-0.5-1.3-1-2-1.5c-0.7-0.5-1.4-0.9-2.1-1.2c-0.7-0.4-1.5-0.7-2.2-1
		c-0.8-0.3-1.5-0.6-2.3-0.8c-0.8-0.2-1.6-0.4-2.4-0.6c-0.8-0.2-1.6-0.3-2.4-0.4c-0.4,0-0.8-0.1-1.2-0.1c-0.8,0-1.6,0-2.5,0
		c-0.4,0-0.8,0.1-1.2,0.1c-0.8,0.1-1.6,0.2-2.4,0.4c-0.8,0.2-1.6,0.4-2.4,0.6c-0.8,0.2-1.5,0.5-2.3,0.8c-0.8,0.3-1.5,0.7-2.2,1
		c-0.7,0.4-1.4,0.8-2.1,1.2c-0.7,0.5-1.3,1-2,1.5c-0.3,0.3-0.6,0.5-0.9,0.8c-0.3,0.3-0.6,0.6-0.9,0.8s-0.6,0.6-0.9,0.9
		c-0.3,0.3-0.5,0.6-0.8,0.9c-0.5,0.6-1,1.3-1.5,2c-0.4,0.7-0.9,1.4-1.2,2.1c-0.4,0.7-0.7,1.5-1,2.2c-0.3,0.8-0.6,1.5-0.8,2.3
		c-0.2,0.8-0.4,1.6-0.6,2.4c-0.2,0.8-0.3,1.6-0.4,2.4c0,0.4-0.1,0.8-0.1,1.2s0,0.8,0,1.2s0,0.8,0,1.2s0.1,0.8,0.1,1.2
		c0.1,0.8,0.2,1.6,0.4,2.4c0.2,0.8,0.4,1.6,0.6,2.4s0.5,1.5,0.8,2.3c0.3,0.8,0.7,1.5,1,2.2c0.4,0.7,0.8,1.4,1.2,2.1
		c0.5,0.7,0.9,1.3,1.5,2c0.3,0.3,0.5,0.6,0.8,0.9c0.3,0.3,0.6,0.6,0.9,0.9s0.6,0.6,0.9,0.8c0.3,0.3,0.6,0.5,0.9,0.8
		c0.6,0.5,1.3,1,2,1.5c0.7,0.4,1.4,0.9,2.1,1.2c0.7,0.4,1.5,0.7,2.2,1c0.8,0.3,1.5,0.6,2.3,0.8c0.8,0.2,1.6,0.4,2.4,0.6
		c0.8,0.2,1.6,0.3,2.4,0.4c0.4,0,0.8,0.1,1.2,0.1c0.4,0,0.8,0,1.2,0c0.4,0,0.8,0,1.2,0c0.4,0,0.8,0,1.2-0.1c0.8-0.1,1.6-0.2,2.4-0.4
		s1.6-0.4,2.4-0.6c0.8-0.2,1.6-0.5,2.3-0.8c0.8-0.3,1.5-0.7,2.2-1c0.7-0.4,1.4-0.8,2.1-1.2c0.7-0.5,1.3-1,2-1.5
		c0.3-0.3,0.6-0.5,0.9-0.8c0.3-0.3,0.6-0.6,0.9-0.8s0.6-0.6,0.9-0.9c0.3-0.3,0.5-0.6,0.8-0.9c0.5-0.6,1-1.3,1.5-2
		c0.4-0.7,0.9-1.4,1.2-2.1c0.4-0.7,0.7-1.5,1-2.2c0.3-0.8,0.6-1.5,0.8-2.3c0.2-0.8,0.4-1.6,0.6-2.4s0.3-1.6,0.4-2.4
		c0-0.4,0.1-0.8,0.1-1.2s0-0.8,0-1.2S493.5,140.1,493.5,139.7z"/>
	<path d="M331.4,138.4c-0.1-0.8-0.2-1.6-0.4-2.4c-0.2-0.8-0.4-1.6-0.6-2.4c-0.2-0.8-0.5-1.5-0.8-2.3c-0.3-0.8-0.7-1.5-1-2.2
		c-0.4-0.7-0.8-1.4-1.2-2.1c-0.5-0.7-1-1.3-1.5-2c-0.3-0.3-0.5-0.6-0.8-0.9c-0.3-0.3-0.6-0.6-0.9-0.9s-0.6-0.6-0.9-0.8
		c-0.3-0.3-0.6-0.5-0.9-0.8c-0.6-0.5-1.3-1-2-1.5c-0.7-0.5-1.4-0.9-2.1-1.2c-0.7-0.4-1.5-0.7-2.2-1c-0.8-0.3-1.5-0.6-2.3-0.8
		c-0.8-0.2-1.6-0.4-2.4-0.6c-0.8-0.2-1.6-0.3-2.4-0.4c-0.4,0-0.8-0.1-1.2-0.1c-0.8,0-1.6,0-2.5,0c-0.4,0-0.8,0.1-1.2,0.1
		c-0.8,0.1-1.6,0.2-2.4,0.4c-0.8,0.2-1.6,0.4-2.4,0.6c-0.8,0.2-1.5,0.5-2.3,0.8c-0.8,0.3-1.5,0.7-2.2,1c-0.7,0.4-1.4,0.8-2.1,1.2
		c-0.7,0.5-1.3,1-2,1.5c-0.3,0.3-0.6,0.5-0.9,0.8c-0.3,0.3-0.6,0.6-0.9,0.8s-0.6,0.6-0.9,0.9c-0.3,0.3-0.5,0.6-0.8,0.9
		c-0.5,0.6-1,1.3-1.5,2c-0.4,0.7-0.9,1.4-1.3,2.1c-0.4,0.7-0.7,1.5-1,2.2s-0.6,1.5-0.8,2.3c-0.2,0.8-0.4,1.6-0.6,2.4
		c-0.2,0.8-0.3,1.6-0.4,2.4c0,0.4-0.1,0.8-0.1,1.2s0,0.8,0,1.2s0,0.8,0,1.2s0.1,0.8,0.1,1.2c0.1,0.8,0.2,1.6,0.4,2.4
		c0.2,0.8,0.4,1.6,0.6,2.4s0.5,1.5,0.8,2.3s0.7,1.5,1,2.2c0.4,0.7,0.8,1.4,1.3,2.1c0.5,0.7,0.9,1.3,1.5,2c0.3,0.3,0.5,0.6,0.8,0.9
		c0.3,0.3,0.6,0.6,0.9,0.9s0.6,0.6,0.9,0.8c0.3,0.3,0.6,0.5,0.9,0.8c0.6,0.5,1.3,1,2,1.5c0.7,0.4,1.4,0.9,2.1,1.2
		c0.7,0.4,1.5,0.7,2.2,1c0.8,0.3,1.5,0.6,2.3,0.8c0.8,0.2,1.6,0.4,2.4,0.6c0.8,0.2,1.6,0.3,2.4,0.4c0.4,0,0.8,0.1,1.2,0.1
		c0.4,0,0.8,0,1.2,0c0.4,0,0.8,0,1.2,0c0.4,0,0.8,0,1.2-0.1c0.8-0.1,1.6-0.2,2.4-0.4c0.8-0.2,1.6-0.4,2.4-0.6
		c0.8-0.2,1.6-0.5,2.3-0.8c0.8-0.3,1.5-0.7,2.2-1c0.7-0.4,1.4-0.8,2.1-1.2c0.7-0.5,1.3-1,2-1.5c0.3-0.3,0.6-0.5,0.9-0.8
		c0.3-0.3,0.6-0.6,0.9-0.8s0.6-0.6,0.9-0.9c0.3-0.3,0.5-0.6,0.8-0.9c0.5-0.6,1-1.3,1.5-2c0.4-0.7,0.9-1.4,1.2-2.1
		c0.4-0.7,0.7-1.5,1-2.2c0.3-0.8,0.6-1.5,0.8-2.3c0.2-0.8,0.4-1.6,0.6-2.4s0.3-1.6,0.4-2.4c0-0.4,0.1-0.8,0.1-1.2s0-0.8,0-1.2
		s0-0.8,0-1.2S331.4,138.8,331.4,138.4z"/>
	<path d="M331.4,218.4c-0.1-0.8-0.2-1.6-0.4-2.4c-0.2-0.8-0.4-1.6-0.6-2.4c-0.2-0.8-0.5-1.5-0.8-2.3c-0.3-0.8-0.7-1.5-1-2.2
		c-0.4-0.7-0.8-1.4-1.2-2.1c-0.5-0.7-1-1.3-1.5-2c-0.3-0.3-0.5-0.6-0.8-0.9c-0.3-0.3-0.6-0.6-0.9-0.9s-0.6-0.6-0.9-0.8
		c-0.3-0.3-0.6-0.5-0.9-0.8c-0.6-0.5-1.3-1-2-1.5c-0.7-0.4-1.4-0.9-2.1-1.2c-0.7-0.4-1.5-0.7-2.2-1c-0.8-0.3-1.5-0.6-2.3-0.8
		c-0.8-0.2-1.6-0.4-2.4-0.6c-0.8-0.2-1.6-0.3-2.4-0.4c-0.4,0-0.8-0.1-1.2-0.1c-0.8,0-1.6,0-2.5,0c-0.4,0-0.8,0.1-1.2,0.1
		c-0.8,0.1-1.6,0.2-2.4,0.4c-0.8,0.2-1.6,0.4-2.4,0.6c-0.8,0.2-1.5,0.5-2.3,0.8c-0.8,0.3-1.5,0.7-2.2,1c-0.7,0.4-1.4,0.8-2.1,1.2
		c-0.7,0.5-1.3,1-2,1.5c-0.3,0.3-0.6,0.5-0.9,0.8c-0.3,0.3-0.6,0.6-0.9,0.8s-0.6,0.6-0.9,0.9c-0.3,0.3-0.5,0.6-0.8,0.9
		c-0.5,0.6-1,1.3-1.5,2c-0.5,0.7-0.9,1.4-1.2,2.1c-0.4,0.7-0.7,1.5-1,2.2c-0.3,0.8-0.6,1.5-0.8,2.3c-0.2,0.8-0.4,1.6-0.6,2.4
		c-0.2,0.8-0.3,1.6-0.4,2.4c0,0.4-0.1,0.8-0.1,1.2s0,0.8,0,1.2s0,0.8,0,1.2s0.1,0.8,0.1,1.2c0.1,0.8,0.2,1.6,0.4,2.4
		c0.2,0.8,0.4,1.6,0.6,2.4s0.5,1.5,0.8,2.3c0.3,0.8,0.7,1.5,1,2.2c0.4,0.7,0.8,1.4,1.2,2.1c0.5,0.7,0.9,1.3,1.5,2
		c0.3,0.3,0.5,0.6,0.8,0.9c0.3,0.3,0.6,0.6,0.9,0.9s0.6,0.6,0.9,0.8c0.3,0.3,0.6,0.5,0.9,0.8c0.6,0.5,1.3,1,2,1.5
		c0.7,0.4,1.4,0.9,2.1,1.2c0.7,0.4,1.5,0.7,2.2,1c0.8,0.3,1.5,0.6,2.3,0.8c0.8,0.2,1.6,0.4,2.4,0.6c0.8,0.2,1.6,0.3,2.4,0.4
		c0.4,0,0.8,0.1,1.2,0.1c0.4,0,0.8,0,1.2,0c0.4,0,0.8,0,1.2,0c0.4,0,0.8,0,1.2-0.1c0.8-0.1,1.6-0.2,2.4-0.4s1.6-0.4,2.4-0.6
		c0.8-0.2,1.6-0.5,2.3-0.8c0.8-0.3,1.5-0.7,2.2-1c0.7-0.4,1.4-0.8,2.1-1.2c0.7-0.5,1.3-1,2-1.5c0.3-0.3,0.6-0.5,0.9-0.8
		c0.3-0.3,0.6-0.6,0.9-0.8s0.6-0.6,0.9-0.9c0.3-0.3,0.5-0.6,0.8-0.9c0.5-0.6,1-1.3,1.5-2c0.4-0.7,0.9-1.4,1.2-2.1
		c0.4-0.7,0.7-1.5,1-2.2c0.3-0.8,0.6-1.5,0.8-2.3c0.2-0.8,0.4-1.6,0.6-2.4c0.2-0.8,0.3-1.6,0.4-2.4c0-0.4,0.1-0.8,0.1-1.2
		s0-0.8,0-1.2s0-0.8,0-1.2S331.4,218.8,331.4,218.4z"/>
	<path d="M331.4,298.4c-0.1-0.8-0.2-1.6-0.4-2.4c-0.2-0.8-0.4-1.6-0.6-2.4c-0.2-0.8-0.5-1.5-0.8-2.3c-0.3-0.8-0.7-1.5-1-2.2
		c-0.4-0.7-0.8-1.4-1.2-2.1c-0.5-0.7-1-1.3-1.5-2c-0.3-0.3-0.5-0.6-0.8-0.9c-0.3-0.3-0.6-0.6-0.9-0.9s-0.6-0.6-0.9-0.8
		c-0.3-0.3-0.6-0.5-0.9-0.8c-0.6-0.5-1.3-1-2-1.5c-0.7-0.5-1.4-0.9-2.1-1.2c-0.7-0.4-1.5-0.7-2.2-1c-0.8-0.3-1.5-0.6-2.3-0.8
		c-0.8-0.2-1.6-0.4-2.4-0.6c-0.8-0.2-1.6-0.3-2.4-0.4c-0.4,0-0.8-0.1-1.2-0.1c-0.8,0-1.6,0-2.5,0c-0.4,0-0.8,0.1-1.2,0.1
		c-0.8,0.1-1.6,0.2-2.4,0.4c-0.8,0.2-1.6,0.4-2.4,0.6c-0.8,0.2-1.5,0.5-2.3,0.8c-0.8,0.3-1.5,0.7-2.2,1c-0.7,0.4-1.4,0.8-2.1,1.2
		c-0.7,0.5-1.3,1-2,1.5c-0.3,0.3-0.6,0.5-0.9,0.8c-0.3,0.3-0.6,0.6-0.9,0.8s-0.6,0.6-0.9,0.9c-0.3,0.3-0.5,0.6-0.8,0.9
		c-0.5,0.6-1,1.3-1.5,2c-0.4,0.7-0.9,1.4-1.2,2.1c-0.4,0.7-0.7,1.5-1,2.2c-0.3,0.8-0.6,1.5-0.8,2.3c-0.2,0.8-0.4,1.6-0.6,2.4
		c-0.2,0.8-0.3,1.6-0.4,2.4c0,0.4-0.1,0.8-0.1,1.2s0,0.8,0,1.2s0,0.8,0,1.2c0,0.4,0.1,0.8,0.1,1.2c0.1,0.8,0.2,1.6,0.4,2.4
		c0.2,0.8,0.4,1.6,0.6,2.4s0.5,1.5,0.8,2.3c0.3,0.8,0.7,1.5,1,2.2c0.4,0.7,0.8,1.4,1.2,2.1c0.5,0.7,0.9,1.3,1.5,2
		c0.3,0.3,0.5,0.6,0.8,0.9c0.3,0.3,0.6,0.6,0.9,0.9s0.6,0.6,0.9,0.8c0.3,0.3,0.6,0.5,0.9,0.8c0.6,0.5,1.3,1,2,1.5
		c0.7,0.4,1.4,0.9,2.1,1.2c0.7,0.4,1.5,0.7,2.2,1c0.8,0.3,1.5,0.6,2.3,0.8c0.8,0.2,1.6,0.4,2.4,0.6c0.8,0.2,1.6,0.3,2.4,0.4
		c0.4,0,0.8,0.1,1.2,0.1c0.4,0,0.8,0,1.2,0c0.4,0,0.8,0,1.2,0c0.4,0,0.8,0,1.2-0.1c0.8-0.1,1.6-0.2,2.4-0.4s1.6-0.4,2.4-0.6
		c0.8-0.2,1.6-0.5,2.3-0.8c0.8-0.3,1.5-0.7,2.2-1c0.7-0.4,1.4-0.8,2.1-1.2c0.7-0.5,1.3-1,2-1.5c0.3-0.3,0.6-0.5,0.9-0.8
		c0.3-0.3,0.6-0.6,0.9-0.8s0.6-0.6,0.9-0.9c0.3-0.3,0.5-0.6,0.8-0.9c0.5-0.6,1-1.3,1.5-2c0.4-0.7,0.9-1.4,1.2-2.1
		c0.4-0.7,0.7-1.5,1-2.2c0.3-0.8,0.6-1.5,0.8-2.3c0.2-0.8,0.4-1.6,0.6-2.4c0.2-0.8,0.3-1.6,0.4-2.4c0-0.4,0.1-0.8,0.1-1.2
		c0-0.4,0-0.8,0-1.2s0-0.8,0-1.2S331.4,298.8,331.4,298.4z"/>
	<path d="M331.4,378.4c-0.1-0.8-0.2-1.6-0.4-2.4c-0.2-0.8-0.4-1.6-0.6-2.4c-0.2-0.8-0.5-1.5-0.8-2.3c-0.3-0.8-0.7-1.5-1-2.2
		c-0.4-0.7-0.8-1.4-1.2-2.1c-0.5-0.7-1-1.3-1.5-2c-0.3-0.3-0.5-0.6-0.8-0.9c-0.3-0.3-0.6-0.6-0.9-0.9s-0.6-0.6-0.9-0.8
		c-0.3-0.3-0.6-0.5-0.9-0.8c-0.6-0.5-1.3-1-2-1.5c-0.7-0.5-1.4-0.9-2.1-1.2c-0.7-0.4-1.5-0.7-2.2-1c-0.8-0.3-1.5-0.6-2.3-0.8
		c-0.8-0.2-1.6-0.4-2.4-0.6c-0.8-0.2-1.6-0.3-2.4-0.4c-0.4,0-0.8-0.1-1.2-0.1c-0.8,0-1.6,0-2.5,0c-0.4,0-0.8,0.1-1.2,0.1
		c-0.8,0.1-1.6,0.2-2.4,0.4c-0.8,0.2-1.6,0.4-2.4,0.6c-0.8,0.2-1.5,0.5-2.3,0.8c-0.8,0.3-1.5,0.7-2.2,1c-0.7,0.4-1.4,0.8-2.1,1.2
		c-0.7,0.5-1.3,1-2,1.5c-0.3,0.3-0.6,0.5-0.9,0.8c-0.3,0.3-0.6,0.6-0.9,0.8s-0.6,0.6-0.9,0.9c-0.3,0.3-0.5,0.6-0.8,0.9
		c-0.5,0.6-1,1.3-1.5,2c-0.5,0.7-0.9,1.4-1.2,2.1c-0.4,0.7-0.7,1.5-1,2.2c-0.3,0.8-0.6,1.5-0.8,2.3c-0.2,0.8-0.4,1.6-0.6,2.4
		c-0.2,0.8-0.3,1.6-0.4,2.4c0,0.4-0.1,0.8-0.1,1.2s0,0.8,0,1.2s0,0.8,0,1.2s0.1,0.8,0.1,1.2c0.1,0.8,0.2,1.6,0.4,2.4
		c0.2,0.8,0.4,1.6,0.6,2.4s0.5,1.5,0.8,2.3c0.3,0.8,0.7,1.5,1,2.2c0.4,0.7,0.8,1.4,1.2,2.1c0.5,0.7,0.9,1.3,1.5,2
		c0.3,0.3,0.5,0.6,0.8,0.9c0.3,0.3,0.6,0.6,0.9,0.9s0.6,0.6,0.9,0.8c0.3,0.3,0.6,0.5,0.9,0.8c0.6,0.5,1.3,1,2,1.5
		c0.7,0.4,1.4,0.9,2.1,1.2c0.7,0.4,1.5,0.7,2.2,1c0.8,0.3,1.5,0.6,2.3,0.8c0.8,0.2,1.6,0.4,2.4,0.6c0.8,0.2,1.6,0.3,2.4,0.4
		c0.4,0,0.8,0.1,1.2,0.1c0.4,0,0.8,0,1.2,0c0.4,0,0.8,0,1.2,0c0.4,0,0.8,0,1.2-0.1c0.8-0.1,1.6-0.2,2.4-0.4s1.6-0.4,2.4-0.6
		c0.8-0.2,1.6-0.5,2.3-0.8c0.8-0.3,1.5-0.7,2.2-1c0.7-0.4,1.4-0.8,2.1-1.2c0.7-0.5,1.3-1,2-1.5c0.3-0.3,0.6-0.5,0.9-0.8
		c0.3-0.3,0.6-0.6,0.9-0.8s0.6-0.6,0.9-0.9c0.3-0.3,0.5-0.6,0.8-0.9c0.5-0.6,1-1.3,1.5-2c0.4-0.7,0.9-1.4,1.2-2.1
		c0.4-0.7,0.7-1.5,1-2.2c0.3-0.8,0.6-1.5,0.8-2.3c0.2-0.8,0.4-1.6,0.6-2.4s0.3-1.6,0.4-2.4c0-0.4,0.1-0.8,0.1-1.2s0-0.8,0-1.2
		s0-0.8,0-1.2S331.4,378.8,331.4,378.4z"/>
	<path d="M331.4,458.4c-0.1-0.8-0.2-1.6-0.4-2.4c-0.2-0.8-0.4-1.6-0.6-2.4c-0.2-0.8-0.5-1.5-0.8-2.3c-0.3-0.8-0.7-1.5-1-2.2
		c-0.4-0.7-0.8-1.4-1.2-2.1c-0.5-0.7-1-1.3-1.5-2c-0.3-0.3-0.5-0.6-0.8-0.9c-0.3-0.3-0.6-0.6-0.9-0.9c-0.3-0.3-0.6-0.6-0.9-0.8
		c-0.3-0.3-0.6-0.5-0.9-0.8c-0.6-0.5-1.3-1-2-1.5c-0.7-0.4-1.4-0.9-2.1-1.2c-0.7-0.4-1.5-0.7-2.2-1c-0.8-0.3-1.5-0.6-2.3-0.8
		c-0.8-0.2-1.6-0.4-2.4-0.6c-0.8-0.2-1.6-0.3-2.4-0.4c-0.4,0-0.8-0.1-1.2-0.1c-0.8,0-1.6,0-2.5,0c-0.4,0-0.8,0.1-1.2,0.1
		c-0.8,0.1-1.6,0.2-2.4,0.4c-0.8,0.2-1.6,0.4-2.4,0.6c-0.8,0.2-1.5,0.5-2.3,0.8c-0.8,0.3-1.5,0.7-2.2,1c-0.7,0.4-1.4,0.8-2.1,1.2
		c-0.7,0.5-1.3,1-2,1.5c-0.3,0.3-0.6,0.5-0.9,0.8c-0.3,0.3-0.6,0.6-0.9,0.8c-0.3,0.3-0.6,0.6-0.9,0.9c-0.3,0.3-0.5,0.6-0.8,0.9
		c-0.5,0.6-1,1.3-1.5,2c-0.5,0.7-0.9,1.4-1.2,2.1c-0.4,0.7-0.7,1.5-1,2.2c-0.3,0.8-0.6,1.5-0.8,2.3c-0.2,0.8-0.4,1.6-0.6,2.4
		c-0.2,0.8-0.3,1.6-0.4,2.4c0,0.4-0.1,0.8-0.1,1.2s0,0.8,0,1.2s0,0.8,0,1.2s0.1,0.8,0.1,1.2c0.1,0.8,0.2,1.6,0.4,2.4
		c0.2,0.8,0.4,1.6,0.6,2.4s0.5,1.5,0.8,2.3c0.3,0.8,0.7,1.5,1,2.2c0.4,0.7,0.8,1.4,1.2,2.1c0.5,0.7,0.9,1.3,1.5,2
		c0.3,0.3,0.5,0.6,0.8,0.9c0.3,0.3,0.6,0.6,0.9,0.9s0.6,0.6,0.9,0.8c0.3,0.3,0.6,0.5,0.9,0.8c0.6,0.5,1.3,1,2,1.5
		c0.7,0.4,1.4,0.9,2.1,1.2c0.7,0.4,1.5,0.7,2.2,1c0.8,0.3,1.5,0.6,2.3,0.8c0.8,0.2,1.6,0.4,2.4,0.6c0.8,0.2,1.6,0.3,2.4,0.4
		c0.4,0,0.8,0.1,1.2,0.1c0.4,0,0.8,0,1.2,0c0.4,0,0.8,0,1.2,0c0.4,0,0.8,0,1.2-0.1c0.8-0.1,1.6-0.2,2.4-0.4s1.6-0.4,2.4-0.6
		c0.8-0.2,1.6-0.5,2.3-0.8c0.8-0.3,1.5-0.7,2.2-1c0.7-0.4,1.4-0.8,2.1-1.2c0.7-0.5,1.3-1,2-1.5c0.3-0.3,0.6-0.5,0.9-0.8
		c0.3-0.3,0.6-0.6,0.9-0.8s0.6-0.6,0.9-0.9c0.3-0.3,0.5-0.6,0.8-0.9c0.5-0.6,1-1.3,1.5-2c0.4-0.7,0.9-1.4,1.2-2.1
		c0.4-0.7,0.7-1.5,1-2.2c0.3-0.8,0.6-1.5,0.8-2.3c0.2-0.8,0.4-1.6,0.6-2.4s0.3-1.6,0.4-2.4c0-0.4,0.1-0.8,0.1-1.2s0-0.8,0-1.2
		s0-0.8,0-1.2S331.4,458.8,331.4,458.4z"/>
</g>
</svg>
