<?xml version="1.0" encoding="iso-8859-1"?>
<!-- Generator: Adobe Illustrator 19.0.0, SVG Export Plug-In . SVG Version: 6.00 Build 0)  -->
<svg version="1.1" id="Layer_1" xmlns="http://www.w3.org/2000/svg" xmlns:xlink="http://www.w3.org/1999/xlink" x="0px" y="0px"
	 viewBox="0 0 511.76 511.76" style="enable-background:new 0 0 511.76 511.76;" xml:space="preserve">
<path d="M510.755,270.124l-35.815-202c-5.513-31.088-32.43-53.652-64.095-53.652L65,15.345c-35.841,0-65,29.159-65,65v202
	c0,35.841,29.159,65,65,65h92.92l39.384,103.01c8.821,27.365,41.542,54.713,83.093,44.892
	c43.479-10.277,57.229-53.902,52.215-78.563c-0.11-0.541-15.403-69.508-15.403-69.508l129.627-0.705
	c19.244-0.024,37.366-8.492,49.73-23.243C508.948,308.458,514.12,289.101,510.755,270.124z M50,282.345v-202c0-8.271,6.729-15,15-15
	h85v232H65C56.729,297.345,50,290.616,50,282.345z M458.248,291.107c-1.679,2.003-5.405,5.364-11.495,5.364
	c-0.045,0-0.091,0-0.136,0l-160.679,0.874c-7.56,0.041-14.695,3.501-19.409,9.411c-4.714,5.911-6.5,13.636-4.858,21.016
	l21.613,97.174c1.214,10.028-5.072,19.624-15.015,21.793c-13.853,3.022-21.936-6.895-24.113-13.851L200,317.397V65.253
	l210.938-0.782c7.286,0,13.498,5.207,14.77,12.381l35.815,202C462.586,284.848,459.928,289.104,458.248,291.107z"/>
<g>
</g>
<g>
</g>
<g>
</g>
<g>
</g>
<g>
</g>
<g>
</g>
<g>
</g>
<g>
</g>
<g>
</g>
<g>
</g>
<g>
</g>
<g>
</g>
<g>
</g>
<g>
</g>
<g>
</g>
</svg>
