<svg xmlns="http://www.w3.org/2000/svg" viewBox="-49 141 512 512"><path d="M461.875 411.243l-35.815-202c-5.513-31.088-32.43-53.652-64.095-53.652l-345.845.874c-35.841 0-65 29.159-65 65v202c0 35.841 29.159 65 65 65h92.92l39.384 103.01c8.821 27.365 41.542 54.713 83.093 44.892 43.479-10.277 57.229-53.902 52.215-78.563-.11-.541-15.403-69.508-15.403-69.508l129.626-.705c19.244-.024 37.366-8.492 49.73-23.243 12.383-14.771 17.555-34.127 14.19-53.105zM1.12 423.465v-202c0-8.271 6.729-15 15-15h85v232h-85c-8.271 0-15-6.729-15-15zm408.248 8.762c-1.679 2.003-5.405 5.364-11.495 5.364h-.136l-160.679.874a25 25 0 0 0-24.267 30.427l21.613 97.174c1.214 10.028-5.072 19.624-15.015 21.793-13.853 3.022-21.936-6.895-24.113-13.851L151.12 458.517V206.373l210.938-.782a14.981 14.981 0 0 1 14.77 12.381l35.815 202c1.063 5.996-1.595 10.252-3.275 12.255z"/></svg>