<?xml version="1.0" encoding="iso-8859-1"?>
<!-- Generator: Adobe Illustrator 19.0.0, SVG Export Plug-In . SVG Version: 6.00 Build 0)  -->
<svg version="1.1" id="Layer_1" xmlns="http://www.w3.org/2000/svg" xmlns:xlink="http://www.w3.org/1999/xlink" x="0px" y="0px"
	 viewBox="0 0 511.76 511.76" style="enable-background:new 0 0 511.76 511.76;" xml:space="preserve">
<path d="M496.565,188.532c-12.364-14.75-30.486-23.219-49.73-23.243l-129.627-0.705c0,0,15.293-68.968,15.403-69.508
	c5.014-24.661-8.736-68.286-52.215-78.563c-41.551-9.821-74.271,17.527-83.093,44.892l-39.384,103.01H65c-35.841,0-65,29.159-65,65
	v202c0,35.841,29.159,65,65,65l345.845,0.874c31.665,0,58.582-22.564,64.095-53.652l35.815-202
	C514.12,222.659,508.948,203.303,496.565,188.532z M65,214.415h85v232H65c-8.271,0-15-6.729-15-15v-202
	C50,221.144,56.729,214.415,65,214.415z M461.522,232.908l-35.815,202c-1.271,7.174-7.483,12.381-14.77,12.381L200,446.507V194.363
	L244.156,78.87c2.177-6.956,10.26-16.872,24.113-13.851c9.943,2.169,16.229,11.765,15.015,21.793l-21.613,97.174
	c-1.642,7.38,0.145,15.105,4.858,21.016c4.714,5.91,11.85,9.37,19.409,9.411l160.679,0.874c0.045,0,0.091,0,0.136,0
	c6.09,0,9.816,3.36,11.495,5.364C459.928,222.656,462.586,226.912,461.522,232.908z"/>
<g>
</g>
<g>
</g>
<g>
</g>
<g>
</g>
<g>
</g>
<g>
</g>
<g>
</g>
<g>
</g>
<g>
</g>
<g>
</g>
<g>
</g>
<g>
</g>
<g>
</g>
<g>
</g>
<g>
</g>
</svg>
