<?xml version="1.0" encoding="iso-8859-1"?>
<!-- Generator: Adobe Illustrator 19.0.0, SVG Export Plug-In . SVG Version: 6.00 Build 0)  -->
<svg version="1.1" id="Layer_1" xmlns="http://www.w3.org/2000/svg" xmlns:xlink="http://www.w3.org/1999/xlink" x="0px" y="0px"
	 viewBox="-49 141 512 512" style="enable-background:new -49 141 512 512;" xml:space="preserve">
<path d="M461.875,411.243l-35.815-202c-5.513-31.088-32.43-53.652-64.095-53.652L16.12,156.465c-35.841,0-65,29.159-65,65v202
	c0,35.841,29.159,65,65,65h92.92l39.384,103.01c8.821,27.365,41.542,54.713,83.093,44.892
	c43.479-10.277,57.229-53.902,52.215-78.563c-0.11-0.541-15.403-69.508-15.403-69.508l129.626-0.705
	c19.244-0.024,37.366-8.492,49.73-23.243C460.068,449.577,465.24,430.221,461.875,411.243z M1.12,423.465v-202
	c0-8.271,6.729-15,15-15h85v232h-85C7.849,438.465,1.12,431.736,1.12,423.465z M409.368,432.227
	c-1.679,2.003-5.405,5.364-11.495,5.364c-0.045,0-0.091,0-0.136,0l-160.679,0.874c-7.56,0.041-14.695,3.501-19.409,9.411
	c-4.714,5.911-6.5,13.636-4.858,21.016l21.613,97.174c1.214,10.028-5.072,19.624-15.015,21.793
	c-13.853,3.022-21.936-6.895-24.113-13.851L151.12,458.517V206.373l210.938-0.782c7.286,0,13.498,5.207,14.77,12.381l35.815,202
	C413.706,425.968,411.048,430.224,409.368,432.227z"/>
</svg>
