<?xml version="1.0" encoding="iso-8859-1"?>
<!-- Generator: Adobe Illustrator 19.0.0, SVG Export Plug-In . SVG Version: 6.00 Build 0)  -->
<svg version="1.1" id="Layer_1" xmlns="http://www.w3.org/2000/svg" xmlns:xlink="http://www.w3.org/1999/xlink" x="0px" y="0px"
	 viewBox="-49 141 512 512" style="enable-background:new -49 141 512 512;" xml:space="preserve">
<path d="M447.685,329.652c-12.364-14.75-30.486-23.219-49.73-23.243l-129.627-0.705c0,0,15.293-68.968,15.403-69.508
	c5.014-24.661-8.736-68.286-52.215-78.563c-41.551-9.821-74.271,17.527-83.093,44.892l-39.384,103.01H16.12
	c-35.841,0-65,29.159-65,65v202c0,35.841,29.159,65,65,65l345.845,0.874c31.665,0,58.582-22.564,64.095-53.652l35.815-202
	C465.24,363.78,460.068,344.423,447.685,329.652z M16.12,355.536h85v232h-85c-8.271,0-15-6.729-15-15v-202
	C1.12,362.265,7.849,355.536,16.12,355.536z M412.642,374.028l-35.815,202c-1.271,7.174-7.483,12.381-14.77,12.381l-210.937-0.781
	V335.484l44.156-115.493c2.177-6.956,10.26-16.872,24.113-13.851c9.943,2.169,16.229,11.765,15.015,21.793l-21.613,97.174
	c-1.642,7.38,0.145,15.105,4.858,21.016c4.714,5.91,11.85,9.37,19.409,9.411l160.679,0.874c0.045,0,0.091,0,0.136,0
	c6.09,0,9.816,3.36,11.495,5.364C411.048,363.777,413.706,368.033,412.642,374.028z"/>
</svg>
