<svg xmlns="http://www.w3.org/2000/svg" viewBox="-49 141 512 512"><path d="M447.685 329.652c-12.364-14.75-30.486-23.219-49.73-23.243l-129.627-.705s15.293-68.968 15.403-69.508c5.014-24.661-8.736-68.286-52.215-78.563-41.551-9.821-74.271 17.527-83.093 44.892l-39.384 103.01H16.12c-35.841 0-65 29.159-65 65v202c0 35.841 29.159 65 65 65l345.845.874c31.665 0 58.582-22.564 64.095-53.652l35.815-202c3.365-18.977-1.807-38.334-14.19-53.105zM16.12 355.536h85v232h-85c-8.271 0-15-6.729-15-15v-202c0-8.271 6.729-15 15-15zm396.522 18.492l-35.815 202a14.98 14.98 0 0 1-14.77 12.381l-210.937-.781V335.484l44.156-115.493c2.177-6.956 10.26-16.872 24.113-13.851 9.943 2.169 16.229 11.765 15.015 21.793l-21.613 97.174a25 25 0 0 0 24.267 30.427l160.679.874h.136c6.09 0 9.816 3.36 11.495 5.364 1.68 2.005 4.338 6.261 3.274 12.256z"/></svg>