<svg xmlns="http://www.w3.org/2000/svg" viewBox="-49 141 512 512"><path d="M207 653c-68.38 0-132.667-26.629-181.02-74.98C-22.371 529.667-49 465.38-49 397s26.629-132.667 74.98-181.02C74.333 167.629 138.62 141 207 141s132.667 26.629 181.02 74.98C436.371 264.333 463 328.62 463 397s-26.629 132.667-74.98 181.02C339.667 626.371 275.38 653 207 653zm0-462C93.411 191 1 283.411 1 397s92.411 206 206 206 206-92.411 206-206-92.411-206-206-206z"/><path d="M217.129 271.5c-13.807 0-25 11.193-25 25v96.566L108.5 441.35c-11.958 6.903-16.725 22.606-9.15 34.15 8.775 13.375 22.4 14.875 34.15 9.15l96.129-55.5.059-.037c7.438-4.331 12.441-12.385 12.441-21.613v-111c0-13.807-11.193-25-25-25z"/></svg>