<?xml version="1.0" encoding="iso-8859-1"?>
<!-- Generator: Adobe Illustrator 19.0.0, SVG Export Plug-In . SVG Version: 6.00 Build 0)  -->
<svg version="1.1" id="Layer_1" xmlns="http://www.w3.org/2000/svg" xmlns:xlink="http://www.w3.org/1999/xlink" x="0px" y="0px"
	 viewBox="0 0 512 512" style="enable-background:new 0 0 512 512;" xml:space="preserve">
<g>
	<g>
		<path d="M256,512c-68.38,0-132.667-26.629-181.02-74.98C26.629,388.667,0,324.38,0,256S26.629,123.333,74.98,74.98
			C123.333,26.629,187.62,0,256,0s132.667,26.629,181.02,74.98C485.371,123.333,512,187.62,512,256s-26.629,132.667-74.98,181.02
			C388.667,485.371,324.38,512,256,512z M256,50C142.411,50,50,142.411,50,256s92.411,206,206,206s206-92.411,206-206
			S369.589,50,256,50z"/>
	</g>
	<g>
		<path d="M256,512c-68.38,0-132.667-26.629-181.02-74.98C26.629,388.667,0,324.38,0,256S26.629,123.333,74.98,74.98
			C123.333,26.629,187.62,0,256,0s132.667,26.629,181.02,74.98C485.371,123.333,512,187.62,512,256s-26.629,132.667-74.98,181.02
			C388.667,485.371,324.38,512,256,512z M256,50C142.411,50,50,142.411,50,256s92.411,206,206,206s206-92.411,206-206
			S369.589,50,256,50z"/>
	</g>
	<path d="M266.129,130.5c-13.807,0-25,11.193-25,25v96.566L157.5,300.35c-11.958,6.903-16.725,22.606-9.15,34.15
		c8.775,13.375,22.4,14.875,34.15,9.15l96.129-55.5c0.021-0.012,0.038-0.025,0.059-0.037c7.438-4.331,12.441-12.385,12.441-21.613
		v-111C291.129,141.693,279.936,130.5,266.129,130.5z"/>
</g>
<g>
</g>
<g>
</g>
<g>
</g>
<g>
</g>
<g>
</g>
<g>
</g>
<g>
</g>
<g>
</g>
<g>
</g>
<g>
</g>
<g>
</g>
<g>
</g>
<g>
</g>
<g>
</g>
<g>
</g>
</svg>
