<?xml version="1.0" encoding="utf-8"?>
<!-- Generator: Adobe Illustrator 21.0.0, SVG Export Plug-In . SVG Version: 6.00 Build 0)  -->
<svg version="1.1" id="Layer_1" xmlns="http://www.w3.org/2000/svg" xmlns:xlink="http://www.w3.org/1999/xlink" x="0px" y="0px"
	 viewBox="0 0 512 512" style="enable-background:new 0 0 512 512;" xml:space="preserve">
<g>
	<g>
		<path d="M256,512c-68.4,0-132.7-26.6-181-75C26.6,388.7,0,324.4,0,256S26.6,123.3,75,75C123.3,26.6,187.6,0,256,0
			s132.7,26.6,181,75c48.4,48.4,75,112.6,75,181s-26.6,132.7-75,181C388.7,485.4,324.4,512,256,512z M256,50
			C142.4,50,50,142.4,50,256s92.4,206,206,206s206-92.4,206-206S369.6,50,256,50z"/>
	</g>
	<path d="M266.1,130.5c-13.8,0-25,11.2-25,25v96.6l-83.6,48.3c-12,6.9-16.7,22.6-9.1,34.1c8.8,13.4,22.4,14.9,34.1,9.1l96.1-55.5
		c0,0,0,0,0.1,0c7.4-4.3,12.4-12.4,12.4-21.6v-111C291.1,141.7,279.9,130.5,266.1,130.5z"/>
</g>
</svg>
