<?xml version="1.0" encoding="iso-8859-1"?>
<!-- Generator: Adobe Illustrator 19.0.0, SVG Export Plug-In . SVG Version: 6.00 Build 0)  -->
<svg version="1.1" id="Layer_1" xmlns="http://www.w3.org/2000/svg" xmlns:xlink="http://www.w3.org/1999/xlink" x="0px" y="0px"
	 viewBox="-49 141 512 512" style="enable-background:new -49 141 512 512;" xml:space="preserve">
<g>
	<g>
		<path d="M207,653c-68.38,0-132.667-26.629-181.02-74.98C-22.371,529.667-49,465.38-49,397s26.629-132.667,74.98-181.02
			C74.333,167.629,138.62,141,207,141s132.667,26.629,181.02,74.98C436.371,264.333,463,328.62,463,397
			s-26.629,132.667-74.98,181.02C339.667,626.371,275.38,653,207,653z M207,191C93.411,191,1,283.411,1,397s92.411,206,206,206
			s206-92.411,206-206S320.589,191,207,191z"/>
	</g>
	<path d="M217.129,271.5c-13.807,0-25,11.193-25,25v96.566L108.5,441.35c-11.958,6.903-16.725,22.606-9.15,34.15
		c8.775,13.375,22.4,14.875,34.15,9.15l96.129-55.5c0.021-0.012,0.038-0.025,0.059-0.037c7.438-4.331,12.441-12.385,12.441-21.613
		v-111C242.129,282.693,230.936,271.5,217.129,271.5z"/>
</g>
</svg>
