<svg xmlns="http://www.w3.org/2000/svg" width="512" height="512"><path d="M506.374 117.549a7.502 7.502 0 0 0-9.138 5.386L434.69 365.048h-25.241V230.35c0-6.893-5.607-12.5-12.5-12.5H323.58c3.488-17.794 8.46-34.932 14.853-51.121a109.705 109.705 0 0 0 11.304 2.859c35.73 7.054 79.214-4.817 85.91-38.749 2.928-14.862-2.572-30.254-15.486-43.341-12.162-12.324-29.663-21.244-49.284-25.117-11.923-2.346-23.684-2.692-34.969-1.03-.768.114-1.62-.326-1.705-1.101-.474-4.253-1.522-8.506-3.116-12.638-3.443-8.936-9.133-16.499-16.018-21.295-7.664-5.339-16.302-6.765-23.696-3.916-14.645 5.645-20.145 25.562-12.522 45.343a51.341 51.341 0 0 0 3.063 6.553c-9.189 11.718-17.602 25.244-25.006 40.206a7.5 7.5 0 0 0 13.444 6.652c6.978-14.102 14.877-26.8 23.482-37.751 3.686-4.707 4.204-11.054 1.307-16.19a36.257 36.257 0 0 1-2.293-4.861c-4.833-12.543-1.813-23.745 3.92-25.955 3.659-1.41 7.665.79 9.728 2.228 4.39 3.057 8.252 8.299 10.597 14.383 1.131 2.933 1.872 5.927 2.202 8.891.482 4.389 2.687 8.301 6.207 11.017 3.554 2.741 8.15 3.932 12.602 3.273 9.446-1.393 19.779-1.079 29.874.908 7.75 1.53 15.07 3.962 21.706 7.139-17.304 9.297-28.726 27.539-28.726 48.09 0 8.483 1.975 16.76 5.682 24.234a94.203 94.203 0 0 1-13.997-1.688 93.593 93.593 0 0 1-15.736-4.554 7.503 7.503 0 0 0-9.618 4.057c-8.457 19.894-14.827 41.221-18.982 63.474h-65.624c2.587-23.014 7.58-45.237 14.889-66.167a7.5 7.5 0 0 0-4.608-9.553 7.496 7.496 0 0 0-9.553 4.608c-7.708 22.072-12.961 45.489-15.664 69.716a81.59 81.59 0 0 0-24.963-22.685c-1.904-1.116-2.757-3.326-2.024-5.263 6.2-16.444 6.4-33.586.58-49.571a69.954 69.954 0 0 0-6.186-12.766c10.541-12.22 11.153-30.663.617-43.631-11.83-14.544-33.268-16.77-47.79-4.966a33.853 33.853 0 0 0-10.19 13.96c-12.699-1.293-25.789.328-38.323 4.892-12.761 4.645-23.73 11.94-32.446 20.916a33.984 33.984 0 0 0-16.826-4.177c-18.723.295-33.716 15.784-33.421 34.527.263 16.714 12.595 30.46 28.537 33.035a69.303 69.303 0 0 0 17.662 37.126H12.5c-6.893 0-12.5 5.607-12.5 12.5v75.3a7.5 7.5 0 0 0 15 0v-72.8h379.449V399.93h-27.047c-10.49-18.783-30.562-31.519-53.562-31.519-22.999 0-43.071 12.736-53.561 31.519H149.171c-10.49-18.783-30.562-31.519-53.562-31.519-22.999 0-43.071 12.736-53.561 31.519H15v-59.28a7.5 7.5 0 0 0-15 0v61.78c0 6.893 5.607 12.5 12.5 12.5h23.611a61.208 61.208 0 0 0-1.815 14.793c0 33.808 27.505 61.313 61.313 61.313s61.313-27.505 61.313-61.313c0-5.1-.636-10.053-1.815-14.793h99.236a61.208 61.208 0 0 0-1.815 14.793c0 33.808 27.505 61.313 61.312 61.313 33.808 0 61.313-27.505 61.313-61.313 0-5.1-.636-10.053-1.815-14.793h28.61c.029 0 .058-.004.087-.004h40.076c13.751 0 24.938-11.187 24.938-24.938 0-11.045-7.221-20.431-17.188-23.699l61.897-239.601a7.498 7.498 0 0 0-5.384-9.139zM405.212 94.112c10.222 8.568 18.285 20.796 15.718 33.826-3.2 16.214-20.939 25.035-37.372 27.698a39.522 39.522 0 0 1-7.601-23.31c0-18.032 12.123-33.612 29.255-38.214zM157.44 89.211c8.105-6.59 20.078-5.336 26.688 2.79 5.22 6.425 5.532 15.248 1.446 21.917-9.097-9.279-20.44-15.741-32.644-19.387a18.928 18.928 0 0 1 4.51-5.32zM31.769 147.453c-.165-10.474 8.206-19.129 18.651-19.293a19.122 19.122 0 0 1 6.919 1.208c-7.161 10.857-11.543 23.17-12.542 35.821-7.447-2.473-12.898-9.443-13.028-17.736zm31.078 41.892c-11.276-30.981 7.452-66.343 41.747-78.827 33.2-12.084 70.993 1.53 82.647 33.548 4.577 12.569 4.397 26.107-.517 39.14-3.327 8.793.237 18.678 8.479 23.508 5.229 3.057 9.984 6.83 14.164 11.135H86.482c-11.152-6.8-19.308-16.615-23.635-28.504zm32.762 286.69c-25.537 0-46.313-20.776-46.313-46.313s20.776-46.312 46.313-46.312 46.313 20.776 46.313 46.312c0 25.537-20.776 46.313-46.313 46.313zm218.232 0c-25.537 0-46.312-20.776-46.312-46.313s20.775-46.312 46.312-46.312 46.313 20.776 46.313 46.312c0 25.537-20.776 46.313-46.313 46.313zm128.271-76.11h-32.663v-19.877h32.663c5.48 0 9.938 4.458 9.938 9.938 0 5.481-4.458 9.939-9.938 9.939z"/><path d="M96.008 155.239a7.498 7.498 0 0 0-9.613-4.482 7.5 7.5 0 0 0-4.482 9.613l1.041 2.858a7.503 7.503 0 0 0 7.048 4.937 7.47 7.47 0 0 0 2.565-.455 7.5 7.5 0 0 0 4.482-9.613zM140.959 142.117a7.502 7.502 0 0 0 7.048 4.936 7.5 7.5 0 0 0 7.047-10.068l-1.041-2.858c-1.417-3.892-5.722-5.902-9.613-4.482a7.5 7.5 0 0 0-4.482 9.613zM139.517 156.911c-4.613-.473-9.833.467-16.926 3.049s-11.697 5.217-14.927 8.544c-4.938 5.088-6.268 11.709-3.744 18.643 2.343 6.438 7.239 11.47 13.785 14.168 6.435 2.653 13.56 2.658 20.046.297 13.909-5.062 21.363-19.788 16.618-32.827-2.524-6.933-7.799-11.15-14.852-11.874zm-6.897 30.607c-3.093 1.126-6.359 1.101-9.199-.07-2.602-1.072-4.522-3.001-5.406-5.43-.699-1.92-.257-2.376.412-3.066 1.508-1.553 4.635-3.201 9.293-4.896 4.127-1.502 7.308-2.261 9.478-2.261.279 0 .542.013.788.038.956.098 1.587.163 2.287 2.083 1.917 5.267-1.517 11.368-7.653 13.602zM341.468 105.975a7.5 7.5 0 0 0 7.5-7.5v-3.31c0-4.142-3.357-7.5-7.5-7.5s-7.5 3.358-7.5 7.5v3.31a7.5 7.5 0 0 0 7.5 7.5zM95.609 401.689c-15.458 0-28.034 12.576-28.034 28.033 0 15.458 12.576 28.034 28.034 28.034s28.034-12.576 28.034-28.034c0-15.457-12.576-28.033-28.034-28.033zm0 41.068c-7.187 0-13.034-5.847-13.034-13.034s5.847-13.033 13.034-13.033 13.034 5.847 13.034 13.033-5.847 13.034-13.034 13.034zM313.841 401.689c-15.458 0-28.033 12.576-28.033 28.033 0 15.458 12.575 28.034 28.033 28.034s28.034-12.576 28.034-28.034c0-15.457-12.576-28.033-28.034-28.033zm0 41.068c-7.186 0-13.033-5.847-13.033-13.034s5.847-13.033 13.033-13.033c7.187 0 13.034 5.847 13.034 13.033s-5.847 13.034-13.034 13.034z"/></svg>