<?xml version="1.0" encoding="iso-8859-1"?>
<!-- Generator: Adobe Illustrator 19.0.0, SVG Export Plug-In . SVG Version: 6.00 Build 0)  -->
<svg version="1.1" id="Layer_1" xmlns="http://www.w3.org/2000/svg" xmlns:xlink="http://www.w3.org/1999/xlink" x="0px" y="0px"
	 viewBox="0 0 511 511" style="enable-background:new 0 0 511 511;" xml:space="preserve">
<g>
	<path d="M476.5,90h-111V25c0-13.807-11.193-25-25-25h-170c-13.807,0-25,11.193-25,25v65h-111c-13.807,0-25,11.193-25,25
		s11.193,25,25,25h25v306c0,35.841,29.159,65,65,65h262c35.841,0,65-29.159,65-65V140h25c13.807,0,25-11.193,25-25
		S490.307,90,476.5,90z M195.5,50h120v40h-120V50z M401.5,446c0,8.271-6.729,15-15,15h-262c-8.271,0-15-6.729-15-15V140h292V446z"/>
	<path d="M198.5,200c-13.807,0-25,11.193-25,25v151c0,13.807,11.193,25,25,25s25-11.193,25-25V225
		C223.5,211.193,212.307,200,198.5,200z"/>
	<path d="M312.5,200c-13.807,0-25,11.193-25,25v151c0,13.807,11.193,25,25,25s25-11.193,25-25V225
		C337.5,211.193,326.307,200,312.5,200z"/>
</g>
<g>
</g>
<g>
</g>
<g>
</g>
<g>
</g>
<g>
</g>
<g>
</g>
<g>
</g>
<g>
</g>
<g>
</g>
<g>
</g>
<g>
</g>
<g>
</g>
<g>
</g>
<g>
</g>
<g>
</g>
</svg>
