<svg xmlns="http://www.w3.org/2000/svg" viewBox="-49 141 512 512"><path d="M428 231.5H317v-65c0-13.807-11.193-25-25-25H122c-13.807 0-25 11.193-25 25v65H-14c-13.807 0-25 11.193-25 25s11.193 25 25 25h25v306c0 35.841 29.159 65 65 65h262c35.841 0 65-29.159 65-65v-306h25c13.807 0 25-11.193 25-25s-11.193-25-25-25zm-281-40h120v40H147v-40zm206 396c0 8.271-6.729 15-15 15H76c-8.271 0-15-6.729-15-15v-306h292v306z"/><path d="M150 341.5c-13.807 0-25 11.193-25 25v151c0 13.807 11.193 25 25 25s25-11.193 25-25v-151c0-13.807-11.193-25-25-25zm114 0c-13.807 0-25 11.193-25 25v151c0 13.807 11.193 25 25 25s25-11.193 25-25v-151c0-13.807-11.193-25-25-25z"/></svg>