<?xml version="1.0" encoding="iso-8859-1"?>
<!-- Generator: Adobe Illustrator 19.0.0, SVG Export Plug-In . SVG Version: 6.00 Build 0)  -->
<svg version="1.1" id="Layer_1" xmlns="http://www.w3.org/2000/svg" xmlns:xlink="http://www.w3.org/1999/xlink" x="0px" y="0px"
	 viewBox="-49 141 512 512" style="enable-background:new -49 141 512 512;" xml:space="preserve">
<g>
	<path d="M428,231.5H317v-65c0-13.807-11.193-25-25-25H122c-13.807,0-25,11.193-25,25v65H-14c-13.807,0-25,11.193-25,25
		s11.193,25,25,25h25v306c0,35.841,29.159,65,65,65h262c35.841,0,65-29.159,65-65v-306h25c13.807,0,25-11.193,25-25
		S441.807,231.5,428,231.5z M147,191.5h120v40H147V191.5z M353,587.5c0,8.271-6.729,15-15,15H76c-8.271,0-15-6.729-15-15v-306h292
		V587.5z"/>
	<path d="M150,341.5c-13.807,0-25,11.193-25,25v151c0,13.807,11.193,25,25,25s25-11.193,25-25v-151
		C175,352.693,163.807,341.5,150,341.5z"/>
	<path d="M264,341.5c-13.807,0-25,11.193-25,25v151c0,13.807,11.193,25,25,25s25-11.193,25-25v-151
		C289,352.693,277.807,341.5,264,341.5z"/>
</g>
</svg>
