<?xml version="1.0" encoding="iso-8859-1"?>
<!-- Generator: Adobe Illustrator 19.0.0, SVG Export Plug-In . SVG Version: 6.00 Build 0)  -->
<svg version="1.1" id="Layer_1" xmlns="http://www.w3.org/2000/svg" xmlns:xlink="http://www.w3.org/1999/xlink" x="0px" y="0px"
	 viewBox="0 0 340 340" style="enable-background:new 0 0 340 340;" xml:space="preserve">
<g>
	<path style="fill:#231F20;" d="M165.826,114.176C95.885,105.321,65.99,82.017,31.318,46.882c-5.02-5.086-13.745-2.775-15.442,4.167
		c-6.482,26.522-5.125,51.629,15.57,73.754c9.827,10.886,7.616,12.442-9.335,5.962c-5.896-2.074-11.055-3.629-11.546-2.851
		c-1.74,1.836,1.924,46.504,42.501,67.909l12.038,5.961l-14.249,0.259c-13.757,0-14.249,0.259-12.775,5.702
		c8.795,30.159,45.018,42.179,61.171,47.951c-12.909,8.071-38.31,26.559-79.105,27.475C9.09,283.431,0,284.468,0,285.245
		c0,3.25,104.874,67.546,208.573,3.629c52.896-32.658,98.513-107.44,98.513-178.327c0-11.923,0.737-13.478,14.494-27.734
		c8.107-8.294,15.723-17.366,17.197-19.958c2.457-4.925,2.211-4.925-10.318-0.519c-20.882,7.776-23.83,6.739-13.512-4.925
		c7.616-8.294,16.706-23.328,16.706-27.734c0-0.778-3.685,0.518-7.861,2.851c-4.422,2.592-14.249,6.48-21.619,8.813l-13.266,4.406
		c-7.947-5.647-22.698-16.723-32.92-19.958c-48.836-14.144-94.214,26.303-90.898,75.685
		C165.089,101.475,165.089,101.475,165.826,114.176z"/>
</g>
<g>
</g>
<g>
</g>
<g>
</g>
<g>
</g>
<g>
</g>
<g>
</g>
<g>
</g>
<g>
</g>
<g>
</g>
<g>
</g>
<g>
</g>
<g>
</g>
<g>
</g>
<g>
</g>
<g>
</g>
</svg>
