<?xml version="1.0" encoding="iso-8859-1"?>
<!-- Generator: Adobe Illustrator 19.0.0, SVG Export Plug-In . SVG Version: 6.00 Build 0)  -->
<svg version="1.1" id="Layer_1" xmlns="http://www.w3.org/2000/svg" xmlns:xlink="http://www.w3.org/1999/xlink" x="0px" y="0px"
	 viewBox="0 0 362 362" style="enable-background:new 0 0 362 362;" xml:space="preserve">
<g>
	<g>
		<path d="M337,352H25c-13.807,0-25-11.193-25-25s11.193-25,25-25h312c13.807,0,25,11.193,25,25S350.807,352,337,352z"/>
	</g>
	<g>
		<path d="M181,262c-62.309,0-113-50.691-113-113V35c0-13.807,11.193-25,25-25s25,11.193,25,25v114c0,34.738,28.262,63,63,63
			s63-28.262,63-63V35c0-13.807,11.193-25,25-25s25,11.193,25,25v114C294,211.309,243.309,262,181,262z"/>
	</g>
</g>
<g>
</g>
<g>
</g>
<g>
</g>
<g>
</g>
<g>
</g>
<g>
</g>
<g>
</g>
<g>
</g>
<g>
</g>
<g>
</g>
<g>
</g>
<g>
</g>
<g>
</g>
<g>
</g>
<g>
</g>
</svg>
