<?xml version="1.0" encoding="iso-8859-1"?>
<!-- Generator: Adobe Illustrator 19.0.0, SVG Export Plug-In . SVG Version: 6.00 Build 0)  -->
<svg version="1.1" id="Layer_1" xmlns="http://www.w3.org/2000/svg" xmlns:xlink="http://www.w3.org/1999/xlink" x="0px" y="0px"
	 viewBox="-49 141 512 512" style="enable-background:new -49 141 512 512;" xml:space="preserve">
<g>
	<g>
		<path d="M363,568H51c-13.807,0-25-11.193-25-25s11.193-25,25-25h312c13.807,0,25,11.193,25,25S376.807,568,363,568z"/>
	</g>
	<g>
		<path d="M207,478c-62.309,0-113-50.691-113-113V251c0-13.807,11.193-25,25-25s25,11.193,25,25v114c0,34.738,28.262,63,63,63
			s63-28.262,63-63V251c0-13.807,11.193-25,25-25s25,11.193,25,25v114C320,427.309,269.309,478,207,478z"/>
	</g>
</g>
</svg>
