<?xml version="1.0" encoding="iso-8859-1"?>
<!-- Generator: Adobe Illustrator 19.0.0, SVG Export Plug-In . SVG Version: 6.00 Build 0)  -->
<svg version="1.1" id="Layer_1" xmlns="http://www.w3.org/2000/svg" xmlns:xlink="http://www.w3.org/1999/xlink" x="0px" y="0px"
	 viewBox="0 0 512 512" style="enable-background:new 0 0 512 512;" xml:space="preserve">
<g>
	<path d="M487,482c-13.807,0-25-11.192-25-25c0-68.925-56.075-125-125-125H231v65c0,9.982-5.938,19.008-15.106,22.959
		c-9.169,3.95-19.807,2.068-27.063-4.786l-181-171C2.833,239.45,0,232.877,0,226s2.833-13.45,7.832-18.173l181-171
		c7.256-6.854,17.896-8.735,27.063-4.786C225.062,35.992,231,45.018,231,55v65h94c103.112,0,187,83.888,187,187v150
		C512,470.808,500.807,482,487,482z M61.404,226L181,338.988V307c0-13.808,11.193-25,25-25h131c48.919,0,93.213,20.175,125,52.643
		V307c0-75.542-61.458-137-137-137H206c-13.807,0-25-11.192-25-25v-31.988L61.404,226z"/>
</g>
<g>
</g>
<g>
</g>
<g>
</g>
<g>
</g>
<g>
</g>
<g>
</g>
<g>
</g>
<g>
</g>
<g>
</g>
<g>
</g>
<g>
</g>
<g>
</g>
<g>
</g>
<g>
</g>
<g>
</g>
</svg>
