<?xml version="1.0" encoding="iso-8859-1"?>
<!-- Generator: Adobe Illustrator 19.0.0, SVG Export Plug-In . SVG Version: 6.00 Build 0)  -->
<svg version="1.1" id="Layer_1" xmlns="http://www.w3.org/2000/svg" xmlns:xlink="http://www.w3.org/1999/xlink" x="0px" y="0px"
	 viewBox="-49 141 512 512" style="enable-background:new -49 141 512 512;" xml:space="preserve">
<g>
	<path d="M438,623c-13.807,0-25-11.192-25-25c0-68.925-56.075-125-125-125H182v65c0,9.982-5.938,19.008-15.106,22.959
		c-9.169,3.95-19.807,2.068-27.063-4.786l-181-171C-46.167,380.45-49,373.877-49,367c0-6.877,2.833-13.45,7.832-18.173l181-171
		c7.256-6.854,17.896-8.735,27.063-4.786C176.062,176.992,182,186.018,182,196v65h94c103.112,0,187,83.888,187,187v150
		C463,611.808,451.807,623,438,623z M12.404,367L132,479.988V448c0-13.808,11.193-25,25-25h131c48.919,0,93.213,20.175,125,52.643
		V448c0-75.542-61.458-137-137-137H157c-13.807,0-25-11.192-25-25v-31.988L12.404,367z"/>
</g>
</svg>
