<?xml version="1.0" encoding="iso-8859-1"?>
<!-- Generator: Adobe Illustrator 19.0.0, SVG Export Plug-In . SVG Version: 6.00 Build 0)  -->
<svg version="1.1" id="Layer_1" xmlns="http://www.w3.org/2000/svg" xmlns:xlink="http://www.w3.org/1999/xlink" x="0px" y="0px"
	 viewBox="-49 141 512 512" style="enable-background:new -49 141 512 512;" xml:space="preserve">
<path id="XMLID_39_" d="M348,341H107v-50c0-55.14,44.86-100,100-100c22.552,0,43.833,7.322,61.544,21.175
	c10.875,8.506,26.588,6.587,35.094-4.29c8.506-10.875,6.586-26.587-4.29-35.094C272.759,151.993,240.825,141,207,141
	c-82.71,0-150,67.29-150,150v50.637C25.405,346.035,1,373.214,1,406v182c0,35.841,29.159,65,65,65h282c35.841,0,65-29.159,65-65V406
	C413,370.159,383.841,341,348,341z M363,588c0,8.271-6.729,15-15,15H66c-8.271,0-15-6.729-15-15V406c0-8.271,6.729-15,15-15h282
	c8.271,0,15,6.729,15,15V588z"/>
</svg>
