<?xml version="1.0" encoding="iso-8859-1"?>
<!-- Generator: Adobe Illustrator 19.0.0, SVG Export Plug-In . SVG Version: 6.00 Build 0)  -->
<svg version="1.1" id="Layer_1" xmlns="http://www.w3.org/2000/svg" xmlns:xlink="http://www.w3.org/1999/xlink" x="0px" y="0px"
	 viewBox="0 0 512 512" style="enable-background:new 0 0 512 512;" xml:space="preserve">
<path d="M397,200H156v-50c0-55.14,44.86-100,100-100c47.774,0,89.056,33.969,98.158,80.771
	c2.636,13.554,15.762,22.404,29.313,19.768c13.553-2.636,22.404-15.759,19.768-29.313C389.578,50.983,327.655,0,256,0
	c-82.71,0-150,67.29-150,150v50.638C74.405,205.035,50,232.213,50,265v182c0,35.841,29.159,65,65,65h282c35.841,0,65-29.159,65-65
	V265C462,229.159,432.841,200,397,200z M412,447c0,8.271-6.729,15-15,15H115c-8.271,0-15-6.729-15-15V265c0-8.271,6.729-15,15-15
	h282c8.271,0,15,6.729,15,15V447z"/>
<g>
</g>
<g>
</g>
<g>
</g>
<g>
</g>
<g>
</g>
<g>
</g>
<g>
</g>
<g>
</g>
<g>
</g>
<g>
</g>
<g>
</g>
<g>
</g>
<g>
</g>
<g>
</g>
<g>
</g>
</svg>
