<?xml version="1.0" encoding="iso-8859-1"?>
<!-- Generator: Adobe Illustrator 19.0.0, SVG Export Plug-In . SVG Version: 6.00 Build 0)  -->
<svg version="1.1" id="Layer_1" xmlns="http://www.w3.org/2000/svg" xmlns:xlink="http://www.w3.org/1999/xlink" x="0px" y="0px"
	 viewBox="-49 141 512 512" style="enable-background:new -49 141 512 512;" xml:space="preserve">
<path d="M348,341H107v-50c0-55.14,44.86-100,100-100c47.774,0,89.056,33.969,98.158,80.771
	c2.636,13.554,15.762,22.404,29.313,19.768c13.553-2.636,22.404-15.759,19.768-29.313C340.578,191.983,278.655,141,207,141
	c-82.71,0-150,67.29-150,150v50.638C25.405,346.035,1,373.213,1,406v182c0,35.841,29.159,65,65,65h282c35.841,0,65-29.159,65-65V406
	C413,370.159,383.841,341,348,341z M363,588c0,8.271-6.729,15-15,15H66c-8.271,0-15-6.729-15-15V406c0-8.271,6.729-15,15-15h282
	c8.271,0,15,6.729,15,15V588z"/>
</svg>
