<?xml version="1.0" encoding="iso-8859-1"?>
<!-- Generator: Adobe Illustrator 19.0.0, SVG Export Plug-In . SVG Version: 6.00 Build 0)  -->
<svg version="1.1" id="Layer_1" xmlns="http://www.w3.org/2000/svg" xmlns:xlink="http://www.w3.org/1999/xlink" x="0px" y="0px"
	 viewBox="-147 43 708 708" style="enable-background:new -147 43 708 708;" xml:space="preserve">
<path id="XMLID_53_" d="M554.389,262.227C540.729,191.983,478.731,141,407.076,141C324.366,141,257,208.29,257,291v50H16.151
	C-19.69,341-49,370.159-49,406v182c0,35.841,29.31,65,65.151,65h282C333.992,653,363,623.841,363,588V406
	c0-32.786-24-59.965-56-64.363V291c0-55.14,44.935-100,100.076-100c47.774,0,89.094,33.969,98.195,80.771
	c2.636,13.553,15.776,22.403,29.331,19.768C548.155,288.903,557.024,275.78,554.389,262.227z M313,588c0,8.284-6.716,15-15,15H16
	c-8.284,0-15-6.716-15-15V406c0-8.284,6.716-15,15-15h282c8.284,0,15,6.716,15,15V588z"/>
</svg>
