<svg xmlns="http://www.w3.org/2000/svg" viewBox="-49 141 512 512"><path d="M348 341H107v-50c0-55.14 44.86-100 100-100 47.774 0 89.056 33.969 98.158 80.771 2.636 13.554 15.762 22.404 29.313 19.768 13.553-2.636 22.404-15.759 19.768-29.313C340.578 191.983 278.655 141 207 141c-82.71 0-150 67.29-150 150v50.638C25.405 346.035 1 373.213 1 406v182c0 35.841 29.159 65 65 65h282c35.841 0 65-29.159 65-65V406c0-35.841-29.159-65-65-65zm15 247c0 8.271-6.729 15-15 15H66c-8.271 0-15-6.729-15-15V406c0-8.271 6.729-15 15-15h282c8.271 0 15 6.729 15 15v182z"/></svg>