<svg xmlns="http://www.w3.org/2000/svg" viewBox="-49 141 512 512"><path d="M348 341H107v-50c0-55.14 44.86-100 100-100 22.552 0 43.833 7.322 61.544 21.175 10.875 8.506 26.588 6.587 35.094-4.29 8.506-10.875 6.586-26.587-4.29-35.094C272.759 151.993 240.825 141 207 141c-82.71 0-150 67.29-150 150v50.637C25.405 346.035 1 373.214 1 406v182c0 35.841 29.159 65 65 65h282c35.841 0 65-29.159 65-65V406c0-35.841-29.159-65-65-65zm15 247c0 8.271-6.729 15-15 15H66c-8.271 0-15-6.729-15-15V406c0-8.271 6.729-15 15-15h282c8.271 0 15 6.729 15 15v182z"/></svg>