<?xml version="1.0" encoding="iso-8859-1"?>
<!-- Generator: Adobe Illustrator 19.0.0, SVG Export Plug-In . SVG Version: 6.00 Build 0)  -->
<svg version="1.1" id="Layer_1" xmlns="http://www.w3.org/2000/svg" xmlns:xlink="http://www.w3.org/1999/xlink" x="0px" y="0px"
	 viewBox="-49 141 512 512" style="enable-background:new -49 141 512 512;" xml:space="preserve">
<path id="XMLID_24_" d="M232,527V327.356l42.175,42.175c9.763,9.763,25.592,9.763,35.355,0s9.762-25.592,0-35.355l-84.852-84.854
	C219.99,244.634,213.63,242,207.001,242l0,0c-6.63,0-12.989,2.634-17.678,7.322l-84.853,84.853c-9.762,9.763-9.763,25.592,0,35.355
	s25.592,9.763,35.355,0L182,327.355V527c0,13.807,11.193,25,25,25l0,0C220.807,552,232,540.807,232,527z"/>
</svg>
