<?xml version="1.0" encoding="iso-8859-1"?>
<!-- Generator: Adobe Illustrator 19.0.0, SVG Export Plug-In . SVG Version: 6.00 Build 0)  -->
<svg version="1.1" id="Layer_1" xmlns="http://www.w3.org/2000/svg" xmlns:xlink="http://www.w3.org/1999/xlink" x="0px" y="0px"
	 viewBox="0 0 310 310" style="enable-background:new 0 0 310 310;" xml:space="preserve">
<path d="M180,285V85.356l42.175,42.175c9.763,9.763,25.592,9.763,35.355,0c9.763-9.763,9.762-25.592,0-35.355L172.678,7.322
	C167.989,2.634,161.63,0,155,0h0c-6.63,0-12.989,2.634-17.678,7.322L52.469,92.175c-9.762,9.763-9.763,25.592,0,35.355
	c9.763,9.763,25.592,9.763,35.355,0L130,85.356V285c0,13.807,11.193,25,25,25h0C168.807,310,180,298.807,180,285z"/>
<g>
</g>
<g>
</g>
<g>
</g>
<g>
</g>
<g>
</g>
<g>
</g>
<g>
</g>
<g>
</g>
<g>
</g>
<g>
</g>
<g>
</g>
<g>
</g>
<g>
</g>
<g>
</g>
<g>
</g>
</svg>
