<?xml version="1.0" encoding="utf-8"?>
<!-- Generator: Adobe Illustrator 19.0.0, SVG Export Plug-In . SVG Version: 6.00 Build 0)  -->
<svg version="1.1" id="Layer_1" xmlns="http://www.w3.org/2000/svg" xmlns:xlink="http://www.w3.org/1999/xlink" x="0px" y="0px"
	 viewBox="-49 141 512 512" style="enable-background:new -49 141 512 512;" xml:space="preserve">
<path d="M240.9,527V327.4l42.2,42.2c9.8,9.8,25.6,9.8,35.4,0s9.8-25.6,0-35.4l-84.9-84.9c-4.7-4.7-11-7.3-17.7-7.3l0,0
	c-6.6,0-13,2.6-17.7,7.3l-84.9,84.9c-9.8,9.8-9.8,25.6,0,35.4s25.6,9.8,35.4,0l42.2-42.2V527c0,13.8,11.2,25,25,25l0,0
	C229.7,552,240.9,540.8,240.9,527z"/>
</svg>
