<?xml version="1.0" encoding="iso-8859-1"?>
<!-- Generator: Adobe Illustrator 19.0.0, SVG Export Plug-In . SVG Version: 6.00 Build 0)  -->
<svg version="1.1" id="Layer_1" xmlns="http://www.w3.org/2000/svg" xmlns:xlink="http://www.w3.org/1999/xlink" x="0px" y="0px"
	 viewBox="-49 141 512 512" style="enable-background:new -49 141 512 512;" xml:space="preserve">
<g>
	<g>
		<path d="M378,647H36c-46.869,0-85-38.131-85-85V428c0-13.807,11.192-25,25-25s25,11.193,25,25v134c0,19.299,15.701,35,35,35h342
			c19.299,0,35-15.701,35-35V428c0-13.807,11.192-25,25-25s25,11.193,25,25v134C463,608.869,424.869,647,378,647z"/>
	</g>
	<path d="M309.53,239.175l-84.852-84.853C219.989,149.634,213.631,147,207,147s-12.989,2.634-17.678,7.322l-84.852,84.853
		c-9.763,9.763-9.763,25.592,0,35.355c9.764,9.763,25.592,9.763,35.355,0L182,232.356V513c0,13.807,11.193,25,25,25s25-11.193,25-25
		V232.356l42.175,42.175c9.764,9.763,25.592,9.763,35.355,0S319.293,248.938,309.53,239.175z"/>
</g>
</svg>
