<?xml version="1.0" encoding="iso-8859-1"?>
<!-- Generator: Adobe Illustrator 19.0.0, SVG Export Plug-In . SVG Version: 6.00 Build 0)  -->
<svg version="1.1" id="Layer_1" xmlns="http://www.w3.org/2000/svg" xmlns:xlink="http://www.w3.org/1999/xlink" x="0px" y="0px"
	 viewBox="0 0 512 512" style="enable-background:new 0 0 512 512;" xml:space="preserve">
<g>
	<g>
		<path d="M427,506H85c-46.869,0-85-38.131-85-85V287c0-13.807,11.192-25,25-25s25,11.193,25,25v134c0,19.299,15.701,35,35,35h342
			c19.299,0,35-15.701,35-35V287c0-13.807,11.192-25,25-25s25,11.193,25,25v134C512,467.869,473.869,506,427,506z"/>
	</g>
	<path d="M358.53,98.175l-84.853-84.853C268.989,8.634,262.631,6,256,6s-12.989,2.634-17.678,7.322L153.47,98.175
		c-9.763,9.763-9.763,25.592,0,35.355c9.764,9.763,25.592,9.763,35.355,0L231,91.356V372c0,13.807,11.193,25,25,25s25-11.193,25-25
		V91.356l42.175,42.175c9.764,9.763,25.592,9.763,35.355,0C368.293,123.768,368.293,107.938,358.53,98.175z"/>
</g>
<g>
</g>
<g>
</g>
<g>
</g>
<g>
</g>
<g>
</g>
<g>
</g>
<g>
</g>
<g>
</g>
<g>
</g>
<g>
</g>
<g>
</g>
<g>
</g>
<g>
</g>
<g>
</g>
<g>
</g>
</svg>
