<svg xmlns="http://www.w3.org/2000/svg" viewBox="-49 141 512 512"><path d="M378 647H36c-46.869 0-85-38.131-85-85V428c0-13.807 11.192-25 25-25s25 11.193 25 25v134c0 19.299 15.701 35 35 35h342c19.299 0 35-15.701 35-35V428c0-13.807 11.192-25 25-25s25 11.193 25 25v134c0 46.869-38.131 85-85 85z"/><path d="M309.53 239.175l-84.852-84.853a25.002 25.002 0 0 0-35.356 0l-84.852 84.853c-9.763 9.763-9.763 25.592 0 35.355 9.764 9.763 25.592 9.763 35.355 0L182 232.356V513c0 13.807 11.193 25 25 25s25-11.193 25-25V232.356l42.175 42.175c9.764 9.763 25.592 9.763 35.355 0s9.763-25.593 0-35.356z"/></svg>