<svg xmlns="http://www.w3.org/2000/svg" viewBox="-49 141 512 512"><path d="M136.441 467.579c-9.763-9.763-9.763-25.593 0-35.355l106.066-106.067c9.764-9.764 25.592-9.764 35.355 0 9.763 9.763 9.763 25.593 0 35.355L171.796 467.579c-10.133 10.133-26.189 9.166-35.355 0z"/><path d="M55.116 633.757l-84.853-84.854c-25.073-25.073-25.667-66.257 0-91.924L83.408 343.834c9.764-9.764 25.592-9.764 35.355 0s9.763 25.592 0 35.355L5.619 492.335c-5.667 5.667-5.573 15.639 0 21.212l84.853 84.854c5.74 5.74 15.213 6 21.213 0l113.144-113.144c9.764-9.762 25.594-9.763 35.355 0 9.763 9.764 9.763 25.593 0 35.355L147.04 633.757c-22.813 22.812-64.226 27.698-91.924 0zM295.54 449.901c-9.763-9.763-9.763-25.593 0-35.355l112.86-112.86c5.848-5.849 5.849-15.364 0-21.213l-84.854-84.854c-5.848-5.848-15.364-5.848-21.214.001L189.474 308.479c-9.764 9.764-25.592 9.764-35.355 0-9.763-9.763-9.763-25.593 0-35.355l112.86-112.86c25.345-25.341 66.581-25.343 91.924 0l84.854 84.854c25.343 25.343 25.343 66.579.001 91.923l-112.862 112.86c-9.523 9.522-25.336 10.02-35.356 0z"/></svg>