<?xml version="1.0" encoding="iso-8859-1"?>
<!-- Generator: Adobe Illustrator 19.0.0, SVG Export Plug-In . SVG Version: 6.00 Build 0)  -->
<svg version="1.1" id="Layer_1" xmlns="http://www.w3.org/2000/svg" xmlns:xlink="http://www.w3.org/1999/xlink" x="0px" y="0px"
	 viewBox="-49 141 512 512" style="enable-background:new -49 141 512 512;" xml:space="preserve">
<g>
	<g>
		<path d="M136.441,467.579c-9.763-9.763-9.763-25.593,0-35.355l106.066-106.067c9.764-9.764,25.592-9.764,35.355,0
			c9.763,9.763,9.763,25.593,0,35.355L171.796,467.579C161.663,477.712,145.607,476.745,136.441,467.579z"/>
	</g>
	<g>
		<path d="M55.116,633.757l-84.853-84.854c-25.073-25.073-25.667-66.257,0-91.924L83.408,343.834c9.764-9.764,25.592-9.764,35.355,0
			s9.763,25.592,0,35.355L5.619,492.335c-5.667,5.667-5.573,15.639,0,21.212l84.853,84.854c5.74,5.74,15.213,6,21.213,0
			l113.144-113.144c9.764-9.762,25.594-9.763,35.355,0c9.763,9.764,9.763,25.593,0,35.355L147.04,633.757
			C124.227,656.569,82.814,661.455,55.116,633.757z"/>
	</g>
	<g>
		<path d="M295.54,449.901c-9.763-9.763-9.763-25.593,0-35.355l112.86-112.86c5.848-5.849,5.849-15.364,0-21.213l-84.854-84.854
			c-5.848-5.848-15.364-5.848-21.214,0.001L189.474,308.479c-9.764,9.764-25.592,9.764-35.355,0c-9.763-9.763-9.763-25.593,0-35.355
			l112.86-112.86c25.345-25.341,66.581-25.343,91.924,0l84.854,84.854c25.343,25.343,25.343,66.579,0.001,91.923l-112.862,112.86
			C321.373,459.423,305.56,459.921,295.54,449.901z"/>
	</g>
</g>
</svg>
