<?xml version="1.0" encoding="iso-8859-1"?>
<!-- Generator: Adobe Illustrator 19.0.0, SVG Export Plug-In . SVG Version: 6.00 Build 0)  -->
<svg version="1.1" id="Layer_1" xmlns="http://www.w3.org/2000/svg" xmlns:xlink="http://www.w3.org/1999/xlink" x="0px" y="0px"
	 viewBox="0 0 511.528 511.528" style="enable-background:new 0 0 511.528 511.528;" xml:space="preserve">
<g>
	<g>
		<path d="M185.206,326.343c-9.763-9.763-9.763-25.593,0-35.355l106.066-106.066c9.764-9.764,25.592-9.764,35.355,0
			c9.763,9.763,9.763,25.593,0,35.355L220.561,326.343C210.428,336.477,194.372,335.51,185.206,326.343z"/>
	</g>
	<g>
		<path d="M103.881,492.521l-84.853-84.854c-25.073-25.073-25.667-66.257,0-91.924l113.145-113.145
			c9.764-9.764,25.592-9.764,35.355,0c9.763,9.764,9.763,25.592,0,35.355L54.384,351.099c-5.667,5.667-5.573,15.639,0,21.212
			l84.853,84.854c5.74,5.74,15.213,6,21.213,0l113.145-113.145c9.764-9.762,25.594-9.763,35.355,0
			c9.763,9.764,9.763,25.593,0,35.355L195.805,492.521C172.992,515.333,131.579,520.219,103.881,492.521z"/>
	</g>
	<g>
		<path d="M344.305,308.666c-9.763-9.763-9.763-25.593,0-35.355l112.86-112.86c5.848-5.849,5.849-15.364,0-21.213l-84.854-84.854
			c-5.848-5.848-15.364-5.848-21.214,0.001L238.239,167.244c-9.764,9.764-25.592,9.764-35.355,0c-9.763-9.763-9.763-25.593,0-35.355
			l112.86-112.86c25.345-25.341,66.581-25.343,91.924,0l84.854,84.854c25.343,25.343,25.343,66.579,0.001,91.923L379.661,308.666
			C370.138,318.188,354.325,318.685,344.305,308.666z"/>
	</g>
</g>
<g>
</g>
<g>
</g>
<g>
</g>
<g>
</g>
<g>
</g>
<g>
</g>
<g>
</g>
<g>
</g>
<g>
</g>
<g>
</g>
<g>
</g>
<g>
</g>
<g>
</g>
<g>
</g>
<g>
</g>
</svg>
