<?xml version="1.0" encoding="iso-8859-1"?>
<!-- Generator: Adobe Illustrator 19.0.0, SVG Export Plug-In . SVG Version: 6.00 Build 0)  -->
<svg version="1.1" id="Layer_1" xmlns="http://www.w3.org/2000/svg" xmlns:xlink="http://www.w3.org/1999/xlink" x="0px" y="0px"
	 viewBox="-49 141 512 512" style="enable-background:new -49 141 512 512;" xml:space="preserve">
<g>
	<path d="M423,638H-9c-13.807,0-25-11.193-25-25c0-53.438,17.131-104.058,49.542-146.388c22.2-28.994,50.961-52.656,83.376-69.006
		C75.53,371.377,62,337.07,62,301c0-79.953,65.047-145,145-145s145,65.047,145,145c0,36.07-13.53,70.377-36.918,96.606
		c32.416,16.349,61.177,40.012,83.376,69.005C430.869,508.942,448,559.562,448,613C448,626.807,436.807,638,423,638z M17.657,588
		h378.687c-9.908-74.383-63.38-137.724-136.792-158.682c-9.672-2.761-16.748-11.051-17.956-21.038s3.688-19.724,12.423-24.712
		C283.615,366.669,302,335.03,302,301c0-52.383-42.617-95-95-95s-95,42.617-95,95c0,34.03,18.386,65.668,47.981,82.568
		c8.735,4.988,13.63,14.726,12.423,24.712c-1.208,9.986-8.284,18.276-17.956,21.038C81.037,450.276,27.564,513.617,17.657,588z"/>
</g>
</svg>
