<?xml version="1.0" encoding="utf-8"?>
<!-- Generator: Adobe Illustrator 24.0.1, SVG Export Plug-In . SVG Version: 6.00 Build 0)  -->
<svg version="1.1" id="Capa_1" xmlns="http://www.w3.org/2000/svg" xmlns:xlink="http://www.w3.org/1999/xlink" x="0px" y="0px"
	 viewBox="0 0 512 512" style="enable-background:new 0 0 512 512;" xml:space="preserve">
<path d="M407.2,255.1c17.7-21.4,27.8-48.1,27.8-75.9C435,112.3,380.7,58,314,58c-43.2,0-81.2,22.4-102.9,56.1
	c-16.1-10.8-35.3-16.8-54.9-16.8c-54.3,0-98.6,43.9-98.6,97.9c0,20.2,6.5,39.6,18.1,55.9c-16.6,10.1-31.5,23.2-43.4,38.7
	C11.2,317.2,0,350.1,0,384.7c0,13.8,11.2,25,25,25h92c-0.6,6.4-1,12.8-1,19.3c0,13.8,11.2,25,25,25h346c13.8,0,25-11.2,25-25
	C512,355.9,470.5,289.3,407.2,255.1z M53,359.7c9-36.4,37-66.5,74.3-77.1c9.7-2.8,16.7-11.1,18-21c1.2-10-3.7-19.7-12.4-24.7
	c-15.6-8.9-25.2-24.8-25.2-41.6c0-26.4,21.8-47.9,48.6-47.9c14,0,27.5,6.2,36.8,16.8c-0.6,4.9-0.9,10-0.9,15
	c0,27.7,10.4,54.6,28.5,76.1c-42.3,23-74.8,60.4-91.7,104.5H53z M168.2,404c9.7-55,50.9-101.4,106.7-117.3c9.7-2.8,16.7-11.1,18-21
	s-3.7-19.7-12.4-24.7c-23.3-13.3-38.4-37.6-38.4-61.8c0-18.9,7.5-36.7,21.2-50.2c13.7-13.5,31.7-20.9,50.8-20.9
	c39.1,0,71,31.9,71,71.1c0,25-14.3,48.6-37.4,61.8c-8.7,5-13.6,14.7-12.4,24.7s8.3,18.3,18,21c55.8,15.9,97,62.4,106.7,117.3H168.2z
	"/>
</svg>
