<?xml version="1.0" encoding="iso-8859-1"?>
<!-- Generator: Adobe Illustrator 19.0.0, SVG Export Plug-In . SVG Version: 6.00 Build 0)  -->
<svg version="1.1" id="Layer_1" xmlns="http://www.w3.org/2000/svg" xmlns:xlink="http://www.w3.org/1999/xlink" x="0px" y="0px"
	 viewBox="0 0 482 482" style="enable-background:new 0 0 482 482;" xml:space="preserve">
<g>
	<path d="M457,482H25c-13.807,0-25-11.193-25-25c0-53.438,17.131-104.058,49.542-146.388c22.2-28.994,50.961-52.656,83.376-69.006
		C109.53,215.377,96,181.07,96,145C96,65.047,161.047,0,241,0s145,65.047,145,145c0,36.07-13.53,70.377-36.918,96.606
		c32.416,16.349,61.177,40.012,83.376,69.005C464.869,352.942,482,403.562,482,457C482,470.807,470.807,482,457,482z M51.657,432
		h378.687c-9.908-74.383-63.38-137.724-136.792-158.682c-9.672-2.761-16.748-11.051-17.956-21.038
		c-1.208-9.987,3.688-19.724,12.423-24.712C317.615,210.669,336,179.03,336,145c0-52.383-42.617-95-95-95s-95,42.617-95,95
		c0,34.03,18.386,65.668,47.981,82.568c8.735,4.988,13.63,14.726,12.423,24.712c-1.208,9.986-8.284,18.276-17.956,21.038
		C115.037,294.276,61.564,357.617,51.657,432z"/>
</g>
<g>
</g>
<g>
</g>
<g>
</g>
<g>
</g>
<g>
</g>
<g>
</g>
<g>
</g>
<g>
</g>
<g>
</g>
<g>
</g>
<g>
</g>
<g>
</g>
<g>
</g>
<g>
</g>
<g>
</g>
</svg>
