<svg xmlns="http://www.w3.org/2000/svg" viewBox="-49 141 512 512"><path d="M423 638H-9c-13.807 0-25-11.193-25-25 0-53.438 17.131-104.058 49.542-146.388 22.2-28.994 50.961-52.656 83.376-69.006C75.53 371.377 62 337.07 62 301c0-79.953 65.047-145 145-145s145 65.047 145 145c0 36.07-13.53 70.377-36.918 96.606 32.416 16.349 61.177 40.012 83.376 69.005C430.869 508.942 448 559.562 448 613c0 13.807-11.193 25-25 25zM17.657 588h378.687c-9.908-74.383-63.38-137.724-136.792-158.682a25 25 0 0 1-5.533-45.75C283.615 366.669 302 335.03 302 301c0-52.383-42.617-95-95-95s-95 42.617-95 95c0 34.03 18.386 65.668 47.981 82.568a25.003 25.003 0 0 1 12.423 24.712 25.003 25.003 0 0 1-17.956 21.038C81.037 450.276 27.564 513.617 17.657 588z"/></svg>