<?xml version="1.0" encoding="iso-8859-1"?>
<!-- Generator: Adobe Illustrator 19.0.0, SVG Export Plug-In . SVG Version: 6.00 Build 0)  -->
<svg version="1.1" id="Layer_1" xmlns="http://www.w3.org/2000/svg" xmlns:xlink="http://www.w3.org/1999/xlink" x="0px" y="0px"
	 viewBox="0 0 462 462" style="enable-background:new 0 0 462 462;" xml:space="preserve">
<g>
	<path d="M417.77,0H356.23C331.842,0,312,19.842,312,44.23v4.27h-37.5c-13.808,0-25,11.192-25,25s11.192,25,25,25H312v7.27
		c0,24.389,19.842,44.23,44.23,44.23H362v36c0,13.808,11.192,25,25,25s25-11.192,25-25v-36h5.77c24.389,0,44.23-19.842,44.23-44.23
		V44.23C462,19.842,442.158,0,417.77,0z M412,100h-50V50h50V100z"/>
	<path d="M417.77,312H412v-36c0-13.808-11.192-25-25-25s-25,11.192-25,25v36h-5.77c-24.389,0-44.23,19.842-44.23,44.23v7.27h-37.5
		c-13.808,0-25,11.192-25,25s11.192,25,25,25H312v4.27c0,24.389,19.842,44.23,44.23,44.23h61.539c24.389,0,44.23-19.842,44.23-44.23
		V356.23C462,331.842,442.158,312,417.77,312z M412,412h-50v-50h50V412z"/>
	<path d="M184.5,48.5H150v-4.27C150,19.842,130.158,0,105.77,0H44.23C19.842,0,0,19.842,0,44.23v61.539
		C0,130.158,19.842,150,44.23,150H47v36c0,13.808,11.192,25,25,25s25-11.192,25-25v-36h8.77c24.389,0,44.23-19.842,44.23-44.23V98.5
		h34.5c13.808,0,25-11.192,25-25S198.308,48.5,184.5,48.5z M100,100H50V50h50V100z"/>
	<path d="M184.5,363.5H150v-7.27c0-24.389-19.842-44.23-44.23-44.23H97v-36c0-13.808-11.192-25-25-25s-25,11.192-25,25v36h-2.77
		C19.842,312,0,331.842,0,356.23v61.539C0,442.158,19.842,462,44.23,462h61.539c24.389,0,44.23-19.842,44.23-44.23v-4.27h34.5
		c13.808,0,25-11.192,25-25S198.308,363.5,184.5,363.5z M100,412H50v-50h50V412z"/>
</g>
<g>
</g>
<g>
</g>
<g>
</g>
<g>
</g>
<g>
</g>
<g>
</g>
<g>
</g>
<g>
</g>
<g>
</g>
<g>
</g>
<g>
</g>
<g>
</g>
<g>
</g>
<g>
</g>
<g>
</g>
</svg>
