<svg xmlns="http://www.w3.org/2000/svg" viewBox="-49 141 512 512"><path d="M393.77 166h-61.54c-24.388 0-44.23 19.842-44.23 44.23v4.27h-37.5c-13.808 0-25 11.192-25 25s11.192 25 25 25H288v7.27c0 24.389 19.842 44.23 44.23 44.23H338v36c0 13.808 11.192 25 25 25s25-11.192 25-25v-36h5.77c24.389 0 44.23-19.842 44.23-44.23v-61.54c0-24.388-19.842-44.23-44.23-44.23zM388 266h-50v-50h50v50zm5.77 212H388v-36c0-13.808-11.192-25-25-25s-25 11.192-25 25v36h-5.77c-24.389 0-44.23 19.842-44.23 44.23v7.27h-37.5c-13.808 0-25 11.192-25 25s11.192 25 25 25H288v4.27c0 24.389 19.842 44.23 44.23 44.23h61.539c24.389 0 44.23-19.842 44.23-44.23v-61.54C438 497.842 418.158 478 393.77 478zM388 578h-50v-50h50v50zM160.5 214.5H126v-4.27c0-24.388-19.842-44.23-44.23-44.23H20.23C-4.158 166-24 185.842-24 210.23v61.539C-24 296.158-4.158 316 20.23 316H23v36c0 13.808 11.192 25 25 25s25-11.192 25-25v-36h8.77c24.389 0 44.23-19.842 44.23-44.23v-7.27h34.5c13.808 0 25-11.192 25-25s-11.192-25-25-25zM76 266H26v-50h50v50zm84.5 263.5H126v-7.27c0-24.389-19.842-44.23-44.23-44.23H73v-36c0-13.808-11.192-25-25-25s-25 11.192-25 25v36h-2.77C-4.158 478-24 497.842-24 522.23v61.539C-24 608.158-4.158 628 20.23 628h61.539c24.389 0 44.23-19.842 44.23-44.23v-4.27h34.5c13.808 0 25-11.192 25-25s-11.191-25-24.999-25zM76 578H26v-50h50v50z"/></svg>