<?xml version="1.0" encoding="utf-8"?>
<!-- Generator: Adobe Illustrator 24.0.1, SVG Export Plug-In . SVG Version: 6.00 Build 0)  -->
<svg version="1.1" id="Capa_1" xmlns="http://www.w3.org/2000/svg" xmlns:xlink="http://www.w3.org/1999/xlink" x="0px" y="0px"
	 viewBox="0 0 512 512" style="enable-background:new 0 0 512 512;" xml:space="preserve">
<path d="M491.4,143.7c-6.6-4.7-15.1-5.9-22.8-3.1L371,175.2V151c0-35.8-29.2-65-65-65H75c-35.8,0-65,29.2-65,65v210
	c0,35.8,29.2,65,65,65h231c35.8,0,65-29.2,65-65v-23.6l97.6,34.7c2.7,1,5.5,1.4,8.4,1.4c5.1,0,10.1-1.6,14.4-4.6
	c6.6-4.7,10.6-12.3,10.6-20.4V164.2C502,156,498.1,148.4,491.4,143.7z M321,361c0,8.3-6.7,15-15,15H75c-8.3,0-15-6.7-15-15V151
	c0-8.3,6.7-15,15-15h231c8.3,0,15,6.7,15,15V361z M452,313.1l-79.6-28.3c-0.5-0.2-0.9-0.3-1.4-0.4v-56.2c0.5-0.1,0.9-0.3,1.4-0.4
	l79.6-28.3V313.1z"/>
</svg>
