<?xml version="1.0" encoding="iso-8859-1"?>
<!-- Generator: Adobe Illustrator 19.0.0, SVG Export Plug-In . SVG Version: 6.00 Build 0)  -->
<svg version="1.1" id="Layer_1" xmlns="http://www.w3.org/2000/svg" xmlns:xlink="http://www.w3.org/1999/xlink" x="0px" y="0px"
	 viewBox="0 0 512 512" style="enable-background:new 0 0 512 512;" xml:space="preserve">
<path d="M501.093,174.351c-6.824-4.658-15.509-5.642-23.203-2.632L397,203.372V195c0-30.327-24.673-55-55-55h-53.596l-52.606-78.872
	C231.161,54.176,223.357,50,215,50H25C11.193,50,0,61.193,0,75s11.193,25,25,25h176.624l26.679,40H55c-30.327,0-55,24.673-55,55v212
	c0,30.327,24.673,55,55,55h287c30.327,0,55-24.673,55-55v-8.372l80.89,31.653c7.693,3.01,16.379,2.025,23.203-2.632
	C507.918,422.991,512,415.262,512,407V195C512,186.738,507.918,179.009,501.093,174.351z M462,370.372l-80.89-31.653
	c-7.693-3.01-16.379-2.025-23.203,2.632C351.082,346.009,347,353.738,347,362v45c0,2.757-2.243,5-5,5H55c-2.757,0-5-2.243-5-5V195
	c0-2.757,2.243-5,5-5h287c2.757,0,5,2.243,5,5v45c0,8.262,4.082,15.991,10.907,20.649c6.824,4.658,15.511,5.643,23.203,2.632
	L462,231.628V370.372z"/>
<g>
</g>
<g>
</g>
<g>
</g>
<g>
</g>
<g>
</g>
<g>
</g>
<g>
</g>
<g>
</g>
<g>
</g>
<g>
</g>
<g>
</g>
<g>
</g>
<g>
</g>
<g>
</g>
<g>
</g>
</svg>
