<?xml version="1.0" encoding="iso-8859-1"?>
<!-- Generator: Adobe Illustrator 19.0.0, SVG Export Plug-In . SVG Version: 6.00 Build 0)  -->
<svg version="1.1" id="Layer_1" xmlns="http://www.w3.org/2000/svg" xmlns:xlink="http://www.w3.org/1999/xlink" x="0px" y="0px"
	 viewBox="-49 141 512 512" style="enable-background:new -49 141 512 512;" xml:space="preserve">
<path d="M452.093,315.351c-6.824-4.658-15.509-5.642-23.203-2.632L348,344.372V336c0-30.327-24.673-55-55-55h-53.596l-52.606-78.872
	C182.161,195.176,174.357,191,166,191H-24c-13.807,0-25,11.193-25,25s11.193,25,25,25h176.624l26.679,40H6
	c-30.327,0-55,24.673-55,55v212c0,30.327,24.673,55,55,55h287c30.327,0,55-24.673,55-55v-8.372l80.89,31.653
	c7.693,3.01,16.379,2.025,23.203-2.632C458.918,563.991,463,556.262,463,548V336C463,327.738,458.918,320.009,452.093,315.351z
	 M413,511.372l-80.89-31.653c-7.693-3.01-16.379-2.025-23.203,2.632C302.082,487.009,298,494.738,298,503v45c0,2.757-2.243,5-5,5H6
	c-2.757,0-5-2.243-5-5V336c0-2.757,2.243-5,5-5h287c2.757,0,5,2.243,5,5v45c0,8.262,4.082,15.991,10.907,20.649
	c6.824,4.658,15.511,5.643,23.203,2.632L413,372.628V511.372z"/>
</svg>
