<?xml version="1.0" encoding="utf-8"?>
<!-- Generator: Adobe Illustrator 24.0.1, SVG Export Plug-In . SVG Version: 6.00 Build 0)  -->
<svg version="1.1" id="Capa_1" xmlns="http://www.w3.org/2000/svg" xmlns:xlink="http://www.w3.org/1999/xlink" x="0px" y="0px"
	 viewBox="0 0 512 512" style="enable-background:new 0 0 512 512;" xml:space="preserve">
<g>
	<path d="M347,139.7c-5.4-30.5-32-53.7-64-53.7H75c-35.8,0-65,29.2-65,65v210c0,35.8,29.2,65,65,65h208c32,0,58.6-23.2,64-53.7
		V139.7z"/>
	<path d="M489.5,142.3c-7.7-4.5-17.3-4.5-25,0L387,187.1v138.6l77.5,44.7c3.9,2.2,8.2,3.3,12.5,3.3s8.6-1.1,12.5-3.3
		c7.7-4.5,12.5-12.7,12.5-21.7V164C502,155,497.2,146.8,489.5,142.3z"/>
</g>
</svg>
