<!-- Generated by IcoMoon.io -->
<svg version="1.1" xmlns="http://www.w3.org/2000/svg" width="512" height="512" viewBox="0 0 512 512">
<title></title>
<g id="icon-vimeo">
</g>
<path fill="#000" d="M490.805 61.662c-12.396-13.358-30.341-20.474-53.33-21.149-64.906-2.093-110.81 32.437-136.431 102.615-1.345 3.685-0.524 7.772 2.14 10.666 2.651 2.877 6.632 4.022 10.396 2.989 7.368-2.026 14.675-3.053 21.721-3.053 9.459 0 22.047 1.739 28.313 10.024 4.81 6.358 5.464 15.893 1.945 28.336-2.971 10.498-18.257 38.601-37.178 68.338-23.050 36.231-35.783 52.472-39.454 52.472-12.163 0-56.112-194.876-57.32-199.15-12.606-44.662-18.934-67.082-59.925-67.082-31.242 0-100.923 57.052-158.137 106.755-3.519 3.056-6.482 5.632-8.777 7.593-5.53 4.728-6.364 12.941-1.896 18.697l10.662 13.736c4.491 5.787 12.682 6.995 18.653 2.75l0.587-0.417c18.511-13.169 35.997-25.606 49.198-26.288 14.345-0.704 26.791 21.706 41.631 75.034 28.262 103.58 71.2 227.051 115.266 227.051 46.050 0 100.987-39.037 171.999-131.451 64.272-83.642 98.686-149.978 100.897-198.243v0c1.66-36.453-5.391-63.443-20.958-80.222z"></path>
</svg>
