<?xml version="1.0" encoding="iso-8859-1"?>
<!-- Generator: Adobe Illustrator 19.0.0, SVG Export Plug-In . SVG Version: 6.00 Build 0)  -->
<svg version="1.1" id="Layer_1" xmlns="http://www.w3.org/2000/svg" xmlns:xlink="http://www.w3.org/1999/xlink" x="0px" y="0px"
	 viewBox="0 0 420 420" style="enable-background:new 0 0 420 420;" xml:space="preserve">
<g>
	<g>
		<path style="fill:#231F20;" d="M182.529,144.768h16.633c5.386,0,9.408,4.956,8.298,10.227l-24.261,115.244
			c-0.826,3.924-4.288,6.733-8.298,6.733h-17.391c-5.408,0-9.435-4.994-8.287-10.279l25.02-115.244
			C175.088,147.549,178.538,144.768,182.529,144.768z M89.586,234.353l-14.786-76.539c-1.74-8.698-8.698-13.047-15.656-13.047H0.869
			L0,148.247c12.177,2.609,25.223,6.958,33.921,11.307c5.218,2.609,6.088,5.219,7.828,11.307l25.329,98.866
			c0.961,3.752,4.342,6.376,8.215,6.376h24.318c3.412,0,6.492-2.045,7.816-5.19l48.524-115.244
			c2.353-5.589-1.751-11.771-7.816-11.771h-16.791c-3.473,0-6.594,2.117-7.879,5.344L89.586,234.353z M419.837,266.849
			c1.035,5.241-2.977,10.122-8.32,10.122h-14.159c-3.989,0-7.439-2.78-8.287-6.679l-2.897-13.326h-43.488l-4.977,14.31
			c-1.186,3.409-4.4,5.694-8.009,5.694h-16.89c-6.057,0-10.161-6.166-7.823-11.754l46.398-110.883
			c2.609-6.088,7.828-9.567,14.786-9.567h22.602c4.051,0,7.535,2.864,8.32,6.838L419.837,266.849z M358.859,230.004h19.657
			c2.155,0,3.763-1.982,3.319-4.091l-7.148-33.953c-0.702-3.332-5.325-3.669-6.502-0.474l-12.509,33.953
			C354.86,227.654,356.499,230.004,358.859,230.004z M254.84,181.298c0-4.349,4.349-9.567,14.786-11.307
			c4.203-0.7,13.486-0.837,25.12,2.774c4.784,1.484,9.824-1.361,10.894-6.253l2.335-10.672c0.964-4.405-1.694-8.762-6.033-9.99
			c-6.878-1.946-15.246-3.691-24.488-3.691c-33.921,0-57.404,18.265-57.404,43.488c0,19.135,17.395,29.572,29.572,35.66
			c29.347,13.696,16.821,29.572-3.479,29.572c-11.285,0-19.275-1.83-25.633-4.303c-4.886-1.9-10.302,0.999-11.389,6.128
			l-2.321,10.941c-0.917,4.321,1.621,8.641,5.859,9.888c8.167,2.402,19.282,4.31,30.875,4.31c35.66,0,59.144-17.395,59.144-45.228
			C302.677,199.563,253.971,196.954,254.84,181.298z"/>
	</g>
</g>
<g>
</g>
<g>
</g>
<g>
</g>
<g>
</g>
<g>
</g>
<g>
</g>
<g>
</g>
<g>
</g>
<g>
</g>
<g>
</g>
<g>
</g>
<g>
</g>
<g>
</g>
<g>
</g>
<g>
</g>
</svg>
