<svg xmlns="http://www.w3.org/2000/svg" viewBox="0 0 420 420"><path d="M182.529 144.768h16.633c5.386 0 9.408 4.956 8.298 10.227l-24.261 115.244a8.48 8.48 0 0 1-8.298 6.733H157.51c-5.408 0-9.435-4.994-8.287-10.279l25.02-115.244a8.476 8.476 0 0 1 8.286-6.681zm-92.943 89.585L74.8 157.814c-1.74-8.698-8.698-13.047-15.656-13.047H.869L0 148.247c12.177 2.609 25.223 6.958 33.921 11.307 5.218 2.609 6.088 5.219 7.828 11.307l25.329 98.866a8.48 8.48 0 0 0 8.215 6.376h24.318a8.48 8.48 0 0 0 7.816-5.19l48.524-115.244c2.353-5.589-1.751-11.771-7.816-11.771h-16.791a8.48 8.48 0 0 0-7.879 5.344l-33.879 85.111zm330.251 32.496c1.035 5.241-2.977 10.122-8.32 10.122h-14.159a8.48 8.48 0 0 1-8.287-6.679l-2.897-13.326h-43.488l-4.977 14.31a8.48 8.48 0 0 1-8.009 5.694h-16.89c-6.057 0-10.161-6.166-7.823-11.754l46.398-110.883c2.609-6.088 7.828-9.567 14.786-9.567h22.602a8.48 8.48 0 0 1 8.32 6.838l22.744 115.245zm-60.978-36.845h19.657a3.391 3.391 0 0 0 3.319-4.091l-7.148-33.953c-.702-3.332-5.325-3.669-6.502-.474l-12.509 33.953c-.816 2.215.823 4.565 3.183 4.565zM254.84 181.298c0-4.349 4.349-9.567 14.786-11.307 4.203-.7 13.486-.837 25.12 2.774 4.784 1.484 9.824-1.361 10.894-6.253l2.335-10.672c.964-4.405-1.694-8.762-6.033-9.99-6.878-1.946-15.246-3.691-24.488-3.691-33.921 0-57.404 18.265-57.404 43.488 0 19.135 17.395 29.572 29.572 35.66 29.347 13.696 16.821 29.572-3.479 29.572-11.285 0-19.275-1.83-25.633-4.303-4.886-1.9-10.302.999-11.389 6.128l-2.321 10.941c-.917 4.321 1.621 8.641 5.859 9.888 8.167 2.402 19.282 4.31 30.875 4.31 35.66 0 59.144-17.395 59.144-45.228-.001-33.052-48.707-35.661-47.838-51.317z" fill="#231f20"/></svg>