<?xml version="1.0" encoding="iso-8859-1"?>
<!-- Generator: Adobe Illustrator 19.0.0, SVG Export Plug-In . SVG Version: 6.00 Build 0)  -->
<svg version="1.1" id="Layer_1" xmlns="http://www.w3.org/2000/svg" xmlns:xlink="http://www.w3.org/1999/xlink" x="0px" y="0px"
	 viewBox="-49 141 512 512" style="enable-background:new -49 141 512 512;" xml:space="preserve">
<g>
	<g>
		<path d="M272,588c-13.807,0-25-11.193-25-25s11.193-25,25-25c77.748,0,141-63.252,141-141s-63.252-141-141-141
			c-13.807,0-25-11.193-25-25c0-13.807,11.193-25,25-25c105.318,0,191,85.682,191,191S377.318,588,272,588z"/>
	</g>
	<g>
		<path d="M272,488c-13.807,0-25-11.193-25-25s11.193-25,25-25c22.607,0,41-18.393,41-41s-18.393-41-41-41
			c-13.807,0-25-11.193-25-25s11.193-25,25-25c50.178,0,91,40.822,91,91S322.178,488,272,488z"/>
	</g>
	<path d="M191.567,167.903c-9.342-3.87-20.095-1.73-27.245,5.419L71.644,266H16c-35.841,0-65,29.159-65,65v132
		c0,35.841,29.159,65,65,65h55.645l92.678,92.678c7.15,7.15,17.902,9.29,27.245,5.419c9.342-3.87,15.433-12.986,15.433-23.097V191
		C207,180.889,200.909,171.773,191.567,167.903z M157,542.645l-57.322-57.322c-4.688-4.688-11.047-7.322-17.678-7.322H16
		c-8.271,0-15-6.729-15-15v-132c0-8.271,6.729-15,15-15h66c6.63,0,12.989-2.634,17.678-7.322L157,251.356V542.645z"/>
</g>
</svg>
