<svg xmlns="http://www.w3.org/2000/svg" viewBox="-49 141 512 512"><path d="M272 588c-13.807 0-25-11.193-25-25s11.193-25 25-25c77.748 0 141-63.252 141-141s-63.252-141-141-141c-13.807 0-25-11.193-25-25s11.193-25 25-25c105.318 0 191 85.682 191 191s-85.682 191-191 191z"/><path d="M272 488c-13.807 0-25-11.193-25-25s11.193-25 25-25c22.607 0 41-18.393 41-41s-18.393-41-41-41c-13.807 0-25-11.193-25-25s11.193-25 25-25c50.178 0 91 40.822 91 91s-40.822 91-91 91zM191.567 167.903a25.001 25.001 0 0 0-27.245 5.419L71.644 266H16c-35.841 0-65 29.159-65 65v132c0 35.841 29.159 65 65 65h55.645l92.678 92.678A25 25 0 0 0 207.001 603V191a25.003 25.003 0 0 0-15.434-23.097zM157 542.645l-57.322-57.322A25 25 0 0 0 82 478.001H16c-8.271 0-15-6.729-15-15v-132c0-8.271 6.729-15 15-15h66c6.63 0 12.989-2.634 17.678-7.322L157 251.356v291.289z"/></svg>