<?xml version="1.0" encoding="iso-8859-1"?>
<!-- Generator: Adobe Illustrator 19.0.0, SVG Export Plug-In . SVG Version: 6.00 Build 0)  -->
<svg version="1.1" id="Layer_1" xmlns="http://www.w3.org/2000/svg" xmlns:xlink="http://www.w3.org/1999/xlink" x="0px" y="0px"
	 viewBox="0 0 512 512" style="enable-background:new 0 0 512 512;" xml:space="preserve">
<g>
	<g>
		<path d="M321,447c-13.807,0-25-11.193-25-25s11.193-25,25-25c77.748,0,141-63.252,141-141s-63.252-141-141-141
			c-13.807,0-25-11.193-25-25s11.193-25,25-25c105.318,0,191,85.682,191,191S426.318,447,321,447z"/>
	</g>
	<g>
		<path d="M321,347c-13.807,0-25-11.193-25-25s11.193-25,25-25c22.607,0,41-18.393,41-41s-18.393-41-41-41
			c-13.807,0-25-11.193-25-25s11.193-25,25-25c50.178,0,91,40.822,91,91S371.178,347,321,347z"/>
	</g>
	<path d="M240.567,26.903c-9.342-3.87-20.095-1.73-27.245,5.419L120.645,125H65c-35.841,0-65,29.159-65,65v132
		c0,35.841,29.159,65,65,65h55.645l92.678,92.678c7.15,7.15,17.902,9.29,27.245,5.419C249.909,481.228,256,472.111,256,462V50
		C256,39.889,249.909,30.772,240.567,26.903z M206,401.645l-57.322-57.322C143.989,339.634,137.63,337,131,337H65
		c-8.271,0-15-6.729-15-15V190c0-8.271,6.729-15,15-15h66c6.63,0,12.989-2.634,17.678-7.322L206,110.355V401.645z"/>
</g>
<g>
</g>
<g>
</g>
<g>
</g>
<g>
</g>
<g>
</g>
<g>
</g>
<g>
</g>
<g>
</g>
<g>
</g>
<g>
</g>
<g>
</g>
<g>
</g>
<g>
</g>
<g>
</g>
<g>
</g>
</svg>
