<svg xmlns="http://www.w3.org/2000/svg" viewBox="-49 141 512 512"><path d="M386.667 216.279c-47.67-47.726-111.065-74.02-178.609-74.048-139.169 0-252.437 113.26-252.492 252.472-.019 44.501 11.608 87.937 33.703 126.229l-35.82 130.838 133.849-35.111c36.879 20.116 78.401 30.718 120.659 30.732h.105c139.155 0 252.432-113.271 252.489-252.487.026-67.464-26.213-130.901-73.884-178.625zM208.061 604.75h-.086c-37.657-.014-74.592-10.132-106.813-29.252l-7.663-4.548-79.428 20.835 21.201-77.441-4.99-7.94C9.275 472.991-1.82 434.373-1.804 394.719c.046-115.707 94.19-209.844 209.948-209.844 56.054.019 108.745 21.877 148.368 61.545 39.622 39.667 61.43 92.394 61.408 148.468-.047 115.716-94.19 209.862-209.859 209.862zm115.112-157.176c-6.308-3.158-37.326-18.418-43.109-20.526-5.782-2.105-9.989-3.156-14.194 3.157-4.205 6.315-16.296 20.527-19.977 24.738-3.679 4.209-7.36 4.738-13.668 1.579-6.309-3.158-26.637-9.819-50.734-31.313-18.755-16.729-31.417-37.388-35.097-43.705-3.68-6.315-.392-9.729 2.766-12.875 2.838-2.827 6.309-7.37 9.464-11.053s4.206-6.316 6.309-10.524c2.103-4.212 1.052-7.896-.526-11.053-1.577-3.158-14.194-34.212-19.451-46.845-5.121-12.3-10.322-10.634-14.195-10.83-3.676-.183-7.886-.222-12.092-.222s-11.041 1.579-16.824 7.894c-5.783 6.317-22.081 21.58-22.081 52.631 0 31.054 22.606 61.053 25.761 65.263 3.154 4.212 44.486 67.934 107.774 95.261 15.052 6.5 26.804 10.382 35.965 13.289 15.113 4.803 28.867 4.125 39.737 2.5 12.121-1.81 37.326-15.26 42.584-29.997 5.256-14.739 5.256-27.371 3.679-30.001-1.576-2.629-5.782-4.209-12.091-7.368z"/></svg>