<?xml version="1.0" encoding="iso-8859-1"?>
<!-- Generator: Adobe Illustrator 19.0.0, SVG Export Plug-In . SVG Version: 6.00 Build 0)  -->
<svg version="1.1" id="Layer_1" xmlns="http://www.w3.org/2000/svg" xmlns:xlink="http://www.w3.org/1999/xlink" x="0px" y="0px"
	 viewBox="0 0 512 512" style="enable-background:new 0 0 512 512;" xml:space="preserve">
<path d="M437.02,74.98C388.668,26.629,324.38,0,256,0S123.332,26.629,74.98,74.98C26.629,123.333,0,187.62,0,256
	s26.629,132.667,74.98,181.02C123.332,485.371,187.62,512,256,512s132.668-26.629,181.02-74.98C485.371,388.667,512,324.38,512,256
	S485.371,123.333,437.02,74.98z M462,256c0,46.072-15.205,88.658-40.857,123.008l-20.069-13.67C396.925,362.512,392.021,361,387,361
	h-56v-31c0-35.841-29.159-65-65-65h-84v-71h28c13.807,0,25-11.193,25-25v-48h60c28.609,0,52.809-19.175,60.464-45.343
	C418.93,110.8,462,178.46,462,256z M50,256c0-15.069,1.642-29.76,4.728-43.917L177.5,334.855V369c0,13.807,11.193,25,25,25H253
	v67.962C140.79,460.35,50,368.586,50,256z"/>
<g>
</g>
<g>
</g>
<g>
</g>
<g>
</g>
<g>
</g>
<g>
</g>
<g>
</g>
<g>
</g>
<g>
</g>
<g>
</g>
<g>
</g>
<g>
</g>
<g>
</g>
<g>
</g>
<g>
</g>
</svg>
