<?xml version="1.0" encoding="iso-8859-1"?>
<!-- Generator: Adobe Illustrator 19.0.0, SVG Export Plug-In . SVG Version: 6.00 Build 0)  -->
<svg version="1.1" id="Layer_1" xmlns="http://www.w3.org/2000/svg" xmlns:xlink="http://www.w3.org/1999/xlink" x="0px" y="0px"
	 viewBox="0 0 360 360" style="enable-background:new 0 0 360 360;" xml:space="preserve">
<g>
	<g>
		<g>
			<path style="fill:#231F20;" d="M353.49,95.037c-4.393-19.115-20.029-33.214-38.848-35.312c-62.031-6.931-206.396-7.014-269.18,0
				C26.646,61.823,11.017,75.922,6.617,95.037C-2.23,133.563-2.159,227.091,6.549,264.96c4.393,19.118,20.021,33.21,38.841,35.315
				c62.031,6.931,206.396,7.014,269.18,0c18.816-2.105,34.452-16.197,38.852-35.315C362.125,227.065,362.237,133.08,353.49,95.037z
				 M145.003,211.903v-63.809c0-11.344,12.28-18.434,22.105-12.762l55.261,31.906c9.824,5.672,9.824,19.852,0,25.524l-55.261,31.903
				C157.283,230.337,145.003,223.247,145.003,211.903z"/>
		</g>
	</g>
</g>
<g>
</g>
<g>
</g>
<g>
</g>
<g>
</g>
<g>
</g>
<g>
</g>
<g>
</g>
<g>
</g>
<g>
</g>
<g>
</g>
<g>
</g>
<g>
</g>
<g>
</g>
<g>
</g>
<g>
</g>
</svg>
