<?xml version="1.0" encoding="iso-8859-1"?>
<!-- Generator: Adobe Illustrator 19.0.0, SVG Export Plug-In . SVG Version: 6.00 Build 0)  -->
<svg version="1.1" id="Layer_1" xmlns="http://www.w3.org/2000/svg" xmlns:xlink="http://www.w3.org/1999/xlink" x="0px" y="0px"
	 viewBox="0 0 497 497" style="enable-background:new 0 0 497 497;" xml:space="preserve">
<g>
	<path d="M489.678,454.322L357.926,322.571C384.281,288.691,400,246.149,400,200C400,89.72,310.28,0,200,0S0,89.72,0,200
		s89.72,200,200,200c46.149,0,88.691-15.719,122.571-42.074l131.751,131.751C459.204,494.559,465.602,497,472,497
		s12.796-2.441,17.678-7.322C499.441,479.915,499.441,464.086,489.678,454.322z M50,200c0-82.71,67.29-150,150-150
		s150,67.29,150,150s-67.29,150-150,150S50,282.711,50,200z"/>
	<path d="M275,175h-50v-50c0-13.807-11.193-25-25-25s-25,11.193-25,25v50h-50c-13.807,0-25,11.193-25,25s11.193,25,25,25h50v50
		c0,13.807,11.193,25,25,25s25-11.193,25-25v-50h50c13.807,0,25-11.193,25-25S288.807,175,275,175z"/>
</g>
<g>
</g>
<g>
</g>
<g>
</g>
<g>
</g>
<g>
</g>
<g>
</g>
<g>
</g>
<g>
</g>
<g>
</g>
<g>
</g>
<g>
</g>
<g>
</g>
<g>
</g>
<g>
</g>
<g>
</g>
</svg>
