<?xml version="1.0" standalone="no"?>
<!DOCTYPE svg PUBLIC "-//W3C//DTD SVG 1.1//EN" "http://www.w3.org/Graphics/SVG/1.1/DTD/svg11.dtd" >
<svg xmlns="http://www.w3.org/2000/svg">
<metadata>Generated by IcoMoon</metadata>
<defs>
<font id="bobjoll-linear" horiz-adv-x="1024">
<font-face units-per-em="1024" ascent="960" descent="-64" />
<missing-glyph horiz-adv-x="1024" />
<glyph unicode="&#x20;" horiz-adv-x="512" d="" />
<glyph unicode="&#xe900;" glyph-name="eye" d="M512 102.858c-221.413 0-421.508 131.261-509.769 334.406-2.975 6.847-2.975 14.627 0 21.474 88.261 203.143 288.356 334.403 509.769 334.403s421.508-131.261 509.769-334.406c2.975-6.847 2.975-14.627 0-21.474-88.261-203.143-288.358-334.403-509.769-334.403zM56.476 448c82.001-177.322 259.514-291.247 455.524-291.247s373.523 113.925 455.521 291.247c-81.995 177.322-259.509 291.247-455.521 291.247s-373.526-113.925-455.524-291.247zM512 213.447c-129.334 0-234.553 105.221-234.553 234.553s105.219 234.553 234.553 234.553 234.553-105.221 234.553-234.553-105.219-234.553-234.553-234.553zM512 628.658c-99.614 0-180.658-81.042-180.658-180.658s81.044-180.658 180.658-180.658 180.658 81.042 180.658 180.658-81.044 180.658-180.658 180.658zM512 339.453c-59.853 0-108.547 48.694-108.547 108.547s48.694 108.547 108.547 108.547 108.547-48.694 108.547-108.547-48.694-108.547-108.547-108.547zM512 502.652c-30.135 0-54.652-24.517-54.652-54.652 0-30.138 24.517-54.652 54.652-54.652s54.652 24.517 54.652 54.652c0 30.138-24.517 54.652-54.652 54.652z" />
<glyph unicode="&#xe901;" glyph-name="credit-card" d="M943.158 800.954h-862.316c-44.576 0-80.842-36.266-80.842-80.842 0-26.829 0-526.667 0-544.226 0-44.576 36.266-80.842 80.842-80.842h862.316c44.576 0 80.842 36.266 80.842 80.842 0 19.911 0 516.856 0 544.226 0 44.576-36.266 80.842-80.842 80.842zM80.842 747.059h862.316c14.859 0 26.947-12.089 26.947-26.947v-67.808h-916.211v67.808c0 14.859 12.089 26.947 26.947 26.947zM970.105 526.614h-916.211v71.799h916.211v-71.799zM943.158 148.941h-862.316c-14.859 0-26.947 12.089-26.947 26.947v296.831h916.211v-296.831c0-14.859-12.089-26.947-26.947-26.947zM227.158 418.824h-92.421c-14.88 0-26.947-12.067-26.947-26.947s12.067-26.947 26.947-26.947h92.421c14.88 0 26.947 12.067 26.947 26.947s-12.067 26.947-26.947 26.947z" />
<glyph unicode="&#xe902;" glyph-name="menu-burger" d="M990.417 770.86h-956.835c-18.544 0-33.583 15.038-33.583 33.583s15.038 33.583 33.583 33.583h956.835c18.544 0 33.583-15.038 33.583-33.583 0-18.548-15.038-33.583-33.583-33.583zM990.417 414.417h-956.835c-18.544 0-33.583 15.038-33.583 33.583 0 18.548 15.038 33.583 33.583 33.583h956.835c18.544 0 33.583-15.035 33.583-33.583 0-18.544-15.038-33.583-33.583-33.583zM990.417 57.975h-956.835c-18.544 0-33.583 15.038-33.583 33.583s15.038 33.583 33.583 33.583h956.835c18.544 0 33.583-15.038 33.583-33.583s-15.038-33.583-33.583-33.583z" />
<glyph unicode="&#xe903;" glyph-name="menu-dots" d="M601.145 448c0-49.234-39.912-89.145-89.145-89.145s-89.145 39.912-89.145 89.145c0 49.234 39.912 89.145 89.145 89.145s89.145-39.912 89.145-89.145zM178.29 448c0-49.234-39.912-89.145-89.145-89.145s-89.145 39.912-89.145 89.145c0 49.234 39.912 89.145 89.145 89.145s89.145-39.912 89.145-89.145zM1024 448c0-49.234-39.912-89.145-89.145-89.145s-89.145 39.912-89.145 89.145c0 49.234 39.912 89.145 89.145 89.145s89.145-39.912 89.145-89.145z" />
<glyph unicode="&#xe904;" glyph-name="american-express" d="M959.301 568.473c16.547 0 25.992-18.889 16.062-32.126l-64.452-85.937c-1.071-1.429-1.071-3.39 0-4.819l64.452-85.937c9.927-13.237 0.483-32.126-16.062-32.126h-10.192c-6.235 0-12.115 2.896-15.915 7.837l-54.209 70.471-54.209-70.471c-3.8-4.941-9.68-7.837-15.915-7.837h-162.792c-11.089 0-20.080 8.99-20.080 20.080v200.789c0 11.089 8.99 20.077 20.080 20.077h167.956c6.713 0 12.984-3.354 16.707-8.941l42.229-63.342 54.216 65.060c3.815 4.576 9.467 7.225 15.425 7.225h16.699zM678.195 472.095h84.332c11.089 0 20.080-8.99 20.080-20.077v-8.031c0-11.089-8.99-20.080-20.080-20.080h-84.332c-2.217 0-4.015-1.799-4.015-4.015v-40.157c0-2.217 1.799-4.015 4.015-4.015h108.427c1.264 0 2.453 0.594 3.212 1.607l51.228 68.305c1.057 1.409 1.073 3.345 0.036 4.77l-45.243 62.209c-0.755 1.039-1.963 1.654-3.248 1.654h-114.412c-2.217 0-4.015-1.799-4.015-4.015v-34.134c0-2.221 1.799-4.020 4.015-4.020zM539.652 568.473c11.089 0 20.080-8.99 20.080-20.077v-200.789c0-11.089-8.99-20.080-20.080-20.080h-8.031c-11.089 0-20.080 8.99-20.080 20.080v132.698c0 4.463-6.188 5.596-7.771 1.425l-53.575-141.243c-2.958-7.799-10.433-12.959-18.773-12.959h-20.307c-8.423 0-15.953 5.258-18.851 13.166l-53.648 146.309c-1.545 4.214-7.786 3.105-7.786-1.382v-138.013c0-11.089-8.99-20.080-20.080-20.080h-67.851c-8.643 0-16.316 5.531-19.049 13.729l-13.495 40.484h-102.401l-13.495-40.484c-2.733-8.2-10.406-13.729-19.049-13.729h-10.767c-14.019 0-23.723 14.003-18.8 27.129l75.295 200.789c2.938 7.837 10.43 13.028 18.8 13.028h38.345c8.412 0 15.933-5.244 18.842-13.137l71.707-194.635c1.549-4.207 7.784-3.096 7.784 1.389v186.303c0 11.089 8.99 20.077 20.080 20.077h50.278c8.4 0 15.913-5.229 18.829-13.106l51.618-139.366c1.293-3.495 6.237-3.495 7.53 0l51.618 139.366c2.918 7.877 10.43 13.106 18.829 13.106h44.255zM131.725 435.954h48.84c2.778 0 4.717 2.751 3.782 5.367l-24.42 68.374c-1.269 3.555-6.295 3.555-7.564 0l-24.42-68.374c-0.935-2.615 1.004-5.367 3.782-5.367zM959.301 612.991h-16.699c-34.586 0-48.94-22.421-65.672-42.499-8.636 12.957-24.006 42.499-62.903 42.499h-167.956c-22.047 0-41.548-11.1-53.21-28.006-11.661 16.906-31.162 28.006-53.21 28.006h-44.255c-26.893 0-51.235-16.943-60.575-42.163l-13.636-36.818-13.636 36.818c-9.338 25.217-33.682 42.16-60.575 42.16h-50.278c-26.439 0-49.221-15.966-59.206-38.764-10.197 23.336-33.528 38.764-59.206 38.764h-38.345c-26.775 0-51.082-16.843-60.484-41.913l-75.295-200.787c-15.822-42.191 15.43-87.279 60.484-87.279h10.767c27.848 0 52.475 17.751 61.281 44.17l3.348 10.043h38.229l3.348-10.043c8.806-26.419 33.435-44.17 61.281-44.17h67.851c20.235 0 38.327 9.353 50.18 23.964 12.062-14.835 30.421-23.964 50.182-23.964h20.307c19.657 0 38.011 9.102 50.091 23.872 11.855-14.557 29.914-23.872 50.107-23.872h8.031c22.047 0 41.548 11.1 53.21 28.006 11.661-16.906 31.162-28.006 53.21-28.006h162.792c19.917 0 39.057 9.424 51.202 25.212l18.922 24.598 18.922-24.6c12.142-15.786 31.282-25.21 51.202-25.21h10.192c53.203 0 83.593 60.8 51.676 103.354l-46.227 61.637 46.227 61.637c31.923 42.561 1.518 103.354-51.674 103.354v0z" />
<glyph unicode="&#xe905;" glyph-name="master-card" d="M537.392 727.082c-224.81 158.474-537.392-2.961-537.392-279.084 0-276.167 312.633-437.528 537.392-279.084 214.794-126.099 486.608 29.926 486.608 279.084 0 249.087-271.739 405.227-486.608 279.084zM582.855 207.244c132.802 133.272 132.929 348.105 0 481.504 177.348 87.093 385.793-42.87 385.793-240.751 0-197.638-208.179-327.973-385.793-240.753z" />
<glyph unicode="&#xe906;" glyph-name="visa" d="M662.154 599.017c20.573 0 39.2-3.887 54.511-8.216 9.659-2.734 15.573-12.43 13.43-22.238l-5.198-23.756c-1.954-8.931-9.848-14.796-18.501-14.796-1.899 0-3.833 0.283-5.75 0.877-55.987 17.372-88.832-0.574-88.832-18.997-1.937-34.851 106.487-40.659 106.489-114.231 0-61.957-52.276-100.679-131.657-100.679-25.806 0-50.549 4.247-68.729 9.594-9.434 2.776-15.084 12.39-13.042 22.009l5.167 24.355c2.424 11.426 14.489 17.868 25.352 13.641 14.153-5.505 31.939-9.579 57.060-9.579 45.191 0 73.074 35.343 7.744 65.828-27.106 13.552-65.828 36.785-65.828 79.38 0 56.152 52.274 96.808 127.783 96.808zM374.285 595.146c13.501 0 22.637-13.759 17.399-26.203l-108.016-256.537c-2.947-7.001-9.803-11.553-17.399-11.553h-54.135c-8.621 0-16.148 5.841-18.287 14.193l-56.383 220.079c-3.873 13.552-5.81 19.362-17.425 25.17-19.362 9.679-48.403 19.362-75.509 25.17l1.934 7.747h129.72c15.489 0 30.977-9.681 34.851-29.043l32.914-170.378 75.416 189.462c2.858 7.183 9.808 11.896 17.539 11.896h37.382zM909.951 593.21c9.015 0 16.773-6.378 18.521-15.222l50.631-256.535c2.304-11.667-6.627-22.532-18.521-22.532h-31.518c-8.88 0-16.559 6.188-18.447 14.868l-6.449 29.664h-96.808l-11.079-31.855c-2.64-7.589-9.795-12.675-17.831-12.675h-37.598c-13.483 0-22.619 13.726-17.414 26.165l103.284 246.829c5.808 13.552 17.425 21.296 32.914 21.296h50.315zM843.362 403.469h43.757c4.797 0 8.377 4.412 7.388 9.107l-15.912 75.581c-1.56 7.417-11.854 8.167-14.474 1.055l-27.845-75.581c-1.816-4.931 1.832-10.162 7.085-10.162zM487.871 593.21c11.989 0 20.943-11.032 18.472-22.766l-54.006-256.537c-1.839-8.735-9.545-14.988-18.472-14.988h-38.713c-12.038 0-21.003 11.117-18.447 22.881l55.695 256.537c1.885 8.679 9.565 14.872 18.447 14.872h37.023zM662.154 643.538c-47.853 0-89.418-13.654-119.729-36.892-1.574 2.647-3.35 5.198-5.322 7.631-12.094 14.903-30.038 23.453-49.231 23.453h-37.026c-13.572 0-26.394-4.41-36.91-11.974-11.092 8.9-25.007 13.91-39.652 13.91h-37.377c-26.12 0-49.242-15.682-58.903-39.951l-19.182-48.187-4.074 21.083c-0.018 0.096-0.038 0.191-0.058 0.289-7.635 38.17-39.919 64.831-78.506 64.831h-129.718c-20.431 0-38.239-13.906-43.192-33.727l-1.934-7.747c-6.099-24.402 9.245-49.051 33.865-54.326 20.858-4.47 43.376-11.649 59.386-18.837l56.132-219.097c7.19-28.064 32.444-47.664 61.414-47.664h54.133c25.57 0 48.505 15.228 58.429 38.795l7.261 17.247c1.051-12.43 5.779-24.377 13.835-34.372 12.096-15.003 30.085-23.607 49.356-23.607h38.713c18.93 0 36.362 8.539 48.136 22.243 6.618-5.741 14.505-10.173 23.353-12.775 25.001-7.355 53.87-11.404 81.295-11.404 40.489 0 76.478 8.559 105.367 24.909 11.976-14.491 29.793-22.973 48.841-22.973h37.598c26.957 0 51.021 17.107 59.878 42.568l0.681 1.961h29.528c8.176-26.107 32.789-44.53 60.521-44.53h31.518c39.982 0 69.924 36.529 62.198 75.674l-50.629 256.535c-5.846 29.622-32.004 51.123-62.198 51.123h-50.313c-33.277 0-60.878-18.049-73.835-48.28-0.051-0.118-0.1-0.234-0.149-0.352l-11.607-27.736c5.754 31.919-13.75 63.364-45.264 72.277-23.543 6.663-45.338 9.899-66.63 9.899v0zM749.147 501.853l-13.352-31.906c-5.242 6.059-11.034 11.589-17.265 16.68 2.226-0.002 17.804 3.593 30.617 15.226zM518.397 411.588l2.774 13.18c4.014-4.35 8.408-8.539 13.274-12.639-5.276 0.494-10.66 0.338-16.047-0.541v0z" />
<glyph unicode="&#xe907;" glyph-name="paypal" d="M610.719 903.111c106.396 0 230.116-78.458 193.212-251.002-32.538-152.402-154.138-242.037-299.597-242.037h-77.454c-14.043 0-48.404 4.972-55.191-37.902l-41.921-265.506-164.218 0.003c-20.813 0-41.182 17.32-37.925 37.925l113.778 720.592c3.251 20.608 17.064 37.928 37.925 37.928 34.435 0 297.048 0 331.392 0zM875.958 626.773v0 0zM875.958 626.773c55.825-99.445 11.321-360.292-287.181-359.273l-0.006-0.006c-36.227-0.191-44.621-0.617-51.951-47.053l-29.955-189.719c-3.143-19.718-16.108-36.508-35.575-37.757l-119.757-0.077c-0.006 0-0.014 0-0.020 0-16.057 0-37.803 12.095-33.724 37.922h76.791l48.307 303.414 61.44-0.006c182.895-0.011 329.546 115.254 371.63 292.554zM610.719 960h-331.392c-47.428 0-86.133-35.342-94.12-85.945l-113.778-720.589c-3.903-24.704 3.453-50.105 20.181-69.68 18.196-21.296 45.835-34.008 73.938-34.008h98.6c-1.141-3.228-2-6.602-2.551-10.092-9.367-59.315 37.197-103.686 89.916-103.686 128.728 0.082 120.582 0.011 123.426 0.193 24.115 1.547 46.404 12.527 62.763 30.908 13.255 14.896 22.019 33.801 25.347 54.667l29.818 188.846c132.429 0.563 251.196 49.69 316.646 161.49 56.3 96.168 55.302 212.597 16.051 282.516-11.583 20.631-35.123 32.412-59.418 28.188 8.206 88.476-21.902 148.139-50.967 184.075-47.152 58.305-123.585 93.116-204.462 93.116v0z" />
<glyph unicode="&#xe908;" glyph-name="logout" d="M642.368-54.856h-558.559c-46.213 0-83.809 37.597-83.809 83.809v838.094c0 46.213 37.597 83.809 83.809 83.809h558.559c46.213 0 83.809-37.597 83.809-83.809v-89.617c0-15.427-12.51-27.936-27.936-27.936s-27.936 12.51-27.936 27.936v89.617c0 15.404-12.532 27.936-27.936 27.936h-558.559c-15.404 0-27.936-12.532-27.936-27.936v-838.094c0-15.404 12.532-27.936 27.936-27.936h558.559c15.404 0 27.936 12.532 27.936 27.936v89.609c0 15.427 12.51 27.936 27.936 27.936s27.936-12.51 27.936-27.936v-89.609c0-46.213-37.597-83.809-83.809-83.809zM665.307 270.888v60.027h-311.561c-30.808 0-55.873 25.065-55.873 55.873v122.423c0 30.808 25.065 55.873 55.873 55.873h311.561v60.027c0 45.439 51.484 71.906 88.433 45.405l246.975-177.114c31.037-22.254 31.049-68.542-0.003-90.807l-246.97-177.112c-0.003 0-0.003-0.003-0.003-0.003-36.901-26.453-88.433-0.059-88.433 45.408zM721.18 270.888v0 0l246.972 177.112-246.961 177.106-0.011-87.955c0-15.427-12.51-27.936-27.936-27.936h-339.498v-122.423h339.498c15.427 0 27.936-12.51 27.936-27.936v-87.966z" />
<glyph unicode="&#xe909;" glyph-name="support" d="M495.19 581.082c0-26.49-21.474-47.964-47.964-47.964s-47.964 21.474-47.964 47.964c0 26.49 21.474 47.964 47.964 47.964s47.964-21.474 47.964-47.964zM294.694 581.082c0-26.49-21.474-47.964-47.964-47.964s-47.964 21.474-47.964 47.964c0 26.49 21.474 47.964 47.964 47.964s47.964-21.474 47.964-47.964zM695.687 581.082c0-26.49-21.474-47.964-47.964-47.964s-47.964 21.474-47.964 47.964c0 26.49 21.474 47.964 47.964 47.964s47.964-21.474 47.964-47.964zM917.272 83.461c67.377 44.070 106.728 110.088 106.728 181.375 0 87.444-59.058 165.802-152.832 206.058 15.077 35.808 23.285 74.256 23.285 114.419 0 201.469-204.46 357.583-447.227 357.583-242.815 0-447.227-156.138-447.227-357.583 0-113.395 65.916-218.303 177.923-285.669l-113.861-153.576c-16.15-21.792 6.734-51.556 32.1-40.89l297.378 125.125c18.408-1.779 36.657-2.606 54.698-2.598 23.733-120.951 161.31-208.931 318.027-195.112l183.592-77.25c25.393-10.671 48.238 19.122 32.097 40.89l-64.682 87.229zM392.351 284.599c-4.549 0.485-9.146-0.178-13.363-1.951l-213.022-89.63 73.534 99.182c9.898 13.352 5.454 32.426-9.34 40.022-110.374 56.665-176.265 151.28-176.265 253.090 0 167.454 176.446 303.689 393.332 303.689s393.332-136.235 393.332-303.689c0-186.651-216.404-325.899-448.207-300.714zM780.884 84.911c-4.174 1.754-8.742 2.444-13.336 1.954-125.119-13.471-240.874 50.745-264.677 143.516 135.192 13.404 270.813 78.972 343.137 192.644 76.056-31.251 124.098-91.643 124.098-158.189 0-59.812-39.146-115.612-104.717-149.264-14.791-7.588-19.249-26.664-9.343-40.025l23.994-32.358-99.156 41.723z" />
<glyph unicode="&#xe90a;" glyph-name="save" d="M1015.669 626.634l-325.038 325.035c-5.333 5.333-12.567 8.331-20.11 8.331h-0.885c-72.127 0-631.242 0-641.192 0-15.71 0-28.444-12.735-28.444-28.444v-967.111c0-15.707 12.735-28.444 28.444-28.444 20.457 0 946.654 0 967.111 0 15.71 0 28.444 12.737 28.444 28.444v642.074c0 7.546-2.998 14.78-8.331 20.116zM641.192 903.111v-170.49h-258.381v170.49h258.381zM259.681-7.111v379.108h504.639v-379.108h-504.639zM967.111-7.111h-145.903v407.552c0 15.707-12.735 28.444-28.444 28.444h-561.527c-15.71 0-28.444-12.737-28.444-28.444v-407.552h-145.903v910.222h269.030v-198.935c0-15.707 12.735-28.444 28.444-28.444h315.27c15.71 0 28.444 12.737 28.444 28.444v159.593l269.033-269.033v-601.847z" />
<glyph unicode="&#xe90b;" glyph-name="laptop" d="M825.915 739.218h-627.832c-14.136 0-25.6-11.464-25.6-25.6v-367.773c0-14.139 11.464-25.6 25.6-25.6h627.832c14.136 0 25.6 11.461 25.6 25.6v367.773c0 14.136-11.461 25.6-25.6 25.6zM800.315 371.443h-576.633v316.576h576.633v-316.576zM998.393 281.844h-57.279v493.119c0 29.696-24.156 53.851-53.851 53.851h-750.526c-29.696 0-53.851-24.158-53.851-53.851v-493.119h-57.279c-15.849 0-27.934-14.3-25.226-29.959l20.152-116.578c6.822-39.472 40.844-68.121 80.903-68.121h821.135c40.056 0 74.080 28.649 80.903 68.121l20.15 116.578c2.703 15.652-9.369 29.959-25.228 29.959zM134.083 774.963c0 1.462 1.19 2.652 2.652 2.652h750.526c1.462 0 2.652-1.19 2.652-2.652v-493.119h-755.831v493.119zM953.020 144.028c-2.57-14.858-15.375-25.643-30.453-25.643h-821.135c-15.078 0-27.883 10.785-30.453 25.643l-14.971 86.619c26.488 0 851.717 0 911.978 0l-14.966-86.619zM548.857 200.117h-73.714c-14.136 0-25.6-11.464-25.6-25.6s11.464-25.6 25.6-25.6h73.714c14.136 0 25.6 11.464 25.6 25.6s-11.464 25.6-25.6 25.6z" />
<glyph unicode="&#xe90c;" glyph-name="tablet" d="M946.237 67.199h-868.474c-42.878 0-77.763 34.884-77.763 77.763v606.076c0 42.878 34.884 77.763 77.763 77.763h868.474c42.878 0 77.763-34.884 77.763-77.763v-606.074c0-42.881-34.884-77.765-77.763-77.765zM77.763 776.959c-14.293 0-25.921-11.628-25.921-25.921v-606.074c0-14.293 11.628-25.921 25.921-25.921h868.474c14.293 0 25.921 11.628 25.921 25.921v606.074c0 14.293-11.628 25.921-25.921 25.921h-868.474zM793.998 157.922h-677.354c-14.314 0-25.921 11.607-25.921 25.921v528.313c0 14.314 11.607 25.921 25.921 25.921h677.354c14.314 0 25.921-11.607 25.921-25.921v-528.311c0-14.316-11.605-25.924-25.921-25.924zM142.565 209.764h625.512v476.471h-625.512v-476.471zM936.141 448.001c0-22.148-17.954-40.102-40.102-40.102s-40.102 17.954-40.102 40.102c0 22.148 17.954 40.102 40.102 40.102s40.102-17.954 40.102-40.102z" />
<glyph unicode="&#xe90d;" glyph-name="phone" d="M738.506-64h-453.012c-74.294 0-134.737 60.443-134.737 134.737v754.526c0 74.294 60.443 134.737 134.737 134.737h453.010c74.294 0 134.737-60.443 134.737-134.737v-754.526c0.003-74.294-60.44-134.737-134.734-134.737zM285.494 906.105c-44.576 0-80.842-36.266-80.842-80.842v-754.526c0-44.576 36.266-80.842 80.842-80.842h453.010c44.576 0 80.842 36.266 80.842 80.842v754.526c0 44.576-36.266 80.842-80.842 80.842h-453.010zM740.339 191.051h-456.68c-21.278 0-38.586 17.311-38.586 38.586v559.834c0 21.278 17.308 38.586 38.586 38.586h456.68c21.278 0 38.586-17.311 38.586-38.586v-559.832c0.003-21.278-17.308-38.589-38.586-38.589zM298.968 244.946h426.062v529.217h-426.062v-529.217zM570.961 90.473c0-32.563-26.398-58.961-58.961-58.961s-58.961 26.398-58.961 58.961c0 32.563 26.398 58.961 58.961 58.961s58.961-26.398 58.961-58.961z" />
<glyph unicode="&#xe90e;" glyph-name="url" d="M967.19 903.193c-75.559 75.559-198.51 75.559-274.075 0l-156.8-156.8c-68.73-68.73-74.922-176.656-18.624-252.476l-51.611-51.611c-75.818 56.301-183.743 50.106-252.473-18.621l-156.8-156.803c-75.741-75.741-75.747-198.325 0-274.075h0.003c75.556-75.559 198.51-75.562 274.075 0l156.8 156.8c68.73 68.73 74.922 176.656 18.624 252.476l51.611 51.611c75.946-56.395 183.823-50.026 252.473 18.621l156.8 156.803c75.738 75.741 75.747 198.325-0.003 274.075zM447.46 189.833l-156.8-156.8c-53.383-53.385-140.247-53.385-193.63 0-53.508 53.505-53.513 140.116 0 193.627l156.8 156.803c46.491 46.485 118.358 52.478 171.402 17.998l-81.020-81.020c-11.107-11.107-11.107-29.116 0-40.225 11.109-11.107 29.116-11.104 40.225 0l81.020 81.020c34.477-53.047 28.49-124.914-17.998-171.402zM926.968 669.341l-156.8-156.803c-46.488-46.488-118.355-52.475-171.402-17.998l81.020 81.020c11.107 11.107 11.107 29.116 0 40.225-11.107 11.104-29.116 11.104-40.225 0l-81.020-81.020c-34.477 53.047-28.49 124.914 17.995 171.402l156.8 156.8c53.388 53.385 140.25 53.385 193.63 0 53.513-53.505 53.516-140.113 0.003-193.627z" />
<glyph unicode="&#xe90f;" glyph-name="globe" d="M1024 448c0 282.381-229.796 512-512 512-282.344 0-512-229.761-512-512 0-282.381 229.796-512 512-512 282.344 0 512 229.761 512 512zM512-10.105c-49.031 0-101.654 77.342-133.107 204.002h266.213c-31.453-126.661-84.076-204.002-133.107-204.002zM367.392 247.792c-9.418 51.925-15.438 110.153-16.783 173.261h322.781c-1.342-63.108-7.365-121.336-16.783-173.261h-289.215zM54.709 421.053h242.001c1.256-60.416 6.723-118.908 16.044-173.261h-212.731c-25.807 52.887-41.712 111.446-45.315 173.261zM100.023 648.208h212.731c-9.321-54.35-14.789-112.845-16.044-173.261h-242.001c3.603 61.815 19.507 120.374 45.315 173.261zM512 906.105c49.031 0 101.654-77.342 133.107-204.002h-266.213c31.453 126.661 84.076 204.002 133.107 204.002zM656.608 648.208c9.418-51.925 15.438-110.153 16.783-173.261h-322.781c1.342 63.108 7.365 121.336 16.783 173.261h289.215zM969.291 474.947h-242.001c-1.256 60.416-6.723 118.908-16.044 173.261h212.731c25.807-52.887 41.712-111.446 45.315-173.261zM727.291 421.053h242.001c-3.603-61.815-19.507-120.374-45.315-173.261h-212.728c9.321 54.353 14.786 112.845 16.042 173.261zM892.979 702.103h-192.558c-14.875 64.102-39.588 137.655-78.622 190.669 112.379-27.75 208.548-97.073 271.179-190.669zM402.2 892.772c-39.025-53-63.741-126.537-78.622-190.669h-192.561c62.634 93.596 158.804 162.918 271.182 190.669zM131.018 193.897h192.558c14.875-64.102 39.588-137.655 78.622-190.669-112.376 27.75-208.546 97.073-271.179 190.669zM621.8 3.228c39.025 53 63.741 126.537 78.622 190.669h192.558c-62.631-93.596-158.801-162.918-271.179-190.669z" />
<glyph unicode="&#xe910;" glyph-name="filter" d="M896.211 960h-768.422c-31.899 0-57.851-25.952-57.851-57.851v-189.643c0-19.97 10.080-38.26 26.973-48.921l244.919-154.58v-515.091c0-42.876 44.912-70.688 83.221-51.99l224.634 109.627c19.73 9.626 32.48 30.036 32.48 51.99v405.464l244.922 154.583c16.889 10.662 26.97 28.948 26.97 48.919v189.643c0.003 31.899-25.949 57.851-57.848 57.851zM896.211 902.149l0.003-97.039h-768.424v97.039h768.422zM651.291 557.926c-16.889-10.662-26.973-28.951-26.973-48.921v-405.464l-224.634-109.627v515.091c0 19.976-10.083 38.265-26.976 48.921l-244.919 154.58v34.754h768.422v-34.754l-244.919-154.58z" />
<glyph unicode="&#xe911;" glyph-name="thumb-down" d="M926.184 875.679h-525.705v21.932c0 14.883-12.067 26.947-26.947 26.947h-346.584c-14.883 0-26.947-12.064-26.947-26.947v-642.315c0-14.88 12.064-26.947 26.947-26.947h346.584c14.88 0 26.947 12.067 26.947 26.947v19.356h110.12l103.648-235.932c33.191-75.55 133.732-90.718 187.861-28.896 21.388 24.422 31.194 56.889 26.907 89.072l-23.412 175.756h120.579c53.938 0 97.816 43.881 97.816 97.819v405.394c0.003 53.935-43.876 97.814-97.814 97.814zM346.584 282.244h-292.689v588.42h292.689c0-30.588 0-563.499 0-588.42zM970.105 372.469c0-24.218-19.701-43.924-43.922-43.924h-151.353c-16.292 0-28.861-14.366-26.71-30.504l27.473-206.261c2.234-16.786-2.878-33.714-14.034-46.452-28.233-32.243-80.664-24.328-97.973 15.072l-110.724 252.039c-4.301 9.787-13.98 16.109-24.67 16.109h-127.717v493.237h525.705c24.218 0 43.922-19.704 43.922-43.922v-405.394zM259.643 725.919c0-32.807-26.596-59.403-59.403-59.403s-59.403 26.596-59.403 59.403c0 32.807 26.596 59.403 59.403 59.403s59.403-26.596 59.403-59.403z" />
<glyph unicode="&#xe912;" glyph-name="thumb-up" d="M926.184 621.323h-120.579l23.412 175.756c8.992 67.511-43.604 127.504-111.648 127.504-44.673 0-85.154-26.43-103.122-67.328l-103.648-235.932h-110.12v19.356c0 14.88-12.064 26.947-26.947 26.947h-346.584c-14.883 0-26.947-12.067-26.947-26.947v-642.315c0-14.883 12.064-26.947 26.947-26.947h346.584c14.883 0 26.947 12.064 26.947 26.947v21.932h525.705c53.938 0 97.816 43.878 97.816 97.816v405.394c0 53.935-43.878 97.816-97.816 97.816zM346.584 25.312h-292.689v588.42h292.689c0-25.295 0-558.659 0-588.42zM970.105 118.11c0-24.218-19.701-43.922-43.922-43.922h-525.705v493.239h127.717c10.693 0 20.37 6.322 24.67 16.109l110.724 252.039c9.37 21.332 30.48 35.112 53.779 35.112 35.519 0 62.909-31.316 58.225-66.495l-27.473-206.261c-2.153-16.15 10.429-30.504 26.71-30.504h151.353c24.218 0 43.922-19.707 43.922-43.924v-405.394zM259.643 170.054c0-32.807-26.596-59.403-59.403-59.403s-59.403 26.596-59.403 59.403c0 32.807 26.596 59.403 59.403 59.403s59.403-26.596 59.403-59.403z" />
<glyph unicode="&#xe913;" glyph-name="folder" d="M999.602 544.061h-109.083v137.606c0 13.463-10.915 24.381-24.381 24.381h-530.628v84.998c0 13.463-10.915 24.381-24.381 24.381h-286.749c-13.465 0-24.381-10.915-24.381-24.381v-686.088c0-13.446 10.932-24.383 24.398-24.383 0.020 0 0.039 0.002 0.059 0.002h841.682c10.588 0 19.965 6.834 23.208 16.91l133.464 414.725c5.074 15.762-6.727 31.848-23.208 31.848zM48.761 766.665h237.988v-84.995c0-13.463 10.915-24.381 24.381-24.381h530.628v-113.226h-683.913c-10.588 0-19.965-6.834-23.208-16.91l-85.876-266.85v506.362zM848.372 129.338h-790.534l117.773 365.962c29.474 0 756.977 0 790.534 0l-117.773-365.962z" />
<glyph unicode="&#xe914;" glyph-name="notification" d="M893.023 109.307l-78.29 162.25v276.244c0 131.428-83.4 242.365-199.524 284.641v24.346c0 56.911-46.3 103.212-103.209 103.212s-103.209-46.3-103.209-103.209v-24.346c-115.884-42.189-199.521-152.96-199.521-284.641v-276.244l-78.29-162.25c-8.192-16.978 4.204-36.726 23.055-36.726h197.824c12.311-77.307 79.424-136.584 160.141-136.584s147.83 59.277 160.143 136.584h197.824c18.849 0 31.247 19.745 23.055 36.723zM512-12.8c-52.388 0-96.415 36.485-108.004 85.384h216.005c-11.587-48.899-55.613-85.384-108.001-85.384zM194.811 123.784l63.114 130.798c1.674 3.469 2.545 7.273 2.545 11.126v282.094c0 114.847 76.846 211.169 181.079 241.521 10.929 3.182 18.445 13.197 18.445 24.581v42.888c-0.003 28.677 23.329 52.009 52.006 52.009s52.009-23.332 52.009-52.009v-42.888c0-11.382 7.516-21.396 18.445-24.581 103.91-30.257 181.079-126.346 181.079-241.521v-282.097c0-3.853 0.87-7.654 2.545-11.126l63.112-130.798c-33.608 0.003-605.466 0.003-634.378 0.003z" />
<glyph unicode="&#xe915;" glyph-name="calendar" d="M939.784 808.246h-168.261v58.245c0 14.136-11.464 25.6-25.6 25.6-14.139 0-25.6-11.464-25.6-25.6v-58.245h-416.645v58.245c0 14.136-11.464 25.6-25.6 25.6s-25.6-11.464-25.6-25.6v-58.245h-168.264c-46.436 0-84.214-37.778-84.214-84.216 0-6.487 0-618.476 0-635.901 0-46.438 37.778-84.216 84.214-84.216h855.57c46.438 0 84.216 37.78 84.216 84.216 0 6.94 0 620.068 0 635.901 0 46.438-37.778 84.216-84.216 84.216zM51.2 724.029c0 18.204 14.81 33.014 33.014 33.014h168.264v-56.876c0-14.136 11.464-25.6 25.6-25.6s25.6 11.464 25.6 25.6v56.878h416.645v-56.876c0-14.136 11.461-25.6 25.6-25.6 14.136 0 25.6 11.464 25.6 25.6v56.876h168.261c18.204 0 33.016-14.81 33.016-33.014v-137.398h-921.6v137.395zM972.8 88.128c0-18.204-14.81-33.016-33.016-33.016h-855.57c-18.204 0-33.014 14.812-33.014 33.016v447.304h921.6v-447.304zM276.052 391.265c0-28.736-23.296-52.032-52.032-52.032s-52.032 23.296-52.032 52.032c0 28.736 23.296 52.032 52.032 52.032s52.032-23.296 52.032-52.032zM468.040 391.265c0-28.736-23.296-52.032-52.032-52.032s-52.032 23.296-52.032 52.032c0 28.736 23.296 52.032 52.032 52.032s52.032-23.296 52.032-52.032zM660.024 391.265c0-28.736-23.296-52.032-52.032-52.032s-52.032 23.296-52.032 52.032c0 28.736 23.296 52.032 52.032 52.032s52.032-23.296 52.032-52.032zM852.012 391.265c0-28.736-23.296-52.032-52.032-52.032s-52.032 23.296-52.032 52.032c0 28.736 23.296 52.032 52.032 52.032s52.032-23.296 52.032-52.032zM276.052 199.278c0-28.736-23.296-52.032-52.032-52.032s-52.032 23.296-52.032 52.032c0 28.736 23.296 52.032 52.032 52.032s52.032-23.296 52.032-52.032zM468.040 199.278c0-28.736-23.296-52.032-52.032-52.032s-52.032 23.296-52.032 52.032c0 28.736 23.296 52.032 52.032 52.032s52.032-23.296 52.032-52.032zM660.024 199.278c0-28.736-23.296-52.032-52.032-52.032s-52.032 23.296-52.032 52.032c0 28.736 23.296 52.032 52.032 52.032s52.032-23.296 52.032-52.032zM852.012 199.278c0-28.736-23.296-52.032-52.032-52.032s-52.032 23.296-52.032 52.032c0 28.736 23.296 52.032 52.032 52.032s52.032-23.296 52.032-52.032z" />
<glyph unicode="&#xe916;" glyph-name="comment" d="M195.316 77.631v146.859h-52.726c-78.624 0-142.59 63.968-142.59 142.594v333.093c0 78.626 63.966 142.592 142.59 142.592h738.818c78.624 0 142.59-63.966 142.59-142.592v-333.093c0-78.626-63.966-142.592-142.59-142.592h-362.791l-286.596-167.897c-16.13-9.45-36.706 2.097-36.706 21.036zM142.59 794.007c-51.736 0-93.828-42.094-93.828-93.83v-333.093c0-51.739 42.091-93.83 93.828-93.83h77.107c13.463 0 24.381-10.918 24.381-24.381v-128.7l255.598 149.736c3.738 2.189 7.992 3.345 12.325 3.345h369.41c51.739 0 93.828 42.094 93.828 93.83v333.093c0 51.739-42.091 93.83-93.828 93.83h-738.821zM555.284 533.631c0-23.905-19.379-43.284-43.284-43.284s-43.284 19.379-43.284 43.284c0 23.905 19.379 43.284 43.284 43.284s43.284-19.379 43.284-43.284zM349.969 533.631c0-23.905-19.379-43.284-43.284-43.284s-43.284 19.379-43.284 43.284c0 23.905 19.379 43.284 43.284 43.284s43.284-19.379 43.284-43.284zM760.598 533.631c0-23.905-19.379-43.284-43.284-43.284s-43.284 19.379-43.284 43.284c0 23.905 19.379 43.284 43.284 43.284s43.284-19.379 43.284-43.284z" />
<glyph unicode="&#xe917;" glyph-name="interogation" d="M512-64c-282.317 0-512 229.681-512 512s229.683 512 512 512c282.319 0 512-229.681 512-512s-229.681-512-512-512zM512 906.105c-252.599 0-458.105-205.506-458.105-458.105s205.506-458.105 458.105-458.105 458.105 205.506 458.105 458.105-205.506 458.105-458.105 458.105zM574.653 461.811c-37.053-28.968-37.726-49.179-37.726-84.211 0-12.8-6.737-27.621-39.747-27.621-27.621 0-37.053 10.105-37.053 45.137 0 57.937 25.6 85.558 45.137 102.4 22.232 18.863 59.958 39.747 59.958 76.126 0 30.989-26.947 45.811-60.632 45.811-68.716 0-53.895-51.874-90.274-51.874-18.189 0-40.421 12.126-40.421 38.4 0 36.379 41.768 90.274 132.716 90.274 86.232 0 143.495-47.832 143.495-111.158s-57.263-109.137-75.453-123.284zM549.726 251.621c0-27.621-22.905-51.874-51.874-51.874s-51.2 24.253-51.2 51.874c0 28.295 22.905 51.874 51.2 51.874s51.874-23.579 51.874-51.874z" />
<glyph unicode="&#xe918;" glyph-name="exclamation" d="M512-64c-282.317 0-512 229.681-512 512s229.683 512 512 512 512-229.681 512-512-229.683-512-512-512zM512 906.105c-252.599 0-458.105-205.506-458.105-458.105s205.506-458.105 458.105-458.105 458.105 205.506 458.105 458.105-205.506 458.105-458.105 458.105zM564.216 251.621c0-27.621-23.579-51.874-51.2-51.874-29.642 0-51.874 24.253-51.874 51.874 0 28.295 22.232 51.874 51.874 51.874 27.621 0 51.2-23.579 51.2-51.874zM551.416 379.621c0-20.884-22.905-29.642-39.074-29.642-21.558 0-39.747 8.758-39.747 29.642 0 80.168-9.432 195.368-9.432 275.537 0 26.274 21.558 41.095 49.179 41.095 26.274 0 48.505-14.821 48.505-41.095 0-80.168-9.432-195.368-9.432-275.537z" />
<glyph unicode="&#xe919;" glyph-name="resize" d="M991.676 959.727l-267.822-36.758c-15.562-2.136-26.447-16.483-24.311-32.048 2.136-15.567 16.5-26.467 32.048-24.314l184.049 25.261-335.837-335.837c-11.107-11.107-11.107-29.118 0-40.228 11.11-11.107 29.118-11.104 40.228 0l335.837 335.84-25.261-184.049c-2.136-15.564 8.749-29.912 24.311-32.048 15.545-2.133 29.912 8.735 32.048 24.314l36.755 267.819c2.603 18.713-13.559 34.605-32.045 32.048zM403.966 380.197l-335.837-335.84 25.261 184.049c2.136 15.564-8.749 29.912-24.311 32.048-15.57 2.13-29.912-8.746-32.048-24.314l-36.758-267.819c-2.549-18.326 13.178-34.642 32.048-32.048l267.822 36.758c15.562 2.136 26.447 16.483 24.311 32.048-2.136 15.567-16.48 26.456-32.048 24.314l-184.049-25.261 335.837 335.837c11.107 11.107 11.107 29.118 0 40.228-11.107 11.104-29.118 11.104-40.228 0z" />
<glyph unicode="&#xe91a;" glyph-name="right" d="M1012.773 470.661l-313.807 238.066c-12.519 9.495-30.362 7.046-39.855-5.47-9.495-12.516-7.049-30.36 5.47-39.855l246.44-186.961h-882.576c-15.71 0-28.445-12.735-28.445-28.445s12.735-28.445 28.445-28.445h882.576l-246.44-186.961c-12.516-9.495-14.965-27.339-5.47-39.855 9.498-12.519 27.347-14.962 39.855-5.47l313.807 238.066c15.036 11.424 14.9 34.020 0 45.33z" />
<glyph unicode="&#xe91b;" glyph-name="left" d="M995.555 476.444h-882.576l246.44 186.961c12.516 9.495 14.965 27.339 5.47 39.855s-27.341 14.968-39.855 5.47l-313.807-238.069c-14.82-11.25-15.119-33.847 0-45.325l313.807-238.066c12.524-9.501 30.365-7.037 39.855 5.47 9.495 12.516 7.046 30.36-5.47 39.855l-246.44 186.961h882.576c15.707 0 28.445 12.735 28.445 28.445 0 15.707-12.735 28.442-28.445 28.442z" />
<glyph unicode="&#xe91c;" glyph-name="down" d="M767.258 300.891c-12.519 9.498-30.362 7.046-39.854-5.47l-186.961-246.44v882.574c0 15.71-12.738 28.445-28.445 28.445-15.71 0-28.445-12.735-28.445-28.445v-882.574l-186.961 246.44c-9.495 12.516-27.339 14.968-39.854 5.47-12.516-9.495-14.965-27.339-5.47-39.854 2.54-3.348 236.8-312.159 238.367-314.159 11.557-14.703 33.813-14.413 45.023 0.353l238.065 313.806c9.501 12.516 7.052 30.359-5.464 39.854z" />
<glyph unicode="&#xe91d;" glyph-name="up" d="M772.729 634.968l-238.067 313.808c-11.404 15.022-34.001 14.914-45.325 0l-238.067-313.808c-9.495-12.516-7.046-30.36 5.47-39.855 12.513-9.495 30.357-7.049 39.855 5.47l186.962 246.441v-882.579c0-15.71 12.735-28.445 28.445-28.445s28.445 12.735 28.445 28.445v882.579l186.962-246.441c9.501-12.522 27.344-14.959 39.855-5.47 12.51 9.495 14.959 27.339 5.464 39.855z" />
<glyph unicode="&#xe91e;" glyph-name="disabled" d="M149.792 85.79c-199.722 199.722-199.722 524.695 0 724.418s524.695 199.722 724.418 0c199.722-199.722 199.722-524.695 0-724.418-199.714-199.714-524.69-199.728-724.418 0zM169.411 752.462c-159.951-179.761-153.788-456.247 18.511-628.545 172.296-172.299 448.784-178.459 628.545-18.511l-647.056 647.056zM207.538 790.589l647.053-647.053c159.951 179.761 153.788 456.247-18.511 628.545-172.293 172.296-448.782 178.459-628.543 18.508z" />
<glyph unicode="&#xe91f;" glyph-name="info" d="M512-64c-282.317 0-512 229.683-512 512s229.683 512 512 512c282.319 0 512-229.683 512-512s-229.681-512-512-512zM512 906.105c-252.599 0-458.105-205.506-458.105-458.105s205.506-458.105 458.105-458.105 458.105 205.506 458.105 458.105-205.506 458.105-458.105 458.105zM566.574 639.663c0-25.6-24.253-48.505-54.571-48.505-30.989 0-55.242 22.905-55.242 48.505s24.253 47.832 55.242 47.832c30.318 0 54.571-22.232 54.571-47.832zM564.553 497.516v-256.674c0-16.168-23.579-32.337-52.55-32.337-30.316 0-51.874 16.168-51.874 32.337v256.674c0 18.863 21.558 31.663 51.874 31.663 28.971 0 52.55-12.8 52.55-31.663z" />
<glyph unicode="&#xe920;" glyph-name="share" d="M841.228 296.83c-64.703 0-121.532-34.254-153.378-85.559l-330.042 193.036c7.039 28.182 7.309 58.124 0 87.389l330.042 193.036c31.846-51.306 88.675-85.559 153.378-85.559 99.48 0 180.414 80.934 180.414 180.414s-80.931 180.414-180.414 180.414c-116.697 0-203.54-109.964-175.036-224.108l-330.045-193.036c-31.846 51.306-88.675 85.559-153.378 85.559-99.48 0-180.414-80.934-180.414-180.414s80.934-180.414 180.414-180.414c64.703 0 121.532 34.254 153.378 85.559l330.045-193.036c-28.515-114.182 58.411-224.108 175.036-224.108 99.48 0 180.414 80.934 180.414 180.416 0 99.477-80.931 180.411-180.414 180.411zM841.228 904.903c69.099 0 125.317-56.218 125.317-125.32 0-69.099-56.218-125.317-125.317-125.317-69.102 0-125.32 56.218-125.32 125.317 0 69.102 56.221 125.32 125.32 125.32zM182.772 322.681c-69.099 0-125.317 56.218-125.317 125.317s56.218 125.317 125.317 125.317 125.32-56.218 125.32-125.317c-0.003-69.099-56.221-125.317-125.32-125.317zM841.228-8.903c-69.102 0-125.32 56.218-125.32 125.32s56.218 125.317 125.32 125.317c69.099 0 125.317-56.218 125.317-125.317s-56.215-125.32-125.317-125.32z" />
<glyph unicode="&#xe921;" glyph-name="marker" d="M497.229-59.308c-3.868 2.732-95.782 68.175-188.884 177.457-108.408 127.247-190.282 281.459-190.282 447.913 0 217.219 176.719 393.938 393.938 393.938s393.938-176.719 393.938-393.938c0-166.441-81.866-320.653-190.282-447.91-93.102-109.281-185.016-174.725-188.884-177.457-8.85-6.259-20.687-6.259-29.542-0.003zM512 908.8c-188.987 0-342.738-153.754-342.738-342.738 0-93.842 30.892-241.966 178.056-414.707 67.579-79.324 135.521-135.199 164.672-157.755 29.302 22.692 97.812 79.063 165.494 158.694 99.502 117.074 177.254 260.17 177.254 413.765 0 188.987-153.751 342.74-342.738 342.74zM512 371.141c-107.479 0-194.921 87.439-194.921 194.918s87.442 194.921 194.921 194.921 194.921-87.442 194.921-194.921-87.442-194.918-194.921-194.918zM512 709.78c-79.247 0-143.721-64.474-143.721-143.721s64.471-143.718 143.721-143.718 143.721 64.474 143.721 143.718c0 79.25-64.474 143.721-143.721 143.721z" />
<glyph unicode="&#xe922;" glyph-name="inbox" d="M1022.871 336.545c-0.013 0.041-0.023 0.079-0.036 0.12l-158.666 541.494c-3.197 10.908-13.202 18.401-24.568 18.401h-655.204c-11.364 0-21.371-7.493-24.568-18.401l-158.664-541.494c-0.714-2.26-1.165-5.468-1.165-7.654v-303.972c0-14.139 11.461-25.6 25.6-25.6h972.8c14.136 0 25.6 11.461 25.6 25.6v303.972c0 2.156-0.374 4.948-1.129 7.534zM203.574 845.361h616.855l143.795-490.747h-232.573c-12.119 0-22.579-8.499-25.060-20.365l-27.505-131.638h-334.172l-27.505 131.638c-2.481 11.863-12.941 20.365-25.060 20.365h-232.571l143.795 490.747zM972.8 50.639h-921.6v252.772h220.344l27.505-131.638c2.481-11.863 12.941-20.365 25.060-20.365h375.78c12.119 0 22.579 8.499 25.060 20.365l27.505 131.638h220.347v-252.772z" />
<glyph unicode="&#xe923;" glyph-name="prev" d="M792.412-57.651l-596.649 483.554c-14.052 11.389-14.023 32.83 0 44.197l596.649 483.554c12.2 9.89 30.117 8.016 40.004-4.19 9.893-12.203 8.016-30.117-4.19-40.007l-569.379-461.456 569.382-461.456c12.205-9.893 14.080-27.804 4.19-40.007-9.884-12.203-27.802-14.086-40.007-4.19z" />
<glyph unicode="&#xe924;" glyph-name="stop" d="M887.467-64h-750.933c-75.284 0-136.533 61.249-136.533 136.533v750.933c0 75.284 61.249 136.533 136.533 136.533h750.933c75.284 0 136.533-61.249 136.533-136.533v-750.933c0-75.284-61.249-136.533-136.533-136.533zM136.533 891.733c-37.642 0-68.267-30.624-68.267-68.267v-750.933c0-37.642 30.624-68.267 68.267-68.267h750.933c37.642 0 68.267 30.624 68.267 68.267v750.933c0 37.642-30.624 68.267-68.267 68.267h-750.933z" />
<glyph unicode="&#xe925;" glyph-name="play" d="M55.839 32.277v831.439c0 73.985 80.054 120.284 144.195 83.252l720.047-415.72c64.080-36.994 64.141-129.471 0-166.503l-720.047-415.72c-64.061-36.984-144.195 9.174-144.195 83.252zM119.925 863.716v-831.439c0-24.696 26.711-40.089 48.065-27.749l720.047 415.723c21.392 12.346 21.36 43.169 0 55.496l-720.047 415.72c-21.418 12.359-48.065-3.137-48.065-27.749z" />
<glyph unicode="&#xe926;" glyph-name="tag" d="M745.007-64h-466.014c-14.136 0-25.6 11.461-25.6 25.6v697.23c0 6.052 2.145 11.907 6.052 16.53l233.007 275.575c10.222 12.094 28.882 12.081 39.094 0l233.007-275.575c3.907-4.621 6.052-10.478 6.052-16.53v-697.227c0.003-14.142-11.461-25.603-25.598-25.603zM304.593-12.8h414.812v662.257l-207.407 245.3-207.407-245.3v-662.257zM512 482.65c-52.862 0-95.867 43.006-95.867 95.867s43.006 95.867 95.867 95.867 95.867-43.006 95.867-95.867c0-52.862-43.006-95.867-95.867-95.867zM512 623.184c-24.63 0-44.667-20.037-44.667-44.667s20.037-44.667 44.667-44.667c24.63 0 44.667 20.037 44.667 44.667s-20.037 44.667-44.667 44.667z" />
<glyph unicode="&#xe927;" glyph-name="unlock" d="M830.149 473.61h-526.725v226.614c0 115.011 93.568 208.576 208.576 208.576s208.576-93.565 208.576-208.576c0-14.139 11.464-25.6 25.6-25.6 14.139 0 25.6 11.461 25.6 25.6 0 143.242-116.536 259.776-259.776 259.776s-259.776-116.534-259.776-259.776v-226.614h-58.373c-14.139 0-25.6-11.461-25.6-25.6v-486.41c0-14.139 11.461-25.6 25.6-25.6h636.296c14.136 0 25.6 11.461 25.6 25.6v486.41c0.003 14.139-11.461 25.6-25.597 25.6zM804.549-12.8h-585.098v435.21c25.759 0 559.654 0 585.096 0v-435.21zM512 91.228c62.628 0 113.577 50.949 113.577 113.577 0 62.625-50.949 113.577-113.577 113.577-62.625 0-113.577-50.949-113.577-113.577 0.003-62.625 50.952-113.577 113.577-113.577zM512 267.182c34.394 0 62.377-27.983 62.377-62.377s-27.983-62.377-62.377-62.377c-34.394 0-62.377 27.983-62.377 62.377 0.003 34.394 27.983 62.377 62.377 62.377z" />
<glyph unicode="&#xe928;" glyph-name="lock" d="M830.147 473.61h-58.371v226.614c0 143.242-116.534 259.776-259.776 259.776s-259.776-116.534-259.776-259.776v-226.614h-58.371c-14.139 0-25.6-11.461-25.6-25.6v-486.41c0-14.139 11.461-25.6 25.6-25.6h636.296c14.139 0 25.6 11.461 25.6 25.6v486.41c-0.003 14.139-11.464 25.6-25.603 25.6zM303.424 700.224c0 115.011 93.568 208.576 208.576 208.576s208.576-93.565 208.576-208.576v-226.614h-417.152v226.614zM804.547-12.8h-585.093v435.21c34.491 0 552.896 0 585.096 0v-435.21zM512 318.382c-62.625 0-113.577-50.949-113.577-113.577 0-62.625 50.949-113.577 113.577-113.577 62.625 0 113.577 50.949 113.577 113.577 0 62.625-50.952 113.577-113.577 113.577zM512 142.428c-34.394 0-62.377 27.983-62.377 62.377s27.983 62.377 62.377 62.377c34.394 0 62.377-27.983 62.377-62.377s-27.983-62.377-62.377-62.377z" />
<glyph unicode="&#xe929;" glyph-name="refresh" d="M998.387 811.937c-15.488 1.417-29.215-9.993-30.632-25.495l-8.961-97.865c-191.991 356.962-709.866 356.086-897.859-8.319-7.135-13.831-1.708-30.827 12.126-37.965 13.834-7.132 30.827-1.705 37.965 12.123 171.788 333.003 648.966 321.821 808.047-12.089l-104.186 73.582c-12.718 8.978-30.297 5.949-39.275-6.76-8.978-12.712-5.949-30.297 6.76-39.278 1.384-0.978 176.5-124.67 177.906-125.617 17.745-11.946 41.868-0.479 43.801 20.789l19.8 216.263c1.42 15.496-9.993 29.212-25.492 30.632zM950.939 253.71c-13.831 7.135-30.827 1.705-37.965-12.123-171.788-333.003-648.966-321.821-808.047 12.089l104.186-73.582c12.715-8.981 30.297-5.949 39.278 6.76 8.978 12.712 5.949 30.297-6.76 39.278-2.449 1.73-175.283 123.817-177.805 125.533-18.016 12.253-42 0.248-43.905-20.704l-19.802-216.263c-1.417-15.499 9.996-29.212 25.495-30.632 0.874-0.079 1.742-0.118 2.601-0.118 14.403 0 26.693 10.988 28.031 25.613l8.961 97.865c191.991-356.962 709.866-356.086 897.859 8.322 7.135 13.828 1.705 30.827-12.126 37.962z" />
<glyph unicode="&#xe92a;" glyph-name="upload" d="M512-64c-282.319 0-512 229.683-512 512s229.681 512 512 512 512-229.683 512-512-229.681-512-512-512zM512 906.105c-252.599 0-458.105-205.506-458.105-458.105s205.506-458.105 458.105-458.105 458.105 205.506 458.105 458.105-205.506 458.105-458.105 458.105zM592.853 173.358h-161.684c-29.718 0-53.895 24.177-53.895 53.895v213.248h-40.777c-48.009 0-72.068 58.271-37.985 92.13l175.503 174.347c20.946 20.806 55.024 20.803 75.965 0.003l175.506-174.352c34.061-33.835 10.059-92.13-37.985-92.13h-40.755v-213.248c0.003-29.712-24.174-53.892-53.892-53.892zM336.513 494.414l67.708-0.016c14.88 0 26.947-12.064 26.947-26.947v-240.195h161.684v240.195c0 14.883 12.064 26.947 26.947 26.947h67.681l-175.481 174.349-175.487-174.333z" />
<glyph unicode="&#xe92b;" glyph-name="download" d="M512-64c-282.319 0-512 229.683-512 512s229.681 512 512 512 512-229.683 512-512-229.681-512-512-512zM512 906.105c-252.599 0-458.105-205.506-458.105-458.105s205.506-458.105 458.105-458.105 458.105 205.506 458.105 458.105-205.506 458.105-458.105 458.105zM474.018 189.017l-175.506 174.352c-34.059 33.835-10.059 92.13 37.985 92.13h40.755v213.248c0 29.718 24.177 53.895 53.895 53.895h161.684c29.718 0 53.895-24.177 53.895-53.895v-213.248h40.777c48.009 0 72.068-58.271 37.985-92.13l-175.503-174.347c-20.941-20.803-55.018-20.811-75.967-0.005zM336.519 401.602l175.481-174.349 175.487 174.333-67.708 0.016c-14.88 0-26.947 12.064-26.947 26.947v240.195h-161.684v-240.195c0-14.883-12.064-26.947-26.947-26.947h-67.681zM687.762 401.586v0z" />
<glyph unicode="&#xe92c;" glyph-name="time" d="M512-64c-282.317 0-512 229.683-512 512s229.683 512 512 512c282.319 0 512-229.683 512-512s-229.681-512-512-512zM512 906.105c-252.599 0-458.105-205.506-458.105-458.105s205.506-458.105 458.105-458.105 458.105 205.506 458.105 458.105-205.506 458.105-458.105 458.105zM512 421.053h-182.512c-14.883 0-26.947 12.064-26.947 26.947s12.064 26.947 26.947 26.947h155.564v263.23c0 14.883 12.064 26.947 26.947 26.947 14.88 0 26.947-12.064 26.947-26.947v-290.177c0-14.883-12.067-26.947-26.947-26.947z" />
<glyph unicode="&#xe92d;" glyph-name="video" d="M997.053 865.684h-970.105c-14.883 0-26.947-12.064-26.947-26.947 0-17.853 0-765.982 0-781.474 0-14.883 12.064-26.947 26.947-26.947h970.105c14.883 0 26.947 12.064 26.947 26.947 0 17.853 0 765.982 0 781.474 0 14.883-12.064 26.947-26.947 26.947zM646.737 176.664v-92.454h-269.474v92.454h269.474zM53.895 230.559v434.882h916.211v-434.885h-916.211zM377.263 719.336v92.454h269.474v-92.454h-269.474zM970.105 719.336h-269.474v92.454h269.474v-92.454zM53.895 811.789h269.474v-92.454h-269.474v92.454zM53.895 176.664h269.474v-92.454h-269.474v92.454zM970.105 84.211h-269.474v92.454h269.474v-92.454zM689.419 471.336l-248.466 143.454c-17.944 10.367-40.421-2.633-40.421-23.336v-286.901c0-20.86 22.609-33.62 40.421-23.336l248.466 143.444c17.955 10.369 17.925 36.328 0 46.676zM454.427 351.229v193.552l167.623-96.779-167.623-96.773z" />
<glyph unicode="&#xe92e;" glyph-name="file" d="M882.734 704.824l-247.677 247.677c-4.951 4.954-11.602 7.498-18.102 7.498h-457.587c-14.139 0-25.6-11.461-25.6-25.6v-972.8c0-14.139 11.461-25.6 25.6-25.6h705.265c14.139 0 25.6 11.461 25.6 25.6v725.123c0 6.513-2.604 13.207-7.498 18.102zM802.829 712.323h-160.274v160.274l160.274-160.274zM184.968-12.8v921.6h406.387v-222.077c0-14.139 11.461-25.6 25.6-25.6h222.077v-673.923h-654.065z" />
<glyph unicode="&#xe92f;" glyph-name="mockup" d="M963.091 901.942h-902.182c-33.585 0-60.909-27.325-60.909-60.909v-589.563c0-33.593 27.33-60.92 60.92-60.92h309.078c-50.966-173.501-54.291-170.995-43.291-185.689 5.088-6.796 13.083-10.801 21.574-10.801h327.443c17.99 0 30.914 17.319 25.856 34.541l-47.573 161.948h309.078c33.59 0 60.92 27.33 60.92 60.92v589.563c-0.005 33.585-27.33 60.909-60.915 60.909zM639.72 47.953h-255.439l41.887 142.595h171.663l41.89-142.595zM970.105 251.47c0-3.875-3.15-7.025-7.025-7.025-17.594 0-890.263 0-902.16 0-3.875 0-7.025 3.15-7.025 7.025v589.563c0 3.867 3.145 7.014 7.014 7.014h902.184c3.867 0 7.014-3.145 7.014-7.014v-589.563zM889.349 794.236h-754.699c-14.883 0-26.947-12.064-26.947-26.947v-442.088c0-14.595 11.868-26.947 27.034-26.947h754.613c14.883 0 26.947 12.064 26.947 26.947v442.088c0 14.95-12.264 26.947-26.947 26.947zM790.032 740.341l-628.434-368.125v368.125h628.434zM233.968 352.148l628.434 368.125v-368.125h-628.434z" />
<glyph unicode="&#xe930;" glyph-name="home" d="M992.583 457.48l-442.743 485.824c-20.288 22.264-55.391 22.261-75.676 0l-442.74-485.824c-29.978-32.896-6.609-85.676 37.837-85.676h73.456v-384.611c0-28.228 22.965-51.193 51.193-51.193 19.942 0 591.783 0 636.187 0 28.228 0 51.193 22.965 51.193 51.193v384.611h73.454c44.509 0 67.777 52.826 37.839 85.676zM410.020-12.807v306.652h203.965v-306.652h-203.965zM855.694 422.996c-14.137 0-25.596-11.459-25.596-25.596v-410.207h-164.92v332.248c0 14.137-11.459 25.596-25.596 25.596h-255.157c-14.137 0-25.596-11.459-25.596-25.596v-332.248h-164.917v410.207c0 14.137-11.459 25.596-25.596 25.596l-99.040 0.013 442.73 485.811 442.74-485.824h-99.050z" />
<glyph unicode="&#xe931;" glyph-name="vector" d="M995.556 675.556c15.707 0 28.444 12.735 28.444 28.444v227.556c0 15.71-12.737 28.444-28.444 28.444h-227.556c-15.707 0-28.444-12.735-28.444-28.444v-85.333h-455.111v85.333c0 15.71-12.737 28.444-28.444 28.444h-227.556c-15.71 0-28.444-12.735-28.444-28.444v-227.556c0-15.71 12.735-28.444 28.444-28.444h85.333v-455.111h-85.333c-15.71 0-28.444-12.735-28.444-28.444v-227.556c0-15.71 12.735-28.444 28.444-28.444h227.556c15.707 0 28.444 12.735 28.444 28.444v85.333h455.111v-85.333c0-15.71 12.737-28.444 28.444-28.444h227.556c15.707 0 28.444 12.735 28.444 28.444v227.556c0 15.71-12.737 28.444-28.444 28.444h-85.333v455.111h85.333zM796.444 903.111h170.667v-170.667c-18.122 0-153.094 0-170.667 0 0 18.122 0 153.094 0 170.667zM56.889 903.111h170.667c0-18.122 0-153.094 0-170.667-18.122 0-153.094 0-170.667 0v170.667zM227.556-7.111h-170.667v170.667c18.122 0 153.094 0 170.667 0 0-18.122 0-153.094 0-170.667zM967.111-7.111h-170.667c0 18.122 0 153.094 0 170.667 18.122 0 153.094 0 170.667 0v-170.667zM853.333 220.444h-85.333c-15.707 0-28.444-12.735-28.444-28.444v-85.333h-455.111v85.333c0 15.71-12.737 28.444-28.444 28.444h-85.333v455.111h85.333c15.707 0 28.444 12.735 28.444 28.444v85.333h455.111v-85.333c0-15.71 12.737-28.444 28.444-28.444h85.333v-455.111z" />
<glyph unicode="&#xe932;" glyph-name="trash" d="M859.945 828.933h-192.1v105.467c0 14.139-11.464 25.6-25.6 25.6h-260.49c-14.136 0-25.6-11.461-25.6-25.6v-105.467h-192.1c-42.348 0-76.8-34.452-76.8-76.8v-79.867c0-14.139 11.464-25.6 25.6-25.6h60.278v-633.866c0-42.348 34.452-76.8 76.8-76.8h524.134c42.348 0 76.8 34.452 76.8 76.8v633.866h60.278c14.139 0 25.6 11.461 25.6 25.6v79.867c0 42.348-34.452 76.8-76.8 76.8zM407.355 908.8h209.29v-79.867h-209.29v79.867zM799.667 12.8c0-14.116-11.484-25.6-25.6-25.6h-524.134c-14.116 0-25.6 11.484-25.6 25.6v633.866h575.334v-633.866zM885.545 697.866c-27.443 0-682.263 0-747.090 0v54.267c0 14.116 11.484 25.6 25.6 25.6 35.873 0 660.785 0 695.89 0 14.116 0 25.6-11.484 25.6-25.6v-54.267zM512 96.054c14.139 0 25.6 11.461 25.6 25.6v390.564c0 14.139-11.461 25.6-25.6 25.6s-25.6-11.461-25.6-25.6v-390.564c0-14.139 11.461-25.6 25.6-25.6zM665.6 96.054c14.136 0 25.6 11.461 25.6 25.6v390.564c0 14.139-11.464 25.6-25.6 25.6-14.139 0-25.6-11.461-25.6-25.6v-390.564c0-14.139 11.461-25.6 25.6-25.6zM358.4 96.054c14.139 0 25.6 11.461 25.6 25.6v390.564c0 14.139-11.461 25.6-25.6 25.6s-25.6-11.461-25.6-25.6v-390.564c0-14.139 11.461-25.6 25.6-25.6z" />
<glyph unicode="&#xe933;" glyph-name="settings" d="M512 285.66c-89.516 0-162.34 72.824-162.34 162.34s72.824 162.34 162.34 162.34 162.34-72.824 162.34-162.34-72.824-162.34-162.34-162.34zM512 559.14c-61.284 0-111.14-49.859-111.14-111.14s49.859-111.14 111.14-111.14 111.14 49.859 111.14 111.14-49.856 111.14-111.14 111.14zM598.656-64h-173.312c-13.292 0-24.374 10.173-25.508 23.419l-11.077 129.513c-46.1 15.849-89.126 40.714-126.029 72.84l-117.773-55.199c-12.037-5.637-26.391-1.132-33.034 10.381l-86.656 150.093c-6.648 11.512-3.377 26.196 7.526 33.8l106.652 74.371c-9.308 47.936-9.308 97.636 0 145.569l-106.652 74.371c-10.906 7.603-14.175 22.287-7.526 33.8l86.656 150.093c6.646 11.51 21 16.026 33.034 10.381l117.775-55.199c36.902 32.125 79.928 56.991 126.029 72.84l11.077 129.513c1.132 13.243 12.214 23.416 25.505 23.416h173.309c13.292 0 24.374-10.173 25.508-23.419l11.077-129.513c46.1-15.849 89.126-40.714 126.026-72.84l117.775 55.199c12.035 5.642 26.388 1.134 33.034-10.381l86.656-150.093c6.648-11.512 3.377-26.196-7.526-33.8l-106.65-74.368c9.334-48.008 9.344-97.523 0-145.574l106.65-74.368c10.906-7.603 14.175-22.287 7.526-33.8l-86.656-150.093c-6.646-11.51-20.997-16.023-33.034-10.381l-117.775 55.199c-36.902-32.125-79.928-56.991-126.026-72.84l-11.077-129.513c-1.132-13.243-12.214-23.416-25.505-23.416zM448.85-12.8h126.3l10.532 123.131c0.904 10.54 8.189 19.438 18.345 22.397 50.253 14.643 96.909 41.608 134.925 77.98 7.639 7.311 18.985 9.172 28.562 4.682l111.974-52.48 63.15 109.384-101.384 70.694c-8.668 6.042-12.731 16.788-10.23 27.054 12.416 51.003 12.467 104.704 0 155.917-2.501 10.266 1.562 21.012 10.23 27.054l101.384 70.694-63.15 109.384-111.974-52.48c-9.567-4.488-20.918-2.632-28.562 4.682-38.019 36.37-84.672 63.337-134.925 77.98-10.156 2.959-17.441 11.858-18.345 22.395l-10.532 123.131h-126.3l-10.532-123.131c-0.904-10.54-8.189-19.438-18.345-22.395-50.253-14.643-96.906-41.608-134.925-77.98-7.639-7.309-18.99-9.17-28.562-4.682l-111.974 52.48-63.15-109.384 101.381-70.694c8.668-6.042 12.731-16.791 10.23-27.054-12.419-50.998-12.419-104.914 0-155.917 2.501-10.266-1.562-21.012-10.23-27.054l-101.381-70.694 63.15-109.384 111.974 52.48c9.569 4.483 20.92 2.629 28.562-4.682 38.019-36.37 84.672-63.337 134.925-77.98 10.156-2.959 17.441-11.858 18.345-22.397l10.532-123.131z" />
<glyph unicode="&#xe934;" glyph-name="photo" d="M997.053 865.684h-970.105c-14.883 0-26.947-12.064-26.947-26.947v-781.474c0-14.88 12.137-26.947 26.945-26.947 0.008 0 0.013 0 0.022 0 10.642 0 955.085 0 970.086 0 14.88 0 26.947 12.064 26.947 26.947 0 37.535 0 736.849 0 781.474 0 14.883-12.067 26.947-26.947 26.947zM53.895 811.789h916.211v-431.438l-216.253 304.203c-10.739 15.104-33.196 15.093-43.927 0l-233.607-328.612c-62.48 87.873-39.411 55.428-113.095 159.062-10.739 15.101-33.196 15.091-43.927-0.003l-265.402-373.326v670.114zM341.264 452.886l262.093-368.675h-524.188l262.095 368.675zM970.105 84.211h-300.622l-160.1 225.226 222.504 312.996 238.217-335.099v-203.124z" />
<glyph unicode="&#xe935;" glyph-name="zoom-out" d="M1014.91-11.016l-346.991 346.991c126.355 148.76 119.351 372.791-21.042 513.187-147.789 147.783-388.253 147.783-536.039 0-147.786-147.786-147.786-388.25 0-536.036l0.003-0.003c140.343-140.343 364.34-147.466 513.184-21.042l346.991-346.991c12.123-12.119 31.768-12.119 43.894 0 12.119 12.119 12.119 31.771 0 43.894zM154.731 357.017c-123.584 123.584-123.584 324.67 0 448.254 123.581 123.584 324.667 123.584 448.254 0 123.584-123.584 123.584-324.67 0-448.254-123.587-123.587-324.673-123.587-448.254 0zM511.899 612.177h-266.087c-17.141 0-31.036-13.895-31.036-31.036s13.895-31.036 31.036-31.036h266.087c17.141 0 31.036 13.895 31.036 31.036 0.003 17.141-13.895 31.036-31.036 31.036z" />
<glyph unicode="&#xe936;" glyph-name="icon" d="M209.778 960c-115.672 0-209.778-94.106-209.778-209.778s94.106-209.778 209.778-209.778 209.778 94.106 209.778 209.778-94.106 209.778-209.778 209.778zM209.778 597.333c-84.304 0-152.889 68.585-152.889 152.889s68.585 152.889 152.889 152.889c84.304 0 152.889-68.585 152.889-152.889s-68.585-152.889-152.889-152.889zM814.222 540.444c115.672 0 209.778 94.106 209.778 209.778s-94.106 209.778-209.778 209.778-209.778-94.106-209.778-209.778 94.106-209.778 209.778-209.778zM814.222 903.111c84.304 0 152.889-68.585 152.889-152.889s-68.585-152.889-152.889-152.889-152.889 68.585-152.889 152.889 68.585 152.889 152.889 152.889zM209.778 355.556c-115.672 0-209.778-94.106-209.778-209.778s94.106-209.778 209.778-209.778 209.778 94.106 209.778 209.778-94.106 209.778-209.778 209.778zM209.778-7.111c-84.304 0-152.889 68.585-152.889 152.889s68.585 152.889 152.889 152.889c84.304 0 152.889-68.585 152.889-152.889s-68.585-152.889-152.889-152.889zM814.222 355.556c-115.672 0-209.778-94.106-209.778-209.778s94.106-209.778 209.778-209.778 209.778 94.106 209.778 209.778-94.106 209.778-209.778 209.778zM814.222-7.111c-84.304 0-152.889 68.585-152.889 152.889s68.585 152.889 152.889 152.889 152.889-68.585 152.889-152.889-68.585-152.889-152.889-152.889z" />
<glyph unicode="&#xe937;" glyph-name="zoom-in" d="M1014.91-11.016l-346.991 346.991c126.355 148.76 119.351 372.791-21.042 513.187-147.786 147.783-388.253 147.783-536.039 0-147.786-147.786-147.786-388.25 0-536.036l0.003-0.003c140.349-140.353 364.352-147.457 513.184-21.042l346.991-346.991c12.119-12.119 31.771-12.119 43.894 0 12.119 12.119 12.119 31.771 0 43.894zM154.731 357.017c-123.584 123.584-123.584 324.67 0 448.254 123.581 123.584 324.67 123.584 448.254 0s123.581-324.67 0-448.254c-123.584-123.587-324.673-123.587-448.254 0zM511.899 612.18h-102.008v102.008c0 17.141-13.895 31.036-31.036 31.036s-31.036-13.895-31.036-31.036v-102.008h-102.008c-17.141 0-31.036-13.895-31.036-31.036s13.895-31.036 31.036-31.036h102.008v-102.008c0-17.141 13.895-31.036 31.036-31.036s31.036 13.895 31.036 31.036v102.008h102.008c17.141 0 31.036 13.895 31.036 31.036 0 17.138-13.895 31.036-31.036 31.036z" />
<glyph unicode="&#xe938;" glyph-name="paper-plane" d="M927.021-28.815l-391.265 972.812c-8.771 21.788-39.115 20.885-47.504 0l-391.265-972.812c-7.798-19.392 9.731-39.381 29.876-34.409l385.141 94.885 385.141-94.885c20.288-5.007 37.622 15.143 29.876 34.409zM486.404 802.187v-724.102l-323.265-79.643 323.265 803.745zM537.604 78.084v724.102l323.265-803.743-323.265 79.64z" />
<glyph unicode="&#xe939;" glyph-name="subtitles" d="M946.237 828.799h-868.475c-42.878 0-77.763-34.884-77.763-77.763v-606.072c0-42.878 34.884-77.763 77.763-77.763h868.475c42.878 0 77.763 34.884 77.763 77.763v606.072c0 42.878-34.884 77.763-77.763 77.763zM972.158 144.964c0-14.293-11.628-25.921-25.921-25.921h-868.475c-14.293 0-25.921 11.628-25.921 25.921v606.072c0 14.293 11.628 25.921 25.921 25.921h868.475c14.293 0 25.921-11.628 25.921-25.921v-606.072zM366.97 566.306c44.161 0 47.417-31.611 48.345-46.020 0.467-13.945 13.015-19.060 30.216-19.060 20.454 0 30.216 5.578 30.216 29.752 0 53.923-46.020 88.323-110.636 88.323-58.573 0-107.383-28.821-107.383-106.452v-129.695c0-77.631 48.345-106.452 106.916-106.452 65.080 0 111.1 35.794 111.1 92.043 0 23.707-9.762 29.749-30.683 29.749-15.804 0-28.821-4.648-29.749-19.060-1.395-19.524-5.114-49.74-47.415-49.74-32.075 0-49.74 17.201-49.74 53.459v129.695c0.003 36.258 17.668 53.457 48.812 53.457zM657.494 566.306c44.161 0 47.415-31.611 48.345-46.020 0.467-13.945 13.015-19.060 30.216-19.060 20.454 0 30.216 5.578 30.216 29.752 0 53.923-46.020 88.323-110.636 88.323-58.573 0-107.383-28.821-107.383-106.452v-129.695c0-77.631 48.345-106.452 106.919-106.452 65.080 0 111.1 35.794 111.1 92.043 0 23.707-9.762 29.749-30.68 29.749-15.804 0-28.821-4.648-29.752-19.060-1.395-19.524-5.114-49.74-47.415-49.74-32.075 0-49.74 17.201-49.74 53.459v129.695c-0.003 36.258 17.663 53.457 48.809 53.457z" />
<glyph unicode="&#xe93a;" glyph-name="cross" d="M554.594 448.002l460.585 460.582c11.761 11.761 11.761 30.831 0 42.595s-30.831 11.761-42.595 0l-460.585-460.585-460.582 460.585c-11.761 11.761-30.831 11.761-42.595 0s-11.761-30.831 0-42.595l460.585-460.582-460.585-460.585c-11.761-11.761-11.761-30.831 0-42.595 11.761-11.761 30.831-11.761 42.595 0l460.582 460.585 460.585-460.585c11.761-11.761 30.831-11.761 42.595 0 11.761 11.761 11.761 30.831 0 42.595l-460.585 460.585z" />
<glyph unicode="&#xe93b;" glyph-name="fullscreen" d="M993.882 467.492c-16.631 0-30.118-13.484-30.118-30.118v-441.139h-903.529v903.529h441.142c16.631 0 30.118 13.484 30.118 30.118s-13.487 30.118-30.118 30.118h-471.26c-16.634 0-30.118-13.484-30.118-30.118v-963.765c0-16.634 13.484-30.118 30.118-30.118h963.765c16.631 0 30.118 13.484 30.118 30.118v471.257c0 16.634-13.487 30.118-30.118 30.118zM993.867 960h-324.075c-16.634 0-30.118-13.484-30.118-30.118s13.484-30.118 30.118-30.118h251.38l-427.339-427.339c-11.761-11.761-11.761-30.831 0-42.595 11.764-11.761 30.828-11.761 42.595 0l427.336 427.339v-251.38c0-16.634 13.487-30.118 30.118-30.118s30.118 13.484 30.118 30.118v324.078c0.012 16.76-13.688 30.145-30.133 30.133z" />
<glyph unicode="&#xe93c;" glyph-name="check" d="M328.914 104.627l-320.582 320.579c-11.108 11.108-11.108 29.118 0 40.229 11.11 11.108 29.116 11.108 40.229 0l300.469-300.469 626.41 626.41c11.11 11.108 29.121 11.108 40.229 0s11.108-29.118 0-40.226l-646.526-646.523c-11.11-11.108-29.118-11.11-40.229 0z" />
<glyph unicode="&#xe93d;" glyph-name="user" d="M512 464.727c-136.548 0-247.636 111.091-247.636 247.636s111.089 247.636 247.636 247.636 247.636-111.089 247.636-247.636-111.089-247.636-247.636-247.636zM512 908.8c-108.316 0-196.436-88.12-196.436-196.436s88.123-196.436 196.436-196.436 196.436 88.12 196.436 196.436c0 108.316-88.12 196.436-196.436 196.436zM837.581-64h-651.162c-14.136 0-25.6 11.461-25.6 25.6v104.026c0 193.641 157.54 351.181 351.181 351.181s351.181-157.537 351.181-351.181v-104.026c0-14.139-11.464-25.6-25.6-25.6zM212.019-12.8h599.962v78.426c0 165.409-134.569 299.981-299.981 299.981s-299.981-134.569-299.981-299.981v-78.426z" />
<glyph unicode="&#xe93e;" glyph-name="list" d="M882.734 704.824l-247.677 247.677c-4.918 4.915-11.676 7.498-18.102 7.498h-457.587c-14.136 0-25.6-11.461-25.6-25.6v-972.8c0-14.139 11.464-25.6 25.6-25.6h705.265c14.136 0 25.6 11.461 25.6 25.6v725.12c0 6.51-2.537 13.14-7.498 18.104zM642.555 872.594l160.274-160.274h-160.274v160.274zM184.968-12.8v921.6h406.387v-222.077c0-14.139 11.464-25.6 25.6-25.6h222.077v-673.923h-654.065zM698.916 442.463h-373.832c-14.136 0-25.6-11.461-25.6-25.6s11.464-25.6 25.6-25.6h373.829c14.136 0 25.6 11.461 25.6 25.6 0.003 14.139-11.461 25.6-25.597 25.6zM698.916 257.060h-373.832c-14.136 0-25.6-11.461-25.6-25.6s11.464-25.6 25.6-25.6h373.829c14.136 0 25.6 11.461 25.6 25.6 0.003 14.136-11.461 25.6-25.597 25.6z" />
<glyph unicode="&#xe93f;" glyph-name="volume" d="M484.056 803.624l-275.356-176.54h-181.752c-14.883 0-26.947-12.064-26.947-26.947v-304.276c0-14.883 12.064-26.947 26.947-26.947h181.752l275.359-176.54c17.847-11.442 41.494 1.318 41.494 22.684v665.88c-0.003 21.275-23.59 34.167-41.496 22.687zM471.654 164.347l-240.516 154.198c-4.341 2.784-9.388 4.263-14.543 4.263h-162.7v250.381h162.7c5.155 0 10.205 1.479 14.543 4.263l240.513 154.201v-567.307zM664.113 807.885c-14.88 0-26.947-12.064-26.947-26.947s12.067-26.947 26.947-26.947c168.723 0 305.993-137.267 305.993-305.993s-137.27-305.993-305.993-305.993c-14.88 0-26.947-12.064-26.947-26.947s12.067-26.947 26.947-26.947c198.443 0 359.887 161.444 359.887 359.887s-161.444 359.887-359.887 359.887zM664.11 334.325c-14.88 0-26.947-12.064-26.947-26.947s12.067-26.947 26.947-26.947c92.4 0 167.575 75.172 167.575 167.57s-75.175 167.57-167.575 167.57c-14.88 0-26.947-12.064-26.947-26.947s12.067-26.947 26.947-26.947c62.682 0 113.68-50.993 113.68-113.675s-50.998-113.675-113.68-113.675z" />
<glyph unicode="&#xe940;" glyph-name="star" d="M176.252 32.161l85.994 284.244c0.984 3.254-0.174 6.819-2.882 8.874l-236.649 179.413c-43.193 32.747-20.744 101.56 33.357 102.662l296.909 6.050c3.399 0.069 6.432 2.275 7.549 5.485l97.503 280.505c17.796 51.2 90.179 51.114 107.946 0l97.503-280.505c1.117-3.21 4.15-5.414 7.551-5.485l296.906-6.050c54.192-1.104 76.479-69.971 33.355-102.662l-236.646-179.413c-2.708-2.054-3.866-5.62-2.884-8.874l85.994-284.244c15.695-51.886-42.912-94.361-87.329-63.45l-243.76 169.624c-2.789 1.942-6.54 1.939-9.329 0l-243.76-169.624c-44.493-30.953-103.005 11.643-87.329 63.45zM504.289 883.315l-97.503-280.505c-7.809-22.463-29.030-37.882-52.809-38.367l-296.909-6.050c-7.823-0.159-11.011-9.941-4.767-14.677l236.646-179.413c18.952-14.368 27.057-39.315 20.171-62.082l-85.994-284.242c-2.267-7.49 6.053-13.55 12.483-9.070l243.76 169.621c19.523 13.585 45.757 13.585 65.274 0l243.76-169.621c6.423-4.474 14.753 1.57 12.485 9.070l-85.994 284.242c-6.888 22.765 1.219 47.713 20.171 62.082l236.644 179.411c6.239 4.726 3.068 14.515-4.767 14.677l-296.906 6.050c-23.778 0.485-45 15.906-52.806 38.369l-97.503 280.505c-2.578 7.392-12.865 7.402-15.436 0z" />
<glyph unicode="&#xe941;" glyph-name="heart" d="M495.302 8.769l-414.691 414.691c-107.481 107.481-107.481 282.364 0 389.844 107.645 107.645 282.129 107.713 389.844 0l41.447-41.45 41.447 41.45c107.734 107.73 282.103 107.744 389.844 0 107.732-107.732 107.741-282.101 0-389.844l-414.689-414.691c-9.166-9.168-24.036-9.17-33.204 0zM113.813 780.102c-89.382-89.382-89.394-234.049 0-323.44l398.090-398.090 398.090 398.090c89.382 89.38 89.391 234.049 0 323.438-89.382 89.382-234.049 89.391-323.44 0l-58.049-58.051c-9.168-9.166-24.034-9.166-33.204 0l-58.049 58.051c-89.377 89.382-234.047 89.394-323.438 0.002z" />
<glyph unicode="&#xe942;" glyph-name="copyright" d="M512 960c-282.317 0-512-229.683-512-512s229.683-512 512-512 512 229.683 512 512-229.683 512-512 512zM512-10.105c-252.599 0-458.105 205.506-458.105 458.105s205.506 458.105 458.105 458.105 458.105-205.506 458.105-458.105-205.506-458.105-458.105-458.105zM512.331 616.585c62.93 0 67.568-45.045 68.891-65.579 0.663-19.871 18.548-27.16 43.057-27.16 29.146 0 43.057 7.949 43.057 42.394 0 76.84-65.579 125.86-157.656 125.86-83.464 0-153.018-41.070-153.018-151.692v-184.816c0-110.624 68.891-151.695 152.358-151.695 92.739 0 158.316 51.006 158.316 131.158 0 33.784-13.91 42.394-43.719 42.394-22.52 0-41.070-6.624-42.394-27.16-1.986-27.82-7.287-70.88-67.565-70.88-45.705 0-70.88 24.509-70.88 76.18v184.816c0 51.672 25.172 76.18 69.554 76.18z" />
<glyph unicode="&#xe943;" glyph-name="search" d="M1014.91-11.016l-346.991 346.991c126.355 148.76 119.354 372.791-21.042 513.187-147.786 147.783-388.253 147.783-536.039 0-147.786-147.786-147.786-388.25 0-536.036v0c140.349-140.349 364.352-147.457 513.187-21.042l346.991-346.991c12.119-12.119 31.771-12.119 43.894 0 12.119 12.116 12.119 31.768 0 43.891zM154.731 357.017c-123.584 123.584-123.584 324.67 0 448.254 123.581 123.584 324.67 123.584 448.254 0s123.581-324.67 0-448.254c-123.584-123.587-324.673-123.587-448.254 0z" />
<glyph unicode="&#xe944;" glyph-name="popular" d="M527.306 954.918c-9.080 6.776-21.535 6.776-30.615 0-160.154-119.475-400.773-371.612-400.773-602.836 0-229.427 186.655-416.082 416.082-416.082s416.082 186.655 416.082 416.082c0 230.915-240.484 483.259-400.776 602.836zM512-12.8c-201.196 0-364.882 163.684-364.882 364.882 0 201.539 207.201 423.867 364.882 549.847 157.573-125.893 364.882-348.232 364.882-549.847 0-201.196-163.686-364.882-364.882-364.882zM529.39 607.936c-9.81 9.073-24.95 9.073-34.76 0.003-58.683-54.257-195.177-193.751-195.177-316.956 0-117.199 95.347-212.547 212.547-212.547s212.547 95.347 212.547 212.547c0 123.169-136.479 262.684-195.156 316.954zM512 129.636c-88.965 0-161.347 72.379-161.347 161.347 0 94.001 107.814 210.714 161.352 262.853 53.535-52.15 161.339-168.881 161.339-262.853 0.003-88.968-72.379-161.347-161.344-161.347z" />
<glyph unicode="&#xe945;" glyph-name="pencil" d="M974.608 672.203c65.842 65.867 65.864 172.49-0.026 238.38-65.883 65.883-172.522 65.893-238.412 0l-655.332-655.326c-3.987-3.987-6.937-9.315-8.265-14.287l-71.438-264.599c-6.396-23.697 15.317-45.683 39.232-39.232l264.599 71.438c0.083 0.022 0.16 0.061 0.243 0.083 5.308 1.475 10.281 4.419 14.044 8.182l655.313 655.313c0.006 0.006 0.010 0.010 0.016 0.016 0.010 0.010 0.019 0.022 0.026 0.032zM929.328 865.332c33.342-33.342 39.111-82.903 19.099-121.751l-140.851 140.851c38.823 19.999 88.39 14.268 121.751-19.099zM296.628 84.722l-147.909 147.906 610.078 610.078 51.328-51.328-409.107-409.107c-12.495-12.495-12.495-32.756 0-45.254 12.498-12.495 32.753-12.495 45.254 0l409.103 409.11 51.328-51.328-610.075-610.078zM119.943 170.902l114.955-114.955-157.47-42.515 42.515 157.47z" />
<glyph unicode="&#xe946;" glyph-name="bug" d="M997.381 454.134h-169.897v157.706c0 28.799-3.902 56.698-11.164 83.221l145.538 145.538c10.395 10.395 10.395 27.25 0 37.644-10.397 10.395-27.247 10.395-37.647 0l-128.507-128.505c-115.512 236.641-452.12 236.103-567.328-0.080l-128.587 128.587c-10.397 10.395-27.247 10.395-37.647 0-10.395-10.395-10.395-27.25 0-37.644l145.629-145.629c-7.248-26.496-11.14-54.366-11.14-83.13v-157.706h-170.011c-14.702 0-26.619-11.917-26.619-26.619s11.917-26.619 26.619-26.619h170.014v-94.422c0-46.189 9.979-90.089 27.894-129.66l-162.382-162.382c-10.395-10.395-10.395-27.25 0-37.647 10.397-10.395 27.247-10.395 37.647 0l151.879 151.879c125.617-183.377 394.959-183.576 520.732-0.069l151.809-151.809c10.397-10.395 27.247-10.395 37.647 0 10.395 10.395 10.395 27.25 0 37.647l-162.303 162.303c17.938 39.593 27.931 83.522 27.931 129.74v94.422h169.897c14.699 0 26.619 11.917 26.619 26.619-0.003 14.699-11.92 26.616-26.621 26.616zM512.060 874.029c135.585 0 247.461-103.454 260.845-235.571h-521.691c13.381 132.117 125.26 235.571 260.845 235.571zM249.87 306.477v278.746h235.512v-539.586c-132.088 13.408-235.512 125.273-235.512 260.84zM538.62 45.627v539.597h235.629v-278.746c-0.003-135.607-103.486-247.496-235.629-260.851z" />
<glyph unicode="&#xe947;" glyph-name="receipt" d="M325.091 504.45h373.819c14.136 0 25.599 11.461 25.599 25.599s-11.463 25.599-25.599 25.599h-373.819c-14.136 0-25.599-11.461-25.599-25.599s11.461-25.599 25.599-25.599zM325.091 319.050h373.819c14.136 0 25.599 11.461 25.599 25.599s-11.463 25.599-25.599 25.599h-373.819c-14.136 0-25.599-11.461-25.599-25.599s11.461-25.599 25.599-25.599zM325.091 689.851h373.819c14.136 0 25.599 11.461 25.599 25.599s-11.463 25.599-25.599 25.599h-373.819c-14.136 0-25.599-11.461-25.599-25.599s11.461-25.599 25.599-25.599zM864.629 960h-705.261c-14.136 0-25.599-11.461-25.599-25.599v-972.773c0-22.724 27.583-34.213 43.701-18.101l158.303 158.303 158.127-158.101c9.994-9.994 26.203-9.994 36.2 0l158.127 158.101 158.303-158.303c16.002-16.002 43.701-4.828 43.701 18.101v972.773c-0.003 14.138-11.463 25.599-25.602 25.599zM839.030 23.429l-132.704 132.704c-9.997 9.994-26.203 9.997-36.203 0l-158.127-158.104-158.127 158.104c-9.994 9.994-26.198 9.997-36.203 0l-132.704-132.704v885.372h654.062v-885.372z" />
<glyph unicode="&#xe948;" glyph-name="envelope" d="M1024 728.005c0 55.798-45.356 100.747-100.747 100.747h-822.506c-55.342 0-100.747-44.898-100.747-100.747v-560.013c0-55.798 45.356-100.745 100.747-100.745h822.504c26.444 0 51.429 10.184 70.361 28.677 0.002 0.002 0.007 0.007 0.012 0.010 0.002 0.002 0.005 0.005 0.007 0.007 0.007 0.007 0.012 0.012 0.020 0.020 0.012 0.010 0.020 0.022 0.032 0.034 19.551 19.090 30.315 44.654 30.315 71.999v560.011zM975.238 728.005v-560.013c0-5.91-0.975-11.661-2.85-17.069l-314.361 297.072 314.361 297.082c1.875-5.41 2.85-11.159 2.85-17.072zM100.747 779.991h822.504c4.537 0 8.994-0.583 13.278-1.709l-330.74-312.552c-0.002-0.002-0.007-0.007-0.012-0.010l-66.826-63.161c-15.111-14.292-38.79-14.299-53.911 0.007l-66.818 63.154c-0.005 0.002-0.007 0.007-0.012 0.010l-330.74 312.552c4.286 1.126 8.741 1.709 13.278 1.709zM365.973 447.995l-314.361-297.072c-1.875 5.41-2.85 11.159-2.85 17.069v560.013c0 5.91 0.975 11.661 2.85 17.069l314.361-297.079zM100.747 116.009c-4.537 0-8.992 0.583-13.278 1.712l314 296.731 50.069-47.319c34.116-32.271 87.264-31.839 120.917-0.007l50.076 47.323 314-296.731c-4.286-1.129-8.741-1.712-13.278-1.712h-822.506z" />
<glyph unicode="&#xe949;" glyph-name="earnings" d="M512 960c-282.317 0-512-229.683-512-512s229.683-512 512-512c282.319 0 512 229.683 512 512s-229.681 512-512 512zM512-10.105c-252.599 0-458.105 205.506-458.105 458.105s205.506 458.105 458.105 458.105 458.105-205.506 458.105-458.105-205.506-458.105-458.105-458.105zM540.367 492.892v109.74c41.777-3.118 56.118-23.070 73.577-23.070 23.072 0 33.048 28.683 33.048 43.021 0 36.163-66.094 48.012-106.623 49.257v16.212c0 8.106-10.601 15.589-21.197 15.589-11.849 0-21.202-7.483-21.202-15.589v-17.459c-62.351-8.106-120.961-42.399-120.961-121.587 0-79.81 64.224-104.127 120.961-125.327v-124.079c-54.87 6.236-73.574 46.764-97.269 46.764-19.329 0-34.918-26.187-34.918-43.647 0-34.918 56.74-75.447 132.185-77.315v-17.459c0-8.106 9.353-15.586 21.202-15.586 10.598 0 21.197 7.481 21.197 15.586v19.329c69.834 11.224 117.849 55.493 117.849 132.188 0 84.798-62.354 112.856-117.849 133.43zM502.956 506.611c-28.68 11.224-49.882 23.070-49.882 50.505 0 23.695 18.704 38.659 49.882 43.647v-94.151zM535.382 300.226v108.493c26.81-11.849 46.764-26.81 46.764-57.363-0.003-29.308-19.332-45.519-46.764-51.13z" />
<glyph unicode="&#xe94a;" glyph-name="cloud" d="M833.016 126.489h-642.030c-105.31 0-190.986 85.676-190.986 190.986 0 90.064 63.095 167.252 149.438 186.397 13.563 147.67 137.675 265.639 291.555 265.639 75.304 0 146.204-28.205 200.73-79.636 111.547 3.436 203.126-78.639 217.684-183.261 92.752-12.794 164.59-92.336 164.59-189.139 0.002-105.31-85.672-190.986-190.982-190.986zM440.993 726.643c-135.088 0-245.429-107.123-249.797-241.68-0.343-10.541-8.301-19.265-18.766-20.572-73.864-9.227-129.563-72.387-129.563-146.916 0-81.672 66.446-148.118 148.118-148.118h642.030c81.672 0 148.118 66.446 148.118 148.118 0 79.835-62.459 144.828-142.192 147.964-11.071 0.435-19.985 9.236-20.564 20.3-4.941 94.666-86.634 168.176-183.27 160.865-6.248-0.472-12.402 1.815-16.821 6.265-47.279 47.573-110.242 73.774-177.294 73.774z" />
<glyph unicode="&#xe94b;" glyph-name="stats" d="M220.968 462.689h-194.021c-14.883 0-26.947-12.064-26.947-26.947v-366.18c0-14.883 12.064-26.947 26.947-26.947h194.021c14.883 0 26.947 12.064 26.947 26.947v366.18c0 14.883-12.064 26.947-26.947 26.947zM194.021 96.512h-140.126v312.282h140.126v-312.282zM609.011 659.364h-194.021c-14.883 0-26.947-12.064-26.947-26.947v-562.852c0-14.883 12.064-26.947 26.947-26.947h194.021c14.883 0 26.947 12.064 26.947 26.947v562.852c0 14.883-12.064 26.947-26.947 26.947zM582.063 96.512h-140.126v508.958h140.126v-508.958zM997.053 853.385h-194.021c-14.883 0-26.947-12.064-26.947-26.947v-756.873c0-14.883 12.064-26.947 26.947-26.947h194.021c14.883 0 26.947 12.064 26.947 26.947v756.873c0 14.88-12.064 26.947-26.947 26.947zM970.105 96.512h-140.126v702.979h140.126v-702.979z" />
<glyph unicode="&#xe94c;" glyph-name="minus" d="M997.053 421.053h-970.105c-14.883 0-26.947 12.064-26.947 26.947s12.064 26.947 26.947 26.947h970.105c14.883 0 26.947-12.064 26.947-26.947s-12.064-26.947-26.947-26.947z" />
<glyph unicode="&#xe94d;" glyph-name="shopping-cart" d="M424.949 97.807c0-34.345-27.842-62.187-62.187-62.187s-62.187 27.842-62.187 62.187c0 34.345 27.842 62.187 62.187 62.187s62.187-27.842 62.187-62.187zM919.472 97.807c0-34.345-27.842-62.187-62.187-62.187s-62.187 27.842-62.187 62.187c0 34.345 27.842 62.187 62.187 62.187s62.187-27.842 62.187-62.187zM998.385 725.71h-758.199l-38.789 117.118c-3.469 10.478-13.263 17.551-24.302 17.551h-151.496c-14.139 0-25.6-11.461-25.6-25.6s11.461-25.6 25.6-25.6h133.010c3.876-11.707 176.161-531.906 179.853-543.055 3.471-10.478 13.266-17.551 24.302-17.551h494.521c11.036 0 20.83 7.073 24.302 17.549l141.1 425.937c5.478 16.545-6.853 33.651-24.302 33.651zM838.797 299.773h-457.544l-124.107 374.737h705.794l-124.143-374.737z" />
<glyph unicode="&#xe94e;" glyph-name="plus" d="M997.053 474.947h-458.105v458.105c0 14.883-12.064 26.947-26.947 26.947s-26.947-12.064-26.947-26.947v-458.105h-458.105c-14.883 0-26.947-12.064-26.947-26.947s12.064-26.947 26.947-26.947h458.105v-458.105c0-14.883 12.064-26.947 26.947-26.947s26.947 12.064 26.947 26.947v458.105h458.105c14.883 0 26.947 12.064 26.947 26.947s-12.064 26.947-26.947 26.947z" />
<glyph unicode="&#xe94f;" glyph-name="heart-filled" d="M495.302 8.769l-414.691 414.691c-107.481 107.481-107.481 282.364 0 389.844 107.615 107.615 282.103 107.741 389.844 0l41.447-41.45 41.447 41.45c107.732 107.73 282.103 107.744 389.844 0 107.732-107.732 107.741-282.101 0-389.844l-414.689-414.691c-9.166-9.168-24.036-9.17-33.204 0z" />
<glyph unicode="&#xe950;" glyph-name="star-filled" d="M176.252 32.161l85.995 284.245c0.984 3.254-0.174 6.819-2.882 8.874l-236.649 179.413c-43.193 32.748-20.744 101.56 33.357 102.662l296.909 6.050c3.399 0.069 6.432 2.275 7.549 5.485l97.503 280.506c17.796 51.2 90.179 51.112 107.946 0l97.503-280.506c1.117-3.21 4.15-5.414 7.551-5.485l296.907-6.050c54.197-1.104 76.475-69.974 33.355-102.662l-236.647-179.413c-2.708-2.054-3.866-5.62-2.884-8.874l85.995-284.245c15.695-51.886-42.912-94.362-87.329-63.45l-243.76 169.624c-2.789 1.942-6.54 1.939-9.329 0l-243.76-169.624c-44.515-30.967-103.005 11.65-87.329 63.45z" />
<glyph unicode="&#xe951;" glyph-name="facebook" d="M596.995-40.728v488.788h130.693c11.836 0 21.787 8.882 23.124 20.643l14.779 129.912c1.572 13.806-9.228 25.904-23.124 25.904h-145.471l0.256 88.32c0 46.023 4.686 70.683 75.52 70.683h71.418c12.854 0 23.272 10.421 23.272 23.272v129.934c0 12.854-10.421 23.272-23.272 23.272h-128.217c-181.965 0-246.010-85.6-246.010-229.557v-105.945h-90.154c-12.854 0-23.272-10.421-23.272-23.272v-129.912c0-12.854 10.421-23.272 23.272-23.272h90.151v-488.767c0-12.854 10.421-23.272 23.272-23.272h180.486c12.857-0.003 23.278 10.418 23.278 23.269z" />
<glyph unicode="&#xe952;" glyph-name="twitter" d="M499.429 616.129c-210.646 26.669-300.683 96.855-405.106 202.674-15.119 15.318-41.397 8.358-46.508-12.55-19.522-79.878-15.435-155.494 46.893-222.13 29.597-32.786 22.938-37.472-28.115-17.956-17.757 6.246-33.295 10.93-34.774 8.587-5.24-5.53 5.795-140.059 128.003-204.526l36.256-17.953-42.915-0.78c-41.433 0-42.915-0.78-38.475-17.173 26.488-90.832 135.584-127.033 184.233-144.417-38.879-24.308-115.381-79.989-238.246-82.748-33.298-0.783-60.675-3.906-60.675-6.246 0-9.788 315.856-203.433 628.173-10.93 159.31 98.358 296.698 323.584 296.698 537.079 0 35.909 2.22 40.593 43.653 83.528 24.416 24.98 47.354 52.302 51.793 60.109 7.4 14.833 6.659 14.833-31.075 1.563-62.892-23.419-71.77-20.296-40.695 14.833 22.938 24.98 50.315 70.258 50.315 83.528 0 2.343-11.098-1.56-23.675-8.587-13.318-7.806-42.915-19.516-65.111-26.543l-39.954-13.27c-23.934 17.007-68.361 50.366-99.147 60.109-147.083 42.598-283.75-79.218-273.763-227.945 0-0.003 0-0.003 2.22-38.255z" />
<glyph unicode="&#xe953;" glyph-name="instagram" d="M511.352 618.555c-94.487 0-170.784-76.694-170.784-170.784 0-94.484 76.694-170.784 170.784-170.784s170.784 76.694 170.784 170.784c0 94.484-76.3 170.784-170.784 170.784zM1023.313 447.771c0 227.442 5.282 334.705-85.787 425.777-99.743 99.737-236.239 85.787-425.78 85.787-227.442 0-334.705 5.282-425.777-85.787-92.62-92.623-85.787-204.572-85.787-425.777 0-214.706-7.884-332.103 85.787-425.777 92.62-92.62 204.572-85.787 425.777-85.787 211.824 0 331.368-8.619 425.777 85.787 99.74 99.74 85.79 236.236 85.79 425.777zM511.352 184.873c-145.089 0-262.898 117.809-262.898 262.898s117.809 262.898 262.898 262.898c145.089 0 262.898-117.809 262.898-262.898s-117.809-262.898-262.898-262.898zM784.529 659.67c-33.842 0-61.278 27.436-61.278 61.278s27.433 61.278 61.278 61.278c33.842 0 61.278-27.436 61.278-61.278 0-33.845-27.436-61.278-61.278-61.278z" />
<glyph unicode="&#xe954;" glyph-name="pinterest" d="M138.394 592.568c0-101.165 36.153-191.163 113.7-224.702 12.716-5.509 24.106-0.19 27.793 14.725 2.566 10.321 8.632 36.361 11.339 47.203 3.72 14.752 2.274 19.926-7.987 32.78-22.359 27.94-36.647 64.111-36.647 115.348 0 349.738 504.383 382.16 504.383 56.305 0-169.592-70.849-312.73-176.026-312.73-58.082 0-101.563 50.89-87.627 113.303 16.685 74.511 49.010 154.928 49.010 208.709 0 48.146-24.395 88.302-74.882 88.302-59.377 0-107.077-65.072-107.077-152.242 0-55.522 17.709-93.070 17.709-93.070s-60.765-272.742-71.415-320.509c-21.212-95.127-3.189-211.742-1.666-223.521 0.894-6.975 9.361-8.635 13.198-3.364 5.475 7.572 76.195 100.060 100.238 192.476 6.801 26.169 39.054 161.675 39.054 161.675 19.29-38.981 75.671-73.315 135.629-73.315 368.465 0 444.639 740.060-51.926 740.060-263.794 0-396.8-200.355-396.8-367.432z" />
<glyph unicode="&#xe955;" glyph-name="google+" d="M342.897 111.232c-189.069 0-342.897 151.043-342.897 336.763 0 185.71 153.828 336.773 342.897 336.773 74.931 0 147.561-24.095 206.912-68.242 9.946-7.398 11.523-21.686 3.3-30.963l-59.423-67.064c-7.127-8.044-19.151-9.395-27.917-3.177-35.604 25.252-78.574 38.991-122.872 38.991-115.84 0-210.068-92.557-210.068-206.308 0-113.743 94.236-206.29 210.068-206.29 98.004 0 162.158 46.956 182.996 131.2h-160.328c-11.625 0-21.048 9.423-21.048 21.048v88.348c0 11.625 9.423 21.048 21.048 21.048h279.485c11.625 0 21.048-9.423 21.048-21.048v-44.188c0-195.502-129.887-326.892-323.203-326.892zM1002.952 503.301h-78.369v78.369c0 11.625-9.423 21.048-21.048 21.048h-37.435c-11.625 0-21.048-9.423-21.048-21.048v-78.369h-78.369c-11.625 0-21.048-9.423-21.048-21.048v-37.437c0-11.625 9.423-21.048 21.048-21.048h78.369v-78.369c0-11.625 9.423-21.048 21.048-21.048h37.437c11.625 0 21.048 9.423 21.048 21.048v78.369h78.369c11.625 0 21.048 9.423 21.048 21.048v37.437c-0.003 11.625-9.426 21.048-21.051 21.048z" />
<glyph unicode="&#xe956;" glyph-name="linkedin" d="M0 596.688v-612.779c0-17.674 14.326-32 32-32h155.232c17.674 0 32 14.326 32 32v612.779c0 17.674-14.326 32-32 32h-155.232c-17.674 0-32-14.329-32-32zM124.030 960c-75.001 0-124.030-50.541-124.030-116.9 0-64.983 47.582-116.982 121.184-116.982h1.399c76.442 0 124.051 51.999 124.051 116.982-1.42 66.359-47.606 116.9-122.604 116.9zM771.581 628.688c-116.398 0-168.513-65.69-197.608-111.77v63.86c0 17.674-14.326 32-32 32h-154.583c-17.824 0-32.208-14.517-31.997-32.338 1.427-121.108-0.051-499.412-0.536-612.314-0.075-17.725 14.275-32.123 32-32.123h155.116c17.674 0 32 14.326 32 32v345.965c0 20.227 1.423 40.404 7.219 54.886 15.845 40.407 51.92 82.244 112.49 82.244 79.363 0 111.087-62.058 111.087-153.006v-330.076c0-17.674 14.326-32 32-32h155.225c17.671 0 32 14.326 32 32l0.007 356.045c0 207.875-108.155 304.626-252.419 304.626z" />
<glyph unicode="&#xe957;" glyph-name="stumbleupon" d="M566.19 609.172c0 29.909-24.257 54.167-54.195 54.167s-54.195-24.257-54.195-54.167l-0.265-326.562c-1.718-123.719-101.444-223.75-225.175-225.576-127.784-1.886-232.36 105.071-232.36 232.866v113.536c0 13.497 10.943 24.437 24.437 24.437h126.325c13.497 0 24.437-10.94 24.437-24.437v-113.889c0-29.835 23.35-55.418 53.183-55.95 30.39-0.54 55.182 23.919 55.182 54.187v330.61c4.398 122.55 104.821 220.595 228.432 220.595 124.069 0 224.728-98.765 228.432-221.958v-54.141c0-10.803-7.094-20.324-17.445-23.415l-77.943-23.27c-5.732-1.712-11.893-1.26-17.314 1.266l-47.417 22.101c-8.61 4.014-14.114 12.652-14.114 22.15l-0.003 47.451zM848.788 402.108v-119.125c0-29.85-23.384-55.438-53.231-55.933-30.382-0.503-55.122 23.976-55.122 54.192v111.039c0 16.356-15.755 28.095-31.425 23.415l-63.972-19.095c-5.732-1.712-11.893-1.26-17.314 1.266l-26.761 12.473c-16.199 7.552-34.762-4.275-34.762-22.15v-104.311c1.064-124.254 101.222-224.922 225.263-226.844 127.878-1.98 232.536 105.003 232.536 232.9v112.174c0 13.497-10.94 24.437-24.437 24.437h-126.339c-13.497 0-24.437-10.943-24.437-24.437z" />
<glyph unicode="&#xe958;" glyph-name="youtube" d="M1005.483 689.673c-12.496 54.372-56.971 94.475-110.501 100.443-176.444 19.715-587.082 19.951-765.668 0-53.521-5.968-97.977-46.071-110.492-100.443-25.165-109.585-24.963-375.62-0.193-483.337 12.496-54.38 56.949-94.464 110.481-100.452 176.444-19.715 587.082-19.951 765.668 0 53.521 5.988 97.997 46.071 110.512 100.452 24.755 107.79 25.074 375.125 0.193 483.337zM412.453 357.254v181.501c0 32.267 34.93 52.434 62.876 36.301l157.187-90.755c27.944-16.134 27.944-56.468 0-72.602l-157.187-90.746c-27.947-16.134-62.876 4.033-62.876 36.301z" />
<glyph unicode="&#xe959;" glyph-name="behance" d="M296.832 769.98c75.588 0 153.987-14.674 186.795-81.971 18.583-38.118 22.628-109.278-7.205-153.509-14.407-21.114-35.769-38.502-64.333-51.914 38.75-11.179 67.564-30.802 86.443-58.621 36.881-54.124 35.985-134.596 10.183-183.563-38.574-72.519-122.388-100.599-203.682-100.599h-282.118c-12.655 0-22.915 10.26-22.915 22.915v584.348c0 12.655 10.26 22.915 22.915 22.915h273.917zM278.946 515.624c49.138 0 84.702 21.322 84.702 75.017 0 55.088-40.542 72.53-95.383 72.53h-106.746c-12.655 0-22.915-10.26-22.915-22.915v-101.47c0-12.655 10.26-22.915 22.915-22.915h117.43v-0.247zM286.646 247.359c59.42 0 101.225 21.336 102.554 80.29 1.161 51.365-41.503 93.090-92.882 93.090h-134.551c-12.655 0-22.915-10.26-22.915-22.915v-127.551c0-12.655 10.26-22.915 22.915-22.915h124.88zM919.214 281.634h62.1c16.902 0 28.092-17.732 20.648-32.907-98.642-201.085-433.636-150.633-433.636 119.1 0 141.008 98.679 241.439 233.739 241.439 150.972 0 231.242-125.554 221.070-270.999h-329.119c0-150.272 168.548-135.060 205.867-68.423 3.977 7.108 11.187 11.79 19.331 11.79zM721.417 417.010h148.759c15.26 0 26.468 14.714 22.027 29.315-30.165 99.172-162.449 86.454-192.523 0.916-5.197-14.777 6.073-30.231 21.737-30.231zM668.43 704.839v-16.27c0-12.655 10.26-22.915 22.915-22.915h209.522c12.655 0 22.915 10.26 22.915 22.915v16.27c0 12.655-10.26 22.915-22.915 22.915h-209.522c-12.655 0-22.915-10.26-22.915-22.915z" />
<glyph unicode="&#xe95a;" glyph-name="dribbble" d="M561.166 465.421c-9.136 20.023-18.773 40.019-28.756 59.837-3.263 6.482-10.715 9.645-17.685 7.627-223.988-64.851-439.527-69.495-499.632-69.414-8.323 0.012-15.084-6.726-15.093-15.045-0.136-120.838 42.143-235.447 117.885-326.598 6.602-7.943 18.944-7.117 24.462 1.615 83.452 132.123 238.223 267.602 409.593 321.298 8.69 2.721 13.005 12.397 9.227 20.68zM282.873 905.333c-131.894-66.244-231.376-187.72-267.783-333.842-2.377-9.54 5.017-18.727 14.846-18.61 138.264 1.696 294.094 21.605 435.29 57.252 9.7 2.45 14.394 13.469 9.419 22.147-72.367 126.223-147.195 232.841-172.717 268.394-4.336 6.039-12.415 7.997-19.056 4.659zM840.911 840.114c-119.509 100.079-275.738 139.122-425.593 110.255-10.845-2.088-15.907-14.678-9.441-23.63 30.952-42.846 103.292-146.541 171.165-269.337 3.673-6.647 11.707-9.546 18.776-6.765 146.52 57.629 221.915 137.39 247.136 168.375 5.21 6.409 4.288 15.802-2.043 21.102zM589.069 360.078c-250.944-90.871-358.527-256.558-385.095-304.080-3.715-6.647-1.874-14.994 4.249-19.523 147.324-108.905 334.734-126.834 492.735-64.146 6.692 2.655 10.601 9.633 9.32 16.718-9.962 55.119-39.070 195.63-101.948 362.236-7.491 3.423-11.77 5.376-19.261 8.796zM705.215 371.326c52.313-147.294 78.866-270.398 89.105-324.245 2.085-10.962 14.919-15.916 23.865-9.245 101.023 75.344 173.371 186.991 197.543 315.401 1.455 7.729-3.206 15.292-10.787 17.387-40.076 11.068-155.731 37.786-287.553 20.68-9.474-1.232-15.371-10.971-12.174-19.978zM629.651 555.554c12.707-26.568 23.163-50.219 33.8-75.771 2.585-6.21 8.98-9.905 15.663-9.16 140.144 15.615 277.28-5.183 327.099-14.253 9.489-1.727 18.218 5.764 17.775 15.401-4.912 106.624-42.641 204.83-103.334 284.75-5.782 7.615-17.17 7.895-23.377 0.621-29.355-34.39-110.96-117.442-259.942-181.263-7.865-3.369-11.375-12.611-7.684-20.324z" />
<glyph unicode="&#xe95b;" glyph-name="next" d="M191.581-53.464c-9.89 12.203-8.016 30.117 4.19 40.007l569.382 461.456-569.382 461.456c-12.205 9.89-14.080 27.804-4.19 40.007 9.89 12.208 27.799 14.080 40.007 4.19l596.649-483.554c14.052-11.389 14.023-32.83 0-44.197l-596.649-483.554c-12.2-9.887-30.111-8.018-40.007 4.19z" />
</font>
</defs>
</svg>
